# Generated by tools/make-block-meshes.py -- edit that, not this.
# Trumpet by jeremy, CC-BY 3.0, from https://poly.pizza/m/0Mj5XgeGtKJ
v 0.68863 -0.12045 -0.12045
v 0.78242 0.00000 -0.32197
v 0.78242 -0.22767 -0.22767
v 0.68863 0.00000 -0.17035
v 0.68863 0.12045 -0.12045
v 0.78242 0.32197 -0.00000
v 0.78242 0.22767 -0.22767
v 0.68863 0.17035 -0.00000
v 0.68863 0.12045 0.12045
v 0.78242 0.00000 0.32197
v 0.78242 0.22767 0.22767
v 0.68863 0.00000 0.17035
v 0.68863 -0.12045 0.12045
v 0.78242 -0.32197 -0.00000
v 0.78242 -0.22767 0.22767
v 0.68863 -0.17035 -0.00000
v 0.56090 -0.00000 0.08432
v 0.56090 0.05962 0.05962
v 0.56090 -0.08432 -0.00000
v 0.56090 -0.05962 0.05962
v 0.56090 -0.05962 -0.05962
v 0.56090 -0.00000 -0.08432
v 0.56090 0.05962 -0.05962
v 0.56090 0.08432 -0.00000
v 0.50913 -0.04877 -0.04877
v 0.50913 -0.00000 -0.06897
v 0.50913 0.04877 -0.04877
v 0.50913 0.06897 -0.00000
v 0.50913 -0.00000 0.06897
v 0.50913 0.04877 0.04877
v 0.50913 -0.06897 -0.00000
v 0.50913 -0.04877 0.04877
v -0.33281 0.06897 -0.00000
v -0.33281 0.04877 0.04877
v -0.33281 -0.04877 0.04877
v -0.33281 -0.00000 0.06897
v -0.33281 -0.04877 -0.04877
v -0.33281 -0.00000 -0.06897
v -0.33281 0.04877 -0.04877
v -0.33281 -0.06897 -0.00000
v -0.37622 -0.04877 -0.06340
v -0.39279 -0.06897 -0.01753
v -0.36935 -0.00000 -0.08240
v -0.37622 0.04877 -0.06340
v -0.39279 0.06897 -0.01753
v -0.40936 0.04877 0.02834
v -0.40936 -0.04877 0.02834
v -0.41622 -0.00000 0.04734
v -0.40049 0.04877 -0.09433
v -0.44843 0.06897 -0.08538
v -0.49638 0.04877 -0.07643
v -0.51624 -0.00000 -0.07272
v -0.44843 -0.06897 -0.08538
v -0.49638 -0.04877 -0.07643
v -0.40049 -0.04877 -0.09433
v -0.38063 -0.00000 -0.09804
v -0.38099 0.01056 -0.13820
v -0.40119 -0.03821 -0.13814
v -0.40119 0.05933 -0.13814
v -0.44996 0.07954 -0.13798
v -0.49873 0.05933 -0.13782
v -0.51893 0.01056 -0.13776
v -0.44996 -0.05841 -0.13798
v -0.49873 -0.03821 -0.13782
v -0.38788 0.06557 -0.16877
v -0.37226 0.01680 -0.15595
v -0.42557 0.08577 -0.19973
v -0.46325 0.06557 -0.23068
v -0.47887 0.01680 -0.24350
v -0.46325 -0.03197 -0.23068
v -0.38788 -0.03197 -0.16877
v -0.42557 -0.05217 -0.19973
v -0.32323 -0.04023 -0.23175
v -0.32717 -0.02095 -0.27926
v -0.32726 -0.02097 -0.18423
v -0.34649 0.07209 -0.18423
v -0.33689 0.02556 -0.16455
v -0.35043 0.09138 -0.23175
v -0.34640 0.07211 -0.27926
v -0.33677 0.02559 -0.29894
v 0.36567 0.08411 -0.15989
v 0.37440 0.04196 -0.17772
v 0.35697 0.12626 -0.17772
v 0.35341 0.14373 -0.22076
v 0.35705 0.12628 -0.26380
v 0.36578 0.08413 -0.28162
v 0.37804 0.02451 -0.22076
v 0.37447 0.04198 -0.26380
v 0.50270 0.10210 -0.22738
v 0.49383 0.05752 -0.20837
v 0.40256 0.10208 -0.14646
v 0.42302 0.05750 -0.15115
v 0.41143 0.14666 -0.16547
v 0.44443 0.16513 -0.19705
v 0.48224 0.14668 -0.22269
v 0.46083 0.03905 -0.17679
v 0.43888 0.07985 -0.10739
v 0.47993 0.06326 -0.10663
v 0.42143 0.11991 -0.11455
v 0.43779 0.15997 -0.12391
v 0.47839 0.17657 -0.13000
v 0.51943 0.15999 -0.12924
v 0.52053 0.07986 -0.11271
v 0.53689 0.11993 -0.12208
v 0.51002 0.13284 -0.02395
v 0.50039 0.17709 -0.04064
v 0.45438 0.07024 -0.04705
v 0.49096 0.08858 -0.02661
v 0.42171 0.08856 -0.07330
v 0.41208 0.13281 -0.08998
v 0.43114 0.17707 -0.08733
v 0.46772 0.19541 -0.06689
v 0.36611 0.09446 -0.04089
v 0.39602 0.13574 -0.06398
v 0.40102 0.09286 -0.04681
v 0.36561 0.13710 -0.05901
v 0.36475 0.18006 -0.04166
v 0.42652 0.19733 -0.01729
v 0.40500 0.17878 -0.05411
v 0.36403 0.19816 0.00098
v 0.36438 0.13817 0.06205
v 0.44757 0.13684 0.03403
v 0.44257 0.17972 0.01686
v 0.36387 0.18081 0.04394
v 0.36596 0.07711 0.00207
v 0.41706 0.07525 -0.01265
v 0.43859 0.09380 0.02416
v 0.36524 0.09521 0.04471
v -0.55223 0.17565 0.00118
v -0.55232 0.16475 0.02816
v -0.55147 0.11099 0.02865
v -0.55201 0.13797 0.03954
v -0.55092 0.11052 -0.02511
v -0.55124 0.13730 -0.03649
v -0.55178 0.16428 -0.02560
v -0.55102 0.09962 0.00187
v -0.73275 0.11052 -0.02511
v -0.73285 0.09962 0.00187
v -0.73307 0.13730 -0.03649
v -0.73361 0.16428 -0.02560
v -0.73406 0.17565 0.00118
v -0.73416 0.16475 0.02816
v -0.73330 0.11099 0.02865
v -0.73384 0.13797 0.03954
v -0.75276 0.17762 -0.03918
v -0.75344 0.19468 0.00101
v -0.75311 0.13814 0.05858
v -0.75358 0.17833 0.04150
v -0.75162 0.08059 0.00204
v -0.75229 0.09765 0.04223
v -0.75147 0.09694 -0.03846
v -0.75195 0.13713 -0.05553
v -0.75981 0.18862 -0.05038
v -0.75877 0.13699 -0.07123
v -0.76085 0.18953 0.05251
v -0.76067 0.21038 0.00087
v -0.75921 0.08665 0.05343
v -0.76025 0.13828 0.07428
v -0.75817 0.08574 -0.04946
v -0.75835 0.06489 0.00218
v -0.79750 0.06489 0.00218
v -0.79836 0.08665 0.05343
v -0.79731 0.08574 -0.04946
v -0.79792 0.13699 -0.07123
v -0.79895 0.18862 -0.05038
v -0.79982 0.21038 0.00087
v -0.80000 0.18953 0.05251
v -0.79940 0.13828 0.07428
v -0.79791 0.10887 -0.02673
v -0.79825 0.13728 -0.03880
v -0.79882 0.16589 -0.02724
v -0.79930 0.17796 0.00116
v -0.79940 0.16640 0.02978
v -0.79907 0.13799 0.04185
v -0.79849 0.10937 0.03029
v -0.79801 0.09731 0.00189
v -0.77196 0.13790 0.03208
v -0.77153 0.11622 0.02332
v -0.77134 0.13737 -0.02903
v -0.77109 0.11584 -0.01989
v -0.77214 0.16819 0.00125
v -0.77178 0.15905 -0.02027
v -0.77222 0.15943 0.02294
v -0.77117 0.10708 0.00180
v -0.77165 0.13763 0.00152
v -0.17969 -0.03884 0.17995
v -0.21851 -0.00002 0.17995
v -0.21851 -0.05492 0.17995
v -0.25733 -0.03884 0.17995
v -0.27340 -0.00002 0.17995
v -0.25733 0.03879 0.17995
v -0.21851 0.05487 0.17995
v -0.17969 0.03879 0.17995
v -0.16362 -0.00002 0.17995
v -0.03328 -0.03884 0.17995
v -0.07210 -0.00002 0.17995
v -0.07210 -0.05492 0.17995
v -0.11091 -0.03884 0.17995
v -0.12699 -0.00002 0.17995
v -0.11091 0.03879 0.17995
v -0.07210 0.05487 0.17995
v -0.03328 0.03879 0.17995
v -0.01720 -0.00002 0.17995
v 0.11549 -0.03884 0.17995
v 0.07667 -0.00002 0.17995
v 0.07667 -0.05492 0.17995
v 0.03786 -0.03884 0.17995
v 0.02178 -0.00002 0.17995
v 0.03786 0.03879 0.17995
v 0.07667 0.05487 0.17995
v 0.11549 0.03879 0.17995
v 0.13157 -0.00002 0.17995
v 0.07667 -0.02153 0.14335
v 0.11549 -0.03884 0.14335
v 0.07667 -0.05492 0.14335
v 0.09188 -0.01523 0.14335
v -0.09360 -0.00002 0.14335
v -0.11091 -0.03884 0.14335
v -0.12699 -0.00002 0.14335
v -0.08730 -0.01523 0.14335
v -0.20331 -0.01523 0.14335
v -0.16362 -0.00002 0.14335
v -0.17969 -0.03884 0.14335
v -0.19701 -0.00002 0.14335
v 0.13157 -0.00002 0.14335
v 0.09818 -0.00002 0.14335
v -0.07210 -0.05492 0.14335
v -0.07210 -0.02153 0.14335
v -0.21851 -0.02153 0.14335
v -0.21851 -0.05492 0.14335
v -0.03328 -0.03884 0.14335
v -0.05689 -0.01523 0.14335
v -0.23371 -0.01523 0.14335
v -0.25733 -0.03884 0.14335
v 0.11549 0.03879 0.14335
v 0.09188 0.01518 0.14335
v -0.01720 -0.00002 0.14335
v -0.05060 -0.00002 0.14335
v -0.24001 -0.00002 0.14335
v -0.27340 -0.00002 0.14335
v 0.07667 0.05487 0.14335
v 0.07667 0.02148 0.14335
v -0.03328 0.03879 0.14335
v -0.05689 0.01518 0.14335
v -0.23371 0.01518 0.14335
v -0.25733 0.03879 0.14335
v 0.03786 0.03879 0.14335
v 0.06147 0.01518 0.14335
v -0.07210 0.05487 0.14335
v -0.07210 0.02148 0.14335
v -0.21851 0.02148 0.14335
v -0.21851 0.05487 0.14335
v 0.02178 -0.00002 0.14335
v 0.05517 -0.00002 0.14335
v -0.11091 0.03879 0.14335
v -0.08730 0.01518 0.14335
v -0.20331 0.01518 0.14335
v -0.17969 0.03879 0.14335
v 0.03786 -0.03884 0.14335
v 0.06147 -0.01523 0.14335
v -0.07210 0.02148 0.09677
v -0.08730 0.01518 0.09677
v -0.20331 0.01518 0.09677
v -0.21851 0.02148 0.09677
v 0.05517 -0.00002 0.09677
v 0.06147 -0.01523 0.09677
v -0.09360 -0.00002 0.09677
v -0.19701 -0.00002 0.09677
v 0.07667 -0.02153 0.09677
v 0.09188 -0.01523 0.09677
v -0.08730 -0.01523 0.09677
v -0.20331 -0.01523 0.09677
v 0.09818 -0.00002 0.09677
v -0.07210 -0.02153 0.09677
v -0.21851 -0.02153 0.09677
v -0.05689 -0.01523 0.09677
v -0.23371 -0.01523 0.09677
v 0.09188 0.01518 0.09677
v -0.05060 -0.00002 0.09677
v -0.24001 -0.00002 0.09677
v 0.07667 0.02148 0.09677
v -0.05689 0.01518 0.09677
v -0.23371 0.01518 0.09677
v 0.06147 0.01518 0.09677
v -0.07210 -0.06587 0.09677
v -0.11866 -0.04658 0.09677
v -0.17195 -0.04658 0.09677
v -0.21851 -0.06587 0.09677
v -0.02554 -0.04658 0.09677
v -0.26507 -0.04658 0.09677
v 0.12323 0.04654 0.09677
v 0.14252 -0.00002 0.09677
v -0.00625 -0.00002 0.09677
v -0.28435 -0.00002 0.09677
v 0.07667 0.06582 0.09677
v -0.02554 0.04654 0.09677
v -0.26507 0.04654 0.09677
v 0.03012 0.04654 0.09677
v -0.07210 0.06582 0.09677
v -0.21851 0.06582 0.09677
v 0.01083 -0.00002 0.09677
v -0.11866 0.04654 0.09677
v -0.17195 0.04654 0.09677
v 0.03012 -0.04658 0.09677
v -0.13794 -0.00002 0.09677
v -0.15267 -0.00002 0.09677
v 0.07667 -0.06587 0.09677
v 0.12323 -0.04658 0.09677
v -0.21851 0.06582 -0.30666
v -0.26507 0.04654 -0.30666
v 0.03012 0.04654 -0.30666
v 0.01083 -0.00002 -0.30666
v -0.07210 0.06582 -0.30666
v -0.11866 0.04654 -0.30666
v -0.17195 0.04654 -0.30666
v 0.03012 -0.04658 -0.30666
v -0.13794 -0.00002 -0.30666
v -0.15267 -0.00002 -0.30666
v 0.07667 -0.06587 -0.30666
v 0.12323 -0.04658 -0.30666
v -0.11866 -0.04658 -0.30666
v -0.17195 -0.04658 -0.30666
v 0.14252 -0.00002 -0.30666
v -0.07210 -0.06587 -0.30666
v -0.21851 -0.06587 -0.30666
v -0.02554 -0.04658 -0.30666
v -0.26507 -0.04658 -0.30666
v 0.12323 0.04654 -0.30666
v -0.00625 -0.00002 -0.30666
v -0.28435 -0.00002 -0.30666
v 0.07667 0.06582 -0.30666
v -0.02554 0.04654 -0.30666
v -0.21851 -0.00002 -0.30666
v -0.07210 -0.00002 -0.30666
v 0.07667 -0.00002 -0.30666
v 0.80000 -0.22057 -0.22057
v 0.80000 0.00000 -0.31193
v 0.80000 0.22057 -0.22057
v 0.80000 0.31193 -0.00000
v 0.80000 0.00000 0.31193
v 0.80000 0.22057 0.22057
v 0.80000 -0.31193 -0.00000
v 0.80000 -0.22057 0.22057
v 0.71742 -0.11095 0.11095
v 0.71742 0.00000 0.15691
v 0.71742 0.00000 -0.15691
v 0.71742 -0.11095 -0.11095
v 0.71742 0.15691 -0.00000
v 0.71742 0.11095 -0.11095
v 0.71742 0.11095 0.11095
v 0.71742 -0.15691 -0.00000
v 0.58643 -0.07233 -0.00000
v 0.58643 -0.05114 -0.05114
v 0.58643 0.05114 -0.05114
v 0.58643 0.00000 -0.07233
v 0.58643 0.05114 0.05114
v 0.58643 0.07233 -0.00000
v 0.58643 0.00000 0.07232
v 0.58643 -0.05114 0.05114
v 0.49763 0.03317 0.03317
v 0.49763 -0.00000 0.04691
v 0.49763 -0.03317 0.03317
v 0.49763 -0.04691 -0.00000
v 0.49763 -0.03317 -0.03317
v 0.49763 0.03317 -0.03317
v 0.49763 -0.00000 -0.04691
v 0.49763 0.04691 -0.00000
v 0.49763 -0.00000 -0.00000
vt 0.50000 0.50000
vn -0.8310 -0.2129 -0.5140
vn -0.8310 0.5140 -0.2129
vn -0.8310 0.2129 0.5140
vn -0.8310 -0.5140 0.2129
vn -0.8310 -0.5140 -0.2129
vn -0.8310 0.2129 -0.5140
vn -0.8310 0.5140 0.2129
vn -0.8310 -0.2129 0.5140
vn -0.5283 0.3249 0.7844
vn -0.5283 -0.7844 0.3249
vn -0.5283 -0.7844 -0.3249
vn -0.5283 0.3249 -0.7844
vn -0.5283 0.7844 0.3249
vn -0.5283 -0.3249 0.7844
vn -0.5283 -0.3249 -0.7844
vn -0.5283 0.7844 -0.3249
vn -0.2641 -0.3691 -0.8911
vn -0.2641 0.8911 -0.3691
vn -0.2641 0.3691 0.8911
vn -0.2641 -0.8911 0.3691
vn -0.2641 -0.8911 -0.3691
vn -0.2641 0.3691 -0.8911
vn -0.2641 0.8911 0.3691
vn -0.2641 -0.3691 0.8911
vn -0.0000 0.9239 0.3827
vn 0.0000 -0.3827 0.9239
vn 0.0000 -0.3827 -0.9239
vn -0.0000 0.9239 -0.3827
vn -0.0000 0.3827 0.9239
vn 0.0000 -0.9239 0.3827
vn 0.0000 -0.9239 -0.3827
vn -0.0000 0.3827 -0.9239
vn 0.1160 -0.9207 -0.3727
vn 0.3073 0.3734 -0.8753
vn -0.1043 0.9211 0.3750
vn -0.2356 -0.3766 0.8959
vn 0.3073 -0.3734 -0.8753
vn 0.1160 0.9207 -0.3727
vn -0.2356 0.3766 0.8959
vn -0.1043 -0.9211 0.3750
vn 0.3349 0.9024 -0.2710
vn -0.7234 0.3383 0.6018
vn -0.3320 -0.9025 0.2744
vn 0.3349 -0.9024 -0.2710
vn 0.7480 0.3379 -0.5712
vn -0.3320 0.9025 0.2744
vn -0.7234 -0.3383 0.6018
vn 0.7480 -0.3379 -0.5712
vn 0.9182 -0.3813 -0.1074
vn 0.3936 0.8998 0.1881
vn -0.9190 0.3813 0.1004
vn -0.3932 -0.9064 -0.1546
vn 0.3604 -0.9094 -0.2076
vn 0.9230 0.3758 0.0830
vn -0.3645 0.9133 0.1817
vn -0.9251 -0.3789 -0.0264
vn 0.8114 0.3583 0.4618
vn -0.3983 0.9137 -0.0805
vn -0.8632 -0.3628 -0.3511
vn 0.8797 -0.3631 0.3070
vn 0.3321 0.9073 0.2580
vn -0.8782 0.3631 -0.3112
vn -0.3516 -0.9123 -0.2098
vn 0.4100 -0.9110 0.0443
vn -0.0565 -0.9036 -0.4247
vn 0.2312 -0.9054 0.3562
vn 0.2114 0.3651 0.9066
vn -0.2108 0.9066 -0.3656
vn -0.3005 -0.3781 -0.8756
vn 0.2923 -0.3251 0.8994
vn 0.0752 0.9062 0.4161
vn -0.3693 0.3206 -0.8722
vn 0.0260 -0.3849 0.9226
vn -0.0745 0.9219 0.3803
vn -0.0096 0.3879 -0.9217
vn 0.0909 -0.9201 -0.3809
vn 0.0791 -0.9215 0.3803
vn -0.0380 0.3826 0.9231
vn -0.0627 0.9230 -0.3796
vn 0.0544 -0.3794 -0.9236
vn 0.4065 -0.3579 -0.8406
vn -0.2903 -0.3309 0.8979
vn -0.3313 0.8945 0.3002
vn 0.2801 0.3285 -0.9020
vn 0.2912 -0.9018 -0.3194
vn -0.0350 -0.8942 0.4464
vn -0.3897 0.3607 0.8474
vn -0.0273 0.8790 -0.4760
vn -0.2494 -0.8672 0.4310
vn -0.8517 0.3762 0.3649
vn 0.3149 0.9070 -0.2795
vn 0.9158 -0.3430 -0.2089
vn -0.7775 -0.3328 0.5335
vn -0.4192 0.9075 0.0260
vn 0.8536 0.3718 -0.3648
vn 0.4744 -0.8729 0.1141
vn 0.9228 0.3449 0.1715
vn 0.3643 -0.9012 0.2349
vn -0.4163 -0.9084 -0.0378
vn -0.8606 0.3307 -0.3873
vn 0.4601 0.8800 -0.1184
vn 0.8846 -0.3468 0.3117
vn -0.8920 -0.3627 -0.2697
vn -0.3251 0.8702 -0.3701
vn -0.1687 -0.3852 -0.9073
vn -0.0994 0.9132 -0.3952
vn 0.3031 0.3800 0.8739
vn 0.0887 -0.9131 0.3979
vn -0.1295 -0.9129 -0.3871
vn -0.2162 0.3131 -0.9248
vn 0.1363 0.9126 0.3856
vn 0.2764 -0.3136 0.9084
vn -0.0227 0.9270 0.3743
vn -0.0227 -0.3747 0.9269
vn -0.0227 -0.3911 -0.9201
vn -0.0227 0.9201 -0.3910
vn -0.0227 0.3906 0.9203
vn -0.0227 -0.9204 0.3904
vn -0.0227 -0.9270 -0.3745
vn -0.0227 0.3739 -0.9272
vn 0.0000 -0.9272 -0.3745
vn -0.0000 0.3744 -0.9273
vn -0.0000 0.9272 0.3745
vn 0.0000 -0.3744 0.9273
vn 0.0000 -0.3910 -0.9204
vn -0.0000 0.9205 -0.3908
vn -0.0000 0.3909 0.9204
vn 0.0000 -0.9205 0.3908
vn 0.6414 -0.3069 0.7031
vn 0.3327 0.9038 0.2692
vn -0.7581 0.3247 -0.5656
vn -0.3811 -0.8965 -0.2258
vn 0.2300 -0.9076 0.3513
vn 0.6548 0.3666 0.6609
vn -0.2993 0.9112 -0.2832
vn -0.7938 -0.3313 -0.5100
vn 0.6742 0.6838 -0.2790
vn 0.6727 0.2960 0.6782
vn 0.6816 -0.6694 0.2957
vn 0.6842 -0.6771 -0.2710
vn 0.6790 0.2866 -0.6759
vn 0.6716 0.6861 0.2795
vn 0.6768 -0.2639 0.6872
vn 0.6831 -0.2787 -0.6750
vn 0.9021 0.1770 -0.3935
vn 0.8945 0.4135 0.1702
vn 0.8998 -0.1477 0.4105
vn 0.9065 -0.1560 -0.3924
vn 0.8972 0.4118 -0.1597
vn 0.8955 0.1828 0.4057
vn 0.9048 -0.3863 0.1792
vn 0.9076 -0.3905 -0.1545
vn -0.0000 0.3910 0.9204
vn -0.9998 -0.0160 -0.0100
vn -0.3167 0.3497 -0.8817
vn -0.3185 0.3674 0.8738
vn -0.3160 -0.8752 0.3663
vn -0.3155 -0.3741 -0.8721
vn -0.3180 0.8708 -0.3750
vn -0.3188 0.8792 0.3540
vn -0.3173 -0.3605 0.8771
vn -0.3152 -0.8796 -0.3564
vn -0.0000 0.0000 1.0000
vn -0.0000 0.0000 -1.0000
vn 0.3827 0.9239 0.0000
vn 0.9239 -0.3827 0.0000
vn -0.9239 -0.3827 0.0000
vn 0.3827 -0.9239 0.0000
vn 0.9239 0.3827 0.0000
vn -0.3827 -0.9239 0.0000
vn -0.9239 0.3827 0.0000
vn -0.3827 0.9239 0.0000
vn 0.4666 -0.3385 -0.8172
vn 0.4666 0.8172 -0.3385
vn 0.4666 0.3385 0.8172
vn 0.4666 -0.8172 0.3385
vn 0.4666 -0.8172 -0.3385
vn 0.4666 0.3385 -0.8172
vn 0.4666 0.8172 0.3385
vn 0.4666 -0.3385 0.8172
vn 0.8663 0.1912 -0.4615
vn 0.8663 0.1912 0.4615
vn 0.8663 -0.4615 0.1912
vn 0.8663 -0.1912 -0.4615
vn 0.8663 0.4615 -0.1912
vn 0.8663 0.4615 0.1912
vn 0.8663 -0.1912 0.4615
vn 0.8663 -0.4615 -0.1912
vn 0.5123 0.7934 0.3286
vn 0.5123 -0.3286 0.7934
vn 0.5123 -0.7934 -0.3286
vn 0.5123 0.3286 -0.7934
vn 0.5123 0.3286 0.7934
vn 0.5123 -0.7934 0.3286
vn 0.5123 -0.3286 -0.7934
vn 0.5123 0.7934 -0.3286
vn 0.2556 -0.3700 -0.8932
vn 0.2556 0.8932 -0.3700
vn 0.2556 0.8932 0.3700
vn 0.2556 -0.3700 0.8932
vn 0.2556 -0.8932 -0.3700
vn 0.2556 0.3700 -0.8932
vn 0.2556 0.3700 0.8932
vn 0.2556 -0.8932 0.3700
vn 1.0000 0.0000 0.0000
f 1/1/1 2/1/1 3/1/1
f 2/1/1 1/1/1 4/1/1
f 5/1/2 6/1/2 7/1/2
f 6/1/2 5/1/2 8/1/2
f 9/1/3 10/1/3 11/1/3
f 10/1/3 9/1/3 12/1/3
f 13/1/4 14/1/4 15/1/4
f 14/1/4 13/1/4 16/1/4
f 16/1/5 3/1/5 14/1/5
f 3/1/5 16/1/5 1/1/5
f 4/1/6 7/1/6 2/1/6
f 7/1/6 4/1/6 5/1/6
f 8/1/7 11/1/7 6/1/7
f 11/1/7 8/1/7 9/1/7
f 12/1/8 15/1/8 10/1/8
f 15/1/8 12/1/8 13/1/8
f 17/1/9 12/1/9 9/1/9
f 9/1/9 18/1/9 17/1/9
f 19/1/10 16/1/10 13/1/10
f 13/1/10 20/1/10 19/1/10
f 21/1/11 1/1/11 16/1/11
f 16/1/11 19/1/11 21/1/11
f 22/1/12 5/1/12 4/1/12
f 5/1/12 22/1/12 23/1/12
f 24/1/13 9/1/13 8/1/13
f 9/1/13 24/1/13 18/1/13
f 20/1/14 13/1/14 12/1/14
f 12/1/14 17/1/14 20/1/14
f 21/1/15 4/1/15 1/1/15
f 4/1/15 21/1/15 22/1/15
f 23/1/16 8/1/16 5/1/16
f 8/1/16 23/1/16 24/1/16
f 25/1/17 22/1/17 21/1/17
f 22/1/17 25/1/17 26/1/17
f 27/1/18 24/1/18 23/1/18
f 24/1/18 27/1/18 28/1/18
f 29/1/19 17/1/19 18/1/19
f 18/1/19 30/1/19 29/1/19
f 31/1/20 19/1/20 20/1/20
f 20/1/20 32/1/20 31/1/20
f 25/1/21 21/1/21 19/1/21
f 19/1/21 31/1/21 25/1/21
f 26/1/22 23/1/22 22/1/22
f 23/1/22 26/1/22 27/1/22
f 28/1/23 18/1/23 24/1/23
f 18/1/23 28/1/23 30/1/23
f 32/1/24 20/1/24 17/1/24
f 17/1/24 29/1/24 32/1/24
f 33/1/25 30/1/25 28/1/25
f 30/1/25 33/1/25 34/1/25
f 35/1/26 32/1/26 29/1/26
f 29/1/26 36/1/26 35/1/26
f 37/1/27 26/1/27 25/1/27
f 26/1/27 37/1/27 38/1/27
f 39/1/28 28/1/28 27/1/28
f 28/1/28 39/1/28 33/1/28
f 36/1/29 29/1/29 30/1/29
f 30/1/29 34/1/29 36/1/29
f 40/1/30 31/1/30 32/1/30
f 32/1/30 35/1/30 40/1/30
f 37/1/31 25/1/31 31/1/31
f 31/1/31 40/1/31 37/1/31
f 38/1/32 27/1/32 26/1/32
f 27/1/32 38/1/32 39/1/32
f 41/1/33 37/1/33 40/1/33
f 40/1/33 42/1/33 41/1/33
f 43/1/34 39/1/34 38/1/34
f 39/1/34 43/1/34 44/1/34
f 45/1/35 34/1/35 33/1/35
f 34/1/35 45/1/35 46/1/35
f 47/1/36 35/1/36 36/1/36
f 36/1/36 48/1/36 47/1/36
f 41/1/37 38/1/37 37/1/37
f 38/1/37 41/1/37 43/1/37
f 44/1/38 33/1/38 39/1/38
f 33/1/38 44/1/38 45/1/38
f 48/1/39 36/1/39 34/1/39
f 34/1/39 46/1/39 48/1/39
f 42/1/40 40/1/40 35/1/40
f 35/1/40 47/1/40 42/1/40
f 49/1/41 45/1/41 44/1/41
f 45/1/41 49/1/41 50/1/41
f 51/1/42 48/1/42 46/1/42
f 48/1/42 51/1/42 52/1/42
f 53/1/43 42/1/43 47/1/43
f 47/1/43 54/1/43 53/1/43
f 55/1/44 41/1/44 42/1/44
f 42/1/44 53/1/44 55/1/44
f 49/1/45 44/1/45 43/1/45
f 43/1/45 56/1/45 49/1/45
f 50/1/46 46/1/46 45/1/46
f 46/1/46 50/1/46 51/1/46
f 52/1/47 47/1/47 48/1/47
f 47/1/47 52/1/47 54/1/47
f 56/1/48 43/1/48 41/1/48
f 41/1/48 55/1/48 56/1/48
f 57/1/49 56/1/49 55/1/49
f 55/1/49 58/1/49 57/1/49
f 59/1/50 50/1/50 49/1/50
f 50/1/50 59/1/50 60/1/50
f 61/1/51 52/1/51 51/1/51
f 52/1/51 61/1/51 62/1/51
f 63/1/52 53/1/52 54/1/52
f 54/1/52 64/1/52 63/1/52
f 58/1/53 55/1/53 53/1/53
f 53/1/53 63/1/53 58/1/53
f 59/1/54 49/1/54 56/1/54
f 56/1/54 57/1/54 59/1/54
f 60/1/55 51/1/55 50/1/55
f 51/1/55 60/1/55 61/1/55
f 62/1/56 54/1/56 52/1/56
f 54/1/56 62/1/56 64/1/56
f 65/1/57 59/1/57 57/1/57
f 57/1/57 66/1/57 65/1/57
f 67/1/58 61/1/58 60/1/58
f 61/1/58 67/1/58 68/1/58
f 69/1/59 64/1/59 62/1/59
f 64/1/59 69/1/59 70/1/59
f 66/1/60 57/1/60 58/1/60
f 58/1/60 71/1/60 66/1/60
f 65/1/61 60/1/61 59/1/61
f 60/1/61 65/1/61 67/1/61
f 68/1/62 62/1/62 61/1/62
f 62/1/62 68/1/62 69/1/62
f 72/1/63 63/1/63 64/1/63
f 64/1/63 70/1/63 72/1/63
f 71/1/64 58/1/64 63/1/64
f 63/1/64 72/1/64 71/1/64
f 73/1/65 72/1/65 70/1/65
f 70/1/65 74/1/65 73/1/65
f 75/1/66 71/1/66 72/1/66
f 72/1/66 73/1/66 75/1/66
f 76/1/67 65/1/67 66/1/67
f 66/1/67 77/1/67 76/1/67
f 78/1/68 68/1/68 67/1/68
f 68/1/68 78/1/68 79/1/68
f 80/1/69 70/1/69 69/1/69
f 70/1/69 80/1/69 74/1/69
f 77/1/70 66/1/70 71/1/70
f 71/1/70 75/1/70 77/1/70
f 76/1/71 67/1/71 65/1/71
f 67/1/71 76/1/71 78/1/71
f 79/1/72 69/1/72 68/1/72
f 69/1/72 79/1/72 80/1/72
f 81/1/73 77/1/73 75/1/73
f 75/1/73 82/1/73 81/1/73
f 83/1/74 78/1/74 76/1/74
f 78/1/74 83/1/74 84/1/74
f 85/1/75 80/1/75 79/1/75
f 80/1/75 85/1/75 86/1/75
f 87/1/76 73/1/76 74/1/76
f 74/1/76 88/1/76 87/1/76
f 82/1/77 75/1/77 73/1/77
f 73/1/77 87/1/77 82/1/77
f 83/1/78 76/1/78 77/1/78
f 77/1/78 81/1/78 83/1/78
f 84/1/79 79/1/79 78/1/79
f 79/1/79 84/1/79 85/1/79
f 86/1/80 74/1/80 80/1/80
f 74/1/80 86/1/80 88/1/80
f 89/1/81 88/1/81 86/1/81
f 88/1/81 89/1/81 90/1/81
f 91/1/82 81/1/82 82/1/82
f 82/1/82 92/1/82 91/1/82
f 93/1/83 84/1/83 83/1/83
f 84/1/83 93/1/83 94/1/83
f 95/1/84 86/1/84 85/1/84
f 86/1/84 95/1/84 89/1/84
f 96/1/85 87/1/85 88/1/85
f 88/1/85 90/1/85 96/1/85
f 92/1/86 82/1/86 87/1/86
f 87/1/86 96/1/86 92/1/86
f 93/1/87 83/1/87 81/1/87
f 81/1/87 91/1/87 93/1/87
f 94/1/88 85/1/88 84/1/88
f 85/1/88 94/1/88 95/1/88
f 97/1/89 92/1/89 96/1/89
f 96/1/89 98/1/89 97/1/89
f 99/1/90 93/1/90 91/1/90
f 93/1/90 99/1/90 100/1/90
f 101/1/91 95/1/91 94/1/91
f 95/1/91 101/1/91 102/1/91
f 103/1/92 90/1/92 89/1/92
f 89/1/92 104/1/92 103/1/92
f 97/1/93 91/1/93 92/1/93
f 91/1/93 97/1/93 99/1/93
f 100/1/94 94/1/94 93/1/94
f 94/1/94 100/1/94 101/1/94
f 104/1/95 89/1/95 95/1/95
f 95/1/95 102/1/95 104/1/95
f 98/1/96 96/1/96 90/1/96
f 90/1/96 103/1/96 98/1/96
f 105/1/97 104/1/97 102/1/97
f 102/1/97 106/1/97 105/1/97
f 107/1/98 98/1/98 103/1/98
f 103/1/98 108/1/98 107/1/98
f 109/1/99 97/1/99 98/1/99
f 98/1/99 107/1/99 109/1/99
f 110/1/100 100/1/100 99/1/100
f 100/1/100 110/1/100 111/1/100
f 112/1/101 102/1/101 101/1/101
f 102/1/101 112/1/101 106/1/101
f 108/1/102 103/1/102 104/1/102
f 104/1/102 105/1/102 108/1/102
f 109/1/103 99/1/103 97/1/103
f 99/1/103 109/1/103 110/1/103
f 111/1/104 101/1/104 100/1/104
f 101/1/104 111/1/104 112/1/104
f 113/1/105 114/1/105 115/1/105
f 114/1/105 113/1/105 116/1/105
f 117/1/106 118/1/106 119/1/106
f 118/1/106 117/1/106 120/1/106
f 121/1/107 122/1/107 123/1/107
f 123/1/107 124/1/107 121/1/107
f 125/1/108 126/1/108 127/1/108
f 127/1/108 128/1/108 125/1/108
f 113/1/109 115/1/109 126/1/109
f 126/1/109 125/1/109 113/1/109
f 116/1/110 119/1/110 114/1/110
f 119/1/110 116/1/110 117/1/110
f 120/1/111 123/1/111 118/1/111
f 123/1/111 120/1/111 124/1/111
f 128/1/112 127/1/112 122/1/112
f 122/1/112 121/1/112 128/1/112
f 129/1/113 124/1/113 120/1/113
f 124/1/113 129/1/113 130/1/113
f 131/1/114 128/1/114 121/1/114
f 121/1/114 132/1/114 131/1/114
f 133/1/115 116/1/115 113/1/115
f 116/1/115 133/1/115 134/1/115
f 135/1/116 120/1/116 117/1/116
f 120/1/116 135/1/116 129/1/116
f 132/1/117 121/1/117 124/1/117
f 124/1/117 130/1/117 132/1/117
f 136/1/118 125/1/118 128/1/118
f 128/1/118 131/1/118 136/1/118
f 133/1/119 113/1/119 125/1/119
f 125/1/119 136/1/119 133/1/119
f 134/1/120 117/1/120 116/1/120
f 117/1/120 134/1/120 135/1/120
f 137/1/121 133/1/121 136/1/121
f 136/1/121 138/1/121 137/1/121
f 139/1/122 135/1/122 134/1/122
f 135/1/122 139/1/122 140/1/122
f 141/1/123 130/1/123 129/1/123
f 130/1/123 141/1/123 142/1/123
f 143/1/124 131/1/124 132/1/124
f 132/1/124 144/1/124 143/1/124
f 137/1/125 134/1/125 133/1/125
f 134/1/125 137/1/125 139/1/125
f 140/1/126 129/1/126 135/1/126
f 129/1/126 140/1/126 141/1/126
f 144/1/127 132/1/127 130/1/127
f 130/1/127 142/1/127 144/1/127
f 138/1/128 136/1/128 131/1/128
f 131/1/128 143/1/128 138/1/128
f 127/1/129 108/1/129 105/1/129
f 105/1/129 122/1/129 127/1/129
f 118/1/130 106/1/130 112/1/130
f 106/1/130 118/1/130 123/1/130
f 114/1/131 111/1/131 110/1/131
f 111/1/131 114/1/131 119/1/131
f 115/1/132 109/1/132 107/1/132
f 107/1/132 126/1/132 115/1/132
f 126/1/133 107/1/133 108/1/133
f 108/1/133 127/1/133 126/1/133
f 122/1/134 105/1/134 106/1/134
f 106/1/134 123/1/134 122/1/134
f 119/1/135 112/1/135 111/1/135
f 112/1/135 119/1/135 118/1/135
f 115/1/136 110/1/136 109/1/136
f 110/1/136 115/1/136 114/1/136
f 145/1/137 141/1/137 140/1/137
f 141/1/137 145/1/137 146/1/137
f 147/1/138 144/1/138 142/1/138
f 142/1/138 148/1/138 147/1/138
f 149/1/139 138/1/139 143/1/139
f 143/1/139 150/1/139 149/1/139
f 151/1/140 137/1/140 138/1/140
f 138/1/140 149/1/140 151/1/140
f 152/1/141 140/1/141 139/1/141
f 140/1/141 152/1/141 145/1/141
f 146/1/142 142/1/142 141/1/142
f 142/1/142 146/1/142 148/1/142
f 150/1/143 143/1/143 144/1/143
f 144/1/143 147/1/143 150/1/143
f 151/1/144 139/1/144 137/1/144
f 139/1/144 151/1/144 152/1/144
f 153/1/145 145/1/145 152/1/145
f 152/1/145 154/1/145 153/1/145
f 155/1/146 148/1/146 146/1/146
f 146/1/146 156/1/146 155/1/146
f 157/1/147 150/1/147 147/1/147
f 147/1/147 158/1/147 157/1/147
f 154/1/148 152/1/148 151/1/148
f 151/1/148 159/1/148 154/1/148
f 156/1/149 146/1/149 145/1/149
f 145/1/149 153/1/149 156/1/149
f 158/1/150 147/1/150 148/1/150
f 148/1/150 155/1/150 158/1/150
f 160/1/151 149/1/151 150/1/151
f 150/1/151 157/1/151 160/1/151
f 159/1/152 151/1/152 149/1/152
f 149/1/152 160/1/152 159/1/152
f 161/1/128 160/1/128 157/1/128
f 157/1/128 162/1/128 161/1/128
f 163/1/121 159/1/121 160/1/121
f 160/1/121 161/1/121 163/1/121
f 164/1/122 153/1/122 154/1/122
f 153/1/122 164/1/122 165/1/122
f 166/1/123 155/1/123 156/1/123
f 155/1/123 166/1/123 167/1/123
f 162/1/124 157/1/124 158/1/124
f 158/1/124 168/1/124 162/1/124
f 163/1/125 154/1/125 159/1/125
f 154/1/125 163/1/125 164/1/125
f 165/1/126 156/1/126 153/1/126
f 156/1/126 165/1/126 166/1/126
f 168/1/153 158/1/153 155/1/153
f 155/1/153 167/1/153 168/1/153
f 169/1/154 164/1/154 163/1/154
f 164/1/154 169/1/154 170/1/154
f 171/1/154 166/1/154 165/1/154
f 166/1/154 171/1/154 172/1/154
f 173/1/154 168/1/154 167/1/154
f 168/1/154 173/1/154 174/1/154
f 175/1/154 161/1/154 162/1/154
f 161/1/154 175/1/154 176/1/154
f 176/1/154 163/1/154 161/1/154
f 163/1/154 176/1/154 169/1/154
f 170/1/154 165/1/154 164/1/154
f 165/1/154 170/1/154 171/1/154
f 172/1/154 167/1/154 166/1/154
f 167/1/154 172/1/154 173/1/154
f 174/1/154 162/1/154 168/1/154
f 162/1/154 174/1/154 175/1/154
f 177/1/155 175/1/155 174/1/155
f 175/1/155 177/1/155 178/1/155
f 179/1/156 170/1/156 169/1/156
f 169/1/156 180/1/156 179/1/156
f 181/1/157 172/1/157 171/1/157
f 171/1/157 182/1/157 181/1/157
f 183/1/158 174/1/158 173/1/158
f 174/1/158 183/1/158 177/1/158
f 178/1/159 176/1/159 175/1/159
f 176/1/159 178/1/159 184/1/159
f 184/1/160 169/1/160 176/1/160
f 169/1/160 184/1/160 180/1/160
f 182/1/161 171/1/161 170/1/161
f 170/1/161 179/1/161 182/1/161
f 183/1/162 173/1/162 172/1/162
f 172/1/162 181/1/162 183/1/162
f 180/1/154 184/1/154 185/1/154
f 182/1/154 179/1/154 185/1/154
f 183/1/154 181/1/154 185/1/154
f 178/1/154 177/1/154 185/1/154
f 179/1/154 180/1/154 185/1/154
f 181/1/154 182/1/154 185/1/154
f 177/1/154 183/1/154 185/1/154
f 184/1/154 178/1/154 185/1/154
f 186/1/163 187/1/163 188/1/163
f 189/1/163 187/1/163 190/1/163
f 191/1/163 187/1/163 192/1/163
f 193/1/163 187/1/163 194/1/163
f 194/1/163 187/1/163 186/1/163
f 188/1/163 187/1/163 189/1/163
f 190/1/163 187/1/163 191/1/163
f 192/1/163 187/1/163 193/1/163
f 195/1/163 196/1/163 197/1/163
f 198/1/163 196/1/163 199/1/163
f 200/1/163 196/1/163 201/1/163
f 202/1/163 196/1/163 203/1/163
f 203/1/163 196/1/163 195/1/163
f 197/1/163 196/1/163 198/1/163
f 199/1/163 196/1/163 200/1/163
f 201/1/163 196/1/163 202/1/163
f 204/1/163 205/1/163 206/1/163
f 207/1/163 205/1/163 208/1/163
f 209/1/163 205/1/163 210/1/163
f 211/1/163 205/1/163 212/1/163
f 212/1/163 205/1/163 204/1/163
f 206/1/163 205/1/163 207/1/163
f 208/1/163 205/1/163 209/1/163
f 210/1/163 205/1/163 211/1/163
f 213/1/164 214/1/164 215/1/164
f 214/1/164 213/1/164 216/1/164
f 217/1/164 218/1/164 219/1/164
f 218/1/164 217/1/164 220/1/164
f 221/1/164 222/1/164 223/1/164
f 222/1/164 221/1/164 224/1/164
f 216/1/164 225/1/164 214/1/164
f 225/1/164 216/1/164 226/1/164
f 220/1/164 227/1/164 218/1/164
f 227/1/164 220/1/164 228/1/164
f 229/1/164 223/1/164 230/1/164
f 223/1/164 229/1/164 221/1/164
f 228/1/164 231/1/164 227/1/164
f 231/1/164 228/1/164 232/1/164
f 233/1/164 230/1/164 234/1/164
f 230/1/164 233/1/164 229/1/164
f 226/1/164 235/1/164 225/1/164
f 235/1/164 226/1/164 236/1/164
f 232/1/164 237/1/164 231/1/164
f 237/1/164 232/1/164 238/1/164
f 239/1/164 234/1/164 240/1/164
f 234/1/164 239/1/164 233/1/164
f 236/1/164 241/1/164 235/1/164
f 241/1/164 236/1/164 242/1/164
f 238/1/164 243/1/164 237/1/164
f 243/1/164 238/1/164 244/1/164
f 245/1/164 240/1/164 246/1/164
f 240/1/164 245/1/164 239/1/164
f 242/1/164 247/1/164 241/1/164
f 247/1/164 242/1/164 248/1/164
f 244/1/164 249/1/164 243/1/164
f 249/1/164 244/1/164 250/1/164
f 251/1/164 246/1/164 252/1/164
f 246/1/164 251/1/164 245/1/164
f 248/1/164 253/1/164 247/1/164
f 253/1/164 248/1/164 254/1/164
f 250/1/164 255/1/164 249/1/164
f 255/1/164 250/1/164 256/1/164
f 257/1/164 252/1/164 258/1/164
f 252/1/164 257/1/164 251/1/164
f 254/1/164 259/1/164 253/1/164
f 259/1/164 254/1/164 260/1/164
f 256/1/164 219/1/164 255/1/164
f 219/1/164 256/1/164 217/1/164
f 224/1/164 258/1/164 222/1/164
f 258/1/164 224/1/164 257/1/164
f 260/1/164 215/1/164 259/1/164
f 215/1/164 260/1/164 213/1/164
f 235/1/165 210/1/165 211/1/165
f 210/1/165 235/1/165 241/1/165
f 237/1/166 203/1/166 195/1/166
f 195/1/166 231/1/166 237/1/166
f 240/1/167 189/1/167 190/1/167
f 189/1/167 240/1/167 234/1/167
f 223/1/168 186/1/168 188/1/168
f 188/1/168 230/1/168 223/1/168
f 235/1/169 211/1/169 212/1/169
f 212/1/169 225/1/169 235/1/169
f 231/1/168 195/1/168 197/1/168
f 197/1/168 227/1/168 231/1/168
f 230/1/170 188/1/170 189/1/170
f 189/1/170 234/1/170 230/1/170
f 227/1/170 197/1/170 198/1/170
f 198/1/170 218/1/170 227/1/170
f 222/1/166 194/1/166 186/1/166
f 186/1/166 223/1/166 222/1/166
f 225/1/166 212/1/166 204/1/166
f 204/1/166 214/1/166 225/1/166
f 219/1/167 198/1/167 199/1/167
f 198/1/167 219/1/167 218/1/167
f 214/1/168 204/1/168 206/1/168
f 206/1/168 215/1/168 214/1/168
f 215/1/170 206/1/170 207/1/170
f 207/1/170 259/1/170 215/1/170
f 255/1/171 199/1/171 200/1/171
f 199/1/171 255/1/171 219/1/171
f 258/1/169 193/1/169 194/1/169
f 194/1/169 222/1/169 258/1/169
f 253/1/167 207/1/167 208/1/167
f 207/1/167 253/1/167 259/1/167
f 249/1/172 200/1/172 201/1/172
f 200/1/172 249/1/172 255/1/172
f 258/1/165 192/1/165 193/1/165
f 192/1/165 258/1/165 252/1/165
f 247/1/171 208/1/171 209/1/171
f 208/1/171 247/1/171 253/1/171
f 243/1/165 201/1/165 202/1/165
f 201/1/165 243/1/165 249/1/165
f 252/1/172 191/1/172 192/1/172
f 191/1/172 252/1/172 246/1/172
f 241/1/172 209/1/172 210/1/172
f 209/1/172 241/1/172 247/1/172
f 243/1/169 202/1/169 203/1/169
f 203/1/169 237/1/169 243/1/169
f 246/1/171 190/1/171 191/1/171
f 190/1/171 246/1/171 240/1/171
f 261/1/172 256/1/172 250/1/172
f 256/1/172 261/1/172 262/1/172
f 263/1/165 251/1/165 257/1/165
f 251/1/165 263/1/165 264/1/165
f 265/1/167 260/1/167 254/1/167
f 260/1/167 265/1/167 266/1/167
f 262/1/171 217/1/171 256/1/171
f 217/1/171 262/1/171 267/1/171
f 263/1/169 257/1/169 224/1/169
f 224/1/169 268/1/169 263/1/169
f 269/1/170 213/1/170 260/1/170
f 260/1/170 266/1/170 269/1/170
f 270/1/168 216/1/168 213/1/168
f 213/1/168 269/1/168 270/1/168
f 267/1/167 220/1/167 217/1/167
f 220/1/167 267/1/167 271/1/167
f 268/1/166 224/1/166 221/1/166
f 221/1/166 272/1/166 268/1/166
f 273/1/166 226/1/166 216/1/166
f 216/1/166 270/1/166 273/1/166
f 274/1/170 228/1/170 220/1/170
f 220/1/170 271/1/170 274/1/170
f 272/1/168 221/1/168 229/1/168
f 229/1/168 275/1/168 272/1/168
f 276/1/168 232/1/168 228/1/168
f 228/1/168 274/1/168 276/1/168
f 275/1/170 229/1/170 233/1/170
f 233/1/170 277/1/170 275/1/170
f 278/1/169 236/1/169 226/1/169
f 226/1/169 273/1/169 278/1/169
f 279/1/166 238/1/166 232/1/166
f 232/1/166 276/1/166 279/1/166
f 280/1/167 233/1/167 239/1/167
f 233/1/167 280/1/167 277/1/167
f 278/1/165 242/1/165 236/1/165
f 242/1/165 278/1/165 281/1/165
f 282/1/169 244/1/169 238/1/169
f 238/1/169 279/1/169 282/1/169
f 283/1/171 239/1/171 245/1/171
f 239/1/171 283/1/171 280/1/171
f 281/1/172 248/1/172 242/1/172
f 248/1/172 281/1/172 284/1/172
f 282/1/165 250/1/165 244/1/165
f 250/1/165 282/1/165 261/1/165
f 264/1/172 245/1/172 251/1/172
f 245/1/172 264/1/172 283/1/172
f 284/1/171 254/1/171 248/1/171
f 254/1/171 284/1/171 265/1/171
f 285/1/163 274/1/163 271/1/163
f 271/1/163 286/1/163 285/1/163
f 287/1/163 272/1/163 275/1/163
f 275/1/163 288/1/163 287/1/163
f 289/1/163 276/1/163 274/1/163
f 274/1/163 285/1/163 289/1/163
f 288/1/163 275/1/163 277/1/163
f 277/1/163 290/1/163 288/1/163
f 291/1/163 278/1/163 273/1/163
f 273/1/163 292/1/163 291/1/163
f 293/1/163 279/1/163 276/1/163
f 276/1/163 289/1/163 293/1/163
f 290/1/163 277/1/163 280/1/163
f 280/1/163 294/1/163 290/1/163
f 295/1/163 281/1/163 278/1/163
f 278/1/163 291/1/163 295/1/163
f 296/1/163 282/1/163 279/1/163
f 279/1/163 293/1/163 296/1/163
f 294/1/163 280/1/163 283/1/163
f 283/1/163 297/1/163 294/1/163
f 298/1/163 284/1/163 281/1/163
f 281/1/163 295/1/163 298/1/163
f 299/1/163 261/1/163 282/1/163
f 282/1/163 296/1/163 299/1/163
f 297/1/163 283/1/163 264/1/163
f 264/1/163 300/1/163 297/1/163
f 301/1/163 265/1/163 284/1/163
f 284/1/163 298/1/163 301/1/163
f 302/1/163 262/1/163 261/1/163
f 261/1/163 299/1/163 302/1/163
f 300/1/163 264/1/163 263/1/163
f 263/1/163 303/1/163 300/1/163
f 304/1/163 266/1/163 265/1/163
f 265/1/163 301/1/163 304/1/163
f 305/1/163 267/1/163 262/1/163
f 262/1/163 302/1/163 305/1/163
f 303/1/163 263/1/163 268/1/163
f 268/1/163 306/1/163 303/1/163
f 307/1/163 269/1/163 266/1/163
f 266/1/163 304/1/163 307/1/163
f 308/1/163 270/1/163 269/1/163
f 269/1/163 307/1/163 308/1/163
f 286/1/163 271/1/163 267/1/163
f 267/1/163 305/1/163 286/1/163
f 306/1/163 268/1/163 272/1/163
f 272/1/163 287/1/163 306/1/163
f 292/1/163 273/1/163 270/1/163
f 270/1/163 308/1/163 292/1/163
f 309/1/172 297/1/172 300/1/172
f 297/1/172 309/1/172 310/1/172
f 311/1/171 301/1/171 298/1/171
f 301/1/171 311/1/171 312/1/171
f 313/1/172 302/1/172 299/1/172
f 302/1/172 313/1/172 314/1/172
f 315/1/165 300/1/165 303/1/165
f 300/1/165 315/1/165 309/1/165
f 312/1/167 304/1/167 301/1/167
f 304/1/167 312/1/167 316/1/167
f 314/1/171 305/1/171 302/1/171
f 305/1/171 314/1/171 317/1/171
f 315/1/169 303/1/169 306/1/169
f 306/1/169 318/1/169 315/1/169
f 319/1/170 307/1/170 304/1/170
f 304/1/170 316/1/170 319/1/170
f 320/1/168 308/1/168 307/1/168
f 307/1/168 319/1/168 320/1/168
f 317/1/167 286/1/167 305/1/167
f 286/1/167 317/1/167 321/1/167
f 318/1/166 306/1/166 287/1/166
f 287/1/166 322/1/166 318/1/166
f 323/1/166 292/1/166 308/1/166
f 308/1/166 320/1/166 323/1/166
f 324/1/170 285/1/170 286/1/170
f 286/1/170 321/1/170 324/1/170
f 322/1/168 287/1/168 288/1/168
f 288/1/168 325/1/168 322/1/168
f 326/1/168 289/1/168 285/1/168
f 285/1/168 324/1/168 326/1/168
f 325/1/170 288/1/170 290/1/170
f 290/1/170 327/1/170 325/1/170
f 328/1/169 291/1/169 292/1/169
f 292/1/169 323/1/169 328/1/169
f 329/1/166 293/1/166 289/1/166
f 289/1/166 326/1/166 329/1/166
f 330/1/167 290/1/167 294/1/167
f 290/1/167 330/1/167 327/1/167
f 328/1/165 295/1/165 291/1/165
f 295/1/165 328/1/165 331/1/165
f 332/1/169 296/1/169 293/1/169
f 293/1/169 329/1/169 332/1/169
f 310/1/171 294/1/171 297/1/171
f 294/1/171 310/1/171 330/1/171
f 331/1/172 298/1/172 295/1/172
f 298/1/172 331/1/172 311/1/172
f 332/1/165 299/1/165 296/1/165
f 299/1/165 332/1/165 313/1/165
f 322/1/164 325/1/164 333/1/164
f 327/1/164 330/1/164 333/1/164
f 310/1/164 309/1/164 333/1/164
f 315/1/164 318/1/164 333/1/164
f 318/1/164 322/1/164 333/1/164
f 325/1/164 327/1/164 333/1/164
f 330/1/164 310/1/164 333/1/164
f 309/1/164 315/1/164 333/1/164
f 326/1/164 324/1/164 334/1/164
f 321/1/164 317/1/164 334/1/164
f 314/1/164 313/1/164 334/1/164
f 332/1/164 329/1/164 334/1/164
f 329/1/164 326/1/164 334/1/164
f 324/1/164 321/1/164 334/1/164
f 317/1/164 314/1/164 334/1/164
f 313/1/164 332/1/164 334/1/164
f 320/1/164 319/1/164 335/1/164
f 316/1/164 312/1/164 335/1/164
f 311/1/164 331/1/164 335/1/164
f 328/1/164 323/1/164 335/1/164
f 323/1/164 320/1/164 335/1/164
f 319/1/164 316/1/164 335/1/164
f 312/1/164 311/1/164 335/1/164
f 331/1/164 328/1/164 335/1/164
f 336/1/173 2/1/173 337/1/173
f 2/1/173 336/1/173 3/1/173
f 338/1/174 6/1/174 339/1/174
f 6/1/174 338/1/174 7/1/174
f 11/1/175 10/1/175 340/1/175
f 340/1/175 341/1/175 11/1/175
f 15/1/176 14/1/176 342/1/176
f 342/1/176 343/1/176 15/1/176
f 14/1/177 3/1/177 336/1/177
f 336/1/177 342/1/177 14/1/177
f 337/1/178 7/1/178 338/1/178
f 7/1/178 337/1/178 2/1/178
f 339/1/179 11/1/179 341/1/179
f 11/1/179 339/1/179 6/1/179
f 10/1/180 15/1/180 343/1/180
f 343/1/180 340/1/180 10/1/180
f 340/1/181 343/1/181 344/1/181
f 344/1/181 345/1/181 340/1/181
f 336/1/182 337/1/182 346/1/182
f 346/1/182 347/1/182 336/1/182
f 338/1/183 339/1/183 348/1/183
f 348/1/183 349/1/183 338/1/183
f 341/1/184 340/1/184 345/1/184
f 345/1/184 350/1/184 341/1/184
f 343/1/185 342/1/185 351/1/185
f 351/1/185 344/1/185 343/1/185
f 342/1/186 336/1/186 347/1/186
f 347/1/186 351/1/186 342/1/186
f 337/1/187 338/1/187 349/1/187
f 349/1/187 346/1/187 337/1/187
f 339/1/188 341/1/188 350/1/188
f 350/1/188 348/1/188 339/1/188
f 352/1/189 347/1/189 353/1/189
f 347/1/189 352/1/189 351/1/189
f 346/1/190 349/1/190 354/1/190
f 354/1/190 355/1/190 346/1/190
f 348/1/191 350/1/191 356/1/191
f 356/1/191 357/1/191 348/1/191
f 358/1/192 344/1/192 359/1/192
f 344/1/192 358/1/192 345/1/192
f 347/1/193 346/1/193 355/1/193
f 355/1/193 353/1/193 347/1/193
f 349/1/194 348/1/194 357/1/194
f 357/1/194 354/1/194 349/1/194
f 356/1/195 345/1/195 358/1/195
f 345/1/195 356/1/195 350/1/195
f 359/1/196 351/1/196 352/1/196
f 351/1/196 359/1/196 344/1/196
f 360/1/197 358/1/197 361/1/197
f 358/1/197 360/1/197 356/1/197
f 362/1/198 352/1/198 363/1/198
f 352/1/198 362/1/198 359/1/198
f 363/1/199 353/1/199 364/1/199
f 353/1/199 363/1/199 352/1/199
f 355/1/200 354/1/200 365/1/200
f 365/1/200 366/1/200 355/1/200
f 357/1/201 356/1/201 360/1/201
f 360/1/201 367/1/201 357/1/201
f 361/1/202 359/1/202 362/1/202
f 359/1/202 361/1/202 358/1/202
f 353/1/203 355/1/203 366/1/203
f 366/1/203 364/1/203 353/1/203
f 354/1/204 357/1/204 367/1/204
f 367/1/204 365/1/204 354/1/204
f 366/1/205 368/1/205 364/1/205
f 367/1/205 368/1/205 365/1/205
f 361/1/205 368/1/205 360/1/205
f 363/1/205 368/1/205 362/1/205
f 364/1/205 368/1/205 363/1/205
f 365/1/205 368/1/205 366/1/205
f 360/1/205 368/1/205 367/1/205
f 362/1/205 368/1/205 361/1/205
