# Generated by tools/make-block-meshes.py -- edit that, not this.
# Cymbal by Poly by Google, CC-BY 3.0, from https://poly.pizza/m/f8SdBE98BXE
v 0.00000 0.10511 0.04365
v 0.01045 0.05255 0.05681
v 0.02051 0.10309 0.04365
v 0.00000 0.15260 0.02228
v 0.02977 0.14967 0.02228
v 0.00000 0.19422 -0.00648
v 0.03789 0.19049 -0.00648
v 0.04022 0.09711 0.04365
v 0.05840 0.14099 0.02228
v 0.07433 0.17944 -0.00648
v 0.02051 0.04951 0.05681
v 0.05840 0.08740 0.04365
v 0.08478 0.12688 0.02228
v 0.10791 0.16149 -0.00648
v 0.02977 0.04455 0.05681
v 0.07433 0.07433 0.04365
v 0.10791 0.10791 0.02228
v 0.13734 0.13734 -0.00648
v 0.03789 0.03789 0.05681
v 0.08740 0.05840 0.04365
v 0.12688 0.08478 0.02228
v 0.16149 0.10791 -0.00648
v 0.04455 0.02977 0.05681
v 0.09711 0.04022 0.04365
v 0.14099 0.05840 0.02228
v 0.17944 0.07433 -0.00648
v 0.14967 0.02977 0.02228
v 0.19049 0.03789 -0.00648
v 0.04951 0.02051 0.05681
v 0.10309 0.02051 0.04365
v 0.05255 0.01045 0.05681
v 0.10511 -0.00000 0.04365
v 0.15260 -0.00000 0.02228
v 0.19422 -0.00000 -0.00648
v 0.14967 -0.02977 0.02228
v 0.19049 -0.03789 -0.00648
v 0.05358 -0.00000 0.05681
v 0.10309 -0.02051 0.04365
v 0.05255 -0.01045 0.05681
v 0.09711 -0.04022 0.04365
v 0.14099 -0.05840 0.02228
v 0.17944 -0.07433 -0.00648
v 0.16149 -0.10791 -0.00648
v 0.04951 -0.02051 0.05681
v 0.08740 -0.05840 0.04365
v 0.12688 -0.08478 0.02228
v 0.04455 -0.02977 0.05681
v 0.07433 -0.07433 0.04365
v 0.10791 -0.10791 0.02228
v 0.13734 -0.13734 -0.00648
v 0.03789 -0.03789 0.05681
v 0.05840 -0.08740 0.04365
v 0.08478 -0.12688 0.02228
v 0.10791 -0.16149 -0.00648
v 0.02977 -0.04455 0.05681
v 0.04022 -0.09711 0.04365
v 0.05840 -0.14099 0.02228
v 0.07433 -0.17944 -0.00648
v 0.02051 -0.04951 0.05681
v 0.02051 -0.10309 0.04365
v 0.02977 -0.14967 0.02228
v 0.03789 -0.19049 -0.00648
v 0.01045 -0.05255 0.05681
v 0.00000 -0.10511 0.04365
v 0.00000 -0.15260 0.02228
v 0.00000 -0.19422 -0.00648
v 0.00000 -0.05358 0.05681
v -0.02051 -0.10309 0.04365
v -0.02977 -0.14967 0.02228
v -0.03789 -0.19049 -0.00648
v -0.01045 -0.05255 0.05681
v -0.04022 -0.09711 0.04365
v -0.05840 -0.14099 0.02228
v -0.07433 -0.17944 -0.00648
v -0.02051 -0.04951 0.05681
v -0.05840 -0.08740 0.04365
v -0.08478 -0.12688 0.02228
v -0.10791 -0.16149 -0.00648
v -0.10791 -0.10791 0.02228
v -0.13734 -0.13734 -0.00648
v -0.02977 -0.04455 0.05681
v -0.07433 -0.07433 0.04365
v -0.03789 -0.03789 0.05681
v -0.08740 -0.05840 0.04365
v -0.12688 -0.08478 0.02228
v -0.16149 -0.10791 -0.00648
v -0.17944 -0.07433 -0.00648
v -0.04455 -0.02977 0.05681
v -0.09711 -0.04022 0.04365
v -0.14099 -0.05840 0.02228
v -0.04951 -0.02051 0.05681
v -0.10309 -0.02051 0.04365
v -0.14967 -0.02977 0.02228
v -0.19049 -0.03789 -0.00648
v -0.15260 -0.00000 0.02228
v -0.19422 -0.00000 -0.00648
v -0.05255 -0.01045 0.05681
v -0.10511 -0.00000 0.04365
v -0.05358 -0.00000 0.05681
v -0.10309 0.02051 0.04365
v -0.14967 0.02977 0.02228
v -0.19049 0.03789 -0.00648
v -0.05255 0.01045 0.05681
v -0.09711 0.04022 0.04365
v -0.14099 0.05840 0.02228
v -0.17944 0.07433 -0.00648
v -0.04951 0.02051 0.05681
v -0.08740 0.05840 0.04365
v -0.12688 0.08478 0.02228
v -0.16149 0.10791 -0.00648
v -0.04455 0.02977 0.05681
v -0.07433 0.07433 0.04365
v -0.10791 0.10791 0.02228
v -0.13734 0.13734 -0.00648
v -0.02977 0.04455 0.05681
v -0.05840 0.08740 0.04365
v -0.08478 0.12688 0.02228
v -0.10791 0.16149 -0.00648
v -0.04022 0.09711 0.04365
v -0.05840 0.14099 0.02228
v -0.07433 0.17944 -0.00648
v -0.02977 0.14967 0.02228
v -0.03789 0.19049 -0.00648
v -0.01045 0.05255 0.05681
v -0.02051 0.10309 0.04365
v 0.00000 0.67884 -0.03062
v -0.15607 0.78463 -0.04633
v -0.13244 0.66580 -0.03062
v 0.13244 0.66580 -0.03062
v 0.30615 0.73910 -0.04633
v 0.15607 0.78463 -0.04633
v -0.13244 -0.66580 -0.03062
v 0.00000 -0.80000 -0.04633
v 0.00000 -0.67884 -0.03062
v -0.25978 -0.62717 -0.03062
v -0.44446 -0.66518 -0.04633
v -0.30615 -0.73910 -0.04633
v -0.56444 -0.37714 -0.03062
v -0.56568 -0.56568 -0.04633
v -0.48002 -0.48002 -0.03062
v -0.62717 -0.25978 -0.03062
v -0.78463 -0.15607 -0.04633
v -0.73910 -0.30615 -0.04633
v 0.48002 0.48002 -0.03062
v 0.44446 0.66518 -0.04633
v 0.37714 0.56444 -0.03062
v -0.66580 0.13244 -0.03062
v -0.80000 -0.00000 -0.04633
v -0.67884 -0.00000 -0.03062
v 0.62717 0.25978 -0.03062
v 0.66518 0.44446 -0.04633
v 0.56444 0.37714 -0.03062
v -0.56444 0.37714 -0.03062
v -0.73910 0.30615 -0.04633
v -0.62717 0.25978 -0.03062
v 0.67884 -0.00000 -0.03062
v 0.78463 0.15607 -0.04633
v 0.66580 0.13244 -0.03062
v -0.25978 0.62717 -0.03062
v -0.30615 0.73910 -0.04633
v -0.48002 0.48002 -0.03062
v -0.44446 0.66518 -0.04633
v -0.56568 0.56568 -0.04633
v 0.66580 -0.13244 -0.03062
v 0.73910 -0.30615 -0.04633
v 0.78463 -0.15607 -0.04633
v 0.00000 0.80000 -0.04633
v 0.48002 -0.48002 -0.03062
v 0.66518 -0.44446 -0.04633
v 0.56444 -0.37714 -0.03062
v 0.37714 -0.56444 -0.03062
v 0.30615 -0.73910 -0.04633
v 0.44446 -0.66518 -0.04633
v -0.66518 -0.44446 -0.04633
v 0.15607 -0.78463 -0.04633
v 0.13244 -0.66580 -0.03062
v -0.66580 -0.13244 -0.03062
v -0.15607 -0.78463 -0.04633
v -0.78463 0.15607 -0.04633
v -0.37714 -0.56444 -0.03062
v -0.66518 0.44446 -0.04633
v 0.62717 -0.25978 -0.03062
v 0.56568 -0.56568 -0.04633
v 0.25978 0.62717 -0.03062
v 0.73910 0.30615 -0.04633
v 0.25978 -0.62717 -0.03062
v 0.56568 0.56568 -0.04633
v 0.80000 -0.00000 -0.04633
v -0.37714 0.56444 -0.03062
v -0.17521 0.26223 -0.01056
v -0.12069 0.29137 -0.01056
v -0.24252 0.36296 -0.01500
v -0.16705 0.40331 -0.01500
v -0.30984 0.46370 -0.02082
v -0.21342 0.51524 -0.02082
v 0.30932 -0.06153 -0.01056
v 0.31538 -0.00000 -0.01056
v 0.43653 -0.00000 -0.01500
v 0.42814 -0.08516 -0.01500
v 0.55769 -0.00000 -0.02082
v 0.54697 -0.10880 -0.02082
v 0.26223 0.17521 -0.01056
v 0.22301 0.22301 -0.01056
v 0.36296 0.24253 -0.01500
v 0.30867 0.30867 -0.01500
v 0.46370 0.30984 -0.02082
v 0.39435 0.39435 -0.02082
v 0.12069 -0.29137 -0.01056
v 0.06153 -0.30932 -0.01056
v 0.16705 -0.40331 -0.01500
v 0.08516 -0.42814 -0.01500
v 0.21342 -0.51524 -0.02082
v 0.10880 -0.54697 -0.02082
v 0.30932 0.06153 -0.01056
v 0.29137 0.12069 -0.01056
v 0.40331 0.16705 -0.01500
v 0.54697 0.10880 -0.02082
v 0.51524 0.21342 -0.02082
v 0.17521 0.26223 -0.01056
v 0.12069 0.29137 -0.01056
v 0.16705 0.40331 -0.01500
v 0.30984 0.46370 -0.02082
v 0.21342 0.51524 -0.02082
v 0.22301 -0.22301 -0.01056
v 0.17521 -0.26223 -0.01056
v 0.30867 -0.30867 -0.01500
v 0.24252 -0.36296 -0.01500
v 0.39434 -0.39435 -0.02082
v 0.30984 -0.46370 -0.02082
v 0.26223 -0.17521 -0.01056
v 0.29137 -0.12069 -0.01056
v 0.36296 -0.24253 -0.01500
v 0.40331 -0.16705 -0.01500
v 0.46370 -0.30984 -0.02082
v 0.51524 -0.21342 -0.02082
v -0.26223 0.17521 -0.01056
v -0.22301 0.22301 -0.01056
v -0.36296 0.24253 -0.01500
v -0.30867 0.30867 -0.01500
v -0.46370 0.30984 -0.02082
v -0.39434 0.39435 -0.02082
v -0.22301 -0.22301 -0.01056
v -0.17521 -0.26223 -0.01056
v -0.30867 -0.30867 -0.01500
v -0.24253 -0.36296 -0.01500
v -0.39435 -0.39434 -0.02082
v -0.30984 -0.46370 -0.02082
v -0.29137 0.12069 -0.01056
v -0.30932 0.06153 -0.01056
v -0.40331 0.16705 -0.01500
v -0.42814 0.08516 -0.01500
v -0.51524 0.21342 -0.02082
v -0.54697 0.10880 -0.02082
v -0.06153 -0.30932 -0.01056
v -0.12069 -0.29137 -0.01056
v -0.08516 -0.42814 -0.01500
v -0.21342 -0.51524 -0.02082
v -0.10880 -0.54697 -0.02082
v -0.30932 -0.06153 -0.01056
v -0.43653 -0.00000 -0.01500
v -0.42814 -0.08516 -0.01500
v -0.55769 -0.00000 -0.02082
v -0.54697 -0.10880 -0.02082
v 0.00000 -0.43653 -0.01500
v 0.00000 -0.55769 -0.02082
v -0.29137 -0.12069 -0.01056
v -0.26223 -0.17521 -0.01056
v -0.36296 -0.24252 -0.01500
v -0.40331 -0.16705 -0.01500
v -0.46370 -0.30984 -0.02082
v -0.51524 -0.21342 -0.02082
v 0.00000 0.31538 -0.01056
v 0.06153 0.30932 -0.01056
v 0.00000 0.43653 -0.01500
v 0.08516 0.42814 -0.01500
v 0.00000 0.55769 -0.02082
v 0.10880 0.54697 -0.02082
v -0.06153 0.30932 -0.01056
v -0.08516 0.42814 -0.01500
v -0.10880 0.54697 -0.02082
v 0.42814 0.08516 -0.01500
v -0.31538 -0.00000 -0.01056
v 0.24253 0.36296 -0.01500
v -0.16705 -0.40331 -0.01500
v 0.00000 -0.31538 -0.01056
v 0.01014 0.05097 0.04649
v 0.01989 0.04802 0.04649
v 0.02887 0.04321 0.04649
v 0.03675 0.03675 0.04649
v 0.04321 0.02887 0.04649
v 0.04802 0.01989 0.04649
v 0.05097 0.01014 0.04649
v 0.05197 -0.00000 0.04649
v 0.05097 -0.01014 0.04649
v 0.04802 -0.01989 0.04649
v 0.04321 -0.02887 0.04649
v 0.03675 -0.03675 0.04649
v 0.02887 -0.04321 0.04649
v 0.01989 -0.04802 0.04649
v 0.01014 -0.05097 0.04649
v 0.00000 -0.05197 0.04649
v -0.01014 -0.05097 0.04649
v -0.01989 -0.04802 0.04649
v -0.02887 -0.04321 0.04649
v -0.03675 -0.03675 0.04649
v -0.04321 -0.02887 0.04649
v -0.04802 -0.01989 0.04649
v -0.05097 -0.01014 0.04649
v -0.05197 -0.00000 0.04649
v -0.05097 0.01014 0.04649
v -0.04802 0.01989 0.04649
v -0.04321 0.02887 0.04649
v -0.03789 0.03789 0.05681
v -0.03675 0.03675 0.04649
v -0.02887 0.04321 0.04649
v -0.01989 0.04802 0.04649
v -0.02051 0.04951 0.05681
v -0.01014 0.05097 0.04649
v 0.00000 0.05197 0.04649
v 0.00000 0.05358 0.05681
v 0.15591 0.78381 -0.05681
v 0.44400 0.66448 -0.05681
v 0.30583 0.73834 -0.05681
v 0.56510 0.56510 -0.05681
v 0.66448 0.44400 -0.05681
v 0.73834 0.30583 -0.05681
v 0.79917 -0.00000 -0.05681
v 0.78381 0.15591 -0.05681
v 0.78381 -0.15591 -0.05681
v 0.66448 -0.44400 -0.05681
v 0.73834 -0.30583 -0.05681
v 0.56510 -0.56510 -0.05681
v 0.44400 -0.66448 -0.05681
v 0.30583 -0.73834 -0.05681
v 0.00000 -0.79917 -0.05681
v 0.15591 -0.78381 -0.05681
v -0.15591 -0.78381 -0.05681
v -0.44400 -0.66448 -0.05681
v -0.30583 -0.73834 -0.05681
v -0.56510 -0.56510 -0.05681
v -0.66448 -0.44400 -0.05681
v -0.73834 -0.30583 -0.05681
v -0.79917 -0.00000 -0.05681
v -0.78381 -0.15591 -0.05681
v -0.78381 0.15591 -0.05681
v -0.66448 0.44400 -0.05681
v -0.73834 0.30583 -0.05681
v -0.56510 0.56510 -0.05681
v -0.44400 0.66448 -0.05681
v -0.15591 0.78381 -0.05681
v -0.30583 0.73834 -0.05681
v 0.00000 0.79917 -0.05681
v 0.02008 0.10092 0.03351
v 0.00000 0.10290 0.03351
v 0.00000 0.14923 0.01267
v 0.00000 0.19221 -0.01669
v 0.02911 0.14636 0.01267
v 0.03938 0.09507 0.03351
v 0.05711 0.13787 0.01267
v 0.07355 0.17758 -0.01669
v 0.03750 0.18851 -0.01669
v 0.08291 0.12408 0.01267
v 0.05717 0.08555 0.03351
v 0.07276 0.07276 0.03351
v 0.10679 0.15982 -0.01669
v 0.10552 0.10552 0.01267
v 0.08555 0.05717 0.03351
v 0.12408 0.08291 0.01267
v 0.15982 0.10679 -0.01669
v 0.13591 0.13591 -0.01669
v 0.09507 0.03938 0.03351
v 0.17758 0.07355 -0.01669
v 0.13787 0.05711 0.01267
v 0.10092 0.02008 0.03351
v 0.14636 0.02911 0.01267
v 0.10290 -0.00000 0.03351
v 0.19221 -0.00000 -0.01669
v 0.18851 0.03750 -0.01669
v 0.14636 -0.02911 0.01267
v 0.14923 -0.00000 0.01267
v 0.10092 -0.02008 0.03351
v 0.09507 -0.03938 0.03351
v 0.13787 -0.05711 0.01267
v 0.17758 -0.07355 -0.01669
v 0.18851 -0.03750 -0.01669
v 0.12408 -0.08291 0.01267
v 0.08555 -0.05717 0.03351
v 0.07276 -0.07276 0.03351
v 0.15982 -0.10679 -0.01669
v 0.10552 -0.10552 0.01267
v 0.05717 -0.08555 0.03351
v 0.08291 -0.12408 0.01267
v 0.10679 -0.15982 -0.01669
v 0.13591 -0.13591 -0.01669
v 0.03938 -0.09507 0.03351
v 0.07355 -0.17758 -0.01669
v 0.05711 -0.13787 0.01267
v 0.02008 -0.10092 0.03351
v 0.02911 -0.14636 0.01267
v 0.00000 -0.10290 0.03351
v 0.00000 -0.19221 -0.01669
v 0.03750 -0.18851 -0.01669
v -0.02008 -0.10092 0.03351
v -0.02911 -0.14636 0.01267
v 0.00000 -0.14923 0.01267
v -0.03938 -0.09507 0.03351
v -0.05711 -0.13787 0.01267
v -0.07355 -0.17758 -0.01669
v -0.03750 -0.18851 -0.01669
v -0.08291 -0.12408 0.01267
v -0.07276 -0.07276 0.03351
v -0.05717 -0.08555 0.03351
v -0.10679 -0.15982 -0.01669
v -0.10552 -0.10552 0.01267
v -0.08555 -0.05717 0.03351
v -0.12408 -0.08291 0.01267
v -0.15982 -0.10679 -0.01669
v -0.13591 -0.13591 -0.01669
v -0.17758 -0.07355 -0.01669
v -0.09507 -0.03938 0.03351
v -0.13787 -0.05711 0.01267
v -0.10092 -0.02008 0.03351
v -0.14636 -0.02911 0.01267
v -0.19221 -0.00000 -0.01669
v -0.18851 -0.03750 -0.01669
v -0.10290 -0.00000 0.03351
v -0.10092 0.02008 0.03351
v -0.14636 0.02911 0.01267
v -0.14923 -0.00000 0.01267
v -0.09507 0.03938 0.03351
v -0.13787 0.05711 0.01267
v -0.17758 0.07355 -0.01669
v -0.18851 0.03750 -0.01669
v -0.12408 0.08291 0.01267
v -0.08555 0.05717 0.03351
v -0.07276 0.07276 0.03351
v -0.15982 0.10679 -0.01669
v -0.10552 0.10552 0.01267
v -0.05717 0.08555 0.03351
v -0.08291 0.12408 0.01267
v -0.10679 0.15982 -0.01669
v -0.13591 0.13591 -0.01669
v -0.03938 0.09507 0.03351
v -0.07355 0.17758 -0.01669
v -0.05711 0.13787 0.01267
v -0.02008 0.10092 0.03351
v -0.02911 0.14636 0.01267
v -0.03750 0.18851 -0.01669
v -0.13230 0.66513 -0.04111
v 0.00000 0.67816 -0.04111
v 0.13230 0.66513 -0.04111
v 0.25952 0.62654 -0.04111
v -0.13230 -0.66513 -0.04111
v 0.00000 -0.67816 -0.04111
v -0.25952 -0.62654 -0.04111
v -0.37676 -0.56387 -0.04111
v -0.56387 -0.37676 -0.04111
v -0.47953 -0.47953 -0.04111
v -0.66513 -0.13230 -0.04111
v -0.62654 -0.25952 -0.04111
v 0.37676 0.56387 -0.04111
v 0.47953 0.47953 -0.04111
v -0.66513 0.13230 -0.04111
v -0.67816 -0.00000 -0.04111
v 0.62654 0.25952 -0.04111
v 0.56387 0.37676 -0.04111
v -0.62654 0.25952 -0.04111
v -0.56387 0.37676 -0.04111
v 0.66513 0.13230 -0.04111
v 0.67816 -0.00000 -0.04111
v -0.25952 0.62654 -0.04111
v -0.37676 0.56387 -0.04111
v -0.47953 0.47953 -0.04111
v 0.66513 -0.13230 -0.04111
v 0.62654 -0.25952 -0.04111
v 0.56387 -0.37676 -0.04111
v 0.47953 -0.47953 -0.04111
v 0.37676 -0.56387 -0.04111
v 0.25952 -0.62654 -0.04111
v 0.13230 -0.66513 -0.04111
v -0.12060 0.29116 -0.02109
v -0.17509 0.26204 -0.02109
v -0.16695 0.40305 -0.02553
v -0.30960 0.46335 -0.03134
v -0.24237 0.36274 -0.02553
v -0.21326 0.51485 -0.03134
v 0.31515 -0.00000 -0.02109
v 0.43626 -0.00000 -0.02553
v 0.30909 -0.06148 -0.02109
v 0.55727 -0.00000 -0.03134
v 0.42788 -0.08511 -0.02553
v 0.54656 -0.10872 -0.03134
v 0.22285 0.22285 -0.02109
v 0.30848 0.30848 -0.02553
v 0.26204 0.17509 -0.02109
v 0.39405 0.39405 -0.03134
v 0.36274 0.24237 -0.02553
v 0.46335 0.30960 -0.03134
v 0.12060 -0.29116 -0.02109
v 0.16695 -0.40305 -0.02553
v 0.06148 -0.30909 -0.02109
v 0.21326 -0.51485 -0.03134
v 0.08511 -0.42788 -0.02553
v 0.10872 -0.54656 -0.03134
v 0.29116 0.12060 -0.02109
v 0.40305 0.16695 -0.02553
v 0.30909 0.06148 -0.02109
v 0.51485 0.21326 -0.03134
v 0.42788 0.08511 -0.02553
v 0.54656 0.10872 -0.03134
v 0.12060 0.29116 -0.02109
v 0.16695 0.40305 -0.02553
v 0.17509 0.26204 -0.02109
v 0.30960 0.46335 -0.03134
v 0.24237 0.36274 -0.02553
v 0.21326 0.51485 -0.03134
v 0.22285 -0.22285 -0.02109
v 0.30848 -0.30848 -0.02553
v 0.17509 -0.26204 -0.02109
v 0.39405 -0.39405 -0.03134
v 0.24237 -0.36274 -0.02553
v 0.30960 -0.46335 -0.03134
v 0.29116 -0.12060 -0.02109
v 0.40305 -0.16695 -0.02553
v 0.26204 -0.17509 -0.02109
v 0.46335 -0.30960 -0.03134
v 0.36274 -0.24237 -0.02553
v 0.51485 -0.21326 -0.03134
v -0.22285 0.22285 -0.02109
v -0.26204 0.17509 -0.02109
v -0.30848 0.30848 -0.02553
v -0.36274 0.24237 -0.02553
v -0.39405 0.39405 -0.03134
v -0.46335 0.30960 -0.03134
v -0.22285 -0.22285 -0.02109
v -0.17509 -0.26204 -0.02109
v -0.30848 -0.30848 -0.02553
v -0.24237 -0.36274 -0.02553
v -0.39405 -0.39405 -0.03134
v -0.30960 -0.46335 -0.03134
v -0.29116 0.12060 -0.02109
v -0.30909 0.06148 -0.02109
v -0.40305 0.16695 -0.02553
v -0.42788 0.08511 -0.02553
v -0.51485 0.21326 -0.03134
v -0.54656 0.10872 -0.03134
v -0.12060 -0.29116 -0.02109
v -0.06148 -0.30909 -0.02109
v -0.16695 -0.40305 -0.02553
v -0.10872 -0.54656 -0.03134
v -0.08511 -0.42788 -0.02553
v -0.21326 -0.51485 -0.03134
v -0.31515 -0.00000 -0.02109
v -0.30909 -0.06148 -0.02109
v -0.43626 -0.00000 -0.02553
v -0.42788 -0.08511 -0.02553
v -0.55727 -0.00000 -0.03134
v -0.54656 -0.10872 -0.03134
v 0.00000 -0.31515 -0.02109
v 0.00000 -0.43626 -0.02553
v 0.00000 -0.55727 -0.03134
v -0.29116 -0.12060 -0.02109
v -0.26204 -0.17509 -0.02109
v -0.40305 -0.16695 -0.02553
v -0.46335 -0.30960 -0.03134
v -0.36274 -0.24237 -0.02553
v -0.51485 -0.21326 -0.03134
v 0.00000 0.31515 -0.02109
v 0.00000 0.43626 -0.02553
v 0.06148 0.30909 -0.02109
v 0.00000 0.55727 -0.03134
v 0.08511 0.42788 -0.02553
v 0.10872 0.54656 -0.03134
v -0.08511 0.42788 -0.02553
v -0.06148 0.30909 -0.02109
v -0.10872 0.54656 -0.03134
vt 0.50000 0.50000
vn 0.0000 0.3350 0.9422
vn -0.1007 -0.5065 0.8563
vn 0.0653 0.3285 0.9422
vn 0.0000 0.4958 0.8684
vn 0.0967 0.4863 0.8684
vn 0.0000 0.2977 0.9547
vn 0.0581 0.2920 0.9546
vn 0.1282 0.3095 0.9422
vn 0.1897 0.4580 0.8685
vn 0.1139 0.2751 0.9546
vn -0.1976 -0.4772 0.8563
vn 0.1861 0.2785 0.9422
vn 0.2754 0.4122 0.8685
vn 0.1654 0.2475 0.9547
vn -0.2869 -0.4294 0.8563
vn 0.2369 0.2369 0.9422
vn 0.3506 0.3506 0.8684
vn 0.2105 0.2105 0.9547
vn -0.3652 -0.3652 0.8563
vn 0.2785 0.1861 0.9422
vn 0.4122 0.2754 0.8685
vn 0.2475 0.1654 0.9547
vn -0.4294 -0.2869 0.8563
vn 0.3095 0.1282 0.9422
vn 0.4580 0.1897 0.8685
vn 0.2751 0.1139 0.9546
vn 0.4863 0.0967 0.8684
vn 0.2920 0.0581 0.9546
vn -0.4772 -0.1976 0.8563
vn 0.3285 0.0653 0.9422
vn -0.5065 -0.1007 0.8563
vn 0.3350 -0.0000 0.9422
vn 0.4958 -0.0000 0.8684
vn 0.2977 -0.0000 0.9547
vn 0.4863 -0.0967 0.8684
vn 0.2920 -0.0581 0.9546
vn -0.5165 -0.0000 0.8563
vn 0.3285 -0.0653 0.9422
vn -0.5065 0.1007 0.8563
vn 0.3095 -0.1282 0.9422
vn 0.4580 -0.1897 0.8685
vn 0.2751 -0.1139 0.9546
vn 0.2475 -0.1654 0.9547
vn -0.4772 0.1976 0.8563
vn 0.2785 -0.1861 0.9422
vn 0.4122 -0.2754 0.8685
vn -0.4294 0.2869 0.8563
vn 0.2369 -0.2369 0.9422
vn 0.3506 -0.3506 0.8684
vn 0.2105 -0.2105 0.9547
vn -0.3652 0.3652 0.8563
vn 0.1861 -0.2785 0.9422
vn 0.2754 -0.4122 0.8685
vn 0.1654 -0.2475 0.9547
vn -0.2869 0.4294 0.8563
vn 0.1282 -0.3095 0.9422
vn 0.1897 -0.4580 0.8685
vn 0.1139 -0.2751 0.9546
vn -0.1976 0.4772 0.8563
vn 0.0653 -0.3285 0.9422
vn 0.0967 -0.4863 0.8684
vn 0.0581 -0.2920 0.9546
vn -0.1007 0.5065 0.8563
vn 0.0000 -0.3350 0.9422
vn 0.0000 -0.4958 0.8684
vn 0.0000 -0.2977 0.9547
vn 0.0000 0.5165 0.8563
vn -0.0653 -0.3285 0.9422
vn -0.0967 -0.4863 0.8684
vn -0.0581 -0.2920 0.9546
vn 0.1007 0.5065 0.8563
vn -0.1282 -0.3095 0.9422
vn -0.1897 -0.4580 0.8685
vn -0.1139 -0.2751 0.9546
vn 0.1976 0.4772 0.8563
vn -0.1861 -0.2785 0.9422
vn -0.2754 -0.4122 0.8685
vn -0.1654 -0.2475 0.9547
vn -0.3506 -0.3506 0.8684
vn -0.2105 -0.2105 0.9547
vn 0.2869 0.4294 0.8563
vn -0.2369 -0.2369 0.9422
vn 0.3652 0.3652 0.8563
vn -0.2785 -0.1861 0.9422
vn -0.4122 -0.2754 0.8685
vn -0.2475 -0.1654 0.9547
vn -0.2751 -0.1139 0.9546
vn 0.4294 0.2869 0.8563
vn -0.3095 -0.1282 0.9422
vn -0.4580 -0.1897 0.8685
vn 0.4772 0.1976 0.8563
vn -0.3285 -0.0653 0.9422
vn -0.4863 -0.0967 0.8684
vn -0.2920 -0.0581 0.9546
vn -0.4958 -0.0000 0.8684
vn -0.2977 -0.0000 0.9547
vn 0.5065 0.1007 0.8563
vn -0.3350 -0.0000 0.9422
vn 0.5165 -0.0000 0.8563
vn -0.3285 0.0653 0.9422
vn -0.4863 0.0967 0.8684
vn -0.2920 0.0581 0.9546
vn 0.5065 -0.1007 0.8563
vn -0.3095 0.1282 0.9422
vn -0.4580 0.1897 0.8685
vn -0.2751 0.1139 0.9546
vn 0.4772 -0.1976 0.8563
vn -0.2785 0.1861 0.9422
vn -0.4122 0.2754 0.8685
vn -0.2475 0.1654 0.9547
vn 0.4294 -0.2869 0.8563
vn -0.2369 0.2369 0.9422
vn -0.3506 0.3506 0.8684
vn -0.2105 0.2105 0.9547
vn 0.2869 -0.4294 0.8563
vn -0.1861 0.2785 0.9422
vn -0.2754 0.4122 0.8685
vn -0.1654 0.2475 0.9547
vn -0.1282 0.3095 0.9422
vn -0.1897 0.4580 0.8685
vn -0.1139 0.2751 0.9546
vn -0.0967 0.4863 0.8684
vn -0.0581 0.2920 0.9546
vn 0.1007 -0.5065 0.8563
vn -0.0653 0.3285 0.9422
vn 0.0000 0.1061 0.9944
vn -0.1546 0.7775 0.6095
vn -0.0207 0.1041 0.9944
vn 0.0207 0.1041 0.9944
vn 0.3034 0.7324 0.6095
vn 0.1546 0.7775 0.6095
vn -0.0207 -0.1041 0.9944
vn 0.0000 -0.7928 0.6095
vn 0.0000 -0.1061 0.9944
vn -0.0406 -0.0981 0.9943
vn -0.4404 -0.6591 0.6095
vn -0.3034 -0.7324 0.6095
vn -0.0883 -0.0590 0.9943
vn -0.5606 -0.5606 0.6095
vn -0.0750 -0.0750 0.9944
vn -0.0981 -0.0406 0.9943
vn -0.7775 -0.1546 0.6095
vn -0.7324 -0.3034 0.6095
vn 0.0750 0.0750 0.9944
vn 0.4404 0.6591 0.6095
vn 0.0590 0.0883 0.9943
vn -0.1041 0.0207 0.9944
vn -0.7928 -0.0000 0.6095
vn -0.1061 -0.0000 0.9944
vn 0.0981 0.0406 0.9943
vn 0.6591 0.4404 0.6095
vn 0.0883 0.0590 0.9943
vn -0.0883 0.0590 0.9943
vn -0.7324 0.3034 0.6095
vn -0.0981 0.0406 0.9943
vn 0.1061 -0.0000 0.9944
vn 0.7775 0.1546 0.6095
vn 0.1041 0.0207 0.9944
vn -0.0406 0.0981 0.9943
vn -0.3034 0.7324 0.6095
vn -0.0750 0.0750 0.9944
vn -0.4404 0.6591 0.6095
vn -0.5606 0.5606 0.6095
vn 0.1041 -0.0207 0.9944
vn 0.7324 -0.3034 0.6095
vn 0.7775 -0.1546 0.6095
vn 0.0000 0.7928 0.6095
vn 0.0750 -0.0750 0.9944
vn 0.6591 -0.4404 0.6095
vn 0.0883 -0.0590 0.9943
vn 0.0590 -0.0883 0.9943
vn 0.3034 -0.7324 0.6095
vn 0.4404 -0.6591 0.6095
vn -0.6591 -0.4404 0.6095
vn 0.1546 -0.7775 0.6095
vn 0.0207 -0.1041 0.9944
vn -0.1041 -0.0207 0.9944
vn -0.1546 -0.7775 0.6095
vn -0.7775 0.1546 0.6095
vn -0.0590 -0.0883 0.9943
vn -0.6591 0.4404 0.6095
vn 0.0981 -0.0406 0.9943
vn 0.5606 -0.5606 0.6095
vn 0.0406 0.0981 0.9943
vn 0.7324 0.3034 0.6095
vn 0.0406 -0.0981 0.9943
vn 0.5606 0.5606 0.6095
vn 0.7928 -0.0000 0.6095
vn -0.0590 0.0883 0.9943
vn -0.0196 0.0293 0.9994
vn -0.0135 0.0325 0.9994
vn -0.0237 0.0355 0.9991
vn -0.0163 0.0394 0.9991
vn -0.0363 0.0543 0.9979
vn -0.0250 0.0603 0.9979
vn 0.0345 -0.0069 0.9994
vn 0.0352 -0.0000 0.9994
vn 0.0426 -0.0000 0.9991
vn 0.0418 -0.0083 0.9991
vn 0.0653 -0.0000 0.9979
vn 0.0641 -0.0127 0.9979
vn 0.0293 0.0196 0.9994
vn 0.0249 0.0249 0.9994
vn 0.0355 0.0237 0.9991
vn 0.0302 0.0302 0.9991
vn 0.0543 0.0363 0.9979
vn 0.0462 0.0462 0.9979
vn 0.0135 -0.0325 0.9994
vn 0.0069 -0.0345 0.9994
vn 0.0163 -0.0394 0.9991
vn 0.0083 -0.0418 0.9991
vn 0.0250 -0.0603 0.9979
vn 0.0127 -0.0641 0.9979
vn 0.0345 0.0069 0.9994
vn 0.0325 0.0135 0.9994
vn 0.0394 0.0163 0.9991
vn 0.0641 0.0127 0.9979
vn 0.0603 0.0250 0.9979
vn 0.0196 0.0293 0.9994
vn 0.0135 0.0325 0.9994
vn 0.0163 0.0394 0.9991
vn 0.0363 0.0543 0.9979
vn 0.0250 0.0603 0.9979
vn 0.0249 -0.0249 0.9994
vn 0.0196 -0.0293 0.9994
vn 0.0302 -0.0302 0.9991
vn 0.0237 -0.0355 0.9991
vn 0.0462 -0.0462 0.9979
vn 0.0363 -0.0543 0.9979
vn 0.0293 -0.0196 0.9994
vn 0.0325 -0.0135 0.9994
vn 0.0355 -0.0237 0.9991
vn 0.0394 -0.0163 0.9991
vn 0.0543 -0.0363 0.9979
vn 0.0603 -0.0250 0.9979
vn -0.0293 0.0196 0.9994
vn -0.0249 0.0249 0.9994
vn -0.0355 0.0237 0.9991
vn -0.0302 0.0302 0.9991
vn -0.0543 0.0363 0.9979
vn -0.0462 0.0462 0.9979
vn -0.0249 -0.0249 0.9994
vn -0.0196 -0.0293 0.9994
vn -0.0302 -0.0302 0.9991
vn -0.0237 -0.0355 0.9991
vn -0.0462 -0.0462 0.9979
vn -0.0363 -0.0543 0.9979
vn -0.0325 0.0135 0.9994
vn -0.0345 0.0069 0.9994
vn -0.0394 0.0163 0.9991
vn -0.0418 0.0083 0.9991
vn -0.0603 0.0250 0.9979
vn -0.0641 0.0127 0.9979
vn -0.0069 -0.0345 0.9994
vn -0.0135 -0.0325 0.9994
vn -0.0083 -0.0418 0.9991
vn -0.0250 -0.0603 0.9979
vn -0.0127 -0.0641 0.9979
vn -0.0345 -0.0069 0.9994
vn -0.0426 -0.0000 0.9991
vn -0.0418 -0.0083 0.9991
vn -0.0653 -0.0000 0.9979
vn -0.0641 -0.0127 0.9979
vn 0.0000 -0.0426 0.9991
vn 0.0000 -0.0653 0.9979
vn -0.0325 -0.0135 0.9994
vn -0.0293 -0.0196 0.9994
vn -0.0355 -0.0237 0.9991
vn -0.0394 -0.0163 0.9991
vn -0.0543 -0.0363 0.9979
vn -0.0603 -0.0250 0.9979
vn 0.0000 0.0352 0.9994
vn 0.0069 0.0345 0.9994
vn 0.0000 0.0426 0.9991
vn 0.0083 0.0418 0.9991
vn 0.0000 0.0653 0.9979
vn 0.0127 0.0641 0.9979
vn -0.0069 0.0345 0.9994
vn -0.0083 0.0418 0.9991
vn -0.0127 0.0641 0.9979
vn 0.0418 0.0083 0.9991
vn -0.0352 -0.0000 0.9994
vn 0.0237 0.0355 0.9991
vn -0.0163 -0.0394 0.9991
vn 0.0000 -0.0352 0.9994
vn -0.1928 -0.9690 0.1545
vn -0.3781 -0.9128 0.1545
vn -0.5489 -0.8215 0.1545
vn -0.6986 -0.6986 0.1545
vn -0.8215 -0.5489 0.1545
vn -0.9128 -0.3781 0.1545
vn -0.9690 -0.1928 0.1545
vn -0.9880 -0.0000 0.1545
vn -0.9690 0.1928 0.1545
vn -0.9128 0.3781 0.1545
vn -0.8215 0.5489 0.1545
vn -0.6986 0.6986 0.1545
vn -0.5489 0.8215 0.1545
vn -0.3781 0.9128 0.1545
vn -0.1928 0.9690 0.1545
vn 0.0000 0.9880 0.1545
vn 0.1928 0.9690 0.1545
vn 0.3781 0.9128 0.1545
vn 0.5489 0.8215 0.1545
vn 0.6986 0.6986 0.1545
vn 0.8215 0.5489 0.1545
vn 0.9128 0.3781 0.1545
vn 0.9690 0.1928 0.1545
vn 0.9880 -0.0000 0.1545
vn 0.9690 -0.1928 0.1545
vn 0.9128 -0.3781 0.1545
vn 0.8215 -0.5489 0.1545
vn 0.3652 -0.3652 0.8563
vn 0.6986 -0.6986 0.1545
vn 0.5489 -0.8215 0.1545
vn 0.3781 -0.9128 0.1545
vn 0.1976 -0.4772 0.8563
vn 0.1928 -0.9690 0.1545
vn 0.0000 -0.9880 0.1545
vn 0.0000 -0.5165 0.8563
vn 0.1945 0.9777 -0.0791
vn 0.5538 0.8289 -0.0791
vn 0.3815 0.9210 -0.0791
vn 0.7049 0.7049 -0.0791
vn 0.8289 0.5538 -0.0791
vn 0.9210 0.3815 -0.0791
vn 0.9969 -0.0000 -0.0792
vn 0.9777 0.1945 -0.0791
vn 0.9777 -0.1945 -0.0791
vn 0.8289 -0.5538 -0.0791
vn 0.9210 -0.3815 -0.0791
vn 0.7049 -0.7049 -0.0791
vn 0.5538 -0.8289 -0.0791
vn 0.3815 -0.9210 -0.0791
vn 0.0000 -0.9969 -0.0792
vn 0.1945 -0.9777 -0.0791
vn -0.1945 -0.9777 -0.0791
vn -0.5538 -0.8289 -0.0791
vn -0.3815 -0.9210 -0.0791
vn -0.7049 -0.7049 -0.0791
vn -0.8289 -0.5538 -0.0791
vn -0.9210 -0.3815 -0.0791
vn -0.9969 -0.0000 -0.0792
vn -0.9777 -0.1945 -0.0791
vn -0.9777 0.1945 -0.0791
vn -0.8289 0.5538 -0.0791
vn -0.9210 0.3815 -0.0791
vn -0.7049 0.7049 -0.0791
vn -0.5538 0.8289 -0.0791
vn -0.1945 0.9777 -0.0791
vn -0.3815 0.9210 -0.0791
vn 0.0000 0.9969 -0.0792
vn -0.0653 -0.3282 -0.9424
vn 0.0000 -0.2470 -0.9690
vn 0.0000 -0.3346 -0.9424
vn 0.0000 -0.4932 -0.8699
vn 0.0000 -0.2964 -0.9551
vn -0.0962 -0.4837 -0.8699
vn -0.1280 -0.3091 -0.9424
vn -0.0482 -0.2422 -0.9690
vn -0.1888 -0.4557 -0.8699
vn -0.1134 -0.2738 -0.9551
vn -0.0578 -0.2907 -0.9551
vn -0.1372 -0.2053 -0.9690
vn -0.0945 -0.2282 -0.9690
vn -0.2740 -0.4101 -0.8699
vn -0.1859 -0.2782 -0.9424
vn -0.1746 -0.1746 -0.9690
vn -0.2366 -0.2366 -0.9424
vn -0.1646 -0.2464 -0.9551
vn -0.3488 -0.3488 -0.8699
vn -0.2782 -0.1859 -0.9424
vn -0.4101 -0.2740 -0.8699
vn -0.2464 -0.1646 -0.9551
vn -0.2096 -0.2096 -0.9551
vn -0.3091 -0.1280 -0.9424
vn -0.2053 -0.1372 -0.9690
vn -0.2738 -0.1134 -0.9551
vn -0.4557 -0.1888 -0.8699
vn -0.3282 -0.0653 -0.9424
vn -0.4837 -0.0962 -0.8699
vn -0.2422 -0.0482 -0.9690
vn -0.2282 -0.0945 -0.9690
vn -0.2470 -0.0000 -0.9690
vn -0.3346 -0.0000 -0.9424
vn -0.2964 -0.0000 -0.9551
vn -0.2907 -0.0578 -0.9551
vn -0.4837 0.0962 -0.8699
vn -0.4932 -0.0000 -0.8699
vn -0.3282 0.0653 -0.9424
vn -0.3091 0.1280 -0.9424
vn -0.2422 0.0482 -0.9690
vn -0.4557 0.1888 -0.8699
vn -0.2738 0.1134 -0.9551
vn -0.2907 0.0578 -0.9551
vn -0.4101 0.2740 -0.8699
vn -0.2053 0.1372 -0.9690
vn -0.2282 0.0945 -0.9690
vn -0.2782 0.1859 -0.9424
vn -0.1746 0.1746 -0.9690
vn -0.2366 0.2366 -0.9424
vn -0.2464 0.1646 -0.9551
vn -0.3488 0.3488 -0.8699
vn -0.1859 0.2782 -0.9424
vn -0.2740 0.4101 -0.8699
vn -0.1646 0.2464 -0.9551
vn -0.2096 0.2096 -0.9551
vn -0.1280 0.3091 -0.9424
vn -0.1372 0.2053 -0.9690
vn -0.1134 0.2738 -0.9551
vn -0.0482 0.2422 -0.9690
vn -0.0945 0.2282 -0.9690
vn -0.1888 0.4557 -0.8699
vn -0.0653 0.3282 -0.9424
vn -0.0962 0.4837 -0.8699
vn 0.0000 0.2470 -0.9690
vn 0.0000 0.3346 -0.9424
vn 0.0000 0.2964 -0.9551
vn -0.0578 0.2907 -0.9551
vn 0.0653 0.3282 -0.9424
vn 0.0962 0.4837 -0.8699
vn 0.0000 0.4932 -0.8699
vn 0.1280 0.3091 -0.9424
vn 0.0482 0.2422 -0.9690
vn 0.1888 0.4557 -0.8699
vn 0.1134 0.2738 -0.9551
vn 0.0578 0.2907 -0.9551
vn 0.1372 0.2053 -0.9690
vn 0.0945 0.2282 -0.9690
vn 0.2740 0.4101 -0.8699
vn 0.2366 0.2366 -0.9424
vn 0.1859 0.2782 -0.9424
vn 0.1646 0.2464 -0.9551
vn 0.3488 0.3488 -0.8699
vn 0.1746 0.1746 -0.9690
vn 0.2782 0.1859 -0.9424
vn 0.4101 0.2740 -0.8699
vn 0.2464 0.1646 -0.9551
vn 0.2096 0.2096 -0.9551
vn 0.2738 0.1134 -0.9551
vn 0.3091 0.1280 -0.9424
vn 0.2053 0.1372 -0.9690
vn 0.2422 0.0482 -0.9690
vn 0.2282 0.0945 -0.9690
vn 0.4557 0.1888 -0.8699
vn 0.3282 0.0653 -0.9424
vn 0.4837 0.0962 -0.8699
vn 0.2964 -0.0000 -0.9551
vn 0.2907 0.0578 -0.9551
vn 0.2470 -0.0000 -0.9690
vn 0.3346 -0.0000 -0.9424
vn 0.3282 -0.0653 -0.9424
vn 0.4837 -0.0962 -0.8699
vn 0.4932 -0.0000 -0.8699
vn 0.3091 -0.1280 -0.9424
vn 0.2422 -0.0482 -0.9690
vn 0.4557 -0.1888 -0.8699
vn 0.2738 -0.1134 -0.9551
vn 0.2907 -0.0578 -0.9551
vn 0.2053 -0.1372 -0.9690
vn 0.2282 -0.0945 -0.9690
vn 0.4101 -0.2740 -0.8699
vn 0.2782 -0.1859 -0.9424
vn 0.1746 -0.1746 -0.9690
vn 0.2366 -0.2366 -0.9424
vn 0.2464 -0.1646 -0.9551
vn 0.3488 -0.3488 -0.8699
vn 0.1859 -0.2782 -0.9424
vn 0.2740 -0.4101 -0.8699
vn 0.1646 -0.2464 -0.9551
vn 0.2096 -0.2096 -0.9551
vn 0.1280 -0.3091 -0.9424
vn 0.1372 -0.2053 -0.9690
vn 0.1134 -0.2738 -0.9551
vn 0.1888 -0.4557 -0.8699
vn 0.0653 -0.3282 -0.9424
vn 0.0962 -0.4837 -0.8699
vn 0.0482 -0.2422 -0.9690
vn 0.0945 -0.2282 -0.9690
vn 0.0578 -0.2907 -0.9551
vn 0.0207 -0.1041 -0.9944
vn 0.0000 -0.1286 -0.9917
vn 0.0000 -0.1061 -0.9944
vn -0.0207 -0.1041 -0.9944
vn -0.0492 -0.1189 -0.9917
vn -0.0406 -0.0981 -0.9943
vn 0.0000 0.1286 -0.9917
vn 0.0207 0.1041 -0.9944
vn 0.0000 0.1061 -0.9944
vn 0.0406 0.0981 -0.9943
vn 0.0715 0.1070 -0.9917
vn 0.0590 0.0883 -0.9943
vn 0.0910 0.0910 -0.9917
vn 0.0883 0.0590 -0.9943
vn 0.0750 0.0750 -0.9944
vn 0.1189 0.0492 -0.9917
vn 0.1041 0.0207 -0.9944
vn 0.0981 0.0406 -0.9943
vn -0.0590 -0.0883 -0.9943
vn -0.0910 -0.0910 -0.9917
vn -0.0750 -0.0750 -0.9944
vn 0.1286 -0.0000 -0.9917
vn 0.1041 -0.0207 -0.9944
vn 0.1061 -0.0000 -0.9944
vn -0.1070 -0.0715 -0.9917
vn -0.0981 -0.0406 -0.9943
vn -0.0883 -0.0590 -0.9943
vn 0.0981 -0.0406 -0.9943
vn 0.1070 -0.0715 -0.9917
vn 0.0883 -0.0590 -0.9943
vn -0.1041 -0.0207 -0.9944
vn -0.1286 -0.0000 -0.9917
vn -0.1061 -0.0000 -0.9944
vn 0.0492 -0.1189 -0.9917
vn 0.0406 -0.0981 -0.9943
vn 0.0910 -0.0910 -0.9917
vn 0.0590 -0.0883 -0.9943
vn 0.0750 -0.0750 -0.9944
vn -0.1041 0.0207 -0.9944
vn -0.1189 0.0492 -0.9917
vn -0.0981 0.0406 -0.9943
vn -0.0883 0.0590 -0.9943
vn -0.0910 0.0910 -0.9917
vn -0.0750 0.0750 -0.9944
vn -0.0590 0.0883 -0.9943
vn -0.0492 0.1189 -0.9917
vn -0.0406 0.0981 -0.9943
vn 0.1070 0.0715 -0.9917
vn -0.0207 0.1041 -0.9944
vn 0.0492 0.1189 -0.9917
vn 0.1189 -0.0492 -0.9917
vn -0.1189 -0.0492 -0.9917
vn 0.0715 -0.1070 -0.9917
vn 0.0138 -0.0334 -0.9993
vn 0.0201 -0.0301 -0.9993
vn 0.0163 -0.0394 -0.9991
vn 0.0363 -0.0543 -0.9979
vn 0.0237 -0.0354 -0.9991
vn 0.0250 -0.0603 -0.9979
vn -0.0362 -0.0000 -0.9993
vn -0.0426 -0.0000 -0.9991
vn -0.0355 0.0070 -0.9993
vn -0.0653 -0.0000 -0.9979
vn -0.0418 0.0083 -0.9991
vn -0.0641 0.0127 -0.9979
vn -0.0256 -0.0256 -0.9993
vn -0.0302 -0.0302 -0.9991
vn -0.0301 -0.0201 -0.9993
vn -0.0462 -0.0462 -0.9979
vn -0.0354 -0.0237 -0.9991
vn -0.0543 -0.0363 -0.9979
vn -0.0138 0.0334 -0.9993
vn -0.0163 0.0394 -0.9991
vn -0.0070 0.0355 -0.9993
vn -0.0250 0.0603 -0.9979
vn -0.0083 0.0418 -0.9991
vn -0.0127 0.0641 -0.9979
vn -0.0334 -0.0138 -0.9993
vn -0.0394 -0.0163 -0.9991
vn -0.0355 -0.0070 -0.9993
vn -0.0603 -0.0250 -0.9979
vn -0.0418 -0.0083 -0.9991
vn -0.0641 -0.0127 -0.9979
vn -0.0138 -0.0334 -0.9993
vn -0.0163 -0.0394 -0.9991
vn -0.0201 -0.0301 -0.9993
vn -0.0363 -0.0543 -0.9979
vn -0.0237 -0.0354 -0.9991
vn -0.0250 -0.0603 -0.9979
vn -0.0256 0.0256 -0.9993
vn -0.0302 0.0302 -0.9991
vn -0.0201 0.0301 -0.9993
vn -0.0462 0.0462 -0.9979
vn -0.0237 0.0354 -0.9991
vn -0.0363 0.0543 -0.9979
vn -0.0334 0.0138 -0.9993
vn -0.0394 0.0163 -0.9991
vn -0.0301 0.0201 -0.9993
vn -0.0543 0.0363 -0.9979
vn -0.0354 0.0237 -0.9991
vn -0.0603 0.0250 -0.9979
vn 0.0256 -0.0256 -0.9993
vn 0.0301 -0.0201 -0.9993
vn 0.0302 -0.0302 -0.9991
vn 0.0354 -0.0237 -0.9991
vn 0.0462 -0.0462 -0.9979
vn 0.0543 -0.0363 -0.9979
vn 0.0256 0.0256 -0.9993
vn 0.0201 0.0301 -0.9993
vn 0.0302 0.0302 -0.9991
vn 0.0237 0.0354 -0.9991
vn 0.0462 0.0462 -0.9979
vn 0.0363 0.0543 -0.9979
vn 0.0334 -0.0138 -0.9993
vn 0.0355 -0.0070 -0.9993
vn 0.0394 -0.0163 -0.9991
vn 0.0418 -0.0083 -0.9991
vn 0.0603 -0.0250 -0.9979
vn 0.0641 -0.0127 -0.9979
vn 0.0138 0.0334 -0.9993
vn 0.0070 0.0355 -0.9993
vn 0.0163 0.0394 -0.9991
vn 0.0127 0.0641 -0.9979
vn 0.0083 0.0418 -0.9991
vn 0.0250 0.0603 -0.9979
vn 0.0362 -0.0000 -0.9993
vn 0.0355 0.0070 -0.9993
vn 0.0426 -0.0000 -0.9991
vn 0.0418 0.0083 -0.9991
vn 0.0653 -0.0000 -0.9979
vn 0.0641 0.0127 -0.9979
vn 0.0000 0.0362 -0.9993
vn 0.0000 0.0426 -0.9991
vn 0.0000 0.0653 -0.9979
vn 0.0334 0.0138 -0.9993
vn 0.0301 0.0201 -0.9993
vn 0.0394 0.0163 -0.9991
vn 0.0543 0.0363 -0.9979
vn 0.0354 0.0237 -0.9991
vn 0.0603 0.0250 -0.9979
vn 0.0000 -0.0362 -0.9993
vn 0.0000 -0.0426 -0.9991
vn -0.0070 -0.0355 -0.9993
vn 0.0000 -0.0653 -0.9979
vn -0.0083 -0.0418 -0.9991
vn -0.0127 -0.0641 -0.9979
vn 0.0083 -0.0418 -0.9991
vn 0.0070 -0.0355 -0.9993
vn 0.0127 -0.0641 -0.9979
vn 0.0251 -0.1262 -0.9917
vn -0.0251 -0.1262 -0.9917
vn 0.0251 0.1262 -0.9917
vn 0.1262 0.0251 -0.9917
vn -0.0715 -0.1070 -0.9917
vn 0.1262 -0.0251 -0.9917
vn -0.1262 -0.0251 -0.9917
vn -0.1262 0.0251 -0.9917
vn -0.1070 0.0715 -0.9917
vn -0.0715 0.1070 -0.9917
vn -0.0251 0.1262 -0.9917
f 1/1/1 2/1/2 3/1/3
f 4/1/4 3/1/3 5/1/5
f 6/1/6 5/1/5 7/1/7
f 2/1/2 8/1/8 3/1/3
f 5/1/5 8/1/8 9/1/9
f 5/1/5 10/1/10 7/1/7
f 11/1/11 12/1/12 8/1/8
f 9/1/9 12/1/12 13/1/13
f 10/1/10 13/1/13 14/1/14
f 15/1/15 16/1/16 12/1/12
f 12/1/12 17/1/17 13/1/13
f 14/1/14 17/1/17 18/1/18
f 19/1/19 20/1/20 16/1/16
f 16/1/16 21/1/21 17/1/17
f 17/1/17 22/1/22 18/1/18
f 23/1/23 24/1/24 20/1/20
f 20/1/20 25/1/25 21/1/21
f 21/1/21 26/1/26 22/1/22
f 24/1/24 27/1/27 25/1/25
f 26/1/26 27/1/27 28/1/28
f 29/1/29 30/1/30 24/1/24
f 31/1/31 32/1/32 30/1/30
f 30/1/30 33/1/33 27/1/27
f 27/1/27 34/1/34 28/1/28
f 32/1/32 35/1/35 33/1/33
f 33/1/33 36/1/36 34/1/34
f 37/1/37 38/1/38 32/1/32
f 39/1/39 40/1/40 38/1/38
f 35/1/35 40/1/40 41/1/41
f 35/1/35 42/1/42 36/1/36
f 41/1/41 43/1/43 42/1/42
f 44/1/44 45/1/45 40/1/40
f 40/1/40 46/1/46 41/1/41
f 47/1/47 48/1/48 45/1/45
f 45/1/45 49/1/49 46/1/46
f 46/1/46 50/1/50 43/1/43
f 51/1/51 52/1/52 48/1/48
f 48/1/48 53/1/53 49/1/49
f 49/1/49 54/1/54 50/1/50
f 55/1/55 56/1/56 52/1/52
f 52/1/52 57/1/57 53/1/53
f 53/1/53 58/1/58 54/1/54
f 59/1/59 60/1/60 56/1/56
f 57/1/57 60/1/60 61/1/61
f 58/1/58 61/1/61 62/1/62
f 63/1/63 64/1/64 60/1/60
f 60/1/60 65/1/65 61/1/61
f 62/1/62 65/1/65 66/1/66
f 67/1/67 68/1/68 64/1/64
f 64/1/64 69/1/69 65/1/65
f 66/1/66 69/1/69 70/1/70
f 71/1/71 72/1/72 68/1/68
f 68/1/68 73/1/73 69/1/69
f 69/1/69 74/1/74 70/1/70
f 75/1/75 76/1/76 72/1/72
f 72/1/72 77/1/77 73/1/73
f 73/1/73 78/1/78 74/1/74
f 76/1/76 79/1/79 77/1/77
f 78/1/78 79/1/79 80/1/80
f 81/1/81 82/1/82 76/1/76
f 83/1/83 84/1/84 82/1/82
f 82/1/82 85/1/85 79/1/79
f 80/1/80 85/1/85 86/1/86
f 85/1/85 87/1/87 86/1/86
f 88/1/88 89/1/89 84/1/84
f 84/1/84 90/1/90 85/1/85
f 91/1/91 92/1/92 89/1/89
f 90/1/90 92/1/92 93/1/93
f 87/1/87 93/1/93 94/1/94
f 94/1/94 95/1/95 96/1/96
f 97/1/97 98/1/98 92/1/92
f 92/1/92 95/1/95 93/1/93
f 99/1/99 100/1/100 98/1/98
f 98/1/98 101/1/101 95/1/95
f 96/1/96 101/1/101 102/1/102
f 103/1/103 104/1/104 100/1/100
f 100/1/100 105/1/105 101/1/101
f 102/1/102 105/1/105 106/1/106
f 107/1/107 108/1/108 104/1/104
f 104/1/104 109/1/109 105/1/105
f 106/1/106 109/1/109 110/1/110
f 111/1/111 112/1/112 108/1/108
f 108/1/108 113/1/113 109/1/109
f 110/1/110 113/1/113 114/1/114
f 112/1/112 115/1/115 116/1/116
f 112/1/112 117/1/117 113/1/113
f 113/1/113 118/1/118 114/1/114
f 115/1/115 119/1/119 116/1/116
f 116/1/116 120/1/120 117/1/117
f 117/1/117 121/1/121 118/1/118
f 119/1/119 122/1/122 120/1/120
f 120/1/120 123/1/123 121/1/121
f 119/1/119 124/1/124 125/1/125
f 124/1/124 1/1/1 125/1/125
f 125/1/125 4/1/4 122/1/122
f 122/1/122 6/1/6 123/1/123
f 126/1/126 127/1/127 128/1/128
f 129/1/129 130/1/130 131/1/131
f 132/1/132 133/1/133 134/1/134
f 135/1/135 136/1/136 137/1/137
f 138/1/138 139/1/139 140/1/140
f 141/1/141 142/1/142 143/1/143
f 144/1/144 145/1/145 146/1/146
f 147/1/147 148/1/148 149/1/149
f 150/1/150 151/1/151 152/1/152
f 153/1/153 154/1/154 155/1/155
f 156/1/156 157/1/157 158/1/158
f 159/1/159 127/1/127 160/1/160
f 161/1/161 162/1/162 163/1/163
f 164/1/164 165/1/165 166/1/166
f 129/1/129 167/1/167 126/1/126
f 168/1/168 169/1/169 170/1/170
f 171/1/171 172/1/172 173/1/173
f 141/1/141 174/1/174 138/1/138
f 134/1/134 175/1/175 176/1/176
f 177/1/177 148/1/148 142/1/142
f 132/1/132 137/1/137 178/1/178
f 147/1/147 154/1/154 179/1/179
f 180/1/180 139/1/139 136/1/136
f 161/1/161 181/1/181 153/1/153
f 170/1/170 165/1/165 182/1/182
f 171/1/171 183/1/183 168/1/168
f 146/1/146 130/1/130 184/1/184
f 158/1/158 185/1/185 150/1/150
f 176/1/176 172/1/172 186/1/186
f 152/1/152 187/1/187 144/1/144
f 164/1/164 188/1/188 156/1/156
f 159/1/159 162/1/162 189/1/189
f 121/1/121 190/1/190 118/1/118
f 191/1/191 192/1/192 190/1/190
f 193/1/193 194/1/194 192/1/192
f 195/1/195 189/1/189 194/1/194
f 34/1/34 196/1/196 197/1/197
f 196/1/196 198/1/198 197/1/197
f 199/1/199 200/1/200 198/1/198
f 201/1/201 156/1/156 200/1/200
f 18/1/18 202/1/202 203/1/203
f 203/1/203 204/1/204 205/1/205
f 205/1/205 206/1/206 207/1/207
f 207/1/207 152/1/152 144/1/144
f 62/1/62 208/1/208 58/1/58
f 209/1/209 210/1/210 208/1/208
f 211/1/211 212/1/212 210/1/210
f 213/1/213 186/1/186 212/1/212
f 26/1/26 214/1/214 215/1/215
f 214/1/214 216/1/216 215/1/215
f 216/1/216 217/1/217 218/1/218
f 217/1/217 150/1/150 218/1/218
f 10/1/10 219/1/219 220/1/220
f 219/1/219 221/1/221 220/1/220
f 221/1/221 222/1/222 223/1/223
f 222/1/222 184/1/184 223/1/223
f 54/1/54 224/1/224 50/1/50
f 225/1/225 226/1/226 224/1/224
f 227/1/227 228/1/228 226/1/226
f 229/1/229 168/1/168 228/1/228
f 42/1/42 230/1/230 231/1/231
f 231/1/231 232/1/232 233/1/233
f 233/1/233 234/1/234 235/1/235
f 234/1/234 182/1/182 235/1/235
f 114/1/114 236/1/236 110/1/110
f 237/1/237 238/1/238 236/1/236
f 239/1/239 240/1/240 238/1/238
f 241/1/241 153/1/153 240/1/240
f 78/1/78 242/1/242 243/1/243
f 243/1/243 244/1/244 245/1/245
f 245/1/245 246/1/246 247/1/247
f 247/1/247 140/1/140 180/1/180
f 102/1/102 248/1/248 249/1/249
f 249/1/249 250/1/250 251/1/251
f 251/1/251 252/1/252 253/1/253
f 253/1/253 155/1/155 147/1/147
f 74/1/74 254/1/254 70/1/70
f 255/1/255 256/1/256 254/1/254
f 256/1/256 257/1/257 258/1/258
f 258/1/258 135/1/135 132/1/132
f 96/1/96 259/1/259 94/1/94
f 259/1/259 260/1/260 261/1/261
f 261/1/261 262/1/262 263/1/263
f 262/1/262 177/1/177 263/1/263
f 66/1/66 209/1/209 62/1/62
f 209/1/209 264/1/264 211/1/211
f 211/1/211 265/1/265 213/1/213
f 265/1/265 176/1/176 213/1/213
f 86/1/86 266/1/266 267/1/267
f 266/1/266 268/1/268 267/1/267
f 269/1/269 270/1/270 268/1/268
f 271/1/271 138/1/138 270/1/270
f 54/1/54 208/1/208 225/1/225
f 208/1/208 227/1/227 225/1/225
f 210/1/210 229/1/229 227/1/227
f 212/1/212 171/1/171 229/1/229
f 43/1/43 224/1/224 230/1/230
f 230/1/230 226/1/226 232/1/232
f 226/1/226 234/1/234 232/1/232
f 228/1/228 170/1/170 234/1/234
f 7/1/7 272/1/272 6/1/6
f 273/1/273 274/1/274 272/1/272
f 275/1/275 276/1/276 274/1/274
f 277/1/277 126/1/126 276/1/276
f 42/1/42 196/1/196 36/1/36
f 196/1/196 233/1/233 199/1/199
f 233/1/233 201/1/201 199/1/199
f 201/1/201 182/1/182 164/1/164
f 114/1/114 190/1/190 237/1/237
f 237/1/237 192/1/192 239/1/239
f 239/1/239 194/1/194 241/1/241
f 241/1/241 189/1/189 161/1/161
f 121/1/121 278/1/278 191/1/191
f 191/1/191 279/1/279 193/1/193
f 193/1/193 280/1/280 195/1/195
f 280/1/280 159/1/159 195/1/195
f 28/1/28 197/1/197 214/1/214
f 214/1/214 198/1/198 281/1/281
f 281/1/281 200/1/200 217/1/217
f 217/1/217 156/1/156 158/1/158
f 110/1/110 248/1/248 106/1/106
f 236/1/236 250/1/250 248/1/248
f 238/1/238 252/1/252 250/1/250
f 240/1/240 155/1/155 252/1/252
f 26/1/26 202/1/202 22/1/22
f 215/1/215 204/1/204 202/1/202
f 216/1/216 206/1/206 204/1/204
f 206/1/206 150/1/150 152/1/152
f 96/1/96 249/1/249 282/1/282
f 249/1/249 260/1/260 282/1/282
f 251/1/251 262/1/262 260/1/260
f 253/1/253 149/1/149 262/1/262
f 18/1/18 219/1/219 14/1/14
f 203/1/203 283/1/283 219/1/219
f 205/1/205 222/1/222 283/1/283
f 207/1/207 146/1/146 222/1/222
f 94/1/94 266/1/266 87/1/87
f 259/1/259 269/1/269 266/1/266
f 261/1/261 271/1/271 269/1/269
f 263/1/263 141/1/141 271/1/271
f 86/1/86 242/1/242 80/1/80
f 267/1/267 244/1/244 242/1/242
f 268/1/268 246/1/246 244/1/244
f 270/1/270 140/1/140 246/1/246
f 78/1/78 255/1/255 74/1/74
f 243/1/243 284/1/284 255/1/255
f 245/1/245 257/1/257 284/1/284
f 247/1/247 135/1/135 257/1/257
f 66/1/66 254/1/254 285/1/285
f 254/1/254 264/1/264 285/1/285
f 256/1/256 265/1/265 264/1/264
f 258/1/258 134/1/134 265/1/265
f 10/1/10 273/1/273 7/1/7
f 273/1/273 221/1/221 275/1/275
f 275/1/275 223/1/223 277/1/277
f 277/1/277 184/1/184 129/1/129
f 123/1/123 272/1/272 278/1/278
f 278/1/278 274/1/274 279/1/279
f 279/1/279 276/1/276 280/1/280
f 276/1/276 128/1/128 280/1/280
f 11/1/11 286/1/286 287/1/287
f 15/1/15 287/1/287 288/1/288
f 19/1/19 288/1/288 289/1/289
f 19/1/19 290/1/290 23/1/23
f 23/1/23 291/1/291 29/1/29
f 29/1/29 292/1/292 31/1/31
f 31/1/31 293/1/293 37/1/37
f 39/1/39 293/1/293 294/1/294
f 44/1/44 294/1/294 295/1/295
f 47/1/47 295/1/295 296/1/296
f 51/1/51 296/1/296 297/1/297
f 51/1/51 298/1/298 55/1/55
f 55/1/55 299/1/299 59/1/59
f 59/1/59 300/1/300 63/1/63
f 63/1/63 301/1/301 67/1/67
f 71/1/71 301/1/301 302/1/302
f 75/1/75 302/1/302 303/1/303
f 81/1/81 303/1/303 304/1/304
f 83/1/83 304/1/304 305/1/305
f 83/1/83 306/1/306 88/1/88
f 88/1/88 307/1/307 91/1/91
f 91/1/91 308/1/308 97/1/97
f 97/1/97 309/1/309 99/1/99
f 103/1/103 309/1/309 310/1/310
f 107/1/107 310/1/310 311/1/311
f 111/1/111 311/1/311 312/1/312
f 313/1/313 312/1/312 314/1/314
f 313/1/313 315/1/315 115/1/115
f 115/1/115 316/1/316 317/1/317
f 317/1/317 318/1/318 124/1/124
f 124/1/124 319/1/319 320/1/320
f 2/1/2 319/1/319 286/1/286
f 130/1/130 321/1/321 131/1/131
f 130/1/130 322/1/322 323/1/323
f 145/1/145 324/1/324 322/1/322
f 151/1/151 324/1/324 187/1/187
f 185/1/185 325/1/325 151/1/151
f 157/1/157 326/1/326 185/1/185
f 157/1/157 327/1/327 328/1/328
f 166/1/166 327/1/327 188/1/188
f 165/1/165 329/1/329 166/1/166
f 165/1/165 330/1/330 331/1/331
f 169/1/169 332/1/332 330/1/330
f 173/1/173 332/1/332 183/1/183
f 172/1/172 333/1/333 173/1/173
f 175/1/175 334/1/334 172/1/172
f 175/1/175 335/1/335 336/1/336
f 178/1/178 335/1/335 133/1/133
f 137/1/137 337/1/337 178/1/178
f 137/1/137 338/1/338 339/1/339
f 136/1/136 340/1/340 338/1/338
f 174/1/174 340/1/340 139/1/139
f 143/1/143 341/1/341 174/1/174
f 142/1/142 342/1/342 143/1/143
f 142/1/142 343/1/343 344/1/344
f 179/1/179 343/1/343 148/1/148
f 154/1/154 345/1/345 179/1/179
f 154/1/154 346/1/346 347/1/347
f 181/1/181 348/1/348 346/1/346
f 162/1/162 348/1/348 163/1/163
f 160/1/160 349/1/349 162/1/162
f 160/1/160 350/1/350 351/1/351
f 167/1/167 350/1/350 127/1/127
f 131/1/131 352/1/352 167/1/167
f 1/1/1 320/1/320 2/1/2
f 4/1/4 1/1/1 3/1/3
f 6/1/6 4/1/4 5/1/5
f 2/1/2 11/1/11 8/1/8
f 5/1/5 3/1/3 8/1/8
f 5/1/5 9/1/9 10/1/10
f 11/1/11 15/1/15 12/1/12
f 9/1/9 8/1/8 12/1/12
f 10/1/10 9/1/9 13/1/13
f 15/1/15 19/1/19 16/1/16
f 12/1/12 16/1/16 17/1/17
f 14/1/14 13/1/13 17/1/17
f 19/1/19 23/1/23 20/1/20
f 16/1/16 20/1/20 21/1/21
f 17/1/17 21/1/21 22/1/22
f 23/1/23 29/1/29 24/1/24
f 20/1/20 24/1/24 25/1/25
f 21/1/21 25/1/25 26/1/26
f 24/1/24 30/1/30 27/1/27
f 26/1/26 25/1/25 27/1/27
f 29/1/29 31/1/31 30/1/30
f 31/1/31 37/1/37 32/1/32
f 30/1/30 32/1/32 33/1/33
f 27/1/27 33/1/33 34/1/34
f 32/1/32 38/1/38 35/1/35
f 33/1/33 35/1/35 36/1/36
f 37/1/37 39/1/39 38/1/38
f 39/1/39 44/1/44 40/1/40
f 35/1/35 38/1/38 40/1/40
f 35/1/35 41/1/41 42/1/42
f 41/1/41 46/1/46 43/1/43
f 44/1/44 47/1/47 45/1/45
f 40/1/40 45/1/45 46/1/46
f 47/1/47 51/1/51 48/1/48
f 45/1/45 48/1/48 49/1/49
f 46/1/46 49/1/49 50/1/50
f 51/1/51 55/1/55 52/1/52
f 48/1/48 52/1/52 53/1/53
f 49/1/49 53/1/53 54/1/54
f 55/1/55 59/1/59 56/1/56
f 52/1/52 56/1/56 57/1/57
f 53/1/53 57/1/57 58/1/58
f 59/1/59 63/1/63 60/1/60
f 57/1/57 56/1/56 60/1/60
f 58/1/58 57/1/57 61/1/61
f 63/1/63 67/1/67 64/1/64
f 60/1/60 64/1/64 65/1/65
f 62/1/62 61/1/61 65/1/65
f 67/1/67 71/1/71 68/1/68
f 64/1/64 68/1/68 69/1/69
f 66/1/66 65/1/65 69/1/69
f 71/1/71 75/1/75 72/1/72
f 68/1/68 72/1/72 73/1/73
f 69/1/69 73/1/73 74/1/74
f 75/1/75 81/1/81 76/1/76
f 72/1/72 76/1/76 77/1/77
f 73/1/73 77/1/77 78/1/78
f 76/1/76 82/1/82 79/1/79
f 78/1/78 77/1/77 79/1/79
f 81/1/81 83/1/83 82/1/82
f 83/1/83 88/1/88 84/1/84
f 82/1/82 84/1/84 85/1/85
f 80/1/80 79/1/79 85/1/85
f 85/1/85 90/1/90 87/1/87
f 88/1/88 91/1/91 89/1/89
f 84/1/84 89/1/89 90/1/90
f 91/1/91 97/1/97 92/1/92
f 90/1/90 89/1/89 92/1/92
f 87/1/87 90/1/90 93/1/93
f 94/1/94 93/1/93 95/1/95
f 97/1/97 99/1/99 98/1/98
f 92/1/92 98/1/98 95/1/95
f 99/1/99 103/1/103 100/1/100
f 98/1/98 100/1/100 101/1/101
f 96/1/96 95/1/95 101/1/101
f 103/1/103 107/1/107 104/1/104
f 100/1/100 104/1/104 105/1/105
f 102/1/102 101/1/101 105/1/105
f 107/1/107 111/1/111 108/1/108
f 104/1/104 108/1/108 109/1/109
f 106/1/106 105/1/105 109/1/109
f 111/1/111 313/1/313 112/1/112
f 108/1/108 112/1/112 113/1/113
f 110/1/110 109/1/109 113/1/113
f 112/1/112 313/1/313 115/1/115
f 112/1/112 116/1/116 117/1/117
f 113/1/113 117/1/117 118/1/118
f 115/1/115 317/1/317 119/1/119
f 116/1/116 119/1/119 120/1/120
f 117/1/117 120/1/120 121/1/121
f 119/1/119 125/1/125 122/1/122
f 120/1/120 122/1/122 123/1/123
f 119/1/119 317/1/317 124/1/124
f 124/1/124 320/1/320 1/1/1
f 125/1/125 1/1/1 4/1/4
f 122/1/122 4/1/4 6/1/6
f 126/1/126 167/1/167 127/1/127
f 129/1/129 184/1/184 130/1/130
f 132/1/132 178/1/178 133/1/133
f 135/1/135 180/1/180 136/1/136
f 138/1/138 174/1/174 139/1/139
f 141/1/141 177/1/177 142/1/142
f 144/1/144 187/1/187 145/1/145
f 147/1/147 179/1/179 148/1/148
f 150/1/150 185/1/185 151/1/151
f 153/1/153 181/1/181 154/1/154
f 156/1/156 188/1/188 157/1/157
f 159/1/159 128/1/128 127/1/127
f 161/1/161 189/1/189 162/1/162
f 164/1/164 182/1/182 165/1/165
f 129/1/129 131/1/131 167/1/167
f 168/1/168 183/1/183 169/1/169
f 171/1/171 186/1/186 172/1/172
f 141/1/141 143/1/143 174/1/174
f 134/1/134 133/1/133 175/1/175
f 177/1/177 149/1/149 148/1/148
f 132/1/132 135/1/135 137/1/137
f 147/1/147 155/1/155 154/1/154
f 180/1/180 140/1/140 139/1/139
f 161/1/161 163/1/163 181/1/181
f 170/1/170 169/1/169 165/1/165
f 171/1/171 173/1/173 183/1/183
f 146/1/146 145/1/145 130/1/130
f 158/1/158 157/1/157 185/1/185
f 176/1/176 175/1/175 172/1/172
f 152/1/152 151/1/151 187/1/187
f 164/1/164 166/1/166 188/1/188
f 159/1/159 160/1/160 162/1/162
f 121/1/121 191/1/191 190/1/190
f 191/1/191 193/1/193 192/1/192
f 193/1/193 195/1/195 194/1/194
f 195/1/195 159/1/159 189/1/189
f 34/1/34 36/1/36 196/1/196
f 196/1/196 199/1/199 198/1/198
f 199/1/199 201/1/201 200/1/200
f 201/1/201 164/1/164 156/1/156
f 18/1/18 22/1/22 202/1/202
f 203/1/203 202/1/202 204/1/204
f 205/1/205 204/1/204 206/1/206
f 207/1/207 206/1/206 152/1/152
f 62/1/62 209/1/209 208/1/208
f 209/1/209 211/1/211 210/1/210
f 211/1/211 213/1/213 212/1/212
f 213/1/213 176/1/176 186/1/186
f 26/1/26 28/1/28 214/1/214
f 214/1/214 281/1/281 216/1/216
f 216/1/216 281/1/281 217/1/217
f 217/1/217 158/1/158 150/1/150
f 10/1/10 14/1/14 219/1/219
f 219/1/219 283/1/283 221/1/221
f 221/1/221 283/1/283 222/1/222
f 222/1/222 146/1/146 184/1/184
f 54/1/54 225/1/225 224/1/224
f 225/1/225 227/1/227 226/1/226
f 227/1/227 229/1/229 228/1/228
f 229/1/229 171/1/171 168/1/168
f 42/1/42 43/1/43 230/1/230
f 231/1/231 230/1/230 232/1/232
f 233/1/233 232/1/232 234/1/234
f 234/1/234 170/1/170 182/1/182
f 114/1/114 237/1/237 236/1/236
f 237/1/237 239/1/239 238/1/238
f 239/1/239 241/1/241 240/1/240
f 241/1/241 161/1/161 153/1/153
f 78/1/78 80/1/80 242/1/242
f 243/1/243 242/1/242 244/1/244
f 245/1/245 244/1/244 246/1/246
f 247/1/247 246/1/246 140/1/140
f 102/1/102 106/1/106 248/1/248
f 249/1/249 248/1/248 250/1/250
f 251/1/251 250/1/250 252/1/252
f 253/1/253 252/1/252 155/1/155
f 74/1/74 255/1/255 254/1/254
f 255/1/255 284/1/284 256/1/256
f 256/1/256 284/1/284 257/1/257
f 258/1/258 257/1/257 135/1/135
f 96/1/96 282/1/282 259/1/259
f 259/1/259 282/1/282 260/1/260
f 261/1/261 260/1/260 262/1/262
f 262/1/262 149/1/149 177/1/177
f 66/1/66 285/1/285 209/1/209
f 209/1/209 285/1/285 264/1/264
f 211/1/211 264/1/264 265/1/265
f 265/1/265 134/1/134 176/1/176
f 86/1/86 87/1/87 266/1/266
f 266/1/266 269/1/269 268/1/268
f 269/1/269 271/1/271 270/1/270
f 271/1/271 141/1/141 138/1/138
f 54/1/54 58/1/58 208/1/208
f 208/1/208 210/1/210 227/1/227
f 210/1/210 212/1/212 229/1/229
f 212/1/212 186/1/186 171/1/171
f 43/1/43 50/1/50 224/1/224
f 230/1/230 224/1/224 226/1/226
f 226/1/226 228/1/228 234/1/234
f 228/1/228 168/1/168 170/1/170
f 7/1/7 273/1/273 272/1/272
f 273/1/273 275/1/275 274/1/274
f 275/1/275 277/1/277 276/1/276
f 277/1/277 129/1/129 126/1/126
f 42/1/42 231/1/231 196/1/196
f 196/1/196 231/1/231 233/1/233
f 233/1/233 235/1/235 201/1/201
f 201/1/201 235/1/235 182/1/182
f 114/1/114 118/1/118 190/1/190
f 237/1/237 190/1/190 192/1/192
f 239/1/239 192/1/192 194/1/194
f 241/1/241 194/1/194 189/1/189
f 121/1/121 123/1/123 278/1/278
f 191/1/191 278/1/278 279/1/279
f 193/1/193 279/1/279 280/1/280
f 280/1/280 128/1/128 159/1/159
f 28/1/28 34/1/34 197/1/197
f 214/1/214 197/1/197 198/1/198
f 281/1/281 198/1/198 200/1/200
f 217/1/217 200/1/200 156/1/156
f 110/1/110 236/1/236 248/1/248
f 236/1/236 238/1/238 250/1/250
f 238/1/238 240/1/240 252/1/252
f 240/1/240 153/1/153 155/1/155
f 26/1/26 215/1/215 202/1/202
f 215/1/215 216/1/216 204/1/204
f 216/1/216 218/1/218 206/1/206
f 206/1/206 218/1/218 150/1/150
f 96/1/96 102/1/102 249/1/249
f 249/1/249 251/1/251 260/1/260
f 251/1/251 253/1/253 262/1/262
f 253/1/253 147/1/147 149/1/149
f 18/1/18 203/1/203 219/1/219
f 203/1/203 205/1/205 283/1/283
f 205/1/205 207/1/207 222/1/222
f 207/1/207 144/1/144 146/1/146
f 94/1/94 259/1/259 266/1/266
f 259/1/259 261/1/261 269/1/269
f 261/1/261 263/1/263 271/1/271
f 263/1/263 177/1/177 141/1/141
f 86/1/86 267/1/267 242/1/242
f 267/1/267 268/1/268 244/1/244
f 268/1/268 270/1/270 246/1/246
f 270/1/270 138/1/138 140/1/140
f 78/1/78 243/1/243 255/1/255
f 243/1/243 245/1/245 284/1/284
f 245/1/245 247/1/247 257/1/257
f 247/1/247 180/1/180 135/1/135
f 66/1/66 70/1/70 254/1/254
f 254/1/254 256/1/256 264/1/264
f 256/1/256 258/1/258 265/1/265
f 258/1/258 132/1/132 134/1/134
f 10/1/10 220/1/220 273/1/273
f 273/1/273 220/1/220 221/1/221
f 275/1/275 221/1/221 223/1/223
f 277/1/277 223/1/223 184/1/184
f 123/1/123 6/1/6 272/1/272
f 278/1/278 272/1/272 274/1/274
f 279/1/279 274/1/274 276/1/276
f 276/1/276 126/1/126 128/1/128
f 11/1/11 2/1/2 286/1/286
f 15/1/15 11/1/11 287/1/287
f 19/1/19 15/1/15 288/1/288
f 19/1/19 289/1/289 290/1/290
f 23/1/23 290/1/290 291/1/291
f 29/1/29 291/1/291 292/1/292
f 31/1/31 292/1/292 293/1/293
f 39/1/39 37/1/37 293/1/293
f 44/1/44 39/1/39 294/1/294
f 47/1/47 44/1/44 295/1/295
f 51/1/51 47/1/47 296/1/296
f 51/1/51 297/1/297 298/1/298
f 55/1/55 298/1/298 299/1/299
f 59/1/59 299/1/299 300/1/300
f 63/1/63 300/1/300 301/1/301
f 71/1/71 67/1/67 301/1/301
f 75/1/75 71/1/71 302/1/302
f 81/1/81 75/1/75 303/1/303
f 83/1/83 81/1/81 304/1/304
f 83/1/83 305/1/305 306/1/306
f 88/1/88 306/1/306 307/1/307
f 91/1/91 307/1/307 308/1/308
f 97/1/97 308/1/308 309/1/309
f 103/1/103 99/1/99 309/1/309
f 107/1/107 103/1/103 310/1/310
f 111/1/111 107/1/107 311/1/311
f 313/1/313 111/1/111 312/1/312
f 313/1/313 314/1/314 315/1/315
f 115/1/115 315/1/315 316/1/316
f 317/1/317 316/1/316 318/1/318
f 124/1/124 318/1/318 319/1/319
f 2/1/2 320/1/320 319/1/319
f 130/1/130 323/1/323 321/1/321
f 130/1/130 145/1/145 322/1/322
f 145/1/145 187/1/187 324/1/324
f 151/1/151 325/1/325 324/1/324
f 185/1/185 326/1/326 325/1/325
f 157/1/157 328/1/328 326/1/326
f 157/1/157 188/1/188 327/1/327
f 166/1/166 329/1/329 327/1/327
f 165/1/165 331/1/331 329/1/329
f 165/1/165 169/1/169 330/1/330
f 169/1/169 183/1/183 332/1/332
f 173/1/173 333/1/333 332/1/332
f 172/1/172 334/1/334 333/1/333
f 175/1/175 336/1/336 334/1/334
f 175/1/175 133/1/133 335/1/335
f 178/1/178 337/1/337 335/1/335
f 137/1/137 339/1/339 337/1/337
f 137/1/137 136/1/136 338/1/338
f 136/1/136 139/1/139 340/1/340
f 174/1/174 341/1/341 340/1/340
f 143/1/143 342/1/342 341/1/341
f 142/1/142 344/1/344 342/1/342
f 142/1/142 148/1/148 343/1/343
f 179/1/179 345/1/345 343/1/343
f 154/1/154 347/1/347 345/1/345
f 154/1/154 181/1/181 346/1/346
f 181/1/181 163/1/163 348/1/348
f 162/1/162 349/1/349 348/1/348
f 160/1/160 351/1/351 349/1/349
f 160/1/160 127/1/127 350/1/350
f 167/1/167 352/1/352 350/1/350
f 131/1/131 321/1/321 352/1/352
f 353/1/353 319/1/354 354/1/355
f 355/1/356 353/1/353 354/1/355
f 356/1/357 357/1/358 355/1/356
f 358/1/359 286/1/360 353/1/353
f 359/1/361 353/1/353 357/1/358
f 360/1/362 357/1/358 361/1/363
f 358/1/359 288/1/364 287/1/365
f 362/1/366 358/1/359 359/1/361
f 360/1/362 362/1/366 359/1/361
f 363/1/367 289/1/368 288/1/364
f 362/1/366 364/1/369 363/1/367
f 365/1/370 366/1/371 362/1/366
f 367/1/372 289/1/368 364/1/369
f 368/1/373 364/1/369 366/1/371
f 369/1/374 366/1/371 370/1/375
f 371/1/376 290/1/377 367/1/372
f 368/1/373 371/1/376 367/1/372
f 372/1/378 368/1/373 369/1/374
f 373/1/379 374/1/380 371/1/376
f 372/1/378 375/1/381 373/1/379
f 371/1/376 292/1/382 291/1/383
f 374/1/380 293/1/384 292/1/382
f 375/1/381 376/1/385 374/1/380
f 377/1/386 375/1/381 378/1/387
f 379/1/388 376/1/385 380/1/389
f 377/1/386 379/1/388 380/1/389
f 381/1/390 293/1/384 376/1/385
f 382/1/391 294/1/392 381/1/390
f 383/1/393 381/1/390 379/1/388
f 384/1/394 379/1/388 385/1/395
f 384/1/394 386/1/396 383/1/393
f 382/1/391 296/1/397 295/1/398
f 386/1/396 382/1/391 383/1/393
f 387/1/399 297/1/400 296/1/397
f 386/1/396 388/1/401 387/1/399
f 389/1/402 390/1/403 386/1/396
f 391/1/404 297/1/400 388/1/401
f 392/1/405 388/1/401 390/1/403
f 393/1/406 390/1/403 394/1/407
f 395/1/408 298/1/409 391/1/404
f 392/1/405 395/1/408 391/1/404
f 396/1/410 392/1/405 393/1/406
f 395/1/408 300/1/411 299/1/412
f 397/1/413 398/1/414 395/1/408
f 396/1/410 399/1/415 397/1/413
f 398/1/414 301/1/416 300/1/411
f 399/1/415 400/1/417 398/1/414
f 401/1/418 399/1/415 402/1/419
f 403/1/420 301/1/416 400/1/417
f 404/1/421 400/1/417 405/1/422
f 401/1/418 404/1/421 405/1/422
f 406/1/423 302/1/424 403/1/420
f 407/1/425 403/1/420 404/1/421
f 408/1/426 404/1/421 409/1/427
f 406/1/423 304/1/428 303/1/429
f 410/1/430 406/1/423 407/1/425
f 408/1/426 410/1/430 407/1/425
f 410/1/430 411/1/431 412/1/432
f 413/1/433 414/1/434 410/1/430
f 412/1/432 305/1/435 304/1/428
f 415/1/436 305/1/435 411/1/431
f 416/1/437 411/1/431 414/1/434
f 417/1/438 414/1/434 418/1/439
f 419/1/440 416/1/437 417/1/438
f 420/1/441 306/1/442 415/1/436
f 416/1/437 420/1/441 415/1/436
f 420/1/441 308/1/443 307/1/444
f 421/1/445 422/1/446 420/1/441
f 419/1/440 423/1/447 421/1/445
f 424/1/448 423/1/447 425/1/449
f 422/1/446 309/1/450 308/1/443
f 423/1/447 426/1/451 422/1/446
f 427/1/452 309/1/450 426/1/451
f 428/1/453 426/1/451 429/1/454
f 424/1/448 428/1/453 429/1/454
f 430/1/455 310/1/456 427/1/452
f 431/1/457 427/1/452 428/1/453
f 432/1/458 428/1/453 433/1/459
f 430/1/455 312/1/460 311/1/461
f 434/1/462 430/1/455 431/1/457
f 432/1/458 434/1/462 431/1/457
f 435/1/463 314/1/464 312/1/460
f 434/1/462 436/1/465 435/1/463
f 437/1/466 438/1/467 434/1/462
f 439/1/468 314/1/464 436/1/465
f 440/1/469 436/1/465 438/1/467
f 441/1/470 438/1/467 442/1/471
f 443/1/472 315/1/473 439/1/468
f 440/1/469 443/1/472 439/1/468
f 444/1/474 440/1/469 441/1/470
f 445/1/475 446/1/476 443/1/472
f 444/1/474 447/1/477 445/1/475
f 443/1/472 318/1/478 316/1/479
f 446/1/476 319/1/354 318/1/478
f 447/1/477 354/1/355 446/1/476
f 356/1/357 447/1/477 448/1/480
f 449/1/481 352/1/482 450/1/483
f 451/1/484 323/1/485 452/1/486
f 335/1/487 453/1/488 454/1/489
f 455/1/490 338/1/491 456/1/492
f 340/1/493 457/1/494 458/1/495
f 342/1/496 459/1/497 460/1/498
f 461/1/499 324/1/500 462/1/501
f 343/1/502 463/1/503 464/1/504
f 325/1/505 465/1/506 466/1/507
f 467/1/508 346/1/509 468/1/510
f 469/1/511 327/1/512 470/1/513
f 351/1/514 449/1/481 471/1/515
f 348/1/516 472/1/517 473/1/518
f 474/1/519 331/1/520 475/1/521
f 352/1/482 451/1/484 450/1/483
f 476/1/522 332/1/523 477/1/524
f 478/1/525 334/1/526 479/1/527
f 341/1/528 460/1/498 457/1/494
f 480/1/529 335/1/487 454/1/489
f 459/1/497 343/1/502 464/1/504
f 453/1/488 339/1/530 455/1/490
f 463/1/503 347/1/531 467/1/508
f 456/1/492 340/1/493 458/1/495
f 468/1/510 348/1/516 473/1/518
f 331/1/520 476/1/522 475/1/521
f 332/1/523 478/1/525 477/1/524
f 323/1/485 461/1/499 452/1/486
f 326/1/532 469/1/511 465/1/506
f 334/1/526 480/1/529 479/1/527
f 324/1/500 466/1/507 462/1/501
f 327/1/512 474/1/519 470/1/513
f 349/1/533 471/1/515 472/1/517
f 441/1/470 481/1/534 444/1/474
f 482/1/535 483/1/536 481/1/534
f 484/1/537 483/1/536 485/1/538
f 472/1/517 486/1/539 484/1/537
f 487/1/540 385/1/395 377/1/386
f 488/1/541 489/1/542 487/1/540
f 490/1/543 491/1/544 488/1/541
f 470/1/513 492/1/545 490/1/543
f 493/1/546 369/1/374 370/1/375
f 494/1/547 495/1/548 493/1/546
f 496/1/549 497/1/550 494/1/547
f 462/1/501 498/1/551 496/1/549
f 499/1/552 402/1/419 396/1/410
f 500/1/553 501/1/554 499/1/552
f 502/1/555 503/1/556 500/1/553
f 502/1/555 480/1/529 504/1/557
f 505/1/558 378/1/387 372/1/378
f 506/1/559 507/1/560 505/1/558
f 508/1/561 509/1/562 506/1/559
f 508/1/561 469/1/511 510/1/563
f 511/1/564 365/1/370 360/1/362
f 512/1/565 513/1/566 511/1/564
f 512/1/565 514/1/567 515/1/568
f 452/1/486 514/1/567 516/1/569
f 517/1/570 393/1/406 394/1/407
f 518/1/571 519/1/572 517/1/570
f 520/1/573 521/1/574 518/1/571
f 477/1/524 522/1/575 520/1/573
f 523/1/576 389/1/402 384/1/394
f 524/1/577 525/1/578 523/1/576
f 524/1/577 526/1/579 527/1/580
f 475/1/521 526/1/579 528/1/581
f 437/1/466 529/1/582 442/1/471
f 530/1/583 531/1/584 529/1/582
f 532/1/585 533/1/586 531/1/584
f 534/1/587 473/1/518 533/1/586
f 413/1/433 535/1/588 418/1/439
f 536/1/589 537/1/590 535/1/588
f 538/1/591 539/1/592 537/1/590
f 540/1/593 458/1/495 539/1/592
f 433/1/459 541/1/594 432/1/458
f 542/1/595 543/1/596 541/1/594
f 544/1/597 545/1/598 543/1/596
f 546/1/599 467/1/508 545/1/598
f 409/1/427 547/1/600 408/1/426
f 548/1/601 549/1/602 547/1/600
f 550/1/603 549/1/602 551/1/604
f 453/1/488 552/1/605 550/1/603
f 425/1/449 553/1/606 424/1/448
f 554/1/607 555/1/608 553/1/606
f 556/1/609 557/1/610 555/1/608
f 558/1/611 464/1/504 557/1/610
f 402/1/419 559/1/612 401/1/418
f 501/1/554 560/1/613 559/1/612
f 504/1/557 560/1/613 503/1/556
f 504/1/557 454/1/489 561/1/614
f 417/1/438 562/1/615 419/1/440
f 563/1/616 564/1/617 562/1/615
f 565/1/618 564/1/617 566/1/619
f 457/1/494 567/1/620 565/1/618
f 393/1/406 499/1/552 396/1/410
f 519/1/572 500/1/553 499/1/552
f 522/1/575 500/1/553 521/1/574
f 522/1/575 479/1/527 502/1/555
f 389/1/402 517/1/570 394/1/407
f 525/1/578 518/1/571 517/1/570
f 527/1/580 520/1/573 518/1/571
f 526/1/579 477/1/524 520/1/573
f 568/1/621 361/1/363 356/1/357
f 569/1/622 570/1/623 568/1/621
f 571/1/624 572/1/625 569/1/622
f 450/1/483 573/1/626 571/1/624
f 385/1/395 523/1/576 384/1/394
f 489/1/542 524/1/577 523/1/576
f 491/1/544 528/1/581 524/1/577
f 474/1/519 528/1/581 492/1/545
f 529/1/582 441/1/470 442/1/471
f 531/1/584 482/1/535 529/1/582
f 533/1/586 485/1/538 531/1/584
f 473/1/518 484/1/537 533/1/586
f 481/1/534 448/1/480 444/1/474
f 481/1/534 574/1/627 575/1/628
f 486/1/539 574/1/627 483/1/536
f 486/1/539 449/1/481 576/1/629
f 378/1/387 487/1/540 377/1/386
f 507/1/560 488/1/541 487/1/540
f 509/1/562 490/1/543 488/1/541
f 510/1/563 470/1/513 490/1/543
f 541/1/594 437/1/466 432/1/458
f 543/1/596 530/1/583 541/1/594
f 543/1/596 534/1/587 532/1/585
f 467/1/508 534/1/587 545/1/598
f 369/1/374 505/1/558 372/1/378
f 495/1/548 506/1/559 505/1/558
f 498/1/551 506/1/559 497/1/550
f 466/1/507 508/1/561 498/1/551
f 553/1/606 433/1/459 424/1/448
f 555/1/608 542/1/595 553/1/606
f 557/1/610 544/1/597 555/1/608
f 464/1/504 546/1/599 557/1/610
f 365/1/370 493/1/546 370/1/375
f 513/1/566 494/1/547 493/1/546
f 515/1/568 496/1/549 494/1/547
f 514/1/567 462/1/501 496/1/549
f 562/1/615 425/1/449 419/1/440
f 564/1/617 554/1/607 562/1/615
f 567/1/620 556/1/609 564/1/617
f 460/1/498 558/1/611 567/1/620
f 535/1/588 417/1/438 418/1/439
f 537/1/590 563/1/616 535/1/588
f 539/1/592 566/1/619 537/1/590
f 458/1/495 565/1/618 539/1/592
f 547/1/600 413/1/433 408/1/426
f 549/1/602 536/1/589 547/1/600
f 549/1/602 540/1/593 538/1/591
f 455/1/490 540/1/593 552/1/605
f 559/1/612 409/1/427 401/1/418
f 560/1/613 548/1/601 559/1/612
f 560/1/613 550/1/603 551/1/604
f 454/1/489 550/1/603 561/1/614
f 361/1/363 511/1/564 360/1/362
f 570/1/623 512/1/565 511/1/564
f 572/1/625 516/1/569 512/1/565
f 573/1/626 452/1/486 516/1/569
f 448/1/480 568/1/621 356/1/357
f 575/1/628 569/1/622 568/1/621
f 576/1/629 569/1/622 574/1/627
f 576/1/629 450/1/483 571/1/624
f 353/1/353 286/1/360 319/1/354
f 355/1/356 357/1/358 353/1/353
f 356/1/357 361/1/363 357/1/358
f 358/1/359 287/1/365 286/1/360
f 359/1/361 358/1/359 353/1/353
f 360/1/362 359/1/361 357/1/358
f 358/1/359 363/1/367 288/1/364
f 362/1/366 363/1/367 358/1/359
f 360/1/362 365/1/370 362/1/366
f 363/1/367 364/1/369 289/1/368
f 362/1/366 366/1/371 364/1/369
f 365/1/370 370/1/375 366/1/371
f 367/1/372 290/1/377 289/1/368
f 368/1/373 367/1/372 364/1/369
f 369/1/374 368/1/373 366/1/371
f 371/1/376 291/1/383 290/1/377
f 368/1/373 373/1/379 371/1/376
f 372/1/378 373/1/379 368/1/373
f 373/1/379 375/1/381 374/1/380
f 372/1/378 378/1/387 375/1/381
f 371/1/376 374/1/380 292/1/382
f 374/1/380 376/1/385 293/1/384
f 375/1/381 380/1/389 376/1/385
f 377/1/386 380/1/389 375/1/381
f 379/1/388 381/1/390 376/1/385
f 377/1/386 385/1/395 379/1/388
f 381/1/390 294/1/392 293/1/384
f 382/1/391 295/1/398 294/1/392
f 383/1/393 382/1/391 381/1/390
f 384/1/394 383/1/393 379/1/388
f 384/1/394 389/1/402 386/1/396
f 382/1/391 387/1/399 296/1/397
f 386/1/396 387/1/399 382/1/391
f 387/1/399 388/1/401 297/1/400
f 386/1/396 390/1/403 388/1/401
f 389/1/402 394/1/407 390/1/403
f 391/1/404 298/1/409 297/1/400
f 392/1/405 391/1/404 388/1/401
f 393/1/406 392/1/405 390/1/403
f 395/1/408 299/1/412 298/1/409
f 392/1/405 397/1/413 395/1/408
f 396/1/410 397/1/413 392/1/405
f 395/1/408 398/1/414 300/1/411
f 397/1/413 399/1/415 398/1/414
f 396/1/410 402/1/419 399/1/415
f 398/1/414 400/1/417 301/1/416
f 399/1/415 405/1/422 400/1/417
f 401/1/418 405/1/422 399/1/415
f 403/1/420 302/1/424 301/1/416
f 404/1/421 403/1/420 400/1/417
f 401/1/418 409/1/427 404/1/421
f 406/1/423 303/1/429 302/1/424
f 407/1/425 406/1/423 403/1/420
f 408/1/426 407/1/425 404/1/421
f 406/1/423 412/1/432 304/1/428
f 410/1/430 412/1/432 406/1/423
f 408/1/426 413/1/433 410/1/430
f 410/1/430 414/1/434 411/1/431
f 413/1/433 418/1/439 414/1/434
f 412/1/432 411/1/431 305/1/435
f 415/1/436 306/1/442 305/1/435
f 416/1/437 415/1/436 411/1/431
f 417/1/438 416/1/437 414/1/434
f 419/1/440 421/1/445 416/1/437
f 420/1/441 307/1/444 306/1/442
f 416/1/437 421/1/445 420/1/441
f 420/1/441 422/1/446 308/1/443
f 421/1/445 423/1/447 422/1/446
f 419/1/440 425/1/449 423/1/447
f 424/1/448 429/1/454 423/1/447
f 422/1/446 426/1/451 309/1/450
f 423/1/447 429/1/454 426/1/451
f 427/1/452 310/1/456 309/1/450
f 428/1/453 427/1/452 426/1/451
f 424/1/448 433/1/459 428/1/453
f 430/1/455 311/1/461 310/1/456
f 431/1/457 430/1/455 427/1/452
f 432/1/458 431/1/457 428/1/453
f 430/1/455 435/1/463 312/1/460
f 434/1/462 435/1/463 430/1/455
f 432/1/458 437/1/466 434/1/462
f 435/1/463 436/1/465 314/1/464
f 434/1/462 438/1/467 436/1/465
f 437/1/466 442/1/471 438/1/467
f 439/1/468 315/1/473 314/1/464
f 440/1/469 439/1/468 436/1/465
f 441/1/470 440/1/469 438/1/467
f 443/1/472 316/1/479 315/1/473
f 440/1/469 445/1/475 443/1/472
f 444/1/474 445/1/475 440/1/469
f 445/1/475 447/1/477 446/1/476
f 444/1/474 448/1/480 447/1/477
f 443/1/472 446/1/476 318/1/478
f 446/1/476 354/1/355 319/1/354
f 447/1/477 355/1/356 354/1/355
f 356/1/357 355/1/356 447/1/477
f 449/1/481 350/1/630 352/1/482
f 451/1/484 321/1/631 323/1/485
f 335/1/487 337/1/632 453/1/488
f 455/1/490 339/1/530 338/1/491
f 340/1/493 341/1/528 457/1/494
f 342/1/496 344/1/633 459/1/497
f 461/1/499 322/1/634 324/1/500
f 343/1/502 345/1/635 463/1/503
f 325/1/505 326/1/532 465/1/506
f 467/1/508 347/1/531 346/1/509
f 469/1/511 328/1/636 327/1/512
f 351/1/514 350/1/630 449/1/481
f 348/1/516 349/1/533 472/1/517
f 474/1/519 329/1/637 331/1/520
f 352/1/482 321/1/631 451/1/484
f 476/1/522 330/1/638 332/1/523
f 478/1/525 333/1/639 334/1/526
f 341/1/528 342/1/496 460/1/498
f 480/1/529 336/1/640 335/1/487
f 459/1/497 344/1/633 343/1/502
f 453/1/488 337/1/632 339/1/530
f 463/1/503 345/1/635 347/1/531
f 456/1/492 338/1/491 340/1/493
f 468/1/510 346/1/509 348/1/516
f 331/1/520 330/1/638 476/1/522
f 332/1/523 333/1/639 478/1/525
f 323/1/485 322/1/634 461/1/499
f 326/1/532 328/1/636 469/1/511
f 334/1/526 336/1/640 480/1/529
f 324/1/500 325/1/505 466/1/507
f 327/1/512 329/1/637 474/1/519
f 349/1/533 351/1/514 471/1/515
f 441/1/470 482/1/535 481/1/534
f 482/1/535 485/1/538 483/1/536
f 484/1/537 486/1/539 483/1/536
f 472/1/517 471/1/515 486/1/539
f 487/1/540 489/1/542 385/1/395
f 488/1/541 491/1/544 489/1/542
f 490/1/543 492/1/545 491/1/544
f 470/1/513 474/1/519 492/1/545
f 493/1/546 495/1/548 369/1/374
f 494/1/547 497/1/550 495/1/548
f 496/1/549 498/1/551 497/1/550
f 462/1/501 466/1/507 498/1/551
f 499/1/552 501/1/554 402/1/419
f 500/1/553 503/1/556 501/1/554
f 502/1/555 504/1/557 503/1/556
f 502/1/555 479/1/527 480/1/529
f 505/1/558 507/1/560 378/1/387
f 506/1/559 509/1/562 507/1/560
f 508/1/561 510/1/563 509/1/562
f 508/1/561 465/1/506 469/1/511
f 511/1/564 513/1/566 365/1/370
f 512/1/565 515/1/568 513/1/566
f 512/1/565 516/1/569 514/1/567
f 452/1/486 461/1/499 514/1/567
f 517/1/570 519/1/572 393/1/406
f 518/1/571 521/1/574 519/1/572
f 520/1/573 522/1/575 521/1/574
f 477/1/524 478/1/525 522/1/575
f 523/1/576 525/1/578 389/1/402
f 524/1/577 527/1/580 525/1/578
f 524/1/577 528/1/581 526/1/579
f 475/1/521 476/1/522 526/1/579
f 437/1/466 530/1/583 529/1/582
f 530/1/583 532/1/585 531/1/584
f 532/1/585 534/1/587 533/1/586
f 534/1/587 468/1/510 473/1/518
f 413/1/433 536/1/589 535/1/588
f 536/1/589 538/1/591 537/1/590
f 538/1/591 540/1/593 539/1/592
f 540/1/593 456/1/492 458/1/495
f 433/1/459 542/1/595 541/1/594
f 542/1/595 544/1/597 543/1/596
f 544/1/597 546/1/599 545/1/598
f 546/1/599 463/1/503 467/1/508
f 409/1/427 548/1/601 547/1/600
f 548/1/601 551/1/604 549/1/602
f 550/1/603 552/1/605 549/1/602
f 453/1/488 455/1/490 552/1/605
f 425/1/449 554/1/607 553/1/606
f 554/1/607 556/1/609 555/1/608
f 556/1/609 558/1/611 557/1/610
f 558/1/611 459/1/497 464/1/504
f 402/1/419 501/1/554 559/1/612
f 501/1/554 503/1/556 560/1/613
f 504/1/557 561/1/614 560/1/613
f 504/1/557 480/1/529 454/1/489
f 417/1/438 563/1/616 562/1/615
f 563/1/616 566/1/619 564/1/617
f 565/1/618 567/1/620 564/1/617
f 457/1/494 460/1/498 567/1/620
f 393/1/406 519/1/572 499/1/552
f 519/1/572 521/1/574 500/1/553
f 522/1/575 502/1/555 500/1/553
f 522/1/575 478/1/525 479/1/527
f 389/1/402 525/1/578 517/1/570
f 525/1/578 527/1/580 518/1/571
f 527/1/580 526/1/579 520/1/573
f 526/1/579 476/1/522 477/1/524
f 568/1/621 570/1/623 361/1/363
f 569/1/622 572/1/625 570/1/623
f 571/1/624 573/1/626 572/1/625
f 450/1/483 451/1/484 573/1/626
f 385/1/395 489/1/542 523/1/576
f 489/1/542 491/1/544 524/1/577
f 491/1/544 492/1/545 528/1/581
f 474/1/519 475/1/521 528/1/581
f 529/1/582 482/1/535 441/1/470
f 531/1/584 485/1/538 482/1/535
f 533/1/586 484/1/537 485/1/538
f 473/1/518 472/1/517 484/1/537
f 481/1/534 575/1/628 448/1/480
f 481/1/534 483/1/536 574/1/627
f 486/1/539 576/1/629 574/1/627
f 486/1/539 471/1/515 449/1/481
f 378/1/387 507/1/560 487/1/540
f 507/1/560 509/1/562 488/1/541
f 509/1/562 510/1/563 490/1/543
f 510/1/563 469/1/511 470/1/513
f 541/1/594 530/1/583 437/1/466
f 543/1/596 532/1/585 530/1/583
f 543/1/596 545/1/598 534/1/587
f 467/1/508 468/1/510 534/1/587
f 369/1/374 495/1/548 505/1/558
f 495/1/548 497/1/550 506/1/559
f 498/1/551 508/1/561 506/1/559
f 466/1/507 465/1/506 508/1/561
f 553/1/606 542/1/595 433/1/459
f 555/1/608 544/1/597 542/1/595
f 557/1/610 546/1/599 544/1/597
f 464/1/504 463/1/503 546/1/599
f 365/1/370 513/1/566 493/1/546
f 513/1/566 515/1/568 494/1/547
f 515/1/568 514/1/567 496/1/549
f 514/1/567 461/1/499 462/1/501
f 562/1/615 554/1/607 425/1/449
f 564/1/617 556/1/609 554/1/607
f 567/1/620 558/1/611 556/1/609
f 460/1/498 459/1/497 558/1/611
f 535/1/588 563/1/616 417/1/438
f 537/1/590 566/1/619 563/1/616
f 539/1/592 565/1/618 566/1/619
f 458/1/495 457/1/494 565/1/618
f 547/1/600 536/1/589 413/1/433
f 549/1/602 538/1/591 536/1/589
f 549/1/602 552/1/605 540/1/593
f 455/1/490 456/1/492 540/1/593
f 559/1/612 548/1/601 409/1/427
f 560/1/613 551/1/604 548/1/601
f 560/1/613 561/1/614 550/1/603
f 454/1/489 453/1/488 550/1/603
f 361/1/363 570/1/623 511/1/564
f 570/1/623 572/1/625 512/1/565
f 572/1/625 573/1/626 516/1/569
f 573/1/626 451/1/484 452/1/486
f 448/1/480 575/1/628 568/1/621
f 575/1/628 574/1/627 569/1/622
f 576/1/629 571/1/624 569/1/622
f 576/1/629 449/1/481 450/1/483
