# Generated by tools/make-block-meshes.py -- edit that, not this.
# Drum by jeremy, CC-BY 3.0, from https://poly.pizza/m/5Wp2emwd7xw
v 0.00000 -0.69145 0.46368
v -0.48893 -0.48893 0.46368
v -0.46477 -0.46477 -0.51038
v 0.00000 -0.65728 -0.51038
v -0.65728 -0.00000 -0.51038
v -0.48893 0.48893 0.46368
v -0.46477 0.46477 -0.51038
v -0.69145 -0.00000 0.46368
v 0.48893 0.48893 0.46368
v 0.69145 -0.00000 0.46368
v 0.65728 -0.00000 -0.51038
v 0.46477 0.46477 -0.51038
v 0.48893 -0.48893 0.46368
v 0.46477 -0.46477 -0.51038
v 0.00000 0.69145 0.46368
v 0.00000 0.65728 -0.51038
v 0.00000 0.71121 0.38807
v 0.49728 0.49728 0.47467
v 0.50290 0.50290 0.38807
v 0.00000 0.70325 0.47467
v 0.70325 -0.00000 0.47467
v 0.49728 -0.49728 0.47467
v 0.50290 -0.50290 0.38807
v 0.71121 -0.00000 0.38807
v 0.00000 -0.70325 0.47467
v -0.49728 -0.49728 0.47467
v -0.50290 -0.50290 0.38807
v 0.00000 -0.71121 0.38807
v -0.71121 -0.00000 0.38807
v -0.49728 0.49728 0.47467
v -0.50290 0.50290 0.38807
v -0.70325 -0.00000 0.47467
v 0.00000 -0.00000 0.47467
v 0.51145 0.51145 0.37720
v 0.72329 -0.00000 0.37720
v 0.51145 -0.51145 0.37720
v 0.00000 -0.72329 0.37720
v -0.51145 -0.51145 0.37720
v -0.72329 -0.00000 0.37720
v -0.51145 0.51145 0.37720
v 0.00000 0.72329 0.37720
v 0.53482 -0.00000 -0.51038
v 0.37818 0.37818 -0.51038
v 0.00000 -0.53482 -0.51038
v 0.37818 -0.37818 -0.51038
v -0.53482 -0.00000 -0.51038
v -0.37818 -0.37818 -0.51038
v 0.00000 0.53482 -0.51038
v -0.37818 0.37818 -0.51038
v -0.52114 -0.00000 0.27273
v -0.36850 -0.36850 0.27273
v 0.00000 0.52114 0.27273
v -0.36850 0.36850 0.27273
v 0.36850 0.36850 0.27273
v 0.52114 -0.00000 0.27273
v 0.36850 -0.36850 0.27273
v 0.00000 -0.52114 0.27273
v 0.00000 -0.00000 0.27273
v -0.55929 -0.49785 0.42989
v -0.58401 -0.54076 0.46095
v -0.55019 -0.50695 0.46095
v -0.59311 -0.53167 0.42989
v -0.54009 -0.58468 0.46095
v -0.53099 -0.59378 0.42989
v -0.49718 -0.55996 0.42989
v -0.50627 -0.55087 0.46095
v -0.54009 -0.58468 0.39883
v -0.56205 -0.56272 0.38597
v -0.52823 -0.52891 0.38597
v -0.50627 -0.55087 0.39883
v -0.55019 -0.50695 0.39883
v -0.58401 -0.54076 0.39883
v -0.56205 -0.56272 0.47381
v -0.52823 -0.52891 0.47381
v -0.56205 -0.56272 0.42989
v -0.52458 -0.47671 -0.43954
v -0.54488 -0.51193 -0.41404
v -0.51712 -0.48418 -0.41404
v -0.55234 -0.50447 -0.43954
v -0.50882 -0.54799 -0.41404
v -0.50136 -0.55545 -0.43954
v -0.47360 -0.52769 -0.43954
v -0.48107 -0.52023 -0.41404
v -0.50882 -0.54799 -0.46503
v -0.52685 -0.52996 -0.47559
v -0.49909 -0.50220 -0.47559
v -0.48107 -0.52023 -0.46503
v -0.51712 -0.48418 -0.46503
v -0.54488 -0.51193 -0.46503
v -0.52685 -0.52996 -0.40348
v -0.49909 -0.50220 -0.40348
v -0.52685 -0.52996 -0.43954
v 0.58401 -0.54076 0.46095
v 0.55929 -0.49785 0.42989
v 0.55019 -0.50695 0.46095
v 0.59311 -0.53167 0.42989
v 0.54009 -0.58468 0.46095
v 0.50627 -0.55087 0.46095
v 0.49718 -0.55996 0.42989
v 0.53099 -0.59378 0.42989
v 0.54009 -0.58468 0.39883
v 0.50627 -0.55087 0.39883
v 0.52823 -0.52891 0.38597
v 0.56205 -0.56272 0.38597
v 0.55019 -0.50695 0.39883
v 0.58401 -0.54076 0.39883
v 0.56205 -0.56272 0.47381
v 0.52823 -0.52891 0.47381
v 0.56205 -0.56272 0.42989
v 0.55234 -0.50447 -0.43954
v 0.52458 -0.47671 -0.43954
v 0.51712 -0.48418 -0.41404
v 0.54488 -0.51193 -0.41404
v 0.50136 -0.55545 -0.43954
v 0.48107 -0.52023 -0.41404
v 0.47360 -0.52769 -0.43954
v 0.50882 -0.54799 -0.41404
v 0.50882 -0.54799 -0.46503
v 0.48107 -0.52023 -0.46503
v 0.49909 -0.50220 -0.47559
v 0.52685 -0.52996 -0.47559
v 0.54488 -0.51193 -0.46503
v 0.51712 -0.48418 -0.46503
v 0.52685 -0.52996 -0.40348
v 0.49909 -0.50220 -0.40348
v 0.52685 -0.52996 -0.43954
v -0.59311 0.53167 0.42989
v -0.55929 0.49785 0.42989
v -0.55019 0.50695 0.46095
v -0.58401 0.54076 0.46095
v -0.53099 0.59378 0.42989
v -0.50627 0.55087 0.46095
v -0.49718 0.55996 0.42989
v -0.54009 0.58468 0.46095
v -0.54009 0.58468 0.39883
v -0.50627 0.55087 0.39883
v -0.52823 0.52891 0.38597
v -0.56205 0.56272 0.38597
v -0.58401 0.54076 0.39883
v -0.55019 0.50695 0.39883
v -0.56205 0.56272 0.47381
v -0.52823 0.52891 0.47381
v -0.56205 0.56272 0.42989
v -0.54488 0.51193 -0.41404
v -0.52458 0.47671 -0.43954
v -0.51712 0.48418 -0.41404
v -0.55234 0.50447 -0.43954
v -0.50882 0.54799 -0.41404
v -0.48107 0.52023 -0.41404
v -0.47360 0.52769 -0.43954
v -0.50136 0.55545 -0.43954
v -0.50882 0.54799 -0.46503
v -0.48107 0.52023 -0.46503
v -0.49909 0.50220 -0.47559
v -0.52685 0.52996 -0.47559
v -0.51712 0.48418 -0.46503
v -0.54488 0.51193 -0.46503
v -0.52685 0.52996 -0.40348
v -0.49909 0.50220 -0.40348
v -0.52685 0.52996 -0.43954
v 0.59311 0.53167 0.42989
v 0.58401 0.54076 0.46095
v 0.55019 0.50695 0.46095
v 0.55929 0.49785 0.42989
v 0.50627 0.55087 0.46095
v 0.53099 0.59378 0.42989
v 0.49718 0.55996 0.42989
v 0.54009 0.58468 0.46095
v 0.54009 0.58468 0.39883
v 0.56205 0.56272 0.38597
v 0.52823 0.52891 0.38597
v 0.50627 0.55087 0.39883
v 0.58401 0.54076 0.39883
v 0.55019 0.50695 0.39883
v 0.56205 0.56272 0.47381
v 0.52823 0.52891 0.47381
v 0.56205 0.56272 0.42989
v 0.55234 0.50447 -0.43954
v 0.54488 0.51193 -0.41404
v 0.51712 0.48418 -0.41404
v 0.52458 0.47671 -0.43954
v 0.48107 0.52023 -0.41404
v 0.50136 0.55545 -0.43954
v 0.47360 0.52769 -0.43954
v 0.50882 0.54799 -0.41404
v 0.50882 0.54799 -0.46503
v 0.52685 0.52996 -0.47559
v 0.49909 0.50220 -0.47559
v 0.48107 0.52023 -0.46503
v 0.54488 0.51193 -0.46503
v 0.51712 0.48418 -0.46503
v 0.52685 0.52996 -0.40348
v 0.49909 0.50220 -0.40348
v 0.52685 0.52996 -0.43954
v -0.47887 0.50448 0.38578
v -0.45393 0.47963 -0.46411
v -0.45393 0.51467 -0.46411
v -0.47887 0.53953 0.38578
v -0.51392 0.50448 0.38578
v -0.48898 0.47963 -0.46411
v -0.48898 0.51467 -0.46411
v -0.51392 0.53953 0.38578
v 0.45393 0.47963 -0.46411
v 0.47887 0.53953 0.38578
v 0.45393 0.51467 -0.46411
v 0.47887 0.50448 0.38578
v 0.51392 0.50448 0.38578
v 0.48898 0.47963 -0.46411
v 0.51392 0.53953 0.38578
v 0.48898 0.51467 -0.46411
v -0.47887 -0.50448 0.38578
v -0.47887 -0.53953 0.38578
v -0.45393 -0.51467 -0.46411
v -0.45393 -0.47963 -0.46411
v -0.48898 -0.47963 -0.46411
v -0.51392 -0.50448 0.38578
v -0.48898 -0.51467 -0.46411
v -0.51392 -0.53953 0.38578
v 0.47887 -0.53953 0.38578
v 0.45393 -0.47963 -0.46411
v 0.45393 -0.51467 -0.46411
v 0.47887 -0.50448 0.38578
v 0.48898 -0.47963 -0.46411
v 0.51392 -0.50448 0.38578
v 0.51392 -0.53953 0.38578
v 0.48898 -0.51467 -0.46411
v 0.00000 0.70323 0.49874
v 0.00000 0.70323 0.36852
v 0.49726 0.49726 0.36852
v 0.49726 0.49726 0.49874
v -0.49726 -0.49726 0.49874
v 0.00000 -0.70323 0.36852
v -0.49726 -0.49726 0.36852
v 0.00000 -0.70323 0.49874
v 0.70323 -0.00000 0.49874
v 0.70323 -0.00000 0.36852
v -0.49726 0.49726 0.49874
v -0.49726 0.49726 0.36852
v -0.70323 -0.00000 0.36852
v -0.70323 -0.00000 0.49874
v 0.49726 -0.49726 0.49874
v 0.49726 -0.49726 0.36852
v -0.56569 -0.56569 0.35944
v -0.77668 -0.00000 0.38207
v -0.80000 -0.00000 0.35944
v -0.54919 -0.54919 0.38207
v -0.56569 0.56569 0.49874
v -0.77668 -0.00000 0.47611
v -0.80000 -0.00000 0.49874
v -0.54919 0.54919 0.47611
v -0.54919 0.54919 0.38207
v -0.56569 0.56569 0.35944
v 0.00000 0.80000 0.49874
v 0.00000 0.77668 0.47611
v 0.56569 0.56569 0.49874
v 0.54919 0.54919 0.47611
v 0.00000 0.77668 0.38207
v 0.00000 0.80000 0.35944
v 0.54919 0.54919 0.38207
v 0.56569 0.56569 0.35944
v 0.77668 -0.00000 0.47611
v 0.80000 -0.00000 0.49874
v 0.54021 -0.54021 0.49874
v 0.76398 -0.00000 0.49874
v 0.53147 0.53147 0.36398
v 0.75161 -0.00000 0.36398
v 0.54021 0.54021 0.49874
v 0.00000 0.75161 0.36398
v -0.53147 0.53147 0.36398
v 0.00000 0.76398 0.49874
v -0.54021 0.54021 0.49874
v -0.75161 -0.00000 0.36398
v -0.76398 -0.00000 0.49874
v -0.53147 -0.53147 0.36398
v -0.54021 -0.54021 0.49874
v 0.00000 -0.75161 0.36398
v 0.00000 -0.76398 0.49874
v 0.53147 -0.53147 0.36398
v -0.56569 0.56569 0.52122
v -0.80000 -0.00000 0.52122
v 0.54021 0.54021 0.52122
v 0.00000 0.76398 0.52122
v 0.00000 0.80000 0.52122
v 0.56569 0.56569 0.52122
v -0.54021 0.54021 0.52122
v 0.80000 -0.00000 0.52122
v -0.76398 -0.00000 0.52122
v 0.56569 -0.56569 0.52122
v 0.56569 -0.56569 0.49874
v 0.54021 -0.54021 0.52122
v 0.00000 -0.80000 0.52122
v 0.00000 -0.76398 0.52122
v -0.56569 -0.56569 0.52122
v -0.54021 -0.54021 0.52122
v 0.76398 -0.00000 0.52122
v -0.56569 -0.56569 0.49874
v 0.00000 -0.80000 0.49874
v -0.80000 -0.00000 0.34307
v -0.56569 0.56569 0.34307
v 0.00000 -0.75161 0.34761
v 0.53147 -0.53147 0.34761
v 0.00000 0.80000 0.34307
v 0.75161 -0.00000 0.34761
v 0.56569 0.56569 0.34307
v 0.53147 0.53147 0.34761
v 0.80000 -0.00000 0.34307
v 0.80000 -0.00000 0.35944
v 0.00000 0.75161 0.34761
v 0.56569 -0.56569 0.34307
v 0.00000 -0.80000 0.34307
v -0.56569 -0.56569 0.34307
v -0.53147 -0.53147 0.34761
v -0.75161 -0.00000 0.34761
v -0.53147 0.53147 0.34761
v 0.00000 -0.80000 0.35944
v 0.56569 -0.56569 0.35944
v 0.54919 -0.54919 0.47611
v 0.54919 -0.54919 0.38207
v 0.77668 -0.00000 0.38207
v 0.00000 -0.77668 0.47611
v -0.54919 -0.54919 0.47611
v 0.00000 -0.77668 0.38207
v 0.00000 0.65854 -0.37545
v 0.00000 0.65854 -0.49739
v 0.46566 0.46566 -0.49739
v 0.46566 0.46566 -0.37545
v -0.46566 -0.46566 -0.37545
v 0.00000 -0.65854 -0.49739
v -0.46566 -0.46566 -0.49739
v 0.00000 -0.65854 -0.37545
v 0.65854 -0.00000 -0.37545
v 0.65854 -0.00000 -0.49739
v -0.46566 0.46566 -0.37545
v -0.46566 0.46566 -0.49739
v -0.65854 -0.00000 -0.49739
v -0.65854 -0.00000 -0.37545
v 0.46566 -0.46566 -0.37545
v 0.46566 -0.46566 -0.49739
v -0.52974 -0.52974 -0.50589
v -0.72733 -0.00000 -0.48470
v -0.74917 -0.00000 -0.50589
v -0.51430 -0.51430 -0.48470
v -0.52974 0.52974 -0.37545
v -0.72733 -0.00000 -0.39663
v -0.74917 -0.00000 -0.37545
v -0.51430 0.51430 -0.39663
v -0.51430 0.51430 -0.48470
v -0.52974 0.52974 -0.50589
v 0.00000 0.74917 -0.37545
v 0.00000 0.72733 -0.39663
v 0.52974 0.52974 -0.37545
v 0.51430 0.51430 -0.39663
v 0.00000 0.72733 -0.48470
v 0.00000 0.74917 -0.50589
v 0.51430 0.51430 -0.48470
v 0.52974 0.52974 -0.50589
v 0.72733 -0.00000 -0.39663
v 0.74917 -0.00000 -0.37545
v 0.50589 -0.50589 -0.37545
v 0.71544 -0.00000 -0.37545
v 0.49770 0.49770 -0.50164
v 0.70386 -0.00000 -0.50164
v 0.50589 0.50589 -0.37545
v 0.00000 0.70386 -0.50164
v -0.49770 0.49770 -0.50164
v 0.00000 0.71544 -0.37545
v -0.50589 0.50589 -0.37545
v -0.70386 -0.00000 -0.50164
v -0.71544 -0.00000 -0.37545
v -0.49770 -0.49770 -0.50164
v -0.50589 -0.50589 -0.37545
v 0.00000 -0.70386 -0.50164
v 0.00000 -0.71544 -0.37545
v 0.49770 -0.49770 -0.50164
v -0.52974 0.52974 -0.35439
v -0.74917 -0.00000 -0.35439
v 0.50589 0.50589 -0.35439
v 0.00000 0.71544 -0.35439
v 0.00000 0.74917 -0.35439
v 0.52974 0.52974 -0.35439
v -0.50589 0.50589 -0.35439
v 0.74917 -0.00000 -0.35439
v -0.71544 -0.00000 -0.35439
v 0.52974 -0.52974 -0.35439
v 0.52974 -0.52974 -0.37545
v 0.50589 -0.50589 -0.35439
v 0.00000 -0.74917 -0.35439
v 0.00000 -0.71544 -0.35439
v -0.52974 -0.52974 -0.35439
v -0.50589 -0.50589 -0.35439
v 0.71544 -0.00000 -0.35439
v -0.52974 -0.52974 -0.37545
v 0.00000 -0.74917 -0.37545
v -0.74917 -0.00000 -0.52122
v -0.52974 0.52974 -0.52122
v 0.00000 -0.70386 -0.51697
v 0.49770 -0.49770 -0.51697
v 0.00000 0.74917 -0.52122
v 0.70386 -0.00000 -0.51697
v 0.52974 0.52974 -0.52122
v 0.49770 0.49770 -0.51697
v 0.74917 -0.00000 -0.52122
v 0.74917 -0.00000 -0.50589
v 0.00000 0.70386 -0.51697
v 0.52974 -0.52974 -0.52122
v 0.00000 -0.74917 -0.52122
v -0.52974 -0.52974 -0.52122
v -0.49770 -0.49770 -0.51697
v -0.70386 -0.00000 -0.51697
v -0.49770 0.49770 -0.51697
v 0.00000 -0.74917 -0.50589
v 0.52974 -0.52974 -0.50589
v 0.51430 -0.51430 -0.39663
v 0.51430 -0.51430 -0.48470
v 0.72733 -0.00000 -0.48470
v 0.00000 -0.72733 -0.39663
v -0.51430 -0.51430 -0.39663
v 0.00000 -0.72733 -0.48470
vt 0.25000 0.25000
vt 0.25000 0.75000
vt 0.75000 0.75000
vn -0.3825 -0.9234 -0.0324
vn -0.9234 0.3825 -0.0324
vn 0.9234 0.3825 -0.0324
vn 0.3825 -0.9234 -0.0324
vn -0.9234 -0.3825 -0.0324
vn -0.3825 0.9234 -0.0324
vn 0.3825 0.9234 -0.0324
vn 0.9234 -0.3825 -0.0324
vn 0.3813 0.9206 0.0846
vn 0.9206 -0.3813 0.0846
vn -0.3813 -0.9206 0.0846
vn -0.9206 0.3813 0.0846
vn 0.9206 0.3813 0.0846
vn 0.3813 -0.9206 0.0846
vn -0.9206 -0.3813 0.0846
vn -0.3813 0.9206 0.0846
vn 0.0000 -0.0000 1.0000
vn 0.6446 0.2670 0.7164
vn 0.2670 -0.6446 0.7164
vn -0.6446 -0.2670 0.7164
vn -0.2670 0.6446 0.7164
vn 0.2670 0.6446 0.7164
vn 0.6446 -0.2670 0.7164
vn -0.2670 -0.6446 0.7164
vn -0.6446 0.2670 0.7164
vn 0.0000 -0.0000 -1.0000
vn 0.9238 0.3826 -0.0161
vn 0.3826 -0.9238 -0.0161
vn -0.3826 -0.9238 -0.0161
vn -0.9238 0.3826 -0.0161
vn 0.3826 0.9238 -0.0161
vn 0.9238 -0.3826 -0.0161
vn -0.9238 -0.3826 -0.0161
vn -0.3826 0.9238 -0.0161
vn -0.6533 0.6533 0.3827
vn 0.6533 -0.6533 0.3827
vn 0.2706 -0.2706 -0.9239
vn -0.6533 0.6533 -0.3827
vn -0.2706 0.2706 0.9239
vn 0.2706 -0.2706 0.9239
vn 0.6533 -0.6533 -0.3827
vn -0.2706 0.2706 -0.9239
vn -0.7071 -0.7071 0.0000
vn 0.6533 0.6533 0.3827
vn -0.6533 -0.6533 0.3827
vn -0.2706 -0.2706 -0.9239
vn 0.6533 0.6533 -0.3827
vn 0.2706 0.2706 0.9239
vn -0.2706 -0.2706 0.9239
vn -0.6533 -0.6533 -0.3827
vn 0.2706 0.2706 -0.9239
vn 0.7071 -0.7071 0.0000
vn -0.7071 0.7071 0.0000
vn 0.7071 0.7071 0.0000
vn 0.9996 -0.0000 0.0293
vn 0.0000 -0.9996 0.0292
vn -0.9996 -0.0000 -0.0293
vn 0.0000 0.9996 -0.0292
vn -0.9996 -0.0000 0.0293
vn 0.9996 -0.0000 -0.0293
vn 0.0000 0.9996 0.0292
vn 0.0000 -0.9996 -0.0292
vn -0.3827 -0.9239 0.0000
vn 0.3827 0.9239 0.0000
vn -0.9239 -0.3827 0.0000
vn 0.3827 -0.9239 0.0000
vn 0.9239 0.3827 0.0000
vn -0.9239 0.3827 0.0000
vn 0.9239 -0.3827 0.0000
vn -0.3827 0.9239 0.0000
vn -0.6690 -0.2771 0.6896
vn -0.6690 0.2771 -0.6896
vn -0.6690 0.2771 0.6896
vn -0.2771 0.6690 -0.6896
vn 0.2771 0.6690 -0.6896
vn -0.2771 0.6690 0.6896
vn 0.2771 0.6690 0.6896
vn 0.6690 0.2771 -0.6896
vn -0.0933 -0.0386 -0.9949
vn -0.0386 -0.0933 -0.9949
vn 0.0386 -0.0933 -0.9949
vn 0.0933 -0.0386 -0.9949
vn 0.0933 0.0386 -0.9949
vn 0.0386 0.0933 -0.9949
vn -0.0386 0.0933 -0.9949
vn -0.0933 0.0386 -0.9949
vn 0.0933 0.0387 -0.9949
vn -0.6690 -0.2771 -0.6896
vn -0.2771 -0.6690 0.6896
vn -0.2771 -0.6690 -0.6896
vn 0.2771 -0.6690 0.6896
vn 0.2771 -0.6690 -0.6896
vn 0.6690 -0.2771 0.6896
vn 0.6690 -0.2771 -0.6896
vn 0.6690 0.2771 0.6896
vn -0.0933 0.0387 -0.9949
vn -0.0387 0.0933 -0.9949
vn 0.0387 0.0933 -0.9949
vn 0.0933 -0.0387 -0.9949
vn 0.0387 -0.0933 -0.9949
vn -0.0387 -0.0933 -0.9949
vn -0.0933 -0.0387 -0.9949
f 1/1/1 2/1/1 3/1/1
f 3/1/1 4/1/1 1/1/1
f 5/1/2 6/1/2 7/1/2
f 6/1/2 5/1/2 8/1/2
f 9/1/3 10/1/3 11/1/3
f 11/1/3 12/1/3 9/1/3
f 13/1/4 1/1/4 4/1/4
f 4/1/4 14/1/4 13/1/4
f 3/1/5 8/1/5 5/1/5
f 8/1/5 3/1/5 2/1/5
f 7/1/6 15/1/6 16/1/6
f 15/1/6 7/1/6 6/1/6
f 16/1/7 9/1/7 12/1/7
f 9/1/7 16/1/7 15/1/7
f 10/1/8 13/1/8 14/1/8
f 14/1/8 11/1/8 10/1/8
f 17/3/9 18/3/9 19/3/9
f 18/3/9 17/3/9 20/3/9
f 21/3/10 22/3/10 23/3/10
f 23/3/10 24/3/10 21/3/10
f 25/3/11 26/3/11 27/3/11
f 27/3/11 28/3/11 25/3/11
f 29/3/12 30/3/12 31/3/12
f 30/3/12 29/3/12 32/3/12
f 18/3/13 21/3/13 24/3/13
f 24/3/13 19/3/13 18/3/13
f 22/3/14 25/3/14 28/3/14
f 28/3/14 23/3/14 22/3/14
f 27/3/15 32/3/15 29/3/15
f 32/3/15 27/3/15 26/3/15
f 31/3/16 20/3/16 17/3/16
f 20/3/16 31/3/16 30/3/16
f 21/3/17 18/3/17 33/3/17
f 25/3/17 22/3/17 33/3/17
f 32/3/17 26/3/17 33/3/17
f 20/3/17 30/3/17 33/3/17
f 18/3/17 20/3/17 33/3/17
f 22/3/17 21/3/17 33/3/17
f 26/3/17 25/3/17 33/3/17
f 30/3/17 32/3/17 33/3/17
f 24/3/18 34/3/18 19/3/18
f 34/3/18 24/3/18 35/3/18
f 28/3/19 36/3/19 23/3/19
f 36/3/19 28/3/19 37/3/19
f 29/3/20 38/3/20 27/3/20
f 38/3/20 29/3/20 39/3/20
f 17/3/21 40/3/21 31/3/21
f 40/3/21 17/3/21 41/3/21
f 19/3/22 41/3/22 17/3/22
f 41/3/22 19/3/22 34/3/22
f 23/3/23 35/3/23 24/3/23
f 35/3/23 23/3/23 36/3/23
f 27/3/24 37/3/24 28/3/24
f 37/3/24 27/3/24 38/3/24
f 31/3/25 39/3/25 29/3/25
f 39/3/25 31/3/25 40/3/25
f 42/3/26 43/3/26 12/3/26
f 12/3/26 11/3/26 42/3/26
f 44/3/26 45/3/26 14/3/26
f 14/3/26 4/3/26 44/3/26
f 46/3/26 47/3/26 3/3/26
f 3/3/26 5/3/26 46/3/26
f 48/3/26 49/3/26 7/3/26
f 7/3/26 16/3/26 48/3/26
f 43/3/26 48/3/26 16/3/26
f 16/3/26 12/3/26 43/3/26
f 45/3/26 42/3/26 11/3/26
f 11/3/26 14/3/26 45/3/26
f 47/3/26 44/3/26 4/3/26
f 4/3/26 3/3/26 47/3/26
f 49/3/26 46/3/26 5/3/26
f 5/3/26 7/3/26 49/3/26
f 50/3/27 51/3/27 47/3/27
f 47/3/27 46/3/27 50/3/27
f 52/3/28 53/3/28 49/3/28
f 49/3/28 48/3/28 52/3/28
f 54/3/29 52/3/29 48/3/29
f 48/3/29 43/3/29 54/3/29
f 45/3/30 55/3/30 42/3/30
f 55/3/30 45/3/30 56/3/30
f 47/3/31 57/3/31 44/3/31
f 57/3/31 47/3/31 51/3/31
f 53/3/32 50/3/32 46/3/32
f 46/3/32 49/3/32 53/3/32
f 42/3/33 54/3/33 43/3/33
f 54/3/33 42/3/33 55/3/33
f 44/3/34 56/3/34 45/3/34
f 56/3/34 44/3/34 57/3/34
f 54/3/26 55/3/26 58/3/26
f 56/3/26 57/3/26 58/3/26
f 51/3/26 50/3/26 58/3/26
f 53/3/26 52/3/26 58/3/26
f 52/3/26 54/3/26 58/3/26
f 55/3/26 56/3/26 58/3/26
f 57/3/26 51/3/26 58/3/26
f 50/3/26 53/3/26 58/3/26
f 59/2/35 60/2/35 61/2/35
f 60/2/35 59/2/35 62/2/35
f 63/2/36 64/2/36 65/2/36
f 65/2/36 66/2/36 63/2/36
f 67/2/37 68/2/37 69/2/37
f 69/2/37 70/2/37 67/2/37
f 71/2/38 62/2/38 59/2/38
f 62/2/38 71/2/38 72/2/38
f 61/2/39 73/2/39 74/2/39
f 73/2/39 61/2/39 60/2/39
f 74/2/40 63/2/40 66/2/40
f 63/2/40 74/2/40 73/2/40
f 64/2/41 67/2/41 70/2/41
f 70/2/41 65/2/41 64/2/41
f 68/2/42 72/2/42 71/2/42
f 71/2/42 69/2/42 68/2/42
f 68/2/43 67/2/43 75/2/43
f 62/2/43 72/2/43 75/2/43
f 73/2/43 60/2/43 75/2/43
f 63/2/43 73/2/43 75/2/43
f 67/2/43 64/2/43 75/2/43
f 72/2/43 68/2/43 75/2/43
f 60/2/43 62/2/43 75/2/43
f 64/2/43 63/2/43 75/2/43
f 76/2/35 77/2/35 78/2/35
f 77/2/35 76/2/35 79/2/35
f 80/2/36 81/2/36 82/2/36
f 82/2/36 83/2/36 80/2/36
f 84/2/37 85/2/37 86/2/37
f 86/2/37 87/2/37 84/2/37
f 88/2/38 79/2/38 76/2/38
f 79/2/38 88/2/38 89/2/38
f 78/2/39 90/2/39 91/2/39
f 90/2/39 78/2/39 77/2/39
f 91/2/40 80/2/40 83/2/40
f 80/2/40 91/2/40 90/2/40
f 81/2/41 84/2/41 87/2/41
f 87/2/41 82/2/41 81/2/41
f 85/2/42 89/2/42 88/2/42
f 88/2/42 86/2/42 85/2/42
f 85/2/43 84/2/43 92/2/43
f 79/2/43 89/2/43 92/2/43
f 90/2/43 77/2/43 92/2/43
f 80/2/43 90/2/43 92/2/43
f 84/2/43 81/2/43 92/2/43
f 89/2/43 85/2/43 92/2/43
f 77/2/43 79/2/43 92/2/43
f 81/2/43 80/2/43 92/2/43
f 93/2/44 94/2/44 95/2/44
f 94/2/44 93/2/44 96/2/44
f 97/2/45 98/2/45 99/2/45
f 99/2/45 100/2/45 97/2/45
f 101/2/46 102/2/46 103/2/46
f 103/2/46 104/2/46 101/2/46
f 96/2/47 105/2/47 94/2/47
f 105/2/47 96/2/47 106/2/47
f 107/2/48 95/2/48 108/2/48
f 95/2/48 107/2/48 93/2/48
f 97/2/49 108/2/49 98/2/49
f 108/2/49 97/2/49 107/2/49
f 100/2/50 99/2/50 102/2/50
f 102/2/50 101/2/50 100/2/50
f 104/2/51 103/2/51 105/2/51
f 105/2/51 106/2/51 104/2/51
f 104/2/52 109/2/52 101/2/52
f 96/2/52 109/2/52 106/2/52
f 107/2/52 109/2/52 93/2/52
f 97/2/52 109/2/52 107/2/52
f 101/2/52 109/2/52 100/2/52
f 106/2/52 109/2/52 104/2/52
f 93/2/52 109/2/52 96/2/52
f 100/2/52 109/2/52 97/2/52
f 110/2/44 111/2/44 112/2/44
f 112/2/44 113/2/44 110/2/44
f 114/2/45 115/2/45 116/2/45
f 115/2/45 114/2/45 117/2/45
f 118/2/46 119/2/46 120/2/46
f 120/2/46 121/2/46 118/2/46
f 122/2/47 123/2/47 111/2/47
f 111/2/47 110/2/47 122/2/47
f 124/2/48 112/2/48 125/2/48
f 112/2/48 124/2/48 113/2/48
f 117/2/49 125/2/49 115/2/49
f 125/2/49 117/2/49 124/2/49
f 118/2/50 116/2/50 119/2/50
f 116/2/50 118/2/50 114/2/50
f 121/2/51 120/2/51 123/2/51
f 123/2/51 122/2/51 121/2/51
f 121/2/52 126/2/52 118/2/52
f 110/2/52 126/2/52 122/2/52
f 124/2/52 126/2/52 113/2/52
f 117/2/52 126/2/52 124/2/52
f 118/2/52 126/2/52 114/2/52
f 122/2/52 126/2/52 121/2/52
f 113/2/52 126/2/52 110/2/52
f 114/2/52 126/2/52 117/2/52
f 127/2/45 128/2/45 129/2/45
f 129/2/45 130/2/45 127/2/45
f 131/2/44 132/2/44 133/2/44
f 132/2/44 131/2/44 134/2/44
f 135/2/51 136/2/51 137/2/51
f 137/2/51 138/2/51 135/2/51
f 139/2/50 140/2/50 128/2/50
f 128/2/50 127/2/50 139/2/50
f 141/2/49 129/2/49 142/2/49
f 129/2/49 141/2/49 130/2/49
f 134/2/48 142/2/48 132/2/48
f 142/2/48 134/2/48 141/2/48
f 135/2/47 133/2/47 136/2/47
f 133/2/47 135/2/47 131/2/47
f 138/2/46 137/2/46 140/2/46
f 140/2/46 139/2/46 138/2/46
f 138/2/53 143/2/53 135/2/53
f 127/2/53 143/2/53 139/2/53
f 141/2/53 143/2/53 130/2/53
f 134/2/53 143/2/53 141/2/53
f 135/2/53 143/2/53 131/2/53
f 139/2/53 143/2/53 138/2/53
f 130/2/53 143/2/53 127/2/53
f 131/2/53 143/2/53 134/2/53
f 144/2/45 145/2/45 146/2/45
f 145/2/45 144/2/45 147/2/45
f 148/2/44 149/2/44 150/2/44
f 150/2/44 151/2/44 148/2/44
f 152/2/51 153/2/51 154/2/51
f 154/2/51 155/2/51 152/2/51
f 147/2/50 156/2/50 145/2/50
f 156/2/50 147/2/50 157/2/50
f 158/2/49 146/2/49 159/2/49
f 146/2/49 158/2/49 144/2/49
f 148/2/48 159/2/48 149/2/48
f 159/2/48 148/2/48 158/2/48
f 151/2/47 150/2/47 153/2/47
f 153/2/47 152/2/47 151/2/47
f 155/2/46 154/2/46 156/2/46
f 156/2/46 157/2/46 155/2/46
f 155/2/53 160/2/53 152/2/53
f 147/2/53 160/2/53 157/2/53
f 158/2/53 160/2/53 144/2/53
f 148/2/53 160/2/53 158/2/53
f 152/2/53 160/2/53 151/2/53
f 157/2/53 160/2/53 155/2/53
f 144/2/53 160/2/53 147/2/53
f 151/2/53 160/2/53 148/2/53
f 161/2/36 162/2/36 163/2/36
f 163/2/36 164/2/36 161/2/36
f 165/2/35 166/2/35 167/2/35
f 166/2/35 165/2/35 168/2/35
f 169/2/42 170/2/42 171/2/42
f 171/2/42 172/2/42 169/2/42
f 173/2/41 161/2/41 164/2/41
f 164/2/41 174/2/41 173/2/41
f 163/2/40 175/2/40 176/2/40
f 175/2/40 163/2/40 162/2/40
f 176/2/39 168/2/39 165/2/39
f 168/2/39 176/2/39 175/2/39
f 167/2/38 169/2/38 172/2/38
f 169/2/38 167/2/38 166/2/38
f 170/2/37 173/2/37 174/2/37
f 174/2/37 171/2/37 170/2/37
f 170/2/54 169/2/54 177/2/54
f 161/2/54 173/2/54 177/2/54
f 175/2/54 162/2/54 177/2/54
f 168/2/54 175/2/54 177/2/54
f 169/2/54 166/2/54 177/2/54
f 173/2/54 170/2/54 177/2/54
f 162/2/54 161/2/54 177/2/54
f 166/2/54 168/2/54 177/2/54
f 178/2/36 179/2/36 180/2/36
f 180/2/36 181/2/36 178/2/36
f 182/2/35 183/2/35 184/2/35
f 183/2/35 182/2/35 185/2/35
f 186/2/42 187/2/42 188/2/42
f 188/2/42 189/2/42 186/2/42
f 190/2/41 178/2/41 181/2/41
f 181/2/41 191/2/41 190/2/41
f 180/2/40 192/2/40 193/2/40
f 192/2/40 180/2/40 179/2/40
f 193/2/39 185/2/39 182/2/39
f 185/2/39 193/2/39 192/2/39
f 184/2/38 186/2/38 189/2/38
f 186/2/38 184/2/38 183/2/38
f 187/2/37 190/2/37 191/2/37
f 191/2/37 188/2/37 187/2/37
f 187/2/54 186/2/54 194/2/54
f 178/2/54 190/2/54 194/2/54
f 192/2/54 179/2/54 194/2/54
f 185/2/54 192/2/54 194/2/54
f 186/2/54 183/2/54 194/2/54
f 190/2/54 187/2/54 194/2/54
f 179/2/54 178/2/54 194/2/54
f 183/2/54 185/2/54 194/2/54
f 195/2/55 196/2/55 197/2/55
f 197/2/55 198/2/55 195/2/55
f 199/2/56 200/2/56 196/2/56
f 196/2/56 195/2/56 199/2/56
f 199/2/57 201/2/57 200/2/57
f 201/2/57 199/2/57 202/2/57
f 202/2/58 197/2/58 201/2/58
f 197/2/58 202/2/58 198/2/58
f 201/2/26 197/2/26 196/2/26
f 196/2/26 200/2/26 201/2/26
f 195/2/17 202/2/17 199/2/17
f 202/2/17 195/2/17 198/2/17
f 203/2/59 204/2/59 205/2/59
f 204/2/59 203/2/59 206/2/59
f 207/2/56 206/2/56 203/2/56
f 203/2/56 208/2/56 207/2/56
f 209/2/60 207/2/60 208/2/60
f 208/2/60 210/2/60 209/2/60
f 205/2/58 209/2/58 210/2/58
f 209/2/58 205/2/58 204/2/58
f 210/2/26 208/2/26 203/2/26
f 203/2/26 205/2/26 210/2/26
f 209/2/17 206/2/17 207/2/17
f 206/2/17 209/2/17 204/2/17
f 211/2/55 212/2/55 213/2/55
f 213/2/55 214/2/55 211/2/55
f 215/2/61 211/2/61 214/2/61
f 211/2/61 215/2/61 216/2/61
f 217/2/57 216/2/57 215/2/57
f 216/2/57 217/2/57 218/2/57
f 212/2/62 218/2/62 217/2/62
f 217/2/62 213/2/62 212/2/62
f 217/2/26 215/2/26 214/2/26
f 214/2/26 213/2/26 217/2/26
f 218/2/17 211/2/17 216/2/17
f 211/2/17 218/2/17 212/2/17
f 219/2/59 220/2/59 221/2/59
f 220/2/59 219/2/59 222/2/59
f 222/2/61 223/2/61 220/2/61
f 223/2/61 222/2/61 224/2/61
f 225/2/60 226/2/60 223/2/60
f 223/2/60 224/2/60 225/2/60
f 219/2/62 221/2/62 226/2/62
f 226/2/62 225/2/62 219/2/62
f 226/2/26 221/2/26 220/2/26
f 220/2/26 223/2/26 226/2/26
f 222/2/17 225/2/17 224/2/17
f 225/2/17 222/2/17 219/2/17
f 227/2/63 228/2/63 229/2/63
f 229/2/63 230/2/63 227/2/63
f 231/2/64 232/2/64 233/2/64
f 232/2/64 231/2/64 234/2/64
f 235/2/65 229/2/65 236/2/65
f 229/2/65 235/2/65 230/2/65
f 237/2/66 238/2/66 228/2/66
f 228/2/66 227/2/66 237/2/66
f 231/2/67 233/2/67 239/2/67
f 239/2/67 240/2/67 231/2/67
f 241/2/68 236/2/68 242/2/68
f 236/2/68 241/2/68 235/2/68
f 240/2/69 239/2/69 238/2/69
f 238/2/69 237/2/69 240/2/69
f 234/2/70 242/2/70 232/2/70
f 242/2/70 234/2/70 241/2/70
f 243/2/71 244/2/71 245/2/71
f 244/2/71 243/2/71 246/2/71
f 247/2/72 248/2/72 249/2/72
f 248/2/72 247/2/72 250/2/72
f 245/2/73 251/2/73 252/2/73
f 251/2/73 245/2/73 244/2/73
f 253/2/74 250/2/74 247/2/74
f 250/2/74 253/2/74 254/2/74
f 255/2/75 254/2/75 253/2/75
f 254/2/75 255/2/75 256/2/75
f 252/2/76 257/2/76 258/2/76
f 257/2/76 252/2/76 251/2/76
f 258/2/77 259/2/77 260/2/77
f 259/2/77 258/2/77 257/2/77
f 261/2/78 256/2/78 255/2/78
f 255/2/78 262/2/78 261/2/78
f 235/2/17 263/2/17 264/2/17
f 263/2/17 235/2/17 241/2/17
f 229/2/79 265/2/79 266/2/79
f 266/2/79 236/2/79 229/2/79
f 230/2/17 264/2/17 267/2/17
f 264/2/17 230/2/17 235/2/17
f 228/2/80 268/2/80 265/2/80
f 265/2/80 229/2/80 228/2/80
f 238/2/81 269/2/81 268/2/81
f 268/2/81 228/2/81 238/2/81
f 227/2/17 267/2/17 270/2/17
f 267/2/17 227/2/17 230/2/17
f 237/2/17 270/2/17 271/2/17
f 270/2/17 237/2/17 227/2/17
f 239/2/82 272/2/82 269/2/82
f 269/2/82 238/2/82 239/2/82
f 240/2/17 271/2/17 273/2/17
f 271/2/17 240/2/17 237/2/17
f 233/2/83 274/2/83 272/2/83
f 272/2/83 239/2/83 233/2/83
f 231/2/17 273/2/17 275/2/17
f 273/2/17 231/2/17 240/2/17
f 232/2/84 276/2/84 274/2/84
f 274/2/84 233/2/84 232/2/84
f 234/2/17 275/2/17 277/2/17
f 275/2/17 234/2/17 231/2/17
f 242/2/85 278/2/85 276/2/85
f 276/2/85 232/2/85 242/2/85
f 241/2/17 277/2/17 263/2/17
f 277/2/17 241/2/17 234/2/17
f 236/2/86 266/2/86 278/2/86
f 278/2/86 242/2/86 236/2/86
f 249/2/68 279/2/68 247/2/68
f 279/2/68 249/2/68 280/2/68
f 281/2/63 282/2/63 270/2/63
f 270/2/63 267/2/63 281/2/63
f 247/2/70 283/2/70 253/2/70
f 283/2/70 247/2/70 279/2/70
f 253/2/64 284/2/64 255/2/64
f 284/2/64 253/2/64 283/2/64
f 282/2/66 285/2/66 271/2/66
f 271/2/66 270/2/66 282/2/66
f 284/2/67 286/2/67 262/2/67
f 262/2/67 255/2/67 284/2/67
f 285/2/69 287/2/69 273/2/69
f 273/2/69 271/2/69 285/2/69
f 286/2/69 288/2/69 289/2/69
f 289/2/69 262/2/69 286/2/69
f 290/2/17 291/2/17 288/2/17
f 291/2/17 290/2/17 292/2/17
f 292/2/17 293/2/17 291/2/17
f 293/2/17 292/2/17 294/2/17
f 294/2/17 280/2/17 293/2/17
f 280/2/17 294/2/17 287/2/17
f 287/2/17 279/2/17 280/2/17
f 279/2/17 287/2/17 285/2/17
f 285/2/17 283/2/17 279/2/17
f 283/2/17 285/2/17 282/2/17
f 282/2/17 284/2/17 283/2/17
f 284/2/17 282/2/17 281/2/17
f 281/2/17 286/2/17 284/2/17
f 286/2/17 281/2/17 295/2/17
f 295/2/17 288/2/17 286/2/17
f 288/2/17 295/2/17 290/2/17
f 264/2/65 281/2/65 267/2/65
f 281/2/65 264/2/65 295/2/65
f 296/2/65 280/2/65 249/2/65
f 280/2/65 296/2/65 293/2/65
f 263/2/68 295/2/68 264/2/68
f 295/2/68 263/2/68 290/2/68
f 277/2/70 290/2/70 263/2/70
f 290/2/70 277/2/70 292/2/70
f 291/2/63 293/2/63 296/2/63
f 296/2/63 297/2/63 291/2/63
f 275/2/64 292/2/64 277/2/64
f 292/2/64 275/2/64 294/2/64
f 288/2/66 291/2/66 297/2/66
f 297/2/66 289/2/66 288/2/66
f 287/2/67 294/2/67 275/2/67
f 275/2/67 273/2/67 287/2/67
f 252/2/68 298/2/68 245/2/68
f 298/2/68 252/2/68 299/2/68
f 278/2/70 300/2/70 276/2/70
f 300/2/70 278/2/70 301/2/70
f 258/2/70 299/2/70 252/2/70
f 299/2/70 258/2/70 302/2/70
f 266/2/68 301/2/68 278/2/68
f 301/2/68 266/2/68 303/2/68
f 260/2/64 302/2/64 258/2/64
f 302/2/64 260/2/64 304/2/64
f 265/2/65 303/2/65 266/2/65
f 303/2/65 265/2/65 305/2/65
f 306/2/67 304/2/67 260/2/67
f 260/2/67 307/2/67 306/2/67
f 308/2/63 305/2/63 265/2/63
f 265/2/63 268/2/63 308/2/63
f 303/2/86 306/2/86 309/2/86
f 309/2/86 301/2/86 303/2/86
f 301/2/85 309/2/85 310/2/85
f 310/2/85 300/2/85 301/2/85
f 300/2/84 310/2/84 311/2/84
f 311/2/84 312/2/84 300/2/84
f 312/2/87 311/2/87 298/2/87
f 298/2/87 313/2/87 312/2/87
f 313/2/82 298/2/82 299/2/82
f 299/2/82 314/2/82 313/2/82
f 314/2/81 299/2/81 302/2/81
f 302/2/81 308/2/81 314/2/81
f 308/2/80 302/2/80 304/2/80
f 304/2/80 305/2/80 308/2/80
f 305/2/79 304/2/79 306/2/79
f 306/2/79 303/2/79 305/2/79
f 276/2/64 312/2/64 274/2/64
f 312/2/64 276/2/64 300/2/64
f 245/2/65 311/2/65 243/2/65
f 311/2/65 245/2/65 298/2/65
f 312/2/67 313/2/67 272/2/67
f 272/2/67 274/2/67 312/2/67
f 311/2/63 310/2/63 315/2/63
f 315/2/63 243/2/63 311/2/63
f 313/2/69 314/2/69 269/2/69
f 269/2/69 272/2/69 313/2/69
f 310/2/66 309/2/66 316/2/66
f 316/2/66 315/2/66 310/2/66
f 314/2/66 308/2/66 268/2/66
f 268/2/66 269/2/66 314/2/66
f 309/2/69 306/2/69 307/2/69
f 307/2/69 316/2/69 309/2/69
f 257/2/64 256/2/64 259/2/64
f 256/2/64 257/2/64 254/2/64
f 261/2/69 317/2/69 318/2/69
f 318/2/69 319/2/69 261/2/69
f 320/2/63 321/2/63 246/2/63
f 246/2/63 322/2/63 320/2/63
f 244/2/68 250/2/68 251/2/68
f 250/2/68 244/2/68 248/2/68
f 256/2/67 261/2/67 319/2/67
f 319/2/67 259/2/67 256/2/67
f 317/2/66 320/2/66 322/2/66
f 322/2/66 318/2/66 317/2/66
f 246/2/65 248/2/65 244/2/65
f 248/2/65 246/2/65 321/2/65
f 251/2/70 254/2/70 257/2/70
f 254/2/70 251/2/70 250/2/70
f 249/2/88 321/2/88 296/2/88
f 321/2/88 249/2/88 248/2/88
f 322/2/89 246/2/89 243/2/89
f 243/2/89 315/2/89 322/2/89
f 321/2/90 320/2/90 297/2/90
f 297/2/90 296/2/90 321/2/90
f 318/2/91 322/2/91 315/2/91
f 315/2/91 316/2/91 318/2/91
f 320/2/92 317/2/92 289/2/92
f 289/2/92 297/2/92 320/2/92
f 319/2/93 318/2/93 316/2/93
f 316/2/93 307/2/93 319/2/93
f 317/2/94 261/2/94 262/2/94
f 262/2/94 289/2/94 317/2/94
f 259/2/95 319/2/95 307/2/95
f 307/2/95 260/2/95 259/2/95
f 323/2/63 324/2/63 325/2/63
f 325/2/63 326/2/63 323/2/63
f 327/2/64 328/2/64 329/2/64
f 328/2/64 327/2/64 330/2/64
f 331/2/65 325/2/65 332/2/65
f 325/2/65 331/2/65 326/2/65
f 333/2/66 334/2/66 324/2/66
f 324/2/66 323/2/66 333/2/66
f 327/2/67 329/2/67 335/2/67
f 335/2/67 336/2/67 327/2/67
f 337/2/68 332/2/68 338/2/68
f 332/2/68 337/2/68 331/2/68
f 336/2/69 335/2/69 334/2/69
f 334/2/69 333/2/69 336/2/69
f 330/2/70 338/2/70 328/2/70
f 338/2/70 330/2/70 337/2/70
f 339/2/71 340/2/71 341/2/71
f 340/2/71 339/2/71 342/2/71
f 343/2/72 344/2/72 345/2/72
f 344/2/72 343/2/72 346/2/72
f 341/2/73 347/2/73 348/2/73
f 347/2/73 341/2/73 340/2/73
f 349/2/74 346/2/74 343/2/74
f 346/2/74 349/2/74 350/2/74
f 351/2/75 350/2/75 349/2/75
f 350/2/75 351/2/75 352/2/75
f 348/2/76 353/2/76 354/2/76
f 353/2/76 348/2/76 347/2/76
f 354/2/77 355/2/77 356/2/77
f 355/2/77 354/2/77 353/2/77
f 357/2/78 352/2/78 351/2/78
f 351/2/78 358/2/78 357/2/78
f 331/2/17 359/2/17 360/2/17
f 359/2/17 331/2/17 337/2/17
f 325/2/79 361/2/79 362/2/79
f 362/2/79 332/2/79 325/2/79
f 326/2/17 360/2/17 363/2/17
f 360/2/17 326/2/17 331/2/17
f 324/2/80 364/2/80 361/2/80
f 361/2/80 325/2/80 324/2/80
f 334/2/81 365/2/81 364/2/81
f 364/2/81 324/2/81 334/2/81
f 323/2/17 363/2/17 366/2/17
f 363/2/17 323/2/17 326/2/17
f 333/2/17 366/2/17 367/2/17
f 366/2/17 333/2/17 323/2/17
f 335/2/82 368/2/82 365/2/82
f 365/2/82 334/2/82 335/2/82
f 336/2/17 367/2/17 369/2/17
f 367/2/17 336/2/17 333/2/17
f 329/2/83 370/2/83 368/2/83
f 368/2/83 335/2/83 329/2/83
f 327/2/17 369/2/17 371/2/17
f 369/2/17 327/2/17 336/2/17
f 328/2/84 372/2/84 370/2/84
f 370/2/84 329/2/84 328/2/84
f 330/2/17 371/2/17 373/2/17
f 371/2/17 330/2/17 327/2/17
f 338/2/85 374/2/85 372/2/85
f 372/2/85 328/2/85 338/2/85
f 337/2/17 373/2/17 359/2/17
f 373/2/17 337/2/17 330/2/17
f 332/2/86 362/2/86 374/2/86
f 374/2/86 338/2/86 332/2/86
f 345/2/68 375/2/68 343/2/68
f 375/2/68 345/2/68 376/2/68
f 377/2/63 378/2/63 366/2/63
f 366/2/63 363/2/63 377/2/63
f 343/2/70 379/2/70 349/2/70
f 379/2/70 343/2/70 375/2/70
f 349/2/64 380/2/64 351/2/64
f 380/2/64 349/2/64 379/2/64
f 378/2/66 381/2/66 367/2/66
f 367/2/66 366/2/66 378/2/66
f 380/2/67 382/2/67 358/2/67
f 358/2/67 351/2/67 380/2/67
f 381/2/69 383/2/69 369/2/69
f 369/2/69 367/2/69 381/2/69
f 382/2/69 384/2/69 385/2/69
f 385/2/69 358/2/69 382/2/69
f 386/2/17 387/2/17 384/2/17
f 387/2/17 386/2/17 388/2/17
f 388/2/17 389/2/17 387/2/17
f 389/2/17 388/2/17 390/2/17
f 390/2/17 376/2/17 389/2/17
f 376/2/17 390/2/17 383/2/17
f 383/2/17 375/2/17 376/2/17
f 375/2/17 383/2/17 381/2/17
f 381/2/17 379/2/17 375/2/17
f 379/2/17 381/2/17 378/2/17
f 378/2/17 380/2/17 379/2/17
f 380/2/17 378/2/17 377/2/17
f 377/2/17 382/2/17 380/2/17
f 382/2/17 377/2/17 391/2/17
f 391/2/17 384/2/17 382/2/17
f 384/2/17 391/2/17 386/2/17
f 360/2/65 377/2/65 363/2/65
f 377/2/65 360/2/65 391/2/65
f 392/2/65 376/2/65 345/2/65
f 376/2/65 392/2/65 389/2/65
f 359/2/68 391/2/68 360/2/68
f 391/2/68 359/2/68 386/2/68
f 373/2/70 386/2/70 359/2/70
f 386/2/70 373/2/70 388/2/70
f 387/2/63 389/2/63 392/2/63
f 392/2/63 393/2/63 387/2/63
f 371/2/64 388/2/64 373/2/64
f 388/2/64 371/2/64 390/2/64
f 384/2/66 387/2/66 393/2/66
f 393/2/66 385/2/66 384/2/66
f 383/2/67 390/2/67 371/2/67
f 371/2/67 369/2/67 383/2/67
f 348/2/68 394/2/68 341/2/68
f 394/2/68 348/2/68 395/2/68
f 374/2/70 396/2/70 372/2/70
f 396/2/70 374/2/70 397/2/70
f 354/2/70 395/2/70 348/2/70
f 395/2/70 354/2/70 398/2/70
f 362/2/68 397/2/68 374/2/68
f 397/2/68 362/2/68 399/2/68
f 356/2/64 398/2/64 354/2/64
f 398/2/64 356/2/64 400/2/64
f 361/2/65 399/2/65 362/2/65
f 399/2/65 361/2/65 401/2/65
f 402/2/67 400/2/67 356/2/67
f 356/2/67 403/2/67 402/2/67
f 404/2/63 401/2/63 361/2/63
f 361/2/63 364/2/63 404/2/63
f 399/2/96 402/2/96 405/2/96
f 405/2/96 397/2/96 399/2/96
f 397/2/97 405/2/97 406/2/97
f 406/2/97 396/2/97 397/2/97
f 396/2/98 406/2/98 407/2/98
f 407/2/98 408/2/98 396/2/98
f 408/2/87 407/2/87 394/2/87
f 394/2/87 409/2/87 408/2/87
f 409/2/99 394/2/99 395/2/99
f 395/2/99 410/2/99 409/2/99
f 410/2/100 395/2/100 398/2/100
f 398/2/100 404/2/100 410/2/100
f 404/2/101 398/2/101 400/2/101
f 400/2/101 401/2/101 404/2/101
f 401/2/102 400/2/102 402/2/102
f 402/2/102 399/2/102 401/2/102
f 372/2/64 408/2/64 370/2/64
f 408/2/64 372/2/64 396/2/64
f 341/2/65 407/2/65 339/2/65
f 407/2/65 341/2/65 394/2/65
f 408/2/67 409/2/67 368/2/67
f 368/2/67 370/2/67 408/2/67
f 407/2/63 406/2/63 411/2/63
f 411/2/63 339/2/63 407/2/63
f 409/2/69 410/2/69 365/2/69
f 365/2/69 368/2/69 409/2/69
f 406/2/66 405/2/66 412/2/66
f 412/2/66 411/2/66 406/2/66
f 410/2/66 404/2/66 364/2/66
f 364/2/66 365/2/66 410/2/66
f 405/2/69 402/2/69 403/2/69
f 403/2/69 412/2/69 405/2/69
f 353/2/64 352/2/64 355/2/64
f 352/2/64 353/2/64 350/2/64
f 357/2/69 413/2/69 414/2/69
f 414/2/69 415/2/69 357/2/69
f 416/2/63 417/2/63 342/2/63
f 342/2/63 418/2/63 416/2/63
f 340/2/68 346/2/68 347/2/68
f 346/2/68 340/2/68 344/2/68
f 352/2/67 357/2/67 415/2/67
f 415/2/67 355/2/67 352/2/67
f 413/2/66 416/2/66 418/2/66
f 418/2/66 414/2/66 413/2/66
f 342/2/65 344/2/65 340/2/65
f 344/2/65 342/2/65 417/2/65
f 347/2/70 350/2/70 353/2/70
f 350/2/70 347/2/70 346/2/70
f 345/2/88 417/2/88 392/2/88
f 417/2/88 345/2/88 344/2/88
f 418/2/89 342/2/89 339/2/89
f 339/2/89 411/2/89 418/2/89
f 417/2/90 416/2/90 393/2/90
f 393/2/90 392/2/90 417/2/90
f 414/2/91 418/2/91 411/2/91
f 411/2/91 412/2/91 414/2/91
f 416/2/92 413/2/92 385/2/92
f 385/2/92 393/2/92 416/2/92
f 415/2/93 414/2/93 412/2/93
f 412/2/93 403/2/93 415/2/93
f 413/2/94 357/2/94 358/2/94
f 358/2/94 385/2/94 413/2/94
f 355/2/95 415/2/95 403/2/95
f 403/2/95 356/2/95 355/2/95
