# Generated by tools/make-block-meshes.py -- edit that, not this.
# Midi controller by Gabriel Ibias, CC-BY 3.0, from https://poly.pizza/m/155LOgjwUy2
v -0.80000 0.39298 0.03597
v -0.80000 0.39298 -0.07631
v -0.80000 -0.39298 -0.07631
v -0.80000 -0.39298 0.03597
v -0.51930 -0.12632 0.03597
v -0.51930 -0.12632 0.02194
v -0.51930 -0.30877 0.02194
v -0.51930 -0.30877 0.03597
v -0.49123 -0.12632 0.02194
v -0.49123 -0.12632 0.00790
v -0.49123 -0.30877 0.00790
v -0.49123 -0.30877 0.02194
v 0.72982 0.39298 0.03597
v 0.72982 0.39298 -0.04824
v 0.72982 -0.05614 -0.04824
v 0.72982 -0.05614 0.03597
v -0.53333 -0.12632 0.02194
v -0.53333 -0.12632 0.03597
v -0.53333 -0.30877 0.02194
v -0.53333 -0.30877 0.03597
v -0.51930 0.39298 -0.04824
v -0.51930 0.39298 0.03597
v -0.51930 -0.05614 -0.04824
v -0.51930 -0.05614 0.03597
v -0.50526 -0.12632 0.00790
v -0.50526 -0.12632 0.02194
v -0.50526 -0.30877 0.00790
v -0.50526 -0.30877 0.02194
v 0.80000 0.39298 -0.07631
v 0.80000 0.39298 0.03597
v 0.80000 -0.39298 -0.07631
v 0.80000 -0.39298 0.03597
v -0.46316 0.21053 0.02308
v -0.46316 0.21053 -0.01902
v -0.46316 -0.05614 -0.01902
v -0.46316 -0.05614 0.02308
v -0.37895 0.21053 0.02308
v -0.37895 0.21053 -0.01902
v -0.37895 -0.05614 -0.01902
v -0.37895 -0.05614 0.02308
v -0.21053 0.21053 0.02308
v -0.21053 0.21053 -0.01902
v -0.21053 -0.05614 -0.01902
v -0.21053 -0.05614 0.02308
v -0.12632 0.21053 0.02308
v -0.12632 0.21053 -0.01902
v -0.12632 -0.05614 -0.01902
v -0.12632 -0.05614 0.02308
v -0.04211 0.21053 0.02308
v -0.04211 0.21053 -0.01902
v -0.04211 -0.05614 -0.01902
v -0.04211 -0.05614 0.02308
v 0.12632 0.21053 0.02308
v 0.12632 0.21053 -0.01902
v 0.12632 -0.05614 -0.01902
v 0.12632 -0.05614 0.02308
v 0.21053 0.21053 0.02308
v 0.21053 0.21053 -0.01902
v 0.21053 -0.05614 -0.01902
v 0.21053 -0.05614 0.02308
v 0.37895 0.21053 0.02308
v 0.37895 0.21053 -0.01902
v 0.37895 -0.05614 -0.01902
v 0.37895 -0.05614 0.02308
v 0.46316 0.21053 0.02308
v 0.46316 0.21053 -0.01902
v 0.46316 -0.05614 -0.01902
v 0.46316 -0.05614 0.02308
v 0.54737 0.21053 0.02308
v 0.54737 0.21053 -0.01902
v 0.54737 -0.05614 -0.01902
v 0.54737 -0.05614 0.02308
v -0.42105 0.21053 -0.01902
v -0.42105 0.21053 0.02308
v -0.42105 -0.05614 -0.01902
v -0.42105 -0.05614 0.02308
v -0.33684 0.21053 -0.01902
v -0.33684 0.21053 0.02308
v -0.33684 -0.05614 -0.01902
v -0.33684 -0.05614 0.02308
v -0.16842 0.21053 -0.01902
v -0.16842 0.21053 0.02308
v -0.16842 -0.05614 -0.01902
v -0.16842 -0.05614 0.02308
v -0.08421 0.21053 -0.01902
v -0.08421 0.21053 0.02308
v -0.08421 -0.05614 -0.01902
v -0.08421 -0.05614 0.02308
v -0.00000 0.21053 -0.01902
v -0.00000 0.21053 0.02308
v -0.00000 -0.05614 -0.01902
v -0.00000 -0.05614 0.02308
v 0.16842 0.21053 -0.01902
v 0.16842 0.21053 0.02308
v 0.16842 -0.05614 -0.01902
v 0.16842 -0.05614 0.02308
v 0.25263 0.21053 -0.01902
v 0.25263 0.21053 0.02308
v 0.25263 -0.05614 -0.01902
v 0.25263 -0.05614 0.02308
v 0.42105 0.21053 -0.01902
v 0.42105 0.21053 0.02308
v 0.42105 -0.05614 -0.01902
v 0.42105 -0.05614 0.02308
v 0.50526 0.21053 -0.01902
v 0.50526 0.21053 0.02308
v 0.50526 -0.05614 -0.01902
v 0.50526 -0.05614 0.02308
v 0.58947 0.21053 -0.01902
v 0.58947 0.21053 0.02308
v 0.58947 -0.05614 -0.01902
v 0.58947 -0.05614 0.02308
v -0.51930 0.37895 -0.00972
v -0.51930 0.37895 -0.05183
v -0.51930 -0.05614 -0.05183
v -0.51930 0.39298 0.00431
v -0.51930 0.39298 -0.00972
v -0.51930 -0.05614 0.00431
v -0.43509 0.37895 -0.00972
v -0.43509 0.37895 -0.05183
v -0.43509 -0.05614 -0.05183
v -0.43509 0.39298 0.00431
v -0.43509 0.39298 -0.00972
v -0.43509 -0.05614 0.00431
v -0.35088 0.37895 -0.00972
v -0.35088 0.37895 -0.05183
v -0.35088 -0.05614 -0.05183
v -0.35088 0.39298 0.00431
v -0.35088 0.39298 -0.00972
v -0.35088 -0.05614 0.00431
v -0.26667 0.37895 -0.00972
v -0.26667 0.37895 -0.05183
v -0.26667 -0.05614 -0.05183
v -0.26667 0.39298 0.00431
v -0.26667 0.39298 -0.00972
v -0.26667 -0.05614 0.00431
v -0.18246 0.37895 -0.00972
v -0.18246 0.37895 -0.05183
v -0.18246 -0.05614 -0.05183
v -0.18246 0.39298 0.00431
v -0.18246 0.39298 -0.00972
v -0.18246 -0.05614 0.00431
v -0.09825 0.37895 -0.00972
v -0.09825 0.37895 -0.05183
v -0.09825 -0.05614 -0.05183
v -0.09825 0.39298 0.00431
v -0.09825 0.39298 -0.00972
v -0.09825 -0.05614 0.00431
v -0.01404 0.37895 -0.00972
v -0.01404 0.37895 -0.05183
v -0.01404 -0.05614 -0.05183
v -0.01404 0.39298 0.00431
v -0.01404 0.39298 -0.00972
v -0.01404 -0.05614 0.00431
v 0.07018 0.37895 -0.00972
v 0.07018 0.37895 -0.05183
v 0.07018 -0.05614 -0.05183
v 0.07018 0.39298 0.00431
v 0.07018 0.39298 -0.00972
v 0.07018 -0.05614 0.00431
v 0.15439 0.37895 -0.00972
v 0.15439 0.37895 -0.05183
v 0.15439 -0.05614 -0.05183
v 0.15439 0.39298 0.00431
v 0.15439 0.39298 -0.00972
v 0.15439 -0.05614 0.00431
v 0.23860 0.37895 -0.00972
v 0.23860 0.37895 -0.05183
v 0.23860 -0.05614 -0.05183
v 0.23860 0.39298 0.00431
v 0.23860 0.39298 -0.00972
v 0.23860 -0.05614 0.00431
v 0.32281 0.37895 -0.00972
v 0.32281 0.37895 -0.05183
v 0.32281 -0.05614 -0.05183
v 0.32281 0.39298 0.00431
v 0.32281 0.39298 -0.00972
v 0.32281 -0.05614 0.00431
v 0.40702 0.37895 -0.00972
v 0.40702 0.37895 -0.05183
v 0.40702 -0.05614 -0.05183
v 0.40702 0.39298 0.00431
v 0.40702 0.39298 -0.00972
v 0.40702 -0.05614 0.00431
v 0.49123 0.37895 -0.00972
v 0.49123 0.37895 -0.05183
v 0.49123 -0.05614 -0.05183
v 0.49123 0.39298 0.00431
v 0.49123 0.39298 -0.00972
v 0.49123 -0.05614 0.00431
v 0.57544 0.37895 -0.00972
v 0.57544 0.37895 -0.05183
v 0.57544 -0.05614 -0.05183
v 0.57544 0.39298 0.00431
v 0.57544 0.39298 -0.00972
v 0.57544 -0.05614 0.00431
v 0.65965 0.37895 -0.00972
v 0.65965 0.37895 -0.05183
v 0.65965 -0.05614 -0.05183
v 0.65965 0.39298 0.00431
v 0.65965 0.39298 -0.00972
v 0.65965 -0.05614 0.00431
v -0.44912 0.37895 -0.05183
v -0.44912 0.37895 -0.00972
v -0.44912 -0.05614 -0.05183
v -0.44912 0.39298 -0.00972
v -0.44912 0.39298 0.00431
v -0.44912 -0.05614 0.00431
v -0.36491 0.37895 -0.05183
v -0.36491 0.37895 -0.00972
v -0.36491 -0.05614 -0.05183
v -0.36491 0.39298 -0.00972
v -0.36491 0.39298 0.00431
v -0.36491 -0.05614 0.00431
v -0.28070 0.37895 -0.05183
v -0.28070 0.37895 -0.00972
v -0.28070 -0.05614 -0.05183
v -0.28070 0.39298 -0.00972
v -0.28070 0.39298 0.00431
v -0.28070 -0.05614 0.00431
v -0.19649 0.37895 -0.05183
v -0.19649 0.37895 -0.00972
v -0.19649 -0.05614 -0.05183
v -0.19649 0.39298 -0.00972
v -0.19649 0.39298 0.00431
v -0.19649 -0.05614 0.00431
v -0.11228 0.37895 -0.05183
v -0.11228 0.37895 -0.00972
v -0.11228 -0.05614 -0.05183
v -0.11228 0.39298 -0.00972
v -0.11228 0.39298 0.00431
v -0.11228 -0.05614 0.00431
v -0.02807 0.37895 -0.05183
v -0.02807 0.37895 -0.00972
v -0.02807 -0.05614 -0.05183
v -0.02807 0.39298 -0.00972
v -0.02807 0.39298 0.00431
v -0.02807 -0.05614 0.00431
v 0.05614 0.37895 -0.05183
v 0.05614 0.37895 -0.00972
v 0.05614 -0.05614 -0.05183
v 0.05614 0.39298 -0.00972
v 0.05614 0.39298 0.00431
v 0.05614 -0.05614 0.00431
v 0.14035 0.37895 -0.05183
v 0.14035 0.37895 -0.00972
v 0.14035 -0.05614 -0.05183
v 0.14035 0.39298 -0.00972
v 0.14035 0.39298 0.00431
v 0.14035 -0.05614 0.00431
v 0.22456 0.37895 -0.05183
v 0.22456 0.37895 -0.00972
v 0.22456 -0.05614 -0.05183
v 0.22456 0.39298 -0.00972
v 0.22456 0.39298 0.00431
v 0.22456 -0.05614 0.00431
v 0.30877 0.37895 -0.05183
v 0.30877 0.37895 -0.00972
v 0.30877 -0.05614 -0.05183
v 0.30877 0.39298 -0.00972
v 0.30877 0.39298 0.00431
v 0.30877 -0.05614 0.00431
v 0.39298 0.37895 -0.05183
v 0.39298 0.37895 -0.00972
v 0.39298 -0.05614 -0.05183
v 0.39298 0.39298 -0.00972
v 0.39298 0.39298 0.00431
v 0.39298 -0.05614 0.00431
v 0.47719 0.37895 -0.05183
v 0.47719 0.37895 -0.00972
v 0.47719 -0.05614 -0.05183
v 0.47719 0.39298 -0.00972
v 0.47719 0.39298 0.00431
v 0.47719 -0.05614 0.00431
v 0.56140 0.37895 -0.05183
v 0.56140 0.37895 -0.00972
v 0.56140 -0.05614 -0.05183
v 0.56140 0.39298 -0.00972
v 0.56140 0.39298 0.00431
v 0.56140 -0.05614 0.00431
v 0.64561 0.37895 -0.05183
v 0.64561 0.37895 -0.00972
v 0.64561 -0.05614 -0.05183
v 0.64561 0.39298 -0.00972
v 0.64561 0.39298 0.00431
v 0.64561 -0.05614 0.00431
v 0.72982 0.37895 -0.05183
v 0.72982 0.37895 -0.00972
v 0.72982 -0.05614 -0.05183
v 0.72982 0.39298 -0.00972
v 0.72982 0.39298 0.00431
v 0.72982 -0.05614 0.00431
v -0.74386 0.11228 0.04824
v -0.74386 0.11228 0.03420
v -0.74386 0.07018 0.03420
v -0.74386 0.07018 0.04824
v -0.74386 -0.02807 0.04824
v -0.74386 -0.02807 0.03420
v -0.74386 -0.07018 0.03420
v -0.74386 -0.07018 0.04824
v -0.72982 0.35088 0.04824
v -0.72982 0.35088 0.03420
v -0.72982 0.19649 0.03420
v -0.72982 0.33684 0.04824
v -0.72982 0.28070 0.04824
v -0.72982 0.26667 0.04824
v -0.72982 0.21053 0.04824
v -0.72982 0.19649 0.04824
v -0.72982 0.33684 0.06227
v -0.72982 0.28070 0.06227
v -0.72982 0.26667 0.06227
v -0.72982 0.21053 0.06227
v -0.64561 0.11228 0.04824
v -0.64561 0.11228 0.03420
v -0.64561 0.07018 0.03420
v -0.64561 0.07018 0.04824
v -0.64561 -0.02807 0.04824
v -0.64561 -0.02807 0.03420
v -0.64561 -0.07018 0.03420
v -0.64561 -0.07018 0.04824
v -0.63158 0.35088 0.04824
v -0.63158 0.35088 0.03420
v -0.63158 0.19649 0.03420
v -0.63158 0.33684 0.04824
v -0.63158 0.28070 0.04824
v -0.63158 0.26667 0.04824
v -0.63158 0.21053 0.04824
v -0.63158 0.19649 0.04824
v -0.63158 0.33684 0.06227
v -0.63158 0.28070 0.06227
v -0.63158 0.26667 0.06227
v -0.63158 0.21053 0.06227
v -0.54737 -0.12632 0.06227
v -0.54737 -0.12632 0.03420
v -0.54737 -0.15439 0.03420
v -0.54737 -0.15439 0.06227
v -0.47719 -0.19649 0.04824
v -0.47719 -0.19649 0.03420
v -0.47719 -0.22456 0.03420
v -0.47719 -0.22456 0.04824
v -0.47719 -0.29474 0.04824
v -0.47719 -0.29474 0.03420
v -0.47719 -0.32281 0.03420
v -0.47719 -0.32281 0.04824
v -0.42105 -0.09825 0.04824
v -0.42105 -0.09825 0.03420
v -0.42105 -0.16842 0.03420
v -0.42105 -0.16842 0.04824
v -0.42105 -0.18246 0.04824
v -0.42105 -0.18246 0.03420
v -0.42105 -0.25263 0.03420
v -0.42105 -0.25263 0.04824
v -0.40702 -0.30877 0.06227
v -0.40702 -0.28070 0.03420
v -0.40702 -0.32281 0.03420
v -0.40702 -0.32281 0.06227
v -0.40702 -0.28070 0.07631
v -0.40702 -0.30877 0.07631
v -0.40702 -0.32281 0.07631
v -0.33684 -0.09825 0.04824
v -0.33684 -0.09825 0.03420
v -0.33684 -0.16842 0.03420
v -0.33684 -0.16842 0.04824
v -0.33684 -0.18246 0.04824
v -0.33684 -0.18246 0.03420
v -0.33684 -0.25263 0.03420
v -0.33684 -0.25263 0.04824
v -0.32281 -0.30877 0.06227
v -0.32281 -0.28070 0.03420
v -0.32281 -0.32281 0.03420
v -0.32281 -0.32281 0.06227
v -0.32281 -0.28070 0.07631
v -0.32281 -0.30877 0.07631
v -0.32281 -0.32281 0.07631
v -0.25263 -0.09825 0.04824
v -0.25263 -0.09825 0.03420
v -0.25263 -0.16842 0.03420
v -0.25263 -0.16842 0.04824
v -0.25263 -0.18246 0.04824
v -0.25263 -0.18246 0.03420
v -0.25263 -0.25263 0.03420
v -0.25263 -0.25263 0.04824
v -0.23860 -0.30877 0.06227
v -0.23860 -0.28070 0.03420
v -0.23860 -0.32281 0.03420
v -0.23860 -0.32281 0.06227
v -0.23860 -0.28070 0.07631
v -0.23860 -0.30877 0.07631
v -0.23860 -0.32281 0.07631
v -0.16842 -0.09825 0.04824
v -0.16842 -0.09825 0.03420
v -0.16842 -0.16842 0.03420
v -0.16842 -0.16842 0.04824
v -0.16842 -0.18246 0.04824
v -0.16842 -0.18246 0.03420
v -0.16842 -0.25263 0.03420
v -0.16842 -0.25263 0.04824
v -0.15439 -0.30877 0.06227
v -0.15439 -0.28070 0.03420
v -0.15439 -0.32281 0.03420
v -0.15439 -0.32281 0.06227
v -0.15439 -0.28070 0.07631
v -0.15439 -0.30877 0.07631
v -0.15439 -0.32281 0.07631
v -0.08421 -0.09825 0.04824
v -0.08421 -0.09825 0.03420
v -0.08421 -0.16842 0.03420
v -0.08421 -0.16842 0.04824
v -0.08421 -0.18246 0.04824
v -0.08421 -0.18246 0.03420
v -0.08421 -0.25263 0.03420
v -0.08421 -0.25263 0.04824
v -0.07018 -0.30877 0.06227
v -0.07018 -0.28070 0.03420
v -0.07018 -0.32281 0.03420
v -0.07018 -0.32281 0.06227
v -0.07018 -0.28070 0.07631
v -0.07018 -0.30877 0.07631
v -0.07018 -0.32281 0.07631
v -0.00000 -0.09825 0.04824
v -0.00000 -0.09825 0.03420
v -0.00000 -0.16842 0.03420
v -0.00000 -0.16842 0.04824
v -0.00000 -0.18246 0.04824
v -0.00000 -0.18246 0.03420
v -0.00000 -0.25263 0.03420
v -0.00000 -0.25263 0.04824
v 0.01404 -0.30877 0.06227
v 0.01404 -0.28070 0.03420
v 0.01404 -0.32281 0.03420
v 0.01404 -0.32281 0.06227
v 0.01404 -0.28070 0.07631
v 0.01404 -0.30877 0.07631
v 0.01404 -0.32281 0.07631
v 0.08421 -0.09825 0.04824
v 0.08421 -0.09825 0.03420
v 0.08421 -0.16842 0.03420
v 0.08421 -0.16842 0.04824
v 0.08421 -0.18246 0.04824
v 0.08421 -0.18246 0.03420
v 0.08421 -0.25263 0.03420
v 0.08421 -0.25263 0.04824
v 0.09825 -0.30877 0.06227
v 0.09825 -0.28070 0.03420
v 0.09825 -0.32281 0.03420
v 0.09825 -0.32281 0.06227
v 0.09825 -0.28070 0.07631
v 0.09825 -0.30877 0.07631
v 0.09825 -0.32281 0.07631
v 0.16842 -0.09825 0.04824
v 0.16842 -0.09825 0.03420
v 0.16842 -0.16842 0.03420
v 0.16842 -0.16842 0.04824
v 0.16842 -0.18246 0.04824
v 0.16842 -0.18246 0.03420
v 0.16842 -0.25263 0.03420
v 0.16842 -0.25263 0.04824
v 0.18246 -0.30877 0.06227
v 0.18246 -0.28070 0.03420
v 0.18246 -0.32281 0.03420
v 0.18246 -0.32281 0.06227
v 0.18246 -0.28070 0.07631
v 0.18246 -0.30877 0.07631
v 0.18246 -0.32281 0.07631
v 0.26667 -0.11228 0.04824
v 0.26667 -0.11228 0.03420
v 0.26667 -0.15439 0.03420
v 0.26667 -0.15439 0.04824
v 0.26667 -0.19649 0.04824
v 0.26667 -0.19649 0.03420
v 0.26667 -0.23860 0.03420
v 0.26667 -0.23860 0.04824
v 0.33684 -0.09825 0.04824
v 0.33684 -0.09825 0.03420
v 0.33684 -0.14035 0.03420
v 0.33684 -0.14035 0.04824
v 0.40702 -0.09825 0.04824
v 0.40702 -0.09825 0.03420
v 0.40702 -0.14035 0.03420
v 0.40702 -0.14035 0.04824
v 0.47719 -0.09825 0.04824
v 0.47719 -0.09825 0.03420
v 0.47719 -0.14035 0.03420
v 0.47719 -0.14035 0.04824
v 0.54737 -0.09825 0.04824
v 0.54737 -0.09825 0.03420
v 0.54737 -0.14035 0.03420
v 0.54737 -0.14035 0.04824
v 0.61754 -0.09825 0.04824
v 0.61754 -0.09825 0.03420
v 0.61754 -0.14035 0.03420
v 0.61754 -0.14035 0.04824
v 0.68772 -0.09825 0.04824
v 0.68772 -0.09825 0.03420
v 0.68772 -0.14035 0.03420
v 0.68772 -0.14035 0.04824
v -0.68772 0.35088 0.03420
v -0.68772 0.35088 0.04824
v -0.68772 0.19649 0.03420
v -0.68772 0.33684 0.04824
v -0.68772 0.28070 0.04824
v -0.68772 0.26667 0.04824
v -0.68772 0.21053 0.04824
v -0.68772 0.19649 0.04824
v -0.68772 0.33684 0.06227
v -0.68772 0.28070 0.06227
v -0.68772 0.26667 0.06227
v -0.68772 0.21053 0.06227
v -0.67368 0.11228 0.03420
v -0.67368 0.11228 0.04824
v -0.67368 0.07018 0.03420
v -0.67368 0.07018 0.04824
v -0.67368 -0.02807 0.03420
v -0.67368 -0.02807 0.04824
v -0.67368 -0.07018 0.03420
v -0.67368 -0.07018 0.04824
v -0.58947 0.35088 0.03420
v -0.58947 0.35088 0.04824
v -0.58947 0.19649 0.03420
v -0.58947 0.33684 0.04824
v -0.58947 0.28070 0.04824
v -0.58947 0.26667 0.04824
v -0.58947 0.21053 0.04824
v -0.58947 0.19649 0.04824
v -0.58947 0.33684 0.06227
v -0.58947 0.28070 0.06227
v -0.58947 0.26667 0.06227
v -0.58947 0.21053 0.06227
v -0.57544 0.11228 0.03420
v -0.57544 0.11228 0.04824
v -0.57544 0.07018 0.03420
v -0.57544 0.07018 0.04824
v -0.57544 -0.02807 0.03420
v -0.57544 -0.02807 0.04824
v -0.57544 -0.07018 0.03420
v -0.57544 -0.07018 0.04824
v -0.50526 -0.12632 0.03420
v -0.50526 -0.12632 0.06227
v -0.50526 -0.15439 0.03420
v -0.50526 -0.15439 0.06227
v -0.44912 -0.19649 0.03420
v -0.44912 -0.19649 0.04824
v -0.44912 -0.22456 0.03420
v -0.44912 -0.22456 0.04824
v -0.44912 -0.29474 0.03420
v -0.44912 -0.29474 0.04824
v -0.44912 -0.32281 0.03420
v -0.44912 -0.32281 0.04824
v -0.36491 -0.28070 0.03420
v -0.36491 -0.28070 0.07631
v -0.36491 -0.32281 0.03420
v -0.36491 -0.32281 0.07631
v -0.35088 -0.09825 0.03420
v -0.35088 -0.09825 0.04824
v -0.35088 -0.16842 0.03420
v -0.35088 -0.16842 0.04824
v -0.35088 -0.18246 0.03420
v -0.35088 -0.18246 0.04824
v -0.35088 -0.25263 0.03420
v -0.35088 -0.25263 0.04824
v -0.28070 -0.28070 0.03420
v -0.28070 -0.28070 0.07631
v -0.28070 -0.32281 0.03420
v -0.28070 -0.32281 0.07631
v -0.26667 -0.09825 0.03420
v -0.26667 -0.09825 0.04824
v -0.26667 -0.16842 0.03420
v -0.26667 -0.16842 0.04824
v -0.26667 -0.18246 0.03420
v -0.26667 -0.18246 0.04824
v -0.26667 -0.25263 0.03420
v -0.26667 -0.25263 0.04824
v -0.19649 -0.28070 0.03420
v -0.19649 -0.28070 0.07631
v -0.19649 -0.32281 0.03420
v -0.19649 -0.32281 0.07631
v -0.18246 -0.09825 0.03420
v -0.18246 -0.09825 0.04824
v -0.18246 -0.16842 0.03420
v -0.18246 -0.16842 0.04824
v -0.18246 -0.18246 0.03420
v -0.18246 -0.18246 0.04824
v -0.18246 -0.25263 0.03420
v -0.18246 -0.25263 0.04824
v -0.11228 -0.28070 0.03420
v -0.11228 -0.28070 0.07631
v -0.11228 -0.32281 0.03420
v -0.11228 -0.32281 0.07631
v -0.09825 -0.09825 0.03420
v -0.09825 -0.09825 0.04824
v -0.09825 -0.16842 0.03420
v -0.09825 -0.16842 0.04824
v -0.09825 -0.18246 0.03420
v -0.09825 -0.18246 0.04824
v -0.09825 -0.25263 0.03420
v -0.09825 -0.25263 0.04824
v -0.02807 -0.28070 0.03420
v -0.02807 -0.28070 0.07631
v -0.02807 -0.32281 0.03420
v -0.02807 -0.32281 0.07631
v -0.01404 -0.09825 0.03420
v -0.01404 -0.09825 0.04824
v -0.01404 -0.16842 0.03420
v -0.01404 -0.16842 0.04824
v -0.01404 -0.18246 0.03420
v -0.01404 -0.18246 0.04824
v -0.01404 -0.25263 0.03420
v -0.01404 -0.25263 0.04824
v 0.05614 -0.28070 0.03420
v 0.05614 -0.28070 0.07631
v 0.05614 -0.32281 0.03420
v 0.05614 -0.32281 0.07631
v 0.07018 -0.09825 0.03420
v 0.07018 -0.09825 0.04824
v 0.07018 -0.16842 0.03420
v 0.07018 -0.16842 0.04824
v 0.07018 -0.18246 0.03420
v 0.07018 -0.18246 0.04824
v 0.07018 -0.25263 0.03420
v 0.07018 -0.25263 0.04824
v 0.14035 -0.28070 0.03420
v 0.14035 -0.28070 0.07631
v 0.14035 -0.32281 0.03420
v 0.14035 -0.32281 0.07631
v 0.15439 -0.09825 0.03420
v 0.15439 -0.09825 0.04824
v 0.15439 -0.16842 0.03420
v 0.15439 -0.16842 0.04824
v 0.15439 -0.18246 0.03420
v 0.15439 -0.18246 0.04824
v 0.15439 -0.25263 0.03420
v 0.15439 -0.25263 0.04824
v 0.22456 -0.28070 0.03420
v 0.22456 -0.28070 0.07631
v 0.22456 -0.32281 0.03420
v 0.22456 -0.32281 0.07631
v 0.23860 -0.09825 0.03420
v 0.23860 -0.09825 0.04824
v 0.23860 -0.16842 0.03420
v 0.23860 -0.16842 0.04824
v 0.23860 -0.18246 0.03420
v 0.23860 -0.18246 0.04824
v 0.23860 -0.25263 0.03420
v 0.23860 -0.25263 0.04824
v 0.30877 -0.11228 0.03420
v 0.30877 -0.11228 0.04824
v 0.30877 -0.15439 0.03420
v 0.30877 -0.15439 0.04824
v 0.30877 -0.19649 0.03420
v 0.30877 -0.19649 0.04824
v 0.30877 -0.23860 0.03420
v 0.30877 -0.23860 0.04824
v 0.37895 -0.09825 0.03420
v 0.37895 -0.09825 0.04824
v 0.37895 -0.14035 0.03420
v 0.37895 -0.14035 0.04824
v 0.44912 -0.09825 0.03420
v 0.44912 -0.09825 0.04824
v 0.44912 -0.14035 0.03420
v 0.44912 -0.14035 0.04824
v 0.51930 -0.09825 0.03420
v 0.51930 -0.09825 0.04824
v 0.51930 -0.14035 0.03420
v 0.51930 -0.14035 0.04824
v 0.58947 -0.09825 0.03420
v 0.58947 -0.09825 0.04824
v 0.58947 -0.14035 0.03420
v 0.58947 -0.14035 0.04824
v 0.65965 -0.09825 0.03420
v 0.65965 -0.09825 0.04824
v 0.65965 -0.14035 0.03420
v 0.65965 -0.14035 0.04824
v 0.72982 -0.09825 0.03420
v 0.72982 -0.09825 0.04824
v 0.72982 -0.14035 0.03420
v 0.72982 -0.14035 0.04824
v -0.39298 -0.32281 0.06227
v -0.39298 -0.32281 0.07631
v -0.30877 -0.32281 0.06227
v -0.30877 -0.32281 0.07631
v -0.22456 -0.32281 0.06227
v -0.22456 -0.32281 0.07631
v -0.14035 -0.32281 0.06227
v -0.14035 -0.32281 0.07631
v -0.05614 -0.32281 0.06227
v -0.05614 -0.32281 0.07631
v 0.02807 -0.32281 0.06227
v 0.02807 -0.32281 0.07631
v 0.11228 -0.32281 0.06227
v 0.11228 -0.32281 0.07631
v 0.19649 -0.32281 0.06227
v 0.19649 -0.32281 0.07631
v 0.35088 -0.11228 0.04824
v 0.36491 -0.11228 0.04824
v 0.42105 -0.11228 0.04824
v 0.43509 -0.11228 0.04824
v 0.49123 -0.11228 0.04824
v 0.50526 -0.11228 0.04824
v 0.56140 -0.11228 0.04824
v 0.57544 -0.11228 0.04824
v 0.63158 -0.11228 0.04824
v 0.64561 -0.11228 0.04824
v 0.70175 -0.11228 0.04824
v 0.71579 -0.11228 0.04824
v 0.28070 -0.12632 0.04824
v 0.29474 -0.12632 0.04824
v 0.35088 -0.12632 0.04824
v 0.36491 -0.12632 0.04824
v 0.42105 -0.12632 0.04824
v 0.43509 -0.12632 0.04824
v 0.49123 -0.12632 0.04824
v 0.50526 -0.12632 0.04824
v 0.56140 -0.12632 0.04824
v 0.57544 -0.12632 0.04824
v 0.63158 -0.12632 0.04824
v 0.64561 -0.12632 0.04824
v 0.70175 -0.12632 0.04824
v 0.71579 -0.12632 0.04824
v 0.28070 -0.14035 0.04824
v 0.29474 -0.14035 0.04824
v 0.28070 -0.21053 0.04824
v 0.29474 -0.21053 0.04824
v 0.28070 -0.22456 0.04824
v 0.29474 -0.22456 0.04824
v -0.39298 -0.30877 0.07631
v -0.30877 -0.30877 0.07631
v -0.22456 -0.30877 0.07631
v -0.14035 -0.30877 0.07631
v -0.05614 -0.30877 0.07631
v 0.02807 -0.30877 0.07631
v 0.11228 -0.30877 0.07631
v 0.19649 -0.30877 0.07631
v -0.74386 0.15439 0.03678
v -0.72982 0.14035 0.03678
v -0.57544 0.15439 0.03678
v -0.58947 0.14035 0.03678
v -0.74386 0.12632 0.03678
v -0.72982 0.12632 0.03678
v -0.58947 0.12632 0.03678
v -0.57544 0.12632 0.03678
v -0.70175 0.05614 0.03678
v -0.70175 0.04211 0.03678
v -0.68772 0.05614 0.03678
v -0.68772 0.04211 0.03678
v -0.67368 0.05614 0.03678
v -0.67368 0.04211 0.03678
v -0.65965 0.05614 0.03678
v -0.65965 0.04211 0.03678
v -0.64561 0.05614 0.03678
v -0.64561 0.04211 0.03678
v -0.61754 0.05614 0.03678
v -0.61754 0.04211 0.03678
v -0.74386 0.01404 0.03678
v -0.72982 0.00000 0.03678
v -0.57544 0.01404 0.03678
v -0.58947 0.00000 0.03678
v -0.74386 -0.01404 0.03678
v -0.72982 -0.01404 0.03678
v -0.58947 -0.01404 0.03678
v -0.57544 -0.01404 0.03678
v -0.70175 -0.09825 0.03678
v -0.70175 -0.11228 0.03678
v -0.64561 -0.09825 0.03678
v -0.64561 -0.11228 0.03678
v -0.63158 -0.09825 0.03678
v -0.63158 -0.11228 0.03678
v -0.61754 -0.09825 0.03678
v -0.61754 -0.11228 0.03678
v -0.40702 -0.26667 0.03678
v -0.40702 -0.28070 0.03678
v -0.36491 -0.26667 0.03678
v -0.36491 -0.28070 0.03678
v -0.32281 -0.26667 0.03678
v -0.32281 -0.28070 0.03678
v -0.28070 -0.26667 0.03678
v -0.28070 -0.28070 0.03678
v -0.23860 -0.26667 0.03678
v -0.23860 -0.28070 0.03678
v -0.19649 -0.26667 0.03678
v -0.19649 -0.28070 0.03678
v -0.15439 -0.26667 0.03678
v -0.15439 -0.28070 0.03678
v -0.11228 -0.26667 0.03678
v -0.11228 -0.28070 0.03678
v -0.07018 -0.26667 0.03678
v -0.07018 -0.28070 0.03678
v -0.02807 -0.26667 0.03678
v -0.02807 -0.28070 0.03678
v 0.01404 -0.26667 0.03678
v 0.01404 -0.28070 0.03678
v 0.05614 -0.26667 0.03678
v 0.05614 -0.28070 0.03678
v 0.09825 -0.26667 0.03678
v 0.09825 -0.28070 0.03678
v 0.14035 -0.26667 0.03678
v 0.14035 -0.28070 0.03678
v 0.18246 -0.26667 0.03678
v 0.18246 -0.28070 0.03678
v 0.22456 -0.26667 0.03678
v 0.22456 -0.28070 0.03678
v -0.42105 -0.32281 0.03678
v -0.35088 -0.28070 0.03678
v -0.42105 -0.28070 0.03678
v -0.40702 -0.32281 0.03678
v -0.36491 -0.32281 0.03678
v -0.35088 -0.32281 0.03678
v -0.33684 -0.32281 0.03678
v -0.26667 -0.28070 0.03678
v -0.33684 -0.28070 0.03678
v -0.32281 -0.32281 0.03678
v -0.28070 -0.32281 0.03678
v -0.26667 -0.32281 0.03678
v -0.25263 -0.32281 0.03678
v -0.18246 -0.28070 0.03678
v -0.25263 -0.28070 0.03678
v -0.23860 -0.32281 0.03678
v -0.19649 -0.32281 0.03678
v -0.18246 -0.32281 0.03678
v -0.16842 -0.32281 0.03678
v -0.09825 -0.28070 0.03678
v -0.16842 -0.28070 0.03678
v -0.15439 -0.32281 0.03678
v -0.11228 -0.32281 0.03678
v -0.09825 -0.32281 0.03678
v -0.08421 -0.32281 0.03678
v -0.01404 -0.28070 0.03678
v -0.08421 -0.28070 0.03678
v -0.07018 -0.32281 0.03678
v -0.02807 -0.32281 0.03678
v -0.01404 -0.32281 0.03678
v -0.00000 -0.32281 0.03678
v 0.07018 -0.28070 0.03678
v -0.00000 -0.28070 0.03678
v 0.01404 -0.32281 0.03678
v 0.05614 -0.32281 0.03678
v 0.07018 -0.32281 0.03678
v 0.08421 -0.32281 0.03678
v 0.15439 -0.28070 0.03678
v 0.08421 -0.28070 0.03678
v 0.09825 -0.32281 0.03678
v 0.14035 -0.32281 0.03678
v 0.15439 -0.32281 0.03678
v 0.16842 -0.32281 0.03678
v 0.23860 -0.28070 0.03678
v 0.16842 -0.28070 0.03678
v 0.18246 -0.32281 0.03678
v 0.22456 -0.32281 0.03678
v 0.23860 -0.32281 0.03678
v -0.40702 -0.33684 0.03678
v -0.36491 -0.33684 0.03678
v -0.32281 -0.33684 0.03678
v -0.28070 -0.33684 0.03678
v -0.23860 -0.33684 0.03678
v -0.19649 -0.33684 0.03678
v -0.15439 -0.33684 0.03678
v -0.11228 -0.33684 0.03678
v -0.07018 -0.33684 0.03678
v -0.02807 -0.33684 0.03678
v 0.01404 -0.33684 0.03678
v 0.05614 -0.33684 0.03678
v 0.09825 -0.33684 0.03678
v 0.14035 -0.33684 0.03678
v 0.18246 -0.33684 0.03678
v 0.22456 -0.33684 0.03678
v -0.63158 -0.16842 0.03737
v -0.61754 -0.18246 0.03737
v -0.58947 -0.16842 0.03737
v -0.60351 -0.18246 0.03737
v -0.61754 -0.22456 0.03737
v -0.60351 -0.22456 0.03737
v -0.63158 -0.23860 0.03737
v -0.58947 -0.23860 0.03737
v -0.75789 -0.15439 0.03674
v -0.75789 -0.25263 0.03674
v -0.57544 -0.15439 0.03674
v -0.57544 -0.25263 0.03674
v 0.35088 -0.15439 0.03726
v 0.35088 -0.16842 0.03726
v 0.36491 -0.15439 0.03726
v 0.36491 -0.16842 0.03726
v 0.42105 -0.15439 0.03726
v 0.42105 -0.16842 0.03726
v 0.43509 -0.15439 0.03726
v 0.43509 -0.16842 0.03726
v 0.33684 -0.18246 0.03726
v 0.35088 -0.19649 0.03726
v 0.35088 -0.18246 0.03726
v 0.43509 -0.18246 0.03726
v 0.43509 -0.19649 0.03726
v 0.44912 -0.18246 0.03726
v 0.33684 -0.21053 0.03726
v 0.44912 -0.21053 0.03726
v 0.36491 -0.22456 0.03726
v 0.36491 -0.23860 0.03726
v 0.37895 -0.22456 0.03726
v 0.37895 -0.23860 0.03726
v 0.39298 -0.22456 0.03726
v 0.39298 -0.23860 0.03726
v 0.42105 -0.22456 0.03726
v 0.42105 -0.23860 0.03726
v 0.56140 -0.23860 0.03726
v 0.56140 -0.25263 0.03726
v 0.57544 -0.23860 0.03726
v 0.57544 -0.25263 0.03726
v 0.58947 -0.23860 0.03726
v 0.58947 -0.25263 0.03726
v 0.61754 -0.23860 0.03726
v 0.61754 -0.25263 0.03726
v 0.63158 -0.23860 0.03726
v 0.63158 -0.25263 0.03726
v 0.64561 -0.23860 0.03726
v 0.64561 -0.25263 0.03726
v 0.65965 -0.23860 0.03726
v 0.65965 -0.25263 0.03726
v 0.70175 -0.23860 0.03726
v 0.70175 -0.25263 0.03726
v 0.71579 -0.23860 0.03726
v 0.71579 -0.26667 0.03726
v 0.74386 -0.23860 0.03726
v 0.74386 -0.26667 0.03726
v 0.33684 -0.28070 0.03726
v 0.36491 -0.29474 0.03726
v 0.39298 -0.28070 0.03726
v 0.37895 -0.29474 0.03726
v 0.42105 -0.28070 0.03726
v 0.43509 -0.29474 0.03726
v 0.43509 -0.28070 0.03726
v 0.49123 -0.28070 0.03726
v 0.49123 -0.29474 0.03726
v 0.50526 -0.28070 0.03726
v 0.50526 -0.29474 0.03726
v 0.60351 -0.28070 0.03726
v 0.60351 -0.29474 0.03726
v 0.61754 -0.28070 0.03726
v 0.64561 -0.28070 0.03726
v 0.65965 -0.29474 0.03726
v 0.65965 -0.28070 0.03726
v 0.67368 -0.28070 0.03726
v 0.67368 -0.29474 0.03726
v 0.68772 -0.28070 0.03726
v 0.72982 -0.28070 0.03726
v 0.72982 -0.29474 0.03726
v 0.74386 -0.28070 0.03726
v 0.35088 -0.30877 0.03726
v 0.36491 -0.30877 0.03726
v 0.37895 -0.30877 0.03726
v 0.43509 -0.30877 0.03726
v 0.46316 -0.29474 0.03726
v 0.44912 -0.30877 0.03726
v 0.47719 -0.30877 0.03726
v 0.51930 -0.29474 0.03726
v 0.47719 -0.29474 0.03726
v 0.50526 -0.30877 0.03726
v 0.53333 -0.28070 0.03726
v 0.53333 -0.30877 0.03726
v 0.56140 -0.28070 0.03726
v 0.56140 -0.30877 0.03726
v 0.58947 -0.29474 0.03726
v 0.58947 -0.30877 0.03726
v 0.60351 -0.30877 0.03726
v 0.64561 -0.30877 0.03726
v 0.65965 -0.30877 0.03726
v 0.70175 -0.29474 0.03726
v 0.70175 -0.30877 0.03726
v 0.71579 -0.30877 0.03726
v 0.72982 -0.30877 0.03726
v 0.74386 -0.30877 0.03726
v 0.35088 -0.32281 0.03726
v 0.36491 -0.32281 0.03726
v 0.42105 -0.32281 0.03726
v 0.43509 -0.32281 0.03726
v 0.44912 -0.32281 0.03726
v 0.46316 -0.32281 0.03726
v 0.50526 -0.32281 0.03726
v 0.51930 -0.32281 0.03726
v 0.56140 -0.32281 0.03726
v 0.57544 -0.30877 0.03726
v 0.57544 -0.32281 0.03726
v 0.60351 -0.32281 0.03726
v 0.61754 -0.32281 0.03726
v 0.65965 -0.32281 0.03726
v 0.68772 -0.32281 0.03726
v 0.71579 -0.32281 0.03726
v 0.72982 -0.32281 0.03726
v 0.33684 -0.33684 0.03726
v 0.39298 -0.33684 0.03726
vt 0.10000 0.10000
vt 0.10000 0.30000
vt 0.10000 0.50000
vt 0.10000 0.70000
vt 0.10000 0.90000
vt 0.30000 0.30000
vt 0.30000 0.50000
vt 0.30000 0.70000
vt 0.30000 0.90000
vt 0.50000 0.30000
vt 0.50000 0.50000
vt 0.50000 0.70000
vt 0.50000 0.90000
vt 0.70000 0.30000
vt 0.70000 0.50000
vt 0.70000 0.70000
vt 0.70000 0.90000
vt 0.90000 0.30000
vt 0.90000 0.50000
vt 0.90000 0.70000
vt 0.90000 0.90000
vn -1.0000 0.0000 -0.0000
vn 1.0000 -0.0000 -0.0000
vn 0.0000 1.0000 0.0000
vn -0.0000 -1.0000 0.0000
vn 0.0000 0.0000 -1.0000
vn 0.0000 0.0000 1.0000
f 1/3/1 2/3/1 3/3/1
f 4/3/1 1/3/1 3/3/1
f 5/3/1 6/3/1 7/3/1
f 8/3/1 5/3/1 7/3/1
f 9/3/1 10/3/1 11/3/1
f 12/3/1 9/3/1 11/3/1
f 13/3/1 14/3/1 15/3/1
f 16/3/1 13/3/1 15/3/1
f 17/3/2 18/3/2 19/3/2
f 18/3/2 20/3/2 19/3/2
f 21/3/2 22/3/2 23/3/2
f 22/3/2 24/3/2 23/3/2
f 25/3/2 26/3/2 27/3/2
f 26/3/2 28/3/2 27/3/2
f 29/3/2 30/3/2 31/3/2
f 30/3/2 32/3/2 31/3/2
f 21/3/3 2/3/3 1/3/3
f 22/3/3 21/3/3 1/3/3
f 14/3/3 2/3/3 21/3/3
f 29/3/3 14/3/3 13/3/3
f 29/3/3 2/3/3 14/3/3
f 30/3/3 29/3/3 13/3/3
f 15/3/3 23/3/3 24/3/3
f 16/3/3 15/3/3 24/3/3
f 7/3/3 19/3/3 20/3/3
f 8/3/3 7/3/3 20/3/3
f 11/3/3 27/3/3 28/3/3
f 12/3/3 11/3/3 28/3/3
f 17/3/4 6/3/4 18/3/4
f 6/3/4 5/3/4 18/3/4
f 25/3/4 10/3/4 26/3/4
f 10/3/4 9/3/4 26/3/4
f 3/3/4 31/3/4 4/3/4
f 31/3/4 32/3/4 4/3/4
f 3/3/5 2/3/5 29/3/5
f 31/3/5 3/3/5 29/3/5
f 28/3/5 26/3/5 9/3/5
f 12/3/5 28/3/5 9/3/5
f 21/3/6 23/3/6 14/3/6
f 23/3/6 15/3/6 14/3/6
f 25/3/6 27/3/6 10/3/6
f 27/3/6 11/3/6 10/3/6
f 17/3/6 19/3/6 6/3/6
f 19/3/6 7/3/6 6/3/6
f 1/3/6 24/3/6 22/3/6
f 13/3/6 16/3/6 30/3/6
f 1/3/6 18/3/6 24/3/6
f 24/3/6 18/3/6 16/3/6
f 18/3/6 5/3/6 16/3/6
f 1/3/6 20/3/6 18/3/6
f 5/3/6 8/3/6 16/3/6
f 1/3/6 4/3/6 20/3/6
f 20/3/6 4/3/6 8/3/6
f 16/3/6 32/3/6 30/3/6
f 4/3/6 32/3/6 8/3/6
f 8/3/6 32/3/6 16/3/6
f 33/16/1 34/16/1 35/16/1
f 36/16/1 33/16/1 35/16/1
f 37/16/1 38/16/1 39/16/1
f 40/16/1 37/16/1 39/16/1
f 41/16/1 42/16/1 43/16/1
f 44/16/1 41/16/1 43/16/1
f 45/16/1 46/16/1 47/16/1
f 48/16/1 45/16/1 47/16/1
f 49/16/1 50/16/1 51/16/1
f 52/16/1 49/16/1 51/16/1
f 53/16/1 54/16/1 55/16/1
f 56/16/1 53/16/1 55/16/1
f 57/16/1 58/16/1 59/16/1
f 60/16/1 57/16/1 59/16/1
f 61/16/1 62/16/1 63/16/1
f 64/16/1 61/16/1 63/16/1
f 65/16/1 66/16/1 67/16/1
f 68/16/1 65/16/1 67/16/1
f 69/16/1 70/16/1 71/16/1
f 72/16/1 69/16/1 71/16/1
f 73/16/2 74/16/2 75/16/2
f 74/16/2 76/16/2 75/16/2
f 77/16/2 78/16/2 79/16/2
f 78/16/2 80/16/2 79/16/2
f 81/16/2 82/16/2 83/16/2
f 82/16/2 84/16/2 83/16/2
f 85/16/2 86/16/2 87/16/2
f 86/16/2 88/16/2 87/16/2
f 89/16/2 90/16/2 91/16/2
f 90/16/2 92/16/2 91/16/2
f 93/16/2 94/16/2 95/16/2
f 94/16/2 96/16/2 95/16/2
f 97/16/2 98/16/2 99/16/2
f 98/16/2 100/16/2 99/16/2
f 101/16/2 102/16/2 103/16/2
f 102/16/2 104/16/2 103/16/2
f 105/16/2 106/16/2 107/16/2
f 106/16/2 108/16/2 107/16/2
f 109/16/2 110/16/2 111/16/2
f 110/16/2 112/16/2 111/16/2
f 73/16/3 34/16/3 33/16/3
f 74/16/3 73/16/3 33/16/3
f 77/16/3 38/16/3 37/16/3
f 78/16/3 77/16/3 37/16/3
f 81/16/3 42/16/3 41/16/3
f 82/16/3 81/16/3 41/16/3
f 85/16/3 46/16/3 45/16/3
f 86/16/3 85/16/3 45/16/3
f 89/16/3 50/16/3 49/16/3
f 90/16/3 89/16/3 49/16/3
f 93/16/3 54/16/3 53/16/3
f 94/16/3 93/16/3 53/16/3
f 97/16/3 58/16/3 57/16/3
f 98/16/3 97/16/3 57/16/3
f 101/16/3 62/16/3 61/16/3
f 102/16/3 101/16/3 61/16/3
f 105/16/3 66/16/3 65/16/3
f 106/16/3 105/16/3 65/16/3
f 109/16/3 70/16/3 69/16/3
f 110/16/3 109/16/3 69/16/3
f 33/16/6 36/16/6 74/16/6
f 36/16/6 76/16/6 74/16/6
f 37/16/6 40/16/6 78/16/6
f 40/16/6 80/16/6 78/16/6
f 41/16/6 44/16/6 82/16/6
f 44/16/6 84/16/6 82/16/6
f 45/16/6 48/16/6 86/16/6
f 48/16/6 88/16/6 86/16/6
f 49/16/6 52/16/6 90/16/6
f 52/16/6 92/16/6 90/16/6
f 53/16/6 56/16/6 94/16/6
f 56/16/6 96/16/6 94/16/6
f 57/16/6 60/16/6 98/16/6
f 60/16/6 100/16/6 98/16/6
f 61/16/6 64/16/6 102/16/6
f 64/16/6 104/16/6 102/16/6
f 65/16/6 68/16/6 106/16/6
f 68/16/6 108/16/6 106/16/6
f 69/16/6 72/16/6 110/16/6
f 72/16/6 112/16/6 110/16/6
f 113/14/1 114/14/1 115/14/1
f 116/14/1 117/14/1 113/14/1
f 118/14/1 113/14/1 115/14/1
f 118/14/1 116/14/1 113/14/1
f 119/14/1 120/14/1 121/14/1
f 122/14/1 123/14/1 119/14/1
f 124/14/1 119/14/1 121/14/1
f 124/14/1 122/14/1 119/14/1
f 125/14/1 126/14/1 127/14/1
f 128/14/1 129/14/1 125/14/1
f 130/14/1 125/14/1 127/14/1
f 130/14/1 128/14/1 125/14/1
f 131/14/1 132/14/1 133/14/1
f 134/14/1 135/14/1 131/14/1
f 136/14/1 131/14/1 133/14/1
f 136/14/1 134/14/1 131/14/1
f 137/14/1 138/14/1 139/14/1
f 140/14/1 141/14/1 137/14/1
f 142/14/1 137/14/1 139/14/1
f 142/14/1 140/14/1 137/14/1
f 143/14/1 144/14/1 145/14/1
f 146/14/1 147/14/1 143/14/1
f 148/14/1 143/14/1 145/14/1
f 148/14/1 146/14/1 143/14/1
f 149/14/1 150/14/1 151/14/1
f 152/14/1 153/14/1 149/14/1
f 154/14/1 149/14/1 151/14/1
f 154/14/1 152/14/1 149/14/1
f 155/14/1 156/14/1 157/14/1
f 158/14/1 159/14/1 155/14/1
f 160/14/1 155/14/1 157/14/1
f 160/14/1 158/14/1 155/14/1
f 161/14/1 162/14/1 163/14/1
f 164/14/1 165/14/1 161/14/1
f 166/14/1 161/14/1 163/14/1
f 166/14/1 164/14/1 161/14/1
f 167/14/1 168/14/1 169/14/1
f 170/14/1 171/14/1 167/14/1
f 172/14/1 167/14/1 169/14/1
f 172/14/1 170/14/1 167/14/1
f 173/14/1 174/14/1 175/14/1
f 176/14/1 177/14/1 173/14/1
f 178/14/1 173/14/1 175/14/1
f 178/14/1 176/14/1 173/14/1
f 179/14/1 180/14/1 181/14/1
f 182/14/1 183/14/1 179/14/1
f 184/14/1 179/14/1 181/14/1
f 184/14/1 182/14/1 179/14/1
f 185/14/1 186/14/1 187/14/1
f 188/14/1 189/14/1 185/14/1
f 190/14/1 185/14/1 187/14/1
f 190/14/1 188/14/1 185/14/1
f 191/14/1 192/14/1 193/14/1
f 194/14/1 195/14/1 191/14/1
f 196/14/1 191/14/1 193/14/1
f 196/14/1 194/14/1 191/14/1
f 197/14/1 198/14/1 199/14/1
f 200/14/1 201/14/1 197/14/1
f 202/14/1 197/14/1 199/14/1
f 202/14/1 200/14/1 197/14/1
f 203/14/2 204/14/2 205/14/2
f 206/14/2 207/14/2 204/14/2
f 204/14/2 208/14/2 205/14/2
f 207/14/2 208/14/2 204/14/2
f 209/14/2 210/14/2 211/14/2
f 212/14/2 213/14/2 210/14/2
f 210/14/2 214/14/2 211/14/2
f 213/14/2 214/14/2 210/14/2
f 215/14/2 216/14/2 217/14/2
f 218/14/2 219/14/2 216/14/2
f 216/14/2 220/14/2 217/14/2
f 219/14/2 220/14/2 216/14/2
f 221/14/2 222/14/2 223/14/2
f 224/14/2 225/14/2 222/14/2
f 222/14/2 226/14/2 223/14/2
f 225/14/2 226/14/2 222/14/2
f 227/14/2 228/14/2 229/14/2
f 230/14/2 231/14/2 228/14/2
f 228/14/2 232/14/2 229/14/2
f 231/14/2 232/14/2 228/14/2
f 233/14/2 234/14/2 235/14/2
f 236/14/2 237/14/2 234/14/2
f 234/14/2 238/14/2 235/14/2
f 237/14/2 238/14/2 234/14/2
f 239/14/2 240/14/2 241/14/2
f 242/14/2 243/14/2 240/14/2
f 240/14/2 244/14/2 241/14/2
f 243/14/2 244/14/2 240/14/2
f 245/14/2 246/14/2 247/14/2
f 248/14/2 249/14/2 246/14/2
f 246/14/2 250/14/2 247/14/2
f 249/14/2 250/14/2 246/14/2
f 251/14/2 252/14/2 253/14/2
f 254/14/2 255/14/2 252/14/2
f 252/14/2 256/14/2 253/14/2
f 255/14/2 256/14/2 252/14/2
f 257/14/2 258/14/2 259/14/2
f 260/14/2 261/14/2 258/14/2
f 258/14/2 262/14/2 259/14/2
f 261/14/2 262/14/2 258/14/2
f 263/14/2 264/14/2 265/14/2
f 266/14/2 267/14/2 264/14/2
f 264/14/2 268/14/2 265/14/2
f 267/14/2 268/14/2 264/14/2
f 269/14/2 270/14/2 271/14/2
f 272/14/2 273/14/2 270/14/2
f 270/14/2 274/14/2 271/14/2
f 273/14/2 274/14/2 270/14/2
f 275/14/2 276/14/2 277/14/2
f 278/14/2 279/14/2 276/14/2
f 276/14/2 280/14/2 277/14/2
f 279/14/2 280/14/2 276/14/2
f 281/14/2 282/14/2 283/14/2
f 284/14/2 285/14/2 282/14/2
f 282/14/2 286/14/2 283/14/2
f 285/14/2 286/14/2 282/14/2
f 287/14/2 288/14/2 289/14/2
f 290/14/2 291/14/2 288/14/2
f 288/14/2 292/14/2 289/14/2
f 291/14/2 292/14/2 288/14/2
f 206/14/3 117/14/3 116/14/3
f 207/14/3 206/14/3 116/14/3
f 212/14/3 123/14/3 122/14/3
f 213/14/3 212/14/3 122/14/3
f 218/14/3 129/14/3 128/14/3
f 219/14/3 218/14/3 128/14/3
f 224/14/3 135/14/3 134/14/3
f 225/14/3 224/14/3 134/14/3
f 230/14/3 141/14/3 140/14/3
f 231/14/3 230/14/3 140/14/3
f 236/14/3 147/14/3 146/14/3
f 237/14/3 236/14/3 146/14/3
f 242/14/3 153/14/3 152/14/3
f 243/14/3 242/14/3 152/14/3
f 248/14/3 159/14/3 158/14/3
f 249/14/3 248/14/3 158/14/3
f 254/14/3 165/14/3 164/14/3
f 255/14/3 254/14/3 164/14/3
f 260/14/3 171/14/3 170/14/3
f 261/14/3 260/14/3 170/14/3
f 266/14/3 177/14/3 176/14/3
f 267/14/3 266/14/3 176/14/3
f 272/14/3 183/14/3 182/14/3
f 273/14/3 272/14/3 182/14/3
f 278/14/3 189/14/3 188/14/3
f 279/14/3 278/14/3 188/14/3
f 284/14/3 195/14/3 194/14/3
f 285/14/3 284/14/3 194/14/3
f 290/14/3 201/14/3 200/14/3
f 291/14/3 290/14/3 200/14/3
f 203/14/3 114/14/3 113/14/3
f 204/14/3 203/14/3 113/14/3
f 209/14/3 120/14/3 119/14/3
f 210/14/3 209/14/3 119/14/3
f 215/14/3 126/14/3 125/14/3
f 216/14/3 215/14/3 125/14/3
f 221/14/3 132/14/3 131/14/3
f 222/14/3 221/14/3 131/14/3
f 227/14/3 138/14/3 137/14/3
f 228/14/3 227/14/3 137/14/3
f 233/14/3 144/14/3 143/14/3
f 234/14/3 233/14/3 143/14/3
f 239/14/3 150/14/3 149/14/3
f 240/14/3 239/14/3 149/14/3
f 245/14/3 156/14/3 155/14/3
f 246/14/3 245/14/3 155/14/3
f 251/14/3 162/14/3 161/14/3
f 252/14/3 251/14/3 161/14/3
f 257/14/3 168/14/3 167/14/3
f 258/14/3 257/14/3 167/14/3
f 263/14/3 174/14/3 173/14/3
f 264/14/3 263/14/3 173/14/3
f 269/14/3 180/14/3 179/14/3
f 270/14/3 269/14/3 179/14/3
f 275/14/3 186/14/3 185/14/3
f 276/14/3 275/14/3 185/14/3
f 281/14/3 192/14/3 191/14/3
f 282/14/3 281/14/3 191/14/3
f 287/14/3 198/14/3 197/14/3
f 288/14/3 287/14/3 197/14/3
f 113/14/5 117/14/5 206/14/5
f 204/14/5 113/14/5 206/14/5
f 119/14/5 123/14/5 212/14/5
f 210/14/5 119/14/5 212/14/5
f 125/14/5 129/14/5 218/14/5
f 216/14/5 125/14/5 218/14/5
f 131/14/5 135/14/5 224/14/5
f 222/14/5 131/14/5 224/14/5
f 137/14/5 141/14/5 230/14/5
f 228/14/5 137/14/5 230/14/5
f 143/14/5 147/14/5 236/14/5
f 234/14/5 143/14/5 236/14/5
f 149/14/5 153/14/5 242/14/5
f 240/14/5 149/14/5 242/14/5
f 155/14/5 159/14/5 248/14/5
f 246/14/5 155/14/5 248/14/5
f 161/14/5 165/14/5 254/14/5
f 252/14/5 161/14/5 254/14/5
f 167/14/5 171/14/5 260/14/5
f 258/14/5 167/14/5 260/14/5
f 173/14/5 177/14/5 266/14/5
f 264/14/5 173/14/5 266/14/5
f 179/14/5 183/14/5 272/14/5
f 270/14/5 179/14/5 272/14/5
f 185/14/5 189/14/5 278/14/5
f 276/14/5 185/14/5 278/14/5
f 191/14/5 195/14/5 284/14/5
f 282/14/5 191/14/5 284/14/5
f 197/14/5 201/14/5 290/14/5
f 288/14/5 197/14/5 290/14/5
f 116/14/6 118/14/6 207/14/6
f 118/14/6 208/14/6 207/14/6
f 122/14/6 124/14/6 213/14/6
f 124/14/6 214/14/6 213/14/6
f 128/14/6 130/14/6 219/14/6
f 130/14/6 220/14/6 219/14/6
f 134/14/6 136/14/6 225/14/6
f 136/14/6 226/14/6 225/14/6
f 140/14/6 142/14/6 231/14/6
f 142/14/6 232/14/6 231/14/6
f 146/14/6 148/14/6 237/14/6
f 148/14/6 238/14/6 237/14/6
f 152/14/6 154/14/6 243/14/6
f 154/14/6 244/14/6 243/14/6
f 158/14/6 160/14/6 249/14/6
f 160/14/6 250/14/6 249/14/6
f 164/14/6 166/14/6 255/14/6
f 166/14/6 256/14/6 255/14/6
f 170/14/6 172/14/6 261/14/6
f 172/14/6 262/14/6 261/14/6
f 176/14/6 178/14/6 267/14/6
f 178/14/6 268/14/6 267/14/6
f 182/14/6 184/14/6 273/14/6
f 184/14/6 274/14/6 273/14/6
f 188/14/6 190/14/6 279/14/6
f 190/14/6 280/14/6 279/14/6
f 194/14/6 196/14/6 285/14/6
f 196/14/6 286/14/6 285/14/6
f 200/14/6 202/14/6 291/14/6
f 202/14/6 292/14/6 291/14/6
f 293/20/1 294/20/1 295/20/1
f 296/20/1 293/20/1 295/20/1
f 297/20/1 298/20/1 299/20/1
f 300/20/1 297/20/1 299/20/1
f 301/20/1 302/20/1 303/20/1
f 304/20/1 301/20/1 303/20/1
f 305/20/1 304/20/1 303/20/1
f 306/20/1 305/20/1 303/20/1
f 307/20/1 306/20/1 303/20/1
f 308/20/1 307/20/1 303/20/1
f 309/20/1 304/20/1 305/20/1
f 310/20/1 309/20/1 305/20/1
f 311/20/1 306/20/1 307/20/1
f 312/20/1 311/20/1 307/20/1
f 313/20/1 314/20/1 315/20/1
f 316/20/1 313/20/1 315/20/1
f 317/20/1 318/20/1 319/20/1
f 320/20/1 317/20/1 319/20/1
f 321/20/1 322/20/1 323/20/1
f 324/20/1 321/20/1 323/20/1
f 325/20/1 324/20/1 323/20/1
f 326/20/1 325/20/1 323/20/1
f 327/20/1 326/20/1 323/20/1
f 328/20/1 327/20/1 323/20/1
f 329/20/1 324/20/1 325/20/1
f 330/20/1 329/20/1 325/20/1
f 331/20/1 326/20/1 327/20/1
f 332/20/1 331/20/1 327/20/1
f 333/20/1 334/20/1 335/20/1
f 336/20/1 333/20/1 335/20/1
f 337/20/1 338/20/1 339/20/1
f 340/20/1 337/20/1 339/20/1
f 341/20/1 342/20/1 343/20/1
f 344/20/1 341/20/1 343/20/1
f 345/12/1 346/12/1 347/12/1
f 348/12/1 345/12/1 347/12/1
f 349/4/1 350/4/1 351/4/1
f 352/4/1 349/4/1 351/4/1
f 353/16/1 354/16/1 355/16/1
f 356/16/1 353/16/1 355/16/1
f 357/16/1 354/16/1 353/16/1
f 358/1/1 353/1/1 356/1/1
f 358/16/1 357/16/1 353/16/1
f 359/1/1 358/1/1 356/1/1
f 360/21/1 361/21/1 362/21/1
f 363/21/1 360/21/1 362/21/1
f 364/8/1 365/8/1 366/8/1
f 367/8/1 364/8/1 366/8/1
f 368/16/1 369/16/1 370/16/1
f 371/16/1 368/16/1 370/16/1
f 372/16/1 369/16/1 368/16/1
f 373/1/1 368/1/1 371/1/1
f 373/16/1 372/16/1 368/16/1
f 374/1/1 373/1/1 371/1/1
f 375/17/1 376/17/1 377/17/1
f 378/17/1 375/17/1 377/17/1
f 379/9/1 380/9/1 381/9/1
f 382/9/1 379/9/1 381/9/1
f 383/16/1 384/16/1 385/16/1
f 386/16/1 383/16/1 385/16/1
f 387/16/1 384/16/1 383/16/1
f 388/1/1 383/1/1 386/1/1
f 388/16/1 387/16/1 383/16/1
f 389/1/1 388/1/1 386/1/1
f 390/5/1 391/5/1 392/5/1
f 393/5/1 390/5/1 392/5/1
f 394/13/1 395/13/1 396/13/1
f 397/13/1 394/13/1 396/13/1
f 398/16/1 399/16/1 400/16/1
f 401/16/1 398/16/1 400/16/1
f 402/16/1 399/16/1 398/16/1
f 403/1/1 398/1/1 401/1/1
f 403/16/1 402/16/1 398/16/1
f 404/1/1 403/1/1 401/1/1
f 405/4/1 406/4/1 407/4/1
f 408/4/1 405/4/1 407/4/1
f 409/4/1 410/4/1 411/4/1
f 412/4/1 409/4/1 411/4/1
f 413/16/1 414/16/1 415/16/1
f 416/16/1 413/16/1 415/16/1
f 417/16/1 414/16/1 413/16/1
f 418/1/1 413/1/1 416/1/1
f 418/16/1 417/16/1 413/16/1
f 419/1/1 418/1/1 416/1/1
f 420/15/1 421/15/1 422/15/1
f 423/15/1 420/15/1 422/15/1
f 424/4/1 425/4/1 426/4/1
f 427/4/1 424/4/1 426/4/1
f 428/16/1 429/16/1 430/16/1
f 431/16/1 428/16/1 430/16/1
f 432/16/1 429/16/1 428/16/1
f 433/1/1 428/1/1 431/1/1
f 433/16/1 432/16/1 428/16/1
f 434/1/1 433/1/1 431/1/1
f 435/19/1 436/19/1 437/19/1
f 438/19/1 435/19/1 437/19/1
f 439/6/1 440/6/1 441/6/1
f 442/6/1 439/6/1 441/6/1
f 443/16/1 444/16/1 445/16/1
f 446/16/1 443/16/1 445/16/1
f 447/16/1 444/16/1 443/16/1
f 448/1/1 443/1/1 446/1/1
f 448/16/1 447/16/1 443/16/1
f 449/1/1 448/1/1 446/1/1
f 450/2/1 451/2/1 452/2/1
f 453/2/1 450/2/1 452/2/1
f 454/10/1 455/10/1 456/10/1
f 457/10/1 454/10/1 456/10/1
f 458/16/1 459/16/1 460/16/1
f 461/16/1 458/16/1 460/16/1
f 462/16/1 459/16/1 458/16/1
f 463/1/1 458/1/1 461/1/1
f 463/16/1 462/16/1 458/16/1
f 464/1/1 463/1/1 461/1/1
f 465/16/1 466/16/1 467/16/1
f 468/16/1 465/16/1 467/16/1
f 469/16/1 470/16/1 471/16/1
f 472/16/1 469/16/1 471/16/1
f 473/16/1 474/16/1 475/16/1
f 476/16/1 473/16/1 475/16/1
f 477/16/1 478/16/1 479/16/1
f 480/16/1 477/16/1 479/16/1
f 481/16/1 482/16/1 483/16/1
f 484/16/1 481/16/1 483/16/1
f 485/16/1 486/16/1 487/16/1
f 488/16/1 485/16/1 487/16/1
f 489/16/1 490/16/1 491/16/1
f 492/16/1 489/16/1 491/16/1
f 493/16/1 494/16/1 495/16/1
f 496/16/1 493/16/1 495/16/1
f 497/20/2 498/20/2 499/20/2
f 498/20/2 500/20/2 499/20/2
f 500/20/2 501/20/2 499/20/2
f 501/20/2 502/20/2 499/20/2
f 502/20/2 503/20/2 499/20/2
f 503/20/2 504/20/2 499/20/2
f 500/20/2 505/20/2 501/20/2
f 505/20/2 506/20/2 501/20/2
f 502/20/2 507/20/2 503/20/2
f 507/20/2 508/20/2 503/20/2
f 509/20/2 510/20/2 511/20/2
f 510/20/2 512/20/2 511/20/2
f 513/20/2 514/20/2 515/20/2
f 514/20/2 516/20/2 515/20/2
f 517/20/2 518/20/2 519/20/2
f 518/20/2 520/20/2 519/20/2
f 520/20/2 521/20/2 519/20/2
f 521/20/2 522/20/2 519/20/2
f 522/20/2 523/20/2 519/20/2
f 523/20/2 524/20/2 519/20/2
f 520/20/2 525/20/2 521/20/2
f 525/20/2 526/20/2 521/20/2
f 522/20/2 527/20/2 523/20/2
f 527/20/2 528/20/2 523/20/2
f 529/20/2 530/20/2 531/20/2
f 530/20/2 532/20/2 531/20/2
f 533/20/2 534/20/2 535/20/2
f 534/20/2 536/20/2 535/20/2
f 537/20/2 538/20/2 539/20/2
f 538/20/2 540/20/2 539/20/2
f 541/20/2 542/20/2 543/20/2
f 542/20/2 544/20/2 543/20/2
f 545/20/2 546/20/2 547/20/2
f 546/20/2 548/20/2 547/20/2
f 549/16/2 550/16/2 551/16/2
f 550/16/2 552/16/2 551/16/2
f 553/12/2 554/12/2 555/12/2
f 554/12/2 556/12/2 555/12/2
f 557/4/2 558/4/2 559/4/2
f 558/4/2 560/4/2 559/4/2
f 561/16/2 562/16/2 563/16/2
f 562/16/2 564/16/2 563/16/2
f 565/21/2 566/21/2 567/21/2
f 566/21/2 568/21/2 567/21/2
f 569/8/2 570/8/2 571/8/2
f 570/8/2 572/8/2 571/8/2
f 573/16/2 574/16/2 575/16/2
f 574/16/2 576/16/2 575/16/2
f 577/17/2 578/17/2 579/17/2
f 578/17/2 580/17/2 579/17/2
f 581/9/2 582/9/2 583/9/2
f 582/9/2 584/9/2 583/9/2
f 585/16/2 586/16/2 587/16/2
f 586/16/2 588/16/2 587/16/2
f 589/5/2 590/5/2 591/5/2
f 590/5/2 592/5/2 591/5/2
f 593/13/2 594/13/2 595/13/2
f 594/13/2 596/13/2 595/13/2
f 597/16/2 598/16/2 599/16/2
f 598/16/2 600/16/2 599/16/2
f 601/4/2 602/4/2 603/4/2
f 602/4/2 604/4/2 603/4/2
f 605/4/2 606/4/2 607/4/2
f 606/4/2 608/4/2 607/4/2
f 609/16/2 610/16/2 611/16/2
f 610/16/2 612/16/2 611/16/2
f 613/15/2 614/15/2 615/15/2
f 614/15/2 616/15/2 615/15/2
f 617/4/2 618/4/2 619/4/2
f 618/4/2 620/4/2 619/4/2
f 621/16/2 622/16/2 623/16/2
f 622/16/2 624/16/2 623/16/2
f 625/19/2 626/19/2 627/19/2
f 626/19/2 628/19/2 627/19/2
f 629/6/2 630/6/2 631/6/2
f 630/6/2 632/6/2 631/6/2
f 633/16/2 634/16/2 635/16/2
f 634/16/2 636/16/2 635/16/2
f 637/2/2 638/2/2 639/2/2
f 638/2/2 640/2/2 639/2/2
f 641/10/2 642/10/2 643/10/2
f 642/10/2 644/10/2 643/10/2
f 645/16/2 646/16/2 647/16/2
f 646/16/2 648/16/2 647/16/2
f 649/16/2 650/16/2 651/16/2
f 650/16/2 652/16/2 651/16/2
f 653/16/2 654/16/2 655/16/2
f 654/16/2 656/16/2 655/16/2
f 657/16/2 658/16/2 659/16/2
f 658/16/2 660/16/2 659/16/2
f 661/16/2 662/16/2 663/16/2
f 662/16/2 664/16/2 663/16/2
f 665/16/2 666/16/2 667/16/2
f 666/16/2 668/16/2 667/16/2
f 669/16/2 670/16/2 671/16/2
f 670/16/2 672/16/2 671/16/2
f 673/16/2 674/16/2 675/16/2
f 674/16/2 676/16/2 675/16/2
f 497/20/3 302/20/3 301/20/3
f 498/20/3 497/20/3 301/20/3
f 517/20/3 322/20/3 321/20/3
f 518/20/3 517/20/3 321/20/3
f 500/20/3 304/20/3 309/20/3
f 505/20/3 500/20/3 309/20/3
f 520/20/3 324/20/3 329/20/3
f 525/20/3 520/20/3 329/20/3
f 502/20/3 306/20/3 311/20/3
f 507/20/3 502/20/3 311/20/3
f 522/20/3 326/20/3 331/20/3
f 527/20/3 522/20/3 331/20/3
f 509/20/3 294/20/3 293/20/3
f 510/20/3 509/20/3 293/20/3
f 529/20/3 314/20/3 313/20/3
f 530/20/3 529/20/3 313/20/3
f 513/20/3 298/20/3 297/20/3
f 514/20/3 513/20/3 297/20/3
f 533/20/3 318/20/3 317/20/3
f 534/20/3 533/20/3 317/20/3
f 553/12/3 346/12/3 345/12/3
f 554/12/3 553/12/3 345/12/3
f 565/21/3 361/21/3 360/21/3
f 566/21/3 565/21/3 360/21/3
f 577/17/3 376/17/3 375/17/3
f 578/17/3 577/17/3 375/17/3
f 589/5/3 391/5/3 390/5/3
f 590/5/3 589/5/3 390/5/3
f 601/4/3 406/4/3 405/4/3
f 602/4/3 601/4/3 405/4/3
f 613/15/3 421/15/3 420/15/3
f 614/15/3 613/15/3 420/15/3
f 625/19/3 436/19/3 435/19/3
f 626/19/3 625/19/3 435/19/3
f 637/2/3 451/2/3 450/2/3
f 638/2/3 637/2/3 450/2/3
f 653/16/3 474/16/3 473/16/3
f 654/16/3 653/16/3 473/16/3
f 657/16/3 478/16/3 477/16/3
f 658/16/3 657/16/3 477/16/3
f 661/16/3 482/16/3 481/16/3
f 662/16/3 661/16/3 481/16/3
f 665/16/3 486/16/3 485/16/3
f 666/16/3 665/16/3 485/16/3
f 669/16/3 490/16/3 489/16/3
f 670/16/3 669/16/3 489/16/3
f 673/16/3 494/16/3 493/16/3
f 674/16/3 673/16/3 493/16/3
f 645/16/3 466/16/3 465/16/3
f 646/16/3 645/16/3 465/16/3
f 537/20/3 334/20/3 333/20/3
f 538/20/3 537/20/3 333/20/3
f 557/4/3 350/4/3 349/4/3
f 558/4/3 557/4/3 349/4/3
f 569/8/3 365/8/3 364/8/3
f 570/8/3 569/8/3 364/8/3
f 581/9/3 380/9/3 379/9/3
f 582/9/3 581/9/3 379/9/3
f 593/13/3 395/13/3 394/13/3
f 594/13/3 593/13/3 394/13/3
f 605/4/3 410/4/3 409/4/3
f 606/4/3 605/4/3 409/4/3
f 617/4/3 425/4/3 424/4/3
f 618/4/3 617/4/3 424/4/3
f 629/6/3 440/6/3 439/6/3
f 630/6/3 629/6/3 439/6/3
f 641/10/3 455/10/3 454/10/3
f 642/10/3 641/10/3 454/10/3
f 541/20/3 338/20/3 337/20/3
f 542/20/3 541/20/3 337/20/3
f 649/16/3 470/16/3 469/16/3
f 650/16/3 649/16/3 469/16/3
f 549/16/3 354/16/3 357/16/3
f 550/16/3 549/16/3 357/16/3
f 561/16/3 369/16/3 372/16/3
f 562/16/3 561/16/3 372/16/3
f 573/16/3 384/16/3 387/16/3
f 574/16/3 573/16/3 387/16/3
f 585/16/3 399/16/3 402/16/3
f 586/16/3 585/16/3 402/16/3
f 597/16/3 414/16/3 417/16/3
f 598/16/3 597/16/3 417/16/3
f 609/16/3 429/16/3 432/16/3
f 610/16/3 609/16/3 432/16/3
f 621/16/3 444/16/3 447/16/3
f 622/16/3 621/16/3 447/16/3
f 633/16/3 459/16/3 462/16/3
f 634/16/3 633/16/3 462/16/3
f 545/20/3 342/20/3 341/20/3
f 546/20/3 545/20/3 341/20/3
f 305/20/4 501/20/4 310/20/4
f 501/20/4 506/20/4 310/20/4
f 325/20/4 521/20/4 330/20/4
f 521/20/4 526/20/4 330/20/4
f 307/20/4 503/20/4 312/20/4
f 503/20/4 508/20/4 312/20/4
f 327/20/4 523/20/4 332/20/4
f 523/20/4 528/20/4 332/20/4
f 303/20/4 499/20/4 308/20/4
f 499/20/4 504/20/4 308/20/4
f 323/20/4 519/20/4 328/20/4
f 519/20/4 524/20/4 328/20/4
f 295/20/4 511/20/4 296/20/4
f 511/20/4 512/20/4 296/20/4
f 315/20/4 531/20/4 316/20/4
f 531/20/4 532/20/4 316/20/4
f 299/20/4 515/20/4 300/20/4
f 515/20/4 516/20/4 300/20/4
f 319/20/4 535/20/4 320/20/4
f 535/20/4 536/20/4 320/20/4
f 475/16/4 655/16/4 476/16/4
f 655/16/4 656/16/4 476/16/4
f 479/16/4 659/16/4 480/16/4
f 659/16/4 660/16/4 480/16/4
f 483/16/4 663/16/4 484/16/4
f 663/16/4 664/16/4 484/16/4
f 487/16/4 667/16/4 488/16/4
f 667/16/4 668/16/4 488/16/4
f 491/16/4 671/16/4 492/16/4
f 671/16/4 672/16/4 492/16/4
f 495/16/4 675/16/4 496/16/4
f 675/16/4 676/16/4 496/16/4
f 335/20/4 539/20/4 336/20/4
f 539/20/4 540/20/4 336/20/4
f 467/16/4 647/16/4 468/16/4
f 647/16/4 648/16/4 468/16/4
f 347/12/4 555/12/4 348/12/4
f 555/12/4 556/12/4 348/12/4
f 362/21/4 567/21/4 363/21/4
f 567/21/4 568/21/4 363/21/4
f 377/17/4 579/17/4 378/17/4
f 579/17/4 580/17/4 378/17/4
f 392/5/4 591/5/4 393/5/4
f 591/5/4 592/5/4 393/5/4
f 407/4/4 603/4/4 408/4/4
f 603/4/4 604/4/4 408/4/4
f 422/15/4 615/15/4 423/15/4
f 615/15/4 616/15/4 423/15/4
f 437/19/4 627/19/4 438/19/4
f 627/19/4 628/19/4 438/19/4
f 452/2/4 639/2/4 453/2/4
f 639/2/4 640/2/4 453/2/4
f 339/20/4 543/20/4 340/20/4
f 543/20/4 544/20/4 340/20/4
f 471/16/4 651/16/4 472/16/4
f 651/16/4 652/16/4 472/16/4
f 351/4/4 559/4/4 352/4/4
f 559/4/4 560/4/4 352/4/4
f 366/8/4 571/8/4 367/8/4
f 571/8/4 572/8/4 367/8/4
f 381/9/4 583/9/4 382/9/4
f 583/9/4 584/9/4 382/9/4
f 396/13/4 595/13/4 397/13/4
f 595/13/4 596/13/4 397/13/4
f 411/4/4 607/4/4 412/4/4
f 607/4/4 608/4/4 412/4/4
f 426/4/4 619/4/4 427/4/4
f 619/4/4 620/4/4 427/4/4
f 441/6/4 631/6/4 442/6/4
f 631/6/4 632/6/4 442/6/4
f 456/10/4 643/10/4 457/10/4
f 643/10/4 644/10/4 457/10/4
f 343/20/4 547/20/4 344/20/4
f 547/20/4 548/20/4 344/20/4
f 356/1/4 677/1/4 359/1/4
f 355/16/4 677/16/4 356/16/4
f 677/1/4 678/1/4 359/1/4
f 355/16/4 551/16/4 677/16/4
f 677/16/4 551/16/4 678/16/4
f 551/16/4 552/16/4 678/16/4
f 371/1/4 679/1/4 374/1/4
f 370/16/4 679/16/4 371/16/4
f 679/1/4 680/1/4 374/1/4
f 370/16/4 563/16/4 679/16/4
f 679/16/4 563/16/4 680/16/4
f 563/16/4 564/16/4 680/16/4
f 386/1/4 681/1/4 389/1/4
f 385/16/4 681/16/4 386/16/4
f 681/1/4 682/1/4 389/1/4
f 385/16/4 575/16/4 681/16/4
f 681/16/4 575/16/4 682/16/4
f 575/16/4 576/16/4 682/16/4
f 401/1/4 683/1/4 404/1/4
f 400/16/4 683/16/4 401/16/4
f 683/1/4 684/1/4 404/1/4
f 400/16/4 587/16/4 683/16/4
f 683/16/4 587/16/4 684/16/4
f 587/16/4 588/16/4 684/16/4
f 416/1/4 685/1/4 419/1/4
f 415/16/4 685/16/4 416/16/4
f 685/1/4 686/1/4 419/1/4
f 415/16/4 599/16/4 685/16/4
f 685/16/4 599/16/4 686/16/4
f 599/16/4 600/16/4 686/16/4
f 431/1/4 687/1/4 434/1/4
f 430/16/4 687/16/4 431/16/4
f 687/1/4 688/1/4 434/1/4
f 430/16/4 611/16/4 687/16/4
f 687/16/4 611/16/4 688/16/4
f 611/16/4 612/16/4 688/16/4
f 446/1/4 689/1/4 449/1/4
f 445/16/4 689/16/4 446/16/4
f 689/1/4 690/1/4 449/1/4
f 445/16/4 623/16/4 689/16/4
f 689/16/4 623/16/4 690/16/4
f 623/16/4 624/16/4 690/16/4
f 461/1/4 691/1/4 464/1/4
f 460/16/4 691/16/4 461/16/4
f 691/1/4 692/1/4 464/1/4
f 460/16/4 635/16/4 691/16/4
f 691/16/4 635/16/4 692/16/4
f 635/16/4 636/16/4 692/16/4
f 301/20/6 304/20/6 498/20/6
f 304/20/6 500/20/6 498/20/6
f 321/20/6 324/20/6 518/20/6
f 324/20/6 520/20/6 518/20/6
f 305/20/6 306/20/6 501/20/6
f 306/20/6 502/20/6 501/20/6
f 325/20/6 326/20/6 521/20/6
f 326/20/6 522/20/6 521/20/6
f 307/20/6 308/20/6 503/20/6
f 308/20/6 504/20/6 503/20/6
f 327/20/6 328/20/6 523/20/6
f 328/20/6 524/20/6 523/20/6
f 293/20/6 296/20/6 510/20/6
f 296/20/6 512/20/6 510/20/6
f 313/20/6 316/20/6 530/20/6
f 316/20/6 532/20/6 530/20/6
f 297/20/6 300/20/6 514/20/6
f 300/20/6 516/20/6 514/20/6
f 317/20/6 320/20/6 534/20/6
f 320/20/6 536/20/6 534/20/6
f 473/16/6 693/16/6 654/16/6
f 693/16/6 694/16/6 654/16/6
f 477/16/6 695/16/6 658/16/6
f 695/16/6 696/16/6 658/16/6
f 481/16/6 697/16/6 662/16/6
f 697/16/6 698/16/6 662/16/6
f 485/16/6 699/16/6 666/16/6
f 699/16/6 700/16/6 666/16/6
f 489/16/6 701/16/6 670/16/6
f 701/16/6 702/16/6 670/16/6
f 493/16/6 703/16/6 674/16/6
f 703/16/6 704/16/6 674/16/6
f 465/16/6 705/16/6 646/16/6
f 705/16/6 706/16/6 646/16/6
f 473/16/6 707/16/6 693/16/6
f 693/7/6 707/7/6 694/7/6
f 694/16/6 708/16/6 654/16/6
f 707/7/6 708/7/6 694/7/6
f 477/16/6 709/16/6 695/16/6
f 695/7/6 709/7/6 696/7/6
f 696/16/6 710/16/6 658/16/6
f 709/7/6 710/7/6 696/7/6
f 481/16/6 711/16/6 697/16/6
f 697/7/6 711/7/6 698/7/6
f 698/16/6 712/16/6 662/16/6
f 711/7/6 712/7/6 698/7/6
f 485/16/6 713/16/6 699/16/6
f 699/7/6 713/7/6 700/7/6
f 700/16/6 714/16/6 666/16/6
f 713/7/6 714/7/6 700/7/6
f 489/16/6 715/16/6 701/16/6
f 701/7/6 715/7/6 702/7/6
f 702/16/6 716/16/6 670/16/6
f 715/7/6 716/7/6 702/7/6
f 493/16/6 717/16/6 703/16/6
f 703/11/6 717/11/6 704/11/6
f 704/16/6 718/16/6 674/16/6
f 717/11/6 718/11/6 704/11/6
f 705/1/6 719/1/6 706/1/6
f 465/16/6 719/16/6 705/16/6
f 706/16/6 720/16/6 646/16/6
f 719/1/6 720/1/6 706/1/6
f 473/16/6 476/16/6 707/16/6
f 707/16/6 476/16/6 708/16/6
f 708/16/6 656/16/6 654/16/6
f 476/16/6 656/16/6 708/16/6
f 477/16/6 480/16/6 709/16/6
f 709/16/6 480/16/6 710/16/6
f 710/16/6 660/16/6 658/16/6
f 480/16/6 660/16/6 710/16/6
f 481/16/6 484/16/6 711/16/6
f 711/16/6 484/16/6 712/16/6
f 712/16/6 664/16/6 662/16/6
f 484/16/6 664/16/6 712/16/6
f 485/16/6 488/16/6 713/16/6
f 713/16/6 488/16/6 714/16/6
f 714/16/6 668/16/6 666/16/6
f 488/16/6 668/16/6 714/16/6
f 489/16/6 492/16/6 715/16/6
f 715/16/6 492/16/6 716/16/6
f 716/16/6 672/16/6 670/16/6
f 492/16/6 672/16/6 716/16/6
f 493/16/6 496/16/6 717/16/6
f 717/16/6 496/16/6 718/16/6
f 718/16/6 676/16/6 674/16/6
f 496/16/6 676/16/6 718/16/6
f 465/16/6 468/16/6 719/16/6
f 719/16/6 468/16/6 720/16/6
f 720/16/6 648/16/6 646/16/6
f 468/16/6 648/16/6 720/16/6
f 345/12/6 348/12/6 554/12/6
f 348/12/6 556/12/6 554/12/6
f 360/21/6 363/21/6 566/21/6
f 363/21/6 568/21/6 566/21/6
f 375/17/6 378/17/6 578/17/6
f 378/17/6 580/17/6 578/17/6
f 390/5/6 393/5/6 590/5/6
f 393/5/6 592/5/6 590/5/6
f 405/4/6 408/4/6 602/4/6
f 408/4/6 604/4/6 602/4/6
f 420/15/6 423/15/6 614/15/6
f 423/15/6 616/15/6 614/15/6
f 435/19/6 438/19/6 626/19/6
f 438/19/6 628/19/6 626/19/6
f 450/2/6 453/2/6 638/2/6
f 453/2/6 640/2/6 638/2/6
f 469/16/6 721/16/6 650/16/6
f 721/16/6 722/16/6 650/16/6
f 337/20/6 340/20/6 542/20/6
f 340/20/6 544/20/6 542/20/6
f 469/16/6 723/16/6 721/16/6
f 721/1/6 723/1/6 722/1/6
f 722/16/6 724/16/6 650/16/6
f 723/1/6 724/1/6 722/1/6
f 469/16/6 472/16/6 723/16/6
f 723/16/6 472/16/6 724/16/6
f 724/16/6 652/16/6 650/16/6
f 472/16/6 652/16/6 724/16/6
f 349/4/6 352/4/6 558/4/6
f 352/4/6 560/4/6 558/4/6
f 364/8/6 367/8/6 570/8/6
f 367/8/6 572/8/6 570/8/6
f 379/9/6 382/9/6 582/9/6
f 382/9/6 584/9/6 582/9/6
f 394/13/6 397/13/6 594/13/6
f 397/13/6 596/13/6 594/13/6
f 409/4/6 412/4/6 606/4/6
f 412/4/6 608/4/6 606/4/6
f 424/4/6 427/4/6 618/4/6
f 427/4/6 620/4/6 618/4/6
f 439/6/6 442/6/6 630/6/6
f 442/6/6 632/6/6 630/6/6
f 454/10/6 457/10/6 642/10/6
f 457/10/6 644/10/6 642/10/6
f 341/20/6 344/20/6 546/20/6
f 344/20/6 548/20/6 546/20/6
f 309/20/6 310/20/6 505/20/6
f 310/20/6 506/20/6 505/20/6
f 329/20/6 330/20/6 525/20/6
f 330/20/6 526/20/6 525/20/6
f 311/20/6 312/20/6 507/20/6
f 312/20/6 508/20/6 507/20/6
f 331/20/6 332/20/6 527/20/6
f 332/20/6 528/20/6 527/20/6
f 333/20/6 336/20/6 538/20/6
f 336/20/6 540/20/6 538/20/6
f 357/16/6 358/16/6 550/16/6
f 358/16/6 725/16/6 550/16/6
f 372/16/6 373/16/6 562/16/6
f 373/16/6 726/16/6 562/16/6
f 387/16/6 388/16/6 574/16/6
f 388/16/6 727/16/6 574/16/6
f 402/16/6 403/16/6 586/16/6
f 403/16/6 728/16/6 586/16/6
f 417/16/6 418/16/6 598/16/6
f 418/16/6 729/16/6 598/16/6
f 432/16/6 433/16/6 610/16/6
f 433/16/6 730/16/6 610/16/6
f 447/16/6 448/16/6 622/16/6
f 448/16/6 731/16/6 622/16/6
f 462/16/6 463/16/6 634/16/6
f 463/16/6 732/16/6 634/16/6
f 358/1/6 359/1/6 725/1/6
f 725/16/6 678/16/6 550/16/6
f 359/1/6 678/1/6 725/1/6
f 678/16/6 552/16/6 550/16/6
f 373/1/6 374/1/6 726/1/6
f 726/16/6 680/16/6 562/16/6
f 374/1/6 680/1/6 726/1/6
f 680/16/6 564/16/6 562/16/6
f 388/1/6 389/1/6 727/1/6
f 727/16/6 682/16/6 574/16/6
f 389/1/6 682/1/6 727/1/6
f 682/16/6 576/16/6 574/16/6
f 403/1/6 404/1/6 728/1/6
f 728/16/6 684/16/6 586/16/6
f 404/1/6 684/1/6 728/1/6
f 684/16/6 588/16/6 586/16/6
f 418/1/6 419/1/6 729/1/6
f 729/16/6 686/16/6 598/16/6
f 419/1/6 686/1/6 729/1/6
f 686/16/6 600/16/6 598/16/6
f 433/1/6 434/1/6 730/1/6
f 730/16/6 688/16/6 610/16/6
f 434/1/6 688/1/6 730/1/6
f 688/16/6 612/16/6 610/16/6
f 448/1/6 449/1/6 731/1/6
f 731/16/6 690/16/6 622/16/6
f 449/1/6 690/1/6 731/1/6
f 690/16/6 624/16/6 622/16/6
f 463/1/6 464/1/6 732/1/6
f 732/16/6 692/16/6 634/16/6
f 464/1/6 692/1/6 732/1/6
f 692/16/6 636/16/6 634/16/6
f 733/1/6 734/1/6 735/1/6
f 734/1/6 736/1/6 735/1/6
f 733/1/6 737/1/6 734/1/6
f 737/1/6 738/1/6 734/1/6
f 736/1/6 739/1/6 735/1/6
f 739/1/6 740/1/6 735/1/6
f 741/1/6 742/1/6 743/1/6
f 742/1/6 744/1/6 743/1/6
f 745/1/6 746/1/6 747/1/6
f 746/1/6 748/1/6 747/1/6
f 749/1/6 750/1/6 751/1/6
f 750/1/6 752/1/6 751/1/6
f 753/1/6 754/1/6 755/1/6
f 754/1/6 756/1/6 755/1/6
f 753/1/6 757/1/6 754/1/6
f 757/1/6 758/1/6 754/1/6
f 756/1/6 759/1/6 755/1/6
f 759/1/6 760/1/6 755/1/6
f 761/1/6 762/1/6 763/1/6
f 762/1/6 764/1/6 763/1/6
f 765/1/6 766/1/6 767/1/6
f 766/1/6 768/1/6 767/1/6
f 769/14/6 770/14/6 771/14/6
f 770/14/6 772/14/6 771/14/6
f 773/14/6 774/14/6 775/14/6
f 774/14/6 776/14/6 775/14/6
f 777/14/6 778/14/6 779/14/6
f 778/14/6 780/14/6 779/14/6
f 781/14/6 782/14/6 783/14/6
f 782/14/6 784/14/6 783/14/6
f 785/14/6 786/14/6 787/14/6
f 786/14/6 788/14/6 787/14/6
f 789/14/6 790/14/6 791/14/6
f 790/14/6 792/14/6 791/14/6
f 793/14/6 794/14/6 795/14/6
f 794/14/6 796/14/6 795/14/6
f 797/14/6 798/14/6 799/14/6
f 798/14/6 800/14/6 799/14/6
f 772/14/6 801/14/6 802/14/6
f 803/14/6 801/14/6 770/14/6
f 770/14/6 801/14/6 772/14/6
f 801/14/6 804/14/6 802/14/6
f 804/14/6 805/14/6 802/14/6
f 805/14/6 806/14/6 802/14/6
f 776/14/6 807/14/6 808/14/6
f 809/14/6 807/14/6 774/14/6
f 774/14/6 807/14/6 776/14/6
f 807/14/6 810/14/6 808/14/6
f 810/14/6 811/14/6 808/14/6
f 811/14/6 812/14/6 808/14/6
f 780/14/6 813/14/6 814/14/6
f 815/14/6 813/14/6 778/14/6
f 778/14/6 813/14/6 780/14/6
f 813/14/6 816/14/6 814/14/6
f 816/14/6 817/14/6 814/14/6
f 817/14/6 818/14/6 814/14/6
f 784/14/6 819/14/6 820/14/6
f 821/14/6 819/14/6 782/14/6
f 782/14/6 819/14/6 784/14/6
f 819/14/6 822/14/6 820/14/6
f 822/14/6 823/14/6 820/14/6
f 823/14/6 824/14/6 820/14/6
f 788/14/6 825/14/6 826/14/6
f 827/14/6 825/14/6 786/14/6
f 786/14/6 825/14/6 788/14/6
f 825/14/6 828/14/6 826/14/6
f 828/14/6 829/14/6 826/14/6
f 829/14/6 830/14/6 826/14/6
f 792/14/6 831/14/6 832/14/6
f 833/14/6 831/14/6 790/14/6
f 790/14/6 831/14/6 792/14/6
f 831/14/6 834/14/6 832/14/6
f 834/14/6 835/14/6 832/14/6
f 835/14/6 836/14/6 832/14/6
f 796/14/6 837/14/6 838/14/6
f 839/14/6 837/14/6 794/14/6
f 794/14/6 837/14/6 796/14/6
f 837/14/6 840/14/6 838/14/6
f 840/14/6 841/14/6 838/14/6
f 841/14/6 842/14/6 838/14/6
f 800/14/6 843/14/6 844/14/6
f 798/14/6 843/14/6 800/14/6
f 845/14/6 843/14/6 798/14/6
f 843/14/6 846/14/6 844/14/6
f 846/14/6 847/14/6 844/14/6
f 847/14/6 848/14/6 844/14/6
f 804/14/6 849/14/6 805/14/6
f 849/14/6 850/14/6 805/14/6
f 810/14/6 851/14/6 811/14/6
f 851/14/6 852/14/6 811/14/6
f 816/14/6 853/14/6 817/14/6
f 853/14/6 854/14/6 817/14/6
f 822/14/6 855/14/6 823/14/6
f 855/14/6 856/14/6 823/14/6
f 828/14/6 857/14/6 829/14/6
f 857/14/6 858/14/6 829/14/6
f 834/14/6 859/14/6 835/14/6
f 859/14/6 860/14/6 835/14/6
f 840/14/6 861/14/6 841/14/6
f 861/14/6 862/14/6 841/14/6
f 846/14/6 863/14/6 847/14/6
f 863/14/6 864/14/6 847/14/6
f 865/18/6 866/18/6 867/18/6
f 866/18/6 868/18/6 867/18/6
f 865/18/6 869/18/6 866/18/6
f 868/18/6 870/18/6 867/18/6
f 865/18/6 871/18/6 869/18/6
f 869/18/6 871/18/6 870/18/6
f 870/18/6 872/18/6 867/18/6
f 871/18/6 872/18/6 870/18/6
f 873/16/6 874/16/6 875/16/6
f 874/16/6 876/16/6 875/16/6
f 877/1/6 878/1/6 879/1/6
f 878/1/6 880/1/6 879/1/6
f 881/1/6 882/1/6 883/1/6
f 882/1/6 884/1/6 883/1/6
f 885/1/6 886/1/6 887/1/6
f 888/1/6 889/1/6 890/1/6
f 885/1/6 891/1/6 886/1/6
f 886/1/6 891/1/6 889/1/6
f 889/1/6 892/1/6 890/1/6
f 891/1/6 892/1/6 889/1/6
f 893/1/6 894/1/6 895/1/6
f 894/1/6 896/1/6 895/1/6
f 897/1/6 898/1/6 899/1/6
f 898/1/6 900/1/6 899/1/6
f 901/14/6 902/14/6 903/14/6
f 902/14/6 904/14/6 903/14/6
f 905/14/6 906/14/6 907/14/6
f 906/14/6 908/14/6 907/14/6
f 909/14/6 910/14/6 911/14/6
f 910/14/6 912/14/6 911/14/6
f 913/14/6 914/14/6 915/14/6
f 914/14/6 916/14/6 915/14/6
f 917/14/6 918/14/6 919/14/6
f 918/14/6 920/14/6 919/14/6
f 921/1/6 922/1/6 923/1/6
f 922/1/6 924/1/6 923/1/6
f 925/1/6 926/1/6 927/1/6
f 928/1/6 929/1/6 930/1/6
f 929/1/6 931/1/6 930/1/6
f 932/1/6 933/1/6 934/1/6
f 935/1/6 936/1/6 937/1/6
f 938/1/6 939/1/6 940/1/6
f 941/1/6 942/1/6 943/1/6
f 921/1/6 944/1/6 922/1/6
f 944/1/6 945/1/6 922/1/6
f 924/1/6 946/1/6 923/1/6
f 926/1/6 947/1/6 948/1/6
f 925/1/6 947/1/6 926/1/6
f 947/1/6 949/1/6 948/1/6
f 931/1/6 950/1/6 951/1/6
f 952/1/6 950/1/6 929/1/6
f 929/1/6 950/1/6 931/1/6
f 950/1/6 953/1/6 951/1/6
f 954/1/6 955/1/6 956/1/6
f 955/1/6 957/1/6 956/1/6
f 958/1/6 959/1/6 933/1/6
f 933/1/6 960/1/6 934/1/6
f 959/1/6 960/1/6 933/1/6
f 936/1/6 961/1/6 939/1/6
f 935/1/6 961/1/6 936/1/6
f 961/1/6 962/1/6 939/1/6
f 963/1/6 964/1/6 942/1/6
f 964/1/6 965/1/6 942/1/6
f 942/1/6 966/1/6 943/1/6
f 965/1/6 966/1/6 942/1/6
f 966/1/6 967/1/6 943/1/6
f 921/1/6 968/1/6 944/1/6
f 945/1/6 969/1/6 946/1/6
f 925/1/6 970/1/6 947/1/6
f 970/1/6 971/1/6 947/1/6
f 949/1/6 972/1/6 948/1/6
f 972/1/6 973/1/6 948/1/6
f 953/1/6 974/1/6 951/1/6
f 974/1/6 975/1/6 951/1/6
f 957/1/6 976/1/6 977/1/6
f 976/1/6 978/1/6 977/1/6
f 960/1/6 979/1/6 934/1/6
f 979/1/6 980/1/6 934/1/6
f 962/1/6 981/1/6 939/1/6
f 939/1/6 982/1/6 940/1/6
f 981/1/6 982/1/6 939/1/6
f 965/1/6 983/1/6 966/1/6
f 983/1/6 984/1/6 966/1/6
f 921/1/6 985/1/6 968/1/6
f 968/1/6 985/1/6 969/1/6
f 946/1/6 986/1/6 923/1/6
f 985/1/6 986/1/6 969/1/6
f 969/1/6 986/1/6 946/1/6
