# Generated by tools/make-block-meshes.py -- edit that, not this.
# Electric guitar by jeremy, CC-BY 3.0, from https://poly.pizza/m/0hg94uOO-sS
v -0.20752 -0.02935 -0.14442
v -0.25293 -0.02935 -0.21768
v -0.17972 -0.02935 -0.21768
v -0.25690 -0.02935 -0.17210
v 0.25998 -0.02935 -0.59357
v 0.17431 -0.02935 -0.76332
v 0.24916 -0.02935 -0.72388
v 0.15940 -0.02935 -0.61176
v 0.28179 -0.02935 -0.08653
v 0.17972 -0.02935 -0.21768
v 0.25221 -0.02935 -0.21768
v 0.23860 -0.02935 -0.05557
v -0.31666 0.04221 -0.67011
v -0.34528 0.04221 -0.57815
v -0.25998 0.04221 -0.59357
v -0.24906 0.04221 -0.72507
v -0.27277 -0.01383 -0.18099
v -0.26070 0.02766 -0.10443
v -0.27277 0.02766 -0.18099
v -0.26070 -0.01383 -0.10443
v 0.34428 -0.02935 -0.57833
v 0.31592 -0.02935 -0.66945
v 0.00000 -0.02935 -0.62211
v -0.17431 -0.02935 -0.76332
v 0.00000 -0.02935 -0.78384
v -0.15940 -0.02935 -0.61176
v 0.00000 0.04221 -0.78485
v 0.00000 0.04221 -0.62211
v 0.15940 0.04221 -0.61176
v 0.17441 0.04221 -0.76432
v 0.18046 -0.01383 -0.01389
v 0.21767 0.02766 0.04589
v 0.18046 0.02766 -0.01389
v 0.21767 -0.01383 0.04589
v -0.15981 -0.02935 -0.11484
v -0.22649 -0.02935 -0.07451
v -0.18896 -0.02935 -0.07415
v 0.21809 -0.02935 -0.37633
v 0.21285 -0.02935 -0.46444
v 0.30191 -0.02935 -0.46444
v 0.15697 -0.02935 -0.37633
v 0.19775 -0.02935 -0.01549
v 0.00000 -0.02935 -0.21768
v 0.08986 -0.02935 -0.21768
v 0.00000 -0.02935 -0.19667
v -0.08986 -0.02935 -0.21768
v 0.25998 0.04221 -0.59357
v 0.24906 0.04221 -0.72507
v 0.00000 -0.02935 -0.46444
v -0.10642 -0.02935 -0.46444
v 0.10642 -0.02935 -0.46444
v -0.07711 0.04221 -0.27570
v -0.08986 0.04221 -0.21768
v 0.00000 0.04221 -0.21768
v 0.00000 0.04221 -0.25810
v 0.07711 0.04221 -0.27570
v 0.08986 0.04221 -0.21768
v 0.17972 0.04221 -0.21768
v 0.15502 0.04221 -0.28486
v 0.26957 0.02766 -0.21768
v 0.26957 -0.01383 -0.21768
v 0.23292 -0.01383 -0.29402
v 0.23292 0.02766 -0.29402
v -0.15697 -0.02935 -0.37633
v -0.30263 -0.02935 -0.46444
v -0.21285 -0.02935 -0.46444
v -0.21881 -0.02935 -0.37633
v -0.26957 0.02766 -0.21768
v -0.23292 -0.01383 -0.29402
v -0.26957 -0.01383 -0.21768
v -0.23292 0.02766 -0.29402
v -0.34496 -0.02935 -0.57821
v -0.25998 -0.02935 -0.59357
v -0.10642 0.04221 -0.46444
v -0.07780 0.04221 -0.39464
v 0.00000 0.04221 -0.41224
v 0.00000 0.04221 -0.46444
v 0.07262 -0.02935 -0.29402
v 0.15277 -0.02935 -0.29402
v 0.21285 0.04221 -0.46444
v 0.15662 0.04221 -0.38549
v 0.22014 0.04221 -0.37811
v 0.30226 0.04221 -0.46444
v -0.21628 -0.02935 -0.29402
v -0.15277 -0.02935 -0.29402
v 0.00000 -0.02935 -0.33517
v 0.07848 -0.02935 -0.37633
v 0.07555 -0.02935 -0.33517
v 0.00000 -0.02935 -0.37633
v -0.07262 -0.02935 -0.29402
v 0.00000 -0.02935 -0.29402
v -0.30297 0.04221 -0.46444
v -0.22077 0.04221 -0.37803
v -0.15662 0.04221 -0.38549
v -0.21285 0.04221 -0.46444
v 0.25329 0.04221 -0.21768
v 0.21751 0.04221 -0.29221
v -0.17972 0.04221 -0.21768
v -0.20752 0.04221 -0.14442
v -0.15532 0.04221 -0.11943
v 0.00000 0.04221 -0.19897
v 0.19176 0.04221 -0.02327
v -0.24753 -0.02935 -0.11264
v -0.24835 0.04221 -0.11213
v -0.22679 0.04221 -0.07342
v -0.25789 0.04221 -0.17265
v -0.07848 -0.02935 -0.37633
v 0.19781 -0.02935 -0.33517
v 0.21556 -0.02935 -0.29402
v 0.14536 -0.02935 -0.33517
v -0.23545 0.02766 -0.37633
v -0.31927 -0.01383 -0.46444
v -0.23545 -0.01383 -0.37633
v -0.31927 0.02766 -0.46444
v -0.21815 0.04221 -0.29228
v -0.15502 0.04221 -0.28486
v -0.15835 0.04221 -0.33517
v -0.19965 0.04221 -0.33517
v 0.15835 0.04221 -0.33517
v 0.10153 0.04221 -0.33517
v -0.07555 -0.02935 -0.33517
v -0.14536 -0.02935 -0.33517
v -0.19853 -0.02935 -0.33517
v 0.19898 0.04221 -0.33517
v 0.10642 0.04221 -0.46444
v 0.07780 0.04221 -0.39464
v 0.22698 -0.02935 0.03147
v 0.25157 -0.02935 0.03350
v -0.17441 0.04221 -0.76432
v -0.15940 0.04221 -0.61176
v 0.22640 0.04221 0.03237
v 0.25173 0.04221 0.03457
v 0.23860 0.04221 -0.05557
v 0.24758 0.02766 -0.74293
v 0.24758 -0.01383 -0.74293
v 0.17588 -0.01383 -0.77929
v 0.17588 0.02766 -0.77929
v -0.21517 -0.01383 -0.33517
v -0.21517 0.02766 -0.33517
v 0.28463 0.02766 0.02044
v 0.25408 -0.01383 0.05075
v 0.28463 -0.01383 0.02044
v 0.25408 0.02766 0.05075
v -0.10153 0.04221 -0.33517
v 0.00000 0.04221 -0.33517
v 0.00000 -0.01383 -0.80000
v 0.00000 0.02766 -0.80000
v -0.25397 0.04221 -0.21768
v -0.36055 0.02766 -0.57539
v -0.32812 -0.01383 -0.67961
v -0.36055 -0.01383 -0.57539
v -0.32812 0.02766 -0.67961
v -0.24916 -0.02935 -0.72388
v -0.18078 0.02766 -0.05892
v -0.18078 -0.01383 -0.05892
v -0.14938 -0.01383 -0.10274
v -0.14938 0.02766 -0.10274
v -0.18845 0.04221 -0.07320
v 0.28272 0.04221 -0.08719
v 0.29674 -0.01383 -0.09724
v 0.29674 0.02766 -0.09724
v 0.27252 0.04221 0.01195
v 0.00000 -0.01383 -0.17924
v 0.00000 0.02766 -0.17924
v 0.32812 0.02766 -0.67961
v 0.32812 -0.01383 -0.67961
v -0.23123 0.02766 -0.05706
v -0.23123 -0.01383 -0.05706
v 0.23545 -0.01383 -0.37633
v 0.23545 0.02766 -0.37633
v 0.21517 0.02766 -0.33517
v 0.21517 -0.01383 -0.33517
v 0.31927 0.02766 -0.46444
v 0.31927 -0.01383 -0.46444
v 0.36055 -0.01383 -0.57539
v 0.36055 0.02766 -0.57539
v 0.27171 -0.02935 0.01139
v 0.34461 0.04221 -0.57827
v -0.17588 0.02766 -0.77929
v -0.17588 -0.01383 -0.77929
v -0.24758 -0.01383 -0.74293
v -0.24758 0.02766 -0.74293
v 0.31583 0.04221 -0.67076
v -0.31677 -0.02935 -0.66879
v 0.05630 0.05678 -0.20327
v 0.05630 -0.01393 -0.20327
v 0.00000 -0.01393 -0.20327
v 0.00000 0.05678 -0.20327
v 0.05630 0.05678 0.55823
v 0.05630 0.01456 0.55823
v 0.05630 0.01456 0.18509
v 0.05630 0.05678 0.18509
v -0.07785 -0.00852 0.75843
v 0.00000 -0.01649 0.77910
v 0.00000 0.05345 0.58646
v -0.06989 0.05345 0.58646
v -0.05630 0.05678 0.18509
v -0.05630 -0.01393 -0.20327
v -0.05630 0.01456 0.18509
v -0.05630 0.05678 -0.20327
v 0.00000 0.01456 0.55823
v 0.00000 0.01456 0.18509
v -0.05630 0.01456 0.55823
v 0.00000 0.05678 0.18509
v -0.05630 0.05678 0.55823
v 0.00000 0.05678 0.55823
v 0.16054 -0.02081 -0.49799
v 0.05351 0.06000 -0.49799
v 0.05351 -0.02081 -0.49799
v 0.16054 0.05395 -0.49799
v 0.16054 0.05395 -0.55936
v 0.16054 -0.02081 -0.55936
v 0.05351 -0.02081 -0.57257
v 0.05351 0.06000 -0.57257
v -0.16054 -0.02081 -0.49799
v -0.05351 -0.02081 -0.57257
v -0.05351 -0.02081 -0.49799
v -0.16054 -0.02081 -0.55936
v -0.16054 0.05395 -0.49799
v -0.16054 0.05395 -0.55936
v -0.05351 0.06000 -0.57257
v -0.05351 0.06000 -0.49799
v -0.07785 -0.04621 0.73944
v -0.00000 -0.05419 0.76011
v 0.07885 -0.02972 0.80000
v 0.07885 -0.06742 0.78101
v 0.06989 0.01250 0.58378
v 0.06989 0.05345 0.58646
v -0.06989 0.01250 0.58378
v 0.00000 0.01250 0.58378
v 0.03425 0.05676 0.55823
v 0.04659 0.05676 -0.53123
v 0.04659 0.05676 0.55823
v 0.03425 0.05676 -0.53123
v 0.03425 0.06458 -0.53123
v 0.03425 0.06458 0.55823
v 0.04659 0.06458 0.55823
v 0.04659 0.06458 -0.53123
v 0.04817 0.04978 0.61414
v 0.04817 0.04267 0.61087
v 0.04373 0.05705 0.60223
v 0.04373 0.02892 0.61779
v 0.04373 0.04835 0.62516
v 0.04373 0.03762 0.59485
v 0.08426 0.03762 0.59485
v 0.08426 0.05705 0.60223
v 0.08426 0.04835 0.62516
v 0.08426 0.02892 0.61779
v 0.04983 0.03548 0.65546
v 0.04983 0.00735 0.67102
v 0.04983 0.02678 0.67840
v 0.04983 0.01605 0.64809
v 0.08920 0.01605 0.64809
v 0.08920 0.03548 0.65546
v 0.08920 0.02678 0.67840
v 0.08920 0.00735 0.67102
v 0.05140 0.01529 0.70961
v 0.05140 -0.01284 0.72517
v 0.05140 0.00658 0.73255
v 0.05140 -0.00414 0.70224
v 0.09561 -0.00414 0.70224
v 0.09561 0.01529 0.70961
v 0.09561 0.00658 0.73255
v 0.09561 -0.01284 0.72517
v -0.04373 0.03762 0.59485
v -0.04373 0.05705 0.60223
v -0.04373 0.04835 0.62516
v -0.04373 0.02892 0.61779
v -0.08426 0.05705 0.60223
v -0.08426 0.02892 0.61779
v -0.08426 0.04835 0.62516
v -0.08426 0.03762 0.59485
v -0.04983 0.01605 0.64809
v -0.04983 0.03548 0.65546
v -0.04983 0.02678 0.67840
v -0.04983 0.00735 0.67102
v -0.08920 0.03548 0.65546
v -0.08920 0.00735 0.67102
v -0.08920 0.02678 0.67840
v -0.08920 0.01605 0.64809
v -0.05140 -0.00414 0.70224
v -0.05140 0.01529 0.70961
v -0.05140 0.00658 0.73255
v -0.05140 -0.01284 0.72517
v -0.09561 0.01529 0.70961
v -0.09561 -0.01284 0.72517
v -0.09561 0.00658 0.73255
v -0.09561 -0.00414 0.70224
v 0.06052 0.04267 0.61087
v 0.06052 0.04978 0.61414
v 0.01873 0.05676 0.55823
v 0.03107 0.05676 -0.53123
v 0.03107 0.05676 0.55823
v 0.01873 0.05676 -0.53123
v 0.01873 0.06458 -0.53123
v 0.01873 0.06458 0.55823
v 0.03107 0.06458 0.55823
v 0.03107 0.06458 -0.53123
v 0.05121 0.02501 0.67216
v 0.05121 0.01791 0.66889
v 0.06355 0.01791 0.66889
v 0.06355 0.02501 0.67216
v 0.00282 0.05676 0.55786
v 0.01516 0.05676 -0.53161
v 0.01516 0.05676 0.55786
v 0.00282 0.05676 -0.53161
v 0.00282 0.06458 -0.53161
v 0.00282 0.06458 0.55786
v 0.01516 0.06458 0.55786
v 0.01516 0.06458 -0.53161
v 0.05432 0.00616 0.72425
v 0.05432 -0.00094 0.72098
v 0.06667 -0.00094 0.72098
v 0.06667 0.00616 0.72425
v -0.04612 0.05676 -0.53123
v -0.03338 0.05676 0.55823
v -0.04612 0.05676 0.55823
v -0.03338 0.05676 -0.53123
v -0.03338 0.06458 -0.53123
v -0.04612 0.06458 -0.53123
v -0.04612 0.06458 0.55823
v -0.03338 0.06458 0.55823
v -0.04776 0.04267 0.61087
v -0.04776 0.04978 0.61414
v -0.06050 0.04267 0.61087
v -0.06050 0.04978 0.61414
v -0.03010 0.05676 -0.53123
v -0.01736 0.05676 0.55823
v -0.03010 0.05676 0.55823
v -0.01736 0.05676 -0.53123
v -0.01736 0.06458 -0.53123
v -0.03010 0.06458 -0.53123
v -0.03010 0.06458 0.55823
v -0.01736 0.06458 0.55823
v -0.05090 0.01791 0.66889
v -0.05090 0.02501 0.67216
v -0.06364 0.01791 0.66889
v -0.06364 0.02501 0.67216
v -0.01368 0.05676 -0.53161
v -0.00094 0.05676 0.55786
v -0.01368 0.05676 0.55786
v -0.00094 0.05676 -0.53161
v -0.00094 0.06458 -0.53161
v -0.01368 0.06458 -0.53161
v -0.01368 0.06458 0.55786
v -0.00094 0.06458 0.55786
v -0.05411 -0.00094 0.72098
v -0.05411 0.00616 0.72425
v -0.06685 -0.00094 0.72098
v -0.06685 0.00616 0.72425
v 0.04031 0.06742 -0.52455
v 0.03262 0.05655 -0.53224
v 0.04031 0.05655 -0.52455
v 0.03262 0.06742 -0.53224
v 0.04031 0.05655 -0.53993
v 0.04031 0.06742 -0.53993
v 0.04800 0.06742 -0.53224
v 0.04800 0.05655 -0.53224
v 0.02508 0.06742 -0.52455
v 0.01739 0.05655 -0.53224
v 0.02508 0.05655 -0.52455
v 0.01739 0.06742 -0.53224
v 0.02508 0.05655 -0.53993
v 0.02508 0.06742 -0.53993
v 0.03277 0.06742 -0.53224
v 0.03277 0.05655 -0.53224
v 0.00927 0.06742 -0.52455
v 0.00158 0.05655 -0.53224
v 0.00927 0.05655 -0.52455
v 0.00158 0.06742 -0.53224
v 0.00927 0.05655 -0.53993
v 0.00927 0.06742 -0.53993
v 0.01696 0.06742 -0.53224
v 0.01696 0.05655 -0.53224
v -0.00720 0.06742 -0.52455
v -0.01489 0.05655 -0.53224
v -0.00720 0.05655 -0.52455
v -0.01489 0.06742 -0.53224
v -0.00720 0.06742 -0.53993
v -0.00720 0.05655 -0.53993
v 0.00049 0.06742 -0.53224
v 0.00049 0.05655 -0.53224
v -0.02331 0.06742 -0.52455
v -0.03100 0.05655 -0.53224
v -0.02331 0.05655 -0.52455
v -0.03100 0.06742 -0.53224
v -0.02331 0.05655 -0.53993
v -0.02331 0.06742 -0.53993
v -0.01562 0.06742 -0.53224
v -0.01562 0.05655 -0.53224
v -0.03963 0.06742 -0.52455
v -0.04732 0.05655 -0.53224
v -0.03963 0.05655 -0.52455
v -0.04732 0.06742 -0.53224
v -0.03963 0.05655 -0.53993
v -0.03963 0.06742 -0.53993
v -0.03194 0.06742 -0.53224
v -0.03194 0.05655 -0.53224
v -0.25477 0.05060 -0.61096
v -0.26975 0.04353 -0.60475
v -0.25477 0.04353 -0.61096
v -0.26975 0.05060 -0.60475
v -0.28473 0.05060 -0.61096
v -0.29093 0.04353 -0.62594
v -0.28473 0.04353 -0.61096
v -0.29093 0.05060 -0.62594
v -0.26975 0.05060 -0.64712
v -0.26975 0.04353 -0.64712
v -0.28473 0.04353 -0.64092
v -0.28473 0.05060 -0.64092
v -0.24856 0.05060 -0.62594
v -0.24856 0.04353 -0.62594
v -0.25477 0.04353 -0.64092
v -0.25477 0.05060 -0.64092
v -0.25693 0.05210 -0.62594
v -0.26068 0.05210 -0.63500
v -0.26068 0.05210 -0.61687
v -0.27881 0.05210 -0.61687
v -0.26975 0.05210 -0.61312
v -0.27881 0.05210 -0.63500
v -0.28257 0.05210 -0.62594
v -0.26975 0.05210 -0.63876
v -0.26361 0.06173 -0.61980
v -0.26975 0.06173 -0.61726
v -0.27588 0.06173 -0.61980
v -0.27843 0.06173 -0.62594
v -0.26975 0.06173 -0.63462
v -0.27588 0.06173 -0.63208
v -0.26107 0.06173 -0.62594
v -0.26361 0.06173 -0.63208
v -0.26975 0.06173 -0.62594
v -0.21949 0.05060 -0.66459
v -0.23447 0.04353 -0.65838
v -0.21949 0.04353 -0.66459
v -0.23447 0.05060 -0.65838
v -0.24945 0.05060 -0.66459
v -0.25565 0.04353 -0.67957
v -0.24945 0.04353 -0.66459
v -0.25565 0.05060 -0.67957
v -0.23447 0.05060 -0.70075
v -0.23447 0.04353 -0.70075
v -0.24945 0.04353 -0.69455
v -0.24945 0.05060 -0.69455
v -0.21328 0.05060 -0.67957
v -0.21328 0.04353 -0.67957
v -0.21949 0.04353 -0.69455
v -0.21949 0.05060 -0.69455
v -0.22165 0.05210 -0.67957
v -0.22540 0.05210 -0.68864
v -0.22540 0.05210 -0.67050
v -0.24354 0.05210 -0.67050
v -0.23447 0.05210 -0.66675
v -0.24354 0.05210 -0.68864
v -0.24729 0.05210 -0.67957
v -0.23447 0.05210 -0.69239
v -0.22833 0.06173 -0.67343
v -0.23447 0.06173 -0.67089
v -0.24061 0.06173 -0.67343
v -0.24315 0.06173 -0.67957
v -0.23447 0.06173 -0.68825
v -0.24061 0.06173 -0.68571
v -0.22579 0.06173 -0.67957
v -0.22833 0.06173 -0.68571
v -0.23447 0.06173 -0.67957
v -0.22698 0.04353 -0.68706
v -0.22387 0.04353 -0.67957
v -0.22698 0.04353 -0.67208
v -0.27724 0.04353 -0.61844
v -0.28034 0.04353 -0.62594
v -0.23447 0.04353 -0.66897
v -0.26975 0.04353 -0.61534
v -0.24196 0.04353 -0.67208
v -0.26225 0.04353 -0.61844
v -0.24507 0.04353 -0.67957
v -0.25915 0.04353 -0.62594
v -0.26225 0.04353 -0.63343
v -0.24196 0.04353 -0.68706
v -0.26975 0.04353 -0.63654
v -0.23447 0.04353 -0.69017
v -0.27724 0.04353 -0.63343
v -0.09462 0.00679 -0.35018
v -0.05351 0.00679 -0.38949
v -0.05351 0.00679 -0.35018
v -0.09462 0.00679 -0.38949
v 0.09462 0.05080 -0.38949
v 0.05351 0.05353 -0.38949
v 0.05351 0.05353 -0.35018
v 0.09462 0.05080 -0.35018
v 0.09462 0.00679 -0.38949
v 0.05351 0.00679 -0.38949
v 0.09462 0.00679 -0.35018
v 0.05351 0.00679 -0.35018
v -0.09462 0.05080 -0.35018
v -0.09462 0.05080 -0.38949
v -0.05351 0.05353 -0.38949
v -0.05351 0.05353 -0.35018
v 0.05256 0.05765 -0.35592
v 0.04249 0.05121 -0.36933
v 0.05256 0.05121 -0.35592
v 0.04249 0.05765 -0.36933
v 0.05256 0.05121 -0.38274
v 0.05256 0.05765 -0.38274
v 0.06263 0.05765 -0.36933
v 0.06263 0.05121 -0.36933
v 0.03260 0.05765 -0.35592
v 0.02253 0.05121 -0.36933
v 0.03260 0.05121 -0.35592
v 0.02253 0.05765 -0.36933
v 0.03260 0.05121 -0.38274
v 0.03260 0.05765 -0.38274
v 0.04267 0.05765 -0.36933
v 0.04267 0.05121 -0.36933
v 0.01190 0.05765 -0.35592
v 0.00183 0.05121 -0.36933
v 0.01190 0.05121 -0.35592
v 0.00183 0.05765 -0.36933
v 0.01190 0.05121 -0.38274
v 0.01190 0.05765 -0.38274
v 0.02197 0.05765 -0.36933
v 0.02197 0.05121 -0.36933
v -0.00966 0.05765 -0.35592
v -0.01973 0.05121 -0.36933
v -0.00966 0.05121 -0.35592
v -0.01973 0.05765 -0.36933
v -0.00966 0.05121 -0.38274
v -0.00966 0.05765 -0.38274
v 0.00041 0.05765 -0.36933
v 0.00041 0.05121 -0.36933
v -0.03075 0.05765 -0.35592
v -0.04082 0.05121 -0.36933
v -0.03075 0.05121 -0.35592
v -0.04082 0.05765 -0.36933
v -0.03075 0.05121 -0.38274
v -0.03075 0.05765 -0.38274
v -0.02068 0.05765 -0.36933
v -0.02068 0.05121 -0.36933
v -0.05213 0.05765 -0.35592
v -0.06220 0.05121 -0.36933
v -0.05213 0.05121 -0.35592
v -0.06220 0.05765 -0.36933
v -0.05213 0.05121 -0.38274
v -0.05213 0.05765 -0.38274
v -0.04206 0.05765 -0.36933
v -0.04206 0.05121 -0.36933
v -0.32480 0.03594 -0.57815
v -0.21376 0.03594 -0.73568
v -0.26866 0.03594 -0.62487
v -0.29618 0.03594 -0.67011
v -0.14695 0.04713 -0.73846
v -0.21781 0.04713 -0.64294
v -0.21781 0.03594 -0.64294
v -0.14695 0.03594 -0.73846
v -0.30310 0.03594 -0.50786
v -0.25829 0.03594 -0.60229
v -0.24792 0.03594 -0.57971
v -0.29618 0.04713 -0.67011
v -0.32480 0.04713 -0.57815
v -0.26866 0.04713 -0.62487
v -0.21376 0.04713 -0.73568
v -0.30310 0.04713 -0.50786
v -0.25829 0.04713 -0.60229
v -0.24792 0.04713 -0.57971
v -0.25115 0.04713 -0.51756
v -0.25115 0.03594 -0.51756
v -0.15401 0.03594 -0.74929
v -0.15401 0.04713 -0.74929
vt 0.25000 0.25000
vt 0.25000 0.75000
vt 0.75000 0.25000
vt 0.75000 0.75000
vn -0.0000 -1.0000 0.0000
vn 0.0000 1.0000 0.0000
vn -0.9878 0.0000 0.1557
vn -0.8489 0.0000 0.5285
vn 0.9015 -0.0000 -0.4328
vn -0.9015 0.0000 -0.4328
vn -0.7245 0.0000 0.6892
vn 0.4524 -0.0000 -0.8918
vn -0.9182 0.0000 -0.3961
vn 0.7045 -0.0000 0.7097
vn 0.1169 -0.0000 -0.9931
vn -0.9548 0.0000 -0.2972
vn -0.9372 0.0000 0.3487
vn -0.1325 0.0000 0.9912
vn 0.8129 -0.0000 0.5824
vn 0.9947 -0.0000 0.1024
vn -0.6756 0.0000 0.7373
vn 0.6180 -0.0000 -0.7861
vn -0.8491 0.0000 0.5283
vn 0.8970 -0.0000 0.4420
vn 0.9182 -0.0000 -0.3961
vn 0.9372 -0.0000 0.3487
vn -0.8970 0.0000 0.4420
vn 0.7245 -0.0000 0.6892
vn 0.9755 -0.0000 -0.2200
vn 0.9548 -0.0000 -0.2972
vn -0.9962 0.0000 -0.0868
vn 0.0369 -0.0000 0.9993
vn -0.4524 0.0000 -0.8918
vn -0.1169 0.0000 -0.9931
vn 0.4558 -0.0000 0.8901
vn 0.4527 0.6883 -0.5669
vn 0.6590 0.7373 -0.1486
vn -0.6937 0.6872 -0.2159
vn -0.3242 0.7078 -0.6276
vn 0.0813 0.7188 -0.6905
vn 0.2908 0.7701 0.5678
vn 0.6319 0.7386 0.2351
vn -0.0813 0.7188 -0.6904
vn -0.4777 0.7071 0.5213
vn -0.6808 0.7301 -0.0593
vn -0.6481 0.6913 0.3194
vn 0.6348 0.7065 0.3129
vn 0.5529 0.6463 0.5260
vn 0.6347 0.7102 -0.3047
vn -0.5625 0.6302 0.5351
vn -0.6481 0.6951 -0.3111
vn -0.6560 0.6997 -0.2830
vn 0.6422 0.7147 -0.2770
vn -0.6464 0.7241 0.2405
vn 0.6796 0.7024 -0.2115
vn -0.6337 0.6762 0.3758
vn -0.7267 0.6773 0.1145
vn 0.5748 0.7071 0.4118
vn -0.0789 0.7204 0.6891
vn -0.6003 0.7071 0.3737
vn 0.7440 0.6638 0.0766
vn 0.3242 0.7078 -0.6276
vn 0.5213 0.6875 0.5055
vn -0.4527 0.6882 -0.5670
vn 0.0127 0.7257 0.6879
vn -0.6180 0.0000 -0.7861
vn -0.4531 -0.6880 -0.5669
vn 0.6941 -0.6867 -0.2160
vn -0.6808 -0.7301 -0.0593
vn 0.3246 -0.7077 -0.6275
vn -0.0813 -0.7188 -0.6905
vn -0.5203 -0.6379 0.5678
vn -0.6611 -0.7089 0.2459
vn 0.0813 -0.7188 -0.6905
vn 0.3223 -0.7071 0.6294
vn 0.6590 -0.7373 -0.1486
vn -0.6543 -0.7016 -0.2822
vn 0.6404 -0.7166 -0.2763
vn 0.5628 -0.6297 0.5354
vn 0.6347 -0.7102 -0.3047
vn -0.5721 -0.6135 0.5443
vn -0.6481 -0.6951 -0.3111
vn -0.6465 -0.6932 0.3186
vn 0.6331 -0.7084 0.3120
vn 0.6468 -0.7237 0.2406
vn -0.7078 -0.6712 -0.2203
vn 0.0117 -0.7257 0.6880
vn -0.7267 -0.6773 0.1145
vn 0.5748 -0.7071 0.4118
vn 0.5222 -0.6874 0.5048
vn -0.6003 -0.7071 0.3737
vn 0.7440 -0.6638 0.0766
vn 0.4531 -0.6881 -0.5668
vn -0.0779 -0.7203 0.6892
vn -0.3246 -0.7077 -0.6275
vn -0.6345 -0.6760 0.3749
vn 0.0000 0.0000 -1.0000
vn 1.0000 -0.0000 0.0000
vn 0.0032 0.9403 0.3403
vn -1.0000 0.0000 0.0000
vn -0.0000 -0.9973 0.0732
vn 0.0000 0.0000 1.0000
vn 0.1225 -0.0000 -0.9925
vn 0.0564 0.9984 0.0000
vn -0.0564 0.9984 0.0000
vn -0.1225 0.0000 -0.9925
vn -0.2725 -0.4329 0.8593
vn 0.9992 0.0108 -0.0393
vn -0.9990 0.0121 -0.0441
vn -0.0316 -0.9307 -0.3645
vn -0.0000 -0.9967 -0.0806
vn -0.8929 0.0145 -0.4501
vn 0.8929 0.0145 -0.4501
vn 0.0000 0.9931 0.1171
vn -0.0011 -0.9355 -0.3534
vn -0.2980 -0.4295 0.8525
vn 0.0338 0.9354 0.3519
vn -0.9705 -0.0516 0.2354
vn -0.0000 -0.9349 -0.3549
vn 0.0000 0.9349 0.3549
vn 0.0000 0.3549 -0.9349
vn -0.0000 -0.3549 0.9349
vn -0.0000 -0.4181 0.9084
vn 0.0000 0.9667 0.2560
vn -0.0000 -0.9660 -0.2586
vn 0.9705 0.0516 -0.2354
vn -0.9642 -0.0568 0.2591
vn 0.0000 0.9446 0.3281
vn -0.0000 -0.9435 -0.3313
vn 0.9642 0.0568 -0.2591
vn -0.9586 -0.0609 0.2782
vn 0.0000 0.9435 0.3313
vn -0.0000 -0.9428 -0.3335
vn 0.9586 0.0609 -0.2782
vn 0.9687 -0.0531 0.2425
vn -0.9687 0.0531 -0.2425
vn 0.9620 -0.0585 0.2669
vn -0.9620 0.0585 -0.2669
vn 0.9561 -0.0627 0.2864
vn -0.9561 0.0627 -0.2864
vn -0.7071 0.0000 0.7071
vn -0.7071 0.0000 -0.7071
vn 0.7071 -0.0000 -0.7071
vn 0.7071 -0.0000 0.7071
vn 0.3827 -0.0000 0.9239
vn -0.9239 0.0000 0.3827
vn -0.3827 0.0000 -0.9239
vn 0.9239 -0.0000 -0.3827
vn 0.9239 -0.0000 0.3827
vn -0.3827 0.0000 0.9239
vn -0.9239 0.0000 -0.3827
vn 0.3827 -0.0000 -0.9239
vn 0.1759 0.9817 -0.0729
vn 0.1759 0.9817 0.0729
vn -0.0729 0.9817 0.1759
vn -0.1759 0.9817 -0.0729
vn 0.0729 0.9817 -0.1759
vn 0.0729 0.9817 0.1759
vn -0.1759 0.9817 0.0729
vn -0.0729 0.9817 -0.1759
vn 0.3557 0.3691 0.8586
vn -0.8586 0.3691 0.3557
vn -0.3557 0.3691 -0.8586
vn 0.8586 0.3691 -0.3557
vn 0.8586 0.3691 0.3557
vn -0.3557 0.3691 0.8586
vn -0.8586 0.3691 -0.3557
vn 0.3557 0.3691 -0.8586
vn 0.0664 0.9978 0.0000
vn -0.0664 0.9978 0.0000
vn -0.7996 0.0000 0.6005
vn -0.7996 0.0000 -0.6005
vn 0.7996 -0.0000 -0.6005
vn 0.7996 -0.0000 0.6005
vn 0.8031 -0.0000 0.5958
vn 0.9987 -0.0000 0.0519
vn -0.6226 0.0000 -0.7825
vn 0.9028 -0.0000 0.4300
vn 0.1835 -0.0000 0.9830
vn -0.9555 0.0000 0.2949
vn 0.8374 -0.0000 -0.5466
vn -0.2221 0.0000 -0.9750
f 1/1/1 2/1/1 3/1/1
f 2/1/1 1/1/1 4/1/1
f 5/1/1 6/1/1 7/1/1
f 6/1/1 5/1/1 8/1/1
f 9/1/1 10/1/1 11/1/1
f 10/1/1 9/1/1 12/1/1
f 13/1/2 14/1/2 15/1/2
f 15/1/2 16/1/2 13/1/2
f 17/1/3 18/1/3 19/1/3
f 18/1/3 17/1/3 20/1/3
f 21/1/1 7/1/1 22/1/1
f 7/1/1 21/1/1 5/1/1
f 23/1/1 24/1/1 25/1/1
f 24/1/1 23/1/1 26/1/1
f 27/1/2 28/1/2 29/1/2
f 29/1/2 30/1/2 27/1/2
f 31/1/4 32/1/4 33/1/4
f 32/1/4 31/1/4 34/1/4
f 35/1/1 36/1/1 1/1/1
f 36/1/1 35/1/1 37/1/1
f 38/1/1 39/1/1 40/1/1
f 39/1/1 38/1/1 41/1/1
f 42/1/1 43/1/1 44/1/1
f 43/1/1 42/1/1 45/1/1
f 35/1/1 3/1/1 46/1/1
f 3/1/1 35/1/1 1/1/1
f 30/1/2 29/1/2 47/1/2
f 47/1/2 48/1/2 30/1/2
f 49/1/1 26/1/1 23/1/1
f 26/1/1 49/1/1 50/1/1
f 39/1/1 8/1/1 5/1/1
f 8/1/1 39/1/1 51/1/1
f 52/1/2 53/1/2 54/1/2
f 54/1/2 55/1/2 52/1/2
f 56/1/2 57/1/2 58/1/2
f 58/1/2 59/1/2 56/1/2
f 60/1/5 61/1/5 62/1/5
f 62/1/5 63/1/5 60/1/5
f 64/1/1 65/1/1 66/1/1
f 65/1/1 64/1/1 67/1/1
f 68/1/6 69/1/6 70/1/6
f 69/1/6 68/1/6 71/1/6
f 66/1/1 72/1/1 73/1/1
f 72/1/1 66/1/1 65/1/1
f 74/1/2 75/1/2 76/1/2
f 76/1/2 77/1/2 74/1/2
f 10/1/1 78/1/1 79/1/1
f 78/1/1 10/1/1 44/1/1
f 80/1/2 81/1/2 82/1/2
f 82/1/2 83/1/2 80/1/2
f 3/1/1 84/1/1 85/1/1
f 84/1/1 3/1/1 2/1/1
f 86/1/1 87/1/1 88/1/1
f 87/1/1 86/1/1 89/1/1
f 43/1/1 90/1/1 91/1/1
f 90/1/1 43/1/1 46/1/1
f 92/1/2 93/1/2 94/1/2
f 94/1/2 95/1/2 92/1/2
f 59/1/2 58/1/2 96/1/2
f 96/1/2 97/1/2 59/1/2
f 98/1/2 99/1/2 100/1/2
f 100/1/2 53/1/2 98/1/2
f 54/1/2 101/1/2 102/1/2
f 102/1/2 57/1/2 54/1/2
f 1/1/1 103/1/1 4/1/1
f 103/1/1 1/1/1 36/1/1
f 104/1/2 105/1/2 99/1/2
f 99/1/2 106/1/2 104/1/2
f 89/1/1 50/1/1 49/1/1
f 50/1/1 89/1/1 107/1/1
f 41/1/1 51/1/1 39/1/1
f 51/1/1 41/1/1 87/1/1
f 79/1/1 108/1/1 109/1/1
f 108/1/1 79/1/1 110/1/1
f 111/1/7 112/1/7 113/1/7
f 112/1/7 111/1/7 114/1/7
f 115/1/2 116/1/2 117/1/2
f 117/1/2 118/1/2 115/1/2
f 118/1/2 117/1/2 94/1/2
f 94/1/2 93/1/2 118/1/2
f 56/1/2 59/1/2 119/1/2
f 119/1/2 120/1/2 56/1/2
f 121/1/1 89/1/1 86/1/1
f 89/1/1 121/1/1 107/1/1
f 88/1/1 41/1/1 110/1/1
f 41/1/1 88/1/1 87/1/1
f 84/1/1 122/1/1 85/1/1
f 122/1/1 84/1/1 123/1/1
f 119/1/2 124/1/2 82/1/2
f 82/1/2 81/1/2 119/1/2
f 125/1/2 126/1/2 81/1/2
f 81/1/2 80/1/2 125/1/2
f 87/1/1 49/1/1 51/1/1
f 49/1/1 87/1/1 89/1/1
f 12/1/1 127/1/1 42/1/1
f 127/1/1 12/1/1 128/1/1
f 44/1/1 91/1/1 78/1/1
f 91/1/1 44/1/1 43/1/1
f 77/1/2 76/1/2 126/1/2
f 126/1/2 125/1/2 77/1/2
f 55/1/2 54/1/2 57/1/2
f 57/1/2 56/1/2 55/1/2
f 51/1/1 23/1/1 8/1/1
f 23/1/1 51/1/1 49/1/1
f 129/1/2 130/1/2 28/1/2
f 28/1/2 27/1/2 129/1/2
f 131/1/2 132/1/2 133/1/2
f 133/1/2 102/1/2 131/1/2
f 12/1/1 44/1/1 10/1/1
f 44/1/1 12/1/1 42/1/1
f 134/1/8 135/1/8 136/1/8
f 136/1/8 137/1/8 134/1/8
f 59/1/2 97/1/2 124/1/2
f 124/1/2 119/1/2 59/1/2
f 138/1/9 71/1/9 139/1/9
f 71/1/9 138/1/9 69/1/9
f 78/1/1 110/1/1 79/1/1
f 110/1/1 78/1/1 88/1/1
f 90/1/1 86/1/1 91/1/1
f 86/1/1 90/1/1 121/1/1
f 120/1/2 119/1/2 81/1/2
f 81/1/2 126/1/2 120/1/2
f 123/1/1 64/1/1 122/1/1
f 64/1/1 123/1/1 67/1/1
f 140/1/10 141/1/10 142/1/10
f 141/1/10 140/1/10 143/1/10
f 91/1/1 88/1/1 78/1/1
f 88/1/1 91/1/1 86/1/1
f 144/1/2 52/1/2 145/1/2
f 120/1/2 126/1/2 145/1/2
f 75/1/2 144/1/2 145/1/2
f 55/1/2 56/1/2 145/1/2
f 126/1/2 76/1/2 145/1/2
f 52/1/2 55/1/2 145/1/2
f 56/1/2 120/1/2 145/1/2
f 76/1/2 75/1/2 145/1/2
f 28/1/2 77/1/2 125/1/2
f 125/1/2 29/1/2 28/1/2
f 137/1/11 136/1/11 146/1/11
f 146/1/11 147/1/11 137/1/11
f 148/1/2 106/1/2 99/1/2
f 99/1/2 98/1/2 148/1/2
f 149/1/12 150/1/12 151/1/12
f 150/1/12 149/1/12 152/1/12
f 8/1/1 25/1/1 6/1/1
f 25/1/1 8/1/1 23/1/1
f 26/1/1 153/1/1 24/1/1
f 153/1/1 26/1/1 73/1/1
f 130/1/2 74/1/2 77/1/2
f 77/1/2 28/1/2 130/1/2
f 29/1/2 125/1/2 80/1/2
f 80/1/2 47/1/2 29/1/2
f 114/1/13 151/1/13 112/1/13
f 151/1/13 114/1/13 149/1/13
f 11/1/1 79/1/1 109/1/1
f 79/1/1 11/1/1 10/1/1
f 143/1/14 34/1/14 141/1/14
f 34/1/14 143/1/14 32/1/14
f 154/1/15 155/1/15 156/1/15
f 156/1/15 157/1/15 154/1/15
f 105/1/2 158/1/2 100/1/2
f 100/1/2 99/1/2 105/1/2
f 58/1/2 133/1/2 159/1/2
f 159/1/2 96/1/2 58/1/2
f 140/1/16 142/1/16 160/1/16
f 160/1/16 161/1/16 140/1/16
f 53/1/2 100/1/2 101/1/2
f 101/1/2 54/1/2 53/1/2
f 132/1/2 162/1/2 159/1/2
f 159/1/2 133/1/2 132/1/2
f 16/1/2 15/1/2 130/1/2
f 130/1/2 129/1/2 16/1/2
f 33/1/17 163/1/17 31/1/17
f 163/1/17 33/1/17 164/1/17
f 40/1/1 5/1/1 21/1/1
f 5/1/1 40/1/1 39/1/1
f 165/1/18 166/1/18 135/1/18
f 135/1/18 134/1/18 165/1/18
f 110/1/1 38/1/1 108/1/1
f 38/1/1 110/1/1 41/1/1
f 167/1/19 20/1/19 168/1/19
f 20/1/19 167/1/19 18/1/19
f 14/1/2 92/1/2 95/1/2
f 95/1/2 15/1/2 14/1/2
f 169/1/20 170/1/20 171/1/20
f 171/1/20 172/1/20 169/1/20
f 172/1/21 171/1/21 63/1/21
f 63/1/21 62/1/21 172/1/21
f 173/1/22 174/1/22 175/1/22
f 175/1/22 176/1/22 173/1/22
f 9/1/1 128/1/1 12/1/1
f 128/1/1 9/1/1 177/1/1
f 113/1/23 139/1/23 111/1/23
f 139/1/23 113/1/23 138/1/23
f 115/1/2 148/1/2 98/1/2
f 98/1/2 116/1/2 115/1/2
f 170/1/24 169/1/24 174/1/24
f 174/1/24 173/1/24 170/1/24
f 161/1/25 160/1/25 61/1/25
f 61/1/25 60/1/25 161/1/25
f 176/1/26 175/1/26 166/1/26
f 166/1/26 165/1/26 176/1/26
f 57/1/2 102/1/2 133/1/2
f 133/1/2 58/1/2 57/1/2
f 47/1/2 80/1/2 83/1/2
f 83/1/2 178/1/2 47/1/2
f 19/1/27 70/1/27 17/1/27
f 70/1/27 19/1/27 68/1/27
f 154/1/28 168/1/28 155/1/28
f 168/1/28 154/1/28 167/1/28
f 15/1/2 95/1/2 74/1/2
f 74/1/2 130/1/2 15/1/2
f 179/1/29 180/1/29 181/1/29
f 181/1/29 182/1/29 179/1/29
f 117/1/2 144/1/2 75/1/2
f 75/1/2 94/1/2 117/1/2
f 85/1/1 121/1/1 90/1/1
f 121/1/1 85/1/1 122/1/1
f 122/1/1 107/1/1 121/1/1
f 107/1/1 122/1/1 64/1/1
f 116/1/2 52/1/2 144/1/2
f 144/1/2 117/1/2 116/1/2
f 107/1/1 66/1/1 50/1/1
f 66/1/1 107/1/1 64/1/1
f 45/1/1 46/1/1 43/1/1
f 46/1/1 45/1/1 35/1/1
f 95/1/2 94/1/2 75/1/2
f 75/1/2 74/1/2 95/1/2
f 46/1/1 85/1/1 90/1/1
f 85/1/1 46/1/1 3/1/1
f 50/1/1 73/1/1 26/1/1
f 73/1/1 50/1/1 66/1/1
f 116/1/2 98/1/2 53/1/2
f 53/1/2 52/1/2 116/1/2
f 48/1/2 47/1/2 178/1/2
f 178/1/2 183/1/2 48/1/2
f 147/1/30 146/1/30 180/1/30
f 180/1/30 179/1/30 147/1/30
f 164/1/31 156/1/31 163/1/31
f 156/1/31 164/1/31 157/1/31
f 165/1/32 134/1/32 48/1/32
f 48/1/32 183/1/32 165/1/32
f 161/1/33 60/1/33 96/1/33
f 96/1/33 159/1/33 161/1/33
f 13/1/34 149/1/34 14/1/34
f 149/1/34 13/1/34 152/1/34
f 179/1/35 182/1/35 16/1/35
f 16/1/35 129/1/35 179/1/35
f 137/1/36 147/1/36 27/1/36
f 27/1/36 30/1/36 137/1/36
f 157/1/37 164/1/37 101/1/37
f 101/1/37 100/1/37 157/1/37
f 173/1/38 176/1/38 178/1/38
f 178/1/38 83/1/38 173/1/38
f 147/1/39 179/1/39 129/1/39
f 129/1/39 27/1/39 147/1/39
f 101/1/40 33/1/40 102/1/40
f 33/1/40 101/1/40 164/1/40
f 68/1/41 19/1/41 106/1/41
f 106/1/41 148/1/41 68/1/41
f 93/1/42 139/1/42 118/1/42
f 139/1/42 93/1/42 111/1/42
f 82/1/43 124/1/43 171/1/43
f 171/1/43 170/1/43 82/1/43
f 83/1/44 82/1/44 170/1/44
f 170/1/44 173/1/44 83/1/44
f 97/1/45 96/1/45 60/1/45
f 60/1/45 63/1/45 97/1/45
f 92/1/46 111/1/46 93/1/46
f 111/1/46 92/1/46 114/1/46
f 115/1/47 68/1/47 148/1/47
f 68/1/47 115/1/47 71/1/47
f 118/1/48 71/1/48 115/1/48
f 71/1/48 118/1/48 139/1/48
f 124/1/49 97/1/49 63/1/49
f 63/1/49 171/1/49 124/1/49
f 149/1/50 114/1/50 92/1/50
f 92/1/50 14/1/50 149/1/50
f 176/1/51 165/1/51 183/1/51
f 183/1/51 178/1/51 176/1/51
f 104/1/52 167/1/52 105/1/52
f 167/1/52 104/1/52 18/1/52
f 106/1/53 18/1/53 104/1/53
f 18/1/53 106/1/53 19/1/53
f 154/1/54 157/1/54 100/1/54
f 100/1/54 158/1/54 154/1/54
f 32/1/55 143/1/55 132/1/55
f 132/1/55 131/1/55 32/1/55
f 102/1/56 32/1/56 131/1/56
f 32/1/56 102/1/56 33/1/56
f 159/1/57 162/1/57 140/1/57
f 140/1/57 161/1/57 159/1/57
f 134/1/58 137/1/58 30/1/58
f 30/1/58 48/1/58 134/1/58
f 143/1/59 140/1/59 162/1/59
f 162/1/59 132/1/59 143/1/59
f 182/1/60 152/1/60 13/1/60
f 13/1/60 16/1/60 182/1/60
f 167/1/61 154/1/61 158/1/61
f 158/1/61 105/1/61 167/1/61
f 182/1/62 181/1/62 150/1/62
f 150/1/62 152/1/62 182/1/62
f 150/1/63 181/1/63 153/1/63
f 153/1/63 184/1/63 150/1/63
f 166/1/64 175/1/64 21/1/64
f 21/1/64 22/1/64 166/1/64
f 4/1/65 70/1/65 2/1/65
f 70/1/65 4/1/65 17/1/65
f 136/1/66 135/1/66 7/1/66
f 7/1/66 6/1/66 136/1/66
f 24/1/67 146/1/67 25/1/67
f 146/1/67 24/1/67 180/1/67
f 42/1/68 163/1/68 45/1/68
f 163/1/68 42/1/68 31/1/68
f 65/1/69 151/1/69 72/1/69
f 151/1/69 65/1/69 112/1/69
f 25/1/70 136/1/70 6/1/70
f 136/1/70 25/1/70 146/1/70
f 45/1/71 156/1/71 35/1/71
f 156/1/71 45/1/71 163/1/71
f 11/1/72 160/1/72 9/1/72
f 160/1/72 11/1/72 61/1/72
f 84/1/73 138/1/73 123/1/73
f 138/1/73 84/1/73 69/1/73
f 62/1/74 108/1/74 172/1/74
f 108/1/74 62/1/74 109/1/74
f 174/1/75 169/1/75 38/1/75
f 38/1/75 40/1/75 174/1/75
f 109/1/76 61/1/76 11/1/76
f 61/1/76 109/1/76 62/1/76
f 112/1/77 67/1/77 113/1/77
f 67/1/77 112/1/77 65/1/77
f 69/1/78 2/1/78 70/1/78
f 2/1/78 69/1/78 84/1/78
f 123/1/79 113/1/79 67/1/79
f 113/1/79 123/1/79 138/1/79
f 108/1/80 38/1/80 169/1/80
f 169/1/80 172/1/80 108/1/80
f 21/1/81 174/1/81 40/1/81
f 174/1/81 21/1/81 175/1/81
f 72/1/82 150/1/82 184/1/82
f 150/1/82 72/1/82 151/1/82
f 37/1/83 168/1/83 36/1/83
f 168/1/83 37/1/83 155/1/83
f 103/1/84 17/1/84 4/1/84
f 17/1/84 103/1/84 20/1/84
f 37/1/85 35/1/85 156/1/85
f 156/1/85 155/1/85 37/1/85
f 142/1/86 141/1/86 128/1/86
f 128/1/86 177/1/86 142/1/86
f 127/1/87 31/1/87 42/1/87
f 31/1/87 127/1/87 34/1/87
f 177/1/88 9/1/88 160/1/88
f 160/1/88 142/1/88 177/1/88
f 135/1/89 166/1/89 22/1/89
f 22/1/89 7/1/89 135/1/89
f 128/1/90 34/1/90 127/1/90
f 34/1/90 128/1/90 141/1/90
f 181/1/91 180/1/91 24/1/91
f 24/1/91 153/1/91 181/1/91
f 36/1/92 20/1/92 103/1/92
f 20/1/92 36/1/92 168/1/92
f 73/1/1 184/1/1 153/1/1
f 184/1/1 73/1/1 72/1/1
f 185/4/93 186/4/93 187/4/93
f 187/4/93 188/4/93 185/4/93
f 189/4/94 190/4/94 191/4/94
f 191/4/94 192/4/94 189/4/94
f 193/4/95 194/4/95 195/4/95
f 195/4/95 196/4/95 193/4/95
f 197/4/96 198/4/96 199/4/96
f 198/4/96 197/4/96 200/4/96
f 201/4/1 199/4/1 202/4/1
f 199/4/1 201/4/1 203/4/1
f 200/4/2 197/4/2 204/4/2
f 204/4/2 188/4/2 200/4/2
f 197/4/2 205/4/2 206/4/2
f 206/4/2 204/4/2 197/4/2
f 202/4/97 198/4/97 187/4/97
f 198/4/97 202/4/97 199/4/97
f 205/4/96 199/4/96 203/4/96
f 199/4/96 205/4/96 197/4/96
f 192/4/94 191/4/94 186/4/94
f 186/4/94 185/4/94 192/4/94
f 207/4/98 208/4/98 209/4/98
f 208/4/98 207/4/98 210/4/98
f 211/4/99 212/4/99 213/4/99
f 213/4/99 214/4/99 211/4/99
f 211/4/100 214/4/100 208/4/100
f 208/4/100 210/4/100 211/4/100
f 215/4/1 216/4/1 217/4/1
f 216/4/1 215/4/1 218/4/1
f 212/4/94 211/4/94 210/4/94
f 210/4/94 207/4/94 212/4/94
f 219/4/96 218/4/96 215/4/96
f 218/4/96 219/4/96 220/4/96
f 209/4/1 212/4/1 207/4/1
f 212/4/1 209/4/1 213/4/1
f 217/4/1 213/4/1 209/4/1
f 213/4/1 217/4/1 216/4/1
f 221/4/101 220/4/101 219/4/101
f 219/4/101 222/4/101 221/4/101
f 214/4/2 221/4/2 222/4/2
f 222/4/2 208/4/2 214/4/2
f 221/4/102 216/4/102 218/4/102
f 218/4/102 220/4/102 221/4/102
f 214/4/93 213/4/93 216/4/93
f 216/4/93 221/4/93 214/4/93
f 217/4/98 219/4/98 215/4/98
f 219/4/98 217/4/98 222/4/98
f 209/4/98 222/4/98 217/4/98
f 222/4/98 209/4/98 208/4/98
f 194/4/103 223/4/103 224/4/103
f 223/4/103 194/4/103 193/4/103
f 225/4/104 226/4/104 227/4/104
f 227/4/104 228/4/104 225/4/104
f 229/4/105 193/4/105 196/4/105
f 193/4/105 229/4/105 223/4/105
f 227/4/106 224/4/106 230/4/106
f 224/4/106 227/4/106 226/4/106
f 190/4/107 230/4/107 201/4/107
f 230/4/107 190/4/107 227/4/107
f 203/4/108 196/4/108 205/4/108
f 196/4/108 203/4/108 229/4/108
f 228/4/109 227/4/109 190/4/109
f 190/4/109 189/4/109 228/4/109
f 196/4/110 195/4/110 206/4/110
f 206/4/110 205/4/110 196/4/110
f 195/4/110 228/4/110 189/4/110
f 189/4/110 206/4/110 195/4/110
f 201/4/107 229/4/107 203/4/107
f 229/4/107 201/4/107 230/4/107
f 230/4/111 223/4/111 229/4/111
f 223/4/111 230/4/111 224/4/111
f 225/4/112 224/4/112 226/4/112
f 224/4/112 225/4/112 194/4/112
f 191/4/97 187/4/97 186/4/97
f 187/4/97 191/4/97 202/4/97
f 204/4/2 206/4/2 189/4/2
f 189/4/2 192/4/2 204/4/2
f 188/4/2 204/4/2 192/4/2
f 192/4/2 185/4/2 188/4/2
f 190/4/1 202/4/1 191/4/1
f 202/4/1 190/4/1 201/4/1
f 194/4/113 225/4/113 228/4/113
f 228/4/113 195/4/113 194/4/113
f 188/4/93 187/4/93 198/4/93
f 198/4/93 200/4/93 188/4/93
f 231/2/1 232/2/1 233/2/1
f 232/2/1 231/2/1 234/2/1
f 235/2/2 236/2/2 237/2/2
f 237/2/2 238/2/2 235/2/2
f 235/2/93 238/2/93 232/2/93
f 232/2/93 234/2/93 235/2/93
f 231/2/96 235/2/96 234/2/96
f 235/2/96 231/2/96 236/2/96
f 231/2/114 239/2/114 236/2/114
f 239/2/114 231/2/114 240/2/114
f 238/2/94 237/2/94 233/2/94
f 233/2/94 232/2/94 238/2/94
f 241/2/96 242/2/96 243/2/96
f 242/2/96 241/2/96 244/2/96
f 245/2/94 246/2/94 247/2/94
f 247/2/94 248/2/94 245/2/94
f 245/2/115 242/2/115 244/2/115
f 242/2/115 245/2/115 248/2/115
f 246/2/116 241/2/116 243/2/116
f 243/2/116 247/2/116 246/2/116
f 245/2/117 244/2/117 241/2/117
f 241/2/117 246/2/117 245/2/117
f 248/2/118 243/2/118 242/2/118
f 243/2/118 248/2/118 247/2/118
f 249/2/96 250/2/96 251/2/96
f 250/2/96 249/2/96 252/2/96
f 253/2/94 254/2/94 255/2/94
f 255/2/94 256/2/94 253/2/94
f 253/2/115 250/2/115 252/2/115
f 250/2/115 253/2/115 256/2/115
f 254/2/116 249/2/116 251/2/116
f 251/2/116 255/2/116 254/2/116
f 253/2/117 252/2/117 249/2/117
f 249/2/117 254/2/117 253/2/117
f 256/2/118 251/2/118 250/2/118
f 251/2/118 256/2/118 255/2/118
f 257/2/96 258/2/96 259/2/96
f 258/2/96 257/2/96 260/2/96
f 261/2/94 262/2/94 263/2/94
f 263/2/94 264/2/94 261/2/94
f 261/2/115 258/2/115 260/2/115
f 258/2/115 261/2/115 264/2/115
f 262/2/116 257/2/116 259/2/116
f 259/2/116 263/2/116 262/2/116
f 261/2/117 260/2/117 257/2/117
f 257/2/117 262/2/117 261/2/117
f 264/2/118 259/2/118 258/2/118
f 259/2/118 264/2/118 263/2/118
f 265/2/94 266/2/94 267/2/94
f 267/2/94 268/2/94 265/2/94
f 269/2/96 270/2/96 271/2/96
f 270/2/96 269/2/96 272/2/96
f 268/2/115 272/2/115 265/2/115
f 272/2/115 268/2/115 270/2/115
f 269/2/116 271/2/116 267/2/116
f 267/2/116 266/2/116 269/2/116
f 272/2/117 269/2/117 266/2/117
f 266/2/117 265/2/117 272/2/117
f 267/2/118 270/2/118 268/2/118
f 270/2/118 267/2/118 271/2/118
f 273/2/94 274/2/94 275/2/94
f 275/2/94 276/2/94 273/2/94
f 277/2/96 278/2/96 279/2/96
f 278/2/96 277/2/96 280/2/96
f 276/2/115 280/2/115 273/2/115
f 280/2/115 276/2/115 278/2/115
f 277/2/116 279/2/116 275/2/116
f 275/2/116 274/2/116 277/2/116
f 280/2/117 277/2/117 274/2/117
f 274/2/117 273/2/117 280/2/117
f 275/2/118 278/2/118 276/2/118
f 278/2/118 275/2/118 279/2/118
f 281/2/94 282/2/94 283/2/94
f 283/2/94 284/2/94 281/2/94
f 285/2/96 286/2/96 287/2/96
f 286/2/96 285/2/96 288/2/96
f 284/2/115 288/2/115 281/2/115
f 288/2/115 284/2/115 286/2/115
f 285/2/116 287/2/116 283/2/116
f 283/2/116 282/2/116 285/2/116
f 288/2/117 285/2/117 282/2/117
f 282/2/117 281/2/117 288/2/117
f 283/2/118 286/2/118 284/2/118
f 286/2/118 283/2/118 287/2/118
f 289/2/119 239/2/119 240/2/119
f 239/2/119 289/2/119 290/2/119
f 239/2/120 290/2/120 237/2/120
f 237/2/120 236/2/120 239/2/120
f 233/2/121 240/2/121 231/2/121
f 240/2/121 233/2/121 289/2/121
f 290/2/122 289/2/122 233/2/122
f 233/2/122 237/2/122 290/2/122
f 291/2/1 292/2/1 293/2/1
f 292/2/1 291/2/1 294/2/1
f 295/2/2 296/2/2 297/2/2
f 297/2/2 298/2/2 295/2/2
f 295/2/93 298/2/93 292/2/93
f 292/2/93 294/2/93 295/2/93
f 291/2/96 295/2/96 294/2/96
f 295/2/96 291/2/96 296/2/96
f 291/2/123 299/2/123 296/2/123
f 299/2/123 291/2/123 300/2/123
f 298/2/94 297/2/94 293/2/94
f 293/2/94 292/2/94 298/2/94
f 301/2/119 299/2/119 300/2/119
f 299/2/119 301/2/119 302/2/119
f 299/2/124 302/2/124 297/2/124
f 297/2/124 296/2/124 299/2/124
f 293/2/125 300/2/125 291/2/125
f 300/2/125 293/2/125 301/2/125
f 302/2/126 301/2/126 293/2/126
f 293/2/126 297/2/126 302/2/126
f 303/2/1 304/2/1 305/2/1
f 304/2/1 303/2/1 306/2/1
f 307/2/2 308/2/2 309/2/2
f 309/2/2 310/2/2 307/2/2
f 307/2/93 310/2/93 304/2/93
f 304/2/93 306/2/93 307/2/93
f 303/2/96 307/2/96 306/2/96
f 307/2/96 303/2/96 308/2/96
f 303/2/127 311/2/127 308/2/127
f 311/2/127 303/2/127 312/2/127
f 310/2/94 309/2/94 305/2/94
f 305/2/94 304/2/94 310/2/94
f 313/2/119 311/2/119 312/2/119
f 311/2/119 313/2/119 314/2/119
f 311/2/128 314/2/128 309/2/128
f 309/2/128 308/2/128 311/2/128
f 305/2/129 312/2/129 303/2/129
f 312/2/129 305/2/129 313/2/129
f 314/2/130 313/2/130 305/2/130
f 305/2/130 309/2/130 314/2/130
f 315/2/1 316/2/1 317/2/1
f 316/2/1 315/2/1 318/2/1
f 319/2/2 320/2/2 321/2/2
f 321/2/2 322/2/2 319/2/2
f 319/2/93 318/2/93 315/2/93
f 315/2/93 320/2/93 319/2/93
f 322/2/94 316/2/94 318/2/94
f 318/2/94 319/2/94 322/2/94
f 323/2/131 316/2/131 322/2/131
f 322/2/131 324/2/131 323/2/131
f 321/2/96 315/2/96 317/2/96
f 315/2/96 321/2/96 320/2/96
f 324/2/119 325/2/119 323/2/119
f 325/2/119 324/2/119 326/2/119
f 324/2/120 322/2/120 321/2/120
f 321/2/120 326/2/120 324/2/120
f 323/2/121 317/2/121 316/2/121
f 317/2/121 323/2/121 325/2/121
f 325/2/132 321/2/132 317/2/132
f 321/2/132 325/2/132 326/2/132
f 327/2/1 328/2/1 329/2/1
f 328/2/1 327/2/1 330/2/1
f 331/2/2 332/2/2 333/2/2
f 333/2/2 334/2/2 331/2/2
f 331/2/93 330/2/93 327/2/93
f 327/2/93 332/2/93 331/2/93
f 334/2/94 328/2/94 330/2/94
f 330/2/94 331/2/94 334/2/94
f 335/2/133 328/2/133 334/2/133
f 334/2/133 336/2/133 335/2/133
f 333/2/96 327/2/96 329/2/96
f 327/2/96 333/2/96 332/2/96
f 336/2/119 337/2/119 335/2/119
f 337/2/119 336/2/119 338/2/119
f 336/2/124 334/2/124 333/2/124
f 333/2/124 338/2/124 336/2/124
f 335/2/125 329/2/125 328/2/125
f 329/2/125 335/2/125 337/2/125
f 337/2/134 333/2/134 329/2/134
f 333/2/134 337/2/134 338/2/134
f 339/2/1 340/2/1 341/2/1
f 340/2/1 339/2/1 342/2/1
f 343/2/2 344/2/2 345/2/2
f 345/2/2 346/2/2 343/2/2
f 343/2/93 342/2/93 339/2/93
f 339/2/93 344/2/93 343/2/93
f 346/2/94 340/2/94 342/2/94
f 342/2/94 343/2/94 346/2/94
f 347/2/135 340/2/135 346/2/135
f 346/2/135 348/2/135 347/2/135
f 345/2/96 339/2/96 341/2/96
f 339/2/96 345/2/96 344/2/96
f 348/2/119 349/2/119 347/2/119
f 349/2/119 348/2/119 350/2/119
f 348/2/128 346/2/128 345/2/128
f 345/2/128 350/2/128 348/2/128
f 347/2/129 341/2/129 340/2/129
f 341/2/129 347/2/129 349/2/129
f 349/2/136 345/2/136 341/2/136
f 345/2/136 349/2/136 350/2/136
f 351/2/137 352/2/137 353/2/137
f 352/2/137 351/2/137 354/2/137
f 354/2/138 355/2/138 352/2/138
f 355/2/138 354/2/138 356/2/138
f 357/2/139 358/2/139 355/2/139
f 355/2/139 356/2/139 357/2/139
f 357/2/140 353/2/140 358/2/140
f 353/2/140 357/2/140 351/2/140
f 355/2/1 353/2/1 352/2/1
f 353/2/1 355/2/1 358/2/1
f 351/2/2 357/2/2 356/2/2
f 356/2/2 354/2/2 351/2/2
f 359/2/137 360/2/137 361/2/137
f 360/2/137 359/2/137 362/2/137
f 362/2/138 363/2/138 360/2/138
f 363/2/138 362/2/138 364/2/138
f 365/2/139 366/2/139 363/2/139
f 363/2/139 364/2/139 365/2/139
f 359/2/140 361/2/140 366/2/140
f 366/2/140 365/2/140 359/2/140
f 363/2/1 361/2/1 360/2/1
f 361/2/1 363/2/1 366/2/1
f 359/2/2 365/2/2 364/2/2
f 364/2/2 362/2/2 359/2/2
f 367/2/137 368/2/137 369/2/137
f 368/2/137 367/2/137 370/2/137
f 370/2/138 371/2/138 368/2/138
f 371/2/138 370/2/138 372/2/138
f 373/2/139 374/2/139 371/2/139
f 371/2/139 372/2/139 373/2/139
f 373/2/140 369/2/140 374/2/140
f 369/2/140 373/2/140 367/2/140
f 371/2/1 369/2/1 368/2/1
f 369/2/1 371/2/1 374/2/1
f 367/2/2 373/2/2 372/2/2
f 372/2/2 370/2/2 367/2/2
f 375/2/137 376/2/137 377/2/137
f 376/2/137 375/2/137 378/2/137
f 379/2/138 380/2/138 376/2/138
f 376/2/138 378/2/138 379/2/138
f 381/2/139 382/2/139 380/2/139
f 380/2/139 379/2/139 381/2/139
f 381/2/140 377/2/140 382/2/140
f 377/2/140 381/2/140 375/2/140
f 380/2/1 377/2/1 376/2/1
f 377/2/1 380/2/1 382/2/1
f 375/2/2 381/2/2 379/2/2
f 379/2/2 378/2/2 375/2/2
f 383/2/137 384/2/137 385/2/137
f 384/2/137 383/2/137 386/2/137
f 386/2/138 387/2/138 384/2/138
f 387/2/138 386/2/138 388/2/138
f 389/2/139 390/2/139 387/2/139
f 387/2/139 388/2/139 389/2/139
f 389/2/140 385/2/140 390/2/140
f 385/2/140 389/2/140 383/2/140
f 387/2/1 385/2/1 384/2/1
f 385/2/1 387/2/1 390/2/1
f 383/2/2 389/2/2 388/2/2
f 388/2/2 386/2/2 383/2/2
f 391/2/137 392/2/137 393/2/137
f 392/2/137 391/2/137 394/2/137
f 394/2/138 395/2/138 392/2/138
f 395/2/138 394/2/138 396/2/138
f 397/2/139 398/2/139 395/2/139
f 395/2/139 396/2/139 397/2/139
f 391/2/140 393/2/140 398/2/140
f 398/2/140 397/2/140 391/2/140
f 395/2/1 393/2/1 392/2/1
f 393/2/1 395/2/1 398/2/1
f 391/2/2 397/2/2 396/2/2
f 396/2/2 394/2/2 391/2/2
f 399/2/141 400/2/141 401/2/141
f 400/2/141 399/2/141 402/2/141
f 403/2/142 404/2/142 405/2/142
f 404/2/142 403/2/142 406/2/142
f 407/2/143 408/2/143 409/2/143
f 409/2/143 410/2/143 407/2/143
f 411/2/144 412/2/144 413/2/144
f 413/2/144 414/2/144 411/2/144
f 399/2/145 401/2/145 412/2/145
f 412/2/145 411/2/145 399/2/145
f 402/2/146 405/2/146 400/2/146
f 405/2/146 402/2/146 403/2/146
f 406/2/147 409/2/147 404/2/147
f 409/2/147 406/2/147 410/2/147
f 414/2/148 413/2/148 408/2/148
f 408/2/148 407/2/148 414/2/148
f 415/2/149 411/2/149 414/2/149
f 414/2/149 416/2/149 415/2/149
f 417/2/150 399/2/150 411/2/150
f 411/2/150 415/2/150 417/2/150
f 418/2/151 403/2/151 402/2/151
f 402/2/151 419/2/151 418/2/151
f 420/2/152 410/2/152 406/2/152
f 406/2/152 421/2/152 420/2/152
f 416/2/153 414/2/153 407/2/153
f 407/2/153 422/2/153 416/2/153
f 419/2/154 402/2/154 399/2/154
f 399/2/154 417/2/154 419/2/154
f 421/2/155 406/2/155 403/2/155
f 403/2/155 418/2/155 421/2/155
f 422/2/156 407/2/156 410/2/156
f 410/2/156 420/2/156 422/2/156
f 423/2/157 419/2/157 417/2/157
f 419/2/157 423/2/157 424/2/157
f 425/2/158 421/2/158 418/2/158
f 421/2/158 425/2/158 426/2/158
f 427/2/159 422/2/159 420/2/159
f 420/2/159 428/2/159 427/2/159
f 429/2/160 415/2/160 416/2/160
f 416/2/160 430/2/160 429/2/160
f 423/2/161 417/2/161 415/2/161
f 415/2/161 429/2/161 423/2/161
f 424/2/162 418/2/162 419/2/162
f 418/2/162 424/2/162 425/2/162
f 426/2/163 420/2/163 421/2/163
f 420/2/163 426/2/163 428/2/163
f 430/2/164 416/2/164 422/2/164
f 422/2/164 427/2/164 430/2/164
f 427/2/2 431/2/2 430/2/2
f 423/2/2 431/2/2 424/2/2
f 425/2/2 431/2/2 426/2/2
f 428/2/2 431/2/2 427/2/2
f 430/2/2 431/2/2 429/2/2
f 429/2/2 431/2/2 423/2/2
f 424/2/2 431/2/2 425/2/2
f 426/2/2 431/2/2 428/2/2
f 432/2/141 433/2/141 434/2/141
f 433/2/141 432/2/141 435/2/141
f 436/2/142 437/2/142 438/2/142
f 437/2/142 436/2/142 439/2/142
f 440/2/143 441/2/143 442/2/143
f 442/2/143 443/2/143 440/2/143
f 444/2/144 445/2/144 446/2/144
f 446/2/144 447/2/144 444/2/144
f 432/2/145 434/2/145 445/2/145
f 445/2/145 444/2/145 432/2/145
f 435/2/146 438/2/146 433/2/146
f 438/2/146 435/2/146 436/2/146
f 439/2/147 442/2/147 437/2/147
f 442/2/147 439/2/147 443/2/147
f 447/2/148 446/2/148 441/2/148
f 441/2/148 440/2/148 447/2/148
f 448/2/149 444/2/149 447/2/149
f 447/2/149 449/2/149 448/2/149
f 450/2/150 432/2/150 444/2/150
f 444/2/150 448/2/150 450/2/150
f 451/2/151 436/2/151 435/2/151
f 435/2/151 452/2/151 451/2/151
f 453/2/152 443/2/152 439/2/152
f 439/2/152 454/2/152 453/2/152
f 449/2/153 447/2/153 440/2/153
f 440/2/153 455/2/153 449/2/153
f 452/2/154 435/2/154 432/2/154
f 432/2/154 450/2/154 452/2/154
f 454/2/155 439/2/155 436/2/155
f 436/2/155 451/2/155 454/2/155
f 455/2/156 440/2/156 443/2/156
f 443/2/156 453/2/156 455/2/156
f 456/2/157 452/2/157 450/2/157
f 452/2/157 456/2/157 457/2/157
f 458/2/158 454/2/158 451/2/158
f 454/2/158 458/2/158 459/2/158
f 460/2/159 455/2/159 453/2/159
f 453/2/159 461/2/159 460/2/159
f 462/2/160 448/2/160 449/2/160
f 449/2/160 463/2/160 462/2/160
f 456/2/161 450/2/161 448/2/161
f 448/2/161 462/2/161 456/2/161
f 457/2/162 451/2/162 452/2/162
f 451/2/162 457/2/162 458/2/162
f 459/2/163 453/2/163 454/2/163
f 453/2/163 459/2/163 461/2/163
f 463/2/164 449/2/164 455/2/164
f 455/2/164 460/2/164 463/2/164
f 460/2/2 464/2/2 463/2/2
f 456/2/2 464/2/2 457/2/2
f 458/2/2 464/2/2 459/2/2
f 461/2/2 464/2/2 460/2/2
f 463/2/2 464/2/2 462/2/2
f 462/2/2 464/2/2 456/2/2
f 457/2/2 464/2/2 458/2/2
f 459/2/2 464/2/2 461/2/2
f 445/2/1 465/2/1 446/2/1
f 465/2/1 445/2/1 466/2/1
f 434/2/1 466/2/1 445/2/1
f 466/2/1 434/2/1 467/2/1
f 404/2/1 468/2/1 405/2/1
f 468/2/1 404/2/1 469/2/1
f 433/2/1 467/2/1 434/2/1
f 467/2/1 433/2/1 470/2/1
f 405/2/1 471/2/1 400/2/1
f 471/2/1 405/2/1 468/2/1
f 438/2/1 470/2/1 433/2/1
f 470/2/1 438/2/1 472/2/1
f 400/2/1 473/2/1 401/2/1
f 473/2/1 400/2/1 471/2/1
f 437/2/1 472/2/1 438/2/1
f 472/2/1 437/2/1 474/2/1
f 401/2/1 475/2/1 412/2/1
f 475/2/1 401/2/1 473/2/1
f 412/2/1 476/2/1 413/2/1
f 476/2/1 412/2/1 475/2/1
f 442/2/1 474/2/1 437/2/1
f 474/2/1 442/2/1 477/2/1
f 413/2/1 478/2/1 408/2/1
f 478/2/1 413/2/1 476/2/1
f 441/2/1 477/2/1 442/2/1
f 477/2/1 441/2/1 479/2/1
f 408/2/1 480/2/1 409/2/1
f 480/2/1 408/2/1 478/2/1
f 446/2/1 479/2/1 441/2/1
f 479/2/1 446/2/1 465/2/1
f 409/2/1 469/2/1 404/2/1
f 469/2/1 409/2/1 480/2/1
f 481/3/1 482/3/1 483/3/1
f 482/3/1 481/3/1 484/3/1
f 485/3/165 486/3/165 487/3/165
f 487/3/165 488/3/165 485/3/165
f 485/3/93 489/3/93 490/3/93
f 490/3/93 486/3/93 485/3/93
f 491/3/98 487/3/98 492/3/98
f 487/3/98 491/3/98 488/3/98
f 489/3/94 485/3/94 488/3/94
f 488/3/94 491/3/94 489/3/94
f 493/3/96 484/3/96 481/3/96
f 484/3/96 493/3/96 494/3/96
f 492/3/1 489/3/1 491/3/1
f 489/3/1 492/3/1 490/3/1
f 483/3/1 490/3/1 492/3/1
f 490/3/1 483/3/1 482/3/1
f 495/3/166 494/3/166 493/3/166
f 493/3/166 496/3/166 495/3/166
f 486/3/2 495/3/2 496/3/2
f 496/3/2 487/3/2 486/3/2
f 495/3/93 482/3/93 484/3/93
f 484/3/93 494/3/93 495/3/93
f 486/3/93 490/3/93 482/3/93
f 482/3/93 495/3/93 486/3/93
f 483/3/98 493/3/98 481/3/98
f 493/3/98 483/3/98 496/3/98
f 492/3/98 496/3/98 483/3/98
f 496/3/98 492/3/98 487/3/98
f 497/3/167 498/3/167 499/3/167
f 498/3/167 497/3/167 500/3/167
f 500/3/168 501/3/168 498/3/168
f 501/3/168 500/3/168 502/3/168
f 503/3/169 504/3/169 501/3/169
f 501/3/169 502/3/169 503/3/169
f 497/3/170 499/3/170 504/3/170
f 504/3/170 503/3/170 497/3/170
f 501/3/1 499/3/1 498/3/1
f 499/3/1 501/3/1 504/3/1
f 497/3/2 503/3/2 502/3/2
f 502/3/2 500/3/2 497/3/2
f 505/3/167 506/3/167 507/3/167
f 506/3/167 505/3/167 508/3/167
f 508/3/168 509/3/168 506/3/168
f 509/3/168 508/3/168 510/3/168
f 511/3/169 512/3/169 509/3/169
f 509/3/169 510/3/169 511/3/169
f 505/3/170 507/3/170 512/3/170
f 512/3/170 511/3/170 505/3/170
f 509/3/1 507/3/1 506/3/1
f 507/3/1 509/3/1 512/3/1
f 505/3/2 511/3/2 510/3/2
f 510/3/2 508/3/2 505/3/2
f 513/3/167 514/3/167 515/3/167
f 514/3/167 513/3/167 516/3/167
f 516/3/168 517/3/168 514/3/168
f 517/3/168 516/3/168 518/3/168
f 519/3/169 520/3/169 517/3/169
f 517/3/169 518/3/169 519/3/169
f 513/3/170 515/3/170 520/3/170
f 520/3/170 519/3/170 513/3/170
f 517/3/1 515/3/1 514/3/1
f 515/3/1 517/3/1 520/3/1
f 513/3/2 519/3/2 518/3/2
f 518/3/2 516/3/2 513/3/2
f 521/3/167 522/3/167 523/3/167
f 522/3/167 521/3/167 524/3/167
f 524/3/168 525/3/168 522/3/168
f 525/3/168 524/3/168 526/3/168
f 527/3/169 528/3/169 525/3/169
f 525/3/169 526/3/169 527/3/169
f 521/3/170 523/3/170 528/3/170
f 528/3/170 527/3/170 521/3/170
f 525/3/1 523/3/1 522/3/1
f 523/3/1 525/3/1 528/3/1
f 521/3/2 527/3/2 526/3/2
f 526/3/2 524/3/2 521/3/2
f 529/3/167 530/3/167 531/3/167
f 530/3/167 529/3/167 532/3/167
f 532/3/168 533/3/168 530/3/168
f 533/3/168 532/3/168 534/3/168
f 535/3/169 536/3/169 533/3/169
f 533/3/169 534/3/169 535/3/169
f 529/3/170 531/3/170 536/3/170
f 536/3/170 535/3/170 529/3/170
f 533/3/1 531/3/1 530/3/1
f 531/3/1 533/3/1 536/3/1
f 529/3/2 535/3/2 534/3/2
f 534/3/2 532/3/2 529/3/2
f 537/3/167 538/3/167 539/3/167
f 538/3/167 537/3/167 540/3/167
f 540/3/168 541/3/168 538/3/168
f 541/3/168 540/3/168 542/3/168
f 543/3/169 544/3/169 541/3/169
f 541/3/169 542/3/169 543/3/169
f 537/3/170 539/3/170 544/3/170
f 544/3/170 543/3/170 537/3/170
f 541/3/1 539/3/1 538/3/1
f 539/3/1 541/3/1 544/3/1
f 537/3/2 543/3/2 542/3/2
f 542/3/2 540/3/2 537/3/2
f 545/3/1 546/3/1 547/3/1
f 546/3/1 545/3/1 548/3/1
f 549/3/171 550/3/171 551/3/171
f 551/3/171 552/3/171 549/3/171
f 553/3/1 547/3/1 554/3/1
f 547/3/1 553/3/1 545/3/1
f 551/3/1 554/3/1 547/3/1
f 554/3/1 551/3/1 555/3/1
f 556/3/2 557/3/2 558/3/2
f 558/3/2 559/3/2 556/3/2
f 557/3/2 560/3/2 561/3/2
f 561/3/2 558/3/2 557/3/2
f 550/3/2 558/3/2 561/3/2
f 561/3/2 562/3/2 550/3/2
f 545/3/12 556/3/12 548/3/12
f 556/3/12 545/3/12 557/3/12
f 562/3/172 563/3/172 564/3/172
f 564/3/172 555/3/172 562/3/172
f 556/3/173 559/3/173 546/3/173
f 546/3/173 548/3/173 556/3/173
f 547/3/1 552/3/1 551/3/1
f 552/3/1 546/3/1 565/3/1
f 546/3/1 552/3/1 547/3/1
f 550/3/174 562/3/174 555/3/174
f 555/3/174 551/3/174 550/3/174
f 559/3/2 558/3/2 550/3/2
f 550/3/2 549/3/2 566/3/2
f 566/3/2 559/3/2 550/3/2
f 564/3/175 560/3/175 553/3/175
f 560/3/175 564/3/175 563/3/175
f 553/3/176 557/3/176 545/3/176
f 557/3/176 553/3/176 560/3/176
f 560/3/2 563/3/2 562/3/2
f 562/3/2 561/3/2 560/3/2
f 564/3/1 554/3/1 555/3/1
f 554/3/1 564/3/1 553/3/1
f 565/3/177 566/3/177 549/3/177
f 549/3/177 552/3/177 565/3/177
f 559/3/178 566/3/178 565/3/178
f 565/3/178 546/3/178 559/3/178
