# Generated by tools/make-arrow-mesh.py -- edit that, not this.
v -0.19429 -0.12571 -0.02286
v -0.19429 0.12571 -0.02286
v 0.19429 0.12571 -0.02286
v 0.19429 -0.12571 -0.02286
v -0.19429 -0.12571 0.80000
v 0.19429 -0.12571 0.80000
v 0.19429 0.12571 0.80000
v -0.19429 0.12571 0.80000
v -0.48000 -0.12571 -0.02286
v 0.48000 -0.12571 -0.02286
v 0.48000 0.12571 -0.02286
v -0.48000 0.12571 -0.02286
v 0.00000 0.00000 -0.50286
v -0.57143 -0.12571 -0.80000
v -0.57143 0.12571 -0.80000
v 0.57143 0.12571 -0.80000
v 0.57143 -0.12571 -0.80000
v -0.57143 -0.12571 -0.61714
v 0.57143 -0.12571 -0.61714
v 0.57143 0.12571 -0.61714
v -0.57143 0.12571 -0.61714
vt 0.25000 0.75000
vt 0.75000 0.75000
vn 0.0000 0.0000 -1.0000
vn 0.0000 0.0000 1.0000
vn 0.0000 -1.0000 0.0000
vn 0.0000 1.0000 0.0000
vn 1.0000 0.0000 0.0000
vn -1.0000 0.0000 0.0000
vn -0.0000 -0.9674 -0.2534
vn 0.7071 0.0000 -0.7071
vn 0.0000 0.9674 -0.2534
vn -0.7071 0.0000 -0.7071
f 1/2/1 2/2/1 3/2/1
f 1/2/1 3/2/1 4/2/1
f 5/2/2 6/2/2 7/2/2
f 5/2/2 7/2/2 8/2/2
f 1/2/3 4/2/3 6/2/3
f 1/2/3 6/2/3 5/2/3
f 3/2/4 2/2/4 8/2/4
f 3/2/4 8/2/4 7/2/4
f 4/2/5 3/2/5 7/2/5
f 4/2/5 7/2/5 6/2/5
f 2/2/6 1/2/6 5/2/6
f 2/2/6 5/2/6 8/2/6
f 9/2/2 10/2/2 11/2/2
f 9/2/2 11/2/2 12/2/2
f 10/2/7 9/2/7 13/2/7
f 11/2/8 10/2/8 13/2/8
f 12/2/9 11/2/9 13/2/9
f 9/2/10 12/2/10 13/2/10
f 14/1/1 15/1/1 16/1/1
f 14/1/1 16/1/1 17/1/1
f 18/1/2 19/1/2 20/1/2
f 18/1/2 20/1/2 21/1/2
f 14/1/3 17/1/3 19/1/3
f 14/1/3 19/1/3 18/1/3
f 16/1/4 15/1/4 21/1/4
f 16/1/4 21/1/4 20/1/4
f 17/1/5 16/1/5 20/1/5
f 17/1/5 20/1/5 19/1/5
f 15/1/6 14/1/6 18/1/6
f 15/1/6 18/1/6 21/1/6
