# Generated by tools/make-block-meshes.py -- edit that, not this.
# Violin by jeremy, CC-BY 3.0, from https://poly.pizza/m/fhj0GK-0kJu
v -0.13928 0.00593 -0.19036
v -0.04351 0.00593 -0.30618
v -0.10297 0.00593 -0.30618
v -0.05885 0.00593 -0.19036
v -0.12906 0.00593 -0.51837
v -0.25624 0.00593 -0.63663
v -0.27229 0.00593 -0.53260
v -0.11433 0.00593 -0.52933
v -0.10827 0.00593 -0.63663
v -0.00000 0.00593 -0.48682
v 0.07975 0.00593 -0.44267
v 0.09618 0.00593 -0.47259
v -0.00000 0.00593 -0.45690
v -0.07290 0.00593 -0.14990
v -0.17253 0.00593 -0.14990
v 0.23468 0.00593 -0.13133
v 0.07290 0.00593 -0.14990
v 0.10674 0.00593 -0.13133
v 0.17253 0.00593 -0.14990
v -0.23468 0.00593 -0.13133
v -0.09667 0.00593 -0.01622
v -0.10674 0.00593 -0.13133
v -0.21254 0.00593 -0.01622
v 0.16805 0.00593 0.07653
v 0.09667 0.00593 -0.01622
v 0.07548 0.00593 0.07653
v 0.21254 0.00593 -0.01622
v -0.07548 0.00593 0.07653
v -0.00000 0.00593 0.15053
v -0.00000 0.00593 0.07653
v -0.16805 0.00593 0.07653
v -0.26307 0.00593 -0.44105
v -0.19432 0.00593 -0.45690
v -0.26082 0.00593 -0.48682
v 0.26307 0.00593 -0.44105
v 0.26082 0.00593 -0.48682
v 0.19432 0.00593 -0.45690
v -0.09618 0.00593 -0.47259
v -0.07975 0.00593 -0.44267
v -0.11258 0.00593 -0.44267
v -0.12422 0.00593 -0.47259
v -0.07287 0.00593 -0.40777
v -0.13928 0.00593 -0.42200
v 0.08135 0.00593 -0.72513
v -0.00000 0.00593 -0.80000
v -0.00000 0.00593 -0.72513
v 0.19253 0.00593 -0.74068
v 0.25624 0.00593 -0.63663
v 0.10827 0.00593 -0.63663
v -0.10297 -0.08389 -0.30618
v 0.00000 -0.08389 -0.30618
v 0.00000 -0.08389 -0.19036
v -0.13928 -0.08389 -0.19036
v -0.13928 -0.08389 -0.42200
v 0.00000 -0.08389 -0.42200
v 0.00000 -0.08389 -0.45690
v 0.19432 -0.08389 -0.45690
v 0.13928 -0.08389 -0.42200
v 0.00000 -0.08389 -0.14990
v -0.17253 -0.08389 -0.14990
v 0.00000 -0.08389 -0.13133
v 0.17253 -0.08389 -0.14990
v 0.23468 -0.08389 -0.13133
v 0.00000 -0.08389 -0.01622
v -0.21254 -0.08389 -0.01622
v -0.23468 -0.08389 -0.13133
v 0.00000 -0.08389 0.07653
v 0.21254 -0.08389 -0.01622
v 0.16805 -0.08389 0.07653
v 0.00000 -0.08389 0.15053
v -0.16805 -0.08389 0.07653
v -0.26307 -0.08389 -0.44105
v -0.26082 -0.08389 -0.48682
v -0.19432 -0.08389 -0.45690
v 0.26307 -0.08389 -0.44105
v 0.26082 -0.08389 -0.48682
v 0.00000 -0.08389 -0.48682
v 0.00000 -0.08389 -0.53260
v -0.27229 -0.08389 -0.53260
v 0.00000 -0.08389 -0.63663
v 0.25624 -0.08389 -0.63663
v 0.27229 -0.08389 -0.53260
v 0.00000 -0.08389 -0.80000
v 0.19253 -0.08389 -0.74068
v 0.00000 -0.08389 -0.72513
v -0.19215 -0.03898 -0.45558
v -0.26013 -0.03898 -0.43991
v -0.19253 -0.08389 -0.74068
v 0.00000 -0.03898 -0.79480
v -0.19039 -0.03898 -0.73637
v 0.25791 -0.03898 -0.48517
v 0.26013 -0.03898 -0.43991
v 0.19039 -0.03898 -0.73637
v -0.26925 -0.03898 -0.53044
v -0.25791 -0.03898 -0.48517
v 0.25338 -0.03898 -0.63331
v 0.23206 -0.03898 -0.13364
v 0.21017 -0.03898 -0.01982
v 0.16617 -0.03898 0.07190
v 0.00000 -0.03898 0.14506
v 0.17060 -0.03898 -0.15201
v -0.16617 -0.03898 0.07190
v -0.13773 -0.03898 -0.19202
v -0.17060 -0.03898 -0.15201
v -0.21017 -0.03898 -0.01982
v 0.13773 -0.03898 -0.42107
v 0.10182 -0.03898 -0.30654
v 0.10297 -0.08389 -0.30618
v -0.23206 -0.03898 -0.13364
v -0.13773 -0.03898 -0.42107
v -0.10182 -0.03898 -0.30654
v -0.25624 -0.08389 -0.63663
v -0.25338 -0.03898 -0.63331
v 0.13773 -0.03898 -0.19202
v 0.13928 -0.08389 -0.19036
v 0.26925 -0.03898 -0.53044
v 0.19215 -0.03898 -0.45558
v 0.13928 0.00593 -0.42200
v 0.27229 0.00593 -0.53260
v 0.13928 0.00593 -0.19036
v 0.10297 0.00593 -0.30618
v -0.19253 0.00593 -0.74068
v 0.00000 -0.02777 0.57339
v 0.03806 -0.02777 0.57339
v 0.03806 -0.06427 0.61740
v 0.00000 -0.06427 0.61740
v 0.03806 -0.03197 0.64680
v -0.00000 0.04104 0.57349
v 0.00000 -0.01808 0.66417
v 0.03806 0.01547 0.57345
v -0.03804 -0.02777 0.57339
v -0.03804 -0.06427 0.61740
v -0.03804 0.01547 0.57345
v -0.03804 -0.03197 0.64680
v 0.03806 -0.06427 0.66967
v 0.00000 -0.06427 0.66967
v 0.03806 -0.03197 0.66967
v 0.00000 -0.01817 0.66967
v -0.03804 -0.06427 0.66967
v -0.03804 -0.03197 0.66967
v -0.03804 -0.06308 0.71673
v 0.03806 -0.02558 0.67922
v 0.03806 -0.06308 0.71673
v -0.03804 -0.02558 0.67922
v 0.00001 -0.02558 0.67922
v 0.03806 -0.00721 0.67939
v 0.00001 -0.00721 0.67939
v 0.00001 0.02136 0.64719
v 0.03806 0.02136 0.65528
v -0.03804 -0.00721 0.67939
v -0.03804 0.02136 0.65528
v -0.03804 0.05035 0.69046
v 0.00001 0.05848 0.68237
v -0.03804 0.05035 0.73938
v 0.00001 0.05848 0.75427
v -0.03804 0.02174 0.77689
v 0.00001 0.02174 0.79178
v 0.00001 -0.02556 0.80000
v 0.00001 -0.00040 0.79787
v -0.03804 -0.00040 0.78298
v -0.03804 -0.02556 0.78511
v 0.00001 -0.06307 0.78466
v -0.03804 -0.06307 0.76977
v 0.00001 -0.06308 0.71673
v 0.03806 -0.00040 0.78298
v 0.03806 -0.02556 0.78511
v 0.03806 0.02174 0.77689
v 0.03806 0.05035 0.73938
v 0.03806 0.05035 0.69046
v 0.03806 -0.06307 0.76977
v -0.00000 0.00593 -0.63663
v -0.08135 0.00593 -0.72513
v 0.12906 0.00593 -0.51837
v 0.12422 0.00593 -0.47259
v 0.11258 0.00593 -0.44267
v -0.00000 0.00593 -0.01622
v -0.00000 0.00593 -0.13133
v -0.00000 0.00593 -0.14990
v -0.00000 0.00593 -0.19036
v 0.05885 0.00593 -0.19036
v -0.05741 0.00593 -0.39687
v 0.10103 0.00593 -0.51837
v -0.00000 0.00593 -0.53260
v 0.11433 0.00593 -0.52933
v 0.04351 0.00593 -0.30618
v -0.00000 0.00593 -0.30618
v 0.04483 0.00593 -0.40777
v -0.00000 0.00593 -0.42200
v 0.05741 0.00593 -0.39687
v 0.07287 0.00593 -0.40777
v -0.04483 0.00593 -0.40777
v -0.10103 0.00593 -0.51837
v -0.05980 -0.03693 0.75005
v -0.02230 -0.03927 0.74439
v -0.05980 -0.03927 0.74439
v -0.02230 -0.03693 0.75005
v -0.05980 -0.04493 0.74204
v -0.02230 -0.05059 0.74439
v -0.05980 -0.05059 0.74439
v -0.02230 -0.04493 0.74204
v -0.02230 -0.05293 0.75005
v -0.02230 -0.05059 0.75571
v -0.05980 -0.05059 0.75571
v -0.05980 -0.05293 0.75005
v -0.02230 -0.04493 0.75805
v -0.02230 -0.03927 0.75571
v -0.05980 -0.03927 0.75571
v -0.05980 -0.04493 0.75805
v -0.05980 -0.03693 0.71416
v -0.02230 -0.03927 0.70850
v -0.05980 -0.03927 0.70850
v -0.02230 -0.03693 0.71416
v -0.05980 -0.04493 0.70616
v -0.02230 -0.05059 0.70850
v -0.05980 -0.05059 0.70850
v -0.02230 -0.04493 0.70616
v -0.02230 -0.05293 0.71416
v -0.02230 -0.05059 0.71982
v -0.05980 -0.05059 0.71982
v -0.05980 -0.05293 0.71416
v -0.02230 -0.04493 0.72217
v -0.02230 -0.03927 0.71982
v -0.05980 -0.03927 0.71982
v -0.05980 -0.04493 0.72217
v -0.05980 -0.03693 0.67570
v -0.02230 -0.03927 0.67004
v -0.05980 -0.03927 0.67004
v -0.02230 -0.03693 0.67570
v -0.05980 -0.04493 0.66769
v -0.02230 -0.05059 0.67004
v -0.05980 -0.05059 0.67004
v -0.02230 -0.04493 0.66769
v -0.02230 -0.05293 0.67570
v -0.02230 -0.05059 0.68136
v -0.05980 -0.05059 0.68136
v -0.05980 -0.05293 0.67570
v -0.02230 -0.04493 0.68370
v -0.02230 -0.03927 0.68136
v -0.05980 -0.03927 0.68136
v -0.05980 -0.04493 0.68370
v -0.05980 -0.03615 0.73579
v -0.05980 -0.03574 0.75005
v -0.05980 -0.03615 0.76430
v -0.05980 -0.05412 0.67570
v -0.05980 -0.05371 0.66144
v -0.05980 -0.04493 0.69991
v -0.05980 -0.03615 0.69991
v -0.05980 -0.04493 0.76430
v -0.05980 -0.04493 0.66144
v -0.05980 -0.03574 0.71416
v -0.05980 -0.03615 0.72842
v -0.05980 -0.05371 0.76430
v -0.05980 -0.03615 0.66144
v -0.05980 -0.04493 0.72842
v -0.05980 -0.05412 0.75005
v -0.05980 -0.03574 0.67570
v -0.05980 -0.03615 0.68995
v -0.05980 -0.05371 0.72842
v -0.05980 -0.05371 0.73579
v -0.05980 -0.04493 0.68995
v -0.05980 -0.05412 0.71416
v -0.05980 -0.04493 0.73579
v -0.05980 -0.05371 0.68995
v -0.05980 -0.05371 0.69991
v -0.08060 -0.04493 0.69195
v -0.08060 -0.03615 0.69195
v -0.10140 -0.03615 0.68995
v -0.10140 -0.04493 0.68995
v -0.08060 -0.05371 0.73041
v -0.08060 -0.04493 0.73041
v -0.10140 -0.04493 0.72842
v -0.10140 -0.05371 0.72842
v -0.08060 -0.05412 0.75005
v -0.08060 -0.05371 0.76630
v -0.10140 -0.05371 0.76430
v -0.10140 -0.05412 0.75005
v -0.08060 -0.05371 0.69195
v -0.10140 -0.05371 0.68995
v -0.08060 -0.05412 0.71416
v -0.10140 -0.05412 0.71416
v -0.08060 -0.05371 0.73380
v -0.10140 -0.05371 0.73579
v -0.08060 -0.05412 0.67570
v -0.10140 -0.05412 0.67570
v -0.08060 -0.05371 0.69792
v -0.10140 -0.05371 0.69991
v -0.10140 -0.04493 0.73579
v -0.08060 -0.04493 0.73380
v -0.08060 -0.05371 0.65945
v -0.10140 -0.05371 0.66144
v -0.10140 -0.04493 0.69991
v -0.08060 -0.04493 0.69792
v -0.10140 -0.03615 0.73579
v -0.08060 -0.03615 0.73380
v -0.10140 -0.04493 0.66144
v -0.08060 -0.04493 0.65945
v -0.10140 -0.03615 0.69991
v -0.08060 -0.03615 0.69792
v -0.10140 -0.03574 0.75005
v -0.08060 -0.03574 0.75005
v -0.10140 -0.03615 0.66144
v -0.08060 -0.03615 0.65945
v -0.10140 -0.03615 0.76430
v -0.08060 -0.03615 0.76630
v -0.10140 -0.03574 0.71416
v -0.08060 -0.03574 0.71416
v -0.10140 -0.03615 0.72842
v -0.08060 -0.03615 0.73041
v -0.10140 -0.03574 0.67570
v -0.08060 -0.03574 0.67570
v -0.08060 -0.04493 0.76630
v -0.10140 -0.04493 0.76430
v -0.10140 -0.04493 0.75005
v -0.10140 -0.04493 0.67570
v -0.10140 -0.04493 0.71416
v 0.05980 -0.03693 0.75005
v 0.02230 -0.03927 0.74439
v 0.02230 -0.03693 0.75005
v 0.05980 -0.03927 0.74439
v 0.05980 -0.04493 0.74204
v 0.02230 -0.05059 0.74439
v 0.02230 -0.04493 0.74204
v 0.05980 -0.05059 0.74439
v 0.05980 -0.05059 0.75571
v 0.02230 -0.05059 0.75571
v 0.02230 -0.05293 0.75005
v 0.05980 -0.05293 0.75005
v 0.05980 -0.03927 0.75571
v 0.02230 -0.03927 0.75571
v 0.02230 -0.04493 0.75805
v 0.05980 -0.04493 0.75805
v 0.05980 -0.03693 0.71416
v 0.02230 -0.03927 0.70850
v 0.02230 -0.03693 0.71416
v 0.05980 -0.03927 0.70850
v 0.05980 -0.04493 0.70616
v 0.02230 -0.05059 0.70850
v 0.02230 -0.04493 0.70616
v 0.05980 -0.05059 0.70850
v 0.05980 -0.05059 0.71982
v 0.02230 -0.05059 0.71982
v 0.02230 -0.05293 0.71416
v 0.05980 -0.05293 0.71416
v 0.05980 -0.03927 0.71982
v 0.02230 -0.03927 0.71982
v 0.02230 -0.04493 0.72217
v 0.05980 -0.04493 0.72217
v 0.05980 -0.03693 0.67570
v 0.02230 -0.03927 0.67004
v 0.02230 -0.03693 0.67570
v 0.05980 -0.03927 0.67004
v 0.05980 -0.04493 0.66769
v 0.02230 -0.05059 0.67004
v 0.02230 -0.04493 0.66769
v 0.05980 -0.05059 0.67004
v 0.05980 -0.05059 0.68136
v 0.02230 -0.05059 0.68136
v 0.02230 -0.05293 0.67570
v 0.05980 -0.05293 0.67570
v 0.05980 -0.03927 0.68136
v 0.02230 -0.03927 0.68136
v 0.02230 -0.04493 0.68370
v 0.05980 -0.04493 0.68370
v 0.05980 -0.03574 0.75005
v 0.05980 -0.03615 0.73579
v 0.05980 -0.03615 0.76430
v 0.05980 -0.05371 0.66144
v 0.05980 -0.05412 0.67570
v 0.05980 -0.03615 0.69991
v 0.05980 -0.04493 0.69991
v 0.05980 -0.04493 0.76430
v 0.05980 -0.04493 0.66144
v 0.05980 -0.03574 0.71416
v 0.05980 -0.03615 0.72842
v 0.05980 -0.05371 0.76430
v 0.05980 -0.03615 0.66144
v 0.05980 -0.04493 0.72842
v 0.05980 -0.05412 0.75005
v 0.05980 -0.03574 0.67570
v 0.05980 -0.03615 0.68995
v 0.05980 -0.05371 0.72842
v 0.05980 -0.05371 0.73579
v 0.05980 -0.04493 0.68995
v 0.05980 -0.05412 0.71416
v 0.05980 -0.04493 0.73579
v 0.05980 -0.05371 0.68995
v 0.05980 -0.05371 0.69991
v 0.10140 -0.03615 0.68995
v 0.08060 -0.03615 0.69195
v 0.08060 -0.04493 0.69195
v 0.10140 -0.04493 0.68995
v 0.10140 -0.04493 0.72842
v 0.08060 -0.04493 0.73041
v 0.08060 -0.05371 0.73041
v 0.10140 -0.05371 0.72842
v 0.10140 -0.05371 0.76430
v 0.08060 -0.05371 0.76630
v 0.08060 -0.05412 0.75005
v 0.10140 -0.05412 0.75005
v 0.08060 -0.05371 0.69195
v 0.10140 -0.05371 0.68995
v 0.08060 -0.05412 0.71416
v 0.10140 -0.05412 0.71416
v 0.08060 -0.05371 0.73380
v 0.10140 -0.05371 0.73579
v 0.08060 -0.05412 0.67570
v 0.10140 -0.05412 0.67570
v 0.08060 -0.05371 0.69792
v 0.10140 -0.05371 0.69991
v 0.10140 -0.04493 0.73579
v 0.08060 -0.04493 0.73380
v 0.08060 -0.05371 0.65945
v 0.10140 -0.05371 0.66144
v 0.10140 -0.04493 0.69991
v 0.08060 -0.04493 0.69792
v 0.10140 -0.03615 0.73579
v 0.08060 -0.03615 0.73380
v 0.10140 -0.04493 0.66144
v 0.08060 -0.04493 0.65945
v 0.10140 -0.03615 0.69991
v 0.08060 -0.03615 0.69792
v 0.10140 -0.03574 0.75005
v 0.08060 -0.03574 0.75005
v 0.10140 -0.03615 0.66144
v 0.08060 -0.03615 0.65945
v 0.10140 -0.03615 0.76430
v 0.08060 -0.03615 0.76630
v 0.10140 -0.03574 0.71416
v 0.08060 -0.03574 0.71416
v 0.10140 -0.03615 0.72842
v 0.08060 -0.03615 0.73041
v 0.10140 -0.03574 0.67570
v 0.08060 -0.03574 0.67570
v 0.08060 -0.04493 0.76630
v 0.10140 -0.04493 0.76430
v 0.10140 -0.04493 0.75005
v 0.10140 -0.04493 0.67570
v 0.10140 -0.04493 0.71416
v 0.04077 -0.00885 0.55831
v 0.00000 -0.00885 0.55831
v -0.04077 0.05200 -0.24636
v 0.00000 -0.01094 -0.24636
v -0.04077 -0.01094 -0.24636
v -0.00000 0.07059 -0.24636
v 0.04077 0.02259 0.55831
v 0.04077 -0.01094 -0.24636
v 0.04077 0.05200 -0.24636
v -0.03822 0.02340 0.55831
v -0.04077 -0.00885 0.55831
v -0.00036 0.04098 0.55831
v -0.04251 -0.02431 -0.54476
v 0.00000 -0.02431 -0.54476
v -0.00000 0.06071 -0.54476
v -0.04251 0.04133 -0.54476
v 0.04251 -0.02431 -0.54476
v 0.04251 0.04133 -0.54476
v -0.02032 0.01998 -0.76696
v 0.00000 -0.01140 -0.76696
v -0.02032 -0.01140 -0.76696
v -0.00000 0.02924 -0.76696
v 0.02032 -0.01140 -0.76696
v 0.02032 0.01998 -0.76696
v 0.26129 0.01166 -0.53260
v 0.24982 0.01166 -0.48682
v 0.24691 -0.02729 -0.48517
v 0.25825 -0.02729 -0.53044
v 0.24524 0.01166 -0.63663
v 0.24238 -0.02729 -0.63331
v 0.18153 0.01166 -0.72513
v 0.17939 -0.02729 -0.72082
v 0.16680 -0.01929 -0.53168
v 0.16779 0.01166 -0.49942
v 0.16984 0.01166 -0.53384
v 0.16488 -0.01929 -0.49778
v 0.15093 -0.01929 -0.63455
v 0.15379 0.01166 -0.63787
v 0.07988 -0.01929 -0.72206
v 0.08203 0.01166 -0.72637
v 0.21153 0.01166 -0.53322
v 0.19549 0.01166 -0.63725
v 0.20007 0.01166 -0.48744
v 0.11437 -0.02329 -0.74652
v 0.19263 -0.02329 -0.63393
v 0.20849 -0.02329 -0.53106
v 0.19716 -0.02329 -0.48579
v 0.11652 0.01166 -0.75083
v 0.04483 -0.06159 -0.40777
v 0.05741 -0.06159 -0.39687
v 0.07287 -0.06159 -0.40777
v 0.11258 -0.06159 -0.44267
v 0.12422 -0.06159 -0.47259
v -0.11258 -0.06159 -0.44267
v -0.07287 -0.06159 -0.40777
v -0.07975 -0.06159 -0.44267
v -0.04483 -0.06159 -0.40777
v -0.05741 -0.06159 -0.39687
v 0.07975 -0.06159 -0.44267
v 0.09618 -0.06159 -0.47259
v 0.10103 -0.06159 -0.51837
v 0.11433 -0.06159 -0.52933
v -0.09618 -0.06159 -0.47259
v -0.12422 -0.06159 -0.47259
v 0.12906 -0.06159 -0.51837
v -0.10103 -0.06159 -0.51837
v -0.11433 -0.06159 -0.52933
v -0.12906 -0.06159 -0.51837
v -0.05077 0.02410 -0.33609
v -0.05077 0.06074 -0.32951
v -0.05077 0.06074 -0.33609
v -0.05077 0.02410 -0.32951
v -0.05077 -0.01765 -0.33609
v -0.05077 0.00799 -0.32951
v -0.05077 0.00799 -0.33609
v -0.05077 -0.01765 -0.32951
v -0.00000 0.01794 -0.33609
v 0.05077 -0.01765 -0.33609
v 0.00000 -0.01765 -0.33609
v 0.05077 0.00799 -0.33609
v 0.05077 0.00799 -0.32951
v 0.05077 -0.01765 -0.32951
v -0.00000 0.08389 -0.33609
v 0.05077 0.06074 -0.32951
v 0.05077 0.06074 -0.33609
v -0.00000 0.08389 -0.32951
v -0.00000 0.03405 -0.32951
v 0.00000 -0.01765 -0.32951
v -0.00000 0.01794 -0.32951
v 0.05077 0.02410 -0.32951
v -0.00000 0.03405 -0.33609
v 0.05077 0.02410 -0.33609
v -0.04490 0.01604 -0.33609
v -0.04490 0.01604 -0.32951
v 0.04490 0.01604 -0.32951
v 0.04490 0.01604 -0.33609
v -0.00000 0.02599 -0.33609
v -0.00000 0.02599 -0.32951
vt 0.25000 0.25000
vt 0.25000 0.75000
vt 0.75000 0.25000
vt 0.75000 0.75000
vn -0.0000 1.0000 0.0000
vn 0.0000 -1.0000 0.0000
vn 0.2245 -0.0394 0.9737
vn -0.2922 0.1076 -0.9503
vn 0.9966 0.0664 -0.0489
vn 0.2922 0.1076 -0.9503
vn -0.9686 0.0539 0.2426
vn 0.8495 0.0915 -0.5196
vn 0.9798 0.0669 0.1885
vn 0.4005 0.1106 0.9096
vn 0.2862 -0.0327 -0.9576
vn -0.4005 0.1106 0.9096
vn -0.7726 0.0033 -0.6349
vn -0.8986 0.0820 0.4310
vn 0.8986 0.0820 0.4310
vn 0.9539 0.0268 0.2991
vn -0.9798 0.0669 0.1885
vn -0.9539 0.0268 0.2991
vn -0.8495 0.0915 -0.5196
vn 0.9540 0.0220 -0.2991
vn 0.9856 0.0740 -0.1520
vn -0.2862 -0.0327 -0.9576
vn -0.9540 0.0220 -0.2991
vn 0.7726 0.0033 -0.6349
vn -0.9966 0.0664 -0.0489
vn -0.5355 0.0011 0.8445
vn -0.2245 -0.0394 0.9737
vn 0.9686 0.0539 0.2426
vn 0.5355 0.0011 0.8445
vn -0.9856 0.0740 -0.1520
vn -0.9856 -0.0740 -0.1520
vn 0.5355 -0.0011 0.8445
vn 0.9686 -0.0539 0.2426
vn -0.2245 0.0394 0.9737
vn -0.5355 -0.0011 0.8445
vn -0.9966 -0.0664 -0.0489
vn 0.7726 -0.0033 -0.6349
vn -0.9540 -0.0220 -0.2991
vn -0.2862 0.0327 -0.9576
vn 0.9856 -0.0740 -0.1520
vn 0.9540 -0.0220 -0.2991
vn -0.8495 -0.0915 -0.5196
vn -0.9539 -0.0268 0.2991
vn -0.9798 -0.0669 0.1885
vn 0.9539 -0.0268 0.2991
vn 0.8986 -0.0820 0.4310
vn -0.8986 -0.0820 0.4310
vn -0.7726 -0.0033 -0.6349
vn -0.4005 -0.1106 0.9096
vn 0.2862 0.0327 -0.9576
vn 0.4005 -0.1106 0.9096
vn 0.9798 -0.0669 0.1885
vn 0.8495 -0.0915 -0.5196
vn -0.9686 -0.0539 0.2426
vn 0.2922 -0.1076 -0.9503
vn 0.9966 -0.0664 -0.0489
vn -0.2922 -0.1076 -0.9503
vn 0.2245 0.0394 0.9737
vn 0.0000 -0.7697 -0.6384
vn 0.4881 0.7319 0.4755
vn -0.4883 0.7318 0.4754
vn 1.0000 0.0000 0.0000
vn -1.0000 -0.0000 0.0000
vn 0.3425 0.9395 0.0031
vn -0.3426 0.9395 0.0031
vn -0.1782 0.9826 0.0519
vn 0.1782 0.9826 0.0518
vn 0.0755 -0.6999 -0.7102
vn -0.0756 -0.6999 -0.7102
vn -0.2181 0.7112 -0.6683
vn -0.2088 0.9780 0.0000
vn -0.3198 0.7144 0.6224
vn -0.3633 0.0784 0.9284
vn -0.3406 -0.3558 0.8703
vn 0.0000 -0.9997 0.0254
vn 0.3633 0.0784 0.9284
vn 0.3198 0.7144 0.6224
vn 0.2088 0.9780 0.0000
vn 0.2181 0.7112 -0.6683
vn 0.3405 -0.3558 0.8703
vn 0.3530 0.2485 0.9020
vn -0.3530 0.2484 0.9020
vn -0.0000 0.0095 -1.0000
vn -0.0000 0.9239 -0.3827
vn 0.0000 -0.3827 -0.9239
vn 0.0000 -0.9239 0.3827
vn -0.0000 0.3827 0.9239
vn -0.0000 0.3827 -0.9239
vn 0.0000 -0.9239 -0.3827
vn 0.0000 -0.3827 0.9239
vn -0.0000 0.9239 0.3827
vn -0.0954 -0.0000 0.9954
vn -0.0013 -0.9996 0.0269
vn -0.0013 -0.9996 -0.0269
vn -0.0954 -0.0000 -0.9954
vn -0.0013 0.9996 -0.0269
vn -0.0013 0.9996 0.0269
vn 0.0954 0.0000 0.9954
vn 0.0013 0.9996 0.0269
vn 0.0013 0.9996 -0.0269
vn 0.0954 0.0000 -0.9954
vn 0.0013 -0.9996 -0.0269
vn 0.0013 -0.9996 0.0269
vn 0.0000 -0.6234 -0.7819
vn -0.0000 0.0000 -1.0000
vn -0.9996 0.0267 0.0020
vn 0.0000 -1.0000 0.0026
vn -0.4176 0.9080 0.0334
vn 0.4112 0.9109 0.0335
vn 0.9844 -0.0001 0.1761
vn -0.9916 0.0333 0.1249
vn -0.4812 0.8464 0.2281
vn 0.4718 0.8499 0.2345
vn -0.0000 0.0000 1.0000
vn 0.0000 -0.9983 -0.0580
vn -0.4114 0.9024 -0.1278
vn 0.9950 0.0000 -0.0994
vn 0.4114 0.9024 -0.1278
vn -0.9950 -0.0000 -0.0994
vn 0.9682 -0.0621 0.2425
vn 0.9847 -0.0852 -0.1519
vn 0.8068 -0.1087 -0.5807
vn -0.9941 0.0920 -0.0577
vn -0.9826 0.1070 0.1516
vn -0.7690 0.1391 0.6239
vn -0.0847 -0.9944 0.0632
vn -0.1047 -0.9944 -0.0175
vn -0.5797 -0.0684 -0.8120
vn -0.0958 -0.9953 0.0148
vn -0.3428 0.0771 0.9362
vn -0.0106 0.0454 0.9989
vn -0.0804 -0.9967 0.0124
vn 0.3611 -0.1287 -0.9236
vn -0.0800 -0.9966 -0.0200
vn -0.0828 -0.9948 0.0585
vn -0.9320 -0.0000 -0.3624
vn 0.6548 0.0000 -0.7558
vn 0.6601 0.0000 -0.7512
vn -0.7070 -0.0000 0.7073
vn 0.5760 0.0000 -0.8174
vn 0.8765 0.0000 0.4815
vn 0.6361 0.0000 0.7716
vn -0.8765 -0.0000 0.4815
vn 0.7070 0.0000 0.7073
vn 0.9320 0.0000 -0.3624
vn -0.6548 -0.0000 -0.7558
vn 0.9945 0.0000 0.1052
vn -0.6361 -0.0000 0.7716
vn 0.9945 0.0000 -0.1052
vn -0.5760 -0.0000 -0.8174
vn -0.9945 -0.0000 -0.1052
vn -0.9945 -0.0000 0.1052
vn -0.5971 -0.0000 0.8022
vn -0.6601 -0.0000 -0.7512
vn 0.5971 0.0000 0.8022
vn 0.4149 0.9099 0.0000
vn -0.4149 0.9099 0.0000
vn -0.8085 0.5885 0.0000
vn -0.8085 -0.5885 0.0000
vn 0.8085 -0.5885 0.0000
vn 0.8085 0.5885 0.0000
f 1/1/1 2/1/1 3/1/1
f 2/1/1 1/1/1 4/1/1
f 5/1/1 6/1/1 7/1/1
f 6/1/1 8/1/1 9/1/1
f 8/1/1 6/1/1 5/1/1
f 10/1/1 11/1/1 12/1/1
f 11/1/1 10/1/1 13/1/1
f 1/1/1 14/1/1 4/1/1
f 14/1/1 1/1/1 15/1/1
f 16/1/1 17/1/1 18/1/1
f 17/1/1 16/1/1 19/1/1
f 20/1/1 21/1/1 22/1/1
f 21/1/1 20/1/1 23/1/1
f 24/1/1 25/1/1 26/1/1
f 25/1/1 24/1/1 27/1/1
f 28/1/1 29/1/1 30/1/1
f 29/1/1 28/1/1 31/1/1
f 32/1/1 33/1/1 34/1/1
f 35/1/1 36/1/1 37/1/1
f 38/1/1 13/1/1 10/1/1
f 13/1/1 38/1/1 39/1/1
f 34/1/1 40/1/1 41/1/1
f 40/1/1 34/1/1 33/1/1
f 42/1/1 33/1/1 43/1/1
f 33/1/1 42/1/1 40/1/1
f 44/1/1 45/1/1 46/1/1
f 45/1/1 44/1/1 47/1/1
f 48/1/1 44/1/1 49/1/1
f 44/1/1 48/1/1 47/1/1
f 50/1/2 51/1/2 52/1/2
f 52/1/2 53/1/2 50/1/2
f 54/1/2 55/1/2 51/1/2
f 51/1/2 50/1/2 54/1/2
f 55/1/2 56/1/2 57/1/2
f 57/1/2 58/1/2 55/1/2
f 52/1/2 59/1/2 60/1/2
f 60/1/2 53/1/2 52/1/2
f 61/1/2 59/1/2 62/1/2
f 62/1/2 63/1/2 61/1/2
f 61/1/2 64/1/2 65/1/2
f 65/1/2 66/1/2 61/1/2
f 67/1/2 64/1/2 68/1/2
f 68/1/2 69/1/2 67/1/2
f 70/1/2 71/1/2 67/1/2
f 72/1/2 73/1/2 74/1/2
f 75/1/2 57/1/2 76/1/2
f 77/1/2 56/1/2 74/1/2
f 74/1/2 73/1/2 77/1/2
f 78/1/2 77/1/2 73/1/2
f 73/1/2 79/1/2 78/1/2
f 78/1/2 80/1/2 81/1/2
f 81/1/2 82/1/2 78/1/2
f 83/1/2 84/1/2 85/1/2
f 80/1/2 85/1/2 84/1/2
f 84/1/2 81/1/2 80/1/2
f 86/1/3 87/1/3 72/1/3
f 72/1/3 74/1/3 86/1/3
f 88/1/4 89/1/4 83/1/4
f 89/1/4 88/1/4 90/1/4
f 91/1/5 92/1/5 75/1/5
f 75/1/5 76/1/5 91/1/5
f 83/1/6 93/1/6 84/1/6
f 93/1/6 83/1/6 89/1/6
f 73/1/7 94/1/7 79/1/7
f 94/1/7 73/1/7 95/1/7
f 93/1/8 96/1/8 81/1/8
f 81/1/8 84/1/8 93/1/8
f 97/1/9 98/1/9 68/1/9
f 68/1/9 63/1/9 97/1/9
f 99/1/10 100/1/10 70/1/10
f 70/1/10 69/1/10 99/1/10
f 62/1/11 97/1/11 63/1/11
f 97/1/11 62/1/11 101/1/11
f 100/1/12 102/1/12 71/1/12
f 71/1/12 70/1/12 100/1/12
f 60/1/13 103/1/13 53/1/13
f 103/1/13 60/1/13 104/1/13
f 71/1/14 105/1/14 65/1/14
f 105/1/14 71/1/14 102/1/14
f 98/1/15 99/1/15 69/1/15
f 69/1/15 68/1/15 98/1/15
f 106/1/16 107/1/16 108/1/16
f 108/1/16 58/1/16 106/1/16
f 65/1/17 109/1/17 66/1/17
f 109/1/17 65/1/17 105/1/17
f 50/1/18 110/1/18 54/1/18
f 110/1/18 50/1/18 111/1/18
f 112/1/19 90/1/19 88/1/19
f 90/1/19 112/1/19 113/1/19
f 107/1/20 114/1/20 115/1/20
f 115/1/20 108/1/20 107/1/20
f 96/1/21 116/1/21 82/1/21
f 82/1/21 81/1/21 96/1/21
f 66/1/22 104/1/22 60/1/22
f 104/1/22 66/1/22 109/1/22
f 53/1/23 111/1/23 50/1/23
f 111/1/23 53/1/23 103/1/23
f 114/1/24 101/1/24 62/1/24
f 62/1/24 115/1/24 114/1/24
f 72/1/25 95/1/25 73/1/25
f 95/1/25 72/1/25 87/1/25
f 110/1/26 86/1/26 74/1/26
f 74/1/26 54/1/26 110/1/26
f 92/1/27 117/1/27 57/1/27
f 57/1/27 75/1/27 92/1/27
f 116/1/28 91/1/28 76/1/28
f 76/1/28 82/1/28 116/1/28
f 117/1/29 106/1/29 58/1/29
f 58/1/29 57/1/29 117/1/29
f 79/1/30 113/1/30 112/1/30
f 113/1/30 79/1/30 94/1/30
f 94/1/31 6/1/31 113/1/31
f 6/1/31 94/1/31 7/1/31
f 37/1/32 118/1/32 106/1/32
f 106/1/32 117/1/32 37/1/32
f 119/1/33 36/1/33 91/1/33
f 91/1/33 116/1/33 119/1/33
f 35/1/34 37/1/34 117/1/34
f 117/1/34 92/1/34 35/1/34
f 43/1/35 33/1/35 86/1/35
f 86/1/35 110/1/35 43/1/35
f 87/1/36 34/1/36 95/1/36
f 34/1/36 87/1/36 32/1/36
f 120/1/37 19/1/37 101/1/37
f 101/1/37 114/1/37 120/1/37
f 103/1/38 3/1/38 111/1/38
f 3/1/38 103/1/38 1/1/38
f 109/1/39 15/1/39 104/1/39
f 15/1/39 109/1/39 20/1/39
f 48/1/40 119/1/40 116/1/40
f 116/1/40 96/1/40 48/1/40
f 121/1/41 120/1/41 114/1/41
f 114/1/41 107/1/41 121/1/41
f 113/1/42 122/1/42 90/1/42
f 122/1/42 113/1/42 6/1/42
f 111/1/43 43/1/43 110/1/43
f 43/1/43 111/1/43 3/1/43
f 105/1/44 20/1/44 109/1/44
f 20/1/44 105/1/44 23/1/44
f 118/1/45 121/1/45 107/1/45
f 107/1/45 106/1/45 118/1/45
f 27/1/46 24/1/46 99/1/46
f 99/1/46 98/1/46 27/1/46
f 102/1/47 23/1/47 105/1/47
f 23/1/47 102/1/47 31/1/47
f 104/1/48 1/1/48 103/1/48
f 1/1/48 104/1/48 15/1/48
f 29/1/49 31/1/49 102/1/49
f 102/1/49 100/1/49 29/1/49
f 101/1/50 16/1/50 97/1/50
f 16/1/50 101/1/50 19/1/50
f 24/1/51 29/1/51 100/1/51
f 100/1/51 99/1/51 24/1/51
f 16/1/52 27/1/52 98/1/52
f 98/1/52 97/1/52 16/1/52
f 47/1/53 48/1/53 96/1/53
f 96/1/53 93/1/53 47/1/53
f 95/1/54 7/1/54 94/1/54
f 7/1/54 95/1/54 34/1/54
f 89/1/55 47/1/55 93/1/55
f 47/1/55 89/1/55 45/1/55
f 36/1/56 35/1/56 92/1/56
f 92/1/56 91/1/56 36/1/56
f 90/1/57 45/1/57 89/1/57
f 45/1/57 90/1/57 122/1/57
f 33/1/58 32/1/58 87/1/58
f 87/1/58 86/1/58 33/1/58
f 123/1/59 124/1/59 125/1/59
f 125/1/59 126/1/59 123/1/59
f 127/1/60 128/1/60 129/1/60
f 128/1/60 127/1/60 130/1/60
f 131/1/59 123/1/59 126/1/59
f 126/1/59 132/1/59 131/1/59
f 129/1/61 133/1/61 134/1/61
f 133/1/61 129/1/61 128/1/61
f 124/1/62 130/1/62 127/1/62
f 127/1/62 125/1/62 124/1/62
f 134/1/63 131/1/63 132/1/63
f 131/1/63 134/1/63 133/1/63
f 126/1/2 125/1/2 135/1/2
f 135/1/2 136/1/2 126/1/2
f 137/1/64 129/1/64 138/1/64
f 129/1/64 137/1/64 127/1/64
f 132/1/2 126/1/2 136/1/2
f 136/1/2 139/1/2 132/1/2
f 138/1/65 134/1/65 140/1/65
f 134/1/65 138/1/65 129/1/65
f 125/1/62 127/1/62 137/1/62
f 137/1/62 135/1/62 125/1/62
f 140/1/63 132/1/63 139/1/63
f 132/1/63 140/1/63 134/1/63
f 139/1/63 141/1/63 140/1/63
f 137/1/62 142/1/62 143/1/62
f 144/1/66 138/1/66 140/1/66
f 138/1/66 144/1/66 145/1/66
f 145/1/67 137/1/67 138/1/67
f 137/1/67 145/1/67 142/1/67
f 146/1/68 147/1/68 148/1/68
f 148/1/68 149/1/68 146/1/68
f 148/1/69 147/1/69 150/1/69
f 150/1/69 151/1/69 148/1/69
f 152/1/70 148/1/70 151/1/70
f 148/1/70 152/1/70 153/1/70
f 154/1/71 153/1/71 152/1/71
f 153/1/71 154/1/71 155/1/71
f 156/1/72 155/1/72 154/1/72
f 155/1/72 156/1/72 157/1/72
f 158/1/73 159/1/73 160/1/73
f 160/1/73 161/1/73 158/1/73
f 162/1/74 158/1/74 161/1/74
f 161/1/74 163/1/74 162/1/74
f 164/1/2 162/1/2 163/1/2
f 163/1/2 141/1/2 164/1/2
f 141/1/75 139/1/75 136/1/75
f 136/1/75 164/1/75 141/1/75
f 165/1/76 159/1/76 158/1/76
f 158/1/76 166/1/76 165/1/76
f 167/1/77 155/1/77 157/1/77
f 155/1/77 167/1/77 168/1/77
f 168/1/78 153/1/78 155/1/78
f 153/1/78 168/1/78 169/1/78
f 169/1/79 148/1/79 153/1/79
f 148/1/79 169/1/79 149/1/79
f 166/1/80 158/1/80 162/1/80
f 162/1/80 170/1/80 166/1/80
f 170/1/2 162/1/2 164/1/2
f 164/1/2 143/1/2 170/1/2
f 161/1/63 150/1/63 144/1/63
f 150/1/63 161/1/63 160/1/63
f 143/1/62 135/1/62 137/1/62
f 141/1/63 144/1/63 140/1/63
f 156/1/63 152/1/63 151/1/63
f 152/1/63 156/1/63 154/1/63
f 144/1/63 163/1/63 161/1/63
f 163/1/63 144/1/63 141/1/63
f 170/1/62 143/1/62 142/1/62
f 142/1/62 166/1/62 170/1/62
f 142/1/62 146/1/62 165/1/62
f 165/1/62 166/1/62 142/1/62
f 149/1/62 169/1/62 168/1/62
f 168/1/62 167/1/62 149/1/62
f 136/1/75 135/1/75 143/1/75
f 143/1/75 164/1/75 136/1/75
f 146/1/62 149/1/62 167/1/62
f 167/1/62 165/1/62 146/1/62
f 160/1/63 151/1/63 150/1/63
f 151/1/63 160/1/63 156/1/63
f 167/1/81 157/1/81 159/1/81
f 159/1/81 165/1/81 167/1/81
f 159/1/82 157/1/82 156/1/82
f 156/1/82 160/1/82 159/1/82
f 150/1/83 145/1/83 144/1/83
f 145/1/83 150/1/83 147/1/83
f 146/1/83 145/1/83 147/1/83
f 145/1/83 146/1/83 142/1/83
f 171/1/1 172/1/1 9/1/1
f 172/1/1 171/1/1 46/1/1
f 7/1/1 41/1/1 5/1/1
f 41/1/1 7/1/1 34/1/1
f 173/1/1 36/1/1 119/1/1
f 36/1/1 173/1/1 174/1/1
f 174/1/1 37/1/1 36/1/1
f 37/1/1 174/1/1 175/1/1
f 30/1/1 21/1/1 28/1/1
f 21/1/1 30/1/1 176/1/1
f 177/1/1 25/1/1 18/1/1
f 25/1/1 177/1/1 176/1/1
f 177/1/1 14/1/1 22/1/1
f 14/1/1 177/1/1 178/1/1
f 179/1/1 17/1/1 180/1/1
f 17/1/1 179/1/1 178/1/1
f 3/1/1 42/1/1 43/1/1
f 42/1/1 2/1/1 181/1/1
f 2/1/1 42/1/1 3/1/1
f 182/1/1 171/1/1 183/1/1
f 171/1/1 184/1/1 49/1/1
f 184/1/1 171/1/1 182/1/1
f 179/1/1 185/1/1 186/1/1
f 185/1/1 179/1/1 180/1/1
f 112/1/2 88/1/2 85/1/2
f 85/1/2 80/1/2 112/1/2
f 122/1/1 46/1/1 45/1/1
f 46/1/1 122/1/1 172/1/1
f 29/1/1 26/1/1 30/1/1
f 26/1/1 29/1/1 24/1/1
f 79/1/2 112/1/2 80/1/2
f 80/1/2 78/1/2 79/1/2
f 82/1/2 76/1/2 77/1/2
f 77/1/2 78/1/2 82/1/2
f 76/1/2 57/1/2 56/1/2
f 56/1/2 77/1/2 76/1/2
f 71/1/2 65/1/2 64/1/2
f 64/1/2 67/1/2 71/1/2
f 63/1/2 68/1/2 64/1/2
f 64/1/2 61/1/2 63/1/2
f 66/1/2 60/1/2 59/1/2
f 59/1/2 61/1/2 66/1/2
f 115/1/2 62/1/2 59/1/2
f 59/1/2 52/1/2 115/1/2
f 54/1/2 74/1/2 56/1/2
f 56/1/2 55/1/2 54/1/2
f 55/1/2 58/1/2 108/1/2
f 108/1/2 51/1/2 55/1/2
f 51/1/2 108/1/2 115/1/2
f 115/1/2 52/1/2 51/1/2
f 180/1/1 121/1/1 185/1/1
f 121/1/1 180/1/1 120/1/1
f 67/1/2 69/1/2 70/1/2
f 85/1/2 88/1/2 83/1/2
f 186/1/1 187/1/1 188/1/1
f 187/1/1 185/1/1 189/1/1
f 185/1/1 187/1/1 186/1/1
f 180/1/1 19/1/1 120/1/1
f 19/1/1 180/1/1 17/1/1
f 18/1/1 27/1/1 16/1/1
f 27/1/1 18/1/1 25/1/1
f 187/1/1 13/1/1 188/1/1
f 13/1/1 187/1/1 11/1/1
f 189/1/1 118/1/1 190/1/1
f 118/1/1 185/1/1 121/1/1
f 185/1/1 118/1/1 189/1/1
f 49/1/1 46/1/1 171/1/1
f 46/1/1 49/1/1 44/1/1
f 173/1/1 49/1/1 184/1/1
f 49/1/1 119/1/1 48/1/1
f 119/1/1 49/1/1 173/1/1
f 26/1/1 176/1/1 30/1/1
f 176/1/1 26/1/1 25/1/1
f 18/1/1 178/1/1 177/1/1
f 178/1/1 18/1/1 17/1/1
f 183/1/1 12/1/1 182/1/1
f 12/1/1 183/1/1 10/1/1
f 181/1/1 188/1/1 191/1/1
f 188/1/1 2/1/1 186/1/1
f 2/1/1 188/1/1 181/1/1
f 22/1/1 15/1/1 20/1/1
f 15/1/1 22/1/1 14/1/1
f 28/1/1 23/1/1 31/1/1
f 23/1/1 28/1/1 21/1/1
f 192/1/1 10/1/1 183/1/1
f 10/1/1 192/1/1 38/1/1
f 9/1/1 122/1/1 6/1/1
f 122/1/1 9/1/1 172/1/1
f 192/1/1 9/1/1 8/1/1
f 9/1/1 183/1/1 171/1/1
f 183/1/1 9/1/1 192/1/1
f 22/1/1 176/1/1 177/1/1
f 176/1/1 22/1/1 21/1/1
f 4/1/1 178/1/1 179/1/1
f 178/1/1 4/1/1 14/1/1
f 188/1/1 39/1/1 191/1/1
f 39/1/1 188/1/1 13/1/1
f 4/1/1 186/1/1 2/1/1
f 186/1/1 4/1/1 179/1/1
f 118/1/1 175/1/1 190/1/1
f 175/1/1 118/1/1 37/1/1
f 193/4/84 194/4/84 195/4/84
f 194/4/84 193/4/84 196/4/84
f 197/4/85 198/4/85 199/4/85
f 198/4/85 197/4/85 200/4/85
f 201/4/86 202/4/86 203/4/86
f 203/4/86 204/4/86 201/4/86
f 205/4/87 206/4/87 207/4/87
f 207/4/87 208/4/87 205/4/87
f 195/4/88 200/4/88 197/4/88
f 200/4/88 195/4/88 194/4/88
f 198/4/89 201/4/89 204/4/89
f 204/4/89 199/4/89 198/4/89
f 202/4/90 205/4/90 208/4/90
f 208/4/90 203/4/90 202/4/90
f 207/4/91 196/4/91 193/4/91
f 196/4/91 207/4/91 206/4/91
f 209/4/84 210/4/84 211/4/84
f 210/4/84 209/4/84 212/4/84
f 213/4/85 214/4/85 215/4/85
f 214/4/85 213/4/85 216/4/85
f 217/4/86 218/4/86 219/4/86
f 219/4/86 220/4/86 217/4/86
f 221/4/87 222/4/87 223/4/87
f 223/4/87 224/4/87 221/4/87
f 211/4/88 216/4/88 213/4/88
f 216/4/88 211/4/88 210/4/88
f 214/4/89 217/4/89 220/4/89
f 220/4/89 215/4/89 214/4/89
f 218/4/90 221/4/90 224/4/90
f 224/4/90 219/4/90 218/4/90
f 223/4/91 212/4/91 209/4/91
f 212/4/91 223/4/91 222/4/91
f 225/4/84 226/4/84 227/4/84
f 226/4/84 225/4/84 228/4/84
f 229/4/85 230/4/85 231/4/85
f 230/4/85 229/4/85 232/4/85
f 233/4/86 234/4/86 235/4/86
f 235/4/86 236/4/86 233/4/86
f 237/4/87 238/4/87 239/4/87
f 239/4/87 240/4/87 237/4/87
f 227/4/88 232/4/88 229/4/88
f 232/4/88 227/4/88 226/4/88
f 230/4/89 233/4/89 236/4/89
f 236/4/89 231/4/89 230/4/89
f 234/4/90 237/4/90 240/4/90
f 240/4/90 235/4/90 234/4/90
f 239/4/91 228/4/91 225/4/91
f 228/4/91 239/4/91 238/4/91
f 193/4/62 195/4/62 241/4/62
f 241/4/62 242/4/62 193/4/62
f 207/4/62 193/4/62 242/4/62
f 242/4/62 243/4/62 207/4/62
f 231/4/62 236/4/62 244/4/62
f 244/4/62 245/4/62 231/4/62
f 211/4/62 213/4/62 246/4/62
f 246/4/62 247/4/62 211/4/62
f 208/4/62 207/4/62 243/4/62
f 243/4/62 248/4/62 208/4/62
f 229/4/62 231/4/62 245/4/62
f 245/4/62 249/4/62 229/4/62
f 209/4/62 211/4/62 247/4/62
f 247/4/62 250/4/62 209/4/62
f 223/4/62 209/4/62 250/4/62
f 250/4/62 251/4/62 223/4/62
f 203/4/62 208/4/62 248/4/62
f 248/4/62 252/4/62 203/4/62
f 227/4/62 229/4/62 249/4/62
f 249/4/62 253/4/62 227/4/62
f 224/4/62 223/4/62 251/4/62
f 251/4/62 254/4/62 224/4/62
f 204/4/62 203/4/62 252/4/62
f 252/4/62 255/4/62 204/4/62
f 225/4/62 227/4/62 253/4/62
f 253/4/62 256/4/62 225/4/62
f 239/4/62 225/4/62 256/4/62
f 256/4/62 257/4/62 239/4/62
f 219/4/62 224/4/62 254/4/62
f 254/4/62 258/4/62 219/4/62
f 199/4/62 204/4/62 255/4/62
f 255/4/62 259/4/62 199/4/62
f 240/4/62 239/4/62 257/4/62
f 257/4/62 260/4/62 240/4/62
f 220/4/62 219/4/62 258/4/62
f 258/4/62 261/4/62 220/4/62
f 197/4/62 199/4/62 259/4/62
f 259/4/62 262/4/62 197/4/62
f 235/4/62 240/4/62 260/4/62
f 260/4/62 263/4/62 235/4/62
f 215/4/62 220/4/62 261/4/62
f 261/4/62 264/4/62 215/4/62
f 195/4/62 197/4/62 262/4/62
f 262/4/62 241/4/62 195/4/62
f 236/4/62 235/4/62 263/4/62
f 263/4/62 244/4/62 236/4/62
f 213/4/62 215/4/62 264/4/62
f 264/4/62 246/4/62 213/4/62
f 265/4/92 266/4/92 267/4/92
f 267/4/92 268/4/92 265/4/92
f 269/4/92 270/4/92 271/4/92
f 271/4/92 272/4/92 269/4/92
f 273/4/93 274/4/93 275/4/93
f 275/4/93 276/4/93 273/4/93
f 277/4/92 265/4/92 268/4/92
f 268/4/92 278/4/92 277/4/92
f 279/4/93 269/4/93 272/4/93
f 272/4/93 280/4/93 279/4/93
f 281/4/94 273/4/94 276/4/94
f 276/4/94 282/4/94 281/4/94
f 283/4/93 277/4/93 278/4/93
f 278/4/93 284/4/93 283/4/93
f 285/4/94 279/4/94 280/4/94
f 280/4/94 286/4/94 285/4/94
f 287/4/95 281/4/95 282/4/95
f 281/4/95 287/4/95 288/4/95
f 289/4/94 283/4/94 284/4/94
f 284/4/94 290/4/94 289/4/94
f 291/4/95 285/4/95 286/4/95
f 285/4/95 291/4/95 292/4/95
f 293/4/95 288/4/95 287/4/95
f 288/4/95 293/4/95 294/4/95
f 295/4/95 289/4/95 290/4/95
f 289/4/95 295/4/95 296/4/95
f 297/4/95 292/4/95 291/4/95
f 292/4/95 297/4/95 298/4/95
f 299/4/96 294/4/96 293/4/96
f 294/4/96 299/4/96 300/4/96
f 301/4/95 296/4/95 295/4/95
f 296/4/95 301/4/95 302/4/95
f 303/4/97 300/4/97 299/4/97
f 300/4/97 303/4/97 304/4/97
f 305/4/96 298/4/96 297/4/96
f 298/4/96 305/4/96 306/4/96
f 307/4/97 306/4/97 305/4/97
f 306/4/97 307/4/97 308/4/97
f 309/4/96 302/4/96 301/4/96
f 302/4/96 309/4/96 310/4/96
f 311/4/92 304/4/92 303/4/92
f 303/4/92 312/4/92 311/4/92
f 267/4/97 310/4/97 309/4/97
f 310/4/97 267/4/97 266/4/97
f 270/4/92 308/4/92 307/4/92
f 307/4/92 271/4/92 270/4/92
f 274/4/92 311/4/92 312/4/92
f 312/4/92 275/4/92 274/4/92
f 287/4/63 313/4/63 293/4/63
f 290/4/63 314/4/63 295/4/63
f 291/4/63 315/4/63 297/4/63
f 293/4/63 313/4/63 299/4/63
f 295/4/63 314/4/63 301/4/63
f 299/4/63 313/4/63 303/4/63
f 297/4/63 315/4/63 305/4/63
f 305/4/63 315/4/63 307/4/63
f 301/4/63 314/4/63 309/4/63
f 303/4/63 313/4/63 312/4/63
f 309/4/63 314/4/63 267/4/63
f 307/4/63 315/4/63 271/4/63
f 312/4/63 313/4/63 275/4/63
f 267/4/63 314/4/63 268/4/63
f 271/4/63 315/4/63 272/4/63
f 275/4/63 313/4/63 276/4/63
f 268/4/63 314/4/63 278/4/63
f 272/4/63 315/4/63 280/4/63
f 276/4/63 313/4/63 282/4/63
f 278/4/63 314/4/63 284/4/63
f 280/4/63 315/4/63 286/4/63
f 282/4/63 313/4/63 287/4/63
f 284/4/63 314/4/63 290/4/63
f 286/4/63 315/4/63 291/4/63
f 254/4/98 251/4/98 308/4/98
f 308/4/98 270/4/98 254/4/98
f 308/4/99 250/4/99 306/4/99
f 250/4/99 308/4/99 251/4/99
f 306/4/100 247/4/100 298/4/100
f 247/4/100 306/4/100 250/4/100
f 298/4/101 246/4/101 292/4/101
f 246/4/101 298/4/101 247/4/101
f 292/4/101 264/4/101 285/4/101
f 264/4/101 292/4/101 246/4/101
f 264/4/102 261/4/102 279/4/102
f 279/4/102 285/4/102 264/4/102
f 261/4/103 258/4/103 269/4/103
f 269/4/103 279/4/103 261/4/103
f 258/4/98 254/4/98 270/4/98
f 270/4/98 269/4/98 258/4/98
f 266/4/99 256/4/99 310/4/99
f 256/4/99 266/4/99 257/4/99
f 310/4/100 253/4/100 302/4/100
f 253/4/100 310/4/100 256/4/100
f 302/4/101 249/4/101 296/4/101
f 249/4/101 302/4/101 253/4/101
f 296/4/101 245/4/101 289/4/101
f 245/4/101 296/4/101 249/4/101
f 245/4/102 244/4/102 283/4/102
f 283/4/102 289/4/102 245/4/102
f 244/4/103 263/4/103 277/4/103
f 277/4/103 283/4/103 244/4/103
f 263/4/98 260/4/98 265/4/98
f 265/4/98 277/4/98 263/4/98
f 260/4/98 257/4/98 266/4/98
f 266/4/98 265/4/98 260/4/98
f 252/4/98 248/4/98 311/4/98
f 311/4/98 274/4/98 252/4/98
f 248/4/98 243/4/98 304/4/98
f 304/4/98 311/4/98 248/4/98
f 304/4/99 242/4/99 300/4/99
f 242/4/99 304/4/99 243/4/99
f 300/4/100 241/4/100 294/4/100
f 241/4/100 300/4/100 242/4/100
f 294/4/101 262/4/101 288/4/101
f 262/4/101 294/4/101 241/4/101
f 288/4/101 259/4/101 281/4/101
f 259/4/101 288/4/101 262/4/101
f 259/4/102 255/4/102 273/4/102
f 273/4/102 281/4/102 259/4/102
f 255/4/103 252/4/103 274/4/103
f 274/4/103 273/4/103 255/4/103
f 316/4/84 317/4/84 318/4/84
f 317/4/84 316/4/84 319/4/84
f 320/4/85 321/4/85 322/4/85
f 321/4/85 320/4/85 323/4/85
f 324/4/86 325/4/86 326/4/86
f 326/4/86 327/4/86 324/4/86
f 328/4/87 329/4/87 330/4/87
f 330/4/87 331/4/87 328/4/87
f 319/4/88 322/4/88 317/4/88
f 322/4/88 319/4/88 320/4/88
f 327/4/89 326/4/89 321/4/89
f 321/4/89 323/4/89 327/4/89
f 331/4/90 330/4/90 325/4/90
f 325/4/90 324/4/90 331/4/90
f 328/4/91 318/4/91 329/4/91
f 318/4/91 328/4/91 316/4/91
f 332/4/84 333/4/84 334/4/84
f 333/4/84 332/4/84 335/4/84
f 336/4/85 337/4/85 338/4/85
f 337/4/85 336/4/85 339/4/85
f 340/4/86 341/4/86 342/4/86
f 342/4/86 343/4/86 340/4/86
f 344/4/87 345/4/87 346/4/87
f 346/4/87 347/4/87 344/4/87
f 335/4/88 338/4/88 333/4/88
f 338/4/88 335/4/88 336/4/88
f 343/4/89 342/4/89 337/4/89
f 337/4/89 339/4/89 343/4/89
f 347/4/90 346/4/90 341/4/90
f 341/4/90 340/4/90 347/4/90
f 344/4/91 334/4/91 345/4/91
f 334/4/91 344/4/91 332/4/91
f 348/4/84 349/4/84 350/4/84
f 349/4/84 348/4/84 351/4/84
f 352/4/85 353/4/85 354/4/85
f 353/4/85 352/4/85 355/4/85
f 356/4/86 357/4/86 358/4/86
f 358/4/86 359/4/86 356/4/86
f 360/4/87 361/4/87 362/4/87
f 362/4/87 363/4/87 360/4/87
f 351/4/88 354/4/88 349/4/88
f 354/4/88 351/4/88 352/4/88
f 359/4/89 358/4/89 353/4/89
f 353/4/89 355/4/89 359/4/89
f 363/4/90 362/4/90 357/4/90
f 357/4/90 356/4/90 363/4/90
f 360/4/91 350/4/91 361/4/91
f 350/4/91 360/4/91 348/4/91
f 364/4/63 319/4/63 316/4/63
f 319/4/63 364/4/63 365/4/63
f 366/4/63 316/4/63 328/4/63
f 316/4/63 366/4/63 364/4/63
f 367/4/63 359/4/63 355/4/63
f 359/4/63 367/4/63 368/4/63
f 369/4/63 336/4/63 335/4/63
f 336/4/63 369/4/63 370/4/63
f 371/4/63 328/4/63 331/4/63
f 328/4/63 371/4/63 366/4/63
f 372/4/63 355/4/63 352/4/63
f 355/4/63 372/4/63 367/4/63
f 373/4/63 335/4/63 332/4/63
f 335/4/63 373/4/63 369/4/63
f 374/4/63 332/4/63 344/4/63
f 332/4/63 374/4/63 373/4/63
f 375/4/63 331/4/63 324/4/63
f 331/4/63 375/4/63 371/4/63
f 376/4/63 352/4/63 351/4/63
f 352/4/63 376/4/63 372/4/63
f 377/4/63 344/4/63 347/4/63
f 344/4/63 377/4/63 374/4/63
f 378/4/63 324/4/63 327/4/63
f 324/4/63 378/4/63 375/4/63
f 379/4/63 351/4/63 348/4/63
f 351/4/63 379/4/63 376/4/63
f 380/4/63 348/4/63 360/4/63
f 348/4/63 380/4/63 379/4/63
f 381/4/63 347/4/63 340/4/63
f 347/4/63 381/4/63 377/4/63
f 382/4/63 327/4/63 323/4/63
f 327/4/63 382/4/63 378/4/63
f 383/4/63 360/4/63 363/4/63
f 360/4/63 383/4/63 380/4/63
f 384/4/63 340/4/63 343/4/63
f 340/4/63 384/4/63 381/4/63
f 385/4/63 323/4/63 320/4/63
f 323/4/63 385/4/63 382/4/63
f 386/4/63 363/4/63 356/4/63
f 363/4/63 386/4/63 383/4/63
f 387/4/63 343/4/63 339/4/63
f 343/4/63 387/4/63 384/4/63
f 365/4/63 320/4/63 319/4/63
f 320/4/63 365/4/63 385/4/63
f 368/4/63 356/4/63 359/4/63
f 356/4/63 368/4/63 386/4/63
f 370/4/63 339/4/63 336/4/63
f 339/4/63 370/4/63 387/4/63
f 388/4/98 389/4/98 390/4/98
f 390/4/98 391/4/98 388/4/98
f 392/4/98 393/4/98 394/4/98
f 394/4/98 395/4/98 392/4/98
f 396/4/103 397/4/103 398/4/103
f 398/4/103 399/4/103 396/4/103
f 391/4/98 390/4/98 400/4/98
f 400/4/98 401/4/98 391/4/98
f 395/4/103 394/4/103 402/4/103
f 402/4/103 403/4/103 395/4/103
f 399/4/102 398/4/102 404/4/102
f 404/4/102 405/4/102 399/4/102
f 401/4/103 400/4/103 406/4/103
f 406/4/103 407/4/103 401/4/103
f 403/4/102 402/4/102 408/4/102
f 408/4/102 409/4/102 403/4/102
f 410/4/101 404/4/101 411/4/101
f 404/4/101 410/4/101 405/4/101
f 407/4/102 406/4/102 412/4/102
f 412/4/102 413/4/102 407/4/102
f 414/4/101 408/4/101 415/4/101
f 408/4/101 414/4/101 409/4/101
f 416/4/101 411/4/101 417/4/101
f 411/4/101 416/4/101 410/4/101
f 418/4/101 412/4/101 419/4/101
f 412/4/101 418/4/101 413/4/101
f 420/4/101 415/4/101 421/4/101
f 415/4/101 420/4/101 414/4/101
f 422/4/100 417/4/100 423/4/100
f 417/4/100 422/4/100 416/4/100
f 424/4/101 419/4/101 425/4/101
f 419/4/101 424/4/101 418/4/101
f 426/4/99 423/4/99 427/4/99
f 423/4/99 426/4/99 422/4/99
f 428/4/100 421/4/100 429/4/100
f 421/4/100 428/4/100 420/4/100
f 430/4/99 429/4/99 431/4/99
f 429/4/99 430/4/99 428/4/99
f 432/4/100 425/4/100 433/4/100
f 425/4/100 432/4/100 424/4/100
f 426/4/98 427/4/98 434/4/98
f 434/4/98 435/4/98 426/4/98
f 388/4/99 433/4/99 389/4/99
f 433/4/99 388/4/99 432/4/99
f 430/4/98 431/4/98 393/4/98
f 393/4/98 392/4/98 430/4/98
f 435/4/98 434/4/98 397/4/98
f 397/4/98 396/4/98 435/4/98
f 410/4/62 416/4/62 436/4/62
f 413/4/62 418/4/62 437/4/62
f 414/4/62 420/4/62 438/4/62
f 416/4/62 422/4/62 436/4/62
f 418/4/62 424/4/62 437/4/62
f 422/4/62 426/4/62 436/4/62
f 420/4/62 428/4/62 438/4/62
f 428/4/62 430/4/62 438/4/62
f 424/4/62 432/4/62 437/4/62
f 426/4/62 435/4/62 436/4/62
f 432/4/62 388/4/62 437/4/62
f 430/4/62 392/4/62 438/4/62
f 435/4/62 396/4/62 436/4/62
f 388/4/62 391/4/62 437/4/62
f 392/4/62 395/4/62 438/4/62
f 396/4/62 399/4/62 436/4/62
f 391/4/62 401/4/62 437/4/62
f 395/4/62 403/4/62 438/4/62
f 399/4/62 405/4/62 436/4/62
f 401/4/62 407/4/62 437/4/62
f 403/4/62 409/4/62 438/4/62
f 405/4/62 410/4/62 436/4/62
f 407/4/62 413/4/62 437/4/62
f 409/4/62 414/4/62 438/4/62
f 431/4/92 374/4/92 377/4/92
f 377/4/92 393/4/92 431/4/92
f 431/4/97 373/4/97 374/4/97
f 373/4/97 431/4/97 429/4/97
f 429/4/96 369/4/96 373/4/96
f 369/4/96 429/4/96 421/4/96
f 421/4/95 370/4/95 369/4/95
f 370/4/95 421/4/95 415/4/95
f 415/4/95 387/4/95 370/4/95
f 387/4/95 415/4/95 408/4/95
f 402/4/94 384/4/94 387/4/94
f 387/4/94 408/4/94 402/4/94
f 394/4/93 381/4/93 384/4/93
f 384/4/93 402/4/93 394/4/93
f 393/4/92 377/4/92 381/4/92
f 381/4/92 394/4/92 393/4/92
f 389/4/97 379/4/97 380/4/97
f 379/4/97 389/4/97 433/4/97
f 433/4/96 376/4/96 379/4/96
f 376/4/96 433/4/96 425/4/96
f 425/4/95 372/4/95 376/4/95
f 372/4/95 425/4/95 419/4/95
f 419/4/95 367/4/95 372/4/95
f 367/4/95 419/4/95 412/4/95
f 406/4/94 368/4/94 367/4/94
f 367/4/94 412/4/94 406/4/94
f 400/4/93 386/4/93 368/4/93
f 368/4/93 406/4/93 400/4/93
f 390/4/92 383/4/92 386/4/92
f 386/4/92 400/4/92 390/4/92
f 389/4/92 380/4/92 383/4/92
f 383/4/92 390/4/92 389/4/92
f 434/4/92 371/4/92 375/4/92
f 375/4/92 397/4/92 434/4/92
f 427/4/92 366/4/92 371/4/92
f 371/4/92 434/4/92 427/4/92
f 427/4/97 364/4/97 366/4/97
f 364/4/97 427/4/97 423/4/97
f 423/4/96 365/4/96 364/4/96
f 365/4/96 423/4/96 417/4/96
f 417/4/95 385/4/95 365/4/95
f 385/4/95 417/4/95 411/4/95
f 411/4/95 382/4/95 385/4/95
f 382/4/95 411/4/95 404/4/95
f 398/4/94 378/4/94 382/4/94
f 382/4/94 404/4/94 398/4/94
f 397/4/93 375/4/93 378/4/93
f 378/4/93 398/4/93 397/4/93
f 123/2/104 439/2/104 124/2/104
f 439/2/104 123/2/104 440/2/104
f 441/2/105 442/2/105 443/2/105
f 442/2/105 441/2/105 444/2/105
f 445/2/62 439/2/62 446/2/62
f 446/2/62 447/2/62 445/2/62
f 448/2/106 443/2/106 449/2/106
f 443/2/106 448/2/106 441/2/106
f 442/2/107 440/2/107 449/2/107
f 449/2/107 443/2/107 442/2/107
f 448/2/108 444/2/108 441/2/108
f 444/2/108 448/2/108 450/2/108
f 450/2/109 447/2/109 444/2/109
f 447/2/109 450/2/109 445/2/109
f 444/2/105 446/2/105 442/2/105
f 446/2/105 444/2/105 447/2/105
f 439/2/110 445/2/110 130/2/110
f 130/2/110 124/2/110 439/2/110
f 133/2/111 449/2/111 131/2/111
f 449/2/111 133/2/111 448/2/111
f 128/2/112 448/2/112 133/2/112
f 448/2/112 128/2/112 450/2/112
f 130/2/113 450/2/113 128/2/113
f 450/2/113 130/2/113 445/2/113
f 131/2/104 440/2/104 123/2/104
f 440/2/104 131/2/104 449/2/104
f 451/2/114 452/2/114 453/2/114
f 453/2/114 454/2/114 451/2/114
f 452/2/114 455/2/114 456/2/114
f 456/2/114 453/2/114 452/2/114
f 457/2/105 458/2/105 459/2/105
f 458/2/105 457/2/105 460/2/105
f 460/2/105 461/2/105 458/2/105
f 461/2/105 460/2/105 462/2/105
f 452/2/115 451/2/115 459/2/115
f 459/2/115 458/2/115 452/2/115
f 457/2/116 453/2/116 460/2/116
f 453/2/116 457/2/116 454/2/116
f 456/2/117 455/2/117 461/2/117
f 461/2/117 462/2/117 456/2/117
f 460/2/118 456/2/118 462/2/118
f 456/2/118 460/2/118 453/2/118
f 459/2/119 454/2/119 457/2/119
f 454/2/119 459/2/119 451/2/119
f 455/2/115 452/2/115 458/2/115
f 458/2/115 461/2/115 455/2/115
f 463/2/120 464/2/120 465/2/120
f 465/2/120 466/2/120 463/2/120
f 467/2/121 463/2/121 466/2/121
f 466/2/121 468/2/121 467/2/121
f 469/2/122 467/2/122 468/2/122
f 468/2/122 470/2/122 469/2/122
f 471/2/123 472/2/123 473/2/123
f 472/2/123 471/2/123 474/2/123
f 475/2/124 473/2/124 476/2/124
f 473/2/124 475/2/124 471/2/124
f 477/2/125 476/2/125 478/2/125
f 476/2/125 477/2/125 475/2/125
f 476/2/1 479/2/1 480/2/1
f 479/2/1 476/2/1 473/2/1
f 473/2/1 481/2/1 479/2/1
f 481/2/1 473/2/1 472/2/1
f 477/2/126 482/2/126 483/2/126
f 483/2/126 475/2/126 477/2/126
f 471/2/127 484/2/127 485/2/127
f 485/2/127 474/2/127 471/2/127
f 477/2/128 486/2/128 482/2/128
f 486/2/128 477/2/128 478/2/128
f 478/2/1 480/2/1 486/2/1
f 480/2/1 478/2/1 476/2/1
f 475/2/129 483/2/129 484/2/129
f 484/2/129 471/2/129 475/2/129
f 474/2/130 485/2/130 481/2/130
f 481/2/130 472/2/130 474/2/130
f 485/2/131 465/2/131 464/2/131
f 464/2/131 481/2/131 485/2/131
f 483/2/132 468/2/132 466/2/132
f 466/2/132 484/2/132 483/2/132
f 486/2/1 467/2/1 469/2/1
f 467/2/1 486/2/1 480/2/1
f 482/2/133 469/2/133 470/2/133
f 469/2/133 482/2/133 486/2/133
f 484/2/134 466/2/134 465/2/134
f 465/2/134 485/2/134 484/2/134
f 482/2/135 470/2/135 468/2/135
f 468/2/135 483/2/135 482/2/135
f 479/2/1 464/2/1 463/2/1
f 464/2/1 479/2/1 481/2/1
f 480/2/1 463/2/1 467/2/1
f 463/2/1 480/2/1 479/2/1
f 487/2/1 488/2/1 489/2/1
f 490/2/136 174/2/136 491/2/136
f 174/2/136 490/2/136 175/2/136
f 487/2/137 189/2/137 488/2/137
f 189/2/137 487/2/137 187/2/137
f 492/2/138 42/2/138 493/2/138
f 42/2/138 492/2/138 40/2/138
f 191/2/139 39/2/139 494/2/139
f 494/2/139 495/2/139 191/2/139
f 493/2/140 181/2/140 496/2/140
f 181/2/140 493/2/140 42/2/140
f 12/2/141 11/2/141 497/2/141
f 497/2/141 498/2/141 12/2/141
f 184/2/142 182/2/142 499/2/142
f 499/2/142 500/2/142 184/2/142
f 494/2/143 38/2/143 501/2/143
f 38/2/143 494/2/143 39/2/143
f 11/2/144 187/2/144 487/2/144
f 487/2/144 497/2/144 11/2/144
f 41/2/145 40/2/145 492/2/145
f 492/2/145 502/2/145 41/2/145
f 503/2/1 500/2/1 499/2/1
f 493/2/1 496/2/1 495/2/1
f 504/2/1 505/2/1 506/2/1
f 491/2/1 497/2/1 490/2/1
f 497/2/1 491/2/1 498/2/1
f 503/2/1 498/2/1 491/2/1
f 498/2/1 503/2/1 499/2/1
f 487/2/1 490/2/1 497/2/1
f 490/2/1 487/2/1 489/2/1
f 493/2/1 494/2/1 492/2/1
f 494/2/1 493/2/1 495/2/1
f 504/2/1 502/2/1 501/2/1
f 502/2/1 504/2/1 506/2/1
f 501/2/1 492/2/1 494/2/1
f 492/2/1 501/2/1 502/2/1
f 496/2/146 191/2/146 495/2/146
f 191/2/146 496/2/146 181/2/146
f 182/2/147 12/2/147 498/2/147
f 498/2/147 499/2/147 182/2/147
f 192/2/148 8/2/148 505/2/148
f 505/2/148 504/2/148 192/2/148
f 5/2/149 41/2/149 502/2/149
f 502/2/149 506/2/149 5/2/149
f 488/2/150 190/2/150 489/2/150
f 190/2/150 488/2/150 189/2/150
f 491/2/151 173/2/151 503/2/151
f 173/2/151 491/2/151 174/2/151
f 501/2/152 192/2/152 504/2/152
f 192/2/152 501/2/152 38/2/152
f 173/2/153 184/2/153 500/2/153
f 500/2/153 503/2/153 173/2/153
f 489/2/154 175/2/154 490/2/154
f 175/2/154 489/2/154 190/2/154
f 8/2/155 5/2/155 506/2/155
f 506/2/155 505/2/155 8/2/155
f 446/2/107 439/2/107 440/2/107
f 440/2/107 442/2/107 446/2/107
f 507/3/63 508/3/63 509/3/63
f 508/3/63 507/3/63 510/3/63
f 511/3/63 512/3/63 513/3/63
f 512/3/63 511/3/63 514/3/63
f 515/3/105 516/3/105 517/3/105
f 516/3/105 515/3/105 518/3/105
f 519/3/62 520/3/62 516/3/62
f 516/3/62 518/3/62 519/3/62
f 521/3/156 522/3/156 523/3/156
f 522/3/156 521/3/156 524/3/156
f 510/3/114 525/3/114 524/3/114
f 524/3/114 508/3/114 510/3/114
f 520/3/2 526/3/2 517/3/2
f 517/3/2 516/3/2 520/3/2
f 526/3/2 514/3/2 511/3/2
f 511/3/2 517/3/2 526/3/2
f 509/3/157 524/3/157 521/3/157
f 524/3/157 509/3/157 508/3/157
f 514/3/114 526/3/114 527/3/114
f 527/3/114 512/3/114 514/3/114
f 525/3/114 528/3/114 522/3/114
f 522/3/114 524/3/114 525/3/114
f 513/3/105 517/3/105 511/3/105
f 517/3/105 513/3/105 515/3/105
f 509/3/105 529/3/105 507/3/105
f 529/3/105 509/3/105 521/3/105
f 522/3/62 528/3/62 530/3/62
f 530/3/62 523/3/62 522/3/62
f 521/3/105 530/3/105 529/3/105
f 530/3/105 521/3/105 523/3/105
f 531/3/158 512/3/158 532/3/158
f 512/3/158 531/3/158 513/3/158
f 507/3/159 532/3/159 510/3/159
f 532/3/159 507/3/159 531/3/159
f 530/3/160 528/3/160 533/3/160
f 533/3/160 534/3/160 530/3/160
f 534/3/161 533/3/161 519/3/161
f 519/3/161 518/3/161 534/3/161
f 535/3/105 530/3/105 534/3/105
f 530/3/105 535/3/105 529/3/105
f 515/3/105 534/3/105 518/3/105
f 534/3/105 515/3/105 535/3/105
f 531/3/105 529/3/105 535/3/105
f 529/3/105 531/3/105 507/3/105
f 513/3/105 535/3/105 515/3/105
f 535/3/105 513/3/105 531/3/105
f 528/3/114 525/3/114 536/3/114
f 536/3/114 533/3/114 528/3/114
f 533/3/114 536/3/114 527/3/114
f 527/3/114 519/3/114 533/3/114
f 525/3/114 510/3/114 532/3/114
f 532/3/114 536/3/114 525/3/114
f 536/3/114 532/3/114 512/3/114
f 512/3/114 527/3/114 536/3/114
f 526/3/114 520/3/114 519/3/114
f 519/3/114 527/3/114 526/3/114
