# Generated by tools/make-block-meshes.py -- edit that, not this.
# Saxophone by jeremy, CC-BY 3.0, from https://poly.pizza/m/6A2UAKdCNy7
v -0.24505 -0.00000 -0.53517
v -0.24505 -0.00000 -0.32118
v -0.27874 -0.08132 -0.32118
v -0.27874 -0.08132 -0.53517
v -0.44138 -0.08132 -0.53517
v -0.36006 -0.11500 -0.32118
v -0.44138 -0.08132 -0.32118
v -0.36006 -0.11500 -0.53517
v -0.44138 0.08132 -0.53517
v -0.47506 -0.00000 -0.32118
v -0.44138 0.08132 -0.32118
v -0.47506 -0.00000 -0.53517
v -0.27874 0.08132 -0.53517
v -0.27874 0.08132 -0.32118
v -0.36006 0.11500 -0.32118
v -0.36006 0.11500 -0.53517
v -0.27176 0.08132 -0.56878
v -0.24230 -0.00000 -0.55246
v -0.34291 -0.11500 -0.60817
v -0.27176 -0.08132 -0.56878
v -0.44352 -0.00000 -0.66387
v -0.41405 -0.08132 -0.64756
v -0.41405 0.08132 -0.64756
v -0.34291 0.11500 -0.60817
v -0.30925 -0.08132 -0.74300
v -0.27109 -0.11500 -0.67119
v -0.32506 -0.00000 -0.77275
v -0.30925 0.08132 -0.74300
v -0.21712 -0.00000 -0.56964
v -0.23293 0.08132 -0.59938
v -0.23293 -0.08132 -0.59938
v -0.27109 0.11500 -0.67119
v -0.19722 0.11500 -0.68526
v -0.20274 0.08132 -0.60413
v -0.20274 -0.08132 -0.60413
v -0.20503 -0.00000 -0.57052
v -0.19170 -0.08132 -0.76639
v -0.19722 -0.11500 -0.68526
v -0.18941 -0.00000 -0.80000
v -0.19170 0.08132 -0.76639
v -0.12071 -0.11500 -0.65272
v -0.17239 -0.08132 -0.58994
v -0.06903 -0.08132 -0.71551
v -0.04762 -0.00000 -0.74151
v -0.06903 0.08132 -0.71551
v -0.12071 0.11500 -0.65272
v -0.17239 0.08132 -0.58994
v -0.19380 -0.00000 -0.56393
v -0.19024 -0.00000 -0.55656
v -0.15828 0.08132 -0.56721
v -0.08113 -0.11500 -0.59292
v -0.15828 -0.08132 -0.56721
v -0.00399 -0.08132 -0.61863
v 0.02797 -0.00000 -0.62928
v -0.00399 0.08132 -0.61863
v -0.08113 0.11500 -0.59292
v -0.15630 -0.08132 -0.52424
v -0.18998 -0.00000 -0.52420
v 0.00634 -0.08132 -0.52442
v -0.07498 -0.11500 -0.52433
v 0.04002 -0.00000 -0.52446
v 0.00634 0.08132 -0.52442
v -0.15630 0.08132 -0.52424
v -0.07498 0.11500 -0.52433
v -0.27874 -0.08132 -0.13738
v -0.24505 -0.00000 -0.13738
v -0.36006 -0.11500 -0.13738
v -0.44138 -0.08132 -0.13738
v -0.47506 -0.00000 -0.13738
v -0.44138 0.08132 -0.13738
v -0.27874 0.08132 -0.13738
v -0.36006 0.11500 -0.13738
v -0.24645 -0.00000 -0.00646
v -0.28281 0.09442 -0.02086
v -0.28281 -0.09442 -0.02086
v -0.37061 -0.13353 -0.05560
v -0.45841 -0.09442 -0.09034
v -0.49477 -0.00000 -0.10473
v -0.37061 0.13353 -0.05560
v -0.45840 0.09442 -0.09034
v 0.00634 0.08132 -0.27672
v -0.07498 0.11500 -0.27663
v -0.15630 0.08132 -0.27654
v -0.15630 -0.08132 -0.27654
v -0.18998 -0.00000 -0.27650
v 0.00634 -0.08132 -0.27672
v -0.07498 -0.11500 -0.27663
v 0.04002 -0.00000 -0.27676
v -0.50224 0.13421 -0.08340
v -0.55393 -0.00000 -0.10386
v -0.20097 -0.00000 0.03582
v -0.25266 0.13421 0.01536
v -0.37745 -0.18980 -0.03402
v -0.25266 -0.13421 0.01536
v -0.50224 -0.13421 -0.08340
v -0.37745 0.18980 -0.03402
v -0.05218 0.09111 0.61388
v -0.11661 0.06442 0.61395
v -0.11661 -0.06442 0.61395
v -0.14329 -0.00000 0.61398
v 0.01224 -0.06442 0.61381
v -0.05218 -0.09111 0.61388
v 0.03892 -0.00000 0.61378
v 0.01224 0.06442 0.61381
v -0.05082 -0.00000 0.76694
v -0.03583 0.04961 0.75287
v 0.00033 -0.07016 0.71892
v -0.03583 -0.04961 0.75287
v 0.03650 -0.04961 0.68496
v 0.05148 -0.00000 0.67089
v 0.03650 0.04961 0.68496
v 0.00033 0.07016 0.71892
v 0.07319 -0.04337 0.69530
v 0.07328 -0.06133 0.73867
v 0.07316 -0.00000 0.67734
v 0.07319 0.04337 0.69530
v 0.07339 -0.00000 0.80000
v 0.07336 0.04337 0.78204
v 0.07336 -0.04337 0.78204
v 0.07328 0.06133 0.73867
v 0.13254 0.06133 0.72347
v 0.15807 0.04337 0.75853
v 0.15807 -0.04337 0.75853
v 0.16864 -0.00000 0.77306
v 0.10702 -0.04337 0.68842
v 0.13254 -0.06133 0.72347
v 0.09645 -0.00000 0.67389
v 0.10702 0.04337 0.68842
v 0.24196 -0.05154 0.58215
v 0.26738 -0.03644 0.60826
v 0.20600 -0.00000 0.54522
v 0.21653 -0.03644 0.55604
v 0.21653 0.03644 0.55604
v 0.24196 0.05154 0.58215
v 0.26738 0.03644 0.60826
v 0.27791 -0.00000 0.61908
v 0.32414 -0.00000 0.58039
v 0.32143 0.03223 0.56731
v 0.31490 -0.04558 0.53576
v 0.32143 -0.03223 0.56731
v 0.30837 -0.03223 0.50420
v 0.30566 -0.00000 0.49113
v 0.30837 0.03223 0.50420
v 0.31490 0.04558 0.53576
v 0.43288 -0.02625 0.53246
v 0.43279 -0.00000 0.54334
v 0.43331 -0.02625 0.47996
v 0.43309 -0.03713 0.50621
v 0.43340 -0.00000 0.46908
v 0.43331 0.02625 0.47996
v 0.43288 0.02625 0.53246
v 0.43309 0.03713 0.50621
v -0.55773 -0.00000 -0.09373
v -0.50604 -0.13421 -0.07327
v -0.50604 0.13421 -0.07327
v -0.38125 0.18980 -0.02389
v -0.25646 0.13421 0.02550
v -0.20477 -0.00000 0.04595
v -0.25646 -0.13421 0.02550
v -0.38125 -0.18980 -0.02389
v -0.38125 -0.11884 -0.04391
v -0.30311 -0.08403 -0.01299
v -0.49175 -0.00000 -0.08764
v -0.45938 -0.08403 -0.07483
v -0.38125 0.11884 -0.04391
v -0.45938 0.08403 -0.07483
v -0.30311 0.08403 -0.01299
v -0.27075 -0.00000 -0.00018
v -0.18166 0.04859 -0.28864
v -0.18166 -0.00000 -0.28864
v -0.18166 0.03436 -0.32301
v -0.18166 -0.00000 -0.33724
v -0.18166 -0.03436 -0.32301
v -0.18166 -0.04860 -0.28864
v -0.18166 -0.03436 -0.25428
v -0.18166 -0.00000 -0.24005
v -0.18166 0.03436 -0.25428
v -0.19593 0.04859 -0.28864
v -0.19593 0.03436 -0.32301
v -0.19593 -0.00000 -0.28864
v -0.19593 -0.00000 -0.33724
v -0.19593 -0.03436 -0.32301
v -0.19593 -0.04860 -0.28864
v -0.19593 -0.03436 -0.25428
v -0.19593 -0.00000 -0.24005
v -0.19593 0.03436 -0.25428
v -0.18610 0.04473 -0.30164
v -0.18610 0.05011 -0.28864
v -0.18199 0.04473 -0.14425
v -0.18140 0.05011 -0.13126
v -0.17697 0.04859 -0.13146
v -0.17852 0.03436 -0.16579
v -0.17697 -0.00000 -0.13146
v -0.17916 -0.00000 -0.18001
v -0.17852 -0.03436 -0.16579
v -0.17697 -0.04860 -0.13146
v -0.17543 -0.03436 -0.09713
v -0.17479 -0.00000 -0.08292
v -0.17543 0.03436 -0.09713
v -0.19123 0.04859 -0.13082
v -0.19277 0.03436 -0.16515
v -0.19123 -0.00000 -0.13082
v -0.19341 -0.00000 -0.17937
v -0.19277 -0.03436 -0.16515
v -0.19123 -0.04860 -0.13082
v -0.18968 -0.03436 -0.09649
v -0.18904 -0.00000 -0.08227
v -0.18968 0.03436 -0.09649
v -0.17297 0.04473 0.01587
v -0.17238 0.05011 0.02886
v -0.16795 0.04859 0.02866
v -0.16950 0.03436 -0.00567
v -0.16395 0.04473 0.19629
v -0.16336 0.05011 0.20928
v -0.15893 0.04859 0.20908
v -0.16048 0.03436 0.17475
v -0.16795 -0.00000 0.02866
v -0.17014 -0.00000 -0.01989
v -0.16950 -0.03436 -0.00567
v -0.16795 -0.04860 0.02866
v -0.16641 -0.03436 0.06299
v -0.16577 -0.00000 0.07720
v -0.16641 0.03436 0.06299
v -0.18221 0.04859 0.02930
v -0.18375 0.03436 -0.00503
v -0.18221 -0.00000 0.02930
v -0.18439 -0.00000 -0.01925
v -0.18375 -0.03436 -0.00503
v -0.18221 -0.04860 0.02930
v -0.18066 -0.03436 0.06363
v -0.18002 -0.00000 0.07785
v -0.18066 0.03436 0.06363
v -0.15177 0.04473 0.39655
v -0.15118 0.05011 0.40954
v -0.14675 0.04859 0.40934
v -0.14830 0.03436 0.37501
v -0.19150 0.04473 -0.30164
v -0.15893 -0.00000 0.20908
v -0.16112 -0.00000 0.16053
v -0.16048 -0.03436 0.17475
v -0.15893 -0.04860 0.20908
v -0.15739 -0.03436 0.24340
v -0.15675 -0.00000 0.25762
v -0.15739 0.03436 0.24340
v -0.17318 0.04859 0.20972
v -0.17473 0.03436 0.17539
v -0.17318 -0.00000 0.20972
v -0.17537 -0.00000 0.16117
v -0.17473 -0.03436 0.17539
v -0.17318 -0.04860 0.20972
v -0.17164 -0.03436 0.24404
v -0.17100 -0.00000 0.25826
v -0.17164 0.03436 0.24404
v -0.18738 0.04473 -0.14400
v -0.17836 0.04473 0.01612
v -0.14675 -0.00000 0.40934
v -0.14894 -0.00000 0.36079
v -0.14830 -0.03436 0.37501
v -0.14675 -0.04860 0.40934
v -0.14521 -0.03436 0.44367
v -0.14457 -0.00000 0.45788
v -0.14521 0.03436 0.44367
v -0.16101 0.04859 0.40998
v -0.16255 0.03436 0.37565
v -0.16101 -0.00000 0.40998
v -0.16319 -0.00000 0.36143
v -0.16255 -0.03436 0.37565
v -0.16101 -0.04860 0.40998
v -0.15946 -0.03436 0.44431
v -0.15882 -0.00000 0.45853
v -0.15946 0.03436 0.44431
v -0.16934 0.04473 0.19653
v -0.15716 0.04473 0.39680
v -0.16817 0.04473 0.22250
v -0.16875 0.05845 0.20952
v -0.16875 0.05011 0.20952
v -0.16817 0.05845 0.22250
v -0.18621 0.04473 -0.11803
v -0.18680 0.05845 -0.13102
v -0.18680 0.05011 -0.13102
v -0.18621 0.05845 -0.11803
v -0.16395 0.05845 0.19629
v -0.16336 0.05845 0.20928
v -0.18199 0.05845 -0.14425
v -0.18140 0.05845 -0.13126
v -0.16278 0.05845 0.22226
v -0.16278 0.04473 0.22226
v -0.15060 0.04473 0.42252
v -0.15599 0.05845 0.42277
v -0.15599 0.04473 0.42277
v -0.15060 0.05845 0.42252
v -0.18082 0.05845 -0.11828
v -0.18082 0.04473 -0.11828
v -0.17180 0.04473 0.04184
v -0.17719 0.05845 0.04209
v -0.17719 0.04473 0.04209
v -0.17180 0.05845 0.04184
v -0.18610 0.04473 -0.27565
v -0.19150 0.05845 -0.27565
v -0.19150 0.04473 -0.27565
v -0.18610 0.05845 -0.27565
v -0.15716 0.05845 0.39680
v -0.15177 0.05845 0.39655
v -0.15658 0.05011 0.40978
v -0.17777 0.05011 0.02910
v -0.19150 0.05011 -0.28864
v -0.17025 0.07073 0.02910
v -0.17777 0.05845 0.02910
v -0.16974 0.07044 0.04209
v -0.14487 0.06836 0.39655
v -0.14436 0.06808 0.40954
v -0.15118 0.05845 0.40954
v -0.18397 0.07073 -0.28864
v -0.19150 0.05845 -0.28864
v -0.18397 0.07073 -0.27565
v -0.16607 0.06836 0.01587
v -0.16556 0.06808 0.02886
v -0.17238 0.05845 0.02886
v -0.17297 0.05845 0.01587
v -0.14385 0.06779 0.42252
v -0.17927 0.06807 -0.30164
v -0.17927 0.06807 -0.28864
v -0.18610 0.05845 -0.28864
v -0.18610 0.05845 -0.30164
v -0.16505 0.06779 0.04184
v -0.16072 0.07044 0.22250
v -0.15603 0.06779 0.22226
v -0.17927 0.06807 -0.27565
v -0.17876 0.07044 -0.11803
v -0.17407 0.06779 -0.11828
v -0.18738 0.05845 -0.14400
v -0.16934 0.05845 0.19653
v -0.19150 0.05845 -0.30164
v -0.15658 0.05845 0.40978
v -0.17836 0.05845 0.01612
v -0.15828 0.08400 -0.13102
v -0.15843 0.08457 -0.14400
v -0.17978 0.07102 -0.14400
v -0.17927 0.07073 -0.13102
v -0.14009 0.08344 0.22250
v -0.14024 0.08400 0.20952
v -0.16123 0.07073 0.20952
v -0.15813 0.08344 -0.11803
v -0.15704 0.06836 0.19629
v -0.13889 0.07878 0.20928
v -0.15654 0.06808 0.20928
v -0.13904 0.07935 0.19629
v -0.17509 0.06836 -0.14425
v -0.15693 0.07878 -0.13126
v -0.17458 0.06808 -0.13126
v -0.15708 0.07935 -0.14425
v -0.13874 0.07822 0.22226
v -0.12791 0.08344 0.42277
v -0.14854 0.07044 0.42277
v -0.12656 0.07822 0.42252
v -0.15678 0.07822 -0.11828
v -0.14911 0.08344 0.04209
v -0.14776 0.07822 0.04184
v -0.16298 0.08401 -0.27565
v -0.16163 0.07878 -0.27565
v -0.18397 0.07073 -0.30164
v -0.14905 0.07073 0.40978
v -0.17076 0.07102 0.01612
v -0.14956 0.07102 0.39680
v -0.16174 0.07102 0.19653
v -0.12020 0.09305 0.04209
v -0.12043 0.09359 0.02910
v -0.14926 0.08400 0.02910
v -0.12686 0.07935 0.39655
v -0.10018 0.08862 0.40954
v -0.12671 0.07878 0.40954
v -0.10040 0.08915 0.39655
v -0.13340 0.09359 -0.27565
v -0.13340 0.09359 -0.28864
v -0.16298 0.08401 -0.28864
v -0.14806 0.07935 0.01587
v -0.11835 0.08862 0.02886
v -0.14791 0.07878 0.02886
v -0.11857 0.08915 0.01587
v -0.09995 0.08808 0.42252
v -0.16163 0.07878 -0.30164
v -0.13132 0.08861 -0.28864
v -0.16163 0.07878 -0.28864
v -0.13132 0.08861 -0.30164
v -0.11812 0.08808 0.04184
v -0.11421 0.09305 0.22250
v -0.11213 0.08808 0.22226
v -0.13132 0.08861 -0.27565
v -0.12659 0.09305 -0.11803
v -0.12451 0.08808 -0.11828
v -0.14038 0.08457 0.19653
v -0.16298 0.08401 -0.30164
v -0.12806 0.08400 0.40978
v -0.14941 0.08457 0.01612
v -0.12821 0.08457 0.39680
v -0.13340 0.09359 -0.30164
v -0.12704 0.09413 -0.14400
v -0.12681 0.09359 -0.13102
v -0.12473 0.08862 -0.13126
v -0.12496 0.08915 -0.14425
v -0.12065 0.09413 0.01612
v -0.11466 0.09413 0.19653
v -0.11444 0.09359 0.20952
v -0.11236 0.08862 0.20928
v -0.11258 0.08915 0.19629
v -0.10248 0.09413 0.39680
v -0.10226 0.09359 0.40978
v -0.10203 0.09305 0.42277
v -0.10177 0.08271 0.44987
v -0.13335 0.09004 -0.30962
v -0.12747 0.08760 -0.31002
v -0.10766 0.08516 0.45028
v -0.09589 0.08516 0.44947
v -0.12158 0.09004 -0.31043
v -0.11914 0.09595 -0.31060
v -0.09345 0.09106 0.44930
v -0.09589 0.09696 0.44947
v -0.12158 0.10185 -0.31043
v -0.12747 0.10429 -0.31002
v -0.10177 0.09941 0.44987
v -0.13335 0.10185 -0.30962
v -0.10766 0.09696 0.45028
v -0.13579 0.09595 -0.30945
v -0.11010 0.09106 0.45045
v -0.10177 0.09106 0.44987
v -0.12747 0.09595 -0.31002
v 0.45092 0.05688 0.50387
v 0.45125 0.04022 0.46365
v 0.45059 0.04022 0.54409
v 0.45059 -0.04022 0.54409
v 0.45045 -0.00000 0.56075
v 0.45125 -0.04022 0.46365
v 0.45092 -0.05688 0.50387
v 0.45139 -0.00000 0.44699
v 0.53715 0.01201 0.53038
v 0.55728 -0.00000 0.52633
v 0.55735 0.01931 0.52163
v 0.53711 -0.00000 0.53329
v 0.55751 -0.02731 0.51031
v 0.55735 -0.01931 0.52163
v 0.55766 -0.01931 0.49898
v 0.55773 -0.00000 0.49429
v 0.55766 0.01931 0.49898
v 0.55751 0.02731 0.51031
v 0.47068 -0.00000 0.55470
v 0.47077 0.02501 0.54434
v 0.55741 0.01158 0.51710
v 0.55737 -0.00000 0.51992
v 0.55764 -0.00000 0.50070
v 0.55760 0.01158 0.50351
v 0.53715 -0.01201 0.53038
v 0.47077 -0.02501 0.54434
v 0.55741 -0.01158 0.51710
v 0.55751 -0.01638 0.51031
v 0.55760 -0.01158 0.50351
v 0.55751 0.01638 0.51031
v 0.54225 0.01158 0.51710
v 0.54234 0.01638 0.51031
v 0.54221 -0.00000 0.51992
v 0.54225 -0.01158 0.51710
v 0.54234 -0.01638 0.51031
v 0.54244 -0.01158 0.50351
v 0.54244 0.01158 0.50351
v 0.54248 -0.00000 0.50070
v 0.47077 0.02501 0.52715
v 0.53715 0.01201 0.52715
v 0.53711 -0.00000 0.52715
v 0.47068 -0.00000 0.52715
v 0.47077 -0.02501 0.52715
v 0.53715 -0.01201 0.52715
v 0.50394 -0.00000 0.52715
v 0.54234 -0.00000 0.51031
v -0.25957 -0.00000 -0.13718
v -0.28859 0.07006 -0.13723
v -0.28859 -0.07006 -0.13723
v -0.35865 -0.09908 -0.13735
v -0.42871 -0.07006 -0.13747
v -0.45773 -0.00000 -0.13752
v -0.35865 0.09908 -0.13735
v -0.42871 0.07006 -0.13747
v -0.28859 -0.07006 -0.32455
v -0.25957 -0.00000 -0.32450
v -0.35865 -0.09908 -0.32467
v -0.42871 -0.07006 -0.32479
v -0.45773 -0.00000 -0.32484
v -0.42871 0.07006 -0.32479
v -0.28859 0.07006 -0.32455
v -0.35865 0.09908 -0.32467
v -0.35865 -0.00000 -0.32467
vt 0.25000 0.75000
vt 0.75000 0.75000
vn 0.9239 -0.3827 0.0000
vn -0.3827 -0.9239 0.0000
vn -0.9239 0.3827 0.0000
vn 0.9239 0.3827 0.0000
vn 0.3827 -0.9239 0.0000
vn -0.9239 -0.3827 0.0000
vn -0.3827 0.9239 0.0000
vn 0.3827 0.9239 0.0000
vn 0.9119 0.3716 0.1743
vn 0.3838 -0.9193 0.0868
vn -0.9017 -0.3722 -0.2202
vn -0.3825 0.9194 -0.0918
vn 0.3838 0.9193 0.0868
vn 0.9119 -0.3716 0.1743
vn -0.3825 -0.9194 -0.0918
vn -0.9017 0.3722 -0.2202
vn -0.2651 -0.9178 -0.2955
vn -0.6275 0.3689 -0.6857
vn 0.5566 0.3661 0.7457
vn 0.2568 -0.9176 0.3035
vn -0.6275 -0.3689 -0.6857
vn -0.2651 0.9178 -0.2955
vn 0.2568 0.9176 0.3035
vn 0.5566 -0.3661 0.7457
vn 0.0704 0.9183 0.3895
vn 0.1228 -0.3691 0.9213
vn -0.0760 -0.9184 -0.3883
vn -0.1822 0.3700 -0.9110
vn 0.1228 0.3691 0.9213
vn 0.0704 -0.9183 0.3895
vn -0.1822 -0.3700 -0.9110
vn -0.0760 0.9184 -0.3883
vn -0.1599 -0.9169 0.3657
vn 0.3555 -0.3669 -0.8597
vn 0.1541 0.9170 -0.3680
vn -0.1599 0.9169 0.3657
vn -0.4161 -0.3658 0.8325
vn 0.1541 -0.9170 -0.3680
vn 0.3555 0.3669 -0.8597
vn -0.4161 0.3658 0.8325
vn -0.8015 0.3690 0.4705
vn -0.3319 -0.9183 0.2159
vn 0.7710 -0.3698 -0.5185
vn 0.3292 0.9183 -0.2198
vn -0.3319 0.9183 0.2159
vn -0.8015 -0.3690 0.4705
vn 0.3292 -0.9183 -0.2198
vn 0.7710 0.3698 -0.5185
vn -0.9263 -0.3757 0.0276
vn 0.3855 -0.9219 -0.0390
vn 0.9200 0.3781 -0.1035
vn -0.9263 0.3757 0.0276
vn -0.3872 -0.9216 0.0282
vn 0.9200 -0.3781 -0.1035
vn 0.3855 0.9219 -0.0390
vn -0.3872 0.9216 0.0283
vn 0.9289 0.3703 0.0009
vn 0.4124 -0.9039 -0.1137
vn -0.8219 -0.3635 -0.4386
vn -0.3273 0.8991 -0.2908
vn 0.4124 0.9039 -0.1137
vn 0.9289 -0.3703 0.0009
vn -0.3273 -0.8991 -0.2908
vn -0.8219 0.3635 -0.4386
vn -0.0146 0.1561 -0.9876
vn 0.6733 0.1489 -0.7242
vn 0.4785 -0.3645 -0.7989
vn -0.0146 -0.1561 -0.9876
vn 0.1937 0.3717 -0.9079
vn 0.4785 0.3645 -0.7989
vn 0.6733 -0.1489 -0.7242
vn 0.1937 -0.3717 -0.9079
vn -0.3824 0.9233 0.0346
vn -0.9228 -0.3823 0.0484
vn 0.3827 -0.9238 0.0150
vn 0.9239 0.3827 0.0011
vn -0.9228 0.3823 0.0484
vn -0.3824 -0.9233 0.0346
vn 0.9239 -0.3827 0.0011
vn 0.3827 0.9238 0.0150
vn -0.7970 0.3519 0.4909
vn -0.3181 -0.8975 0.3054
vn 0.9074 -0.3586 -0.2191
vn 0.4247 0.9053 -0.0013
vn -0.3181 0.8975 0.3054
vn -0.7970 -0.3519 0.4909
vn 0.4247 -0.9053 -0.0013
vn 0.9074 0.3586 -0.2191
vn 0.2213 -0.9102 -0.3501
vn 0.2935 0.3532 -0.8883
vn -0.2325 0.3500 0.9074
vn -0.0409 -0.9018 0.4301
vn 0.2935 -0.3532 -0.8883
vn 0.2213 0.9102 -0.3501
vn -0.0409 0.9018 0.4301
vn -0.2325 -0.3500 0.9074
vn 0.1038 0.9166 0.3860
vn 0.2512 -0.3663 0.8960
vn -0.0924 -0.9163 -0.3896
vn -0.1659 0.3636 -0.9167
vn 0.2512 0.3663 0.8960
vn 0.1038 -0.9166 0.3860
vn -0.1659 -0.3636 -0.9167
vn -0.0924 0.9163 -0.3896
vn 0.3456 -0.9153 0.2068
vn -0.7045 -0.3772 -0.6012
vn -0.2710 0.9230 -0.2731
vn 0.3456 0.9153 0.2068
vn 0.7582 -0.3708 0.5363
vn -0.2710 -0.9230 -0.2731
vn -0.7045 0.3772 -0.6012
vn 0.7582 0.3708 0.5363
vn 0.5885 0.3645 0.7217
vn 0.2775 -0.9137 0.2969
vn -0.4435 -0.3695 -0.8165
vn -0.1602 0.9176 -0.3638
vn 0.2774 0.9137 0.2969
vn 0.5885 -0.3645 0.7217
vn -0.1602 -0.9176 -0.3638
vn -0.4435 0.3695 -0.8165
vn 0.2972 -0.3732 0.8789
vn -0.0301 -0.9231 -0.3835
vn -0.1580 0.3802 -0.9113
vn 0.2972 0.3732 0.8789
vn 0.1603 -0.9165 0.3665
vn -0.1580 -0.3802 -0.9113
vn -0.0301 0.9231 -0.3835
vn 0.1603 0.9165 0.3665
vn -0.8651 -0.3826 -0.3244
vn -0.3584 0.9239 -0.1344
vn 0.3584 0.9239 0.1344
vn 0.8651 -0.3826 0.3244
vn -0.3584 -0.9239 -0.1344
vn -0.8651 0.3826 -0.3244
vn 0.8651 0.3826 0.3244
vn 0.3584 -0.9239 0.1344
vn -0.4485 0.2427 0.8602
vn -0.0912 0.1156 0.9891
vn -0.2515 -0.2629 0.9315
vn -0.4485 -0.2427 0.8602
vn -0.5704 0.0954 0.8158
vn -0.2515 0.2629 0.9315
vn -0.0912 -0.1156 0.9891
vn -0.5704 -0.0954 0.8158
vn 1.0000 -0.0000 0.0000
vn -1.0000 0.0000 0.0000
vn 0.3012 0.8810 -0.3649
vn -0.0000 -0.3827 -0.9239
vn -0.0000 -0.9239 0.3827
vn 0.0000 0.3827 0.9239
vn 0.0000 0.3827 -0.9239
vn -0.0000 -0.9239 -0.3827
vn -0.0000 -0.3827 0.9239
vn 0.2845 0.8810 -0.3781
vn 0.9990 -0.0000 -0.0450
vn -0.9990 0.0000 0.0450
vn -0.0415 -0.3827 -0.9229
vn 0.0172 -0.9239 0.3823
vn 0.0415 0.3827 0.9229
vn -0.0415 0.3827 -0.9229
vn -0.0172 -0.9239 -0.3823
vn 0.0415 -0.3827 0.9229
vn 0.0000 0.8997 -0.4365
vn -0.0196 0.8997 -0.4361
vn 0.0450 -0.0000 0.9990
vn 0.0000 0.0000 1.0000
vn -0.0449 0.0000 -0.9990
vn -0.3173 0.8810 -0.3510
vn -0.3012 0.8810 -0.3649
vn 0.0196 0.8997 0.4361
vn 0.0000 0.8997 0.4365
vn 0.3173 0.8810 0.3510
vn 0.3012 0.8810 0.3649
vn -0.2845 0.8810 0.3781
vn -0.3012 0.8810 0.3649
vn -0.8503 0.5246 0.0416
vn 0.8175 -0.5744 -0.0408
vn -0.8527 0.5225 0.0000
vn 0.8124 -0.5817 -0.0406
vn 0.8157 -0.5785 0.0000
vn 0.0409 -0.0272 0.9988
vn -0.0450 0.0000 -0.9990
vn 0.0449 -0.0000 0.9990
vn 0.0000 0.0000 -1.0000
vn -0.5347 0.8440 0.0412
vn -0.5333 0.8449 0.0412
vn 0.5193 -0.8536 -0.0412
vn 0.5173 -0.8548 -0.0411
vn 0.0258 -0.0418 0.9988
vn -0.8534 0.5195 0.0417
vn -0.0411 0.0265 -0.9988
vn -0.3152 0.9480 0.0449
vn 0.3472 -0.9367 -0.0448
vn -0.3083 0.9513 0.0000
vn 0.3152 -0.9480 -0.0449
vn 0.3471 -0.9368 -0.0448
vn 0.3086 -0.9512 0.0000
vn 0.3153 -0.9479 -0.0449
vn 0.0157 -0.0423 0.9990
vn 0.0132 -0.0431 0.9990
vn -0.0260 0.0416 -0.9988
vn 0.5187 -0.8549 0.0000
vn 0.0258 -0.0417 0.9988
vn -0.5345 0.8452 0.0000
vn -0.0260 0.0417 -0.9988
vn -0.0259 0.0416 -0.9988
vn 0.9226 0.3857 0.0000
vn -0.3479 0.9365 0.0448
vn -0.3480 0.9364 0.0448
vn -0.0142 0.0428 -0.9990
vn -0.0157 0.0423 -0.9990
vn 0.0142 -0.0428 0.9990
vn 0.2918 -0.9554 -0.0448
vn 0.2917 -0.9555 -0.0448
vn -0.2912 0.9556 0.0448
vn -0.2911 0.9556 0.0448
vn -0.0132 0.0431 -0.9990
vn -0.3830 -0.9237 0.0070
vn 0.9233 -0.3825 -0.0337
vn 0.3830 0.9237 -0.0070
vn -0.3823 0.9239 0.0189
vn -0.9235 -0.3825 0.0288
vn 0.3823 -0.9239 -0.0189
vn 0.9235 0.3824 -0.0288
vn -0.9233 0.3825 0.0337
vn 0.0690 -0.0000 0.9976
vn 0.0689 -0.0000 0.9976
vn -0.0690 0.0000 -0.9976
vn -0.7310 0.6283 -0.2662
vn -0.6990 0.6627 0.2688
vn -0.6730 -0.2850 0.6826
vn -0.7310 -0.6283 -0.2662
vn -0.7506 0.2507 -0.6113
vn -0.6730 0.2850 0.6826
vn -0.6990 -0.6627 0.2688
vn -0.7506 -0.2507 -0.6113
vn 0.3183 0.2228 0.9214
vn 0.2387 -0.8751 0.4209
vn 0.3703 -0.3147 -0.8740
vn 0.2858 0.8655 -0.4113
vn 0.2387 0.8751 0.4209
vn 0.2666 0.3681 0.8908
vn 0.2858 -0.8655 -0.4113
vn 0.3703 0.3147 -0.8740
vn 0.9999 -0.0000 0.0140
vn 0.2589 -0.3580 0.8971
vn 0.2666 -0.3681 0.8908
vn 0.2589 0.3580 0.8971
vn 0.3183 -0.2228 0.9214
vn 0.9999 -0.0000 0.0139
vn -0.0000 -0.8169 -0.5768
vn 0.0000 0.2361 -0.9717
vn 0.0000 0.8169 0.5768
vn -0.0000 -0.2361 0.9717
vn -0.0000 -0.2361 -0.9717
vn 0.0000 0.8169 -0.5768
vn -0.0000 -0.8169 0.5768
vn 0.0000 0.2361 0.9717
vn -0.1922 -0.9814 0.0000
vn -1.0000 0.0034 0.0000
vn 1.0000 -0.0034 0.0000
vn -0.1922 0.9814 0.0000
vn -1.0000 -0.0034 0.0000
vn 1.0000 0.0034 0.0000
vn -0.9246 -0.3743 -0.0709
vn -0.4072 0.9105 0.0717
vn 0.7902 0.3564 0.4986
vn 0.3225 -0.8965 0.3038
vn -0.4072 -0.9105 0.0717
vn -0.9246 0.3743 -0.0709
vn 0.3225 0.8965 0.3038
vn 0.7902 -0.3564 0.4986
vn -0.0017 0.0000 1.0000
f 1/2/1 2/2/1 3/2/1
f 3/2/1 4/2/1 1/2/1
f 5/2/2 6/2/2 7/2/2
f 6/2/2 5/2/2 8/2/2
f 9/2/3 10/2/3 11/2/3
f 10/2/3 9/2/3 12/2/3
f 13/2/4 14/2/4 2/2/4
f 2/2/4 1/2/4 13/2/4
f 8/2/5 3/2/5 6/2/5
f 3/2/5 8/2/5 4/2/5
f 12/2/6 7/2/6 10/2/6
f 7/2/6 12/2/6 5/2/6
f 9/2/7 11/2/7 15/2/7
f 15/2/7 16/2/7 9/2/7
f 16/2/8 15/2/8 14/2/8
f 14/2/8 13/2/8 16/2/8
f 17/2/9 13/2/9 1/2/9
f 1/2/9 18/2/9 17/2/9
f 19/2/10 4/2/10 8/2/10
f 4/2/10 19/2/10 20/2/10
f 21/2/11 5/2/11 12/2/11
f 5/2/11 21/2/11 22/2/11
f 23/2/12 9/2/12 16/2/12
f 16/2/12 24/2/12 23/2/12
f 24/2/13 16/2/13 13/2/13
f 13/2/13 17/2/13 24/2/13
f 18/2/14 1/2/14 4/2/14
f 4/2/14 20/2/14 18/2/14
f 22/2/15 8/2/15 5/2/15
f 8/2/15 22/2/15 19/2/15
f 23/2/16 12/2/16 9/2/16
f 12/2/16 23/2/16 21/2/16
f 25/2/17 19/2/17 22/2/17
f 19/2/17 25/2/17 26/2/17
f 27/2/18 21/2/18 23/2/18
f 23/2/18 28/2/18 27/2/18
f 29/2/19 17/2/19 18/2/19
f 17/2/19 29/2/19 30/2/19
f 26/2/20 20/2/20 19/2/20
f 20/2/20 26/2/20 31/2/20
f 25/2/21 22/2/21 21/2/21
f 21/2/21 27/2/21 25/2/21
f 28/2/22 23/2/22 24/2/22
f 24/2/22 32/2/22 28/2/22
f 32/2/23 24/2/23 17/2/23
f 17/2/23 30/2/23 32/2/23
f 31/2/24 18/2/24 20/2/24
f 18/2/24 31/2/24 29/2/24
f 33/2/25 32/2/25 30/2/25
f 30/2/25 34/2/25 33/2/25
f 35/2/26 29/2/26 31/2/26
f 29/2/26 35/2/26 36/2/26
f 37/2/27 26/2/27 25/2/27
f 26/2/27 37/2/27 38/2/27
f 39/2/28 27/2/28 28/2/28
f 28/2/28 40/2/28 39/2/28
f 36/2/29 30/2/29 29/2/29
f 30/2/29 36/2/29 34/2/29
f 38/2/30 31/2/30 26/2/30
f 31/2/30 38/2/30 35/2/30
f 37/2/31 25/2/31 27/2/31
f 27/2/31 39/2/31 37/2/31
f 40/2/32 28/2/32 32/2/32
f 32/2/32 33/2/32 40/2/32
f 41/2/33 35/2/33 38/2/33
f 35/2/33 41/2/33 42/2/33
f 43/2/34 37/2/34 39/2/34
f 39/2/34 44/2/34 43/2/34
f 45/2/35 40/2/35 33/2/35
f 33/2/35 46/2/35 45/2/35
f 46/2/36 33/2/36 34/2/36
f 34/2/36 47/2/36 46/2/36
f 42/2/37 36/2/37 35/2/37
f 36/2/37 42/2/37 48/2/37
f 43/2/38 38/2/38 37/2/38
f 38/2/38 43/2/38 41/2/38
f 44/2/39 39/2/39 40/2/39
f 40/2/39 45/2/39 44/2/39
f 48/2/40 34/2/40 36/2/40
f 34/2/40 48/2/40 47/2/40
f 49/2/41 47/2/41 48/2/41
f 47/2/41 49/2/41 50/2/41
f 51/2/42 42/2/42 41/2/42
f 42/2/42 51/2/42 52/2/42
f 53/2/43 43/2/43 44/2/43
f 44/2/43 54/2/43 53/2/43
f 55/2/44 45/2/44 46/2/44
f 46/2/44 56/2/44 55/2/44
f 56/2/45 46/2/45 47/2/45
f 47/2/45 50/2/45 56/2/45
f 52/2/46 48/2/46 42/2/46
f 48/2/46 52/2/46 49/2/46
f 53/2/47 41/2/47 43/2/47
f 41/2/47 53/2/47 51/2/47
f 54/2/48 44/2/48 45/2/48
f 45/2/48 55/2/48 54/2/48
f 57/2/49 49/2/49 52/2/49
f 49/2/49 57/2/49 58/2/49
f 59/2/50 51/2/50 53/2/50
f 51/2/50 59/2/50 60/2/50
f 61/2/51 54/2/51 55/2/51
f 55/2/51 62/2/51 61/2/51
f 58/2/52 50/2/52 49/2/52
f 50/2/52 58/2/52 63/2/52
f 60/2/53 52/2/53 51/2/53
f 52/2/53 60/2/53 57/2/53
f 59/2/54 53/2/54 54/2/54
f 54/2/54 61/2/54 59/2/54
f 62/2/55 55/2/55 56/2/55
f 56/2/55 64/2/55 62/2/55
f 64/2/56 56/2/56 50/2/56
f 50/2/56 63/2/56 64/2/56
f 65/2/1 3/2/1 2/2/1
f 2/2/1 66/2/1 65/2/1
f 67/2/2 7/2/2 6/2/2
f 7/2/2 67/2/2 68/2/2
f 69/2/3 11/2/3 10/2/3
f 11/2/3 69/2/3 70/2/3
f 66/2/4 2/2/4 14/2/4
f 14/2/4 71/2/4 66/2/4
f 65/2/5 6/2/5 3/2/5
f 6/2/5 65/2/5 67/2/5
f 68/2/6 10/2/6 7/2/6
f 10/2/6 68/2/6 69/2/6
f 72/2/7 15/2/7 11/2/7
f 11/2/7 70/2/7 72/2/7
f 71/2/8 14/2/8 15/2/8
f 15/2/8 72/2/8 71/2/8
f 73/2/57 66/2/57 71/2/57
f 71/2/57 74/2/57 73/2/57
f 75/2/58 67/2/58 65/2/58
f 67/2/58 75/2/58 76/2/58
f 77/2/59 69/2/59 68/2/59
f 69/2/59 77/2/59 78/2/59
f 79/2/60 72/2/60 70/2/60
f 70/2/60 80/2/60 79/2/60
f 74/2/61 71/2/61 72/2/61
f 72/2/61 79/2/61 74/2/61
f 75/2/62 65/2/62 66/2/62
f 66/2/62 73/2/62 75/2/62
f 76/2/63 68/2/63 67/2/63
f 68/2/63 76/2/63 77/2/63
f 78/2/64 70/2/64 69/2/64
f 70/2/64 78/2/64 80/2/64
f 81/2/8 62/2/8 64/2/8
f 64/2/8 82/2/8 81/2/8
f 82/2/7 64/2/7 63/2/7
f 63/2/7 83/2/7 82/2/7
f 84/2/6 58/2/6 57/2/6
f 58/2/6 84/2/6 85/2/6
f 86/2/5 60/2/5 59/2/5
f 60/2/5 86/2/5 87/2/5
f 88/2/4 61/2/4 62/2/4
f 62/2/4 81/2/4 88/2/4
f 85/2/3 63/2/3 58/2/3
f 63/2/3 85/2/3 83/2/3
f 87/2/2 57/2/2 60/2/2
f 57/2/2 87/2/2 84/2/2
f 86/2/1 59/2/1 61/2/1
f 61/2/1 88/2/1 86/2/1
f 89/2/65 80/2/65 78/2/65
f 78/2/65 90/2/65 89/2/65
f 91/2/66 73/2/66 74/2/66
f 74/2/66 92/2/66 91/2/66
f 93/2/67 76/2/67 75/2/67
f 75/2/67 94/2/67 93/2/67
f 90/2/68 78/2/68 77/2/68
f 77/2/68 95/2/68 90/2/68
f 96/2/69 79/2/69 80/2/69
f 80/2/69 89/2/69 96/2/69
f 92/2/70 74/2/70 79/2/70
f 79/2/70 96/2/70 92/2/70
f 94/2/71 75/2/71 73/2/71
f 73/2/71 91/2/71 94/2/71
f 95/2/72 77/2/72 76/2/72
f 76/2/72 93/2/72 95/2/72
f 97/2/73 82/2/73 83/2/73
f 83/2/73 98/2/73 97/2/73
f 99/2/74 85/2/74 84/2/74
f 85/2/74 99/2/74 100/2/74
f 101/2/75 87/2/75 86/2/75
f 87/2/75 101/2/75 102/2/75
f 103/2/76 88/2/76 81/2/76
f 81/2/76 104/2/76 103/2/76
f 100/2/77 83/2/77 85/2/77
f 83/2/77 100/2/77 98/2/77
f 102/2/78 84/2/78 87/2/78
f 84/2/78 102/2/78 99/2/78
f 101/2/79 86/2/79 88/2/79
f 88/2/79 103/2/79 101/2/79
f 104/2/80 81/2/80 82/2/80
f 82/2/80 97/2/80 104/2/80
f 105/2/81 98/2/81 100/2/81
f 98/2/81 105/2/81 106/2/81
f 107/2/82 99/2/82 102/2/82
f 99/2/82 107/2/82 108/2/82
f 109/2/83 101/2/83 103/2/83
f 103/2/83 110/2/83 109/2/83
f 111/2/84 104/2/84 97/2/84
f 97/2/84 112/2/84 111/2/84
f 112/2/85 97/2/85 98/2/85
f 98/2/85 106/2/85 112/2/85
f 108/2/86 100/2/86 99/2/86
f 100/2/86 108/2/86 105/2/86
f 109/2/87 102/2/87 101/2/87
f 102/2/87 109/2/87 107/2/87
f 110/2/88 103/2/88 104/2/88
f 104/2/88 111/2/88 110/2/88
f 113/2/89 107/2/89 109/2/89
f 107/2/89 113/2/89 114/2/89
f 115/2/90 110/2/90 111/2/90
f 111/2/90 116/2/90 115/2/90
f 117/2/91 106/2/91 105/2/91
f 106/2/91 117/2/91 118/2/91
f 114/2/92 108/2/92 107/2/92
f 108/2/92 114/2/92 119/2/92
f 113/2/93 109/2/93 110/2/93
f 110/2/93 115/2/93 113/2/93
f 116/2/94 111/2/94 112/2/94
f 112/2/94 120/2/94 116/2/94
f 120/2/95 112/2/95 106/2/95
f 106/2/95 118/2/95 120/2/95
f 119/2/96 105/2/96 108/2/96
f 105/2/96 119/2/96 117/2/96
f 121/2/97 120/2/97 118/2/97
f 118/2/97 122/2/97 121/2/97
f 123/2/98 117/2/98 119/2/98
f 117/2/98 123/2/98 124/2/98
f 125/2/99 114/2/99 113/2/99
f 114/2/99 125/2/99 126/2/99
f 127/2/100 115/2/100 116/2/100
f 116/2/100 128/2/100 127/2/100
f 124/2/101 118/2/101 117/2/101
f 118/2/101 124/2/101 122/2/101
f 126/2/102 119/2/102 114/2/102
f 119/2/102 126/2/102 123/2/102
f 125/2/103 113/2/103 115/2/103
f 115/2/103 127/2/103 125/2/103
f 128/2/104 116/2/104 120/2/104
f 120/2/104 121/2/104 128/2/104
f 129/2/105 123/2/105 126/2/105
f 123/2/105 129/2/105 130/2/105
f 131/2/106 125/2/106 127/2/106
f 125/2/106 131/2/106 132/2/106
f 133/2/107 128/2/107 121/2/107
f 121/2/107 134/2/107 133/2/107
f 134/2/108 121/2/108 122/2/108
f 122/2/108 135/2/108 134/2/108
f 136/2/109 124/2/109 123/2/109
f 123/2/109 130/2/109 136/2/109
f 132/2/110 126/2/110 125/2/110
f 126/2/110 132/2/110 129/2/110
f 133/2/111 127/2/111 128/2/111
f 127/2/111 133/2/111 131/2/111
f 135/2/112 122/2/112 124/2/112
f 124/2/112 136/2/112 135/2/112
f 137/2/113 135/2/113 136/2/113
f 135/2/113 137/2/113 138/2/113
f 139/2/114 130/2/114 129/2/114
f 130/2/114 139/2/114 140/2/114
f 141/2/115 132/2/115 131/2/115
f 131/2/115 142/2/115 141/2/115
f 143/2/116 133/2/116 134/2/116
f 134/2/116 144/2/116 143/2/116
f 144/2/117 134/2/117 135/2/117
f 135/2/117 138/2/117 144/2/117
f 140/2/118 136/2/118 130/2/118
f 136/2/118 140/2/118 137/2/118
f 141/2/119 129/2/119 132/2/119
f 129/2/119 141/2/119 139/2/119
f 142/2/120 131/2/120 133/2/120
f 133/2/120 143/2/120 142/2/120
f 145/2/121 137/2/121 140/2/121
f 137/2/121 145/2/121 146/2/121
f 147/2/122 139/2/122 141/2/122
f 139/2/122 147/2/122 148/2/122
f 149/2/123 142/2/123 143/2/123
f 143/2/123 150/2/123 149/2/123
f 146/2/124 138/2/124 137/2/124
f 138/2/124 146/2/124 151/2/124
f 148/2/125 140/2/125 139/2/125
f 140/2/125 148/2/125 145/2/125
f 147/2/126 141/2/126 142/2/126
f 142/2/126 149/2/126 147/2/126
f 150/2/127 143/2/127 144/2/127
f 144/2/127 152/2/127 150/2/127
f 152/2/128 144/2/128 138/2/128
f 138/2/128 151/2/128 152/2/128
f 95/2/129 153/2/129 90/2/129
f 153/2/129 95/2/129 154/2/129
f 155/2/130 156/2/130 96/2/130
f 96/2/130 89/2/130 155/2/130
f 156/2/131 157/2/131 92/2/131
f 92/2/131 96/2/131 156/2/131
f 158/2/132 159/2/132 94/2/132
f 94/2/132 91/2/132 158/2/132
f 93/2/133 154/2/133 95/2/133
f 154/2/133 93/2/133 160/2/133
f 90/2/134 155/2/134 89/2/134
f 155/2/134 90/2/134 153/2/134
f 157/2/135 158/2/135 91/2/135
f 91/2/135 92/2/135 157/2/135
f 94/2/136 160/2/136 93/2/136
f 160/2/136 94/2/136 159/2/136
f 159/2/137 161/2/137 160/2/137
f 161/2/137 159/2/137 162/2/137
f 154/2/138 163/2/138 153/2/138
f 163/2/138 154/2/138 164/2/138
f 155/2/139 165/2/139 156/2/139
f 165/2/139 155/2/139 166/2/139
f 156/2/140 167/2/140 157/2/140
f 167/2/140 156/2/140 165/2/140
f 158/2/141 162/2/141 159/2/141
f 162/2/141 158/2/141 168/2/141
f 160/2/142 164/2/142 154/2/142
f 164/2/142 160/2/142 161/2/142
f 153/2/143 166/2/143 155/2/143
f 166/2/143 153/2/143 163/2/143
f 157/2/144 168/2/144 158/2/144
f 168/2/144 157/2/144 167/2/144
f 169/2/145 170/2/145 171/2/145
f 172/2/145 170/2/145 173/2/145
f 174/2/145 170/2/145 175/2/145
f 176/2/145 170/2/145 177/2/145
f 171/2/145 170/2/145 172/2/145
f 173/2/145 170/2/145 174/2/145
f 175/2/145 170/2/145 176/2/145
f 177/2/145 170/2/145 169/2/145
f 178/2/146 179/2/146 180/2/146
f 181/2/146 182/2/146 180/2/146
f 183/2/146 184/2/146 180/2/146
f 185/2/146 186/2/146 180/2/146
f 179/2/146 181/2/146 180/2/146
f 182/2/146 183/2/146 180/2/146
f 184/2/146 185/2/146 180/2/146
f 186/2/146 178/2/146 180/2/146
f 187/2/147 188/2/147 169/2/147
f 169/2/147 171/2/147 187/2/147
f 182/2/148 181/2/148 172/2/148
f 172/2/148 173/2/148 182/2/148
f 175/2/149 183/2/149 174/2/149
f 183/2/149 175/2/149 184/2/149
f 177/2/150 185/2/150 176/2/150
f 185/2/150 177/2/150 186/2/150
f 181/2/151 179/2/151 171/2/151
f 171/2/151 172/2/151 181/2/151
f 174/2/152 182/2/152 173/2/152
f 182/2/152 174/2/152 183/2/152
f 176/2/153 184/2/153 175/2/153
f 184/2/153 176/2/153 185/2/153
f 189/2/154 190/2/154 191/2/154
f 191/2/154 192/2/154 189/2/154
f 191/2/155 193/2/155 192/2/155
f 194/2/155 193/2/155 195/2/155
f 196/2/155 193/2/155 197/2/155
f 198/2/155 193/2/155 199/2/155
f 192/2/155 193/2/155 194/2/155
f 195/2/155 193/2/155 196/2/155
f 197/2/155 193/2/155 198/2/155
f 199/2/155 193/2/155 191/2/155
f 200/2/156 201/2/156 202/2/156
f 203/2/156 204/2/156 202/2/156
f 205/2/156 206/2/156 202/2/156
f 207/2/156 208/2/156 202/2/156
f 201/2/156 203/2/156 202/2/156
f 204/2/156 205/2/156 202/2/156
f 206/2/156 207/2/156 202/2/156
f 208/2/156 200/2/156 202/2/156
f 209/2/154 210/2/154 211/2/154
f 211/2/154 212/2/154 209/2/154
f 204/2/157 203/2/157 194/2/157
f 194/2/157 195/2/157 204/2/157
f 197/2/158 205/2/158 196/2/158
f 205/2/158 197/2/158 206/2/158
f 199/2/159 207/2/159 198/2/159
f 207/2/159 199/2/159 208/2/159
f 203/2/160 201/2/160 192/2/160
f 192/2/160 194/2/160 203/2/160
f 196/2/161 204/2/161 195/2/161
f 204/2/161 196/2/161 205/2/161
f 198/2/162 206/2/162 197/2/162
f 206/2/162 198/2/162 207/2/162
f 213/2/154 214/2/154 215/2/154
f 215/2/154 216/2/154 213/2/154
f 211/2/155 217/2/155 212/2/155
f 218/2/155 217/2/155 219/2/155
f 220/2/155 217/2/155 221/2/155
f 222/2/155 217/2/155 223/2/155
f 212/2/155 217/2/155 218/2/155
f 219/2/155 217/2/155 220/2/155
f 221/2/155 217/2/155 222/2/155
f 223/2/155 217/2/155 211/2/155
f 224/2/156 225/2/156 226/2/156
f 227/2/156 228/2/156 226/2/156
f 229/2/156 230/2/156 226/2/156
f 231/2/156 232/2/156 226/2/156
f 225/2/156 227/2/156 226/2/156
f 228/2/156 229/2/156 226/2/156
f 230/2/156 231/2/156 226/2/156
f 232/2/156 224/2/156 226/2/156
f 233/2/154 234/2/154 235/2/154
f 235/2/154 236/2/154 233/2/154
f 228/2/157 227/2/157 218/2/157
f 218/2/157 219/2/157 228/2/157
f 221/2/158 229/2/158 220/2/158
f 229/2/158 221/2/158 230/2/158
f 223/2/159 231/2/159 222/2/159
f 231/2/159 223/2/159 232/2/159
f 227/2/160 225/2/160 212/2/160
f 212/2/160 218/2/160 227/2/160
f 220/2/161 228/2/161 219/2/161
f 228/2/161 220/2/161 229/2/161
f 222/2/162 230/2/162 221/2/162
f 230/2/162 222/2/162 231/2/162
f 237/2/163 187/2/163 171/2/163
f 171/2/163 179/2/163 237/2/163
f 215/2/155 238/2/155 216/2/155
f 239/2/155 238/2/155 240/2/155
f 241/2/155 238/2/155 242/2/155
f 243/2/155 238/2/155 244/2/155
f 216/2/155 238/2/155 239/2/155
f 240/2/155 238/2/155 241/2/155
f 242/2/155 238/2/155 243/2/155
f 244/2/155 238/2/155 215/2/155
f 245/2/156 246/2/156 247/2/156
f 248/2/156 249/2/156 247/2/156
f 250/2/156 251/2/156 247/2/156
f 252/2/156 253/2/156 247/2/156
f 246/2/156 248/2/156 247/2/156
f 249/2/156 250/2/156 247/2/156
f 251/2/156 252/2/156 247/2/156
f 253/2/156 245/2/156 247/2/156
f 254/2/164 189/2/164 192/2/164
f 192/2/164 201/2/164 254/2/164
f 249/2/157 248/2/157 239/2/157
f 239/2/157 240/2/157 249/2/157
f 242/2/158 250/2/158 241/2/158
f 250/2/158 242/2/158 251/2/158
f 244/2/159 252/2/159 243/2/159
f 252/2/159 244/2/159 253/2/159
f 248/2/160 246/2/160 216/2/160
f 216/2/160 239/2/160 248/2/160
f 241/2/161 249/2/161 240/2/161
f 249/2/161 241/2/161 250/2/161
f 243/2/162 251/2/162 242/2/162
f 251/2/162 243/2/162 252/2/162
f 255/2/164 209/2/164 212/2/164
f 212/2/164 225/2/164 255/2/164
f 235/2/155 256/2/155 236/2/155
f 257/2/155 256/2/155 258/2/155
f 259/2/155 256/2/155 260/2/155
f 261/2/155 256/2/155 262/2/155
f 236/2/155 256/2/155 257/2/155
f 258/2/155 256/2/155 259/2/155
f 260/2/155 256/2/155 261/2/155
f 262/2/155 256/2/155 235/2/155
f 263/2/156 264/2/156 265/2/156
f 266/2/156 267/2/156 265/2/156
f 268/2/156 269/2/156 265/2/156
f 270/2/156 271/2/156 265/2/156
f 264/2/156 266/2/156 265/2/156
f 267/2/156 268/2/156 265/2/156
f 269/2/156 270/2/156 265/2/156
f 271/2/156 263/2/156 265/2/156
f 272/2/164 213/2/164 216/2/164
f 216/2/164 246/2/164 272/2/164
f 267/2/157 266/2/157 257/2/157
f 257/2/157 258/2/157 267/2/157
f 260/2/158 268/2/158 259/2/158
f 268/2/158 260/2/158 269/2/158
f 262/2/159 270/2/159 261/2/159
f 270/2/159 262/2/159 271/2/159
f 266/2/160 264/2/160 236/2/160
f 236/2/160 257/2/160 266/2/160
f 259/2/161 267/2/161 258/2/161
f 267/2/161 259/2/161 268/2/161
f 261/2/162 269/2/162 260/2/162
f 269/2/162 261/2/162 270/2/162
f 273/2/164 233/2/164 236/2/164
f 236/2/164 264/2/164 273/2/164
f 274/2/156 275/2/156 276/2/156
f 275/2/156 274/2/156 277/2/156
f 278/2/156 279/2/156 280/2/156
f 279/2/156 278/2/156 281/2/156
f 282/2/155 283/2/155 214/2/155
f 214/2/155 213/2/155 282/2/155
f 284/2/155 285/2/155 190/2/155
f 190/2/155 189/2/155 284/2/155
f 283/2/155 286/2/155 287/2/155
f 287/2/155 214/2/155 283/2/155
f 288/2/165 289/2/165 290/2/165
f 289/2/165 288/2/165 291/2/165
f 285/2/155 292/2/155 293/2/155
f 293/2/155 190/2/155 285/2/155
f 294/2/165 295/2/165 296/2/165
f 295/2/165 294/2/165 297/2/165
f 298/2/166 299/2/166 300/2/166
f 299/2/166 298/2/166 301/2/166
f 302/2/167 303/2/167 233/2/167
f 233/2/167 273/2/167 302/2/167
f 304/2/168 273/2/168 264/2/168
f 264/2/168 263/2/168 304/2/168
f 276/2/168 272/2/168 246/2/168
f 246/2/168 245/2/168 276/2/168
f 305/2/168 255/2/168 225/2/168
f 225/2/168 224/2/168 305/2/168
f 280/2/168 254/2/168 201/2/168
f 201/2/168 200/2/168 280/2/168
f 306/2/169 237/2/169 179/2/169
f 179/2/169 178/2/169 306/2/169
f 288/2/170 290/2/170 271/2/170
f 271/2/170 262/2/170 288/2/170
f 287/2/170 274/2/170 253/2/170
f 253/2/170 244/2/170 287/2/170
f 294/2/170 296/2/170 232/2/170
f 232/2/170 223/2/170 294/2/170
f 293/2/170 278/2/170 208/2/170
f 208/2/170 199/2/170 293/2/170
f 298/2/171 300/2/171 186/2/171
f 186/2/171 177/2/171 298/2/171
f 234/2/172 288/2/172 262/2/172
f 262/2/172 235/2/172 234/2/172
f 214/2/172 287/2/172 244/2/172
f 244/2/172 215/2/172 214/2/172
f 210/2/172 294/2/172 223/2/172
f 223/2/172 211/2/172 210/2/172
f 190/2/172 293/2/172 199/2/172
f 199/2/172 191/2/172 190/2/172
f 188/2/173 298/2/173 177/2/173
f 177/2/173 169/2/173 188/2/173
f 290/2/174 304/2/174 263/2/174
f 263/2/174 271/2/174 290/2/174
f 274/2/174 276/2/174 245/2/174
f 245/2/174 253/2/174 274/2/174
f 296/2/174 305/2/174 224/2/174
f 224/2/174 232/2/174 296/2/174
f 278/2/174 280/2/174 200/2/174
f 200/2/174 208/2/174 278/2/174
f 300/2/175 306/2/175 178/2/175
f 178/2/175 186/2/175 300/2/175
f 295/2/176 307/2/176 308/2/176
f 307/2/176 295/2/176 309/2/176
f 310/2/177 311/2/177 312/2/177
f 312/2/177 303/2/177 310/2/177
f 299/2/178 313/2/178 314/2/178
f 313/2/178 299/2/178 315/2/178
f 316/2/177 317/2/177 318/2/177
f 318/2/177 319/2/177 316/2/177
f 311/2/179 320/2/179 291/2/179
f 291/2/179 312/2/179 311/2/179
f 321/2/180 322/2/180 323/2/180
f 323/2/180 324/2/180 321/2/180
f 317/2/179 325/2/179 297/2/179
f 297/2/179 318/2/179 317/2/179
f 286/2/181 326/2/181 277/2/181
f 326/2/181 286/2/181 327/2/181
f 322/2/180 328/2/180 301/2/180
f 301/2/180 323/2/180 322/2/180
f 292/2/181 329/2/181 281/2/181
f 329/2/181 292/2/181 330/2/181
f 280/2/156 331/2/156 254/2/156
f 331/2/156 280/2/156 279/2/156
f 276/2/156 332/2/156 272/2/156
f 332/2/156 276/2/156 275/2/156
f 331/2/182 284/2/182 189/2/182
f 189/2/182 254/2/182 331/2/182
f 332/2/182 282/2/182 213/2/182
f 213/2/182 272/2/182 332/2/182
f 293/2/165 281/2/165 278/2/165
f 281/2/165 293/2/165 292/2/165
f 323/2/145 301/2/145 298/2/145
f 298/2/145 188/2/145 323/2/145
f 287/2/183 277/2/183 274/2/183
f 277/2/183 287/2/183 286/2/183
f 318/2/155 297/2/155 294/2/155
f 294/2/155 210/2/155 318/2/155
f 324/2/145 323/2/145 188/2/145
f 188/2/145 187/2/145 324/2/145
f 312/2/155 291/2/155 288/2/155
f 288/2/155 234/2/155 312/2/155
f 319/2/155 318/2/155 210/2/155
f 210/2/155 209/2/155 319/2/155
f 300/2/146 314/2/146 306/2/146
f 314/2/146 300/2/146 299/2/146
f 303/2/155 312/2/155 234/2/155
f 234/2/155 233/2/155 303/2/155
f 296/2/156 308/2/156 305/2/156
f 308/2/156 296/2/156 295/2/156
f 306/2/146 333/2/146 237/2/146
f 333/2/146 306/2/146 314/2/146
f 290/2/156 334/2/156 304/2/156
f 334/2/156 290/2/156 289/2/156
f 305/2/156 335/2/156 255/2/156
f 335/2/156 305/2/156 308/2/156
f 333/2/184 324/2/184 187/2/184
f 187/2/184 237/2/184 333/2/184
f 304/2/156 302/2/156 273/2/156
f 302/2/156 304/2/156 334/2/156
f 335/2/182 319/2/182 209/2/182
f 209/2/182 255/2/182 335/2/182
f 336/2/185 337/2/185 338/2/185
f 338/2/185 339/2/185 336/2/185
f 340/2/186 341/2/186 342/2/186
f 342/2/186 326/2/186 340/2/186
f 343/2/186 336/2/186 339/2/186
f 339/2/186 329/2/186 343/2/186
f 344/2/187 345/2/187 346/2/187
f 345/2/187 344/2/187 347/2/187
f 348/2/187 349/2/187 350/2/187
f 349/2/187 348/2/187 351/2/187
f 346/2/188 352/2/188 327/2/188
f 352/2/188 346/2/188 345/2/188
f 320/2/189 353/2/189 354/2/189
f 353/2/189 320/2/189 355/2/189
f 350/2/188 356/2/188 330/2/188
f 356/2/188 350/2/188 349/2/188
f 325/2/189 357/2/189 309/2/189
f 357/2/189 325/2/189 358/2/189
f 328/2/166 359/2/166 315/2/166
f 359/2/166 328/2/166 360/2/166
f 314/2/178 361/2/178 333/2/178
f 361/2/178 314/2/178 313/2/178
f 289/2/176 362/2/176 334/2/176
f 362/2/176 289/2/176 354/2/176
f 308/2/190 363/2/190 335/2/190
f 363/2/190 308/2/190 307/2/190
f 361/2/184 321/2/184 324/2/184
f 324/2/184 333/2/184 361/2/184
f 334/2/190 364/2/190 302/2/190
f 364/2/190 334/2/190 362/2/190
f 363/2/191 316/2/191 319/2/191
f 319/2/191 335/2/191 363/2/191
f 364/2/191 310/2/191 303/2/191
f 303/2/191 302/2/191 364/2/191
f 301/2/166 315/2/166 299/2/166
f 315/2/166 301/2/166 328/2/166
f 297/2/181 309/2/181 295/2/181
f 309/2/181 297/2/181 325/2/181
f 350/2/179 330/2/179 292/2/179
f 292/2/179 285/2/179 350/2/179
f 291/2/181 354/2/181 289/2/181
f 354/2/181 291/2/181 320/2/181
f 346/2/179 327/2/179 286/2/179
f 286/2/179 283/2/179 346/2/179
f 348/2/177 350/2/177 285/2/177
f 285/2/177 284/2/177 348/2/177
f 344/2/177 346/2/177 283/2/177
f 283/2/177 282/2/177 344/2/177
f 281/2/176 339/2/176 279/2/176
f 339/2/176 281/2/176 329/2/176
f 277/2/176 342/2/176 275/2/176
f 342/2/176 277/2/176 326/2/176
f 279/2/190 338/2/190 331/2/190
f 338/2/190 279/2/190 339/2/190
f 275/2/190 365/2/190 332/2/190
f 365/2/190 275/2/190 342/2/190
f 338/2/191 348/2/191 284/2/191
f 284/2/191 331/2/191 338/2/191
f 365/2/191 344/2/191 282/2/191
f 282/2/191 332/2/191 365/2/191
f 366/2/192 367/2/192 368/2/192
f 368/2/192 357/2/192 366/2/192
f 369/2/193 370/2/193 371/2/193
f 370/2/193 369/2/193 372/2/193
f 373/2/194 374/2/194 375/2/194
f 375/2/194 359/2/194 373/2/194
f 376/2/195 377/2/195 378/2/195
f 377/2/195 376/2/195 379/2/195
f 371/2/196 380/2/196 355/2/196
f 380/2/196 371/2/196 370/2/196
f 381/2/197 382/2/197 383/2/197
f 382/2/197 381/2/197 384/2/197
f 378/2/198 385/2/198 358/2/198
f 385/2/198 378/2/198 377/2/198
f 352/2/199 386/2/199 340/2/199
f 386/2/199 352/2/199 387/2/199
f 383/2/197 388/2/197 360/2/197
f 388/2/197 383/2/197 382/2/197
f 356/2/200 389/2/200 343/2/200
f 389/2/200 356/2/200 390/2/200
f 341/2/185 391/2/185 365/2/185
f 365/2/185 342/2/185 341/2/185
f 337/2/201 351/2/201 348/2/201
f 348/2/201 338/2/201 337/2/201
f 391/2/201 347/2/201 344/2/201
f 344/2/201 365/2/201 391/2/201
f 330/2/189 343/2/189 329/2/189
f 343/2/189 330/2/189 356/2/189
f 322/2/202 360/2/202 328/2/202
f 360/2/202 322/2/202 383/2/202
f 327/2/203 340/2/203 326/2/203
f 340/2/203 327/2/203 352/2/203
f 317/2/188 358/2/188 325/2/188
f 358/2/188 317/2/188 378/2/188
f 321/2/202 383/2/202 322/2/202
f 383/2/202 321/2/202 381/2/202
f 311/2/188 355/2/188 320/2/188
f 355/2/188 311/2/188 371/2/188
f 316/2/187 378/2/187 317/2/187
f 378/2/187 316/2/187 376/2/187
f 359/2/204 375/2/204 313/2/204
f 313/2/204 315/2/204 359/2/204
f 310/2/187 371/2/187 311/2/187
f 371/2/187 310/2/187 369/2/187
f 357/2/186 368/2/186 307/2/186
f 307/2/186 309/2/186 357/2/186
f 375/2/204 392/2/204 361/2/204
f 361/2/204 313/2/204 375/2/204
f 353/2/186 393/2/186 362/2/186
f 362/2/186 354/2/186 353/2/186
f 368/2/185 394/2/185 363/2/185
f 363/2/185 307/2/185 368/2/185
f 392/2/184 381/2/184 321/2/184
f 321/2/184 361/2/184 392/2/184
f 393/2/185 395/2/185 364/2/185
f 364/2/185 362/2/185 393/2/185
f 394/2/205 376/2/205 316/2/205
f 316/2/205 363/2/205 394/2/205
f 395/2/206 369/2/206 310/2/206
f 310/2/206 364/2/206 395/2/206
f 396/2/207 374/2/207 382/2/207
f 382/2/207 384/2/207 396/2/207
f 374/2/207 373/2/207 388/2/207
f 388/2/207 382/2/207 374/2/207
f 397/2/207 398/2/207 399/2/207
f 399/2/207 400/2/207 397/2/207
f 398/2/207 389/2/207 390/2/207
f 390/2/207 399/2/207 398/2/207
f 401/2/207 367/2/207 377/2/207
f 377/2/207 379/2/207 401/2/207
f 367/2/207 366/2/207 385/2/207
f 385/2/207 377/2/207 367/2/207
f 402/2/207 403/2/207 404/2/207
f 404/2/207 405/2/207 402/2/207
f 403/2/207 386/2/207 387/2/207
f 387/2/207 404/2/207 403/2/207
f 406/2/207 407/2/207 370/2/207
f 370/2/207 372/2/207 406/2/207
f 407/2/207 408/2/207 380/2/207
f 380/2/207 370/2/207 407/2/207
f 374/2/194 396/2/194 392/2/194
f 392/2/194 375/2/194 374/2/194
f 408/2/208 407/2/208 393/2/208
f 393/2/208 353/2/208 408/2/208
f 367/2/192 401/2/192 394/2/192
f 394/2/192 368/2/192 367/2/192
f 396/2/184 384/2/184 381/2/184
f 381/2/184 392/2/184 396/2/184
f 407/2/209 406/2/209 395/2/209
f 395/2/209 393/2/209 407/2/209
f 401/2/210 379/2/210 376/2/210
f 376/2/210 394/2/210 401/2/210
f 406/2/211 372/2/211 369/2/211
f 369/2/211 395/2/211 406/2/211
f 360/2/166 373/2/166 359/2/166
f 373/2/166 360/2/166 388/2/166
f 358/2/212 366/2/212 357/2/212
f 366/2/212 358/2/212 385/2/212
f 349/2/213 390/2/213 356/2/213
f 390/2/213 349/2/213 399/2/213
f 355/2/199 408/2/199 353/2/199
f 408/2/199 355/2/199 380/2/199
f 345/2/196 387/2/196 352/2/196
f 387/2/196 345/2/196 404/2/196
f 351/2/214 399/2/214 349/2/214
f 399/2/214 351/2/214 400/2/214
f 347/2/193 404/2/193 345/2/193
f 404/2/193 347/2/193 405/2/193
f 389/2/215 398/2/215 336/2/215
f 336/2/215 343/2/215 389/2/215
f 386/2/208 403/2/208 341/2/208
f 341/2/208 340/2/208 386/2/208
f 398/2/216 397/2/216 337/2/216
f 337/2/216 336/2/216 398/2/216
f 403/2/209 402/2/209 391/2/209
f 391/2/209 341/2/209 403/2/209
f 397/2/217 400/2/217 351/2/217
f 351/2/217 337/2/217 397/2/217
f 402/2/211 405/2/211 347/2/211
f 347/2/211 391/2/211 402/2/211
f 409/2/218 410/2/218 411/2/218
f 410/2/218 409/2/218 412/2/218
f 413/2/219 414/2/219 415/2/219
f 415/2/219 416/2/219 413/2/219
f 417/2/220 418/2/220 419/2/220
f 419/2/220 420/2/220 417/2/220
f 420/2/221 419/2/221 421/2/221
f 421/2/221 422/2/221 420/2/221
f 412/2/222 423/2/222 410/2/222
f 423/2/222 412/2/222 424/2/222
f 413/2/223 411/2/223 414/2/223
f 411/2/223 413/2/223 409/2/223
f 416/2/224 415/2/224 418/2/224
f 418/2/224 417/2/224 416/2/224
f 424/2/225 421/2/225 423/2/225
f 421/2/225 424/2/225 422/2/225
f 422/2/226 425/2/226 420/2/226
f 412/2/226 425/2/226 424/2/226
f 413/2/227 425/2/227 409/2/227
f 417/2/226 425/2/226 416/2/226
f 424/2/226 425/2/226 422/2/226
f 409/2/226 425/2/226 412/2/226
f 416/2/226 425/2/226 413/2/226
f 420/2/226 425/2/226 417/2/226
f 410/2/228 426/2/228 411/2/228
f 414/2/228 426/2/228 415/2/228
f 418/2/228 426/2/228 419/2/228
f 419/2/228 426/2/228 421/2/228
f 423/2/228 426/2/228 410/2/228
f 411/2/228 426/2/228 414/2/228
f 415/2/228 426/2/228 418/2/228
f 421/2/228 426/2/228 423/2/228
f 427/1/229 150/1/229 152/1/229
f 150/1/229 427/1/229 428/1/229
f 427/1/230 152/1/230 151/1/230
f 151/1/230 429/1/230 427/1/230
f 430/1/231 146/1/231 145/1/231
f 146/1/231 430/1/231 431/1/231
f 432/1/232 148/1/232 147/1/232
f 148/1/232 432/1/232 433/1/232
f 428/1/233 149/1/233 150/1/233
f 149/1/233 428/1/233 434/1/233
f 431/1/234 151/1/234 146/1/234
f 151/1/234 431/1/234 429/1/234
f 433/1/235 145/1/235 148/1/235
f 145/1/235 433/1/235 430/1/235
f 434/1/236 147/1/236 149/1/236
f 147/1/236 434/1/236 432/1/236
f 435/1/237 436/1/237 437/1/237
f 436/1/237 435/1/237 438/1/237
f 439/1/238 430/1/238 433/1/238
f 430/1/238 439/1/238 440/1/238
f 441/1/239 432/1/239 434/1/239
f 434/1/239 442/1/239 441/1/239
f 443/1/240 428/1/240 427/1/240
f 427/1/240 444/1/240 443/1/240
f 444/1/241 427/1/241 429/1/241
f 429/1/241 437/1/241 444/1/241
f 445/1/242 429/1/242 431/1/242
f 429/1/242 445/1/242 446/1/242
f 441/1/243 433/1/243 432/1/243
f 433/1/243 441/1/243 439/1/243
f 442/1/244 434/1/244 428/1/244
f 428/1/244 443/1/244 442/1/244
f 447/1/245 437/1/245 436/1/245
f 436/1/245 448/1/245 447/1/245
f 449/1/245 442/1/245 443/1/245
f 443/1/245 450/1/245 449/1/245
f 451/1/246 430/1/246 440/1/246
f 430/1/246 451/1/246 452/1/246
f 452/1/247 431/1/247 430/1/247
f 431/1/247 452/1/247 445/1/247
f 446/1/248 437/1/248 429/1/248
f 437/1/248 446/1/248 435/1/248
f 438/1/249 440/1/249 436/1/249
f 440/1/249 438/1/249 451/1/249
f 453/1/245 440/1/245 439/1/245
f 439/1/245 454/1/245 453/1/245
f 455/1/245 441/1/245 442/1/245
f 442/1/245 449/1/245 455/1/245
f 450/1/245 443/1/245 444/1/245
f 444/1/245 456/1/245 450/1/245
f 456/1/250 444/1/250 437/1/250
f 437/1/250 447/1/250 456/1/250
f 448/1/245 436/1/245 440/1/245
f 440/1/245 453/1/245 448/1/245
f 454/1/250 439/1/250 441/1/250
f 441/1/250 455/1/250 454/1/250
f 457/1/251 456/1/251 447/1/251
f 456/1/251 457/1/251 458/1/251
f 459/1/252 448/1/252 453/1/252
f 453/1/252 460/1/252 459/1/252
f 461/1/253 454/1/253 455/1/253
f 455/1/253 462/1/253 461/1/253
f 463/1/254 449/1/254 450/1/254
f 449/1/254 463/1/254 464/1/254
f 457/1/255 447/1/255 448/1/255
f 448/1/255 459/1/255 457/1/255
f 460/1/256 453/1/256 454/1/256
f 454/1/256 461/1/256 460/1/256
f 458/1/257 450/1/257 456/1/257
f 450/1/257 458/1/257 463/1/257
f 464/1/258 455/1/258 449/1/258
f 455/1/258 464/1/258 462/1/258
f 465/1/259 435/1/259 446/1/259
f 435/1/259 465/1/259 466/1/259
f 466/1/260 438/1/260 435/1/260
f 438/1/260 466/1/260 467/1/260
f 465/1/261 446/1/261 445/1/261
f 445/1/261 468/1/261 465/1/261
f 469/1/262 452/1/262 451/1/262
f 451/1/262 470/1/262 469/1/262
f 467/1/263 451/1/263 438/1/263
f 451/1/263 467/1/263 470/1/263
f 468/1/264 445/1/264 452/1/264
f 452/1/264 469/1/264 468/1/264
f 465/1/166 471/1/166 466/1/166
f 467/1/166 471/1/166 470/1/166
f 469/1/166 471/1/166 468/1/166
f 470/1/166 471/1/166 469/1/166
f 466/1/166 471/1/166 467/1/166
f 468/1/166 471/1/166 465/1/166
f 464/1/245 472/1/245 462/1/245
f 458/1/245 472/1/245 463/1/245
f 457/1/250 472/1/250 458/1/250
f 460/1/245 472/1/245 459/1/245
f 462/1/245 472/1/245 461/1/245
f 463/1/245 472/1/245 464/1/245
f 459/1/245 472/1/245 457/1/245
f 461/1/250 472/1/250 460/1/250
f 167/1/265 473/1/265 168/1/265
f 473/1/265 167/1/265 474/1/265
f 475/1/266 476/1/266 161/1/266
f 161/1/266 162/1/266 475/1/266
f 477/1/267 478/1/267 163/1/267
f 163/1/267 164/1/267 477/1/267
f 166/1/268 479/1/268 165/1/268
f 479/1/268 166/1/268 480/1/268
f 165/1/269 474/1/269 167/1/269
f 474/1/269 165/1/269 479/1/269
f 168/1/270 475/1/270 162/1/270
f 475/1/270 168/1/270 473/1/270
f 476/1/271 477/1/271 164/1/271
f 164/1/271 161/1/271 476/1/271
f 478/1/272 480/1/272 166/1/272
f 166/1/272 163/1/272 478/1/272
f 473/1/3 481/1/3 475/1/3
f 481/1/3 473/1/3 482/1/3
f 483/1/8 484/1/8 477/1/8
f 477/1/8 476/1/8 483/1/8
f 485/1/1 486/1/1 480/1/1
f 480/1/1 478/1/1 485/1/1
f 474/1/6 482/1/6 473/1/6
f 482/1/6 474/1/6 487/1/6
f 481/1/7 483/1/7 476/1/7
f 476/1/7 475/1/7 481/1/7
f 484/1/4 485/1/4 478/1/4
f 478/1/4 477/1/4 484/1/4
f 480/1/5 488/1/5 479/1/5
f 488/1/5 480/1/5 486/1/5
f 479/1/2 487/1/2 474/1/2
f 487/1/2 479/1/2 488/1/2
f 488/1/273 486/1/273 489/1/273
f 487/1/273 488/1/273 489/1/273
f 481/1/273 482/1/273 489/1/273
f 484/1/273 483/1/273 489/1/273
f 486/1/273 485/1/273 489/1/273
f 482/1/273 487/1/273 489/1/273
f 483/1/273 481/1/273 489/1/273
f 485/1/273 484/1/273 489/1/273
