# Generated by tools/make-block-meshes.py -- edit that, not this.
# Acoustic guitar by jeremy, CC-BY 3.0, from https://poly.pizza/m/afr6GCpce_I
v -0.29928 0.05124 -0.67974
v -0.16487 -0.07487 -0.77335
v -0.29928 -0.07487 -0.67974
v -0.16487 0.05124 -0.77335
v -0.24902 0.05124 0.02789
v -0.25269 -0.07487 -0.07653
v -0.24902 -0.07487 0.02789
v -0.25269 0.05124 -0.07653
v 0.14003 0.05124 0.13517
v 0.14003 -0.07487 0.13517
v 0.24902 -0.07487 0.02789
v 0.24902 0.05124 0.02789
v 0.33797 0.05124 -0.53693
v 0.33797 -0.07487 -0.53693
v 0.29928 -0.07487 -0.67974
v 0.29928 0.05124 -0.67974
v 0.08423 -0.07487 -0.07653
v 0.25269 -0.07487 -0.07653
v 0.14942 0.05124 -0.58374
v 0.16487 0.05124 -0.77335
v -0.33797 0.05124 -0.53693
v -0.14942 0.05124 -0.58374
v -0.00000 0.05124 -0.59706
v -0.00000 0.05124 -0.80000
v -0.08423 -0.07487 -0.07653
v -0.14003 -0.07487 0.13517
v -0.00000 -0.07487 0.16705
v -0.00000 -0.07487 -0.07653
v -0.14003 0.05124 0.13517
v -0.00000 0.05124 0.16705
v 0.16487 -0.07487 -0.77335
v 0.00000 -0.07487 -0.80000
v 0.00000 -0.07487 -0.39413
v 0.00000 -0.07487 -0.59706
v 0.14942 -0.07487 -0.58374
v 0.09976 -0.07487 -0.39413
v -0.29928 -0.07487 -0.39413
v -0.33797 -0.07487 -0.53693
v -0.14942 -0.07487 -0.58374
v -0.09976 -0.07487 -0.39413
v 0.07228 0.05124 -0.15121
v -0.00000 0.05124 -0.07653
v 0.08423 0.05124 -0.07653
v -0.00000 0.05124 -0.12856
v -0.07228 0.05124 -0.15121
v -0.08423 0.05124 -0.07653
v -0.21834 0.05124 -0.17479
v 0.21834 0.05124 -0.17479
v 0.25269 0.05124 -0.07653
v 0.29928 -0.07487 -0.39413
v 0.06808 -0.07487 -0.17479
v 0.21834 -0.07487 -0.17479
v -0.29928 0.05124 -0.39413
v 0.09976 0.05124 -0.39413
v -0.00000 0.05124 -0.32695
v 0.07292 0.05124 -0.30430
v -0.00000 0.05124 -0.39413
v -0.21834 -0.07487 -0.17479
v -0.06808 -0.07487 -0.17479
v -0.22071 0.05124 -0.28072
v -0.22071 -0.07487 -0.28072
v 0.29928 0.05124 -0.39413
v 0.22071 0.05124 -0.28072
v 0.00000 -0.07487 -0.22775
v -0.07082 -0.07487 -0.22775
v -0.07357 -0.07487 -0.28072
v 0.00000 -0.07487 -0.28072
v 0.00000 -0.07487 -0.17479
v 0.22071 -0.07487 -0.28072
v 0.07357 -0.07487 -0.28072
v 0.20170 -0.07487 -0.22775
v 0.20170 0.05124 -0.22775
v 0.09517 0.05124 -0.22775
v -0.20170 0.05124 -0.22775
v -0.09517 0.05124 -0.22775
v 0.07082 -0.07487 -0.22775
v -0.20170 -0.07487 -0.22775
v -0.09976 0.05124 -0.39413
v -0.07292 0.05124 -0.30430
v -0.09517 -0.02686 -0.22775
v -0.07292 -0.02686 -0.30430
v 0.09517 -0.02686 -0.22775
v 0.07292 -0.02686 -0.30430
v -0.07228 -0.02686 -0.15121
v -0.00000 -0.02686 -0.12856
v -0.00000 -0.02686 -0.32695
v 0.07228 -0.02686 -0.15121
v -0.00000 -0.02686 -0.22775
v -0.05277 0.06489 -0.12085
v -0.00000 -0.03200 -0.12085
v -0.05277 -0.03200 -0.12085
v -0.00000 0.06489 -0.12085
v -0.05277 0.06489 0.59296
v -0.05277 0.02532 0.24319
v -0.05277 0.02532 0.59296
v -0.05277 0.06489 0.24319
v 0.07297 0.00369 0.78062
v -0.00000 0.06177 0.61942
v -0.00000 -0.00379 0.80000
v 0.06551 0.06177 0.61942
v 0.05277 0.06489 0.24319
v 0.05277 0.02532 0.24319
v 0.05277 -0.03200 -0.12085
v 0.05277 0.06489 -0.12085
v -0.00000 0.02532 0.59296
v -0.00000 0.02532 0.24319
v 0.05277 0.02532 0.59296
v -0.00000 0.06489 0.24319
v -0.00000 0.06489 0.59296
v 0.05277 0.06489 0.59296
v -0.15049 -0.02897 -0.39712
v -0.05016 -0.02897 -0.39712
v -0.05016 0.06791 -0.39712
v -0.15049 0.06224 -0.39712
v -0.15049 0.06224 -0.45464
v -0.05016 -0.02897 -0.46702
v -0.15049 -0.02897 -0.45464
v -0.05016 0.06791 -0.46702
v 0.15049 -0.02897 -0.39712
v 0.05016 -0.02897 -0.39712
v 0.05016 -0.02897 -0.46702
v 0.15049 -0.02897 -0.45464
v 0.15049 0.06224 -0.39712
v 0.15049 0.06224 -0.45464
v 0.05016 0.06791 -0.46702
v 0.05016 0.06791 -0.39712
v -0.00000 -0.03913 0.78220
v 0.07297 -0.03165 0.76282
v -0.07297 0.00369 0.78062
v -0.06551 0.02338 0.61691
v -0.07297 -0.03165 0.76282
v -0.06551 0.06177 0.61942
v 0.06551 0.02338 0.61691
v -0.00000 0.02338 0.61691
v -0.03210 0.06488 0.59296
v -0.04367 0.06488 0.59296
v -0.04367 0.06488 -0.41795
v -0.03210 0.06488 -0.41795
v -0.03210 0.07221 -0.41795
v -0.04367 0.07221 0.59296
v -0.03210 0.07221 0.59296
v -0.04367 0.07221 -0.41795
v -0.04516 0.05833 0.64537
v -0.04516 0.05167 0.64230
v -0.04099 0.06515 0.63420
v -0.04099 0.05699 0.65570
v -0.04099 0.03878 0.64879
v -0.04099 0.04694 0.62729
v -0.07899 0.04694 0.62729
v -0.07899 0.05699 0.65570
v -0.07899 0.06515 0.63420
v -0.07899 0.03878 0.64879
v -0.04671 0.04493 0.68410
v -0.04671 0.03677 0.70560
v -0.04671 0.01856 0.69869
v -0.04671 0.02672 0.67719
v -0.08362 0.02672 0.67719
v -0.08362 0.03677 0.70560
v -0.08362 0.04493 0.68410
v -0.08362 0.01856 0.69869
v -0.04818 0.02600 0.73487
v -0.04818 0.01784 0.75636
v -0.04818 -0.00037 0.74945
v -0.04818 0.00779 0.72795
v -0.08962 0.00779 0.72795
v -0.08962 0.01784 0.75636
v -0.08962 0.02600 0.73487
v -0.08962 -0.00037 0.74945
v 0.04099 0.04694 0.62729
v 0.04099 0.05699 0.65570
v 0.04099 0.06515 0.63420
v 0.04099 0.03878 0.64879
v 0.07899 0.06515 0.63420
v 0.07899 0.05699 0.65570
v 0.07899 0.03878 0.64879
v 0.07899 0.04694 0.62729
v 0.04671 0.02672 0.67719
v 0.04671 0.03677 0.70560
v 0.04671 0.04493 0.68410
v 0.04671 0.01856 0.69869
v 0.08362 0.04493 0.68410
v 0.08362 0.03677 0.70560
v 0.08362 0.01856 0.69869
v 0.08362 0.02672 0.67719
v 0.04818 0.00779 0.72795
v 0.04818 0.01784 0.75636
v 0.04818 0.02600 0.73487
v 0.04818 -0.00037 0.74945
v 0.08962 0.02600 0.73487
v 0.08962 0.01784 0.75636
v 0.08962 -0.00037 0.74945
v 0.08962 0.00779 0.72795
v -0.05673 0.05167 0.64230
v -0.05673 0.05833 0.64537
v -0.01756 0.06488 0.59296
v -0.02912 0.06488 0.59296
v -0.02912 0.06488 -0.41795
v -0.01756 0.06488 -0.41795
v -0.01756 0.07221 -0.41795
v -0.02912 0.07221 0.59296
v -0.01756 0.07221 0.59296
v -0.02912 0.07221 -0.41795
v -0.04801 0.03511 0.69976
v -0.04801 0.02846 0.69669
v -0.05957 0.02846 0.69669
v -0.05957 0.03511 0.69976
v -0.00264 0.06488 0.59261
v -0.01421 0.06488 0.59261
v -0.01421 0.06488 -0.41831
v -0.00264 0.06488 -0.41831
v -0.00264 0.07221 -0.41831
v -0.01421 0.07221 0.59261
v -0.00264 0.07221 0.59261
v -0.01421 0.07221 -0.41831
v -0.05092 0.01744 0.74859
v -0.05092 0.01078 0.74552
v -0.06249 0.01078 0.74552
v -0.06249 0.01744 0.74859
v 0.04323 0.06488 -0.41795
v 0.04323 0.06488 0.59296
v 0.03129 0.06488 0.59296
v 0.03129 0.06488 -0.41795
v 0.03129 0.07221 -0.41795
v 0.04323 0.07221 0.59296
v 0.04323 0.07221 -0.41795
v 0.03129 0.07221 0.59296
v 0.04477 0.05167 0.64230
v 0.04477 0.05833 0.64537
v 0.05671 0.05167 0.64230
v 0.05671 0.05833 0.64537
v 0.02822 0.06488 -0.41795
v 0.02822 0.06488 0.59296
v 0.01627 0.06488 0.59296
v 0.01627 0.06488 -0.41795
v 0.01627 0.07221 -0.41795
v 0.02822 0.07221 0.59296
v 0.02822 0.07221 -0.41795
v 0.01627 0.07221 0.59296
v 0.04771 0.02846 0.69669
v 0.04771 0.03511 0.69976
v 0.05965 0.02846 0.69669
v 0.05965 0.03511 0.69976
v 0.01282 0.06488 -0.41831
v 0.01282 0.06488 0.59261
v 0.00088 0.06488 0.59261
v 0.00088 0.06488 -0.41831
v 0.00088 0.07221 -0.41831
v 0.01282 0.07221 0.59261
v 0.01282 0.07221 -0.41831
v 0.00088 0.07221 0.59261
v 0.05072 0.01078 0.74552
v 0.05072 0.01744 0.74859
v 0.06266 0.01078 0.74552
v 0.06266 0.01744 0.74859
v -0.03779 0.07487 -0.41076
v -0.03779 0.06467 -0.41076
v -0.03058 0.06467 -0.41797
v -0.03058 0.07487 -0.41797
v -0.03779 0.07487 -0.42518
v -0.03779 0.06467 -0.42518
v -0.04500 0.07487 -0.41797
v -0.04500 0.06467 -0.41797
v -0.02351 0.07487 -0.41076
v -0.02351 0.06467 -0.41076
v -0.01630 0.06467 -0.41797
v -0.01630 0.07487 -0.41797
v -0.02351 0.06467 -0.42518
v -0.02351 0.07487 -0.42518
v -0.03072 0.07487 -0.41797
v -0.03072 0.06467 -0.41797
v -0.00869 0.07487 -0.41076
v -0.00869 0.06467 -0.41076
v -0.00148 0.06467 -0.41797
v -0.00148 0.07487 -0.41797
v -0.00869 0.07487 -0.42518
v -0.00869 0.06467 -0.42518
v -0.01589 0.07487 -0.41797
v -0.01589 0.06467 -0.41797
v 0.00675 0.07487 -0.41076
v 0.00675 0.06467 -0.41076
v 0.01395 0.06467 -0.41797
v 0.01395 0.07487 -0.41797
v 0.00675 0.06467 -0.42518
v 0.00675 0.07487 -0.42518
v -0.00046 0.07487 -0.41797
v -0.00046 0.06467 -0.41797
v 0.02185 0.07487 -0.41076
v 0.02185 0.06467 -0.41076
v 0.02906 0.06467 -0.41797
v 0.02906 0.07487 -0.41797
v 0.02185 0.07487 -0.42518
v 0.02185 0.06467 -0.42518
v 0.01464 0.07487 -0.41797
v 0.01464 0.06467 -0.41797
v 0.03715 0.07487 -0.41076
v 0.03715 0.06467 -0.41076
v 0.04436 0.06467 -0.41797
v 0.04436 0.07487 -0.41797
v 0.03715 0.06467 -0.42518
v 0.03715 0.07487 -0.42518
v 0.02994 0.07487 -0.41797
v 0.02994 0.06467 -0.41797
vt 0.25000 0.25000
vt 0.25000 0.75000
vt 0.75000 0.25000
vt 0.75000 0.75000
vn -0.5715 -0.0000 -0.8206
vn -0.9994 -0.0000 0.0351
vn 0.7015 0.0000 0.7127
vn 0.9652 0.0000 -0.2615
vn 0.0000 -1.0000 0.0000
vn -0.0000 1.0000 0.0000
vn -0.7015 -0.0000 0.7127
vn 0.2220 0.0000 0.9750
vn 0.5715 0.0000 -0.8206
vn -0.1596 -0.0000 -0.9872
vn -0.9652 -0.0000 0.2615
vn -0.8220 -0.0000 0.5695
vn 0.8220 0.0000 0.5695
vn -0.9440 -0.0000 -0.3300
vn 0.9994 0.0000 0.0351
vn 0.9440 0.0000 -0.3300
vn 0.9540 0.0000 -0.2997
vn -0.9412 -0.0000 0.3378
vn 0.1596 0.0000 -0.9872
vn -0.2220 -0.0000 0.9750
vn -0.9540 -0.0000 -0.2997
vn 0.9412 0.0000 0.3378
vn -0.9652 -0.0000 -0.2615
vn 0.9652 0.0000 0.2615
vn 0.9603 0.0000 0.2791
vn -0.9603 -0.0000 0.2791
vn 0.2991 0.0000 -0.9542
vn 0.2967 0.0000 0.9550
vn -0.9581 -0.0000 -0.2865
vn -0.2967 -0.0000 0.9550
vn 0.9581 0.0000 -0.2865
vn -0.2991 -0.0000 -0.9542
vn -0.0000 0.0000 -1.0000
vn -1.0000 -0.0000 0.0000
vn -0.0032 0.9403 0.3403
vn 1.0000 0.0000 0.0000
vn 0.0000 -0.9878 0.1555
vn -0.0000 0.0000 1.0000
vn -0.1225 -0.0000 -0.9925
vn -0.0564 0.9984 0.0000
vn 0.0564 0.9984 0.0000
vn 0.1225 0.0000 -0.9925
vn 0.2725 -0.4329 0.8593
vn -0.9990 0.0121 -0.0441
vn 0.9990 0.0121 -0.0441
vn -0.0011 -0.9355 -0.3534
vn 0.0000 -0.9967 -0.0806
vn 0.8929 0.0145 -0.4501
vn -0.8929 0.0145 -0.4501
vn -0.0000 0.9931 0.1171
vn 0.0011 -0.9355 -0.3534
vn -0.2725 -0.4329 0.8593
vn 0.0032 0.9403 0.3403
vn 0.9705 -0.0516 0.2354
vn 0.0000 -0.9349 -0.3549
vn -0.0000 0.9349 0.3549
vn -0.0000 0.3549 -0.9349
vn 0.0000 -0.3549 0.9349
vn 0.0000 -0.4181 0.9084
vn -0.0000 0.9667 0.2560
vn 0.0000 -0.9660 -0.2586
vn -0.9705 0.0516 -0.2354
vn 0.9642 -0.0568 0.2591
vn -0.0000 0.9446 0.3281
vn 0.0000 -0.9435 -0.3313
vn -0.9642 0.0568 -0.2591
vn 0.9586 -0.0609 0.2782
vn -0.0000 0.9435 0.3313
vn 0.0000 -0.9428 -0.3335
vn -0.9586 0.0609 -0.2782
vn -0.9687 -0.0531 0.2425
vn 0.9687 0.0531 -0.2425
vn -0.9620 -0.0585 0.2669
vn 0.9620 0.0585 -0.2669
vn -0.9561 -0.0627 0.2864
vn 0.9561 0.0627 -0.2864
vn 0.7071 0.0000 0.7071
vn 0.7071 0.0000 -0.7071
vn -0.7071 -0.0000 -0.7071
vn -0.7071 -0.0000 0.7071
f 1/3/1 2/3/1 3/3/1
f 2/3/1 1/3/1 4/3/1
f 5/3/2 6/3/2 7/3/2
f 6/3/2 5/3/2 8/3/2
f 9/3/3 10/3/3 11/3/3
f 11/3/3 12/3/3 9/3/3
f 13/3/4 14/3/4 15/3/4
f 15/3/4 16/3/4 13/3/4
f 10/3/5 17/3/5 18/3/5
f 18/3/5 11/3/5 10/3/5
f 16/3/6 19/3/6 13/3/6
f 19/3/6 16/3/6 20/3/6
f 4/3/6 21/3/6 22/3/6
f 21/3/6 4/3/6 1/3/6
f 20/3/6 23/3/6 19/3/6
f 23/3/6 20/3/6 24/3/6
f 7/3/5 6/3/5 25/3/5
f 25/3/5 26/3/5 7/3/5
f 27/3/5 28/3/5 17/3/5
f 17/3/5 10/3/5 27/3/5
f 5/3/7 7/3/7 26/3/7
f 26/3/7 29/3/7 5/3/7
f 30/3/8 27/3/8 10/3/8
f 10/3/8 9/3/8 30/3/8
f 20/3/9 15/3/9 31/3/9
f 15/3/9 20/3/9 16/3/9
f 4/3/10 32/3/10 2/3/10
f 32/3/10 4/3/10 24/3/10
f 33/3/5 34/3/5 35/3/5
f 35/3/5 36/3/5 33/3/5
f 37/3/5 38/3/5 39/3/5
f 39/3/5 40/3/5 37/3/5
f 41/3/6 42/3/6 43/3/6
f 42/3/6 41/3/6 44/3/6
f 45/3/6 8/3/6 46/3/6
f 8/3/6 45/3/6 47/3/6
f 48/3/6 43/3/6 49/3/6
f 43/3/6 48/3/6 41/3/6
f 36/3/5 35/3/5 14/3/5
f 14/3/5 50/3/5 36/3/5
f 17/3/5 51/3/5 52/3/5
f 52/3/5 18/3/5 17/3/5
f 53/3/11 38/3/11 37/3/11
f 38/3/11 53/3/11 21/3/11
f 54/3/6 55/3/6 56/3/6
f 55/3/6 54/3/6 57/3/6
f 6/3/5 58/3/5 59/3/5
f 59/3/5 25/3/5 6/3/5
f 60/3/12 37/3/12 61/3/12
f 37/3/12 60/3/12 53/3/12
f 62/3/6 56/3/6 63/3/6
f 56/3/6 62/3/6 54/3/6
f 64/3/5 65/3/5 66/3/5
f 66/3/5 67/3/5 64/3/5
f 28/3/5 68/3/5 51/3/5
f 51/3/5 17/3/5 28/3/5
f 63/3/13 69/3/13 50/3/13
f 50/3/13 62/3/13 63/3/13
f 8/3/14 58/3/14 6/3/14
f 58/3/14 8/3/14 47/3/14
f 43/3/6 30/3/6 9/3/6
f 30/3/6 43/3/6 42/3/6
f 46/3/6 5/3/6 29/3/6
f 5/3/6 46/3/6 8/3/6
f 49/3/6 9/3/6 12/3/6
f 9/3/6 49/3/6 43/3/6
f 12/3/15 11/3/15 18/3/15
f 18/3/15 49/3/15 12/3/15
f 67/3/5 33/3/5 36/3/5
f 36/3/5 70/3/5 67/3/5
f 61/3/5 37/3/5 40/3/5
f 40/3/5 66/3/5 61/3/5
f 49/3/16 18/3/16 52/3/16
f 52/3/16 48/3/16 49/3/16
f 70/3/5 36/3/5 50/3/5
f 50/3/5 69/3/5 70/3/5
f 71/3/17 72/3/17 48/3/17
f 48/3/17 52/3/17 71/3/17
f 48/3/6 73/3/6 41/3/6
f 73/3/6 48/3/6 72/3/6
f 45/3/6 74/3/6 47/3/6
f 74/3/6 45/3/6 75/3/6
f 76/3/5 64/3/5 67/3/5
f 67/3/5 70/3/5 76/3/5
f 65/3/5 77/3/5 61/3/5
f 61/3/5 66/3/5 65/3/5
f 71/3/5 76/3/5 70/3/5
f 70/3/5 69/3/5 71/3/5
f 61/3/18 74/3/18 60/3/18
f 74/3/18 61/3/18 77/3/18
f 78/3/6 60/3/6 79/3/6
f 60/3/6 78/3/6 53/3/6
f 66/3/5 40/3/5 33/3/5
f 33/3/5 67/3/5 66/3/5
f 42/3/6 29/3/6 30/3/6
f 29/3/6 42/3/6 46/3/6
f 25/3/5 59/3/5 68/3/5
f 68/3/5 28/3/5 25/3/5
f 57/3/6 79/3/6 55/3/6
f 79/3/6 57/3/6 78/3/6
f 44/3/6 46/3/6 42/3/6
f 46/3/6 44/3/6 45/3/6
f 40/3/5 39/3/5 34/3/5
f 34/3/5 33/3/5 40/3/5
f 24/3/19 31/3/19 32/3/19
f 31/3/19 24/3/19 20/3/19
f 29/3/20 26/3/20 27/3/20
f 27/3/20 30/3/20 29/3/20
f 26/3/5 25/3/5 28/3/5
f 28/3/5 27/3/5 26/3/5
f 24/3/6 22/3/6 23/3/6
f 22/3/6 24/3/6 4/3/6
f 77/3/21 47/3/21 74/3/21
f 47/3/21 77/3/21 58/3/21
f 52/3/5 51/3/5 76/3/5
f 76/3/5 71/3/5 52/3/5
f 59/3/5 58/3/5 77/3/5
f 77/3/5 65/3/5 59/3/5
f 51/3/5 68/3/5 64/3/5
f 64/3/5 76/3/5 51/3/5
f 75/3/6 60/3/6 74/3/6
f 60/3/6 75/3/6 79/3/6
f 72/3/6 56/3/6 73/3/6
f 56/3/6 72/3/6 63/3/6
f 69/3/22 63/3/22 72/3/22
f 72/3/22 71/3/22 69/3/22
f 68/3/5 59/3/5 65/3/5
f 65/3/5 64/3/5 68/3/5
f 23/3/6 78/3/6 57/3/6
f 78/3/6 23/3/6 22/3/6
f 39/3/5 2/3/5 32/3/5
f 32/3/5 34/3/5 39/3/5
f 21/3/23 3/3/23 38/3/23
f 3/3/23 21/3/23 1/3/23
f 35/3/5 31/3/5 15/3/5
f 15/3/5 14/3/5 35/3/5
f 38/3/5 3/3/5 2/3/5
f 2/3/5 39/3/5 38/3/5
f 34/3/5 32/3/5 31/3/5
f 31/3/5 35/3/5 34/3/5
f 19/3/6 57/3/6 54/3/6
f 57/3/6 19/3/6 23/3/6
f 22/3/6 53/3/6 78/3/6
f 53/3/6 22/3/6 21/3/6
f 13/3/6 54/3/6 62/3/6
f 54/3/6 13/3/6 19/3/6
f 62/3/24 50/3/24 14/3/24
f 14/3/24 13/3/24 62/3/24
f 79/2/25 75/2/25 80/2/25
f 80/2/25 81/2/25 79/2/25
f 82/2/26 56/2/26 83/2/26
f 56/2/26 82/2/26 73/2/26
f 84/2/27 44/2/27 85/2/27
f 44/2/27 84/2/27 45/2/27
f 55/2/28 79/2/28 81/2/28
f 81/2/28 86/2/28 55/2/28
f 87/2/6 88/2/6 85/2/6
f 88/2/6 87/2/6 82/2/6
f 85/2/6 80/2/6 84/2/6
f 80/2/6 85/2/6 88/2/6
f 88/2/6 81/2/6 80/2/6
f 81/2/6 88/2/6 86/2/6
f 82/2/6 86/2/6 88/2/6
f 86/2/6 82/2/6 83/2/6
f 87/2/29 73/2/29 82/2/29
f 73/2/29 87/2/29 41/2/29
f 56/2/30 55/2/30 86/2/30
f 86/2/30 83/2/30 56/2/30
f 75/2/31 45/2/31 84/2/31
f 84/2/31 80/2/31 75/2/31
f 85/2/32 41/2/32 87/2/32
f 41/2/32 85/2/32 44/2/32
f 89/1/33 90/1/33 91/1/33
f 90/1/33 89/1/33 92/1/33
f 93/1/34 94/1/34 95/1/34
f 94/1/34 93/1/34 96/1/34
f 97/1/35 98/1/35 99/1/35
f 98/1/35 97/1/35 100/1/35
f 101/1/36 102/1/36 103/1/36
f 103/1/36 104/1/36 101/1/36
f 105/1/5 106/1/5 102/1/5
f 102/1/5 107/1/5 105/1/5
f 104/1/6 108/1/6 101/1/6
f 108/1/6 104/1/6 92/1/6
f 101/1/6 109/1/6 110/1/6
f 109/1/6 101/1/6 108/1/6
f 106/1/37 90/1/37 103/1/37
f 103/1/37 102/1/37 106/1/37
f 110/1/36 107/1/36 102/1/36
f 102/1/36 101/1/36 110/1/36
f 96/1/34 91/1/34 94/1/34
f 91/1/34 96/1/34 89/1/34
f 111/1/38 112/1/38 113/1/38
f 113/1/38 114/1/38 111/1/38
f 115/1/39 116/1/39 117/1/39
f 116/1/39 115/1/39 118/1/39
f 115/1/40 113/1/40 118/1/40
f 113/1/40 115/1/40 114/1/40
f 119/1/5 120/1/5 121/1/5
f 121/1/5 122/1/5 119/1/5
f 117/1/34 114/1/34 115/1/34
f 114/1/34 117/1/34 111/1/34
f 123/1/36 119/1/36 122/1/36
f 122/1/36 124/1/36 123/1/36
f 112/1/5 111/1/5 117/1/5
f 117/1/5 116/1/5 112/1/5
f 120/1/5 112/1/5 116/1/5
f 116/1/5 121/1/5 120/1/5
f 125/1/41 123/1/41 124/1/41
f 123/1/41 125/1/41 126/1/41
f 118/1/6 126/1/6 125/1/6
f 126/1/6 118/1/6 113/1/6
f 125/1/42 122/1/42 121/1/42
f 122/1/42 125/1/42 124/1/42
f 118/1/33 121/1/33 116/1/33
f 121/1/33 118/1/33 125/1/33
f 120/1/38 119/1/38 123/1/38
f 123/1/38 126/1/38 120/1/38
f 112/1/38 120/1/38 126/1/38
f 126/1/38 113/1/38 112/1/38
f 99/1/43 127/1/43 128/1/43
f 128/1/43 97/1/43 99/1/43
f 129/1/44 130/1/44 131/1/44
f 130/1/44 129/1/44 132/1/44
f 133/1/45 100/1/45 97/1/45
f 97/1/45 128/1/45 133/1/45
f 130/1/46 134/1/46 127/1/46
f 127/1/46 131/1/46 130/1/46
f 95/1/47 105/1/47 134/1/47
f 134/1/47 130/1/47 95/1/47
f 107/1/48 110/1/48 100/1/48
f 100/1/48 133/1/48 107/1/48
f 132/1/49 95/1/49 130/1/49
f 95/1/49 132/1/49 93/1/49
f 100/1/50 109/1/50 98/1/50
f 109/1/50 100/1/50 110/1/50
f 98/1/50 93/1/50 132/1/50
f 93/1/50 98/1/50 109/1/50
f 105/1/47 107/1/47 133/1/47
f 133/1/47 134/1/47 105/1/47
f 134/1/51 133/1/51 128/1/51
f 128/1/51 127/1/51 134/1/51
f 129/1/52 131/1/52 127/1/52
f 127/1/52 99/1/52 129/1/52
f 94/1/37 91/1/37 90/1/37
f 90/1/37 106/1/37 94/1/37
f 108/1/6 93/1/6 109/1/6
f 93/1/6 108/1/6 96/1/6
f 92/1/6 96/1/6 108/1/6
f 96/1/6 92/1/6 89/1/6
f 95/1/5 94/1/5 106/1/5
f 106/1/5 105/1/5 95/1/5
f 99/1/53 132/1/53 129/1/53
f 132/1/53 99/1/53 98/1/53
f 92/1/33 103/1/33 90/1/33
f 103/1/33 92/1/33 104/1/33
f 135/4/5 136/4/5 137/4/5
f 137/4/5 138/4/5 135/4/5
f 139/4/6 140/4/6 141/4/6
f 140/4/6 139/4/6 142/4/6
f 139/4/33 137/4/33 142/4/33
f 137/4/33 139/4/33 138/4/33
f 135/4/36 138/4/36 139/4/36
f 139/4/36 141/4/36 135/4/36
f 135/4/54 141/4/54 143/4/54
f 143/4/54 144/4/54 135/4/54
f 142/4/34 136/4/34 140/4/34
f 136/4/34 142/4/34 137/4/34
f 145/4/36 146/4/36 147/4/36
f 147/4/36 148/4/36 145/4/36
f 149/4/34 150/4/34 151/4/34
f 150/4/34 149/4/34 152/4/34
f 149/4/55 148/4/55 147/4/55
f 147/4/55 152/4/55 149/4/55
f 151/4/56 146/4/56 145/4/56
f 146/4/56 151/4/56 150/4/56
f 149/4/57 145/4/57 148/4/57
f 145/4/57 149/4/57 151/4/57
f 152/4/58 147/4/58 146/4/58
f 146/4/58 150/4/58 152/4/58
f 153/4/36 154/4/36 155/4/36
f 155/4/36 156/4/36 153/4/36
f 157/4/34 158/4/34 159/4/34
f 158/4/34 157/4/34 160/4/34
f 157/4/55 156/4/55 155/4/55
f 155/4/55 160/4/55 157/4/55
f 159/4/56 154/4/56 153/4/56
f 154/4/56 159/4/56 158/4/56
f 157/4/57 153/4/57 156/4/57
f 153/4/57 157/4/57 159/4/57
f 160/4/58 155/4/58 154/4/58
f 154/4/58 158/4/58 160/4/58
f 161/4/36 162/4/36 163/4/36
f 163/4/36 164/4/36 161/4/36
f 165/4/34 166/4/34 167/4/34
f 166/4/34 165/4/34 168/4/34
f 165/4/55 164/4/55 163/4/55
f 163/4/55 168/4/55 165/4/55
f 167/4/56 162/4/56 161/4/56
f 162/4/56 167/4/56 166/4/56
f 165/4/57 161/4/57 164/4/57
f 161/4/57 165/4/57 167/4/57
f 168/4/58 163/4/58 162/4/58
f 162/4/58 166/4/58 168/4/58
f 169/4/34 170/4/34 171/4/34
f 170/4/34 169/4/34 172/4/34
f 173/4/36 174/4/36 175/4/36
f 175/4/36 176/4/36 173/4/36
f 172/4/55 169/4/55 176/4/55
f 176/4/55 175/4/55 172/4/55
f 173/4/56 170/4/56 174/4/56
f 170/4/56 173/4/56 171/4/56
f 176/4/57 171/4/57 173/4/57
f 171/4/57 176/4/57 169/4/57
f 170/4/58 172/4/58 175/4/58
f 175/4/58 174/4/58 170/4/58
f 177/4/34 178/4/34 179/4/34
f 178/4/34 177/4/34 180/4/34
f 181/4/36 182/4/36 183/4/36
f 183/4/36 184/4/36 181/4/36
f 180/4/55 177/4/55 184/4/55
f 184/4/55 183/4/55 180/4/55
f 181/4/56 178/4/56 182/4/56
f 178/4/56 181/4/56 179/4/56
f 184/4/57 179/4/57 181/4/57
f 179/4/57 184/4/57 177/4/57
f 178/4/58 180/4/58 183/4/58
f 183/4/58 182/4/58 178/4/58
f 185/4/34 186/4/34 187/4/34
f 186/4/34 185/4/34 188/4/34
f 189/4/36 190/4/36 191/4/36
f 191/4/36 192/4/36 189/4/36
f 188/4/55 185/4/55 192/4/55
f 192/4/55 191/4/55 188/4/55
f 189/4/56 186/4/56 190/4/56
f 186/4/56 189/4/56 187/4/56
f 192/4/57 187/4/57 189/4/57
f 187/4/57 192/4/57 185/4/57
f 186/4/58 188/4/58 191/4/58
f 191/4/58 190/4/58 186/4/58
f 193/4/59 144/4/59 143/4/59
f 143/4/59 194/4/59 193/4/59
f 143/4/60 140/4/60 194/4/60
f 140/4/60 143/4/60 141/4/60
f 136/4/61 135/4/61 144/4/61
f 144/4/61 193/4/61 136/4/61
f 194/4/62 136/4/62 193/4/62
f 136/4/62 194/4/62 140/4/62
f 195/4/5 196/4/5 197/4/5
f 197/4/5 198/4/5 195/4/5
f 199/4/6 200/4/6 201/4/6
f 200/4/6 199/4/6 202/4/6
f 199/4/33 197/4/33 202/4/33
f 197/4/33 199/4/33 198/4/33
f 195/4/36 198/4/36 199/4/36
f 199/4/36 201/4/36 195/4/36
f 195/4/63 201/4/63 203/4/63
f 203/4/63 204/4/63 195/4/63
f 202/4/34 196/4/34 200/4/34
f 196/4/34 202/4/34 197/4/34
f 205/4/59 204/4/59 203/4/59
f 203/4/59 206/4/59 205/4/59
f 203/4/64 200/4/64 206/4/64
f 200/4/64 203/4/64 201/4/64
f 196/4/65 195/4/65 204/4/65
f 204/4/65 205/4/65 196/4/65
f 206/4/66 196/4/66 205/4/66
f 196/4/66 206/4/66 200/4/66
f 207/4/5 208/4/5 209/4/5
f 209/4/5 210/4/5 207/4/5
f 211/4/6 212/4/6 213/4/6
f 212/4/6 211/4/6 214/4/6
f 211/4/33 209/4/33 214/4/33
f 209/4/33 211/4/33 210/4/33
f 207/4/36 210/4/36 211/4/36
f 211/4/36 213/4/36 207/4/36
f 207/4/67 213/4/67 215/4/67
f 215/4/67 216/4/67 207/4/67
f 214/4/34 208/4/34 212/4/34
f 208/4/34 214/4/34 209/4/34
f 217/4/59 216/4/59 215/4/59
f 215/4/59 218/4/59 217/4/59
f 215/4/68 212/4/68 218/4/68
f 212/4/68 215/4/68 213/4/68
f 208/4/69 207/4/69 216/4/69
f 216/4/69 217/4/69 208/4/69
f 218/4/70 208/4/70 217/4/70
f 208/4/70 218/4/70 212/4/70
f 219/4/5 220/4/5 221/4/5
f 221/4/5 222/4/5 219/4/5
f 223/4/6 224/4/6 225/4/6
f 224/4/6 223/4/6 226/4/6
f 223/4/33 219/4/33 222/4/33
f 219/4/33 223/4/33 225/4/33
f 226/4/34 222/4/34 221/4/34
f 222/4/34 226/4/34 223/4/34
f 227/4/71 226/4/71 221/4/71
f 226/4/71 227/4/71 228/4/71
f 224/4/36 220/4/36 219/4/36
f 219/4/36 225/4/36 224/4/36
f 228/4/59 227/4/59 229/4/59
f 229/4/59 230/4/59 228/4/59
f 228/4/60 224/4/60 226/4/60
f 224/4/60 228/4/60 230/4/60
f 227/4/61 221/4/61 220/4/61
f 220/4/61 229/4/61 227/4/61
f 229/4/72 220/4/72 224/4/72
f 224/4/72 230/4/72 229/4/72
f 231/4/5 232/4/5 233/4/5
f 233/4/5 234/4/5 231/4/5
f 235/4/6 236/4/6 237/4/6
f 236/4/6 235/4/6 238/4/6
f 235/4/33 231/4/33 234/4/33
f 231/4/33 235/4/33 237/4/33
f 238/4/34 234/4/34 233/4/34
f 234/4/34 238/4/34 235/4/34
f 239/4/73 238/4/73 233/4/73
f 238/4/73 239/4/73 240/4/73
f 236/4/36 232/4/36 231/4/36
f 231/4/36 237/4/36 236/4/36
f 240/4/59 239/4/59 241/4/59
f 241/4/59 242/4/59 240/4/59
f 240/4/64 236/4/64 238/4/64
f 236/4/64 240/4/64 242/4/64
f 239/4/65 233/4/65 232/4/65
f 232/4/65 241/4/65 239/4/65
f 241/4/74 232/4/74 236/4/74
f 236/4/74 242/4/74 241/4/74
f 243/4/5 244/4/5 245/4/5
f 245/4/5 246/4/5 243/4/5
f 247/4/6 248/4/6 249/4/6
f 248/4/6 247/4/6 250/4/6
f 247/4/33 243/4/33 246/4/33
f 243/4/33 247/4/33 249/4/33
f 250/4/34 246/4/34 245/4/34
f 246/4/34 250/4/34 247/4/34
f 251/4/75 250/4/75 245/4/75
f 250/4/75 251/4/75 252/4/75
f 248/4/36 244/4/36 243/4/36
f 243/4/36 249/4/36 248/4/36
f 252/4/59 251/4/59 253/4/59
f 253/4/59 254/4/59 252/4/59
f 252/4/68 248/4/68 250/4/68
f 248/4/68 252/4/68 254/4/68
f 251/4/69 245/4/69 244/4/69
f 244/4/69 253/4/69 251/4/69
f 253/4/76 244/4/76 248/4/76
f 248/4/76 254/4/76 253/4/76
f 255/4/77 256/4/77 257/4/77
f 257/4/77 258/4/77 255/4/77
f 259/4/78 257/4/78 260/4/78
f 257/4/78 259/4/78 258/4/78
f 261/4/79 260/4/79 262/4/79
f 260/4/79 261/4/79 259/4/79
f 255/4/80 262/4/80 256/4/80
f 262/4/80 255/4/80 261/4/80
f 260/4/5 257/4/5 256/4/5
f 256/4/5 262/4/5 260/4/5
f 255/4/6 259/4/6 261/4/6
f 259/4/6 255/4/6 258/4/6
f 263/4/77 264/4/77 265/4/77
f 265/4/77 266/4/77 263/4/77
f 266/4/78 265/4/78 267/4/78
f 267/4/78 268/4/78 266/4/78
f 269/4/79 267/4/79 270/4/79
f 267/4/79 269/4/79 268/4/79
f 263/4/80 270/4/80 264/4/80
f 270/4/80 263/4/80 269/4/80
f 267/4/5 265/4/5 264/4/5
f 264/4/5 270/4/5 267/4/5
f 263/4/6 268/4/6 269/4/6
f 268/4/6 263/4/6 266/4/6
f 271/4/77 272/4/77 273/4/77
f 273/4/77 274/4/77 271/4/77
f 275/4/78 273/4/78 276/4/78
f 273/4/78 275/4/78 274/4/78
f 277/4/79 276/4/79 278/4/79
f 276/4/79 277/4/79 275/4/79
f 271/4/80 278/4/80 272/4/80
f 278/4/80 271/4/80 277/4/80
f 276/4/5 273/4/5 272/4/5
f 272/4/5 278/4/5 276/4/5
f 271/4/6 275/4/6 277/4/6
f 275/4/6 271/4/6 274/4/6
f 279/4/77 280/4/77 281/4/77
f 281/4/77 282/4/77 279/4/77
f 282/4/78 281/4/78 283/4/78
f 283/4/78 284/4/78 282/4/78
f 285/4/79 283/4/79 286/4/79
f 283/4/79 285/4/79 284/4/79
f 279/4/80 286/4/80 280/4/80
f 286/4/80 279/4/80 285/4/80
f 283/4/5 281/4/5 280/4/5
f 280/4/5 286/4/5 283/4/5
f 279/4/6 284/4/6 285/4/6
f 284/4/6 279/4/6 282/4/6
f 287/4/77 288/4/77 289/4/77
f 289/4/77 290/4/77 287/4/77
f 291/4/78 289/4/78 292/4/78
f 289/4/78 291/4/78 290/4/78
f 293/4/79 292/4/79 294/4/79
f 292/4/79 293/4/79 291/4/79
f 287/4/80 294/4/80 288/4/80
f 294/4/80 287/4/80 293/4/80
f 292/4/5 289/4/5 288/4/5
f 288/4/5 294/4/5 292/4/5
f 287/4/6 291/4/6 293/4/6
f 291/4/6 287/4/6 290/4/6
f 295/4/77 296/4/77 297/4/77
f 297/4/77 298/4/77 295/4/77
f 298/4/78 297/4/78 299/4/78
f 299/4/78 300/4/78 298/4/78
f 301/4/79 299/4/79 302/4/79
f 299/4/79 301/4/79 300/4/79
f 295/4/80 302/4/80 296/4/80
f 302/4/80 295/4/80 301/4/80
f 299/4/5 297/4/5 296/4/5
f 296/4/5 302/4/5 299/4/5
f 295/4/6 300/4/6 301/4/6
f 300/4/6 295/4/6 298/4/6
