# Generated by tools/make-block-meshes.py -- edit that, not this.
# Cymbal by Poly by Google, CC-BY 3.0, from https://poly.pizza/m/f8SdBE98BXE
v -0.00000 0.10511 0.04365
v -0.02051 0.10309 0.04365
v -0.01045 0.05255 0.05681
v -0.00000 0.15260 0.02228
v -0.02977 0.14967 0.02228
v -0.00000 0.19422 -0.00648
v -0.03789 0.19049 -0.00648
v -0.04022 0.09711 0.04365
v -0.05840 0.14099 0.02228
v -0.07433 0.17944 -0.00648
v -0.02051 0.04951 0.05681
v -0.05840 0.08740 0.04365
v -0.08478 0.12688 0.02228
v -0.10791 0.16149 -0.00648
v -0.02977 0.04455 0.05681
v -0.07433 0.07433 0.04365
v -0.10791 0.10791 0.02228
v -0.13734 0.13734 -0.00648
v -0.03789 0.03789 0.05681
v -0.08740 0.05840 0.04365
v -0.12688 0.08478 0.02228
v -0.16149 0.10791 -0.00648
v -0.04455 0.02977 0.05681
v -0.09711 0.04022 0.04365
v -0.14099 0.05840 0.02228
v -0.17944 0.07433 -0.00648
v -0.14967 0.02977 0.02228
v -0.19049 0.03789 -0.00648
v -0.04951 0.02051 0.05681
v -0.10309 0.02051 0.04365
v -0.05255 0.01045 0.05681
v -0.10511 -0.00000 0.04365
v -0.15260 -0.00000 0.02228
v -0.19422 -0.00000 -0.00648
v -0.14967 -0.02977 0.02228
v -0.19049 -0.03789 -0.00648
v -0.05358 -0.00000 0.05681
v -0.10309 -0.02051 0.04365
v -0.05255 -0.01045 0.05681
v -0.09711 -0.04022 0.04365
v -0.14099 -0.05840 0.02228
v -0.17944 -0.07433 -0.00648
v -0.16149 -0.10791 -0.00648
v -0.04951 -0.02051 0.05681
v -0.08740 -0.05840 0.04365
v -0.12688 -0.08478 0.02228
v -0.04455 -0.02977 0.05681
v -0.07433 -0.07433 0.04365
v -0.10791 -0.10791 0.02228
v -0.13734 -0.13734 -0.00648
v -0.03789 -0.03789 0.05681
v -0.05840 -0.08740 0.04365
v -0.08478 -0.12688 0.02228
v -0.10791 -0.16149 -0.00648
v -0.02977 -0.04455 0.05681
v -0.04022 -0.09711 0.04365
v -0.05840 -0.14099 0.02228
v -0.07433 -0.17944 -0.00648
v -0.02051 -0.04951 0.05681
v -0.02051 -0.10309 0.04365
v -0.02977 -0.14967 0.02228
v -0.03789 -0.19049 -0.00648
v -0.01045 -0.05255 0.05681
v -0.00000 -0.10511 0.04365
v -0.00000 -0.15260 0.02228
v -0.00000 -0.19422 -0.00648
v -0.00000 -0.05358 0.05681
v 0.02051 -0.10309 0.04365
v 0.02977 -0.14967 0.02228
v 0.03789 -0.19049 -0.00648
v 0.01045 -0.05255 0.05681
v 0.04022 -0.09711 0.04365
v 0.05840 -0.14099 0.02228
v 0.07433 -0.17944 -0.00648
v 0.02051 -0.04951 0.05681
v 0.05840 -0.08740 0.04365
v 0.08478 -0.12688 0.02228
v 0.10791 -0.16149 -0.00648
v 0.10791 -0.10791 0.02228
v 0.13734 -0.13734 -0.00648
v 0.02977 -0.04455 0.05681
v 0.07433 -0.07433 0.04365
v 0.03789 -0.03789 0.05681
v 0.08740 -0.05840 0.04365
v 0.12688 -0.08478 0.02228
v 0.16149 -0.10791 -0.00648
v 0.17944 -0.07433 -0.00648
v 0.04455 -0.02977 0.05681
v 0.09711 -0.04022 0.04365
v 0.14099 -0.05840 0.02228
v 0.04951 -0.02051 0.05681
v 0.10309 -0.02051 0.04365
v 0.14967 -0.02977 0.02228
v 0.19049 -0.03789 -0.00648
v 0.19422 -0.00000 -0.00648
v 0.15260 -0.00000 0.02228
v 0.05255 -0.01045 0.05681
v 0.10511 -0.00000 0.04365
v 0.05358 -0.00000 0.05681
v 0.10309 0.02051 0.04365
v 0.14967 0.02977 0.02228
v 0.19049 0.03789 -0.00648
v 0.05255 0.01045 0.05681
v 0.09711 0.04022 0.04365
v 0.14099 0.05840 0.02228
v 0.17944 0.07433 -0.00648
v 0.04951 0.02051 0.05681
v 0.08740 0.05840 0.04365
v 0.12688 0.08478 0.02228
v 0.16149 0.10791 -0.00648
v 0.04455 0.02977 0.05681
v 0.07433 0.07433 0.04365
v 0.10791 0.10791 0.02228
v 0.13734 0.13734 -0.00648
v 0.05840 0.08740 0.04365
v 0.02977 0.04455 0.05681
v 0.08478 0.12688 0.02228
v 0.10791 0.16149 -0.00648
v 0.04022 0.09711 0.04365
v 0.05840 0.14099 0.02228
v 0.07433 0.17944 -0.00648
v 0.02977 0.14967 0.02228
v 0.03789 0.19049 -0.00648
v 0.02051 0.10309 0.04365
v 0.01045 0.05255 0.05681
v -0.00000 0.67884 -0.03062
v 0.13244 0.66580 -0.03062
v 0.15607 0.78463 -0.04633
v -0.13244 0.66580 -0.03062
v -0.15607 0.78463 -0.04633
v -0.30615 0.73910 -0.04633
v 0.13244 -0.66580 -0.03062
v -0.00000 -0.67884 -0.03062
v -0.00000 -0.80000 -0.04633
v 0.25978 -0.62717 -0.03062
v 0.30615 -0.73910 -0.04633
v 0.44446 -0.66518 -0.04633
v 0.56444 -0.37714 -0.03062
v 0.48002 -0.48002 -0.03062
v 0.56568 -0.56568 -0.04633
v 0.62717 -0.25978 -0.03062
v 0.73910 -0.30615 -0.04633
v 0.78463 -0.15607 -0.04633
v -0.48002 0.48002 -0.03062
v -0.37714 0.56444 -0.03062
v -0.44446 0.66518 -0.04633
v 0.66580 0.13244 -0.03062
v 0.67884 -0.00000 -0.03062
v 0.80000 -0.00000 -0.04633
v -0.62717 0.25978 -0.03062
v -0.56444 0.37714 -0.03062
v -0.66518 0.44446 -0.04633
v 0.56444 0.37714 -0.03062
v 0.62717 0.25978 -0.03062
v 0.73910 0.30615 -0.04633
v -0.67884 -0.00000 -0.03062
v -0.66580 0.13244 -0.03062
v -0.78463 0.15607 -0.04633
v 0.25978 0.62717 -0.03062
v 0.30615 0.73910 -0.04633
v 0.48002 0.48002 -0.03062
v 0.56568 0.56568 -0.04633
v 0.44446 0.66518 -0.04633
v -0.66580 -0.13244 -0.03062
v -0.78463 -0.15607 -0.04633
v -0.73910 -0.30615 -0.04633
v -0.00000 0.80000 -0.04633
v -0.48002 -0.48002 -0.03062
v -0.56444 -0.37714 -0.03062
v -0.66518 -0.44446 -0.04633
v -0.37714 -0.56444 -0.03062
v -0.44446 -0.66518 -0.04633
v -0.30615 -0.73910 -0.04633
v 0.66518 -0.44446 -0.04633
v -0.13244 -0.66580 -0.03062
v -0.15607 -0.78463 -0.04633
v 0.66580 -0.13244 -0.03062
v 0.15607 -0.78463 -0.04633
v 0.78463 0.15607 -0.04633
v 0.37714 -0.56444 -0.03062
v 0.66518 0.44446 -0.04633
v -0.62717 -0.25978 -0.03062
v -0.56568 -0.56568 -0.04633
v -0.25978 0.62717 -0.03062
v -0.73910 0.30615 -0.04633
v -0.25978 -0.62717 -0.03062
v -0.56568 0.56568 -0.04633
v -0.80000 -0.00000 -0.04633
v 0.37714 0.56444 -0.03062
v 0.17521 0.26223 -0.01056
v 0.12069 0.29137 -0.01056
v 0.24252 0.36296 -0.01500
v 0.16705 0.40331 -0.01500
v 0.30984 0.46370 -0.02082
v 0.21342 0.51524 -0.02082
v -0.31538 -0.00000 -0.01056
v -0.30932 -0.06153 -0.01056
v -0.43653 -0.00000 -0.01500
v -0.42814 -0.08516 -0.01500
v -0.55769 -0.00000 -0.02082
v -0.54697 -0.10880 -0.02082
v -0.22301 0.22301 -0.01056
v -0.26223 0.17521 -0.01056
v -0.30867 0.30867 -0.01500
v -0.36296 0.24253 -0.01500
v -0.39435 0.39435 -0.02082
v -0.46370 0.30984 -0.02082
v -0.12069 -0.29137 -0.01056
v -0.06153 -0.30932 -0.01056
v -0.16705 -0.40331 -0.01500
v -0.08516 -0.42814 -0.01500
v -0.21342 -0.51524 -0.02082
v -0.10880 -0.54697 -0.02082
v -0.29137 0.12069 -0.01056
v -0.30932 0.06153 -0.01056
v -0.40331 0.16705 -0.01500
v -0.51524 0.21342 -0.02082
v -0.54697 0.10880 -0.02082
v -0.12069 0.29137 -0.01056
v -0.17521 0.26223 -0.01056
v -0.16705 0.40331 -0.01500
v -0.21342 0.51524 -0.02082
v -0.30984 0.46370 -0.02082
v -0.22301 -0.22301 -0.01056
v -0.17521 -0.26223 -0.01056
v -0.30867 -0.30867 -0.01500
v -0.24252 -0.36296 -0.01500
v -0.39434 -0.39435 -0.02082
v -0.30984 -0.46370 -0.02082
v -0.29137 -0.12069 -0.01056
v -0.26223 -0.17521 -0.01056
v -0.40331 -0.16705 -0.01500
v -0.36296 -0.24253 -0.01500
v -0.51524 -0.21342 -0.02082
v -0.46370 -0.30984 -0.02082
v 0.26223 0.17521 -0.01056
v 0.22301 0.22301 -0.01056
v 0.36296 0.24253 -0.01500
v 0.30867 0.30867 -0.01500
v 0.46370 0.30984 -0.02082
v 0.39434 0.39435 -0.02082
v 0.17521 -0.26223 -0.01056
v 0.22301 -0.22301 -0.01056
v 0.24253 -0.36296 -0.01500
v 0.30867 -0.30867 -0.01500
v 0.30984 -0.46370 -0.02082
v 0.39435 -0.39434 -0.02082
v 0.30932 0.06153 -0.01056
v 0.29137 0.12069 -0.01056
v 0.42814 0.08516 -0.01500
v 0.40331 0.16705 -0.01500
v 0.54697 0.10880 -0.02082
v 0.51524 0.21342 -0.02082
v 0.06153 -0.30932 -0.01056
v 0.12069 -0.29137 -0.01056
v 0.08516 -0.42814 -0.01500
v 0.10880 -0.54697 -0.02082
v 0.21342 -0.51524 -0.02082
v 0.30932 -0.06153 -0.01056
v 0.42814 -0.08516 -0.01500
v 0.43653 -0.00000 -0.01500
v 0.54697 -0.10880 -0.02082
v 0.55769 -0.00000 -0.02082
v -0.00000 -0.43653 -0.01500
v -0.00000 -0.55769 -0.02082
v 0.26223 -0.17521 -0.01056
v 0.29137 -0.12069 -0.01056
v 0.36296 -0.24252 -0.01500
v 0.40331 -0.16705 -0.01500
v 0.46370 -0.30984 -0.02082
v 0.51524 -0.21342 -0.02082
v -0.00000 0.31538 -0.01056
v -0.06153 0.30932 -0.01056
v -0.00000 0.43653 -0.01500
v -0.08516 0.42814 -0.01500
v -0.00000 0.55769 -0.02082
v -0.10880 0.54697 -0.02082
v 0.06153 0.30932 -0.01056
v 0.08516 0.42814 -0.01500
v 0.10880 0.54697 -0.02082
v -0.42814 0.08516 -0.01500
v 0.31538 -0.00000 -0.01056
v -0.24253 0.36296 -0.01500
v 0.16705 -0.40331 -0.01500
v -0.00000 -0.31538 -0.01056
v -0.01989 0.04802 0.04649
v -0.01014 0.05097 0.04649
v -0.02887 0.04321 0.04649
v -0.03675 0.03675 0.04649
v -0.04321 0.02887 0.04649
v -0.04802 0.01989 0.04649
v -0.05097 0.01014 0.04649
v -0.05197 -0.00000 0.04649
v -0.05097 -0.01014 0.04649
v -0.04802 -0.01989 0.04649
v -0.04321 -0.02887 0.04649
v -0.03675 -0.03675 0.04649
v -0.02887 -0.04321 0.04649
v -0.01989 -0.04802 0.04649
v -0.01014 -0.05097 0.04649
v -0.00000 -0.05197 0.04649
v 0.01014 -0.05097 0.04649
v 0.01989 -0.04802 0.04649
v 0.02887 -0.04321 0.04649
v 0.03675 -0.03675 0.04649
v 0.04321 -0.02887 0.04649
v 0.04802 -0.01989 0.04649
v 0.05097 -0.01014 0.04649
v 0.05197 -0.00000 0.04649
v 0.05097 0.01014 0.04649
v 0.04802 0.01989 0.04649
v 0.04321 0.02887 0.04649
v 0.03789 0.03789 0.05681
v 0.03675 0.03675 0.04649
v 0.02887 0.04321 0.04649
v 0.02051 0.04951 0.05681
v 0.01989 0.04802 0.04649
v 0.01014 0.05097 0.04649
v -0.00000 0.05358 0.05681
v -0.00000 0.05197 0.04649
v -0.15591 0.78381 -0.05681
v -0.30583 0.73834 -0.05681
v -0.44400 0.66448 -0.05681
v -0.56510 0.56510 -0.05681
v -0.66448 0.44400 -0.05681
v -0.73834 0.30583 -0.05681
v -0.78381 0.15591 -0.05681
v -0.79917 -0.00000 -0.05681
v -0.78381 -0.15591 -0.05681
v -0.73834 -0.30583 -0.05681
v -0.66448 -0.44400 -0.05681
v -0.56510 -0.56510 -0.05681
v -0.44400 -0.66448 -0.05681
v -0.30583 -0.73834 -0.05681
v -0.15591 -0.78381 -0.05681
v -0.00000 -0.79917 -0.05681
v 0.15591 -0.78381 -0.05681
v 0.30583 -0.73834 -0.05681
v 0.44400 -0.66448 -0.05681
v 0.56510 -0.56510 -0.05681
v 0.66448 -0.44400 -0.05681
v 0.73834 -0.30583 -0.05681
v 0.78381 -0.15591 -0.05681
v 0.79917 -0.00000 -0.05681
v 0.78381 0.15591 -0.05681
v 0.73834 0.30583 -0.05681
v 0.66448 0.44400 -0.05681
v 0.56510 0.56510 -0.05681
v 0.44400 0.66448 -0.05681
v 0.30583 0.73834 -0.05681
v 0.15591 0.78381 -0.05681
v -0.00000 0.79917 -0.05681
v -0.02008 0.10092 0.03351
v -0.00000 0.10290 0.03351
v -0.00000 0.14923 0.01267
v -0.00000 0.19221 -0.01669
v -0.02911 0.14636 0.01267
v -0.03938 0.09507 0.03351
v -0.05711 0.13787 0.01267
v -0.07355 0.17758 -0.01669
v -0.03750 0.18851 -0.01669
v -0.08291 0.12408 0.01267
v -0.05717 0.08555 0.03351
v -0.07276 0.07276 0.03351
v -0.10679 0.15982 -0.01669
v -0.10552 0.10552 0.01267
v -0.08555 0.05717 0.03351
v -0.12408 0.08291 0.01267
v -0.15982 0.10679 -0.01669
v -0.13591 0.13591 -0.01669
v -0.09507 0.03938 0.03351
v -0.17758 0.07355 -0.01669
v -0.13787 0.05711 0.01267
v -0.10092 0.02008 0.03351
v -0.14636 0.02911 0.01267
v -0.10290 -0.00000 0.03351
v -0.19221 -0.00000 -0.01669
v -0.18851 0.03750 -0.01669
v -0.14636 -0.02911 0.01267
v -0.14923 -0.00000 0.01267
v -0.10092 -0.02008 0.03351
v -0.09507 -0.03938 0.03351
v -0.13787 -0.05711 0.01267
v -0.17758 -0.07355 -0.01669
v -0.18851 -0.03750 -0.01669
v -0.12408 -0.08291 0.01267
v -0.08555 -0.05717 0.03351
v -0.07276 -0.07276 0.03351
v -0.15982 -0.10679 -0.01669
v -0.10552 -0.10552 0.01267
v -0.05717 -0.08555 0.03351
v -0.08291 -0.12408 0.01267
v -0.10679 -0.15982 -0.01669
v -0.13591 -0.13591 -0.01669
v -0.03938 -0.09507 0.03351
v -0.07355 -0.17758 -0.01669
v -0.05711 -0.13787 0.01267
v -0.02008 -0.10092 0.03351
v -0.02911 -0.14636 0.01267
v -0.00000 -0.10290 0.03351
v -0.00000 -0.19221 -0.01669
v -0.03750 -0.18851 -0.01669
v 0.02008 -0.10092 0.03351
v 0.02911 -0.14636 0.01267
v -0.00000 -0.14923 0.01267
v 0.03938 -0.09507 0.03351
v 0.05711 -0.13787 0.01267
v 0.07355 -0.17758 -0.01669
v 0.03750 -0.18851 -0.01669
v 0.08291 -0.12408 0.01267
v 0.05717 -0.08555 0.03351
v 0.07276 -0.07276 0.03351
v 0.10679 -0.15982 -0.01669
v 0.10552 -0.10552 0.01267
v 0.08555 -0.05717 0.03351
v 0.12408 -0.08291 0.01267
v 0.15982 -0.10679 -0.01669
v 0.13591 -0.13591 -0.01669
v 0.17758 -0.07355 -0.01669
v 0.09507 -0.03938 0.03351
v 0.13787 -0.05711 0.01267
v 0.10092 -0.02008 0.03351
v 0.14636 -0.02911 0.01267
v 0.19221 -0.00000 -0.01669
v 0.18851 -0.03750 -0.01669
v 0.10290 -0.00000 0.03351
v 0.10092 0.02008 0.03351
v 0.14636 0.02911 0.01267
v 0.14923 -0.00000 0.01267
v 0.09507 0.03938 0.03351
v 0.13787 0.05711 0.01267
v 0.17758 0.07355 -0.01669
v 0.18851 0.03750 -0.01669
v 0.12408 0.08291 0.01267
v 0.08555 0.05717 0.03351
v 0.07276 0.07276 0.03351
v 0.15982 0.10679 -0.01669
v 0.10552 0.10552 0.01267
v 0.05717 0.08555 0.03351
v 0.08291 0.12408 0.01267
v 0.10679 0.15982 -0.01669
v 0.13591 0.13591 -0.01669
v 0.03938 0.09507 0.03351
v 0.07355 0.17758 -0.01669
v 0.05711 0.13787 0.01267
v 0.02008 0.10092 0.03351
v 0.02911 0.14636 0.01267
v 0.03750 0.18851 -0.01669
v 0.13230 0.66513 -0.04111
v -0.00000 0.67816 -0.04111
v -0.13230 0.66513 -0.04111
v -0.25952 0.62654 -0.04111
v -0.00000 -0.67816 -0.04111
v 0.13230 -0.66513 -0.04111
v 0.25952 -0.62654 -0.04111
v 0.37676 -0.56387 -0.04111
v 0.47953 -0.47953 -0.04111
v 0.56387 -0.37676 -0.04111
v 0.62654 -0.25952 -0.04111
v 0.66513 -0.13230 -0.04111
v -0.37676 0.56387 -0.04111
v -0.47953 0.47953 -0.04111
v 0.67816 -0.00000 -0.04111
v 0.66513 0.13230 -0.04111
v -0.56387 0.37676 -0.04111
v -0.62654 0.25952 -0.04111
v 0.62654 0.25952 -0.04111
v 0.56387 0.37676 -0.04111
v -0.66513 0.13230 -0.04111
v -0.67816 -0.00000 -0.04111
v 0.25952 0.62654 -0.04111
v 0.47953 0.47953 -0.04111
v 0.37676 0.56387 -0.04111
v -0.66513 -0.13230 -0.04111
v -0.62654 -0.25952 -0.04111
v -0.56387 -0.37676 -0.04111
v -0.47953 -0.47953 -0.04111
v -0.37676 -0.56387 -0.04111
v -0.25952 -0.62654 -0.04111
v -0.13230 -0.66513 -0.04111
v 0.12060 0.29116 -0.02109
v 0.17509 0.26204 -0.02109
v 0.16695 0.40305 -0.02553
v 0.30960 0.46335 -0.03134
v 0.24237 0.36274 -0.02553
v 0.21326 0.51485 -0.03134
v -0.31515 -0.00000 -0.02109
v -0.43626 -0.00000 -0.02553
v -0.30909 -0.06148 -0.02109
v -0.55727 -0.00000 -0.03134
v -0.42788 -0.08511 -0.02553
v -0.54656 -0.10872 -0.03134
v -0.22285 0.22285 -0.02109
v -0.30848 0.30848 -0.02553
v -0.26204 0.17509 -0.02109
v -0.39405 0.39405 -0.03134
v -0.36274 0.24237 -0.02553
v -0.46335 0.30960 -0.03134
v -0.12060 -0.29116 -0.02109
v -0.16695 -0.40305 -0.02553
v -0.06148 -0.30909 -0.02109
v -0.21326 -0.51485 -0.03134
v -0.08511 -0.42788 -0.02553
v -0.10872 -0.54656 -0.03134
v -0.29116 0.12060 -0.02109
v -0.40305 0.16695 -0.02553
v -0.30909 0.06148 -0.02109
v -0.51485 0.21326 -0.03134
v -0.42788 0.08511 -0.02553
v -0.54656 0.10872 -0.03134
v -0.12060 0.29116 -0.02109
v -0.16695 0.40305 -0.02553
v -0.17509 0.26204 -0.02109
v -0.24237 0.36274 -0.02553
v -0.30960 0.46335 -0.03134
v -0.21326 0.51485 -0.03134
v -0.22285 -0.22285 -0.02109
v -0.30848 -0.30848 -0.02553
v -0.17509 -0.26204 -0.02109
v -0.39405 -0.39405 -0.03134
v -0.24237 -0.36274 -0.02553
v -0.30960 -0.46335 -0.03134
v -0.29116 -0.12060 -0.02109
v -0.40305 -0.16695 -0.02553
v -0.26204 -0.17509 -0.02109
v -0.36274 -0.24237 -0.02553
v -0.46335 -0.30960 -0.03134
v -0.51485 -0.21326 -0.03134
v 0.22285 0.22285 -0.02109
v 0.26204 0.17509 -0.02109
v 0.30848 0.30848 -0.02553
v 0.36274 0.24237 -0.02553
v 0.39405 0.39405 -0.03134
v 0.46335 0.30960 -0.03134
v 0.22285 -0.22285 -0.02109
v 0.17509 -0.26204 -0.02109
v 0.30848 -0.30848 -0.02553
v 0.24237 -0.36274 -0.02553
v 0.39405 -0.39405 -0.03134
v 0.30960 -0.46335 -0.03134
v 0.29116 0.12060 -0.02109
v 0.30909 0.06148 -0.02109
v 0.40305 0.16695 -0.02553
v 0.42788 0.08511 -0.02553
v 0.51485 0.21326 -0.03134
v 0.54656 0.10872 -0.03134
v 0.12060 -0.29116 -0.02109
v 0.06148 -0.30909 -0.02109
v 0.16695 -0.40305 -0.02553
v 0.10872 -0.54656 -0.03134
v 0.08511 -0.42788 -0.02553
v 0.21326 -0.51485 -0.03134
v 0.31515 -0.00000 -0.02109
v 0.30909 -0.06148 -0.02109
v 0.43626 -0.00000 -0.02553
v 0.42788 -0.08511 -0.02553
v 0.55727 -0.00000 -0.03134
v 0.54656 -0.10872 -0.03134
v -0.00000 -0.31515 -0.02109
v -0.00000 -0.43626 -0.02553
v -0.00000 -0.55727 -0.03134
v 0.29116 -0.12060 -0.02109
v 0.26204 -0.17509 -0.02109
v 0.40305 -0.16695 -0.02553
v 0.46335 -0.30960 -0.03134
v 0.36274 -0.24237 -0.02553
v 0.51485 -0.21326 -0.03134
v -0.00000 0.31515 -0.02109
v -0.00000 0.43626 -0.02553
v -0.06148 0.30909 -0.02109
v -0.00000 0.55727 -0.03134
v -0.08511 0.42788 -0.02553
v -0.10872 0.54656 -0.03134
v 0.06148 0.30909 -0.02109
v 0.08511 0.42788 -0.02553
v 0.10872 0.54656 -0.03134
vt 0.50000 0.50000
vn -0.0000 0.3350 0.9422
vn -0.0653 0.3285 0.9422
vn 0.1007 -0.5065 0.8563
vn -0.0000 0.4958 0.8684
vn -0.0967 0.4863 0.8684
vn -0.0000 0.2977 0.9547
vn -0.0581 0.2920 0.9546
vn -0.1282 0.3095 0.9422
vn -0.1897 0.4580 0.8685
vn -0.1139 0.2751 0.9546
vn 0.1976 -0.4772 0.8563
vn -0.1861 0.2785 0.9422
vn -0.2754 0.4122 0.8685
vn -0.1654 0.2475 0.9547
vn 0.2869 -0.4294 0.8563
vn -0.2369 0.2369 0.9422
vn -0.3506 0.3506 0.8684
vn -0.2105 0.2105 0.9547
vn 0.3652 -0.3652 0.8563
vn -0.2785 0.1861 0.9422
vn -0.4122 0.2754 0.8685
vn -0.2475 0.1654 0.9547
vn 0.4294 -0.2869 0.8563
vn -0.3095 0.1282 0.9422
vn -0.4580 0.1897 0.8685
vn -0.2751 0.1139 0.9546
vn -0.4863 0.0967 0.8684
vn -0.2920 0.0581 0.9546
vn 0.4772 -0.1976 0.8563
vn -0.3285 0.0653 0.9422
vn 0.5065 -0.1007 0.8563
vn -0.3350 -0.0000 0.9422
vn -0.4958 -0.0000 0.8684
vn -0.2977 -0.0000 0.9547
vn -0.4863 -0.0967 0.8684
vn -0.2920 -0.0581 0.9546
vn 0.5165 -0.0000 0.8563
vn -0.3285 -0.0653 0.9422
vn 0.5065 0.1007 0.8563
vn -0.3095 -0.1282 0.9422
vn -0.4580 -0.1897 0.8685
vn -0.2751 -0.1139 0.9546
vn -0.2475 -0.1654 0.9547
vn 0.4772 0.1976 0.8563
vn -0.2785 -0.1861 0.9422
vn -0.4122 -0.2754 0.8685
vn 0.4294 0.2869 0.8563
vn -0.2369 -0.2369 0.9422
vn -0.3506 -0.3506 0.8684
vn -0.2105 -0.2105 0.9547
vn 0.3652 0.3652 0.8563
vn -0.1861 -0.2785 0.9422
vn -0.2754 -0.4122 0.8685
vn -0.1654 -0.2475 0.9547
vn 0.2869 0.4294 0.8563
vn -0.1282 -0.3095 0.9422
vn -0.1897 -0.4580 0.8685
vn -0.1139 -0.2751 0.9546
vn 0.1976 0.4772 0.8563
vn -0.0653 -0.3285 0.9422
vn -0.0967 -0.4863 0.8684
vn -0.0581 -0.2920 0.9546
vn 0.1007 0.5065 0.8563
vn -0.0000 -0.3350 0.9422
vn -0.0000 -0.4958 0.8684
vn -0.0000 -0.2977 0.9547
vn -0.0000 0.5165 0.8563
vn 0.0653 -0.3285 0.9422
vn 0.0967 -0.4863 0.8684
vn 0.0581 -0.2920 0.9546
vn -0.1007 0.5065 0.8563
vn 0.1282 -0.3095 0.9422
vn 0.1897 -0.4580 0.8685
vn 0.1139 -0.2751 0.9546
vn -0.1976 0.4772 0.8563
vn 0.1861 -0.2785 0.9422
vn 0.2754 -0.4122 0.8685
vn 0.1654 -0.2475 0.9547
vn 0.3506 -0.3506 0.8684
vn 0.2105 -0.2105 0.9547
vn -0.2869 0.4294 0.8563
vn 0.2369 -0.2369 0.9422
vn -0.3652 0.3652 0.8563
vn 0.2785 -0.1861 0.9422
vn 0.4122 -0.2754 0.8685
vn 0.2475 -0.1654 0.9547
vn 0.2751 -0.1139 0.9546
vn -0.4294 0.2869 0.8563
vn 0.3095 -0.1282 0.9422
vn 0.4580 -0.1897 0.8685
vn -0.4772 0.1976 0.8563
vn 0.3285 -0.0653 0.9422
vn 0.4863 -0.0967 0.8684
vn 0.2920 -0.0581 0.9546
vn 0.2977 -0.0000 0.9547
vn 0.4958 -0.0000 0.8684
vn -0.5065 0.1007 0.8563
vn 0.3350 -0.0000 0.9422
vn -0.5165 -0.0000 0.8563
vn 0.3285 0.0653 0.9422
vn 0.4863 0.0967 0.8684
vn 0.2920 0.0581 0.9546
vn -0.5065 -0.1007 0.8563
vn 0.3095 0.1282 0.9422
vn 0.4580 0.1897 0.8685
vn 0.2751 0.1139 0.9546
vn -0.4772 -0.1976 0.8563
vn 0.2785 0.1861 0.9422
vn 0.4122 0.2754 0.8685
vn 0.2475 0.1654 0.9547
vn -0.4294 -0.2869 0.8563
vn 0.2369 0.2369 0.9422
vn 0.3506 0.3506 0.8684
vn 0.2105 0.2105 0.9547
vn 0.1861 0.2785 0.9422
vn -0.2869 -0.4294 0.8563
vn 0.2754 0.4122 0.8685
vn 0.1654 0.2475 0.9547
vn 0.1282 0.3095 0.9422
vn 0.1897 0.4580 0.8685
vn 0.1139 0.2751 0.9546
vn 0.0967 0.4863 0.8684
vn 0.0581 0.2920 0.9546
vn 0.0653 0.3285 0.9422
vn -0.1007 -0.5065 0.8563
vn -0.0000 0.1061 0.9944
vn 0.0207 0.1041 0.9944
vn 0.1546 0.7775 0.6095
vn -0.0207 0.1041 0.9944
vn -0.1546 0.7775 0.6095
vn -0.3034 0.7324 0.6095
vn 0.0207 -0.1041 0.9944
vn -0.0000 -0.1061 0.9944
vn -0.0000 -0.7928 0.6095
vn 0.0406 -0.0981 0.9943
vn 0.3034 -0.7324 0.6095
vn 0.4404 -0.6591 0.6095
vn 0.0883 -0.0590 0.9943
vn 0.0750 -0.0750 0.9944
vn 0.5606 -0.5606 0.6095
vn 0.0981 -0.0406 0.9943
vn 0.7324 -0.3034 0.6095
vn 0.7775 -0.1546 0.6095
vn -0.0750 0.0750 0.9944
vn -0.0590 0.0883 0.9943
vn -0.4404 0.6591 0.6095
vn 0.1041 0.0207 0.9944
vn 0.1061 -0.0000 0.9944
vn 0.7928 -0.0000 0.6095
vn -0.0981 0.0406 0.9943
vn -0.0883 0.0590 0.9943
vn -0.6591 0.4404 0.6095
vn 0.0883 0.0590 0.9943
vn 0.0981 0.0406 0.9943
vn 0.7324 0.3034 0.6095
vn -0.1061 -0.0000 0.9944
vn -0.1041 0.0207 0.9944
vn -0.7775 0.1546 0.6095
vn 0.0406 0.0981 0.9943
vn 0.3034 0.7324 0.6095
vn 0.0750 0.0750 0.9944
vn 0.5606 0.5606 0.6095
vn 0.4404 0.6591 0.6095
vn -0.1041 -0.0207 0.9944
vn -0.7775 -0.1546 0.6095
vn -0.7324 -0.3034 0.6095
vn -0.0000 0.7928 0.6095
vn -0.0750 -0.0750 0.9944
vn -0.0883 -0.0590 0.9943
vn -0.6591 -0.4404 0.6095
vn -0.0590 -0.0883 0.9943
vn -0.4404 -0.6591 0.6095
vn -0.3034 -0.7324 0.6095
vn 0.6591 -0.4404 0.6095
vn -0.0207 -0.1041 0.9944
vn -0.1546 -0.7775 0.6095
vn 0.1041 -0.0207 0.9944
vn 0.1546 -0.7775 0.6095
vn 0.7775 0.1546 0.6095
vn 0.0590 -0.0883 0.9943
vn 0.6591 0.4404 0.6095
vn -0.0981 -0.0406 0.9943
vn -0.5606 -0.5606 0.6095
vn -0.0406 0.0981 0.9943
vn -0.7324 0.3034 0.6095
vn -0.0406 -0.0981 0.9943
vn -0.5606 0.5606 0.6095
vn -0.7928 -0.0000 0.6095
vn 0.0590 0.0883 0.9943
vn 0.0196 0.0293 0.9994
vn 0.0135 0.0325 0.9994
vn 0.0237 0.0355 0.9991
vn 0.0163 0.0394 0.9991
vn 0.0363 0.0543 0.9979
vn 0.0250 0.0603 0.9979
vn -0.0352 -0.0000 0.9994
vn -0.0345 -0.0069 0.9994
vn -0.0426 -0.0000 0.9991
vn -0.0418 -0.0083 0.9991
vn -0.0653 -0.0000 0.9979
vn -0.0641 -0.0127 0.9979
vn -0.0249 0.0249 0.9994
vn -0.0293 0.0196 0.9994
vn -0.0302 0.0302 0.9991
vn -0.0355 0.0237 0.9991
vn -0.0462 0.0462 0.9979
vn -0.0543 0.0363 0.9979
vn -0.0135 -0.0325 0.9994
vn -0.0069 -0.0345 0.9994
vn -0.0163 -0.0394 0.9991
vn -0.0083 -0.0418 0.9991
vn -0.0250 -0.0603 0.9979
vn -0.0127 -0.0641 0.9979
vn -0.0325 0.0135 0.9994
vn -0.0345 0.0069 0.9994
vn -0.0394 0.0163 0.9991
vn -0.0603 0.0250 0.9979
vn -0.0641 0.0127 0.9979
vn -0.0135 0.0325 0.9994
vn -0.0196 0.0293 0.9994
vn -0.0163 0.0394 0.9991
vn -0.0250 0.0603 0.9979
vn -0.0363 0.0543 0.9979
vn -0.0249 -0.0249 0.9994
vn -0.0196 -0.0293 0.9994
vn -0.0302 -0.0302 0.9991
vn -0.0237 -0.0355 0.9991
vn -0.0462 -0.0462 0.9979
vn -0.0363 -0.0543 0.9979
vn -0.0325 -0.0135 0.9994
vn -0.0293 -0.0196 0.9994
vn -0.0394 -0.0163 0.9991
vn -0.0355 -0.0237 0.9991
vn -0.0603 -0.0250 0.9979
vn -0.0543 -0.0363 0.9979
vn 0.0293 0.0196 0.9994
vn 0.0249 0.0249 0.9994
vn 0.0355 0.0237 0.9991
vn 0.0302 0.0302 0.9991
vn 0.0543 0.0363 0.9979
vn 0.0462 0.0462 0.9979
vn 0.0196 -0.0293 0.9994
vn 0.0249 -0.0249 0.9994
vn 0.0237 -0.0355 0.9991
vn 0.0302 -0.0302 0.9991
vn 0.0363 -0.0543 0.9979
vn 0.0462 -0.0462 0.9979
vn 0.0345 0.0069 0.9994
vn 0.0325 0.0135 0.9994
vn 0.0418 0.0083 0.9991
vn 0.0394 0.0163 0.9991
vn 0.0641 0.0127 0.9979
vn 0.0603 0.0250 0.9979
vn 0.0069 -0.0345 0.9994
vn 0.0135 -0.0325 0.9994
vn 0.0083 -0.0418 0.9991
vn 0.0127 -0.0641 0.9979
vn 0.0250 -0.0603 0.9979
vn 0.0345 -0.0069 0.9994
vn 0.0418 -0.0083 0.9991
vn 0.0426 -0.0000 0.9991
vn 0.0641 -0.0127 0.9979
vn 0.0653 -0.0000 0.9979
vn -0.0000 -0.0426 0.9991
vn -0.0000 -0.0653 0.9979
vn 0.0293 -0.0196 0.9994
vn 0.0325 -0.0135 0.9994
vn 0.0355 -0.0237 0.9991
vn 0.0394 -0.0163 0.9991
vn 0.0543 -0.0363 0.9979
vn 0.0603 -0.0250 0.9979
vn -0.0000 0.0352 0.9994
vn -0.0069 0.0345 0.9994
vn -0.0000 0.0426 0.9991
vn -0.0083 0.0418 0.9991
vn -0.0000 0.0653 0.9979
vn -0.0127 0.0641 0.9979
vn 0.0069 0.0345 0.9994
vn 0.0083 0.0418 0.9991
vn 0.0127 0.0641 0.9979
vn -0.0418 0.0083 0.9991
vn 0.0352 -0.0000 0.9994
vn -0.0237 0.0355 0.9991
vn 0.0163 -0.0394 0.9991
vn -0.0000 -0.0352 0.9994
vn 0.3781 -0.9128 0.1545
vn 0.1928 -0.9690 0.1545
vn 0.5489 -0.8215 0.1545
vn 0.6986 -0.6986 0.1545
vn 0.8215 -0.5489 0.1545
vn 0.9128 -0.3781 0.1545
vn 0.9690 -0.1928 0.1545
vn 0.9880 -0.0000 0.1545
vn 0.9690 0.1928 0.1545
vn 0.9128 0.3781 0.1545
vn 0.8215 0.5489 0.1545
vn 0.6986 0.6986 0.1545
vn 0.5489 0.8215 0.1545
vn 0.3781 0.9128 0.1545
vn 0.1928 0.9690 0.1545
vn -0.0000 0.9880 0.1545
vn -0.1928 0.9690 0.1545
vn -0.3781 0.9128 0.1545
vn -0.5489 0.8215 0.1545
vn -0.6986 0.6986 0.1545
vn -0.8215 0.5489 0.1545
vn -0.9128 0.3781 0.1545
vn -0.9690 0.1928 0.1545
vn -0.9880 -0.0000 0.1545
vn -0.9690 -0.1928 0.1545
vn -0.9128 -0.3781 0.1545
vn -0.8215 -0.5489 0.1545
vn -0.3652 -0.3652 0.8563
vn -0.6986 -0.6986 0.1545
vn -0.5489 -0.8215 0.1545
vn -0.1976 -0.4772 0.8563
vn -0.3781 -0.9128 0.1545
vn -0.1928 -0.9690 0.1545
vn -0.0000 -0.5165 0.8563
vn -0.0000 -0.9880 0.1545
vn -0.1945 0.9777 -0.0791
vn -0.3815 0.9210 -0.0791
vn -0.5538 0.8289 -0.0791
vn -0.7049 0.7049 -0.0791
vn -0.8289 0.5538 -0.0791
vn -0.9210 0.3815 -0.0791
vn -0.9777 0.1945 -0.0791
vn -0.9969 -0.0000 -0.0792
vn -0.9777 -0.1945 -0.0791
vn -0.9210 -0.3815 -0.0791
vn -0.8289 -0.5538 -0.0791
vn -0.7049 -0.7049 -0.0791
vn -0.5538 -0.8289 -0.0791
vn -0.3815 -0.9210 -0.0791
vn -0.1945 -0.9777 -0.0791
vn -0.0000 -0.9969 -0.0792
vn 0.1945 -0.9777 -0.0791
vn 0.3815 -0.9210 -0.0791
vn 0.5538 -0.8289 -0.0791
vn 0.7049 -0.7049 -0.0791
vn 0.8289 -0.5538 -0.0791
vn 0.9210 -0.3815 -0.0791
vn 0.9777 -0.1945 -0.0791
vn 0.9969 -0.0000 -0.0792
vn 0.9777 0.1945 -0.0791
vn 0.9210 0.3815 -0.0791
vn 0.8289 0.5538 -0.0791
vn 0.7049 0.7049 -0.0791
vn 0.5538 0.8289 -0.0791
vn 0.3815 0.9210 -0.0791
vn 0.1945 0.9777 -0.0791
vn -0.0000 0.9969 -0.0792
vn 0.0653 -0.3282 -0.9424
vn -0.0000 -0.3346 -0.9424
vn -0.0000 -0.2470 -0.9690
vn -0.0000 -0.4932 -0.8699
vn -0.0000 -0.2964 -0.9551
vn 0.0962 -0.4837 -0.8699
vn 0.1280 -0.3091 -0.9424
vn 0.0482 -0.2422 -0.9690
vn 0.1888 -0.4557 -0.8699
vn 0.1134 -0.2738 -0.9551
vn 0.0578 -0.2907 -0.9551
vn 0.0945 -0.2282 -0.9690
vn 0.1372 -0.2053 -0.9690
vn 0.2740 -0.4101 -0.8699
vn 0.1859 -0.2782 -0.9424
vn 0.1746 -0.1746 -0.9690
vn 0.2366 -0.2366 -0.9424
vn 0.1646 -0.2464 -0.9551
vn 0.3488 -0.3488 -0.8699
vn 0.2782 -0.1859 -0.9424
vn 0.4101 -0.2740 -0.8699
vn 0.2464 -0.1646 -0.9551
vn 0.2096 -0.2096 -0.9551
vn 0.3091 -0.1280 -0.9424
vn 0.2053 -0.1372 -0.9690
vn 0.2738 -0.1134 -0.9551
vn 0.4557 -0.1888 -0.8699
vn 0.3282 -0.0653 -0.9424
vn 0.4837 -0.0962 -0.8699
vn 0.2282 -0.0945 -0.9690
vn 0.2422 -0.0482 -0.9690
vn 0.2470 -0.0000 -0.9690
vn 0.3346 -0.0000 -0.9424
vn 0.2964 -0.0000 -0.9551
vn 0.2907 -0.0578 -0.9551
vn 0.4837 0.0962 -0.8699
vn 0.4932 -0.0000 -0.8699
vn 0.3282 0.0653 -0.9424
vn 0.3091 0.1280 -0.9424
vn 0.2422 0.0482 -0.9690
vn 0.4557 0.1888 -0.8699
vn 0.2738 0.1134 -0.9551
vn 0.2907 0.0578 -0.9551
vn 0.4101 0.2740 -0.8699
vn 0.2282 0.0945 -0.9690
vn 0.2053 0.1372 -0.9690
vn 0.2782 0.1859 -0.9424
vn 0.1746 0.1746 -0.9690
vn 0.2366 0.2366 -0.9424
vn 0.2464 0.1646 -0.9551
vn 0.3488 0.3488 -0.8699
vn 0.1859 0.2782 -0.9424
vn 0.2740 0.4101 -0.8699
vn 0.1646 0.2464 -0.9551
vn 0.2096 0.2096 -0.9551
vn 0.1280 0.3091 -0.9424
vn 0.1372 0.2053 -0.9690
vn 0.1134 0.2738 -0.9551
vn 0.0945 0.2282 -0.9690
vn 0.0482 0.2422 -0.9690
vn 0.1888 0.4557 -0.8699
vn 0.0653 0.3282 -0.9424
vn 0.0962 0.4837 -0.8699
vn -0.0000 0.2470 -0.9690
vn -0.0000 0.3346 -0.9424
vn -0.0000 0.2964 -0.9551
vn 0.0578 0.2907 -0.9551
vn -0.0653 0.3282 -0.9424
vn -0.0962 0.4837 -0.8699
vn -0.0000 0.4932 -0.8699
vn -0.1280 0.3091 -0.9424
vn -0.0482 0.2422 -0.9690
vn -0.1888 0.4557 -0.8699
vn -0.1134 0.2738 -0.9551
vn -0.0578 0.2907 -0.9551
vn -0.0945 0.2282 -0.9690
vn -0.1372 0.2053 -0.9690
vn -0.2740 0.4101 -0.8699
vn -0.1859 0.2782 -0.9424
vn -0.2366 0.2366 -0.9424
vn -0.1646 0.2464 -0.9551
vn -0.3488 0.3488 -0.8699
vn -0.1746 0.1746 -0.9690
vn -0.2782 0.1859 -0.9424
vn -0.4101 0.2740 -0.8699
vn -0.2464 0.1646 -0.9551
vn -0.2096 0.2096 -0.9551
vn -0.2738 0.1134 -0.9551
vn -0.3091 0.1280 -0.9424
vn -0.2053 0.1372 -0.9690
vn -0.2282 0.0945 -0.9690
vn -0.2422 0.0482 -0.9690
vn -0.4557 0.1888 -0.8699
vn -0.3282 0.0653 -0.9424
vn -0.4837 0.0962 -0.8699
vn -0.2964 -0.0000 -0.9551
vn -0.2907 0.0578 -0.9551
vn -0.2470 -0.0000 -0.9690
vn -0.3346 -0.0000 -0.9424
vn -0.3282 -0.0653 -0.9424
vn -0.4837 -0.0962 -0.8699
vn -0.4932 -0.0000 -0.8699
vn -0.3091 -0.1280 -0.9424
vn -0.2422 -0.0482 -0.9690
vn -0.4557 -0.1888 -0.8699
vn -0.2738 -0.1134 -0.9551
vn -0.2907 -0.0578 -0.9551
vn -0.2282 -0.0945 -0.9690
vn -0.2053 -0.1372 -0.9690
vn -0.4101 -0.2740 -0.8699
vn -0.2782 -0.1859 -0.9424
vn -0.1746 -0.1746 -0.9690
vn -0.2366 -0.2366 -0.9424
vn -0.2464 -0.1646 -0.9551
vn -0.3488 -0.3488 -0.8699
vn -0.1859 -0.2782 -0.9424
vn -0.2740 -0.4101 -0.8699
vn -0.1646 -0.2464 -0.9551
vn -0.2096 -0.2096 -0.9551
vn -0.1280 -0.3091 -0.9424
vn -0.1372 -0.2053 -0.9690
vn -0.1134 -0.2738 -0.9551
vn -0.1888 -0.4557 -0.8699
vn -0.0653 -0.3282 -0.9424
vn -0.0962 -0.4837 -0.8699
vn -0.0945 -0.2282 -0.9690
vn -0.0482 -0.2422 -0.9690
vn -0.0578 -0.2907 -0.9551
vn -0.0207 -0.1041 -0.9944
vn -0.0000 -0.1061 -0.9944
vn -0.0000 -0.1286 -0.9917
vn 0.0207 -0.1041 -0.9944
vn 0.0406 -0.0981 -0.9943
vn 0.0492 -0.1189 -0.9917
vn -0.0000 0.1286 -0.9917
vn -0.0000 0.1061 -0.9944
vn -0.0207 0.1041 -0.9944
vn -0.0406 0.0981 -0.9943
vn -0.0590 0.0883 -0.9943
vn -0.0715 0.1070 -0.9917
vn -0.0910 0.0910 -0.9917
vn -0.0750 0.0750 -0.9944
vn -0.0883 0.0590 -0.9943
vn -0.1189 0.0492 -0.9917
vn -0.0981 0.0406 -0.9943
vn -0.1041 0.0207 -0.9944
vn 0.0590 -0.0883 -0.9943
vn 0.0750 -0.0750 -0.9944
vn 0.0910 -0.0910 -0.9917
vn -0.1286 -0.0000 -0.9917
vn -0.1061 -0.0000 -0.9944
vn -0.1041 -0.0207 -0.9944
vn 0.1070 -0.0715 -0.9917
vn 0.0883 -0.0590 -0.9943
vn 0.0981 -0.0406 -0.9943
vn -0.0981 -0.0406 -0.9943
vn -0.0883 -0.0590 -0.9943
vn -0.1070 -0.0715 -0.9917
vn 0.1041 -0.0207 -0.9944
vn 0.1061 -0.0000 -0.9944
vn 0.1286 -0.0000 -0.9917
vn -0.0492 -0.1189 -0.9917
vn -0.0406 -0.0981 -0.9943
vn -0.0910 -0.0910 -0.9917
vn -0.0750 -0.0750 -0.9944
vn -0.0590 -0.0883 -0.9943
vn 0.1041 0.0207 -0.9944
vn 0.0981 0.0406 -0.9943
vn 0.1189 0.0492 -0.9917
vn 0.0883 0.0590 -0.9943
vn 0.0750 0.0750 -0.9944
vn 0.0910 0.0910 -0.9917
vn 0.0590 0.0883 -0.9943
vn 0.0406 0.0981 -0.9943
vn 0.0492 0.1189 -0.9917
vn -0.1070 0.0715 -0.9917
vn 0.0207 0.1041 -0.9944
vn -0.0492 0.1189 -0.9917
vn -0.1189 -0.0492 -0.9917
vn 0.1189 -0.0492 -0.9917
vn -0.0715 -0.1070 -0.9917
vn -0.0138 -0.0334 -0.9993
vn -0.0201 -0.0301 -0.9993
vn -0.0163 -0.0394 -0.9991
vn -0.0363 -0.0543 -0.9979
vn -0.0237 -0.0354 -0.9991
vn -0.0250 -0.0603 -0.9979
vn 0.0362 -0.0000 -0.9993
vn 0.0426 -0.0000 -0.9991
vn 0.0355 0.0070 -0.9993
vn 0.0653 -0.0000 -0.9979
vn 0.0418 0.0083 -0.9991
vn 0.0641 0.0127 -0.9979
vn 0.0256 -0.0256 -0.9993
vn 0.0302 -0.0302 -0.9991
vn 0.0301 -0.0201 -0.9993
vn 0.0462 -0.0462 -0.9979
vn 0.0354 -0.0237 -0.9991
vn 0.0543 -0.0363 -0.9979
vn 0.0138 0.0334 -0.9993
vn 0.0163 0.0394 -0.9991
vn 0.0070 0.0355 -0.9993
vn 0.0250 0.0603 -0.9979
vn 0.0083 0.0418 -0.9991
vn 0.0127 0.0641 -0.9979
vn 0.0334 -0.0138 -0.9993
vn 0.0394 -0.0163 -0.9991
vn 0.0355 -0.0070 -0.9993
vn 0.0603 -0.0250 -0.9979
vn 0.0418 -0.0083 -0.9991
vn 0.0641 -0.0127 -0.9979
vn 0.0138 -0.0334 -0.9993
vn 0.0163 -0.0394 -0.9991
vn 0.0201 -0.0301 -0.9993
vn 0.0237 -0.0354 -0.9991
vn 0.0363 -0.0543 -0.9979
vn 0.0250 -0.0603 -0.9979
vn 0.0256 0.0256 -0.9993
vn 0.0302 0.0302 -0.9991
vn 0.0201 0.0301 -0.9993
vn 0.0462 0.0462 -0.9979
vn 0.0237 0.0354 -0.9991
vn 0.0363 0.0543 -0.9979
vn 0.0334 0.0138 -0.9993
vn 0.0394 0.0163 -0.9991
vn 0.0301 0.0201 -0.9993
vn 0.0354 0.0237 -0.9991
vn 0.0543 0.0363 -0.9979
vn 0.0603 0.0250 -0.9979
vn -0.0256 -0.0256 -0.9993
vn -0.0301 -0.0201 -0.9993
vn -0.0302 -0.0302 -0.9991
vn -0.0354 -0.0237 -0.9991
vn -0.0462 -0.0462 -0.9979
vn -0.0543 -0.0363 -0.9979
vn -0.0256 0.0256 -0.9993
vn -0.0201 0.0301 -0.9993
vn -0.0302 0.0302 -0.9991
vn -0.0237 0.0354 -0.9991
vn -0.0462 0.0462 -0.9979
vn -0.0363 0.0543 -0.9979
vn -0.0334 -0.0138 -0.9993
vn -0.0355 -0.0070 -0.9993
vn -0.0394 -0.0163 -0.9991
vn -0.0418 -0.0083 -0.9991
vn -0.0603 -0.0250 -0.9979
vn -0.0641 -0.0127 -0.9979
vn -0.0138 0.0334 -0.9993
vn -0.0070 0.0355 -0.9993
vn -0.0163 0.0394 -0.9991
vn -0.0127 0.0641 -0.9979
vn -0.0083 0.0418 -0.9991
vn -0.0250 0.0603 -0.9979
vn -0.0362 -0.0000 -0.9993
vn -0.0355 0.0070 -0.9993
vn -0.0426 -0.0000 -0.9991
vn -0.0418 0.0083 -0.9991
vn -0.0653 -0.0000 -0.9979
vn -0.0641 0.0127 -0.9979
vn -0.0000 0.0362 -0.9993
vn -0.0000 0.0426 -0.9991
vn -0.0000 0.0653 -0.9979
vn -0.0334 0.0138 -0.9993
vn -0.0301 0.0201 -0.9993
vn -0.0394 0.0163 -0.9991
vn -0.0543 0.0363 -0.9979
vn -0.0354 0.0237 -0.9991
vn -0.0603 0.0250 -0.9979
vn -0.0000 -0.0362 -0.9993
vn -0.0000 -0.0426 -0.9991
vn 0.0070 -0.0355 -0.9993
vn -0.0000 -0.0653 -0.9979
vn 0.0083 -0.0418 -0.9991
vn 0.0127 -0.0641 -0.9979
vn -0.0070 -0.0355 -0.9993
vn -0.0083 -0.0418 -0.9991
vn -0.0127 -0.0641 -0.9979
vn -0.0251 -0.1262 -0.9917
vn 0.0251 -0.1262 -0.9917
vn -0.0251 0.1262 -0.9917
vn -0.1262 0.0251 -0.9917
vn 0.0715 -0.1070 -0.9917
vn -0.1262 -0.0251 -0.9917
vn 0.1262 -0.0251 -0.9917
vn 0.1262 0.0251 -0.9917
vn 0.1070 0.0715 -0.9917
vn 0.0715 0.1070 -0.9917
vn 0.0251 0.1262 -0.9917
f 1/1/1 2/1/2 3/1/3
f 4/1/4 5/1/5 2/1/2
f 6/1/6 7/1/7 5/1/5
f 3/1/3 2/1/2 8/1/8
f 5/1/5 9/1/9 8/1/8
f 5/1/5 7/1/7 10/1/10
f 11/1/11 8/1/8 12/1/12
f 9/1/9 13/1/13 12/1/12
f 10/1/10 14/1/14 13/1/13
f 15/1/15 12/1/12 16/1/16
f 12/1/12 13/1/13 17/1/17
f 14/1/14 18/1/18 17/1/17
f 19/1/19 16/1/16 20/1/20
f 16/1/16 17/1/17 21/1/21
f 17/1/17 18/1/18 22/1/22
f 23/1/23 20/1/20 24/1/24
f 20/1/20 21/1/21 25/1/25
f 21/1/21 22/1/22 26/1/26
f 24/1/24 25/1/25 27/1/27
f 26/1/26 28/1/28 27/1/27
f 29/1/29 24/1/24 30/1/30
f 31/1/31 30/1/30 32/1/32
f 30/1/30 27/1/27 33/1/33
f 27/1/27 28/1/28 34/1/34
f 32/1/32 33/1/33 35/1/35
f 33/1/33 34/1/34 36/1/36
f 37/1/37 32/1/32 38/1/38
f 39/1/39 38/1/38 40/1/40
f 35/1/35 41/1/41 40/1/40
f 35/1/35 36/1/36 42/1/42
f 41/1/41 42/1/42 43/1/43
f 44/1/44 40/1/40 45/1/45
f 40/1/40 41/1/41 46/1/46
f 47/1/47 45/1/45 48/1/48
f 45/1/45 46/1/46 49/1/49
f 46/1/46 43/1/43 50/1/50
f 51/1/51 48/1/48 52/1/52
f 48/1/48 49/1/49 53/1/53
f 49/1/49 50/1/50 54/1/54
f 55/1/55 52/1/52 56/1/56
f 52/1/52 53/1/53 57/1/57
f 53/1/53 54/1/54 58/1/58
f 59/1/59 56/1/56 60/1/60
f 57/1/57 61/1/61 60/1/60
f 58/1/58 62/1/62 61/1/61
f 63/1/63 60/1/60 64/1/64
f 60/1/60 61/1/61 65/1/65
f 62/1/62 66/1/66 65/1/65
f 67/1/67 64/1/64 68/1/68
f 64/1/64 65/1/65 69/1/69
f 66/1/66 70/1/70 69/1/69
f 71/1/71 68/1/68 72/1/72
f 68/1/68 69/1/69 73/1/73
f 69/1/69 70/1/70 74/1/74
f 75/1/75 72/1/72 76/1/76
f 72/1/72 73/1/73 77/1/77
f 73/1/73 74/1/74 78/1/78
f 76/1/76 77/1/77 79/1/79
f 78/1/78 80/1/80 79/1/79
f 81/1/81 76/1/76 82/1/82
f 83/1/83 82/1/82 84/1/84
f 82/1/82 79/1/79 85/1/85
f 80/1/80 86/1/86 85/1/85
f 85/1/85 86/1/86 87/1/87
f 88/1/88 84/1/84 89/1/89
f 84/1/84 85/1/85 90/1/90
f 91/1/91 89/1/89 92/1/92
f 90/1/90 93/1/93 92/1/92
f 87/1/87 94/1/94 93/1/93
f 94/1/94 95/1/95 96/1/96
f 97/1/97 92/1/92 98/1/98
f 92/1/92 93/1/93 96/1/96
f 99/1/99 98/1/98 100/1/100
f 98/1/98 96/1/96 101/1/101
f 95/1/95 102/1/102 101/1/101
f 103/1/103 100/1/100 104/1/104
f 100/1/100 101/1/101 105/1/105
f 102/1/102 106/1/106 105/1/105
f 107/1/107 104/1/104 108/1/108
f 104/1/104 105/1/105 109/1/109
f 106/1/106 110/1/110 109/1/109
f 111/1/111 108/1/108 112/1/112
f 108/1/108 109/1/109 113/1/113
f 110/1/110 114/1/114 113/1/113
f 112/1/112 115/1/115 116/1/116
f 112/1/112 113/1/113 117/1/117
f 113/1/113 114/1/114 118/1/118
f 116/1/116 115/1/115 119/1/119
f 115/1/115 117/1/117 120/1/120
f 117/1/117 118/1/118 121/1/121
f 119/1/119 120/1/120 122/1/122
f 120/1/120 121/1/121 123/1/123
f 119/1/119 124/1/124 125/1/125
f 125/1/125 124/1/124 1/1/1
f 124/1/124 122/1/122 4/1/4
f 122/1/122 123/1/123 6/1/6
f 126/1/126 127/1/127 128/1/128
f 129/1/129 130/1/130 131/1/131
f 132/1/132 133/1/133 134/1/134
f 135/1/135 136/1/136 137/1/137
f 138/1/138 139/1/139 140/1/140
f 141/1/141 142/1/142 143/1/143
f 144/1/144 145/1/145 146/1/146
f 147/1/147 148/1/148 149/1/149
f 150/1/150 151/1/151 152/1/152
f 153/1/153 154/1/154 155/1/155
f 156/1/156 157/1/157 158/1/158
f 159/1/159 160/1/160 128/1/128
f 161/1/161 162/1/162 163/1/163
f 164/1/164 165/1/165 166/1/166
f 129/1/129 126/1/126 167/1/167
f 168/1/168 169/1/169 170/1/170
f 171/1/171 172/1/172 173/1/173
f 141/1/141 138/1/138 174/1/174
f 133/1/133 175/1/175 176/1/176
f 177/1/177 143/1/143 149/1/149
f 132/1/132 178/1/178 136/1/136
f 147/1/147 179/1/179 155/1/155
f 180/1/180 137/1/137 140/1/140
f 161/1/161 153/1/153 181/1/181
f 169/1/169 182/1/182 166/1/166
f 171/1/171 168/1/168 183/1/183
f 145/1/145 184/1/184 131/1/131
f 157/1/157 150/1/150 185/1/185
f 175/1/175 186/1/186 173/1/173
f 151/1/151 144/1/144 187/1/187
f 164/1/164 156/1/156 188/1/188
f 159/1/159 189/1/189 163/1/163
f 121/1/121 118/1/118 190/1/190
f 191/1/191 190/1/190 192/1/192
f 193/1/193 192/1/192 194/1/194
f 195/1/195 194/1/194 189/1/189
f 34/1/34 196/1/196 197/1/197
f 197/1/197 196/1/196 198/1/198
f 199/1/199 198/1/198 200/1/200
f 201/1/201 200/1/200 156/1/156
f 18/1/18 202/1/202 203/1/203
f 202/1/202 204/1/204 205/1/205
f 204/1/204 206/1/206 207/1/207
f 206/1/206 144/1/144 151/1/151
f 62/1/62 58/1/58 208/1/208
f 209/1/209 208/1/208 210/1/210
f 211/1/211 210/1/210 212/1/212
f 213/1/213 212/1/212 186/1/186
f 26/1/26 214/1/214 215/1/215
f 215/1/215 214/1/214 216/1/216
f 216/1/216 217/1/217 218/1/218
f 218/1/218 217/1/217 150/1/150
f 10/1/10 219/1/219 220/1/220
f 220/1/220 219/1/219 221/1/221
f 221/1/221 222/1/222 223/1/223
f 223/1/223 222/1/222 184/1/184
f 54/1/54 50/1/50 224/1/224
f 225/1/225 224/1/224 226/1/226
f 227/1/227 226/1/226 228/1/228
f 229/1/229 228/1/228 168/1/168
f 42/1/42 230/1/230 231/1/231
f 230/1/230 232/1/232 233/1/233
f 232/1/232 234/1/234 235/1/235
f 235/1/235 234/1/234 182/1/182
f 114/1/114 110/1/110 236/1/236
f 237/1/237 236/1/236 238/1/238
f 239/1/239 238/1/238 240/1/240
f 241/1/241 240/1/240 153/1/153
f 78/1/78 242/1/242 243/1/243
f 242/1/242 244/1/244 245/1/245
f 244/1/244 246/1/246 247/1/247
f 246/1/246 180/1/180 139/1/139
f 102/1/102 248/1/248 249/1/249
f 248/1/248 250/1/250 251/1/251
f 250/1/250 252/1/252 253/1/253
f 252/1/252 147/1/147 154/1/154
f 74/1/74 70/1/70 254/1/254
f 255/1/255 254/1/254 256/1/256
f 256/1/256 257/1/257 258/1/258
f 257/1/257 132/1/132 135/1/135
f 95/1/95 94/1/94 259/1/259
f 259/1/259 260/1/260 261/1/261
f 260/1/260 262/1/262 263/1/263
f 263/1/263 262/1/262 177/1/177
f 66/1/66 62/1/62 209/1/209
f 209/1/209 211/1/211 264/1/264
f 211/1/211 213/1/213 265/1/265
f 265/1/265 213/1/213 175/1/175
f 86/1/86 266/1/266 267/1/267
f 267/1/267 266/1/266 268/1/268
f 269/1/269 268/1/268 270/1/270
f 271/1/271 270/1/270 138/1/138
f 54/1/54 225/1/225 208/1/208
f 208/1/208 225/1/225 227/1/227
f 210/1/210 227/1/227 229/1/229
f 212/1/212 229/1/229 171/1/171
f 43/1/43 231/1/231 224/1/224
f 231/1/231 233/1/233 226/1/226
f 226/1/226 233/1/233 235/1/235
f 228/1/228 235/1/235 169/1/169
f 7/1/7 6/1/6 272/1/272
f 273/1/273 272/1/272 274/1/274
f 275/1/275 274/1/274 276/1/276
f 277/1/277 276/1/276 126/1/126
f 42/1/42 36/1/36 197/1/197
f 197/1/197 199/1/199 232/1/232
f 232/1/232 199/1/199 201/1/201
f 201/1/201 164/1/164 182/1/182
f 114/1/114 237/1/237 190/1/190
f 237/1/237 239/1/239 192/1/192
f 239/1/239 241/1/241 194/1/194
f 241/1/241 161/1/161 189/1/189
f 121/1/121 191/1/191 278/1/278
f 191/1/191 193/1/193 279/1/279
f 193/1/193 195/1/195 280/1/280
f 280/1/280 195/1/195 159/1/159
f 28/1/28 215/1/215 196/1/196
f 215/1/215 281/1/281 198/1/198
f 281/1/281 218/1/218 200/1/200
f 218/1/218 157/1/157 156/1/156
f 110/1/110 106/1/106 249/1/249
f 236/1/236 249/1/249 251/1/251
f 238/1/238 251/1/251 253/1/253
f 240/1/240 253/1/253 154/1/154
f 26/1/26 22/1/22 203/1/203
f 214/1/214 203/1/203 205/1/205
f 216/1/216 205/1/205 207/1/207
f 207/1/207 151/1/151 150/1/150
f 95/1/95 282/1/282 248/1/248
f 248/1/248 282/1/282 261/1/261
f 250/1/250 261/1/261 263/1/263
f 252/1/252 263/1/263 148/1/148
f 18/1/18 14/1/14 220/1/220
f 202/1/202 220/1/220 283/1/283
f 204/1/204 283/1/283 223/1/223
f 206/1/206 223/1/223 145/1/145
f 94/1/94 87/1/87 267/1/267
f 259/1/259 267/1/267 269/1/269
f 260/1/260 269/1/269 271/1/271
f 262/1/262 271/1/271 141/1/141
f 86/1/86 80/1/80 243/1/243
f 266/1/266 243/1/243 245/1/245
f 268/1/268 245/1/245 247/1/247
f 270/1/270 247/1/247 139/1/139
f 78/1/78 74/1/74 255/1/255
f 242/1/242 255/1/255 284/1/284
f 244/1/244 284/1/284 258/1/258
f 246/1/246 258/1/258 135/1/135
f 66/1/66 285/1/285 254/1/254
f 254/1/254 285/1/285 264/1/264
f 256/1/256 264/1/264 265/1/265
f 257/1/257 265/1/265 133/1/133
f 10/1/10 7/1/7 273/1/273
f 273/1/273 275/1/275 221/1/221
f 275/1/275 277/1/277 222/1/222
f 277/1/277 129/1/129 184/1/184
f 123/1/123 278/1/278 272/1/272
f 278/1/278 279/1/279 274/1/274
f 279/1/279 280/1/280 276/1/276
f 276/1/276 280/1/280 127/1/127
f 11/1/11 286/1/286 287/1/287
f 15/1/15 288/1/288 286/1/286
f 19/1/19 289/1/289 288/1/288
f 19/1/19 23/1/23 290/1/290
f 23/1/23 29/1/29 291/1/291
f 29/1/29 31/1/31 292/1/292
f 31/1/31 37/1/37 293/1/293
f 39/1/39 294/1/294 293/1/293
f 44/1/44 295/1/295 294/1/294
f 47/1/47 296/1/296 295/1/295
f 51/1/51 297/1/297 296/1/296
f 51/1/51 55/1/55 298/1/298
f 55/1/55 59/1/59 299/1/299
f 59/1/59 63/1/63 300/1/300
f 63/1/63 67/1/67 301/1/301
f 71/1/71 302/1/302 301/1/301
f 75/1/75 303/1/303 302/1/302
f 81/1/81 304/1/304 303/1/303
f 83/1/83 305/1/305 304/1/304
f 83/1/83 88/1/88 306/1/306
f 88/1/88 91/1/91 307/1/307
f 91/1/91 97/1/97 308/1/308
f 97/1/97 99/1/99 309/1/309
f 103/1/103 310/1/310 309/1/309
f 107/1/107 311/1/311 310/1/310
f 111/1/111 312/1/312 311/1/311
f 313/1/313 314/1/314 312/1/312
f 313/1/313 116/1/116 315/1/315
f 116/1/116 316/1/316 317/1/317
f 316/1/316 125/1/125 318/1/318
f 125/1/125 319/1/319 320/1/320
f 3/1/3 287/1/287 320/1/320
f 131/1/131 130/1/130 321/1/321
f 131/1/131 322/1/322 323/1/323
f 146/1/146 323/1/323 324/1/324
f 152/1/152 187/1/187 324/1/324
f 185/1/185 152/1/152 325/1/325
f 158/1/158 185/1/185 326/1/326
f 158/1/158 327/1/327 328/1/328
f 165/1/165 188/1/188 328/1/328
f 166/1/166 165/1/165 329/1/329
f 166/1/166 330/1/330 331/1/331
f 170/1/170 331/1/331 332/1/332
f 172/1/172 183/1/183 332/1/332
f 173/1/173 172/1/172 333/1/333
f 176/1/176 173/1/173 334/1/334
f 176/1/176 335/1/335 336/1/336
f 178/1/178 134/1/134 336/1/336
f 136/1/136 178/1/178 337/1/337
f 136/1/136 338/1/338 339/1/339
f 137/1/137 339/1/339 340/1/340
f 174/1/174 140/1/140 340/1/340
f 142/1/142 174/1/174 341/1/341
f 143/1/143 142/1/142 342/1/342
f 143/1/143 343/1/343 344/1/344
f 179/1/179 149/1/149 344/1/344
f 155/1/155 179/1/179 345/1/345
f 155/1/155 346/1/346 347/1/347
f 181/1/181 347/1/347 348/1/348
f 163/1/163 162/1/162 348/1/348
f 160/1/160 163/1/163 349/1/349
f 160/1/160 350/1/350 351/1/351
f 167/1/167 128/1/128 351/1/351
f 130/1/130 167/1/167 352/1/352
f 1/1/1 3/1/3 319/1/319
f 4/1/4 2/1/2 1/1/1
f 6/1/6 5/1/5 4/1/4
f 3/1/3 8/1/8 11/1/11
f 5/1/5 8/1/8 2/1/2
f 5/1/5 10/1/10 9/1/9
f 11/1/11 12/1/12 15/1/15
f 9/1/9 12/1/12 8/1/8
f 10/1/10 13/1/13 9/1/9
f 15/1/15 16/1/16 19/1/19
f 12/1/12 17/1/17 16/1/16
f 14/1/14 17/1/17 13/1/13
f 19/1/19 20/1/20 23/1/23
f 16/1/16 21/1/21 20/1/20
f 17/1/17 22/1/22 21/1/21
f 23/1/23 24/1/24 29/1/29
f 20/1/20 25/1/25 24/1/24
f 21/1/21 26/1/26 25/1/25
f 24/1/24 27/1/27 30/1/30
f 26/1/26 27/1/27 25/1/25
f 29/1/29 30/1/30 31/1/31
f 31/1/31 32/1/32 37/1/37
f 30/1/30 33/1/33 32/1/32
f 27/1/27 34/1/34 33/1/33
f 32/1/32 35/1/35 38/1/38
f 33/1/33 36/1/36 35/1/35
f 37/1/37 38/1/38 39/1/39
f 39/1/39 40/1/40 44/1/44
f 35/1/35 40/1/40 38/1/38
f 35/1/35 42/1/42 41/1/41
f 41/1/41 43/1/43 46/1/46
f 44/1/44 45/1/45 47/1/47
f 40/1/40 46/1/46 45/1/45
f 47/1/47 48/1/48 51/1/51
f 45/1/45 49/1/49 48/1/48
f 46/1/46 50/1/50 49/1/49
f 51/1/51 52/1/52 55/1/55
f 48/1/48 53/1/53 52/1/52
f 49/1/49 54/1/54 53/1/53
f 55/1/55 56/1/56 59/1/59
f 52/1/52 57/1/57 56/1/56
f 53/1/53 58/1/58 57/1/57
f 59/1/59 60/1/60 63/1/63
f 57/1/57 60/1/60 56/1/56
f 58/1/58 61/1/61 57/1/57
f 63/1/63 64/1/64 67/1/67
f 60/1/60 65/1/65 64/1/64
f 62/1/62 65/1/65 61/1/61
f 67/1/67 68/1/68 71/1/71
f 64/1/64 69/1/69 68/1/68
f 66/1/66 69/1/69 65/1/65
f 71/1/71 72/1/72 75/1/75
f 68/1/68 73/1/73 72/1/72
f 69/1/69 74/1/74 73/1/73
f 75/1/75 76/1/76 81/1/81
f 72/1/72 77/1/77 76/1/76
f 73/1/73 78/1/78 77/1/77
f 76/1/76 79/1/79 82/1/82
f 78/1/78 79/1/79 77/1/77
f 81/1/81 82/1/82 83/1/83
f 83/1/83 84/1/84 88/1/88
f 82/1/82 85/1/85 84/1/84
f 80/1/80 85/1/85 79/1/79
f 85/1/85 87/1/87 90/1/90
f 88/1/88 89/1/89 91/1/91
f 84/1/84 90/1/90 89/1/89
f 91/1/91 92/1/92 97/1/97
f 90/1/90 92/1/92 89/1/89
f 87/1/87 93/1/93 90/1/90
f 94/1/94 96/1/96 93/1/93
f 97/1/97 98/1/98 99/1/99
f 92/1/92 96/1/96 98/1/98
f 99/1/99 100/1/100 103/1/103
f 98/1/98 101/1/101 100/1/100
f 95/1/95 101/1/101 96/1/96
f 103/1/103 104/1/104 107/1/107
f 100/1/100 105/1/105 104/1/104
f 102/1/102 105/1/105 101/1/101
f 107/1/107 108/1/108 111/1/111
f 104/1/104 109/1/109 108/1/108
f 106/1/106 109/1/109 105/1/105
f 111/1/111 112/1/112 313/1/313
f 108/1/108 113/1/113 112/1/112
f 110/1/110 113/1/113 109/1/109
f 112/1/112 116/1/116 313/1/313
f 112/1/112 117/1/117 115/1/115
f 113/1/113 118/1/118 117/1/117
f 116/1/116 119/1/119 316/1/316
f 115/1/115 120/1/120 119/1/119
f 117/1/117 121/1/121 120/1/120
f 119/1/119 122/1/122 124/1/124
f 120/1/120 123/1/123 122/1/122
f 119/1/119 125/1/125 316/1/316
f 125/1/125 1/1/1 319/1/319
f 124/1/124 4/1/4 1/1/1
f 122/1/122 6/1/6 4/1/4
f 126/1/126 128/1/128 167/1/167
f 129/1/129 131/1/131 184/1/184
f 132/1/132 134/1/134 178/1/178
f 135/1/135 137/1/137 180/1/180
f 138/1/138 140/1/140 174/1/174
f 141/1/141 143/1/143 177/1/177
f 144/1/144 146/1/146 187/1/187
f 147/1/147 149/1/149 179/1/179
f 150/1/150 152/1/152 185/1/185
f 153/1/153 155/1/155 181/1/181
f 156/1/156 158/1/158 188/1/188
f 159/1/159 128/1/128 127/1/127
f 161/1/161 163/1/163 189/1/189
f 164/1/164 166/1/166 182/1/182
f 129/1/129 167/1/167 130/1/130
f 168/1/168 170/1/170 183/1/183
f 171/1/171 173/1/173 186/1/186
f 141/1/141 174/1/174 142/1/142
f 133/1/133 176/1/176 134/1/134
f 177/1/177 149/1/149 148/1/148
f 132/1/132 136/1/136 135/1/135
f 147/1/147 155/1/155 154/1/154
f 180/1/180 140/1/140 139/1/139
f 161/1/161 181/1/181 162/1/162
f 169/1/169 166/1/166 170/1/170
f 171/1/171 183/1/183 172/1/172
f 145/1/145 131/1/131 146/1/146
f 157/1/157 185/1/185 158/1/158
f 175/1/175 173/1/173 176/1/176
f 151/1/151 187/1/187 152/1/152
f 164/1/164 188/1/188 165/1/165
f 159/1/159 163/1/163 160/1/160
f 121/1/121 190/1/190 191/1/191
f 191/1/191 192/1/192 193/1/193
f 193/1/193 194/1/194 195/1/195
f 195/1/195 189/1/189 159/1/159
f 34/1/34 197/1/197 36/1/36
f 197/1/197 198/1/198 199/1/199
f 199/1/199 200/1/200 201/1/201
f 201/1/201 156/1/156 164/1/164
f 18/1/18 203/1/203 22/1/22
f 202/1/202 205/1/205 203/1/203
f 204/1/204 207/1/207 205/1/205
f 206/1/206 151/1/151 207/1/207
f 62/1/62 208/1/208 209/1/209
f 209/1/209 210/1/210 211/1/211
f 211/1/211 212/1/212 213/1/213
f 213/1/213 186/1/186 175/1/175
f 26/1/26 215/1/215 28/1/28
f 215/1/215 216/1/216 281/1/281
f 216/1/216 218/1/218 281/1/281
f 218/1/218 150/1/150 157/1/157
f 10/1/10 220/1/220 14/1/14
f 220/1/220 221/1/221 283/1/283
f 221/1/221 223/1/223 283/1/283
f 223/1/223 184/1/184 145/1/145
f 54/1/54 224/1/224 225/1/225
f 225/1/225 226/1/226 227/1/227
f 227/1/227 228/1/228 229/1/229
f 229/1/229 168/1/168 171/1/171
f 42/1/42 231/1/231 43/1/43
f 230/1/230 233/1/233 231/1/231
f 232/1/232 235/1/235 233/1/233
f 235/1/235 182/1/182 169/1/169
f 114/1/114 236/1/236 237/1/237
f 237/1/237 238/1/238 239/1/239
f 239/1/239 240/1/240 241/1/241
f 241/1/241 153/1/153 161/1/161
f 78/1/78 243/1/243 80/1/80
f 242/1/242 245/1/245 243/1/243
f 244/1/244 247/1/247 245/1/245
f 246/1/246 139/1/139 247/1/247
f 102/1/102 249/1/249 106/1/106
f 248/1/248 251/1/251 249/1/249
f 250/1/250 253/1/253 251/1/251
f 252/1/252 154/1/154 253/1/253
f 74/1/74 254/1/254 255/1/255
f 255/1/255 256/1/256 284/1/284
f 256/1/256 258/1/258 284/1/284
f 257/1/257 135/1/135 258/1/258
f 95/1/95 259/1/259 282/1/282
f 259/1/259 261/1/261 282/1/282
f 260/1/260 263/1/263 261/1/261
f 263/1/263 177/1/177 148/1/148
f 66/1/66 209/1/209 285/1/285
f 209/1/209 264/1/264 285/1/285
f 211/1/211 265/1/265 264/1/264
f 265/1/265 175/1/175 133/1/133
f 86/1/86 267/1/267 87/1/87
f 267/1/267 268/1/268 269/1/269
f 269/1/269 270/1/270 271/1/271
f 271/1/271 138/1/138 141/1/141
f 54/1/54 208/1/208 58/1/58
f 208/1/208 227/1/227 210/1/210
f 210/1/210 229/1/229 212/1/212
f 212/1/212 171/1/171 186/1/186
f 43/1/43 224/1/224 50/1/50
f 231/1/231 226/1/226 224/1/224
f 226/1/226 235/1/235 228/1/228
f 228/1/228 169/1/169 168/1/168
f 7/1/7 272/1/272 273/1/273
f 273/1/273 274/1/274 275/1/275
f 275/1/275 276/1/276 277/1/277
f 277/1/277 126/1/126 129/1/129
f 42/1/42 197/1/197 230/1/230
f 197/1/197 232/1/232 230/1/230
f 232/1/232 201/1/201 234/1/234
f 201/1/201 182/1/182 234/1/234
f 114/1/114 190/1/190 118/1/118
f 237/1/237 192/1/192 190/1/190
f 239/1/239 194/1/194 192/1/192
f 241/1/241 189/1/189 194/1/194
f 121/1/121 278/1/278 123/1/123
f 191/1/191 279/1/279 278/1/278
f 193/1/193 280/1/280 279/1/279
f 280/1/280 159/1/159 127/1/127
f 28/1/28 196/1/196 34/1/34
f 215/1/215 198/1/198 196/1/196
f 281/1/281 200/1/200 198/1/198
f 218/1/218 156/1/156 200/1/200
f 110/1/110 249/1/249 236/1/236
f 236/1/236 251/1/251 238/1/238
f 238/1/238 253/1/253 240/1/240
f 240/1/240 154/1/154 153/1/153
f 26/1/26 203/1/203 214/1/214
f 214/1/214 205/1/205 216/1/216
f 216/1/216 207/1/207 217/1/217
f 207/1/207 150/1/150 217/1/217
f 95/1/95 248/1/248 102/1/102
f 248/1/248 261/1/261 250/1/250
f 250/1/250 263/1/263 252/1/252
f 252/1/252 148/1/148 147/1/147
f 18/1/18 220/1/220 202/1/202
f 202/1/202 283/1/283 204/1/204
f 204/1/204 223/1/223 206/1/206
f 206/1/206 145/1/145 144/1/144
f 94/1/94 267/1/267 259/1/259
f 259/1/259 269/1/269 260/1/260
f 260/1/260 271/1/271 262/1/262
f 262/1/262 141/1/141 177/1/177
f 86/1/86 243/1/243 266/1/266
f 266/1/266 245/1/245 268/1/268
f 268/1/268 247/1/247 270/1/270
f 270/1/270 139/1/139 138/1/138
f 78/1/78 255/1/255 242/1/242
f 242/1/242 284/1/284 244/1/244
f 244/1/244 258/1/258 246/1/246
f 246/1/246 135/1/135 180/1/180
f 66/1/66 254/1/254 70/1/70
f 254/1/254 264/1/264 256/1/256
f 256/1/256 265/1/265 257/1/257
f 257/1/257 133/1/133 132/1/132
f 10/1/10 273/1/273 219/1/219
f 273/1/273 221/1/221 219/1/219
f 275/1/275 222/1/222 221/1/221
f 277/1/277 184/1/184 222/1/222
f 123/1/123 272/1/272 6/1/6
f 278/1/278 274/1/274 272/1/272
f 279/1/279 276/1/276 274/1/274
f 276/1/276 127/1/127 126/1/126
f 11/1/11 287/1/287 3/1/3
f 15/1/15 286/1/286 11/1/11
f 19/1/19 288/1/288 15/1/15
f 19/1/19 290/1/290 289/1/289
f 23/1/23 291/1/291 290/1/290
f 29/1/29 292/1/292 291/1/291
f 31/1/31 293/1/293 292/1/292
f 39/1/39 293/1/293 37/1/37
f 44/1/44 294/1/294 39/1/39
f 47/1/47 295/1/295 44/1/44
f 51/1/51 296/1/296 47/1/47
f 51/1/51 298/1/298 297/1/297
f 55/1/55 299/1/299 298/1/298
f 59/1/59 300/1/300 299/1/299
f 63/1/63 301/1/301 300/1/300
f 71/1/71 301/1/301 67/1/67
f 75/1/75 302/1/302 71/1/71
f 81/1/81 303/1/303 75/1/75
f 83/1/83 304/1/304 81/1/81
f 83/1/83 306/1/306 305/1/305
f 88/1/88 307/1/307 306/1/306
f 91/1/91 308/1/308 307/1/307
f 97/1/97 309/1/309 308/1/308
f 103/1/103 309/1/309 99/1/99
f 107/1/107 310/1/310 103/1/103
f 111/1/111 311/1/311 107/1/107
f 313/1/313 312/1/312 111/1/111
f 313/1/313 315/1/315 314/1/314
f 116/1/116 317/1/317 315/1/315
f 316/1/316 318/1/318 317/1/317
f 125/1/125 320/1/320 318/1/318
f 3/1/3 320/1/320 319/1/319
f 131/1/131 321/1/321 322/1/322
f 131/1/131 323/1/323 146/1/146
f 146/1/146 324/1/324 187/1/187
f 152/1/152 324/1/324 325/1/325
f 185/1/185 325/1/325 326/1/326
f 158/1/158 326/1/326 327/1/327
f 158/1/158 328/1/328 188/1/188
f 165/1/165 328/1/328 329/1/329
f 166/1/166 329/1/329 330/1/330
f 166/1/166 331/1/331 170/1/170
f 170/1/170 332/1/332 183/1/183
f 172/1/172 332/1/332 333/1/333
f 173/1/173 333/1/333 334/1/334
f 176/1/176 334/1/334 335/1/335
f 176/1/176 336/1/336 134/1/134
f 178/1/178 336/1/336 337/1/337
f 136/1/136 337/1/337 338/1/338
f 136/1/136 339/1/339 137/1/137
f 137/1/137 340/1/340 140/1/140
f 174/1/174 340/1/340 341/1/341
f 142/1/142 341/1/341 342/1/342
f 143/1/143 342/1/342 343/1/343
f 143/1/143 344/1/344 149/1/149
f 179/1/179 344/1/344 345/1/345
f 155/1/155 345/1/345 346/1/346
f 155/1/155 347/1/347 181/1/181
f 181/1/181 348/1/348 162/1/162
f 163/1/163 348/1/348 349/1/349
f 160/1/160 349/1/349 350/1/350
f 160/1/160 351/1/351 128/1/128
f 167/1/167 351/1/351 352/1/352
f 130/1/130 352/1/352 321/1/321
f 353/1/353 354/1/354 320/1/355
f 355/1/356 354/1/354 353/1/353
f 356/1/357 355/1/356 357/1/358
f 358/1/359 353/1/353 287/1/360
f 359/1/361 357/1/358 353/1/353
f 360/1/362 361/1/363 357/1/358
f 358/1/359 286/1/364 288/1/365
f 362/1/366 359/1/361 358/1/359
f 360/1/362 359/1/361 362/1/366
f 363/1/367 288/1/365 289/1/368
f 362/1/366 363/1/367 364/1/369
f 365/1/370 362/1/366 366/1/371
f 367/1/372 364/1/369 289/1/368
f 368/1/373 366/1/371 364/1/369
f 369/1/374 370/1/375 366/1/371
f 371/1/376 367/1/372 290/1/377
f 368/1/373 367/1/372 371/1/376
f 372/1/378 369/1/374 368/1/373
f 373/1/379 371/1/376 374/1/380
f 372/1/378 373/1/379 375/1/381
f 371/1/376 291/1/382 292/1/383
f 374/1/380 292/1/383 293/1/384
f 375/1/381 374/1/380 376/1/385
f 377/1/386 378/1/387 375/1/381
f 379/1/388 380/1/389 376/1/385
f 377/1/386 380/1/389 379/1/388
f 381/1/390 376/1/385 293/1/384
f 382/1/391 381/1/390 294/1/392
f 383/1/393 379/1/388 381/1/390
f 384/1/394 385/1/395 379/1/388
f 384/1/394 383/1/393 386/1/396
f 382/1/391 295/1/397 296/1/398
f 386/1/396 383/1/393 382/1/391
f 387/1/399 296/1/398 297/1/400
f 386/1/396 387/1/399 388/1/401
f 389/1/402 386/1/396 390/1/403
f 391/1/404 388/1/401 297/1/400
f 392/1/405 390/1/403 388/1/401
f 393/1/406 394/1/407 390/1/403
f 395/1/408 391/1/404 298/1/409
f 392/1/405 391/1/404 395/1/408
f 396/1/410 393/1/406 392/1/405
f 395/1/408 299/1/411 300/1/412
f 397/1/413 395/1/408 398/1/414
f 396/1/410 397/1/413 399/1/415
f 398/1/414 300/1/412 301/1/416
f 399/1/415 398/1/414 400/1/417
f 401/1/418 402/1/419 399/1/415
f 403/1/420 400/1/417 301/1/416
f 404/1/421 405/1/422 400/1/417
f 401/1/418 405/1/422 404/1/421
f 406/1/423 403/1/420 302/1/424
f 407/1/425 404/1/421 403/1/420
f 408/1/426 409/1/427 404/1/421
f 406/1/423 303/1/428 304/1/429
f 410/1/430 407/1/425 406/1/423
f 408/1/426 407/1/425 410/1/430
f 410/1/430 411/1/431 412/1/432
f 413/1/433 410/1/430 414/1/434
f 411/1/431 304/1/429 305/1/435
f 415/1/436 412/1/432 305/1/435
f 416/1/437 414/1/434 412/1/432
f 417/1/438 418/1/439 414/1/434
f 419/1/440 417/1/438 416/1/437
f 420/1/441 415/1/436 306/1/442
f 416/1/437 415/1/436 420/1/441
f 420/1/441 307/1/443 308/1/444
f 421/1/445 420/1/441 422/1/446
f 419/1/440 421/1/445 423/1/447
f 424/1/448 425/1/449 423/1/447
f 422/1/446 308/1/444 309/1/450
f 423/1/447 422/1/446 426/1/451
f 427/1/452 426/1/451 309/1/450
f 428/1/453 429/1/454 426/1/451
f 424/1/448 429/1/454 428/1/453
f 430/1/455 427/1/452 310/1/456
f 431/1/457 428/1/453 427/1/452
f 432/1/458 433/1/459 428/1/453
f 430/1/455 311/1/460 312/1/461
f 434/1/462 431/1/457 430/1/455
f 432/1/458 431/1/457 434/1/462
f 435/1/463 312/1/461 314/1/464
f 434/1/462 435/1/463 436/1/465
f 437/1/466 434/1/462 438/1/467
f 439/1/468 436/1/465 314/1/464
f 440/1/469 438/1/467 436/1/465
f 441/1/470 442/1/471 438/1/467
f 443/1/472 439/1/468 315/1/473
f 440/1/469 439/1/468 443/1/472
f 444/1/474 441/1/470 440/1/469
f 445/1/475 443/1/472 446/1/476
f 444/1/474 445/1/475 447/1/477
f 443/1/472 317/1/478 318/1/479
f 446/1/476 318/1/479 320/1/355
f 447/1/477 446/1/476 354/1/354
f 356/1/357 448/1/480 447/1/477
f 449/1/481 450/1/482 352/1/483
f 451/1/484 452/1/485 322/1/486
f 336/1/487 453/1/488 454/1/489
f 455/1/490 456/1/491 339/1/492
f 340/1/493 457/1/494 458/1/495
f 342/1/496 459/1/497 460/1/498
f 461/1/499 462/1/500 324/1/501
f 344/1/502 463/1/503 464/1/504
f 325/1/505 465/1/506 466/1/507
f 467/1/508 468/1/509 347/1/510
f 469/1/511 470/1/512 328/1/513
f 350/1/514 471/1/515 449/1/481
f 348/1/516 472/1/517 473/1/518
f 474/1/519 475/1/520 330/1/521
f 352/1/483 450/1/482 451/1/484
f 476/1/522 477/1/523 332/1/524
f 478/1/525 479/1/526 334/1/527
f 341/1/528 458/1/495 459/1/497
f 480/1/529 453/1/488 336/1/487
f 460/1/498 463/1/503 344/1/502
f 454/1/489 455/1/490 338/1/530
f 464/1/504 467/1/508 346/1/531
f 456/1/491 457/1/494 340/1/493
f 468/1/509 472/1/517 348/1/516
f 330/1/521 475/1/520 476/1/522
f 332/1/524 477/1/523 478/1/525
f 322/1/486 452/1/485 461/1/499
f 326/1/532 466/1/507 469/1/511
f 334/1/527 479/1/526 480/1/529
f 324/1/501 462/1/500 465/1/506
f 328/1/513 470/1/512 474/1/519
f 349/1/533 473/1/518 471/1/515
f 441/1/470 444/1/474 481/1/534
f 482/1/535 481/1/534 483/1/536
f 484/1/537 485/1/538 483/1/536
f 473/1/518 484/1/537 486/1/539
f 487/1/540 377/1/386 385/1/395
f 488/1/541 487/1/540 489/1/542
f 490/1/543 488/1/541 491/1/544
f 470/1/512 490/1/543 492/1/545
f 493/1/546 370/1/375 369/1/374
f 494/1/547 493/1/546 495/1/548
f 496/1/549 494/1/547 497/1/550
f 462/1/500 496/1/549 498/1/551
f 499/1/552 396/1/410 402/1/419
f 500/1/553 499/1/552 501/1/554
f 502/1/555 500/1/553 503/1/556
f 502/1/555 504/1/557 480/1/529
f 505/1/558 372/1/378 378/1/387
f 506/1/559 505/1/558 507/1/560
f 508/1/561 506/1/559 509/1/562
f 508/1/561 510/1/563 469/1/511
f 511/1/564 360/1/362 365/1/370
f 512/1/565 511/1/564 513/1/566
f 512/1/565 514/1/567 515/1/568
f 452/1/485 516/1/569 515/1/568
f 517/1/570 394/1/407 393/1/406
f 518/1/571 517/1/570 519/1/572
f 520/1/573 518/1/571 521/1/574
f 477/1/523 520/1/573 522/1/575
f 523/1/576 384/1/394 389/1/402
f 524/1/577 523/1/576 525/1/578
f 524/1/577 526/1/579 527/1/580
f 475/1/520 528/1/581 527/1/580
f 437/1/466 442/1/471 529/1/582
f 530/1/583 529/1/582 531/1/584
f 532/1/585 531/1/584 533/1/586
f 534/1/587 533/1/586 472/1/517
f 413/1/433 418/1/439 535/1/588
f 536/1/589 535/1/588 537/1/590
f 538/1/591 537/1/590 539/1/592
f 540/1/593 539/1/592 457/1/494
f 433/1/459 432/1/458 541/1/594
f 542/1/595 541/1/594 543/1/596
f 544/1/597 543/1/596 545/1/598
f 546/1/599 545/1/598 467/1/508
f 409/1/427 408/1/426 547/1/600
f 548/1/601 547/1/600 549/1/602
f 550/1/603 551/1/604 549/1/602
f 454/1/489 550/1/603 552/1/605
f 425/1/449 424/1/448 553/1/606
f 554/1/607 553/1/606 555/1/608
f 556/1/609 555/1/608 557/1/610
f 558/1/611 557/1/610 463/1/503
f 402/1/419 401/1/418 559/1/612
f 501/1/554 559/1/612 560/1/613
f 504/1/557 503/1/556 560/1/613
f 504/1/557 561/1/614 453/1/488
f 417/1/438 419/1/440 562/1/615
f 563/1/616 562/1/615 564/1/617
f 565/1/618 566/1/619 564/1/617
f 458/1/495 565/1/618 567/1/620
f 393/1/406 396/1/410 499/1/552
f 519/1/572 499/1/552 500/1/553
f 522/1/575 521/1/574 500/1/553
f 522/1/575 502/1/555 479/1/526
f 389/1/402 394/1/407 517/1/570
f 525/1/578 517/1/570 518/1/571
f 526/1/579 518/1/571 520/1/573
f 527/1/580 520/1/573 477/1/523
f 568/1/621 356/1/357 361/1/363
f 569/1/622 568/1/621 570/1/623
f 571/1/624 569/1/622 572/1/625
f 450/1/482 571/1/624 573/1/626
f 385/1/395 384/1/394 523/1/576
f 489/1/542 523/1/576 524/1/577
f 491/1/544 524/1/577 528/1/581
f 474/1/519 492/1/545 528/1/581
f 529/1/582 442/1/471 441/1/470
f 531/1/584 529/1/582 482/1/535
f 533/1/586 531/1/584 485/1/538
f 472/1/517 533/1/586 484/1/537
f 481/1/534 444/1/474 448/1/480
f 481/1/534 574/1/627 575/1/628
f 486/1/539 483/1/536 575/1/628
f 486/1/539 576/1/629 449/1/481
f 378/1/387 377/1/386 487/1/540
f 507/1/560 487/1/540 488/1/541
f 509/1/562 488/1/541 490/1/543
f 510/1/563 490/1/543 470/1/512
f 541/1/594 432/1/458 437/1/466
f 543/1/596 541/1/594 530/1/583
f 543/1/596 532/1/585 534/1/587
f 467/1/508 545/1/598 534/1/587
f 369/1/374 372/1/378 505/1/558
f 495/1/548 505/1/558 506/1/559
f 498/1/551 497/1/550 506/1/559
f 465/1/506 498/1/551 508/1/561
f 553/1/606 424/1/448 433/1/459
f 555/1/608 553/1/606 542/1/595
f 557/1/610 555/1/608 544/1/597
f 463/1/503 557/1/610 546/1/599
f 365/1/370 370/1/375 493/1/546
f 513/1/566 493/1/546 494/1/547
f 514/1/567 494/1/547 496/1/549
f 515/1/568 496/1/549 462/1/500
f 562/1/615 419/1/440 425/1/449
f 564/1/617 562/1/615 554/1/607
f 567/1/620 564/1/617 556/1/609
f 459/1/497 567/1/620 558/1/611
f 535/1/588 418/1/439 417/1/438
f 537/1/590 535/1/588 563/1/616
f 539/1/592 537/1/590 566/1/619
f 457/1/494 539/1/592 565/1/618
f 547/1/600 408/1/426 413/1/433
f 549/1/602 547/1/600 536/1/589
f 549/1/602 538/1/591 540/1/593
f 455/1/490 552/1/605 540/1/593
f 559/1/612 401/1/418 409/1/427
f 560/1/613 559/1/612 548/1/601
f 560/1/613 551/1/604 550/1/603
f 453/1/488 561/1/614 550/1/603
f 361/1/363 360/1/362 511/1/564
f 570/1/623 511/1/564 512/1/565
f 572/1/625 512/1/565 516/1/569
f 573/1/626 516/1/569 452/1/485
f 448/1/480 356/1/357 568/1/621
f 574/1/627 568/1/621 569/1/622
f 576/1/629 575/1/628 569/1/622
f 576/1/629 571/1/624 450/1/482
f 353/1/353 320/1/355 287/1/360
f 355/1/356 353/1/353 357/1/358
f 356/1/357 357/1/358 361/1/363
f 358/1/359 287/1/360 286/1/364
f 359/1/361 353/1/353 358/1/359
f 360/1/362 357/1/358 359/1/361
f 358/1/359 288/1/365 363/1/367
f 362/1/366 358/1/359 363/1/367
f 360/1/362 362/1/366 365/1/370
f 363/1/367 289/1/368 364/1/369
f 362/1/366 364/1/369 366/1/371
f 365/1/370 366/1/371 370/1/375
f 367/1/372 289/1/368 290/1/377
f 368/1/373 364/1/369 367/1/372
f 369/1/374 366/1/371 368/1/373
f 371/1/376 290/1/377 291/1/382
f 368/1/373 371/1/376 373/1/379
f 372/1/378 368/1/373 373/1/379
f 373/1/379 374/1/380 375/1/381
f 372/1/378 375/1/381 378/1/387
f 371/1/376 292/1/383 374/1/380
f 374/1/380 293/1/384 376/1/385
f 375/1/381 376/1/385 380/1/389
f 377/1/386 375/1/381 380/1/389
f 379/1/388 376/1/385 381/1/390
f 377/1/386 379/1/388 385/1/395
f 381/1/390 293/1/384 294/1/392
f 382/1/391 294/1/392 295/1/397
f 383/1/393 381/1/390 382/1/391
f 384/1/394 379/1/388 383/1/393
f 384/1/394 386/1/396 389/1/402
f 382/1/391 296/1/398 387/1/399
f 386/1/396 382/1/391 387/1/399
f 387/1/399 297/1/400 388/1/401
f 386/1/396 388/1/401 390/1/403
f 389/1/402 390/1/403 394/1/407
f 391/1/404 297/1/400 298/1/409
f 392/1/405 388/1/401 391/1/404
f 393/1/406 390/1/403 392/1/405
f 395/1/408 298/1/409 299/1/411
f 392/1/405 395/1/408 397/1/413
f 396/1/410 392/1/405 397/1/413
f 395/1/408 300/1/412 398/1/414
f 397/1/413 398/1/414 399/1/415
f 396/1/410 399/1/415 402/1/419
f 398/1/414 301/1/416 400/1/417
f 399/1/415 400/1/417 405/1/422
f 401/1/418 399/1/415 405/1/422
f 403/1/420 301/1/416 302/1/424
f 404/1/421 400/1/417 403/1/420
f 401/1/418 404/1/421 409/1/427
f 406/1/423 302/1/424 303/1/428
f 407/1/425 403/1/420 406/1/423
f 408/1/426 404/1/421 407/1/425
f 406/1/423 304/1/429 411/1/431
f 410/1/430 406/1/423 411/1/431
f 408/1/426 410/1/430 413/1/433
f 410/1/430 412/1/432 414/1/434
f 413/1/433 414/1/434 418/1/439
f 411/1/431 305/1/435 412/1/432
f 415/1/436 305/1/435 306/1/442
f 416/1/437 412/1/432 415/1/436
f 417/1/438 414/1/434 416/1/437
f 419/1/440 416/1/437 421/1/445
f 420/1/441 306/1/442 307/1/443
f 416/1/437 420/1/441 421/1/445
f 420/1/441 308/1/444 422/1/446
f 421/1/445 422/1/446 423/1/447
f 419/1/440 423/1/447 425/1/449
f 424/1/448 423/1/447 429/1/454
f 422/1/446 309/1/450 426/1/451
f 423/1/447 426/1/451 429/1/454
f 427/1/452 309/1/450 310/1/456
f 428/1/453 426/1/451 427/1/452
f 424/1/448 428/1/453 433/1/459
f 430/1/455 310/1/456 311/1/460
f 431/1/457 427/1/452 430/1/455
f 432/1/458 428/1/453 431/1/457
f 430/1/455 312/1/461 435/1/463
f 434/1/462 430/1/455 435/1/463
f 432/1/458 434/1/462 437/1/466
f 435/1/463 314/1/464 436/1/465
f 434/1/462 436/1/465 438/1/467
f 437/1/466 438/1/467 442/1/471
f 439/1/468 314/1/464 315/1/473
f 440/1/469 436/1/465 439/1/468
f 441/1/470 438/1/467 440/1/469
f 443/1/472 315/1/473 317/1/478
f 440/1/469 443/1/472 445/1/475
f 444/1/474 440/1/469 445/1/475
f 445/1/475 446/1/476 447/1/477
f 444/1/474 447/1/477 448/1/480
f 443/1/472 318/1/479 446/1/476
f 446/1/476 320/1/355 354/1/354
f 447/1/477 354/1/354 355/1/356
f 356/1/357 447/1/477 355/1/356
f 449/1/481 352/1/483 351/1/630
f 451/1/484 322/1/486 321/1/631
f 336/1/487 454/1/489 337/1/632
f 455/1/490 339/1/492 338/1/530
f 340/1/493 458/1/495 341/1/528
f 342/1/496 460/1/498 343/1/633
f 461/1/499 324/1/501 323/1/634
f 344/1/502 464/1/504 345/1/635
f 325/1/505 466/1/507 326/1/532
f 467/1/508 347/1/510 346/1/531
f 469/1/511 328/1/513 327/1/636
f 350/1/514 449/1/481 351/1/630
f 348/1/516 473/1/518 349/1/533
f 474/1/519 330/1/521 329/1/637
f 352/1/483 451/1/484 321/1/631
f 476/1/522 332/1/524 331/1/638
f 478/1/525 334/1/527 333/1/639
f 341/1/528 459/1/497 342/1/496
f 480/1/529 336/1/487 335/1/640
f 460/1/498 344/1/502 343/1/633
f 454/1/489 338/1/530 337/1/632
f 464/1/504 346/1/531 345/1/635
f 456/1/491 340/1/493 339/1/492
f 468/1/509 348/1/516 347/1/510
f 330/1/521 476/1/522 331/1/638
f 332/1/524 478/1/525 333/1/639
f 322/1/486 461/1/499 323/1/634
f 326/1/532 469/1/511 327/1/636
f 334/1/527 480/1/529 335/1/640
f 324/1/501 465/1/506 325/1/505
f 328/1/513 474/1/519 329/1/637
f 349/1/533 471/1/515 350/1/514
f 441/1/470 481/1/534 482/1/535
f 482/1/535 483/1/536 485/1/538
f 484/1/537 483/1/536 486/1/539
f 473/1/518 486/1/539 471/1/515
f 487/1/540 385/1/395 489/1/542
f 488/1/541 489/1/542 491/1/544
f 490/1/543 491/1/544 492/1/545
f 470/1/512 492/1/545 474/1/519
f 493/1/546 369/1/374 495/1/548
f 494/1/547 495/1/548 497/1/550
f 496/1/549 497/1/550 498/1/551
f 462/1/500 498/1/551 465/1/506
f 499/1/552 402/1/419 501/1/554
f 500/1/553 501/1/554 503/1/556
f 502/1/555 503/1/556 504/1/557
f 502/1/555 480/1/529 479/1/526
f 505/1/558 378/1/387 507/1/560
f 506/1/559 507/1/560 509/1/562
f 508/1/561 509/1/562 510/1/563
f 508/1/561 469/1/511 466/1/507
f 511/1/564 365/1/370 513/1/566
f 512/1/565 513/1/566 514/1/567
f 512/1/565 515/1/568 516/1/569
f 452/1/485 515/1/568 461/1/499
f 517/1/570 393/1/406 519/1/572
f 518/1/571 519/1/572 521/1/574
f 520/1/573 521/1/574 522/1/575
f 477/1/523 522/1/575 478/1/525
f 523/1/576 389/1/402 525/1/578
f 524/1/577 525/1/578 526/1/579
f 524/1/577 527/1/580 528/1/581
f 475/1/520 527/1/580 476/1/522
f 437/1/466 529/1/582 530/1/583
f 530/1/583 531/1/584 532/1/585
f 532/1/585 533/1/586 534/1/587
f 534/1/587 472/1/517 468/1/509
f 413/1/433 535/1/588 536/1/589
f 536/1/589 537/1/590 538/1/591
f 538/1/591 539/1/592 540/1/593
f 540/1/593 457/1/494 456/1/491
f 433/1/459 541/1/594 542/1/595
f 542/1/595 543/1/596 544/1/597
f 544/1/597 545/1/598 546/1/599
f 546/1/599 467/1/508 464/1/504
f 409/1/427 547/1/600 548/1/601
f 548/1/601 549/1/602 551/1/604
f 550/1/603 549/1/602 552/1/605
f 454/1/489 552/1/605 455/1/490
f 425/1/449 553/1/606 554/1/607
f 554/1/607 555/1/608 556/1/609
f 556/1/609 557/1/610 558/1/611
f 558/1/611 463/1/503 460/1/498
f 402/1/419 559/1/612 501/1/554
f 501/1/554 560/1/613 503/1/556
f 504/1/557 560/1/613 561/1/614
f 504/1/557 453/1/488 480/1/529
f 417/1/438 562/1/615 563/1/616
f 563/1/616 564/1/617 566/1/619
f 565/1/618 564/1/617 567/1/620
f 458/1/495 567/1/620 459/1/497
f 393/1/406 499/1/552 519/1/572
f 519/1/572 500/1/553 521/1/574
f 522/1/575 500/1/553 502/1/555
f 522/1/575 479/1/526 478/1/525
f 389/1/402 517/1/570 525/1/578
f 525/1/578 518/1/571 526/1/579
f 526/1/579 520/1/573 527/1/580
f 527/1/580 477/1/523 476/1/522
f 568/1/621 361/1/363 570/1/623
f 569/1/622 570/1/623 572/1/625
f 571/1/624 572/1/625 573/1/626
f 450/1/482 573/1/626 451/1/484
f 385/1/395 523/1/576 489/1/542
f 489/1/542 524/1/577 491/1/544
f 491/1/544 528/1/581 492/1/545
f 474/1/519 528/1/581 475/1/520
f 529/1/582 441/1/470 482/1/535
f 531/1/584 482/1/535 485/1/538
f 533/1/586 485/1/538 484/1/537
f 472/1/517 484/1/537 473/1/518
f 481/1/534 448/1/480 574/1/627
f 481/1/534 575/1/628 483/1/536
f 486/1/539 575/1/628 576/1/629
f 486/1/539 449/1/481 471/1/515
f 378/1/387 487/1/540 507/1/560
f 507/1/560 488/1/541 509/1/562
f 509/1/562 490/1/543 510/1/563
f 510/1/563 470/1/512 469/1/511
f 541/1/594 437/1/466 530/1/583
f 543/1/596 530/1/583 532/1/585
f 543/1/596 534/1/587 545/1/598
f 467/1/508 534/1/587 468/1/509
f 369/1/374 505/1/558 495/1/548
f 495/1/548 506/1/559 497/1/550
f 498/1/551 506/1/559 508/1/561
f 465/1/506 508/1/561 466/1/507
f 553/1/606 433/1/459 542/1/595
f 555/1/608 542/1/595 544/1/597
f 557/1/610 544/1/597 546/1/599
f 463/1/503 546/1/599 464/1/504
f 365/1/370 493/1/546 513/1/566
f 513/1/566 494/1/547 514/1/567
f 514/1/567 496/1/549 515/1/568
f 515/1/568 462/1/500 461/1/499
f 562/1/615 425/1/449 554/1/607
f 564/1/617 554/1/607 556/1/609
f 567/1/620 556/1/609 558/1/611
f 459/1/497 558/1/611 460/1/498
f 535/1/588 417/1/438 563/1/616
f 537/1/590 563/1/616 566/1/619
f 539/1/592 566/1/619 565/1/618
f 457/1/494 565/1/618 458/1/495
f 547/1/600 413/1/433 536/1/589
f 549/1/602 536/1/589 538/1/591
f 549/1/602 540/1/593 552/1/605
f 455/1/490 540/1/593 456/1/491
f 559/1/612 409/1/427 548/1/601
f 560/1/613 548/1/601 551/1/604
f 560/1/613 550/1/603 561/1/614
f 453/1/488 550/1/603 454/1/489
f 361/1/363 511/1/564 570/1/623
f 570/1/623 512/1/565 572/1/625
f 572/1/625 516/1/569 573/1/626
f 573/1/626 452/1/485 451/1/484
f 448/1/480 568/1/621 574/1/627
f 574/1/627 569/1/622 575/1/628
f 576/1/629 569/1/622 571/1/624
f 576/1/629 450/1/482 449/1/481
