# Generated by tools/make-block-meshes.py -- edit that, not this.
# Piano by jeremy, CC-BY 3.0, from https://poly.pizza/m/7U-93vxPOER
v -0.57582 0.71762 0.01883
v -0.56478 0.71762 -0.01497
v -0.57582 0.71762 -0.01497
v -0.56478 0.71762 0.01883
v -0.57582 0.58695 0.01883
v -0.57582 0.58695 -0.01497
v -0.56478 0.58695 -0.01497
v -0.56478 0.58695 0.01883
v -0.55945 0.71762 0.01883
v -0.54842 0.71762 -0.01497
v -0.55945 0.71762 -0.01497
v -0.54842 0.71762 0.01883
v -0.55945 0.58695 0.01883
v -0.55945 0.58695 -0.01497
v -0.54842 0.58695 -0.01497
v -0.54842 0.58695 0.01883
v -0.47443 0.71762 0.01883
v -0.46340 0.71762 -0.01497
v -0.47443 0.71762 -0.01497
v -0.46340 0.71762 0.01883
v -0.47443 0.58695 0.01883
v -0.47443 0.58695 -0.01497
v -0.46340 0.58695 -0.01497
v -0.46340 0.58695 0.01883
v -0.45806 0.71762 0.01883
v -0.44703 0.71762 -0.01497
v -0.45806 0.71762 -0.01497
v -0.44703 0.71762 0.01883
v -0.45806 0.58695 0.01883
v -0.45806 0.58695 -0.01497
v -0.44703 0.58695 -0.01497
v -0.44703 0.58695 0.01883
v -0.37304 0.71762 0.01883
v -0.36201 0.71762 -0.01497
v -0.37304 0.71762 -0.01497
v -0.36201 0.71762 0.01883
v -0.37304 0.58695 0.01883
v -0.37304 0.58695 -0.01497
v -0.36201 0.58695 -0.01497
v -0.36201 0.58695 0.01883
v -0.35668 0.71762 0.01883
v -0.34564 0.71762 -0.01497
v -0.35668 0.71762 -0.01497
v -0.34564 0.71762 0.01883
v -0.35668 0.58695 0.01883
v -0.35668 0.58695 -0.01497
v -0.34564 0.58695 -0.01497
v -0.34564 0.58695 0.01883
v -0.27166 0.71762 0.01883
v -0.26062 0.71762 -0.01497
v -0.27166 0.71762 -0.01497
v -0.26062 0.71762 0.01883
v -0.27166 0.58695 0.01883
v -0.27166 0.58695 -0.01497
v -0.26062 0.58695 -0.01497
v -0.26062 0.58695 0.01883
v -0.25529 0.71762 0.01883
v -0.24426 0.71762 -0.01497
v -0.25529 0.71762 -0.01497
v -0.24426 0.71762 0.01883
v -0.25529 0.58695 0.01883
v -0.25529 0.58695 -0.01497
v -0.24426 0.58695 -0.01497
v -0.24426 0.58695 0.01883
v -0.17027 0.71762 0.01883
v -0.15924 0.71762 -0.01497
v -0.17027 0.71762 -0.01497
v -0.15924 0.71762 0.01883
v -0.17027 0.58695 0.01883
v -0.17027 0.58695 -0.01497
v -0.15924 0.58695 -0.01497
v -0.15924 0.58695 0.01883
v -0.15391 0.71762 0.01883
v -0.14287 0.71762 -0.01497
v -0.15391 0.71762 -0.01497
v -0.14287 0.71762 0.01883
v -0.15391 0.58695 0.01883
v -0.15391 0.58695 -0.01497
v -0.14287 0.58695 -0.01497
v -0.14287 0.58695 0.01883
v -0.06889 0.71762 0.01883
v -0.05785 0.71762 -0.01497
v -0.06889 0.71762 -0.01497
v -0.05785 0.71762 0.01883
v -0.06889 0.58695 0.01883
v -0.06889 0.58695 -0.01497
v -0.05785 0.58695 -0.01497
v -0.05785 0.58695 0.01883
v -0.05252 0.71762 0.01883
v -0.04148 0.71762 -0.01497
v -0.05252 0.71762 -0.01497
v -0.04148 0.71762 0.01883
v -0.05252 0.58695 0.01883
v -0.05252 0.58695 -0.01497
v -0.04148 0.58695 -0.01497
v -0.04148 0.58695 0.01883
v 0.02716 0.71762 0.01883
v 0.03820 0.71762 -0.01497
v 0.02716 0.71762 -0.01497
v 0.03820 0.71762 0.01883
v 0.02716 0.58695 0.01883
v 0.02716 0.58695 -0.01497
v 0.03820 0.58695 -0.01497
v 0.03820 0.58695 0.01883
v 0.04353 0.71762 0.01883
v 0.05456 0.71762 -0.01497
v 0.04353 0.71762 -0.01497
v 0.05456 0.71762 0.01883
v 0.04353 0.58695 0.01883
v 0.04353 0.58695 -0.01497
v 0.05456 0.58695 -0.01497
v 0.05456 0.58695 0.01883
v 0.13017 0.71762 0.01883
v 0.14121 0.71762 -0.01497
v 0.13017 0.71762 -0.01497
v 0.14121 0.71762 0.01883
v 0.13017 0.58695 0.01883
v 0.13017 0.58695 -0.01497
v 0.14121 0.58695 -0.01497
v 0.14121 0.58695 0.01883
v 0.14654 0.71762 0.01883
v 0.15758 0.71762 -0.01497
v 0.14654 0.71762 -0.01497
v 0.15758 0.71762 0.01883
v 0.14654 0.58695 0.01883
v 0.14654 0.58695 -0.01497
v 0.15758 0.58695 -0.01497
v 0.15758 0.58695 0.01883
v 0.23181 0.71762 0.01883
v 0.24285 0.71762 -0.01497
v 0.23181 0.71762 -0.01497
v 0.24285 0.71762 0.01883
v 0.23181 0.58695 0.01883
v 0.23181 0.58695 -0.01497
v 0.24285 0.58695 -0.01497
v 0.24285 0.58695 0.01883
v 0.24818 0.71762 0.01883
v 0.25922 0.71762 -0.01497
v 0.24818 0.71762 -0.01497
v 0.25922 0.71762 0.01883
v 0.24818 0.58695 0.01883
v 0.24818 0.58695 -0.01497
v 0.25922 0.58695 -0.01497
v 0.25922 0.58695 0.01883
v 0.33188 0.71762 0.01883
v 0.34292 0.71762 -0.01497
v 0.33188 0.71762 -0.01497
v 0.34292 0.71762 0.01883
v 0.33188 0.58695 0.01883
v 0.33188 0.58695 -0.01497
v 0.34292 0.58695 -0.01497
v 0.34292 0.58695 0.01883
v 0.34825 0.71762 0.01883
v 0.35929 0.71762 -0.01497
v 0.34825 0.71762 -0.01497
v 0.35929 0.71762 0.01883
v 0.34825 0.58695 0.01883
v 0.34825 0.58695 -0.01497
v 0.35929 0.58695 -0.01497
v 0.35929 0.58695 0.01883
v 0.43138 0.71762 0.01883
v 0.44242 0.71762 -0.01497
v 0.43138 0.71762 -0.01497
v 0.44242 0.71762 0.01883
v 0.43138 0.58695 0.01883
v 0.43138 0.58695 -0.01497
v 0.44242 0.58695 -0.01497
v 0.44242 0.58695 0.01883
v 0.44775 0.71762 0.01883
v 0.45879 0.71762 -0.01497
v 0.44775 0.71762 -0.01497
v 0.45879 0.71762 0.01883
v 0.44775 0.58695 0.01883
v 0.44775 0.58695 -0.01497
v 0.45879 0.58695 -0.01497
v 0.45879 0.58695 0.01883
v 0.53409 0.71762 0.01883
v 0.54512 0.71762 -0.01497
v 0.53409 0.71762 -0.01497
v 0.54512 0.71762 0.01883
v 0.53409 0.58695 0.01883
v 0.53409 0.58695 -0.01497
v 0.54512 0.58695 -0.01497
v 0.54512 0.58695 0.01883
v 0.55045 0.71762 0.01883
v 0.56149 0.71762 -0.01497
v 0.55045 0.71762 -0.01497
v 0.56149 0.71762 0.01883
v 0.55045 0.58695 0.01883
v 0.55045 0.58695 -0.01497
v 0.56149 0.58695 -0.01497
v 0.56149 0.58695 0.01883
v -0.50589 0.71762 0.01883
v -0.49485 0.71762 -0.01497
v -0.50589 0.71762 -0.01497
v -0.49485 0.71762 0.01883
v -0.50589 0.58695 0.01883
v -0.50589 0.58695 -0.01497
v -0.49485 0.58695 -0.01497
v -0.49485 0.58695 0.01883
v -0.48952 0.71762 0.01883
v -0.47849 0.71762 -0.01497
v -0.48952 0.71762 -0.01497
v -0.47849 0.71762 0.01883
v -0.48952 0.58695 0.01883
v -0.48952 0.58695 -0.01497
v -0.47849 0.58695 -0.01497
v -0.47849 0.58695 0.01883
v -0.30355 0.71762 0.01883
v -0.29251 0.71762 -0.01497
v -0.30355 0.71762 -0.01497
v -0.29251 0.71762 0.01883
v -0.30355 0.58695 0.01883
v -0.30355 0.58695 -0.01497
v -0.29251 0.58695 -0.01497
v -0.29251 0.58695 0.01883
v -0.28718 0.71762 0.01883
v -0.27615 0.71762 -0.01497
v -0.28718 0.71762 -0.01497
v -0.27615 0.71762 0.01883
v -0.28718 0.58695 0.01883
v -0.28718 0.58695 -0.01497
v -0.27615 0.58695 -0.01497
v -0.27615 0.58695 0.01883
v -0.10161 0.71762 0.01883
v -0.09057 0.71762 -0.01497
v -0.10161 0.71762 -0.01497
v -0.09057 0.71762 0.01883
v -0.10161 0.58695 0.01883
v -0.10161 0.58695 -0.01497
v -0.09057 0.58695 -0.01497
v -0.09057 0.58695 0.01883
v -0.08524 0.71762 0.01883
v -0.07420 0.71762 -0.01497
v -0.08524 0.71762 -0.01497
v -0.07420 0.71762 0.01883
v -0.08524 0.58695 0.01883
v -0.08524 0.58695 -0.01497
v -0.07420 0.58695 -0.01497
v -0.07420 0.58695 0.01883
v 0.09827 0.71762 0.01883
v 0.10931 0.71762 -0.01497
v 0.09827 0.71762 -0.01497
v 0.10931 0.71762 0.01883
v 0.09827 0.58695 0.01883
v 0.09827 0.58695 -0.01497
v 0.10931 0.58695 -0.01497
v 0.10931 0.58695 0.01883
v 0.11464 0.71762 0.01883
v 0.12568 0.71762 -0.01497
v 0.11464 0.71762 -0.01497
v 0.12568 0.71762 0.01883
v 0.11464 0.58695 0.01883
v 0.11464 0.58695 -0.01497
v 0.12568 0.58695 -0.01497
v 0.12568 0.58695 0.01883
v 0.19971 0.71762 0.01883
v 0.21075 0.71762 -0.01497
v 0.19971 0.71762 -0.01497
v 0.21075 0.71762 0.01883
v 0.19971 0.58695 0.01883
v 0.19971 0.58695 -0.01497
v 0.21075 0.58695 -0.01497
v 0.21075 0.58695 0.01883
v 0.21608 0.71762 0.01883
v 0.22712 0.71762 -0.01497
v 0.21608 0.71762 -0.01497
v 0.22712 0.71762 0.01883
v 0.21608 0.58695 0.01883
v 0.21608 0.58695 -0.01497
v 0.22712 0.58695 -0.01497
v 0.22712 0.58695 0.01883
v 0.30003 0.71762 0.01883
v 0.31106 0.71762 -0.01497
v 0.30003 0.71762 -0.01497
v 0.31106 0.71762 0.01883
v 0.30003 0.58695 0.01883
v 0.30003 0.58695 -0.01497
v 0.31106 0.58695 -0.01497
v 0.31106 0.58695 0.01883
v 0.31639 0.71762 0.01883
v 0.32743 0.71762 -0.01497
v 0.31639 0.71762 -0.01497
v 0.32743 0.71762 0.01883
v 0.31639 0.58695 0.01883
v 0.31639 0.58695 -0.01497
v 0.32743 0.58695 -0.01497
v 0.32743 0.58695 0.01883
v 0.50160 0.71762 0.01883
v 0.51264 0.71762 -0.01497
v 0.50160 0.71762 -0.01497
v 0.51264 0.71762 0.01883
v 0.50160 0.58695 0.01883
v 0.50160 0.58695 -0.01497
v 0.51264 0.58695 -0.01497
v 0.51264 0.58695 0.01883
v 0.51797 0.71762 0.01883
v 0.52901 0.71762 -0.01497
v 0.51797 0.71762 -0.01497
v 0.52901 0.71762 0.01883
v 0.51797 0.58695 0.01883
v 0.51797 0.58695 -0.01497
v 0.52901 0.58695 -0.01497
v 0.52901 0.58695 0.01883
v -0.36883 -0.50657 -0.06070
v -0.19400 -0.50657 -0.10682
v -0.36883 -0.50657 -0.10682
v -0.19400 -0.50657 -0.06070
v -0.36883 -0.68140 -0.06070
v -0.36883 -0.68140 -0.10682
v -0.19400 -0.68140 -0.10682
v -0.19400 -0.68140 -0.06070
v -0.22976 -0.64564 -0.12353
v -0.33307 -0.64564 -0.12353
v -0.30639 -0.61895 -0.60470
v -0.25645 -0.61895 -0.60470
v -0.22976 -0.54233 -0.12353
v -0.33307 -0.54233 -0.12353
v -0.30639 -0.56902 -0.60470
v -0.25645 -0.56902 -0.60470
v -0.62093 0.73935 -0.06070
v -0.44611 0.73935 -0.10682
v -0.62093 0.73935 -0.10682
v -0.44611 0.73935 -0.06070
v -0.62093 0.56452 -0.06070
v -0.62093 0.56452 -0.10682
v -0.44611 0.56452 -0.10682
v -0.44611 0.56452 -0.06070
v -0.48186 0.60028 -0.12353
v -0.58518 0.60028 -0.12353
v -0.55849 0.62697 -0.60470
v -0.50855 0.62697 -0.60470
v -0.48186 0.70359 -0.12353
v -0.58518 0.70359 -0.12353
v -0.55849 0.67691 -0.60470
v -0.50855 0.67691 -0.60470
v 0.62856 0.73935 -0.06070
v 0.45374 0.73935 -0.10682
v 0.45374 0.73935 -0.06070
v 0.62856 0.73935 -0.10682
v 0.62856 0.56452 -0.10682
v 0.62856 0.56452 -0.06070
v 0.45374 0.56452 -0.10682
v 0.45374 0.56452 -0.06070
v 0.48950 0.60028 -0.12353
v 0.59281 0.60028 -0.12353
v 0.56612 0.62697 -0.60470
v 0.51618 0.62697 -0.60470
v 0.48950 0.70359 -0.12353
v 0.59281 0.70359 -0.12353
v 0.56612 0.67691 -0.60470
v 0.51618 0.67691 -0.60470
v -0.66883 0.63426 0.16292
v -0.62402 0.63426 0.07441
v -0.66883 0.63426 0.07441
v -0.62402 0.63426 0.16292
v -0.59285 -0.62742 0.16292
v -0.66883 0.00342 0.07441
v -0.59285 -0.62742 0.07441
v -0.66883 0.00342 0.16292
v 0.03799 0.00342 -0.08049
v 0.66883 0.00342 -0.08049
v 0.30364 -0.20566 -0.08049
v 0.63071 0.00342 -0.08049
v 0.66883 0.00342 0.16292
v 0.66883 0.00342 0.07441
v 0.66883 0.63426 0.07441
v 0.66883 0.63426 0.16292
v -0.59867 0.48992 0.16292
v -0.55931 0.48992 0.16292
v -0.27743 -0.80000 0.16292
v 0.03799 -0.62742 0.16292
v 0.02230 -0.57525 0.16292
v -0.25481 -0.74033 0.16292
v 0.30364 -0.20566 0.16292
v 0.30364 -0.20566 0.07441
v 0.63071 0.63426 -0.08049
v 0.66883 0.63426 -0.08049
v 0.03799 -0.62742 0.07441
v -0.27743 0.63426 -0.08049
v 0.03799 0.63426 -0.08049
v -0.27743 0.00342 -0.08049
v -0.27743 0.63426 0.16292
v -0.25481 0.48992 0.16292
v 0.25568 -0.18493 0.16292
v 0.03799 -0.62742 -0.08049
v -0.27743 -0.80000 -0.08049
v -0.27743 -0.80000 0.07441
v 0.03799 0.63426 0.16292
v 0.63071 0.63426 0.07441
v 0.03799 0.63426 0.07441
v 0.63071 0.63426 0.16292
v -0.55674 -0.64717 0.16292
v -0.55674 -0.64717 0.07441
v -0.50020 -0.62552 0.16292
v -0.62402 0.00342 -0.08049
v -0.55674 -0.64717 -0.08049
v 0.02230 0.48992 0.16292
v 0.54303 0.48992 0.16292
v -0.59867 0.01601 0.16292
v -0.62402 0.63426 -0.08049
v -0.27743 0.63426 0.07441
v 0.03799 0.80000 -0.08049
v -0.27743 0.80000 -0.08049
v -0.55674 -0.64717 -0.01411
v -0.27743 -0.80000 -0.01411
v 0.66883 0.80000 -0.08049
v 0.63071 0.80000 -0.08049
v 0.03799 -0.62742 -0.01411
v -0.66883 0.00342 -0.01411
v -0.66883 0.63426 -0.08049
v -0.66883 0.00342 -0.08049
v -0.66883 0.63426 -0.01411
v 0.30364 -0.20566 -0.01411
v 0.66883 0.00342 -0.01411
v 0.66883 0.63426 -0.01411
v -0.59285 -0.62742 -0.01411
v -0.59285 -0.62742 -0.08049
v 0.66883 0.80000 -0.01411
v -0.27743 0.80000 -0.01411
v 0.03799 0.80000 -0.01411
v 0.63071 0.80000 -0.01411
v -0.66883 0.80000 -0.01411
v -0.62402 0.80000 -0.08049
v -0.66883 0.80000 -0.08049
v -0.62402 0.80000 -0.01411
v 0.03799 0.63426 -0.01411
v 0.63071 0.63426 -0.01411
v -0.27743 0.63426 -0.01411
v -0.62402 0.79818 0.07441
v -0.66883 0.79818 0.07441
v 0.58828 0.00342 0.64909
v 0.24799 -0.20566 0.51656
v 0.00045 0.00342 0.42014
v 0.58828 0.63426 0.64909
v 0.00045 0.63426 0.42014
v -0.29346 -0.80000 0.30567
v -0.29346 0.00342 0.30567
v 0.00045 -0.62742 0.42014
v -0.29346 0.63426 0.30567
v -0.65817 0.00342 0.16363
v -0.65817 0.63426 0.16363
v -0.58738 -0.62742 0.19120
v 0.57934 0.00342 0.67205
v -0.00849 0.00342 0.44310
v 0.23905 -0.20566 0.53951
v -0.00849 0.63426 0.44310
v 0.57934 0.63426 0.67205
v -0.30240 0.00342 0.32863
v -0.30240 -0.80000 0.32863
v -0.00849 -0.62742 0.44310
v -0.30240 0.63426 0.32863
v -0.66712 0.63426 0.18658
v -0.66712 0.00342 0.18658
v -0.59632 -0.62742 0.21416
v 0.63071 0.79818 0.07441
v 0.66883 0.79818 0.07441
v 0.57651 0.48992 0.16292
v -0.62402 0.63426 -0.01411
v -0.53192 -0.61068 0.16292
v 0.49588 0.33031 0.12987
v 0.47514 0.30737 0.12401
v 0.47514 0.33031 0.12401
v 0.49588 0.30737 0.12987
v 0.32426 0.33031 0.55969
v 0.32426 0.30737 0.55969
v 0.34445 0.30737 0.56725
v 0.34445 0.33031 0.56725
v -0.25481 -0.74033 0.13568
v 0.02230 -0.57525 0.13568
v -0.59867 0.48992 0.13568
v -0.55931 0.48992 0.13568
v -0.53192 -0.61068 0.13568
v -0.50020 -0.62552 0.13568
v 0.02230 0.48992 0.13568
v 0.54303 0.48992 0.13568
v -0.25481 0.48992 0.13568
v 0.25568 -0.18493 0.13568
v 0.57651 0.48992 0.13568
v -0.59867 0.01601 0.13568
v 0.57651 0.01601 0.16292
v 0.57651 0.01601 0.13568
v -0.62471 0.76138 0.00522
v -0.61367 0.76138 -0.02857
v -0.62471 0.76138 -0.02857
v -0.61367 0.76138 0.00522
v -0.62471 0.63071 0.00522
v -0.62471 0.63071 -0.02857
v -0.61367 0.63071 -0.02857
v -0.61367 0.63071 0.00522
v -0.61036 0.76138 0.00522
v -0.59932 0.76138 -0.02857
v -0.61036 0.76138 -0.02857
v -0.59932 0.76138 0.00522
v -0.61036 0.63071 0.00522
v -0.61036 0.63071 -0.02857
v -0.59932 0.63071 -0.02857
v -0.59932 0.63071 0.00522
v -0.59601 0.76138 0.00522
v -0.58498 0.76138 -0.02857
v -0.59601 0.76138 -0.02857
v -0.58498 0.76138 0.00522
v -0.59601 0.63071 0.00522
v -0.59601 0.63071 -0.02857
v -0.58498 0.63071 -0.02857
v -0.58498 0.63071 0.00522
v -0.58167 0.76138 0.00522
v -0.57063 0.76138 -0.02857
v -0.58167 0.76138 -0.02857
v -0.57063 0.76138 0.00522
v -0.58167 0.63071 0.00522
v -0.58167 0.63071 -0.02857
v -0.57063 0.63071 -0.02857
v -0.57063 0.63071 0.00522
v -0.56732 0.76138 0.00522
v -0.55629 0.76138 -0.02857
v -0.56732 0.76138 -0.02857
v -0.55629 0.76138 0.00522
v -0.56732 0.63071 0.00522
v -0.56732 0.63071 -0.02857
v -0.55629 0.63071 -0.02857
v -0.55629 0.63071 0.00522
v -0.55298 0.76138 0.00522
v -0.54194 0.76138 -0.02857
v -0.55298 0.76138 -0.02857
v -0.54194 0.76138 0.00522
v -0.55298 0.63071 0.00522
v -0.55298 0.63071 -0.02857
v -0.54194 0.63071 -0.02857
v -0.54194 0.63071 0.00522
v -0.53863 0.76138 0.00522
v -0.52760 0.76138 -0.02857
v -0.53863 0.76138 -0.02857
v -0.52760 0.76138 0.00522
v -0.53863 0.63071 0.00522
v -0.53863 0.63071 -0.02857
v -0.52760 0.63071 -0.02857
v -0.52760 0.63071 0.00522
v -0.52429 0.76138 0.00522
v -0.51325 0.76138 -0.02857
v -0.52429 0.76138 -0.02857
v -0.51325 0.76138 0.00522
v -0.52429 0.63071 0.00522
v -0.52429 0.63071 -0.02857
v -0.51325 0.63071 -0.02857
v -0.51325 0.63071 0.00522
v -0.50994 0.76138 0.00522
v -0.49891 0.76138 -0.02857
v -0.50994 0.76138 -0.02857
v -0.49891 0.76138 0.00522
v -0.50994 0.63071 0.00522
v -0.50994 0.63071 -0.02857
v -0.49891 0.63071 -0.02857
v -0.49891 0.63071 0.00522
v -0.49560 0.76138 0.00522
v -0.48456 0.76138 -0.02857
v -0.49560 0.76138 -0.02857
v -0.48456 0.76138 0.00522
v -0.49560 0.63071 0.00522
v -0.49560 0.63071 -0.02857
v -0.48456 0.63071 -0.02857
v -0.48456 0.63071 0.00522
v -0.48125 0.76138 0.00522
v -0.47022 0.76138 -0.02857
v -0.48125 0.76138 -0.02857
v -0.47022 0.76138 0.00522
v -0.48125 0.63071 0.00522
v -0.48125 0.63071 -0.02857
v -0.47022 0.63071 -0.02857
v -0.47022 0.63071 0.00522
v -0.46691 0.76138 0.00522
v -0.45587 0.76138 -0.02857
v -0.46691 0.76138 -0.02857
v -0.45587 0.76138 0.00522
v -0.46691 0.63071 0.00522
v -0.46691 0.63071 -0.02857
v -0.45587 0.63071 -0.02857
v -0.45587 0.63071 0.00522
v -0.45256 0.76138 0.00522
v -0.44152 0.76138 -0.02857
v -0.45256 0.76138 -0.02857
v -0.44152 0.76138 0.00522
v -0.45256 0.63071 0.00522
v -0.45256 0.63071 -0.02857
v -0.44152 0.63071 -0.02857
v -0.44152 0.63071 0.00522
v -0.43821 0.76138 0.00522
v -0.42718 0.76138 -0.02857
v -0.43821 0.76138 -0.02857
v -0.42718 0.76138 0.00522
v -0.43821 0.63071 0.00522
v -0.43821 0.63071 -0.02857
v -0.42718 0.63071 -0.02857
v -0.42718 0.63071 0.00522
v -0.42387 0.76138 0.00522
v -0.41283 0.76138 -0.02857
v -0.42387 0.76138 -0.02857
v -0.41283 0.76138 0.00522
v -0.42387 0.63071 0.00522
v -0.42387 0.63071 -0.02857
v -0.41283 0.63071 -0.02857
v -0.41283 0.63071 0.00522
v -0.40952 0.76138 0.00522
v -0.39849 0.76138 -0.02857
v -0.40952 0.76138 -0.02857
v -0.39849 0.76138 0.00522
v -0.40952 0.63071 0.00522
v -0.40952 0.63071 -0.02857
v -0.39849 0.63071 -0.02857
v -0.39849 0.63071 0.00522
v -0.39518 0.76138 0.00522
v -0.38414 0.76138 -0.02857
v -0.39518 0.76138 -0.02857
v -0.38414 0.76138 0.00522
v -0.39518 0.63071 0.00522
v -0.39518 0.63071 -0.02857
v -0.38414 0.63071 -0.02857
v -0.38414 0.63071 0.00522
v -0.38083 0.76138 0.00522
v -0.36980 0.76138 -0.02857
v -0.38083 0.76138 -0.02857
v -0.36980 0.76138 0.00522
v -0.38083 0.63071 0.00522
v -0.38083 0.63071 -0.02857
v -0.36980 0.63071 -0.02857
v -0.36980 0.63071 0.00522
v -0.36649 0.76138 0.00522
v -0.35545 0.76138 -0.02857
v -0.36649 0.76138 -0.02857
v -0.35545 0.76138 0.00522
v -0.36649 0.63071 0.00522
v -0.36649 0.63071 -0.02857
v -0.35545 0.63071 -0.02857
v -0.35545 0.63071 0.00522
v -0.35214 0.76138 0.00522
v -0.34111 0.76138 -0.02857
v -0.35214 0.76138 -0.02857
v -0.34111 0.76138 0.00522
v -0.35214 0.63071 0.00522
v -0.35214 0.63071 -0.02857
v -0.34111 0.63071 -0.02857
v -0.34111 0.63071 0.00522
v -0.33780 0.76138 0.00522
v -0.32676 0.76138 -0.02857
v -0.33780 0.76138 -0.02857
v -0.32676 0.76138 0.00522
v -0.33780 0.63071 0.00522
v -0.33780 0.63071 -0.02857
v -0.32676 0.63071 -0.02857
v -0.32676 0.63071 0.00522
v -0.32345 0.76138 0.00522
v -0.31242 0.76138 -0.02857
v -0.32345 0.76138 -0.02857
v -0.31242 0.76138 0.00522
v -0.32345 0.63071 0.00522
v -0.32345 0.63071 -0.02857
v -0.31242 0.63071 -0.02857
v -0.31242 0.63071 0.00522
v -0.30911 0.76138 0.00522
v -0.29807 0.76138 -0.02857
v -0.30911 0.76138 -0.02857
v -0.29807 0.76138 0.00522
v -0.30911 0.63071 0.00522
v -0.30911 0.63071 -0.02857
v -0.29807 0.63071 -0.02857
v -0.29807 0.63071 0.00522
v -0.29476 0.76138 0.00522
v -0.28373 0.76138 -0.02857
v -0.29476 0.76138 -0.02857
v -0.28373 0.76138 0.00522
v -0.29476 0.63071 0.00522
v -0.29476 0.63071 -0.02857
v -0.28373 0.63071 -0.02857
v -0.28373 0.63071 0.00522
v -0.28041 0.76138 0.00522
v -0.26938 0.76138 -0.02857
v -0.28041 0.76138 -0.02857
v -0.26938 0.76138 0.00522
v -0.28041 0.63071 0.00522
v -0.28041 0.63071 -0.02857
v -0.26938 0.63071 -0.02857
v -0.26938 0.63071 0.00522
v -0.26607 0.76138 0.00522
v -0.25503 0.76138 -0.02857
v -0.26607 0.76138 -0.02857
v -0.25503 0.76138 0.00522
v -0.26607 0.63071 0.00522
v -0.26607 0.63071 -0.02857
v -0.25503 0.63071 -0.02857
v -0.25503 0.63071 0.00522
v -0.25172 0.76138 0.00522
v -0.24069 0.76138 -0.02857
v -0.25172 0.76138 -0.02857
v -0.24069 0.76138 0.00522
v -0.25172 0.63071 0.00522
v -0.25172 0.63071 -0.02857
v -0.24069 0.63071 -0.02857
v -0.24069 0.63071 0.00522
v -0.23738 0.76138 0.00522
v -0.22634 0.76138 -0.02857
v -0.23738 0.76138 -0.02857
v -0.22634 0.76138 0.00522
v -0.23738 0.63071 0.00522
v -0.23738 0.63071 -0.02857
v -0.22634 0.63071 -0.02857
v -0.22634 0.63071 0.00522
v -0.22303 0.76138 0.00522
v -0.21200 0.76138 -0.02857
v -0.22303 0.76138 -0.02857
v -0.21200 0.76138 0.00522
v -0.22303 0.63071 0.00522
v -0.22303 0.63071 -0.02857
v -0.21200 0.63071 -0.02857
v -0.21200 0.63071 0.00522
v -0.20869 0.76138 0.00522
v -0.19765 0.76138 -0.02857
v -0.20869 0.76138 -0.02857
v -0.19765 0.76138 0.00522
v -0.20869 0.63071 0.00522
v -0.20869 0.63071 -0.02857
v -0.19765 0.63071 -0.02857
v -0.19765 0.63071 0.00522
v -0.19434 0.76138 0.00522
v -0.18331 0.76138 -0.02857
v -0.19434 0.76138 -0.02857
v -0.18331 0.76138 0.00522
v -0.19434 0.63071 0.00522
v -0.19434 0.63071 -0.02857
v -0.18331 0.63071 -0.02857
v -0.18331 0.63071 0.00522
v -0.18000 0.76138 0.00522
v -0.16896 0.76138 -0.02857
v -0.18000 0.76138 -0.02857
v -0.16896 0.76138 0.00522
v -0.18000 0.63071 0.00522
v -0.18000 0.63071 -0.02857
v -0.16896 0.63071 -0.02857
v -0.16896 0.63071 0.00522
v -0.16565 0.76138 0.00522
v -0.15462 0.76138 -0.02857
v -0.16565 0.76138 -0.02857
v -0.15462 0.76138 0.00522
v -0.16565 0.63071 0.00522
v -0.16565 0.63071 -0.02857
v -0.15462 0.63071 -0.02857
v -0.15462 0.63071 0.00522
v -0.15131 0.76138 0.00522
v -0.14027 0.76138 -0.02857
v -0.15131 0.76138 -0.02857
v -0.14027 0.76138 0.00522
v -0.15131 0.63071 0.00522
v -0.15131 0.63071 -0.02857
v -0.14027 0.63071 -0.02857
v -0.14027 0.63071 0.00522
v -0.13696 0.76138 0.00522
v -0.12593 0.76138 -0.02857
v -0.13696 0.76138 -0.02857
v -0.12593 0.76138 0.00522
v -0.13696 0.63071 0.00522
v -0.13696 0.63071 -0.02857
v -0.12593 0.63071 -0.02857
v -0.12593 0.63071 0.00522
v -0.12261 0.76138 0.00522
v -0.11158 0.76138 -0.02857
v -0.12261 0.76138 -0.02857
v -0.11158 0.76138 0.00522
v -0.12261 0.63071 0.00522
v -0.12261 0.63071 -0.02857
v -0.11158 0.63071 -0.02857
v -0.11158 0.63071 0.00522
v -0.10827 0.76138 0.00522
v -0.09723 0.76138 -0.02857
v -0.10827 0.76138 -0.02857
v -0.09723 0.76138 0.00522
v -0.10827 0.63071 0.00522
v -0.10827 0.63071 -0.02857
v -0.09723 0.63071 -0.02857
v -0.09723 0.63071 0.00522
v -0.09392 0.76138 0.00522
v -0.08289 0.76138 -0.02857
v -0.09392 0.76138 -0.02857
v -0.08289 0.76138 0.00522
v -0.09392 0.63071 0.00522
v -0.09392 0.63071 -0.02857
v -0.08289 0.63071 -0.02857
v -0.08289 0.63071 0.00522
v -0.07958 0.76138 0.00522
v -0.06854 0.76138 -0.02857
v -0.07958 0.76138 -0.02857
v -0.06854 0.76138 0.00522
v -0.07958 0.63071 0.00522
v -0.07958 0.63071 -0.02857
v -0.06854 0.63071 -0.02857
v -0.06854 0.63071 0.00522
v -0.06523 0.76138 0.00522
v -0.05420 0.76138 -0.02857
v -0.06523 0.76138 -0.02857
v -0.05420 0.76138 0.00522
v -0.06523 0.63071 0.00522
v -0.06523 0.63071 -0.02857
v -0.05420 0.63071 -0.02857
v -0.05420 0.63071 0.00522
v -0.05089 0.76138 0.00522
v -0.03985 0.76138 -0.02857
v -0.05089 0.76138 -0.02857
v -0.03985 0.76138 0.00522
v -0.05089 0.63071 0.00522
v -0.05089 0.63071 -0.02857
v -0.03985 0.63071 -0.02857
v -0.03985 0.63071 0.00522
v -0.03654 0.76138 0.00522
v -0.02551 0.76138 -0.02857
v -0.03654 0.76138 -0.02857
v -0.02551 0.76138 0.00522
v -0.03654 0.63071 0.00522
v -0.03654 0.63071 -0.02857
v -0.02551 0.63071 -0.02857
v -0.02551 0.63071 0.00522
v -0.02220 0.76138 0.00522
v -0.01116 0.76138 -0.02857
v -0.02220 0.76138 -0.02857
v -0.01116 0.76138 0.00522
v -0.02220 0.63071 0.00522
v -0.02220 0.63071 -0.02857
v -0.01116 0.63071 -0.02857
v -0.01116 0.63071 0.00522
v -0.00785 0.76138 0.00522
v 0.00318 0.76138 -0.02857
v -0.00785 0.76138 -0.02857
v 0.00318 0.76138 0.00522
v -0.00785 0.63071 0.00522
v -0.00785 0.63071 -0.02857
v 0.00318 0.63071 -0.02857
v 0.00318 0.63071 0.00522
v 0.00649 0.76138 0.00522
v 0.01753 0.76138 -0.02857
v 0.00649 0.76138 -0.02857
v 0.01753 0.76138 0.00522
v 0.00649 0.63071 0.00522
v 0.00649 0.63071 -0.02857
v 0.01753 0.63071 -0.02857
v 0.01753 0.63071 0.00522
v 0.02084 0.76138 0.00522
v 0.03187 0.76138 -0.02857
v 0.02084 0.76138 -0.02857
v 0.03187 0.76138 0.00522
v 0.02084 0.63071 0.00522
v 0.02084 0.63071 -0.02857
v 0.03187 0.63071 -0.02857
v 0.03187 0.63071 0.00522
v 0.03518 0.76138 0.00522
v 0.04622 0.76138 -0.02857
v 0.03518 0.76138 -0.02857
v 0.04622 0.76138 0.00522
v 0.03518 0.63071 0.00522
v 0.03518 0.63071 -0.02857
v 0.04622 0.63071 -0.02857
v 0.04622 0.63071 0.00522
v 0.04953 0.76138 0.00522
v 0.06057 0.76138 -0.02857
v 0.04953 0.76138 -0.02857
v 0.06057 0.76138 0.00522
v 0.04953 0.63071 0.00522
v 0.04953 0.63071 -0.02857
v 0.06057 0.63071 -0.02857
v 0.06057 0.63071 0.00522
v 0.06388 0.76138 0.00522
v 0.07491 0.76138 -0.02857
v 0.06388 0.76138 -0.02857
v 0.07491 0.76138 0.00522
v 0.06388 0.63071 0.00522
v 0.06388 0.63071 -0.02857
v 0.07491 0.63071 -0.02857
v 0.07491 0.63071 0.00522
v 0.07822 0.76138 0.00522
v 0.08926 0.76138 -0.02857
v 0.07822 0.76138 -0.02857
v 0.08926 0.76138 0.00522
v 0.07822 0.63071 0.00522
v 0.07822 0.63071 -0.02857
v 0.08926 0.63071 -0.02857
v 0.08926 0.63071 0.00522
v 0.09257 0.76138 0.00522
v 0.10360 0.76138 -0.02857
v 0.09257 0.76138 -0.02857
v 0.10360 0.76138 0.00522
v 0.09257 0.63071 0.00522
v 0.09257 0.63071 -0.02857
v 0.10360 0.63071 -0.02857
v 0.10360 0.63071 0.00522
v 0.10691 0.76138 0.00522
v 0.11795 0.76138 -0.02857
v 0.10691 0.76138 -0.02857
v 0.11795 0.76138 0.00522
v 0.10691 0.63071 0.00522
v 0.10691 0.63071 -0.02857
v 0.11795 0.63071 -0.02857
v 0.11795 0.63071 0.00522
v 0.12126 0.76138 0.00522
v 0.13229 0.76138 -0.02857
v 0.12126 0.76138 -0.02857
v 0.13229 0.76138 0.00522
v 0.12126 0.63071 0.00522
v 0.12126 0.63071 -0.02857
v 0.13229 0.63071 -0.02857
v 0.13229 0.63071 0.00522
v 0.13560 0.76138 0.00522
v 0.14664 0.76138 -0.02857
v 0.13560 0.76138 -0.02857
v 0.14664 0.76138 0.00522
v 0.13560 0.63071 0.00522
v 0.13560 0.63071 -0.02857
v 0.14664 0.63071 -0.02857
v 0.14664 0.63071 0.00522
v 0.14995 0.76138 0.00522
v 0.16098 0.76138 -0.02857
v 0.14995 0.76138 -0.02857
v 0.16098 0.76138 0.00522
v 0.14995 0.63071 0.00522
v 0.14995 0.63071 -0.02857
v 0.16098 0.63071 -0.02857
v 0.16098 0.63071 0.00522
v 0.16429 0.76138 0.00522
v 0.17533 0.76138 -0.02857
v 0.16429 0.76138 -0.02857
v 0.17533 0.76138 0.00522
v 0.16429 0.63071 0.00522
v 0.16429 0.63071 -0.02857
v 0.17533 0.63071 -0.02857
v 0.17533 0.63071 0.00522
v 0.17864 0.76138 0.00522
v 0.18967 0.76138 -0.02857
v 0.17864 0.76138 -0.02857
v 0.18967 0.76138 0.00522
v 0.17864 0.63071 0.00522
v 0.17864 0.63071 -0.02857
v 0.18967 0.63071 -0.02857
v 0.18967 0.63071 0.00522
v 0.19298 0.76138 0.00522
v 0.20402 0.76138 -0.02857
v 0.19298 0.76138 -0.02857
v 0.20402 0.76138 0.00522
v 0.19298 0.63071 0.00522
v 0.19298 0.63071 -0.02857
v 0.20402 0.63071 -0.02857
v 0.20402 0.63071 0.00522
v 0.20733 0.76138 0.00522
v 0.21836 0.76138 -0.02857
v 0.20733 0.76138 -0.02857
v 0.21836 0.76138 0.00522
v 0.20733 0.63071 0.00522
v 0.20733 0.63071 -0.02857
v 0.21836 0.63071 -0.02857
v 0.21836 0.63071 0.00522
v 0.22168 0.76138 0.00522
v 0.23271 0.76138 -0.02857
v 0.22168 0.76138 -0.02857
v 0.23271 0.76138 0.00522
v 0.22168 0.63071 0.00522
v 0.22168 0.63071 -0.02857
v 0.23271 0.63071 -0.02857
v 0.23271 0.63071 0.00522
v 0.23602 0.76138 0.00522
v 0.24706 0.76138 -0.02857
v 0.23602 0.76138 -0.02857
v 0.24706 0.76138 0.00522
v 0.23602 0.63071 0.00522
v 0.23602 0.63071 -0.02857
v 0.24706 0.63071 -0.02857
v 0.24706 0.63071 0.00522
v 0.25037 0.76138 0.00522
v 0.26140 0.76138 -0.02857
v 0.25037 0.76138 -0.02857
v 0.26140 0.76138 0.00522
v 0.25037 0.63071 0.00522
v 0.25037 0.63071 -0.02857
v 0.26140 0.63071 -0.02857
v 0.26140 0.63071 0.00522
v 0.26471 0.76138 0.00522
v 0.27575 0.76138 -0.02857
v 0.26471 0.76138 -0.02857
v 0.27575 0.76138 0.00522
v 0.26471 0.63071 0.00522
v 0.26471 0.63071 -0.02857
v 0.27575 0.63071 -0.02857
v 0.27575 0.63071 0.00522
v 0.27906 0.76138 0.00522
v 0.29009 0.76138 -0.02857
v 0.27906 0.76138 -0.02857
v 0.29009 0.76138 0.00522
v 0.27906 0.63071 0.00522
v 0.27906 0.63071 -0.02857
v 0.29009 0.63071 -0.02857
v 0.29009 0.63071 0.00522
v 0.29340 0.76138 0.00522
v 0.30444 0.76138 -0.02857
v 0.29340 0.76138 -0.02857
v 0.30444 0.76138 0.00522
v 0.29340 0.63071 0.00522
v 0.29340 0.63071 -0.02857
v 0.30444 0.63071 -0.02857
v 0.30444 0.63071 0.00522
v 0.30775 0.76138 0.00522
v 0.31878 0.76138 -0.02857
v 0.30775 0.76138 -0.02857
v 0.31878 0.76138 0.00522
v 0.30775 0.63071 0.00522
v 0.30775 0.63071 -0.02857
v 0.31878 0.63071 -0.02857
v 0.31878 0.63071 0.00522
v 0.32209 0.76138 0.00522
v 0.33313 0.76138 -0.02857
v 0.32209 0.76138 -0.02857
v 0.33313 0.76138 0.00522
v 0.32209 0.63071 0.00522
v 0.32209 0.63071 -0.02857
v 0.33313 0.63071 -0.02857
v 0.33313 0.63071 0.00522
v 0.33644 0.76138 0.00522
v 0.34747 0.76138 -0.02857
v 0.33644 0.76138 -0.02857
v 0.34747 0.76138 0.00522
v 0.33644 0.63071 0.00522
v 0.33644 0.63071 -0.02857
v 0.34747 0.63071 -0.02857
v 0.34747 0.63071 0.00522
v 0.35078 0.76138 0.00522
v 0.36182 0.76138 -0.02857
v 0.35078 0.76138 -0.02857
v 0.36182 0.76138 0.00522
v 0.35078 0.63071 0.00522
v 0.35078 0.63071 -0.02857
v 0.36182 0.63071 -0.02857
v 0.36182 0.63071 0.00522
v 0.36513 0.76138 0.00522
v 0.37616 0.76138 -0.02857
v 0.36513 0.76138 -0.02857
v 0.37616 0.76138 0.00522
v 0.36513 0.63071 0.00522
v 0.36513 0.63071 -0.02857
v 0.37616 0.63071 -0.02857
v 0.37616 0.63071 0.00522
v 0.37947 0.76138 0.00522
v 0.39051 0.76138 -0.02857
v 0.37947 0.76138 -0.02857
v 0.39051 0.76138 0.00522
v 0.37947 0.63071 0.00522
v 0.37947 0.63071 -0.02857
v 0.39051 0.63071 -0.02857
v 0.39051 0.63071 0.00522
v 0.39382 0.76138 0.00522
v 0.40485 0.76138 -0.02857
v 0.39382 0.76138 -0.02857
v 0.40485 0.76138 0.00522
v 0.39382 0.63071 0.00522
v 0.39382 0.63071 -0.02857
v 0.40485 0.63071 -0.02857
v 0.40485 0.63071 0.00522
v 0.40817 0.76138 0.00522
v 0.41920 0.76138 -0.02857
v 0.40817 0.76138 -0.02857
v 0.41920 0.76138 0.00522
v 0.40817 0.63071 0.00522
v 0.40817 0.63071 -0.02857
v 0.41920 0.63071 -0.02857
v 0.41920 0.63071 0.00522
v 0.42251 0.76138 0.00522
v 0.43355 0.76138 -0.02857
v 0.42251 0.76138 -0.02857
v 0.43355 0.76138 0.00522
v 0.42251 0.63071 0.00522
v 0.42251 0.63071 -0.02857
v 0.43355 0.63071 -0.02857
v 0.43355 0.63071 0.00522
v 0.43686 0.76138 0.00522
v 0.44789 0.76138 -0.02857
v 0.43686 0.76138 -0.02857
v 0.44789 0.76138 0.00522
v 0.43686 0.63071 0.00522
v 0.43686 0.63071 -0.02857
v 0.44789 0.63071 -0.02857
v 0.44789 0.63071 0.00522
v 0.45120 0.76138 0.00522
v 0.46224 0.76138 -0.02857
v 0.45120 0.76138 -0.02857
v 0.46224 0.76138 0.00522
v 0.45120 0.63071 0.00522
v 0.45120 0.63071 -0.02857
v 0.46224 0.63071 -0.02857
v 0.46224 0.63071 0.00522
v 0.46555 0.76138 0.00522
v 0.47658 0.76138 -0.02857
v 0.46555 0.76138 -0.02857
v 0.47658 0.76138 0.00522
v 0.46555 0.63071 0.00522
v 0.46555 0.63071 -0.02857
v 0.47658 0.63071 -0.02857
v 0.47658 0.63071 0.00522
v 0.47989 0.76138 0.00522
v 0.49093 0.76138 -0.02857
v 0.47989 0.76138 -0.02857
v 0.49093 0.76138 0.00522
v 0.47989 0.63071 0.00522
v 0.47989 0.63071 -0.02857
v 0.49093 0.63071 -0.02857
v 0.49093 0.63071 0.00522
v 0.49424 0.76138 0.00522
v 0.50527 0.76138 -0.02857
v 0.49424 0.76138 -0.02857
v 0.50527 0.76138 0.00522
v 0.49424 0.63071 0.00522
v 0.49424 0.63071 -0.02857
v 0.50527 0.63071 -0.02857
v 0.50527 0.63071 0.00522
v 0.50858 0.76138 0.00522
v 0.51962 0.76138 -0.02857
v 0.50858 0.76138 -0.02857
v 0.51962 0.76138 0.00522
v 0.50858 0.63071 0.00522
v 0.50858 0.63071 -0.02857
v 0.51962 0.63071 -0.02857
v 0.51962 0.63071 0.00522
v 0.52293 0.76138 0.00522
v 0.53396 0.76138 -0.02857
v 0.52293 0.76138 -0.02857
v 0.53396 0.76138 0.00522
v 0.52293 0.63071 0.00522
v 0.52293 0.63071 -0.02857
v 0.53396 0.63071 -0.02857
v 0.53396 0.63071 0.00522
v 0.53727 0.76138 0.00522
v 0.54831 0.76138 -0.02857
v 0.53727 0.76138 -0.02857
v 0.54831 0.76138 0.00522
v 0.53727 0.63071 0.00522
v 0.53727 0.63071 -0.02857
v 0.54831 0.63071 -0.02857
v 0.54831 0.63071 0.00522
v 0.55162 0.76138 0.00522
v 0.56265 0.76138 -0.02857
v 0.55162 0.76138 -0.02857
v 0.56265 0.76138 0.00522
v 0.55162 0.63071 0.00522
v 0.55162 0.63071 -0.02857
v 0.56265 0.63071 -0.02857
v 0.56265 0.63071 0.00522
v 0.56597 0.76138 0.00522
v 0.57700 0.76138 -0.02857
v 0.56597 0.76138 -0.02857
v 0.57700 0.76138 0.00522
v 0.56597 0.63071 0.00522
v 0.56597 0.63071 -0.02857
v 0.57700 0.63071 -0.02857
v 0.57700 0.63071 0.00522
v 0.58031 0.76138 0.00522
v 0.59135 0.76138 -0.02857
v 0.58031 0.76138 -0.02857
v 0.59135 0.76138 0.00522
v 0.58031 0.63071 0.00522
v 0.58031 0.63071 -0.02857
v 0.59135 0.63071 -0.02857
v 0.59135 0.63071 0.00522
v 0.59466 0.76138 0.00522
v 0.60569 0.76138 -0.02857
v 0.59466 0.76138 -0.02857
v 0.60569 0.76138 0.00522
v 0.59466 0.63071 0.00522
v 0.59466 0.63071 -0.02857
v 0.60569 0.63071 -0.02857
v 0.60569 0.63071 0.00522
v 0.60900 0.76138 0.00522
v 0.62004 0.76138 -0.02857
v 0.60900 0.76138 -0.02857
v 0.62004 0.76138 0.00522
v 0.60900 0.63071 0.00522
v 0.60900 0.63071 -0.02857
v 0.62004 0.63071 -0.02857
v 0.62004 0.63071 0.00522
v 0.62335 0.76138 0.00522
v 0.63438 0.76138 -0.02857
v 0.62335 0.76138 -0.02857
v 0.63438 0.76138 0.00522
v 0.62335 0.63071 0.00522
v 0.62335 0.63071 -0.02857
v 0.63438 0.63071 -0.02857
v 0.63438 0.63071 0.00522
v -0.25051 -0.62490 -0.61325
v -0.25051 -0.56308 -0.61325
v -0.31233 -0.62490 -0.61325
v -0.31233 -0.62490 -0.65922
v -0.25051 -0.62490 -0.65922
v -0.31233 -0.56308 -0.61325
v -0.25051 -0.56308 -0.65922
v -0.25629 -0.61911 -0.67205
v -0.25629 -0.56886 -0.67205
v -0.31233 -0.56308 -0.65922
v -0.30655 -0.56886 -0.67205
v -0.30655 -0.61911 -0.67205
v -0.50261 0.62103 -0.61325
v -0.50261 0.68285 -0.61325
v -0.56443 0.62103 -0.61325
v -0.56443 0.62103 -0.65922
v -0.50261 0.62103 -0.65922
v -0.56443 0.68285 -0.61325
v -0.50261 0.68285 -0.65922
v -0.50839 0.62681 -0.67205
v -0.50839 0.67707 -0.67205
v -0.56443 0.68285 -0.65922
v -0.55865 0.67707 -0.67205
v -0.55865 0.62681 -0.67205
v 0.51024 0.68285 -0.61325
v 0.51024 0.62103 -0.61325
v 0.57206 0.62103 -0.65922
v 0.57206 0.62103 -0.61325
v 0.51024 0.62103 -0.65922
v 0.57206 0.68285 -0.61325
v 0.51602 0.67707 -0.67205
v 0.51024 0.68285 -0.65922
v 0.51602 0.62681 -0.67205
v 0.57206 0.68285 -0.65922
v 0.56628 0.67707 -0.67205
v 0.56628 0.62681 -0.67205
v 0.02993 0.64037 0.09841
v -0.02184 0.64037 0.09841
v 0.00405 0.64037 0.12429
v 0.00405 0.64037 0.07252
v 0.00405 0.62312 0.12429
v 0.02993 0.62312 0.09841
v -0.02184 0.62312 0.09841
v 0.00405 0.62312 0.07252
v 0.54303 0.01601 0.13568
v 0.02230 0.01601 0.13568
v -0.25481 0.01601 0.13568
v -0.55931 0.01601 0.13568
vt 0.25000 0.25000
vt 0.25000 0.75000
vt 0.75000 0.25000
vt 0.75000 0.75000
vn -0.0000 1.0000 0.0000
vn -1.0000 -0.0000 0.0000
vn 0.0000 -1.0000 0.0000
vn 1.0000 0.0000 0.0000
vn -0.0000 0.0000 -1.0000
vn -0.0000 0.0000 1.0000
vn 0.0000 -0.4234 -0.9059
vn 0.0000 -0.9985 -0.0554
vn 0.4234 0.0000 -0.9059
vn -0.4234 -0.0000 -0.9059
vn -0.0000 0.4234 -0.9059
vn -0.0000 0.9985 -0.0554
vn 0.9985 0.0000 -0.0554
vn -0.9985 -0.0000 -0.0554
vn -0.9928 -0.1196 0.0000
vn 0.4968 -0.8678 0.0000
vn 0.8461 -0.5330 0.0000
vn 0.4800 -0.8773 0.0000
vn -0.4800 -0.8773 0.0000
vn 0.4969 -0.8678 0.0000
vn 0.3629 0.0000 -0.9318
vn -0.3629 -0.0000 0.9318
vn -0.4473 -0.8773 -0.1742
vn -0.9318 -0.0000 -0.3629
vn -0.9251 -0.1196 -0.3603
vn 0.4473 -0.8773 0.1742
vn 0.7884 -0.5330 0.3071
vn 0.4630 -0.8678 0.1803
vn 0.9318 0.0000 0.3629
vn -0.0000 0.9998 0.0206
vn 0.2718 0.0000 -0.9623
vn -0.3507 -0.0000 0.9365
vn 0.9450 0.0000 0.3272
vn -0.9449 -0.0000 -0.3272
vn -0.5118 0.8591 0.0000
vn 0.4238 0.9058 0.0000
vn -0.8583 0.5132 0.0000
vn 0.9944 0.1059 0.0000
vn -0.5308 0.8475 0.0000
vn 0.8212 0.0000 0.5706
vn -0.8212 -0.0000 0.5707
vn 0.0000 -0.8212 0.5706
vn -0.0000 0.8212 0.5706
vn 0.9116 0.0000 -0.4110
vn -0.9116 -0.0000 -0.4110
vn 0.0000 -0.9116 -0.4110
vn -0.0000 0.9116 -0.4110
vn -0.8212 -0.0000 0.5706
vn 0.8212 0.0000 0.5707
vn 0.0000 -0.8212 0.5707
vn 0.7071 0.0000 0.7071
vn -0.7071 -0.0000 -0.7071
vn -0.7071 -0.0000 0.7071
vn 0.7071 0.0000 -0.7071
f 1/2/1 2/2/1 3/2/1
f 2/2/1 1/2/1 4/2/1
f 5/2/2 3/2/2 6/2/2
f 3/2/2 5/2/2 1/2/2
f 5/2/3 6/2/3 7/2/3
f 7/2/3 8/2/3 5/2/3
f 8/2/4 7/2/4 2/2/4
f 2/2/4 4/2/4 8/2/4
f 7/2/5 3/2/5 2/2/5
f 3/2/5 7/2/5 6/2/5
f 1/2/6 5/2/6 8/2/6
f 8/2/6 4/2/6 1/2/6
f 9/2/1 10/2/1 11/2/1
f 10/2/1 9/2/1 12/2/1
f 13/2/2 11/2/2 14/2/2
f 11/2/2 13/2/2 9/2/2
f 13/2/3 14/2/3 15/2/3
f 15/2/3 16/2/3 13/2/3
f 16/2/4 15/2/4 10/2/4
f 10/2/4 12/2/4 16/2/4
f 15/2/5 11/2/5 10/2/5
f 11/2/5 15/2/5 14/2/5
f 9/2/6 13/2/6 16/2/6
f 16/2/6 12/2/6 9/2/6
f 17/2/1 18/2/1 19/2/1
f 18/2/1 17/2/1 20/2/1
f 21/2/2 19/2/2 22/2/2
f 19/2/2 21/2/2 17/2/2
f 21/2/3 22/2/3 23/2/3
f 23/2/3 24/2/3 21/2/3
f 24/2/4 23/2/4 18/2/4
f 18/2/4 20/2/4 24/2/4
f 23/2/5 19/2/5 18/2/5
f 19/2/5 23/2/5 22/2/5
f 17/2/6 21/2/6 24/2/6
f 24/2/6 20/2/6 17/2/6
f 25/2/1 26/2/1 27/2/1
f 26/2/1 25/2/1 28/2/1
f 29/2/2 27/2/2 30/2/2
f 27/2/2 29/2/2 25/2/2
f 29/2/3 30/2/3 31/2/3
f 31/2/3 32/2/3 29/2/3
f 32/2/4 31/2/4 26/2/4
f 26/2/4 28/2/4 32/2/4
f 31/2/5 27/2/5 26/2/5
f 27/2/5 31/2/5 30/2/5
f 25/2/6 29/2/6 32/2/6
f 32/2/6 28/2/6 25/2/6
f 33/2/1 34/2/1 35/2/1
f 34/2/1 33/2/1 36/2/1
f 37/2/2 35/2/2 38/2/2
f 35/2/2 37/2/2 33/2/2
f 37/2/3 38/2/3 39/2/3
f 39/2/3 40/2/3 37/2/3
f 40/2/4 39/2/4 34/2/4
f 34/2/4 36/2/4 40/2/4
f 39/2/5 35/2/5 34/2/5
f 35/2/5 39/2/5 38/2/5
f 33/2/6 37/2/6 40/2/6
f 40/2/6 36/2/6 33/2/6
f 41/2/1 42/2/1 43/2/1
f 42/2/1 41/2/1 44/2/1
f 45/2/2 43/2/2 46/2/2
f 43/2/2 45/2/2 41/2/2
f 45/2/3 46/2/3 47/2/3
f 47/2/3 48/2/3 45/2/3
f 48/2/4 47/2/4 42/2/4
f 42/2/4 44/2/4 48/2/4
f 47/2/5 43/2/5 42/2/5
f 43/2/5 47/2/5 46/2/5
f 41/2/6 45/2/6 48/2/6
f 48/2/6 44/2/6 41/2/6
f 49/2/1 50/2/1 51/2/1
f 50/2/1 49/2/1 52/2/1
f 53/2/2 51/2/2 54/2/2
f 51/2/2 53/2/2 49/2/2
f 53/2/3 54/2/3 55/2/3
f 55/2/3 56/2/3 53/2/3
f 56/2/4 55/2/4 50/2/4
f 50/2/4 52/2/4 56/2/4
f 55/2/5 51/2/5 50/2/5
f 51/2/5 55/2/5 54/2/5
f 49/2/6 53/2/6 56/2/6
f 56/2/6 52/2/6 49/2/6
f 57/2/1 58/2/1 59/2/1
f 58/2/1 57/2/1 60/2/1
f 61/2/2 59/2/2 62/2/2
f 59/2/2 61/2/2 57/2/2
f 61/2/3 62/2/3 63/2/3
f 63/2/3 64/2/3 61/2/3
f 64/2/4 63/2/4 58/2/4
f 58/2/4 60/2/4 64/2/4
f 63/2/5 59/2/5 58/2/5
f 59/2/5 63/2/5 62/2/5
f 57/2/6 61/2/6 64/2/6
f 64/2/6 60/2/6 57/2/6
f 65/2/1 66/2/1 67/2/1
f 66/2/1 65/2/1 68/2/1
f 69/2/2 67/2/2 70/2/2
f 67/2/2 69/2/2 65/2/2
f 69/2/3 70/2/3 71/2/3
f 71/2/3 72/2/3 69/2/3
f 72/2/4 71/2/4 66/2/4
f 66/2/4 68/2/4 72/2/4
f 71/2/5 67/2/5 66/2/5
f 67/2/5 71/2/5 70/2/5
f 65/2/6 69/2/6 72/2/6
f 72/2/6 68/2/6 65/2/6
f 73/2/1 74/2/1 75/2/1
f 74/2/1 73/2/1 76/2/1
f 77/2/2 75/2/2 78/2/2
f 75/2/2 77/2/2 73/2/2
f 77/2/3 78/2/3 79/2/3
f 79/2/3 80/2/3 77/2/3
f 80/2/4 79/2/4 74/2/4
f 74/2/4 76/2/4 80/2/4
f 79/2/5 75/2/5 74/2/5
f 75/2/5 79/2/5 78/2/5
f 73/2/6 77/2/6 80/2/6
f 80/2/6 76/2/6 73/2/6
f 81/2/1 82/2/1 83/2/1
f 82/2/1 81/2/1 84/2/1
f 85/2/2 83/2/2 86/2/2
f 83/2/2 85/2/2 81/2/2
f 85/2/3 86/2/3 87/2/3
f 87/2/3 88/2/3 85/2/3
f 88/2/4 87/2/4 82/2/4
f 82/2/4 84/2/4 88/2/4
f 87/2/5 83/2/5 82/2/5
f 83/2/5 87/2/5 86/2/5
f 81/2/6 85/2/6 88/2/6
f 88/2/6 84/2/6 81/2/6
f 89/2/1 90/2/1 91/2/1
f 90/2/1 89/2/1 92/2/1
f 93/2/2 91/2/2 94/2/2
f 91/2/2 93/2/2 89/2/2
f 93/2/3 94/2/3 95/2/3
f 95/2/3 96/2/3 93/2/3
f 96/2/4 95/2/4 90/2/4
f 90/2/4 92/2/4 96/2/4
f 95/2/5 91/2/5 90/2/5
f 91/2/5 95/2/5 94/2/5
f 89/2/6 93/2/6 96/2/6
f 96/2/6 92/2/6 89/2/6
f 97/2/1 98/2/1 99/2/1
f 98/2/1 97/2/1 100/2/1
f 101/2/2 99/2/2 102/2/2
f 99/2/2 101/2/2 97/2/2
f 101/2/3 102/2/3 103/2/3
f 103/2/3 104/2/3 101/2/3
f 104/2/4 103/2/4 98/2/4
f 98/2/4 100/2/4 104/2/4
f 103/2/5 99/2/5 98/2/5
f 99/2/5 103/2/5 102/2/5
f 97/2/6 101/2/6 104/2/6
f 104/2/6 100/2/6 97/2/6
f 105/2/1 106/2/1 107/2/1
f 106/2/1 105/2/1 108/2/1
f 109/2/2 107/2/2 110/2/2
f 107/2/2 109/2/2 105/2/2
f 109/2/3 110/2/3 111/2/3
f 111/2/3 112/2/3 109/2/3
f 112/2/4 111/2/4 106/2/4
f 106/2/4 108/2/4 112/2/4
f 111/2/5 107/2/5 106/2/5
f 107/2/5 111/2/5 110/2/5
f 105/2/6 109/2/6 112/2/6
f 112/2/6 108/2/6 105/2/6
f 113/2/1 114/2/1 115/2/1
f 114/2/1 113/2/1 116/2/1
f 117/2/2 115/2/2 118/2/2
f 115/2/2 117/2/2 113/2/2
f 117/2/3 118/2/3 119/2/3
f 119/2/3 120/2/3 117/2/3
f 120/2/4 119/2/4 114/2/4
f 114/2/4 116/2/4 120/2/4
f 119/2/5 115/2/5 114/2/5
f 115/2/5 119/2/5 118/2/5
f 113/2/6 117/2/6 120/2/6
f 120/2/6 116/2/6 113/2/6
f 121/2/1 122/2/1 123/2/1
f 122/2/1 121/2/1 124/2/1
f 125/2/2 123/2/2 126/2/2
f 123/2/2 125/2/2 121/2/2
f 125/2/3 126/2/3 127/2/3
f 127/2/3 128/2/3 125/2/3
f 128/2/4 127/2/4 122/2/4
f 122/2/4 124/2/4 128/2/4
f 127/2/5 123/2/5 122/2/5
f 123/2/5 127/2/5 126/2/5
f 121/2/6 125/2/6 128/2/6
f 128/2/6 124/2/6 121/2/6
f 129/2/1 130/2/1 131/2/1
f 130/2/1 129/2/1 132/2/1
f 133/2/2 131/2/2 134/2/2
f 131/2/2 133/2/2 129/2/2
f 133/2/3 134/2/3 135/2/3
f 135/2/3 136/2/3 133/2/3
f 136/2/4 135/2/4 130/2/4
f 130/2/4 132/2/4 136/2/4
f 135/2/5 131/2/5 130/2/5
f 131/2/5 135/2/5 134/2/5
f 129/2/6 133/2/6 136/2/6
f 136/2/6 132/2/6 129/2/6
f 137/2/1 138/2/1 139/2/1
f 138/2/1 137/2/1 140/2/1
f 141/2/2 139/2/2 142/2/2
f 139/2/2 141/2/2 137/2/2
f 141/2/3 142/2/3 143/2/3
f 143/2/3 144/2/3 141/2/3
f 144/2/4 143/2/4 138/2/4
f 138/2/4 140/2/4 144/2/4
f 143/2/5 139/2/5 138/2/5
f 139/2/5 143/2/5 142/2/5
f 137/2/6 141/2/6 144/2/6
f 144/2/6 140/2/6 137/2/6
f 145/2/1 146/2/1 147/2/1
f 146/2/1 145/2/1 148/2/1
f 149/2/2 147/2/2 150/2/2
f 147/2/2 149/2/2 145/2/2
f 149/2/3 150/2/3 151/2/3
f 151/2/3 152/2/3 149/2/3
f 152/2/4 151/2/4 146/2/4
f 146/2/4 148/2/4 152/2/4
f 151/2/5 147/2/5 146/2/5
f 147/2/5 151/2/5 150/2/5
f 145/2/6 149/2/6 152/2/6
f 152/2/6 148/2/6 145/2/6
f 153/2/1 154/2/1 155/2/1
f 154/2/1 153/2/1 156/2/1
f 157/2/2 155/2/2 158/2/2
f 155/2/2 157/2/2 153/2/2
f 157/2/3 158/2/3 159/2/3
f 159/2/3 160/2/3 157/2/3
f 160/2/4 159/2/4 154/2/4
f 154/2/4 156/2/4 160/2/4
f 159/2/5 155/2/5 154/2/5
f 155/2/5 159/2/5 158/2/5
f 153/2/6 157/2/6 160/2/6
f 160/2/6 156/2/6 153/2/6
f 161/2/1 162/2/1 163/2/1
f 162/2/1 161/2/1 164/2/1
f 165/2/2 163/2/2 166/2/2
f 163/2/2 165/2/2 161/2/2
f 165/2/3 166/2/3 167/2/3
f 167/2/3 168/2/3 165/2/3
f 168/2/4 167/2/4 162/2/4
f 162/2/4 164/2/4 168/2/4
f 167/2/5 163/2/5 162/2/5
f 163/2/5 167/2/5 166/2/5
f 161/2/6 165/2/6 168/2/6
f 168/2/6 164/2/6 161/2/6
f 169/2/1 170/2/1 171/2/1
f 170/2/1 169/2/1 172/2/1
f 173/2/2 171/2/2 174/2/2
f 171/2/2 173/2/2 169/2/2
f 173/2/3 174/2/3 175/2/3
f 175/2/3 176/2/3 173/2/3
f 176/2/4 175/2/4 170/2/4
f 170/2/4 172/2/4 176/2/4
f 175/2/5 171/2/5 170/2/5
f 171/2/5 175/2/5 174/2/5
f 169/2/6 173/2/6 176/2/6
f 176/2/6 172/2/6 169/2/6
f 177/2/1 178/2/1 179/2/1
f 178/2/1 177/2/1 180/2/1
f 181/2/2 179/2/2 182/2/2
f 179/2/2 181/2/2 177/2/2
f 181/2/3 182/2/3 183/2/3
f 183/2/3 184/2/3 181/2/3
f 184/2/4 183/2/4 178/2/4
f 178/2/4 180/2/4 184/2/4
f 183/2/5 179/2/5 178/2/5
f 179/2/5 183/2/5 182/2/5
f 177/2/6 181/2/6 184/2/6
f 184/2/6 180/2/6 177/2/6
f 185/2/1 186/2/1 187/2/1
f 186/2/1 185/2/1 188/2/1
f 189/2/2 187/2/2 190/2/2
f 187/2/2 189/2/2 185/2/2
f 189/2/3 190/2/3 191/2/3
f 191/2/3 192/2/3 189/2/3
f 192/2/4 191/2/4 186/2/4
f 186/2/4 188/2/4 192/2/4
f 191/2/5 187/2/5 186/2/5
f 187/2/5 191/2/5 190/2/5
f 185/2/6 189/2/6 192/2/6
f 192/2/6 188/2/6 185/2/6
f 193/2/1 194/2/1 195/2/1
f 194/2/1 193/2/1 196/2/1
f 197/2/2 195/2/2 198/2/2
f 195/2/2 197/2/2 193/2/2
f 197/2/3 198/2/3 199/2/3
f 199/2/3 200/2/3 197/2/3
f 200/2/4 199/2/4 194/2/4
f 194/2/4 196/2/4 200/2/4
f 199/2/5 195/2/5 194/2/5
f 195/2/5 199/2/5 198/2/5
f 193/2/6 197/2/6 200/2/6
f 200/2/6 196/2/6 193/2/6
f 201/2/1 202/2/1 203/2/1
f 202/2/1 201/2/1 204/2/1
f 205/2/2 203/2/2 206/2/2
f 203/2/2 205/2/2 201/2/2
f 205/2/3 206/2/3 207/2/3
f 207/2/3 208/2/3 205/2/3
f 208/2/4 207/2/4 202/2/4
f 202/2/4 204/2/4 208/2/4
f 207/2/5 203/2/5 202/2/5
f 203/2/5 207/2/5 206/2/5
f 201/2/6 205/2/6 208/2/6
f 208/2/6 204/2/6 201/2/6
f 209/2/1 210/2/1 211/2/1
f 210/2/1 209/2/1 212/2/1
f 213/2/2 211/2/2 214/2/2
f 211/2/2 213/2/2 209/2/2
f 213/2/3 214/2/3 215/2/3
f 215/2/3 216/2/3 213/2/3
f 216/2/4 215/2/4 210/2/4
f 210/2/4 212/2/4 216/2/4
f 215/2/5 211/2/5 210/2/5
f 211/2/5 215/2/5 214/2/5
f 209/2/6 213/2/6 216/2/6
f 216/2/6 212/2/6 209/2/6
f 217/2/1 218/2/1 219/2/1
f 218/2/1 217/2/1 220/2/1
f 221/2/2 219/2/2 222/2/2
f 219/2/2 221/2/2 217/2/2
f 221/2/3 222/2/3 223/2/3
f 223/2/3 224/2/3 221/2/3
f 224/2/4 223/2/4 218/2/4
f 218/2/4 220/2/4 224/2/4
f 223/2/5 219/2/5 218/2/5
f 219/2/5 223/2/5 222/2/5
f 217/2/6 221/2/6 224/2/6
f 224/2/6 220/2/6 217/2/6
f 225/2/1 226/2/1 227/2/1
f 226/2/1 225/2/1 228/2/1
f 229/2/2 227/2/2 230/2/2
f 227/2/2 229/2/2 225/2/2
f 229/2/3 230/2/3 231/2/3
f 231/2/3 232/2/3 229/2/3
f 232/2/4 231/2/4 226/2/4
f 226/2/4 228/2/4 232/2/4
f 231/2/5 227/2/5 226/2/5
f 227/2/5 231/2/5 230/2/5
f 225/2/6 229/2/6 232/2/6
f 232/2/6 228/2/6 225/2/6
f 233/2/1 234/2/1 235/2/1
f 234/2/1 233/2/1 236/2/1
f 237/2/2 235/2/2 238/2/2
f 235/2/2 237/2/2 233/2/2
f 237/2/3 238/2/3 239/2/3
f 239/2/3 240/2/3 237/2/3
f 240/2/4 239/2/4 234/2/4
f 234/2/4 236/2/4 240/2/4
f 239/2/5 235/2/5 234/2/5
f 235/2/5 239/2/5 238/2/5
f 233/2/6 237/2/6 240/2/6
f 240/2/6 236/2/6 233/2/6
f 241/2/1 242/2/1 243/2/1
f 242/2/1 241/2/1 244/2/1
f 245/2/2 243/2/2 246/2/2
f 243/2/2 245/2/2 241/2/2
f 245/2/3 246/2/3 247/2/3
f 247/2/3 248/2/3 245/2/3
f 248/2/4 247/2/4 242/2/4
f 242/2/4 244/2/4 248/2/4
f 247/2/5 243/2/5 242/2/5
f 243/2/5 247/2/5 246/2/5
f 241/2/6 245/2/6 248/2/6
f 248/2/6 244/2/6 241/2/6
f 249/2/1 250/2/1 251/2/1
f 250/2/1 249/2/1 252/2/1
f 253/2/2 251/2/2 254/2/2
f 251/2/2 253/2/2 249/2/2
f 253/2/3 254/2/3 255/2/3
f 255/2/3 256/2/3 253/2/3
f 256/2/4 255/2/4 250/2/4
f 250/2/4 252/2/4 256/2/4
f 255/2/5 251/2/5 250/2/5
f 251/2/5 255/2/5 254/2/5
f 249/2/6 253/2/6 256/2/6
f 256/2/6 252/2/6 249/2/6
f 257/2/1 258/2/1 259/2/1
f 258/2/1 257/2/1 260/2/1
f 261/2/2 259/2/2 262/2/2
f 259/2/2 261/2/2 257/2/2
f 261/2/3 262/2/3 263/2/3
f 263/2/3 264/2/3 261/2/3
f 264/2/4 263/2/4 258/2/4
f 258/2/4 260/2/4 264/2/4
f 263/2/5 259/2/5 258/2/5
f 259/2/5 263/2/5 262/2/5
f 257/2/6 261/2/6 264/2/6
f 264/2/6 260/2/6 257/2/6
f 265/2/1 266/2/1 267/2/1
f 266/2/1 265/2/1 268/2/1
f 269/2/2 267/2/2 270/2/2
f 267/2/2 269/2/2 265/2/2
f 269/2/3 270/2/3 271/2/3
f 271/2/3 272/2/3 269/2/3
f 272/2/4 271/2/4 266/2/4
f 266/2/4 268/2/4 272/2/4
f 271/2/5 267/2/5 266/2/5
f 267/2/5 271/2/5 270/2/5
f 265/2/6 269/2/6 272/2/6
f 272/2/6 268/2/6 265/2/6
f 273/2/1 274/2/1 275/2/1
f 274/2/1 273/2/1 276/2/1
f 277/2/2 275/2/2 278/2/2
f 275/2/2 277/2/2 273/2/2
f 277/2/3 278/2/3 279/2/3
f 279/2/3 280/2/3 277/2/3
f 280/2/4 279/2/4 274/2/4
f 274/2/4 276/2/4 280/2/4
f 279/2/5 275/2/5 274/2/5
f 275/2/5 279/2/5 278/2/5
f 273/2/6 277/2/6 280/2/6
f 280/2/6 276/2/6 273/2/6
f 281/2/1 282/2/1 283/2/1
f 282/2/1 281/2/1 284/2/1
f 285/2/2 283/2/2 286/2/2
f 283/2/2 285/2/2 281/2/2
f 285/2/3 286/2/3 287/2/3
f 287/2/3 288/2/3 285/2/3
f 288/2/4 287/2/4 282/2/4
f 282/2/4 284/2/4 288/2/4
f 287/2/5 283/2/5 282/2/5
f 283/2/5 287/2/5 286/2/5
f 281/2/6 285/2/6 288/2/6
f 288/2/6 284/2/6 281/2/6
f 289/2/1 290/2/1 291/2/1
f 290/2/1 289/2/1 292/2/1
f 293/2/2 291/2/2 294/2/2
f 291/2/2 293/2/2 289/2/2
f 293/2/3 294/2/3 295/2/3
f 295/2/3 296/2/3 293/2/3
f 296/2/4 295/2/4 290/2/4
f 290/2/4 292/2/4 296/2/4
f 295/2/5 291/2/5 290/2/5
f 291/2/5 295/2/5 294/2/5
f 289/2/6 293/2/6 296/2/6
f 296/2/6 292/2/6 289/2/6
f 297/2/1 298/2/1 299/2/1
f 298/2/1 297/2/1 300/2/1
f 301/2/2 299/2/2 302/2/2
f 299/2/2 301/2/2 297/2/2
f 301/2/3 302/2/3 303/2/3
f 303/2/3 304/2/3 301/2/3
f 304/2/4 303/2/4 298/2/4
f 298/2/4 300/2/4 304/2/4
f 303/2/5 299/2/5 298/2/5
f 299/2/5 303/2/5 302/2/5
f 297/2/6 301/2/6 304/2/6
f 304/2/6 300/2/6 297/2/6
f 305/2/1 306/2/1 307/2/1
f 306/2/1 305/2/1 308/2/1
f 309/2/2 307/2/2 310/2/2
f 307/2/2 309/2/2 305/2/2
f 309/2/3 310/2/3 311/2/3
f 311/2/3 312/2/3 309/2/3
f 312/2/4 311/2/4 306/2/4
f 306/2/4 308/2/4 312/2/4
f 313/2/7 310/2/7 314/2/7
f 310/2/7 313/2/7 311/2/7
f 305/2/6 309/2/6 312/2/6
f 312/2/6 308/2/6 305/2/6
f 313/2/8 314/2/8 315/2/8
f 315/2/8 316/2/8 313/2/8
f 317/2/9 311/2/9 313/2/9
f 311/2/9 317/2/9 306/2/9
f 314/2/10 307/2/10 318/2/10
f 307/2/10 314/2/10 310/2/10
f 318/2/11 306/2/11 317/2/11
f 306/2/11 318/2/11 307/2/11
f 319/2/12 317/2/12 320/2/12
f 317/2/12 319/2/12 318/2/12
f 317/2/13 313/2/13 316/2/13
f 316/2/13 320/2/13 317/2/13
f 315/2/14 318/2/14 319/2/14
f 318/2/14 315/2/14 314/2/14
f 321/2/1 322/2/1 323/2/1
f 322/2/1 321/2/1 324/2/1
f 325/2/2 323/2/2 326/2/2
f 323/2/2 325/2/2 321/2/2
f 325/2/3 326/2/3 327/2/3
f 327/2/3 328/2/3 325/2/3
f 328/2/4 327/2/4 322/2/4
f 322/2/4 324/2/4 328/2/4
f 329/2/7 326/2/7 330/2/7
f 326/2/7 329/2/7 327/2/7
f 321/2/6 325/2/6 328/2/6
f 328/2/6 324/2/6 321/2/6
f 329/2/8 330/2/8 331/2/8
f 331/2/8 332/2/8 329/2/8
f 333/2/9 327/2/9 329/2/9
f 327/2/9 333/2/9 322/2/9
f 330/2/10 323/2/10 334/2/10
f 323/2/10 330/2/10 326/2/10
f 334/2/11 322/2/11 333/2/11
f 322/2/11 334/2/11 323/2/11
f 335/2/12 333/2/12 336/2/12
f 333/2/12 335/2/12 334/2/12
f 333/2/13 329/2/13 332/2/13
f 332/2/13 336/2/13 333/2/13
f 331/2/14 334/2/14 335/2/14
f 334/2/14 331/2/14 330/2/14
f 337/2/1 338/2/1 339/2/1
f 338/2/1 337/2/1 340/2/1
f 341/2/4 340/2/4 337/2/4
f 337/2/4 342/2/4 341/2/4
f 343/2/3 341/2/3 342/2/3
f 342/2/3 344/2/3 343/2/3
f 339/2/2 343/2/2 344/2/2
f 343/2/2 339/2/2 338/2/2
f 345/2/7 341/2/7 343/2/7
f 341/2/7 345/2/7 346/2/7
f 344/2/6 342/2/6 337/2/6
f 337/2/6 339/2/6 344/2/6
f 347/2/8 346/2/8 345/2/8
f 345/2/8 348/2/8 347/2/8
f 349/2/10 343/2/10 338/2/10
f 343/2/10 349/2/10 345/2/10
f 346/2/9 340/2/9 341/2/9
f 340/2/9 346/2/9 350/2/9
f 350/2/11 338/2/11 340/2/11
f 338/2/11 350/2/11 349/2/11
f 351/2/12 349/2/12 350/2/12
f 349/2/12 351/2/12 352/2/12
f 352/2/14 345/2/14 349/2/14
f 345/2/14 352/2/14 348/2/14
f 351/2/13 350/2/13 346/2/13
f 346/2/13 347/2/13 351/2/13
f 353/2/1 354/2/1 355/2/1
f 354/2/1 353/2/1 356/2/1
f 357/2/15 358/2/15 359/2/15
f 358/2/15 357/2/15 360/2/15
f 361/2/5 362/2/5 363/2/5
f 362/2/5 361/2/5 364/2/5
f 365/2/4 366/2/4 367/2/4
f 367/2/4 368/2/4 365/2/4
f 356/2/6 353/2/6 369/2/6
f 369/2/6 370/2/6 356/2/6
f 371/2/6 372/2/6 373/2/6
f 373/2/6 374/2/6 371/2/6
f 375/2/16 376/2/16 366/2/16
f 366/2/16 365/2/16 375/2/16
f 362/2/5 377/2/5 378/2/5
f 377/2/5 362/2/5 364/2/5
f 372/2/17 379/2/17 376/2/17
f 376/2/17 375/2/17 372/2/17
f 360/2/2 355/2/2 358/2/2
f 355/2/2 360/2/2 353/2/2
f 361/2/5 380/2/5 381/2/5
f 380/2/5 361/2/5 382/2/5
f 383/2/6 356/2/6 370/2/6
f 370/2/6 384/2/6 383/2/6
f 372/2/6 375/2/6 385/2/6
f 385/2/6 373/2/6 372/2/6
f 386/2/5 382/2/5 361/2/5
f 382/2/5 386/2/5 387/2/5
f 371/2/18 388/2/18 379/2/18
f 379/2/18 372/2/18 371/2/18
f 389/2/1 390/2/1 391/2/1
f 390/2/1 389/2/1 392/2/1
f 393/2/19 394/2/19 388/2/19
f 388/2/19 371/2/19 393/2/19
f 393/2/6 371/2/6 374/2/6
f 374/2/6 395/2/6 393/2/6
f 363/2/5 386/2/5 361/2/5
f 387/2/5 396/2/5 382/2/5
f 396/2/5 387/2/5 397/2/5
f 392/2/6 389/2/6 398/2/6
f 398/2/6 399/2/6 392/2/6
f 353/2/6 360/2/6 400/2/6
f 400/2/6 369/2/6 353/2/6
f 382/2/5 401/2/5 380/2/5
f 401/2/5 382/2/5 396/2/5
f 383/2/1 391/2/1 402/2/1
f 391/2/1 383/2/1 389/2/1
f 403/2/5 380/2/5 404/2/5
f 380/2/5 403/2/5 381/2/5
f 405/2/19 397/2/19 387/2/19
f 387/2/19 406/2/19 405/2/19
f 407/2/5 377/2/5 408/2/5
f 377/2/5 407/2/5 378/2/5
f 406/2/18 387/2/18 386/2/18
f 386/2/18 409/2/18 406/2/18
f 410/2/2 411/2/2 412/2/2
f 411/2/2 410/2/2 413/2/2
f 409/2/17 386/2/17 363/2/17
f 363/2/17 414/2/17 409/2/17
f 414/2/20 363/2/20 362/2/20
f 362/2/20 415/2/20 414/2/20
f 415/2/4 362/2/4 378/2/4
f 378/2/4 416/2/4 415/2/4
f 417/2/15 412/2/15 418/2/15
f 412/2/15 417/2/15 410/2/15
f 416/2/4 378/2/4 407/2/4
f 407/2/4 419/2/4 416/2/4
f 420/2/1 403/2/1 404/2/1
f 403/2/1 420/2/1 421/2/1
f 421/2/1 408/2/1 403/2/1
f 408/2/1 421/2/1 422/2/1
f 423/2/1 424/2/1 425/2/1
f 424/2/1 423/2/1 426/2/1
f 427/2/6 428/2/6 422/2/6
f 422/2/6 421/2/6 427/2/6
f 425/2/2 413/2/2 423/2/2
f 413/2/2 425/2/2 411/2/2
f 404/2/5 401/2/5 424/2/5
f 401/2/5 404/2/5 380/2/5
f 429/2/6 427/2/6 421/2/6
f 421/2/6 420/2/6 429/2/6
f 355/2/6 354/2/6 430/2/6
f 430/2/6 431/2/6 355/2/6
f 432/2/21 433/2/21 434/2/21
f 435/2/21 434/2/21 436/2/21
f 434/2/21 435/2/21 432/2/21
f 434/2/21 437/2/21 438/2/21
f 437/2/21 434/2/21 439/2/21
f 436/2/21 438/2/21 440/2/21
f 438/2/21 436/2/21 434/2/21
f 434/2/21 433/2/21 439/2/21
f 440/2/21 441/2/21 442/2/21
f 441/2/21 440/2/21 438/2/21
f 438/2/21 443/2/21 441/2/21
f 443/2/21 438/2/21 437/2/21
f 444/2/22 445/2/22 446/2/22
f 447/2/22 445/2/22 444/2/22
f 444/2/22 448/2/22 447/2/22
f 449/2/22 450/2/22 451/2/22
f 451/2/22 445/2/22 449/2/22
f 452/2/22 449/2/22 445/2/22
f 445/2/22 447/2/22 452/2/22
f 445/2/22 451/2/22 446/2/22
f 453/2/22 454/2/22 449/2/22
f 449/2/22 452/2/22 453/2/22
f 454/2/22 455/2/22 450/2/22
f 450/2/22 449/2/22 454/2/22
f 452/2/1 442/2/1 453/2/1
f 442/2/1 452/2/1 440/2/1
f 448/2/1 436/2/1 447/2/1
f 436/2/1 448/2/1 435/2/1
f 443/2/23 437/2/23 450/2/23
f 450/2/23 455/2/23 443/2/23
f 453/2/24 441/2/24 454/2/24
f 441/2/24 453/2/24 442/2/24
f 454/2/25 443/2/25 455/2/25
f 443/2/25 454/2/25 441/2/25
f 437/2/26 439/2/26 451/2/26
f 451/2/26 450/2/26 437/2/26
f 439/2/27 433/2/27 446/2/27
f 446/2/27 451/2/27 439/2/27
f 433/2/28 432/2/28 444/2/28
f 444/2/28 446/2/28 433/2/28
f 447/2/1 440/2/1 452/2/1
f 440/2/1 447/2/1 436/2/1
f 432/2/29 435/2/29 448/2/29
f 448/2/29 444/2/29 432/2/29
f 419/2/30 456/2/30 457/2/30
f 456/2/30 419/2/30 422/2/30
f 422/2/1 407/2/1 408/2/1
f 407/2/1 422/2/1 419/2/1
f 408/2/5 381/2/5 403/2/5
f 381/2/5 408/2/5 377/2/5
f 392/2/1 367/2/1 390/2/1
f 367/2/1 392/2/1 368/2/1
f 364/2/5 381/2/5 377/2/5
f 381/2/5 364/2/5 361/2/5
f 368/2/6 392/2/6 399/2/6
f 399/2/6 458/2/6 368/2/6
f 459/2/6 429/2/6 420/2/6
f 420/2/6 426/2/6 459/2/6
f 424/2/5 411/2/5 425/2/5
f 411/2/5 424/2/5 401/2/5
f 426/2/1 404/2/1 424/2/1
f 404/2/1 426/2/1 420/2/1
f 417/2/19 418/2/19 397/2/19
f 397/2/19 405/2/19 417/2/19
f 396/2/5 411/2/5 401/2/5
f 411/2/5 396/2/5 412/2/5
f 360/2/6 357/2/6 460/2/6
f 460/2/6 400/2/6 360/2/6
f 389/2/6 383/2/6 384/2/6
f 384/2/6 398/2/6 389/2/6
f 397/2/5 412/2/5 396/2/5
f 412/2/5 397/2/5 418/2/5
f 357/2/19 359/2/19 394/2/19
f 394/2/19 393/2/19 357/2/19
f 356/2/1 402/2/1 354/2/1
f 402/2/1 356/2/1 383/2/1
f 354/2/1 429/2/1 459/2/1
f 429/2/1 354/2/1 402/2/1
f 359/2/19 417/2/19 405/2/19
f 405/2/19 394/2/19 359/2/19
f 390/2/6 367/2/6 457/2/6
f 457/2/6 456/2/6 390/2/6
f 402/2/1 427/2/1 429/2/1
f 427/2/1 402/2/1 391/2/1
f 394/2/19 405/2/19 406/2/19
f 406/2/19 388/2/19 394/2/19
f 391/2/1 428/2/1 427/2/1
f 428/2/1 391/2/1 390/2/1
f 388/2/18 406/2/18 409/2/18
f 409/2/18 379/2/18 388/2/18
f 358/2/2 413/2/2 410/2/2
f 413/2/2 358/2/2 355/2/2
f 379/2/17 409/2/17 414/2/17
f 414/2/17 376/2/17 379/2/17
f 376/2/20 414/2/20 415/2/20
f 415/2/20 366/2/20 376/2/20
f 366/2/4 415/2/4 416/2/4
f 416/2/4 367/2/4 366/2/4
f 359/2/15 410/2/15 417/2/15
f 410/2/15 359/2/15 358/2/15
f 426/2/30 431/2/30 430/2/30
f 431/2/30 426/2/30 423/2/30
f 367/2/4 416/2/4 419/2/4
f 419/2/4 457/2/4 367/2/4
f 390/2/2 422/2/2 428/2/2
f 422/2/2 390/2/2 456/2/2
f 431/2/2 413/2/2 355/2/2
f 413/2/2 431/2/2 423/2/2
f 354/2/4 459/2/4 426/2/4
f 426/2/4 430/2/4 354/2/4
f 461/2/31 462/2/31 463/2/31
f 462/2/31 461/2/31 464/2/31
f 465/2/32 466/2/32 467/2/32
f 467/2/32 468/2/32 465/2/32
f 464/2/33 461/2/33 468/2/33
f 468/2/33 467/2/33 464/2/33
f 465/2/34 462/2/34 466/2/34
f 462/2/34 465/2/34 463/2/34
f 462/2/3 464/2/3 467/2/3
f 467/2/3 466/2/3 462/2/3
f 468/2/1 463/2/1 465/2/1
f 463/2/1 468/2/1 461/2/1
f 469/2/35 373/2/35 470/2/35
f 373/2/35 469/2/35 374/2/35
f 370/2/3 369/2/3 471/2/3
f 471/2/3 472/2/3 370/2/3
f 473/2/36 395/2/36 474/2/36
f 395/2/36 473/2/36 460/2/36
f 399/2/3 398/2/3 475/2/3
f 475/2/3 476/2/3 399/2/3
f 474/2/36 374/2/36 469/2/36
f 374/2/36 474/2/36 395/2/36
f 384/2/3 370/2/3 472/2/3
f 472/2/3 477/2/3 384/2/3
f 398/2/3 384/2/3 477/2/3
f 477/2/3 475/2/3 398/2/3
f 470/2/37 385/2/37 478/2/37
f 385/2/37 470/2/37 373/2/37
f 458/2/3 399/2/3 476/2/3
f 476/2/3 479/2/3 458/2/3
f 369/2/4 400/2/4 480/2/4
f 480/2/4 471/2/4 369/2/4
f 375/2/6 365/2/6 481/2/6
f 481/2/6 385/2/6 375/2/6
f 357/2/6 393/2/6 395/2/6
f 395/2/6 460/2/6 357/2/6
f 365/2/6 368/2/6 458/2/6
f 458/2/6 481/2/6 365/2/6
f 400/2/38 460/2/38 473/2/38
f 473/2/38 480/2/38 400/2/38
f 478/2/39 481/2/39 482/2/39
f 481/2/39 478/2/39 385/2/39
f 482/2/2 458/2/2 479/2/2
f 458/2/2 482/2/2 481/2/2
f 483/3/1 484/3/1 485/3/1
f 484/3/1 483/3/1 486/3/1
f 487/3/2 485/3/2 488/3/2
f 485/3/2 487/3/2 483/3/2
f 487/3/3 488/3/3 489/3/3
f 489/3/3 490/3/3 487/3/3
f 490/3/4 489/3/4 484/3/4
f 484/3/4 486/3/4 490/3/4
f 489/3/5 485/3/5 484/3/5
f 485/3/5 489/3/5 488/3/5
f 483/3/6 487/3/6 490/3/6
f 490/3/6 486/3/6 483/3/6
f 491/3/1 492/3/1 493/3/1
f 492/3/1 491/3/1 494/3/1
f 495/3/2 493/3/2 496/3/2
f 493/3/2 495/3/2 491/3/2
f 495/3/3 496/3/3 497/3/3
f 497/3/3 498/3/3 495/3/3
f 498/3/4 497/3/4 492/3/4
f 492/3/4 494/3/4 498/3/4
f 497/3/5 493/3/5 492/3/5
f 493/3/5 497/3/5 496/3/5
f 491/3/6 495/3/6 498/3/6
f 498/3/6 494/3/6 491/3/6
f 499/3/1 500/3/1 501/3/1
f 500/3/1 499/3/1 502/3/1
f 503/3/2 501/3/2 504/3/2
f 501/3/2 503/3/2 499/3/2
f 503/3/3 504/3/3 505/3/3
f 505/3/3 506/3/3 503/3/3
f 506/3/4 505/3/4 500/3/4
f 500/3/4 502/3/4 506/3/4
f 505/3/5 501/3/5 500/3/5
f 501/3/5 505/3/5 504/3/5
f 499/3/6 503/3/6 506/3/6
f 506/3/6 502/3/6 499/3/6
f 507/3/1 508/3/1 509/3/1
f 508/3/1 507/3/1 510/3/1
f 511/3/2 509/3/2 512/3/2
f 509/3/2 511/3/2 507/3/2
f 511/3/3 512/3/3 513/3/3
f 513/3/3 514/3/3 511/3/3
f 514/3/4 513/3/4 508/3/4
f 508/3/4 510/3/4 514/3/4
f 513/3/5 509/3/5 508/3/5
f 509/3/5 513/3/5 512/3/5
f 507/3/6 511/3/6 514/3/6
f 514/3/6 510/3/6 507/3/6
f 515/3/1 516/3/1 517/3/1
f 516/3/1 515/3/1 518/3/1
f 519/3/2 517/3/2 520/3/2
f 517/3/2 519/3/2 515/3/2
f 519/3/3 520/3/3 521/3/3
f 521/3/3 522/3/3 519/3/3
f 522/3/4 521/3/4 516/3/4
f 516/3/4 518/3/4 522/3/4
f 521/3/5 517/3/5 516/3/5
f 517/3/5 521/3/5 520/3/5
f 515/3/6 519/3/6 522/3/6
f 522/3/6 518/3/6 515/3/6
f 523/3/1 524/3/1 525/3/1
f 524/3/1 523/3/1 526/3/1
f 527/3/2 525/3/2 528/3/2
f 525/3/2 527/3/2 523/3/2
f 527/3/3 528/3/3 529/3/3
f 529/3/3 530/3/3 527/3/3
f 530/3/4 529/3/4 524/3/4
f 524/3/4 526/3/4 530/3/4
f 529/3/5 525/3/5 524/3/5
f 525/3/5 529/3/5 528/3/5
f 523/3/6 527/3/6 530/3/6
f 530/3/6 526/3/6 523/3/6
f 531/3/1 532/3/1 533/3/1
f 532/3/1 531/3/1 534/3/1
f 535/3/2 533/3/2 536/3/2
f 533/3/2 535/3/2 531/3/2
f 535/3/3 536/3/3 537/3/3
f 537/3/3 538/3/3 535/3/3
f 538/3/4 537/3/4 532/3/4
f 532/3/4 534/3/4 538/3/4
f 537/3/5 533/3/5 532/3/5
f 533/3/5 537/3/5 536/3/5
f 531/3/6 535/3/6 538/3/6
f 538/3/6 534/3/6 531/3/6
f 539/3/1 540/3/1 541/3/1
f 540/3/1 539/3/1 542/3/1
f 543/3/2 541/3/2 544/3/2
f 541/3/2 543/3/2 539/3/2
f 543/3/3 544/3/3 545/3/3
f 545/3/3 546/3/3 543/3/3
f 546/3/4 545/3/4 540/3/4
f 540/3/4 542/3/4 546/3/4
f 545/3/5 541/3/5 540/3/5
f 541/3/5 545/3/5 544/3/5
f 539/3/6 543/3/6 546/3/6
f 546/3/6 542/3/6 539/3/6
f 547/3/1 548/3/1 549/3/1
f 548/3/1 547/3/1 550/3/1
f 551/3/2 549/3/2 552/3/2
f 549/3/2 551/3/2 547/3/2
f 551/3/3 552/3/3 553/3/3
f 553/3/3 554/3/3 551/3/3
f 554/3/4 553/3/4 548/3/4
f 548/3/4 550/3/4 554/3/4
f 553/3/5 549/3/5 548/3/5
f 549/3/5 553/3/5 552/3/5
f 547/3/6 551/3/6 554/3/6
f 554/3/6 550/3/6 547/3/6
f 555/3/1 556/3/1 557/3/1
f 556/3/1 555/3/1 558/3/1
f 559/3/2 557/3/2 560/3/2
f 557/3/2 559/3/2 555/3/2
f 559/3/3 560/3/3 561/3/3
f 561/3/3 562/3/3 559/3/3
f 562/3/4 561/3/4 556/3/4
f 556/3/4 558/3/4 562/3/4
f 561/3/5 557/3/5 556/3/5
f 557/3/5 561/3/5 560/3/5
f 555/3/6 559/3/6 562/3/6
f 562/3/6 558/3/6 555/3/6
f 563/3/1 564/3/1 565/3/1
f 564/3/1 563/3/1 566/3/1
f 567/3/2 565/3/2 568/3/2
f 565/3/2 567/3/2 563/3/2
f 567/3/3 568/3/3 569/3/3
f 569/3/3 570/3/3 567/3/3
f 570/3/4 569/3/4 564/3/4
f 564/3/4 566/3/4 570/3/4
f 569/3/5 565/3/5 564/3/5
f 565/3/5 569/3/5 568/3/5
f 563/3/6 567/3/6 570/3/6
f 570/3/6 566/3/6 563/3/6
f 571/3/1 572/3/1 573/3/1
f 572/3/1 571/3/1 574/3/1
f 575/3/2 573/3/2 576/3/2
f 573/3/2 575/3/2 571/3/2
f 575/3/3 576/3/3 577/3/3
f 577/3/3 578/3/3 575/3/3
f 578/3/4 577/3/4 572/3/4
f 572/3/4 574/3/4 578/3/4
f 577/3/5 573/3/5 572/3/5
f 573/3/5 577/3/5 576/3/5
f 571/3/6 575/3/6 578/3/6
f 578/3/6 574/3/6 571/3/6
f 579/3/1 580/3/1 581/3/1
f 580/3/1 579/3/1 582/3/1
f 583/3/2 581/3/2 584/3/2
f 581/3/2 583/3/2 579/3/2
f 583/3/3 584/3/3 585/3/3
f 585/3/3 586/3/3 583/3/3
f 586/3/4 585/3/4 580/3/4
f 580/3/4 582/3/4 586/3/4
f 585/3/5 581/3/5 580/3/5
f 581/3/5 585/3/5 584/3/5
f 579/3/6 583/3/6 586/3/6
f 586/3/6 582/3/6 579/3/6
f 587/3/1 588/3/1 589/3/1
f 588/3/1 587/3/1 590/3/1
f 591/3/2 589/3/2 592/3/2
f 589/3/2 591/3/2 587/3/2
f 591/3/3 592/3/3 593/3/3
f 593/3/3 594/3/3 591/3/3
f 594/3/4 593/3/4 588/3/4
f 588/3/4 590/3/4 594/3/4
f 593/3/5 589/3/5 588/3/5
f 589/3/5 593/3/5 592/3/5
f 587/3/6 591/3/6 594/3/6
f 594/3/6 590/3/6 587/3/6
f 595/3/1 596/3/1 597/3/1
f 596/3/1 595/3/1 598/3/1
f 599/3/2 597/3/2 600/3/2
f 597/3/2 599/3/2 595/3/2
f 599/3/3 600/3/3 601/3/3
f 601/3/3 602/3/3 599/3/3
f 602/3/4 601/3/4 596/3/4
f 596/3/4 598/3/4 602/3/4
f 601/3/5 597/3/5 596/3/5
f 597/3/5 601/3/5 600/3/5
f 595/3/6 599/3/6 602/3/6
f 602/3/6 598/3/6 595/3/6
f 603/3/1 604/3/1 605/3/1
f 604/3/1 603/3/1 606/3/1
f 607/3/2 605/3/2 608/3/2
f 605/3/2 607/3/2 603/3/2
f 607/3/3 608/3/3 609/3/3
f 609/3/3 610/3/3 607/3/3
f 610/3/4 609/3/4 604/3/4
f 604/3/4 606/3/4 610/3/4
f 609/3/5 605/3/5 604/3/5
f 605/3/5 609/3/5 608/3/5
f 603/3/6 607/3/6 610/3/6
f 610/3/6 606/3/6 603/3/6
f 611/3/1 612/3/1 613/3/1
f 612/3/1 611/3/1 614/3/1
f 615/3/2 613/3/2 616/3/2
f 613/3/2 615/3/2 611/3/2
f 615/3/3 616/3/3 617/3/3
f 617/3/3 618/3/3 615/3/3
f 618/3/4 617/3/4 612/3/4
f 612/3/4 614/3/4 618/3/4
f 617/3/5 613/3/5 612/3/5
f 613/3/5 617/3/5 616/3/5
f 611/3/6 615/3/6 618/3/6
f 618/3/6 614/3/6 611/3/6
f 619/3/1 620/3/1 621/3/1
f 620/3/1 619/3/1 622/3/1
f 623/3/2 621/3/2 624/3/2
f 621/3/2 623/3/2 619/3/2
f 623/3/3 624/3/3 625/3/3
f 625/3/3 626/3/3 623/3/3
f 626/3/4 625/3/4 620/3/4
f 620/3/4 622/3/4 626/3/4
f 625/3/5 621/3/5 620/3/5
f 621/3/5 625/3/5 624/3/5
f 619/3/6 623/3/6 626/3/6
f 626/3/6 622/3/6 619/3/6
f 627/3/1 628/3/1 629/3/1
f 628/3/1 627/3/1 630/3/1
f 631/3/2 629/3/2 632/3/2
f 629/3/2 631/3/2 627/3/2
f 631/3/3 632/3/3 633/3/3
f 633/3/3 634/3/3 631/3/3
f 634/3/4 633/3/4 628/3/4
f 628/3/4 630/3/4 634/3/4
f 633/3/5 629/3/5 628/3/5
f 629/3/5 633/3/5 632/3/5
f 627/3/6 631/3/6 634/3/6
f 634/3/6 630/3/6 627/3/6
f 635/3/1 636/3/1 637/3/1
f 636/3/1 635/3/1 638/3/1
f 639/3/2 637/3/2 640/3/2
f 637/3/2 639/3/2 635/3/2
f 639/3/3 640/3/3 641/3/3
f 641/3/3 642/3/3 639/3/3
f 642/3/4 641/3/4 636/3/4
f 636/3/4 638/3/4 642/3/4
f 641/3/5 637/3/5 636/3/5
f 637/3/5 641/3/5 640/3/5
f 635/3/6 639/3/6 642/3/6
f 642/3/6 638/3/6 635/3/6
f 643/3/1 644/3/1 645/3/1
f 644/3/1 643/3/1 646/3/1
f 647/3/2 645/3/2 648/3/2
f 645/3/2 647/3/2 643/3/2
f 647/3/3 648/3/3 649/3/3
f 649/3/3 650/3/3 647/3/3
f 650/3/4 649/3/4 644/3/4
f 644/3/4 646/3/4 650/3/4
f 649/3/5 645/3/5 644/3/5
f 645/3/5 649/3/5 648/3/5
f 643/3/6 647/3/6 650/3/6
f 650/3/6 646/3/6 643/3/6
f 651/3/1 652/3/1 653/3/1
f 652/3/1 651/3/1 654/3/1
f 655/3/2 653/3/2 656/3/2
f 653/3/2 655/3/2 651/3/2
f 655/3/3 656/3/3 657/3/3
f 657/3/3 658/3/3 655/3/3
f 658/3/4 657/3/4 652/3/4
f 652/3/4 654/3/4 658/3/4
f 657/3/5 653/3/5 652/3/5
f 653/3/5 657/3/5 656/3/5
f 651/3/6 655/3/6 658/3/6
f 658/3/6 654/3/6 651/3/6
f 659/3/1 660/3/1 661/3/1
f 660/3/1 659/3/1 662/3/1
f 663/3/2 661/3/2 664/3/2
f 661/3/2 663/3/2 659/3/2
f 663/3/3 664/3/3 665/3/3
f 665/3/3 666/3/3 663/3/3
f 666/3/4 665/3/4 660/3/4
f 660/3/4 662/3/4 666/3/4
f 665/3/5 661/3/5 660/3/5
f 661/3/5 665/3/5 664/3/5
f 659/3/6 663/3/6 666/3/6
f 666/3/6 662/3/6 659/3/6
f 667/3/1 668/3/1 669/3/1
f 668/3/1 667/3/1 670/3/1
f 671/3/2 669/3/2 672/3/2
f 669/3/2 671/3/2 667/3/2
f 671/3/3 672/3/3 673/3/3
f 673/3/3 674/3/3 671/3/3
f 674/3/4 673/3/4 668/3/4
f 668/3/4 670/3/4 674/3/4
f 673/3/5 669/3/5 668/3/5
f 669/3/5 673/3/5 672/3/5
f 667/3/6 671/3/6 674/3/6
f 674/3/6 670/3/6 667/3/6
f 675/3/1 676/3/1 677/3/1
f 676/3/1 675/3/1 678/3/1
f 679/3/2 677/3/2 680/3/2
f 677/3/2 679/3/2 675/3/2
f 679/3/3 680/3/3 681/3/3
f 681/3/3 682/3/3 679/3/3
f 682/3/4 681/3/4 676/3/4
f 676/3/4 678/3/4 682/3/4
f 681/3/5 677/3/5 676/3/5
f 677/3/5 681/3/5 680/3/5
f 675/3/6 679/3/6 682/3/6
f 682/3/6 678/3/6 675/3/6
f 683/3/1 684/3/1 685/3/1
f 684/3/1 683/3/1 686/3/1
f 687/3/2 685/3/2 688/3/2
f 685/3/2 687/3/2 683/3/2
f 687/3/3 688/3/3 689/3/3
f 689/3/3 690/3/3 687/3/3
f 690/3/4 689/3/4 684/3/4
f 684/3/4 686/3/4 690/3/4
f 689/3/5 685/3/5 684/3/5
f 685/3/5 689/3/5 688/3/5
f 683/3/6 687/3/6 690/3/6
f 690/3/6 686/3/6 683/3/6
f 691/3/1 692/3/1 693/3/1
f 692/3/1 691/3/1 694/3/1
f 695/3/2 693/3/2 696/3/2
f 693/3/2 695/3/2 691/3/2
f 695/3/3 696/3/3 697/3/3
f 697/3/3 698/3/3 695/3/3
f 698/3/4 697/3/4 692/3/4
f 692/3/4 694/3/4 698/3/4
f 697/3/5 693/3/5 692/3/5
f 693/3/5 697/3/5 696/3/5
f 691/3/6 695/3/6 698/3/6
f 698/3/6 694/3/6 691/3/6
f 699/3/1 700/3/1 701/3/1
f 700/3/1 699/3/1 702/3/1
f 703/3/2 701/3/2 704/3/2
f 701/3/2 703/3/2 699/3/2
f 703/3/3 704/3/3 705/3/3
f 705/3/3 706/3/3 703/3/3
f 706/3/4 705/3/4 700/3/4
f 700/3/4 702/3/4 706/3/4
f 705/3/5 701/3/5 700/3/5
f 701/3/5 705/3/5 704/3/5
f 699/3/6 703/3/6 706/3/6
f 706/3/6 702/3/6 699/3/6
f 707/3/1 708/3/1 709/3/1
f 708/3/1 707/3/1 710/3/1
f 711/3/2 709/3/2 712/3/2
f 709/3/2 711/3/2 707/3/2
f 711/3/3 712/3/3 713/3/3
f 713/3/3 714/3/3 711/3/3
f 714/3/4 713/3/4 708/3/4
f 708/3/4 710/3/4 714/3/4
f 713/3/5 709/3/5 708/3/5
f 709/3/5 713/3/5 712/3/5
f 707/3/6 711/3/6 714/3/6
f 714/3/6 710/3/6 707/3/6
f 715/3/1 716/3/1 717/3/1
f 716/3/1 715/3/1 718/3/1
f 719/3/2 717/3/2 720/3/2
f 717/3/2 719/3/2 715/3/2
f 719/3/3 720/3/3 721/3/3
f 721/3/3 722/3/3 719/3/3
f 722/3/4 721/3/4 716/3/4
f 716/3/4 718/3/4 722/3/4
f 721/3/5 717/3/5 716/3/5
f 717/3/5 721/3/5 720/3/5
f 715/3/6 719/3/6 722/3/6
f 722/3/6 718/3/6 715/3/6
f 723/3/1 724/3/1 725/3/1
f 724/3/1 723/3/1 726/3/1
f 727/3/2 725/3/2 728/3/2
f 725/3/2 727/3/2 723/3/2
f 727/3/3 728/3/3 729/3/3
f 729/3/3 730/3/3 727/3/3
f 730/3/4 729/3/4 724/3/4
f 724/3/4 726/3/4 730/3/4
f 729/3/5 725/3/5 724/3/5
f 725/3/5 729/3/5 728/3/5
f 723/3/6 727/3/6 730/3/6
f 730/3/6 726/3/6 723/3/6
f 731/3/1 732/3/1 733/3/1
f 732/3/1 731/3/1 734/3/1
f 735/3/2 733/3/2 736/3/2
f 733/3/2 735/3/2 731/3/2
f 735/3/3 736/3/3 737/3/3
f 737/3/3 738/3/3 735/3/3
f 738/3/4 737/3/4 732/3/4
f 732/3/4 734/3/4 738/3/4
f 737/3/5 733/3/5 732/3/5
f 733/3/5 737/3/5 736/3/5
f 731/3/6 735/3/6 738/3/6
f 738/3/6 734/3/6 731/3/6
f 739/3/1 740/3/1 741/3/1
f 740/3/1 739/3/1 742/3/1
f 743/3/2 741/3/2 744/3/2
f 741/3/2 743/3/2 739/3/2
f 743/3/3 744/3/3 745/3/3
f 745/3/3 746/3/3 743/3/3
f 746/3/4 745/3/4 740/3/4
f 740/3/4 742/3/4 746/3/4
f 745/3/5 741/3/5 740/3/5
f 741/3/5 745/3/5 744/3/5
f 739/3/6 743/3/6 746/3/6
f 746/3/6 742/3/6 739/3/6
f 747/3/1 748/3/1 749/3/1
f 748/3/1 747/3/1 750/3/1
f 751/3/2 749/3/2 752/3/2
f 749/3/2 751/3/2 747/3/2
f 751/3/3 752/3/3 753/3/3
f 753/3/3 754/3/3 751/3/3
f 754/3/4 753/3/4 748/3/4
f 748/3/4 750/3/4 754/3/4
f 753/3/5 749/3/5 748/3/5
f 749/3/5 753/3/5 752/3/5
f 747/3/6 751/3/6 754/3/6
f 754/3/6 750/3/6 747/3/6
f 755/3/1 756/3/1 757/3/1
f 756/3/1 755/3/1 758/3/1
f 759/3/2 757/3/2 760/3/2
f 757/3/2 759/3/2 755/3/2
f 759/3/3 760/3/3 761/3/3
f 761/3/3 762/3/3 759/3/3
f 762/3/4 761/3/4 756/3/4
f 756/3/4 758/3/4 762/3/4
f 761/3/5 757/3/5 756/3/5
f 757/3/5 761/3/5 760/3/5
f 755/3/6 759/3/6 762/3/6
f 762/3/6 758/3/6 755/3/6
f 763/3/1 764/3/1 765/3/1
f 764/3/1 763/3/1 766/3/1
f 767/3/2 765/3/2 768/3/2
f 765/3/2 767/3/2 763/3/2
f 767/3/3 768/3/3 769/3/3
f 769/3/3 770/3/3 767/3/3
f 770/3/4 769/3/4 764/3/4
f 764/3/4 766/3/4 770/3/4
f 769/3/5 765/3/5 764/3/5
f 765/3/5 769/3/5 768/3/5
f 763/3/6 767/3/6 770/3/6
f 770/3/6 766/3/6 763/3/6
f 771/3/1 772/3/1 773/3/1
f 772/3/1 771/3/1 774/3/1
f 775/3/2 773/3/2 776/3/2
f 773/3/2 775/3/2 771/3/2
f 775/3/3 776/3/3 777/3/3
f 777/3/3 778/3/3 775/3/3
f 778/3/4 777/3/4 772/3/4
f 772/3/4 774/3/4 778/3/4
f 777/3/5 773/3/5 772/3/5
f 773/3/5 777/3/5 776/3/5
f 771/3/6 775/3/6 778/3/6
f 778/3/6 774/3/6 771/3/6
f 779/3/1 780/3/1 781/3/1
f 780/3/1 779/3/1 782/3/1
f 783/3/2 781/3/2 784/3/2
f 781/3/2 783/3/2 779/3/2
f 783/3/3 784/3/3 785/3/3
f 785/3/3 786/3/3 783/3/3
f 786/3/4 785/3/4 780/3/4
f 780/3/4 782/3/4 786/3/4
f 785/3/5 781/3/5 780/3/5
f 781/3/5 785/3/5 784/3/5
f 779/3/6 783/3/6 786/3/6
f 786/3/6 782/3/6 779/3/6
f 787/3/1 788/3/1 789/3/1
f 788/3/1 787/3/1 790/3/1
f 791/3/2 789/3/2 792/3/2
f 789/3/2 791/3/2 787/3/2
f 791/3/3 792/3/3 793/3/3
f 793/3/3 794/3/3 791/3/3
f 794/3/4 793/3/4 788/3/4
f 788/3/4 790/3/4 794/3/4
f 793/3/5 789/3/5 788/3/5
f 789/3/5 793/3/5 792/3/5
f 787/3/6 791/3/6 794/3/6
f 794/3/6 790/3/6 787/3/6
f 795/3/1 796/3/1 797/3/1
f 796/3/1 795/3/1 798/3/1
f 799/3/2 797/3/2 800/3/2
f 797/3/2 799/3/2 795/3/2
f 799/3/3 800/3/3 801/3/3
f 801/3/3 802/3/3 799/3/3
f 802/3/4 801/3/4 796/3/4
f 796/3/4 798/3/4 802/3/4
f 801/3/5 797/3/5 796/3/5
f 797/3/5 801/3/5 800/3/5
f 795/3/6 799/3/6 802/3/6
f 802/3/6 798/3/6 795/3/6
f 803/3/1 804/3/1 805/3/1
f 804/3/1 803/3/1 806/3/1
f 807/3/2 805/3/2 808/3/2
f 805/3/2 807/3/2 803/3/2
f 807/3/3 808/3/3 809/3/3
f 809/3/3 810/3/3 807/3/3
f 810/3/4 809/3/4 804/3/4
f 804/3/4 806/3/4 810/3/4
f 809/3/5 805/3/5 804/3/5
f 805/3/5 809/3/5 808/3/5
f 803/3/6 807/3/6 810/3/6
f 810/3/6 806/3/6 803/3/6
f 811/3/1 812/3/1 813/3/1
f 812/3/1 811/3/1 814/3/1
f 815/3/2 813/3/2 816/3/2
f 813/3/2 815/3/2 811/3/2
f 815/3/3 816/3/3 817/3/3
f 817/3/3 818/3/3 815/3/3
f 818/3/4 817/3/4 812/3/4
f 812/3/4 814/3/4 818/3/4
f 817/3/5 813/3/5 812/3/5
f 813/3/5 817/3/5 816/3/5
f 811/3/6 815/3/6 818/3/6
f 818/3/6 814/3/6 811/3/6
f 819/3/1 820/3/1 821/3/1
f 820/3/1 819/3/1 822/3/1
f 823/3/2 821/3/2 824/3/2
f 821/3/2 823/3/2 819/3/2
f 823/3/3 824/3/3 825/3/3
f 825/3/3 826/3/3 823/3/3
f 826/3/4 825/3/4 820/3/4
f 820/3/4 822/3/4 826/3/4
f 825/3/5 821/3/5 820/3/5
f 821/3/5 825/3/5 824/3/5
f 819/3/6 823/3/6 826/3/6
f 826/3/6 822/3/6 819/3/6
f 827/3/1 828/3/1 829/3/1
f 828/3/1 827/3/1 830/3/1
f 831/3/2 829/3/2 832/3/2
f 829/3/2 831/3/2 827/3/2
f 831/3/3 832/3/3 833/3/3
f 833/3/3 834/3/3 831/3/3
f 834/3/4 833/3/4 828/3/4
f 828/3/4 830/3/4 834/3/4
f 833/3/5 829/3/5 828/3/5
f 829/3/5 833/3/5 832/3/5
f 827/3/6 831/3/6 834/3/6
f 834/3/6 830/3/6 827/3/6
f 835/3/1 836/3/1 837/3/1
f 836/3/1 835/3/1 838/3/1
f 839/3/2 837/3/2 840/3/2
f 837/3/2 839/3/2 835/3/2
f 839/3/3 840/3/3 841/3/3
f 841/3/3 842/3/3 839/3/3
f 842/3/4 841/3/4 836/3/4
f 836/3/4 838/3/4 842/3/4
f 841/3/5 837/3/5 836/3/5
f 837/3/5 841/3/5 840/3/5
f 835/3/6 839/3/6 842/3/6
f 842/3/6 838/3/6 835/3/6
f 843/3/1 844/3/1 845/3/1
f 844/3/1 843/3/1 846/3/1
f 847/3/2 845/3/2 848/3/2
f 845/3/2 847/3/2 843/3/2
f 847/3/3 848/3/3 849/3/3
f 849/3/3 850/3/3 847/3/3
f 850/3/4 849/3/4 844/3/4
f 844/3/4 846/3/4 850/3/4
f 849/3/5 845/3/5 844/3/5
f 845/3/5 849/3/5 848/3/5
f 843/3/6 847/3/6 850/3/6
f 850/3/6 846/3/6 843/3/6
f 851/3/1 852/3/1 853/3/1
f 852/3/1 851/3/1 854/3/1
f 855/3/2 853/3/2 856/3/2
f 853/3/2 855/3/2 851/3/2
f 855/3/3 856/3/3 857/3/3
f 857/3/3 858/3/3 855/3/3
f 858/3/4 857/3/4 852/3/4
f 852/3/4 854/3/4 858/3/4
f 857/3/5 853/3/5 852/3/5
f 853/3/5 857/3/5 856/3/5
f 851/3/6 855/3/6 858/3/6
f 858/3/6 854/3/6 851/3/6
f 859/3/1 860/3/1 861/3/1
f 860/3/1 859/3/1 862/3/1
f 863/3/2 861/3/2 864/3/2
f 861/3/2 863/3/2 859/3/2
f 863/3/3 864/3/3 865/3/3
f 865/3/3 866/3/3 863/3/3
f 866/3/4 865/3/4 860/3/4
f 860/3/4 862/3/4 866/3/4
f 865/3/5 861/3/5 860/3/5
f 861/3/5 865/3/5 864/3/5
f 859/3/6 863/3/6 866/3/6
f 866/3/6 862/3/6 859/3/6
f 867/3/1 868/3/1 869/3/1
f 868/3/1 867/3/1 870/3/1
f 871/3/2 869/3/2 872/3/2
f 869/3/2 871/3/2 867/3/2
f 871/3/3 872/3/3 873/3/3
f 873/3/3 874/3/3 871/3/3
f 874/3/4 873/3/4 868/3/4
f 868/3/4 870/3/4 874/3/4
f 873/3/5 869/3/5 868/3/5
f 869/3/5 873/3/5 872/3/5
f 867/3/6 871/3/6 874/3/6
f 874/3/6 870/3/6 867/3/6
f 875/3/1 876/3/1 877/3/1
f 876/3/1 875/3/1 878/3/1
f 879/3/2 877/3/2 880/3/2
f 877/3/2 879/3/2 875/3/2
f 879/3/3 880/3/3 881/3/3
f 881/3/3 882/3/3 879/3/3
f 882/3/4 881/3/4 876/3/4
f 876/3/4 878/3/4 882/3/4
f 881/3/5 877/3/5 876/3/5
f 877/3/5 881/3/5 880/3/5
f 875/3/6 879/3/6 882/3/6
f 882/3/6 878/3/6 875/3/6
f 883/3/1 884/3/1 885/3/1
f 884/3/1 883/3/1 886/3/1
f 887/3/2 885/3/2 888/3/2
f 885/3/2 887/3/2 883/3/2
f 887/3/3 888/3/3 889/3/3
f 889/3/3 890/3/3 887/3/3
f 890/3/4 889/3/4 884/3/4
f 884/3/4 886/3/4 890/3/4
f 889/3/5 885/3/5 884/3/5
f 885/3/5 889/3/5 888/3/5
f 883/3/6 887/3/6 890/3/6
f 890/3/6 886/3/6 883/3/6
f 891/3/1 892/3/1 893/3/1
f 892/3/1 891/3/1 894/3/1
f 895/3/2 893/3/2 896/3/2
f 893/3/2 895/3/2 891/3/2
f 895/3/3 896/3/3 897/3/3
f 897/3/3 898/3/3 895/3/3
f 898/3/4 897/3/4 892/3/4
f 892/3/4 894/3/4 898/3/4
f 897/3/5 893/3/5 892/3/5
f 893/3/5 897/3/5 896/3/5
f 891/3/6 895/3/6 898/3/6
f 898/3/6 894/3/6 891/3/6
f 899/3/1 900/3/1 901/3/1
f 900/3/1 899/3/1 902/3/1
f 903/3/2 901/3/2 904/3/2
f 901/3/2 903/3/2 899/3/2
f 903/3/3 904/3/3 905/3/3
f 905/3/3 906/3/3 903/3/3
f 906/3/4 905/3/4 900/3/4
f 900/3/4 902/3/4 906/3/4
f 905/3/5 901/3/5 900/3/5
f 901/3/5 905/3/5 904/3/5
f 899/3/6 903/3/6 906/3/6
f 906/3/6 902/3/6 899/3/6
f 907/3/1 908/3/1 909/3/1
f 908/3/1 907/3/1 910/3/1
f 911/3/2 909/3/2 912/3/2
f 909/3/2 911/3/2 907/3/2
f 911/3/3 912/3/3 913/3/3
f 913/3/3 914/3/3 911/3/3
f 914/3/4 913/3/4 908/3/4
f 908/3/4 910/3/4 914/3/4
f 913/3/5 909/3/5 908/3/5
f 909/3/5 913/3/5 912/3/5
f 907/3/6 911/3/6 914/3/6
f 914/3/6 910/3/6 907/3/6
f 915/3/1 916/3/1 917/3/1
f 916/3/1 915/3/1 918/3/1
f 919/3/2 917/3/2 920/3/2
f 917/3/2 919/3/2 915/3/2
f 919/3/3 920/3/3 921/3/3
f 921/3/3 922/3/3 919/3/3
f 922/3/4 921/3/4 916/3/4
f 916/3/4 918/3/4 922/3/4
f 921/3/5 917/3/5 916/3/5
f 917/3/5 921/3/5 920/3/5
f 915/3/6 919/3/6 922/3/6
f 922/3/6 918/3/6 915/3/6
f 923/3/1 924/3/1 925/3/1
f 924/3/1 923/3/1 926/3/1
f 927/3/2 925/3/2 928/3/2
f 925/3/2 927/3/2 923/3/2
f 927/3/3 928/3/3 929/3/3
f 929/3/3 930/3/3 927/3/3
f 930/3/4 929/3/4 924/3/4
f 924/3/4 926/3/4 930/3/4
f 929/3/5 925/3/5 924/3/5
f 925/3/5 929/3/5 928/3/5
f 923/3/6 927/3/6 930/3/6
f 930/3/6 926/3/6 923/3/6
f 931/3/1 932/3/1 933/3/1
f 932/3/1 931/3/1 934/3/1
f 935/3/2 933/3/2 936/3/2
f 933/3/2 935/3/2 931/3/2
f 935/3/3 936/3/3 937/3/3
f 937/3/3 938/3/3 935/3/3
f 938/3/4 937/3/4 932/3/4
f 932/3/4 934/3/4 938/3/4
f 937/3/5 933/3/5 932/3/5
f 933/3/5 937/3/5 936/3/5
f 931/3/6 935/3/6 938/3/6
f 938/3/6 934/3/6 931/3/6
f 939/3/1 940/3/1 941/3/1
f 940/3/1 939/3/1 942/3/1
f 943/3/2 941/3/2 944/3/2
f 941/3/2 943/3/2 939/3/2
f 943/3/3 944/3/3 945/3/3
f 945/3/3 946/3/3 943/3/3
f 946/3/4 945/3/4 940/3/4
f 940/3/4 942/3/4 946/3/4
f 945/3/5 941/3/5 940/3/5
f 941/3/5 945/3/5 944/3/5
f 939/3/6 943/3/6 946/3/6
f 946/3/6 942/3/6 939/3/6
f 947/3/1 948/3/1 949/3/1
f 948/3/1 947/3/1 950/3/1
f 951/3/2 949/3/2 952/3/2
f 949/3/2 951/3/2 947/3/2
f 951/3/3 952/3/3 953/3/3
f 953/3/3 954/3/3 951/3/3
f 954/3/4 953/3/4 948/3/4
f 948/3/4 950/3/4 954/3/4
f 953/3/5 949/3/5 948/3/5
f 949/3/5 953/3/5 952/3/5
f 947/3/6 951/3/6 954/3/6
f 954/3/6 950/3/6 947/3/6
f 955/3/1 956/3/1 957/3/1
f 956/3/1 955/3/1 958/3/1
f 959/3/2 957/3/2 960/3/2
f 957/3/2 959/3/2 955/3/2
f 959/3/3 960/3/3 961/3/3
f 961/3/3 962/3/3 959/3/3
f 962/3/4 961/3/4 956/3/4
f 956/3/4 958/3/4 962/3/4
f 961/3/5 957/3/5 956/3/5
f 957/3/5 961/3/5 960/3/5
f 955/3/6 959/3/6 962/3/6
f 962/3/6 958/3/6 955/3/6
f 963/3/1 964/3/1 965/3/1
f 964/3/1 963/3/1 966/3/1
f 967/3/2 965/3/2 968/3/2
f 965/3/2 967/3/2 963/3/2
f 967/3/3 968/3/3 969/3/3
f 969/3/3 970/3/3 967/3/3
f 970/3/4 969/3/4 964/3/4
f 964/3/4 966/3/4 970/3/4
f 969/3/5 965/3/5 964/3/5
f 965/3/5 969/3/5 968/3/5
f 963/3/6 967/3/6 970/3/6
f 970/3/6 966/3/6 963/3/6
f 971/3/1 972/3/1 973/3/1
f 972/3/1 971/3/1 974/3/1
f 975/3/2 973/3/2 976/3/2
f 973/3/2 975/3/2 971/3/2
f 975/3/3 976/3/3 977/3/3
f 977/3/3 978/3/3 975/3/3
f 978/3/4 977/3/4 972/3/4
f 972/3/4 974/3/4 978/3/4
f 977/3/5 973/3/5 972/3/5
f 973/3/5 977/3/5 976/3/5
f 971/3/6 975/3/6 978/3/6
f 978/3/6 974/3/6 971/3/6
f 979/3/1 980/3/1 981/3/1
f 980/3/1 979/3/1 982/3/1
f 983/3/2 981/3/2 984/3/2
f 981/3/2 983/3/2 979/3/2
f 983/3/3 984/3/3 985/3/3
f 985/3/3 986/3/3 983/3/3
f 986/3/4 985/3/4 980/3/4
f 980/3/4 982/3/4 986/3/4
f 985/3/5 981/3/5 980/3/5
f 981/3/5 985/3/5 984/3/5
f 979/3/6 983/3/6 986/3/6
f 986/3/6 982/3/6 979/3/6
f 987/3/1 988/3/1 989/3/1
f 988/3/1 987/3/1 990/3/1
f 991/3/2 989/3/2 992/3/2
f 989/3/2 991/3/2 987/3/2
f 991/3/3 992/3/3 993/3/3
f 993/3/3 994/3/3 991/3/3
f 994/3/4 993/3/4 988/3/4
f 988/3/4 990/3/4 994/3/4
f 993/3/5 989/3/5 988/3/5
f 989/3/5 993/3/5 992/3/5
f 987/3/6 991/3/6 994/3/6
f 994/3/6 990/3/6 987/3/6
f 995/3/1 996/3/1 997/3/1
f 996/3/1 995/3/1 998/3/1
f 999/3/2 997/3/2 1000/3/2
f 997/3/2 999/3/2 995/3/2
f 999/3/3 1000/3/3 1001/3/3
f 1001/3/3 1002/3/3 999/3/3
f 1002/3/4 1001/3/4 996/3/4
f 996/3/4 998/3/4 1002/3/4
f 1001/3/5 997/3/5 996/3/5
f 997/3/5 1001/3/5 1000/3/5
f 995/3/6 999/3/6 1002/3/6
f 1002/3/6 998/3/6 995/3/6
f 1003/3/1 1004/3/1 1005/3/1
f 1004/3/1 1003/3/1 1006/3/1
f 1007/3/2 1005/3/2 1008/3/2
f 1005/3/2 1007/3/2 1003/3/2
f 1007/3/3 1008/3/3 1009/3/3
f 1009/3/3 1010/3/3 1007/3/3
f 1010/3/4 1009/3/4 1004/3/4
f 1004/3/4 1006/3/4 1010/3/4
f 1009/3/5 1005/3/5 1004/3/5
f 1005/3/5 1009/3/5 1008/3/5
f 1003/3/6 1007/3/6 1010/3/6
f 1010/3/6 1006/3/6 1003/3/6
f 1011/3/1 1012/3/1 1013/3/1
f 1012/3/1 1011/3/1 1014/3/1
f 1015/3/2 1013/3/2 1016/3/2
f 1013/3/2 1015/3/2 1011/3/2
f 1015/3/3 1016/3/3 1017/3/3
f 1017/3/3 1018/3/3 1015/3/3
f 1018/3/4 1017/3/4 1012/3/4
f 1012/3/4 1014/3/4 1018/3/4
f 1017/3/5 1013/3/5 1012/3/5
f 1013/3/5 1017/3/5 1016/3/5
f 1011/3/6 1015/3/6 1018/3/6
f 1018/3/6 1014/3/6 1011/3/6
f 1019/3/1 1020/3/1 1021/3/1
f 1020/3/1 1019/3/1 1022/3/1
f 1023/3/2 1021/3/2 1024/3/2
f 1021/3/2 1023/3/2 1019/3/2
f 1023/3/3 1024/3/3 1025/3/3
f 1025/3/3 1026/3/3 1023/3/3
f 1026/3/4 1025/3/4 1020/3/4
f 1020/3/4 1022/3/4 1026/3/4
f 1025/3/5 1021/3/5 1020/3/5
f 1021/3/5 1025/3/5 1024/3/5
f 1019/3/6 1023/3/6 1026/3/6
f 1026/3/6 1022/3/6 1019/3/6
f 1027/3/1 1028/3/1 1029/3/1
f 1028/3/1 1027/3/1 1030/3/1
f 1031/3/2 1029/3/2 1032/3/2
f 1029/3/2 1031/3/2 1027/3/2
f 1031/3/3 1032/3/3 1033/3/3
f 1033/3/3 1034/3/3 1031/3/3
f 1034/3/4 1033/3/4 1028/3/4
f 1028/3/4 1030/3/4 1034/3/4
f 1033/3/5 1029/3/5 1028/3/5
f 1029/3/5 1033/3/5 1032/3/5
f 1027/3/6 1031/3/6 1034/3/6
f 1034/3/6 1030/3/6 1027/3/6
f 1035/3/1 1036/3/1 1037/3/1
f 1036/3/1 1035/3/1 1038/3/1
f 1039/3/2 1037/3/2 1040/3/2
f 1037/3/2 1039/3/2 1035/3/2
f 1039/3/3 1040/3/3 1041/3/3
f 1041/3/3 1042/3/3 1039/3/3
f 1042/3/4 1041/3/4 1036/3/4
f 1036/3/4 1038/3/4 1042/3/4
f 1041/3/5 1037/3/5 1036/3/5
f 1037/3/5 1041/3/5 1040/3/5
f 1035/3/6 1039/3/6 1042/3/6
f 1042/3/6 1038/3/6 1035/3/6
f 1043/3/1 1044/3/1 1045/3/1
f 1044/3/1 1043/3/1 1046/3/1
f 1047/3/2 1045/3/2 1048/3/2
f 1045/3/2 1047/3/2 1043/3/2
f 1047/3/3 1048/3/3 1049/3/3
f 1049/3/3 1050/3/3 1047/3/3
f 1050/3/4 1049/3/4 1044/3/4
f 1044/3/4 1046/3/4 1050/3/4
f 1049/3/5 1045/3/5 1044/3/5
f 1045/3/5 1049/3/5 1048/3/5
f 1043/3/6 1047/3/6 1050/3/6
f 1050/3/6 1046/3/6 1043/3/6
f 1051/3/1 1052/3/1 1053/3/1
f 1052/3/1 1051/3/1 1054/3/1
f 1055/3/2 1053/3/2 1056/3/2
f 1053/3/2 1055/3/2 1051/3/2
f 1055/3/3 1056/3/3 1057/3/3
f 1057/3/3 1058/3/3 1055/3/3
f 1058/3/4 1057/3/4 1052/3/4
f 1052/3/4 1054/3/4 1058/3/4
f 1057/3/5 1053/3/5 1052/3/5
f 1053/3/5 1057/3/5 1056/3/5
f 1051/3/6 1055/3/6 1058/3/6
f 1058/3/6 1054/3/6 1051/3/6
f 1059/3/1 1060/3/1 1061/3/1
f 1060/3/1 1059/3/1 1062/3/1
f 1063/3/2 1061/3/2 1064/3/2
f 1061/3/2 1063/3/2 1059/3/2
f 1063/3/3 1064/3/3 1065/3/3
f 1065/3/3 1066/3/3 1063/3/3
f 1066/3/4 1065/3/4 1060/3/4
f 1060/3/4 1062/3/4 1066/3/4
f 1065/3/5 1061/3/5 1060/3/5
f 1061/3/5 1065/3/5 1064/3/5
f 1059/3/6 1063/3/6 1066/3/6
f 1066/3/6 1062/3/6 1059/3/6
f 1067/3/1 1068/3/1 1069/3/1
f 1068/3/1 1067/3/1 1070/3/1
f 1071/3/2 1069/3/2 1072/3/2
f 1069/3/2 1071/3/2 1067/3/2
f 1071/3/3 1072/3/3 1073/3/3
f 1073/3/3 1074/3/3 1071/3/3
f 1074/3/4 1073/3/4 1068/3/4
f 1068/3/4 1070/3/4 1074/3/4
f 1073/3/5 1069/3/5 1068/3/5
f 1069/3/5 1073/3/5 1072/3/5
f 1067/3/6 1071/3/6 1074/3/6
f 1074/3/6 1070/3/6 1067/3/6
f 1075/3/1 1076/3/1 1077/3/1
f 1076/3/1 1075/3/1 1078/3/1
f 1079/3/2 1077/3/2 1080/3/2
f 1077/3/2 1079/3/2 1075/3/2
f 1079/3/3 1080/3/3 1081/3/3
f 1081/3/3 1082/3/3 1079/3/3
f 1082/3/4 1081/3/4 1076/3/4
f 1076/3/4 1078/3/4 1082/3/4
f 1081/3/5 1077/3/5 1076/3/5
f 1077/3/5 1081/3/5 1080/3/5
f 1075/3/6 1079/3/6 1082/3/6
f 1082/3/6 1078/3/6 1075/3/6
f 1083/3/1 1084/3/1 1085/3/1
f 1084/3/1 1083/3/1 1086/3/1
f 1087/3/2 1085/3/2 1088/3/2
f 1085/3/2 1087/3/2 1083/3/2
f 1087/3/3 1088/3/3 1089/3/3
f 1089/3/3 1090/3/3 1087/3/3
f 1090/3/4 1089/3/4 1084/3/4
f 1084/3/4 1086/3/4 1090/3/4
f 1089/3/5 1085/3/5 1084/3/5
f 1085/3/5 1089/3/5 1088/3/5
f 1083/3/6 1087/3/6 1090/3/6
f 1090/3/6 1086/3/6 1083/3/6
f 1091/3/1 1092/3/1 1093/3/1
f 1092/3/1 1091/3/1 1094/3/1
f 1095/3/2 1093/3/2 1096/3/2
f 1093/3/2 1095/3/2 1091/3/2
f 1095/3/3 1096/3/3 1097/3/3
f 1097/3/3 1098/3/3 1095/3/3
f 1098/3/4 1097/3/4 1092/3/4
f 1092/3/4 1094/3/4 1098/3/4
f 1097/3/5 1093/3/5 1092/3/5
f 1093/3/5 1097/3/5 1096/3/5
f 1091/3/6 1095/3/6 1098/3/6
f 1098/3/6 1094/3/6 1091/3/6
f 1099/3/1 1100/3/1 1101/3/1
f 1100/3/1 1099/3/1 1102/3/1
f 1103/3/2 1101/3/2 1104/3/2
f 1101/3/2 1103/3/2 1099/3/2
f 1103/3/3 1104/3/3 1105/3/3
f 1105/3/3 1106/3/3 1103/3/3
f 1106/3/4 1105/3/4 1100/3/4
f 1100/3/4 1102/3/4 1106/3/4
f 1105/3/5 1101/3/5 1100/3/5
f 1101/3/5 1105/3/5 1104/3/5
f 1099/3/6 1103/3/6 1106/3/6
f 1106/3/6 1102/3/6 1099/3/6
f 1107/3/1 1108/3/1 1109/3/1
f 1108/3/1 1107/3/1 1110/3/1
f 1111/3/2 1109/3/2 1112/3/2
f 1109/3/2 1111/3/2 1107/3/2
f 1111/3/3 1112/3/3 1113/3/3
f 1113/3/3 1114/3/3 1111/3/3
f 1114/3/4 1113/3/4 1108/3/4
f 1108/3/4 1110/3/4 1114/3/4
f 1113/3/5 1109/3/5 1108/3/5
f 1109/3/5 1113/3/5 1112/3/5
f 1107/3/6 1111/3/6 1114/3/6
f 1114/3/6 1110/3/6 1107/3/6
f 1115/3/1 1116/3/1 1117/3/1
f 1116/3/1 1115/3/1 1118/3/1
f 1119/3/2 1117/3/2 1120/3/2
f 1117/3/2 1119/3/2 1115/3/2
f 1119/3/3 1120/3/3 1121/3/3
f 1121/3/3 1122/3/3 1119/3/3
f 1122/3/4 1121/3/4 1116/3/4
f 1116/3/4 1118/3/4 1122/3/4
f 1121/3/5 1117/3/5 1116/3/5
f 1117/3/5 1121/3/5 1120/3/5
f 1115/3/6 1119/3/6 1122/3/6
f 1122/3/6 1118/3/6 1115/3/6
f 1123/3/1 1124/3/1 1125/3/1
f 1124/3/1 1123/3/1 1126/3/1
f 1127/3/2 1125/3/2 1128/3/2
f 1125/3/2 1127/3/2 1123/3/2
f 1127/3/3 1128/3/3 1129/3/3
f 1129/3/3 1130/3/3 1127/3/3
f 1130/3/4 1129/3/4 1124/3/4
f 1124/3/4 1126/3/4 1130/3/4
f 1129/3/5 1125/3/5 1124/3/5
f 1125/3/5 1129/3/5 1128/3/5
f 1123/3/6 1127/3/6 1130/3/6
f 1130/3/6 1126/3/6 1123/3/6
f 1131/3/1 1132/3/1 1133/3/1
f 1132/3/1 1131/3/1 1134/3/1
f 1135/3/2 1133/3/2 1136/3/2
f 1133/3/2 1135/3/2 1131/3/2
f 1135/3/3 1136/3/3 1137/3/3
f 1137/3/3 1138/3/3 1135/3/3
f 1138/3/4 1137/3/4 1132/3/4
f 1132/3/4 1134/3/4 1138/3/4
f 1137/3/5 1133/3/5 1132/3/5
f 1133/3/5 1137/3/5 1136/3/5
f 1131/3/6 1135/3/6 1138/3/6
f 1138/3/6 1134/3/6 1131/3/6
f 1139/3/1 1140/3/1 1141/3/1
f 1140/3/1 1139/3/1 1142/3/1
f 1143/3/2 1141/3/2 1144/3/2
f 1141/3/2 1143/3/2 1139/3/2
f 1143/3/3 1144/3/3 1145/3/3
f 1145/3/3 1146/3/3 1143/3/3
f 1146/3/4 1145/3/4 1140/3/4
f 1140/3/4 1142/3/4 1146/3/4
f 1145/3/5 1141/3/5 1140/3/5
f 1141/3/5 1145/3/5 1144/3/5
f 1139/3/6 1143/3/6 1146/3/6
f 1146/3/6 1142/3/6 1139/3/6
f 1147/3/1 1148/3/1 1149/3/1
f 1148/3/1 1147/3/1 1150/3/1
f 1151/3/2 1149/3/2 1152/3/2
f 1149/3/2 1151/3/2 1147/3/2
f 1151/3/3 1152/3/3 1153/3/3
f 1153/3/3 1154/3/3 1151/3/3
f 1154/3/4 1153/3/4 1148/3/4
f 1148/3/4 1150/3/4 1154/3/4
f 1153/3/5 1149/3/5 1148/3/5
f 1149/3/5 1153/3/5 1152/3/5
f 1147/3/6 1151/3/6 1154/3/6
f 1154/3/6 1150/3/6 1147/3/6
f 1155/3/1 1156/3/1 1157/3/1
f 1156/3/1 1155/3/1 1158/3/1
f 1159/3/2 1157/3/2 1160/3/2
f 1157/3/2 1159/3/2 1155/3/2
f 1159/3/3 1160/3/3 1161/3/3
f 1161/3/3 1162/3/3 1159/3/3
f 1162/3/4 1161/3/4 1156/3/4
f 1156/3/4 1158/3/4 1162/3/4
f 1161/3/5 1157/3/5 1156/3/5
f 1157/3/5 1161/3/5 1160/3/5
f 1155/3/6 1159/3/6 1162/3/6
f 1162/3/6 1158/3/6 1155/3/6
f 1163/3/1 1164/3/1 1165/3/1
f 1164/3/1 1163/3/1 1166/3/1
f 1167/3/2 1165/3/2 1168/3/2
f 1165/3/2 1167/3/2 1163/3/2
f 1167/3/3 1168/3/3 1169/3/3
f 1169/3/3 1170/3/3 1167/3/3
f 1170/3/4 1169/3/4 1164/3/4
f 1164/3/4 1166/3/4 1170/3/4
f 1169/3/5 1165/3/5 1164/3/5
f 1165/3/5 1169/3/5 1168/3/5
f 1163/3/6 1167/3/6 1170/3/6
f 1170/3/6 1166/3/6 1163/3/6
f 1171/3/1 1172/3/1 1173/3/1
f 1172/3/1 1171/3/1 1174/3/1
f 1175/3/2 1173/3/2 1176/3/2
f 1173/3/2 1175/3/2 1171/3/2
f 1175/3/3 1176/3/3 1177/3/3
f 1177/3/3 1178/3/3 1175/3/3
f 1178/3/4 1177/3/4 1172/3/4
f 1172/3/4 1174/3/4 1178/3/4
f 1177/3/5 1173/3/5 1172/3/5
f 1173/3/5 1177/3/5 1176/3/5
f 1171/3/6 1175/3/6 1178/3/6
f 1178/3/6 1174/3/6 1171/3/6
f 1179/3/1 1180/3/1 1181/3/1
f 1180/3/1 1179/3/1 1182/3/1
f 1183/3/2 1181/3/2 1184/3/2
f 1181/3/2 1183/3/2 1179/3/2
f 1183/3/3 1184/3/3 1185/3/3
f 1185/3/3 1186/3/3 1183/3/3
f 1186/3/4 1185/3/4 1180/3/4
f 1180/3/4 1182/3/4 1186/3/4
f 1185/3/5 1181/3/5 1180/3/5
f 1181/3/5 1185/3/5 1184/3/5
f 1179/3/6 1183/3/6 1186/3/6
f 1186/3/6 1182/3/6 1179/3/6
f 320/1/40 316/1/40 1187/1/40
f 1187/1/40 1188/1/40 320/1/40
f 1187/1/3 1189/1/3 1190/1/3
f 1190/1/3 1191/1/3 1187/1/3
f 1189/1/41 319/1/41 1192/1/41
f 319/1/41 1189/1/41 315/1/41
f 316/1/42 315/1/42 1189/1/42
f 1189/1/42 1187/1/42 316/1/42
f 1192/1/43 320/1/43 1188/1/43
f 320/1/43 1192/1/43 319/1/43
f 1193/1/44 1191/1/44 1194/1/44
f 1194/1/44 1195/1/44 1193/1/44
f 1196/1/1 1188/1/1 1193/1/1
f 1188/1/1 1196/1/1 1192/1/1
f 1188/1/4 1187/1/4 1191/1/4
f 1191/1/4 1193/1/4 1188/1/4
f 1190/1/2 1192/1/2 1196/1/2
f 1192/1/2 1190/1/2 1189/1/2
f 1194/1/5 1197/1/5 1195/1/5
f 1197/1/5 1194/1/5 1198/1/5
f 1198/1/45 1196/1/45 1197/1/45
f 1196/1/45 1198/1/45 1190/1/45
f 1191/1/46 1190/1/46 1198/1/46
f 1198/1/46 1194/1/46 1191/1/46
f 1197/1/47 1193/1/47 1195/1/47
f 1193/1/47 1197/1/47 1196/1/47
f 336/1/40 332/1/40 1199/1/40
f 1199/1/40 1200/1/40 336/1/40
f 1199/1/3 1201/1/3 1202/1/3
f 1202/1/3 1203/1/3 1199/1/3
f 1201/1/48 335/1/48 1204/1/48
f 335/1/48 1201/1/48 331/1/48
f 332/1/42 331/1/42 1201/1/42
f 1201/1/42 1199/1/42 332/1/42
f 1204/1/43 336/1/43 1200/1/43
f 336/1/43 1204/1/43 335/1/43
f 1205/1/44 1203/1/44 1206/1/44
f 1206/1/44 1207/1/44 1205/1/44
f 1208/1/1 1200/1/1 1205/1/1
f 1200/1/1 1208/1/1 1204/1/1
f 1200/1/4 1199/1/4 1203/1/4
f 1203/1/4 1205/1/4 1200/1/4
f 1202/1/2 1204/1/2 1208/1/2
f 1204/1/2 1202/1/2 1201/1/2
f 1206/1/5 1209/1/5 1207/1/5
f 1209/1/5 1206/1/5 1210/1/5
f 1210/1/45 1208/1/45 1209/1/45
f 1208/1/45 1210/1/45 1202/1/45
f 1203/1/46 1202/1/46 1210/1/46
f 1210/1/46 1206/1/46 1203/1/46
f 1209/1/47 1205/1/47 1207/1/47
f 1205/1/47 1209/1/47 1208/1/47
f 1211/1/48 348/1/48 352/1/48
f 348/1/48 1211/1/48 1212/1/48
f 1213/1/3 1214/1/3 1212/1/3
f 1212/1/3 1215/1/3 1213/1/3
f 1216/1/49 351/1/49 347/1/49
f 347/1/49 1214/1/49 1216/1/49
f 1214/1/50 347/1/50 348/1/50
f 348/1/50 1212/1/50 1214/1/50
f 1216/1/43 352/1/43 351/1/43
f 352/1/43 1216/1/43 1211/1/43
f 1217/1/45 1215/1/45 1218/1/45
f 1215/1/45 1217/1/45 1219/1/45
f 1220/1/1 1211/1/1 1216/1/1
f 1211/1/1 1220/1/1 1218/1/1
f 1218/1/2 1212/1/2 1211/1/2
f 1212/1/2 1218/1/2 1215/1/2
f 1220/1/4 1216/1/4 1214/1/4
f 1214/1/4 1213/1/4 1220/1/4
f 1219/1/5 1221/1/5 1222/1/5
f 1221/1/5 1219/1/5 1217/1/5
f 1221/1/44 1220/1/44 1213/1/44
f 1213/1/44 1222/1/44 1221/1/44
f 1222/1/46 1213/1/46 1215/1/46
f 1215/1/46 1219/1/46 1222/1/46
f 1221/1/47 1218/1/47 1220/1/47
f 1218/1/47 1221/1/47 1217/1/47
f 1223/1/1 1224/1/1 1225/1/1
f 1224/1/1 1223/1/1 1226/1/1
f 1223/1/51 1225/1/51 1227/1/51
f 1227/1/51 1228/1/51 1223/1/51
f 1228/1/3 1227/1/3 1229/1/3
f 1229/1/3 1230/1/3 1228/1/3
f 1226/1/52 1229/1/52 1224/1/52
f 1229/1/52 1226/1/52 1230/1/52
f 1229/1/53 1225/1/53 1224/1/53
f 1225/1/53 1229/1/53 1227/1/53
f 1226/1/54 1228/1/54 1230/1/54
f 1228/1/54 1226/1/54 1223/1/54
f 478/4/6 482/4/6 1231/4/6
f 1231/4/6 1232/4/6 478/4/6
f 476/4/6 1231/4/6 482/4/6
f 482/4/6 479/4/6 476/4/6
f 1233/4/6 469/4/6 470/4/6
f 470/4/6 1232/4/6 1233/4/6
f 477/4/6 1233/4/6 1232/4/6
f 1232/4/6 475/4/6 477/4/6
f 1232/4/6 470/4/6 478/4/6
f 472/4/6 1234/4/6 1233/4/6
f 1233/4/6 477/4/6 472/4/6
f 1234/4/6 474/4/6 469/4/6
f 469/4/6 1233/4/6 1234/4/6
f 475/4/6 1232/4/6 1231/4/6
f 1231/4/6 476/4/6 475/4/6
f 480/4/6 473/4/6 474/4/6
f 474/4/6 1234/4/6 480/4/6
f 471/4/6 480/4/6 1234/4/6
f 1234/4/6 472/4/6 471/4/6
