# Generated by tools/make-block-meshes.py -- edit that, not this.
# Harp by Poly by Google, CC-BY 3.0, from https://poly.pizza/m/102E7hcxEPT
v -0.20752 0.00252 0.66068
v -0.21969 -0.00126 0.65943
v -0.21969 0.00252 0.65944
v -0.20752 -0.00126 0.66068
v -0.21158 0.00080 0.68710
v -0.22042 0.00080 0.66659
v -0.22107 0.00080 0.68613
v -0.20825 0.00080 0.66784
v -0.21231 0.00252 0.69426
v -0.22181 0.00252 0.69329
v -0.22181 -0.00126 0.69329
v -0.21231 -0.00126 0.69426
v -0.20825 0.00252 0.66784
v -0.22042 0.00252 0.66659
v -0.22107 0.00252 0.68613
v -0.21158 0.00252 0.68710
v -0.17901 0.00252 0.65658
v -0.19118 -0.00126 0.65533
v -0.19118 0.00252 0.65533
v -0.17901 -0.00126 0.65658
v -0.18293 0.00080 0.68301
v -0.19191 0.00080 0.66249
v -0.19270 0.00080 0.68201
v -0.17975 0.00080 0.66374
v -0.18366 0.00252 0.69017
v -0.19344 0.00252 0.68917
v -0.19344 -0.00126 0.68917
v -0.18366 -0.00126 0.69017
v -0.17975 0.00252 0.66374
v -0.19191 0.00252 0.66249
v -0.19270 0.00252 0.68201
v -0.18293 0.00252 0.68301
v -0.15098 0.00252 0.64264
v -0.16315 -0.00126 0.64139
v -0.16315 0.00252 0.64139
v -0.15098 -0.00126 0.64263
v -0.15517 0.00080 0.66904
v -0.16388 0.00080 0.64854
v -0.16440 0.00080 0.66810
v -0.15171 0.00080 0.64979
v -0.15590 0.00252 0.67620
v -0.16513 0.00252 0.67525
v -0.16513 -0.00126 0.67525
v -0.15590 -0.00126 0.67620
v -0.15171 0.00252 0.64979
v -0.16388 0.00252 0.64854
v -0.16440 0.00252 0.66810
v -0.15517 0.00252 0.66904
v -0.11889 0.00252 0.62459
v -0.13106 -0.00126 0.62334
v -0.13106 0.00252 0.62334
v -0.11889 -0.00126 0.62459
v -0.12263 0.00080 0.65104
v -0.13180 0.00080 0.63050
v -0.13277 0.00080 0.65000
v -0.11963 0.00080 0.63174
v -0.12337 0.00252 0.65820
v -0.13350 0.00252 0.65716
v -0.13350 -0.00126 0.65716
v -0.12337 -0.00126 0.65820
v -0.11963 0.00252 0.63174
v -0.13180 0.00252 0.63050
v -0.13277 0.00252 0.65000
v -0.12263 0.00252 0.65104
v -0.08485 0.00252 0.56746
v -0.09702 -0.00126 0.56622
v -0.09702 0.00252 0.56622
v -0.08485 -0.00126 0.56746
v -0.08868 0.00080 0.59391
v -0.09775 0.00080 0.57337
v -0.09862 0.00080 0.59289
v -0.08558 0.00080 0.57462
v -0.08941 0.00252 0.60106
v -0.09936 0.00252 0.60004
v -0.09936 -0.00126 0.60004
v -0.08941 -0.00126 0.60106
v -0.08558 0.00252 0.57462
v -0.09775 0.00252 0.57337
v -0.09862 0.00252 0.59289
v -0.08868 0.00252 0.59391
v -0.04707 0.00252 0.50173
v -0.05924 -0.00126 0.50049
v -0.05924 0.00252 0.50049
v -0.04707 -0.00126 0.50173
v -0.05106 0.00080 0.52816
v -0.05997 0.00080 0.50764
v -0.06068 0.00080 0.52717
v -0.04780 0.00080 0.50889
v -0.05179 0.00252 0.53531
v -0.06142 0.00252 0.53433
v -0.06142 -0.00126 0.53433
v -0.05179 -0.00126 0.53531
v -0.04780 0.00252 0.50889
v -0.05997 0.00252 0.50764
v -0.06068 0.00252 0.52717
v -0.05106 0.00252 0.52816
v -0.00938 0.00252 0.43645
v -0.02155 -0.00126 0.43520
v -0.02155 0.00252 0.43520
v -0.00938 -0.00126 0.43645
v -0.01321 0.00080 0.46289
v -0.02228 0.00080 0.44236
v -0.02316 0.00080 0.46187
v -0.01011 0.00080 0.44360
v -0.01395 0.00252 0.47005
v -0.02389 0.00252 0.46903
v -0.02389 -0.00126 0.46903
v -0.01395 -0.00126 0.47005
v -0.01011 0.00252 0.44360
v -0.02228 0.00252 0.44236
v -0.02316 0.00252 0.46187
v -0.01321 0.00252 0.46289
v 0.02820 0.00252 0.36014
v 0.01643 -0.00126 0.35893
v 0.01643 0.00252 0.35893
v 0.02820 -0.00126 0.36014
v 0.02441 0.00080 0.38659
v 0.01569 0.00080 0.36609
v 0.01478 0.00080 0.38560
v 0.02747 0.00080 0.36730
v 0.02367 0.00252 0.39374
v 0.01405 0.00252 0.39276
v 0.01405 -0.00126 0.39276
v 0.02367 -0.00126 0.39374
v 0.02747 0.00252 0.36730
v 0.01569 0.00252 0.36609
v 0.01478 0.00252 0.38560
v 0.02441 0.00252 0.38659
v 0.06121 0.00252 0.33915
v 0.05120 -0.00126 0.33812
v 0.05120 0.00252 0.33812
v 0.06121 -0.00126 0.33915
v 0.05837 0.00080 0.35932
v 0.05064 0.00080 0.34358
v 0.04988 0.00080 0.35845
v 0.06065 0.00080 0.34461
v 0.05782 0.00252 0.36478
v 0.04933 0.00252 0.36391
v 0.04933 -0.00126 0.36391
v 0.05782 -0.00126 0.36478
v 0.06065 0.00252 0.34461
v 0.05064 0.00252 0.34358
v 0.04988 0.00252 0.35845
v 0.05837 0.00252 0.35932
v 0.09561 0.00252 0.32742
v 0.08560 -0.00126 0.32639
v 0.08560 0.00252 0.32639
v 0.09561 -0.00126 0.32742
v 0.09275 0.00080 0.34759
v 0.08505 0.00080 0.33185
v 0.08431 0.00080 0.34673
v 0.09505 0.00080 0.33288
v 0.09219 0.00252 0.35305
v 0.08376 0.00252 0.35218
v 0.08376 -0.00126 0.35218
v 0.09219 -0.00126 0.35305
v 0.09505 0.00252 0.33288
v 0.08505 0.00252 0.33185
v 0.08431 0.00252 0.34673
v 0.09275 0.00252 0.34759
v 0.12610 0.00252 0.32468
v 0.11609 -0.00126 0.32366
v 0.11609 0.00252 0.32366
v 0.12610 -0.00126 0.32468
v 0.12323 0.00080 0.34485
v 0.11553 0.00080 0.32911
v 0.11481 0.00080 0.34399
v 0.12554 0.00080 0.33014
v 0.12268 0.00252 0.35031
v 0.11425 0.00252 0.34945
v 0.11425 -0.00126 0.34945
v 0.12267 -0.00126 0.35031
v 0.12554 0.00252 0.33014
v 0.11553 0.00252 0.32911
v 0.11481 0.00252 0.34399
v 0.12323 0.00252 0.34485
v 0.15277 0.00286 0.32429
v 0.14276 -0.00093 0.32326
v 0.14276 0.00286 0.32326
v 0.15277 -0.00093 0.32429
v 0.14940 0.00113 0.34441
v 0.14220 0.00113 0.32872
v 0.14198 0.00113 0.34365
v 0.15221 0.00113 0.32975
v 0.14884 0.00286 0.34986
v 0.14142 0.00286 0.34910
v 0.14142 -0.00093 0.34910
v 0.14884 -0.00093 0.34986
v 0.15221 0.00286 0.32975
v 0.14220 0.00286 0.32872
v 0.14198 0.00286 0.34365
v 0.14940 0.00286 0.34441
v 0.18303 0.00286 0.33745
v 0.17302 -0.00093 0.33642
v 0.17302 0.00286 0.33642
v 0.18303 -0.00093 0.33745
v 0.17960 0.00113 0.35756
v 0.17246 0.00113 0.34188
v 0.17230 0.00113 0.35681
v 0.18247 0.00113 0.34290
v 0.17904 0.00286 0.36301
v 0.17174 0.00286 0.36227
v 0.17174 -0.00093 0.36227
v 0.17904 -0.00093 0.36301
v 0.18247 0.00286 0.34290
v 0.17246 0.00286 0.34188
v 0.17230 0.00286 0.35681
v 0.17960 0.00286 0.35756
v 0.21088 0.00286 0.35618
v 0.20087 -0.00093 0.35516
v 0.20087 0.00286 0.35516
v 0.21088 -0.00093 0.35618
v 0.20756 0.00113 0.37631
v 0.20031 0.00113 0.36061
v 0.20003 0.00113 0.37553
v 0.21032 0.00113 0.36164
v 0.20701 0.00286 0.38176
v 0.19947 0.00286 0.38099
v 0.19947 -0.00093 0.38099
v 0.20701 -0.00093 0.38176
v 0.21032 0.00286 0.36164
v 0.20031 0.00286 0.36061
v 0.20003 0.00286 0.37553
v 0.20756 0.00286 0.37631
v 0.09494 0.00000 -0.70447
v 0.03112 0.11420 -0.70447
v -0.09272 0.00000 -0.70447
v -0.16635 0.12447 -0.70447
v -0.11344 0.13912 -0.70447
v 0.09494 0.00000 -0.71479
v 0.03112 0.11420 -0.71479
v -0.20684 0.08481 -0.71479
v -0.24907 0.06513 -0.70447
v -0.20684 0.08481 -0.70447
v -0.24907 0.06513 -0.71479
v -0.27427 0.02947 -0.71479
v -0.27427 0.02947 -0.70447
v -0.11339 0.13881 -0.71479
v -0.16635 0.12447 -0.71479
v 0.02596 0.10586 -0.71683
v 0.08419 0.00000 -0.71683
v -0.24301 0.05627 -0.71683
v -0.20132 0.07570 -0.71683
v -0.26482 0.02541 -0.71683
v -0.11169 0.12877 -0.71683
v -0.16066 0.11553 -0.71683
v 0.08419 0.00000 -0.75966
v 0.02596 0.10586 -0.75966
v -0.20132 0.07570 -0.75966
v -0.24301 0.05627 -0.75966
v -0.26482 0.02541 -0.75966
v -0.16066 0.11553 -0.75966
v 0.09494 0.00000 -0.77202
v -0.09272 0.00000 -0.77202
v 0.03112 0.11420 -0.77202
v -0.11344 0.13912 -0.77202
v -0.16635 0.12447 -0.77202
v 0.09494 0.00000 -0.76170
v 0.03112 0.11420 -0.76170
v -0.20684 0.08481 -0.76170
v -0.24907 0.06513 -0.77202
v -0.24907 0.06513 -0.76170
v -0.20684 0.08481 -0.77202
v -0.27427 0.02947 -0.77202
v -0.27427 0.02947 -0.76170
v -0.11339 0.13881 -0.76170
v -0.16635 0.12447 -0.76170
v -0.11169 0.12877 -0.75966
v -0.24907 -0.06513 -0.70447
v -0.20684 -0.08481 -0.70447
v -0.27427 -0.02947 -0.70447
v -0.27427 -0.02947 -0.71479
v -0.26482 -0.02541 -0.71683
v -0.26482 -0.02541 -0.75966
v -0.27427 -0.02947 -0.76170
v -0.27427 -0.02947 -0.77202
v -0.24907 -0.06513 -0.77202
v -0.20684 -0.08481 -0.77202
v 0.03112 -0.11420 -0.70447
v -0.16635 -0.12447 -0.70447
v -0.11344 -0.13912 -0.70447
v 0.03112 -0.11420 -0.71479
v -0.24907 -0.06513 -0.71479
v -0.20684 -0.08481 -0.71479
v -0.16635 -0.12447 -0.71479
v -0.11339 -0.13881 -0.71479
v 0.02596 -0.10586 -0.71683
v -0.24301 -0.05627 -0.71683
v -0.20132 -0.07570 -0.71683
v -0.11169 -0.12877 -0.71683
v -0.16066 -0.11553 -0.71683
v 0.02596 -0.10586 -0.75966
v -0.24301 -0.05627 -0.75966
v -0.20132 -0.07570 -0.75966
v -0.16066 -0.11553 -0.75966
v 0.03112 -0.11420 -0.77202
v -0.11344 -0.13912 -0.77202
v -0.16635 -0.12447 -0.77202
v 0.03112 -0.11420 -0.76170
v -0.24907 -0.06513 -0.76170
v -0.20684 -0.08481 -0.76170
v -0.16635 -0.12447 -0.76170
v -0.11339 -0.13881 -0.76170
v -0.11169 -0.12877 -0.75966
v -0.21664 0.00161 0.71913
v -0.09475 0.00161 -0.67501
v -0.22206 0.00161 0.71872
v -0.08933 0.00161 -0.67460
v -0.22206 -0.00216 0.71872
v -0.09475 -0.00216 -0.67501
v -0.08933 -0.00216 -0.67460
v -0.21664 -0.00216 0.71913
v -0.21225 -0.00216 0.75308
v -0.20684 -0.00216 0.75349
v -0.20684 0.00161 0.75349
v -0.21225 0.00161 0.75308
v -0.18748 0.00161 0.71244
v -0.07133 0.00161 -0.60557
v -0.19290 0.00161 0.71203
v -0.06591 0.00161 -0.60516
v -0.19290 -0.00216 0.71203
v -0.07133 -0.00216 -0.60557
v -0.06591 -0.00216 -0.60516
v -0.18748 -0.00216 0.71244
v -0.18309 -0.00216 0.74639
v -0.17768 -0.00216 0.74680
v -0.17768 0.00161 0.74680
v -0.18309 0.00161 0.74639
v -0.15939 0.00161 0.69638
v -0.04973 0.00161 -0.53541
v -0.16480 0.00161 0.69597
v -0.04432 0.00161 -0.53500
v -0.16480 -0.00216 0.69597
v -0.04973 -0.00216 -0.53541
v -0.04432 -0.00216 -0.53500
v -0.15939 -0.00216 0.69638
v -0.15500 -0.00216 0.73034
v -0.14958 -0.00216 0.73075
v -0.14958 0.00161 0.73075
v -0.15500 0.00161 0.73034
v -0.12671 0.00161 0.67337
v -0.02364 0.00161 -0.47107
v -0.13213 0.00161 0.67297
v -0.01823 0.00161 -0.47066
v -0.13213 -0.00216 0.67297
v -0.02364 -0.00216 -0.47107
v -0.01823 -0.00216 -0.47066
v -0.12671 -0.00216 0.67337
v -0.12558 -0.00216 0.70828
v -0.12017 -0.00216 0.70869
v -0.12017 0.00161 0.70869
v -0.12558 0.00161 0.70828
v -0.09359 0.00161 0.62822
v 0.00052 0.00161 -0.39748
v -0.09901 0.00161 0.62782
v 0.00594 0.00161 -0.39707
v -0.09901 -0.00216 0.62782
v 0.00052 -0.00216 -0.39748
v 0.00594 -0.00216 -0.39707
v -0.09359 -0.00216 0.62822
v -0.09488 -0.00216 0.66450
v -0.08946 -0.00216 0.66491
v -0.08946 0.00161 0.66491
v -0.09488 0.00161 0.66450
v -0.05616 0.00161 0.56382
v 0.02802 0.00161 -0.33006
v -0.06157 0.00161 0.56341
v 0.03343 0.00161 -0.32965
v -0.06157 -0.00216 0.56341
v 0.02802 -0.00216 -0.33006
v 0.03343 -0.00216 -0.32965
v -0.05616 -0.00216 0.56382
v -0.06005 -0.00216 0.60713
v -0.05464 -0.00216 0.60753
v -0.05464 0.00161 0.60753
v -0.06005 0.00161 0.60713
v -0.01728 0.00161 0.48024
v 0.05565 0.00161 -0.26448
v -0.02269 0.00161 0.47983
v 0.06106 0.00161 -0.26407
v -0.02269 -0.00216 0.47983
v 0.05565 -0.00216 -0.26448
v 0.06106 -0.00216 -0.26407
v -0.01728 -0.00216 0.48024
v -0.02239 -0.00216 0.50790
v -0.01698 -0.00216 0.50831
v -0.01698 0.00161 0.50831
v -0.02239 0.00161 0.50790
v 0.02212 0.00161 0.38972
v 0.08262 0.00161 -0.19003
v 0.01671 0.00161 0.38931
v 0.08803 0.00161 -0.18963
v 0.01671 -0.00216 0.38931
v 0.08262 -0.00216 -0.19003
v 0.08803 -0.00216 -0.18963
v 0.02212 -0.00216 0.38972
v 0.01733 -0.00216 0.42378
v 0.02274 -0.00216 0.42419
v 0.02274 0.00161 0.42419
v 0.01733 0.00161 0.42378
v 0.05746 0.00161 0.35312
v 0.10942 0.00161 -0.12447
v 0.05205 0.00161 0.35271
v 0.11484 0.00161 -0.12406
v 0.05205 -0.00216 0.35271
v 0.10942 -0.00216 -0.12447
v 0.11484 -0.00216 -0.12406
v 0.05746 -0.00216 0.35312
v 0.05178 -0.00216 0.38792
v 0.05719 -0.00216 0.38832
v 0.05719 0.00161 0.38832
v 0.05178 0.00161 0.38792
v 0.09140 0.00161 0.33508
v 0.13272 0.00161 -0.06663
v 0.08599 0.00161 0.33467
v 0.13814 0.00161 -0.06622
v 0.08599 -0.00216 0.33467
v 0.13272 -0.00216 -0.06663
v 0.13814 -0.00216 -0.06622
v 0.09140 -0.00216 0.33508
v 0.08635 -0.00216 0.36873
v 0.09176 -0.00216 0.36913
v 0.09176 0.00161 0.36913
v 0.08635 0.00161 0.36873
v 0.12304 0.00161 0.33042
v 0.15457 0.00161 -0.00264
v 0.11763 0.00161 0.33001
v 0.15999 0.00161 -0.00223
v 0.11763 -0.00216 0.33001
v 0.15457 -0.00216 -0.00264
v 0.15999 -0.00216 -0.00223
v 0.12304 -0.00216 0.33042
v 0.11605 -0.00216 0.36383
v 0.12146 -0.00216 0.36424
v 0.12146 0.00161 0.36424
v 0.11605 0.00161 0.36383
v 0.14956 0.00161 0.33199
v 0.17663 0.00161 0.06084
v 0.14414 0.00161 0.33159
v 0.18204 0.00161 0.06125
v 0.14414 -0.00216 0.33159
v 0.17663 -0.00216 0.06084
v 0.18204 -0.00216 0.06125
v 0.14956 -0.00216 0.33199
v 0.14250 -0.00216 0.36478
v 0.14792 -0.00216 0.36519
v 0.14792 0.00161 0.36519
v 0.14250 0.00161 0.36478
v 0.18033 0.00161 0.34755
v 0.19939 0.00161 0.11557
v 0.17492 0.00161 0.34714
v 0.20480 0.00161 0.11598
v 0.17492 -0.00216 0.34714
v 0.19939 -0.00216 0.11557
v 0.20480 -0.00216 0.11598
v 0.18033 -0.00216 0.34755
v 0.17235 -0.00216 0.37872
v 0.17776 -0.00216 0.37913
v 0.17776 0.00161 0.37913
v 0.17235 0.00161 0.37872
v 0.20762 0.00161 0.36276
v 0.22285 0.00161 0.17712
v 0.20220 0.00161 0.36235
v 0.22826 0.00161 0.17753
v 0.20220 -0.00216 0.36235
v 0.22285 -0.00216 0.17712
v 0.22826 -0.00216 0.17753
v 0.20762 -0.00216 0.36276
v 0.20072 -0.00216 0.39456
v 0.20613 -0.00216 0.39497
v 0.20613 0.00161 0.39497
v 0.20072 0.00161 0.39456
v 0.23518 0.00161 0.38304
v 0.24482 0.00161 0.23356
v 0.22976 0.00161 0.38263
v 0.25023 0.00161 0.23397
v 0.22976 -0.00216 0.38263
v 0.24482 -0.00216 0.23356
v 0.25023 -0.00216 0.23397
v 0.23518 -0.00216 0.38304
v 0.22753 -0.00216 0.40897
v 0.23294 -0.00216 0.40938
v 0.23294 0.00161 0.40938
v 0.22753 0.00161 0.40897
v 0.25835 0.00161 0.39097
v 0.26501 0.00161 0.27329
v 0.25294 0.00161 0.39056
v 0.27043 0.00161 0.27369
v 0.25294 -0.00216 0.39056
v 0.26501 -0.00216 0.27329
v 0.27043 -0.00216 0.27369
v 0.25835 -0.00216 0.39097
v 0.25112 -0.00216 0.41910
v 0.25653 -0.00216 0.41951
v 0.25653 0.00161 0.41951
v 0.25112 0.00161 0.41910
v 0.08166 0.09733 -0.79339
v 0.06806 0.09733 -0.80000
v 0.06806 0.09733 -0.79339
v 0.08166 0.09733 -0.80000
v 0.08166 0.08450 -0.79339
v 0.06806 0.08450 -0.79339
v 0.06806 0.08450 -0.80000
v 0.08166 0.08450 -0.80000
v 0.12370 0.09944 -0.77496
v 0.10139 0.13369 -0.78178
v 0.10139 0.13369 -0.77496
v 0.12370 0.09944 -0.78178
v 0.05682 0.10466 -0.77496
v 0.07913 0.07041 -0.77496
v 0.04096 0.04555 -0.77244
v 0.01865 0.07981 -0.77244
v 0.01865 0.07981 -0.79466
v 0.04096 0.04555 -0.79466
v 0.08060 0.12015 -0.79466
v 0.10291 0.08590 -0.79466
v 0.05159 0.10126 -0.77244
v 0.07389 0.06700 -0.77244
v -0.21234 0.00003 -0.70818
v -0.22136 -0.02772 -0.70818
v -0.25469 -0.01861 -0.13686
v -0.24863 0.00003 -0.13683
v -0.19685 -0.05225 -0.70818
v -0.23822 -0.03509 -0.13678
v -0.16912 -0.04300 -0.70818
v -0.21959 -0.02888 -0.13669
v -0.14284 -0.05370 -0.70818
v -0.20194 -0.03607 -0.13661
v -0.11542 -0.02627 -0.70818
v -0.18352 -0.01763 -0.13652
v -0.12297 0.00003 -0.70818
v -0.18860 0.00003 -0.13655
v -0.25469 0.01866 -0.13686
v -0.22136 0.02777 -0.70818
v -0.19685 0.05230 -0.70818
v -0.23822 0.03514 -0.13678
v -0.21959 0.02893 -0.13669
v -0.16912 0.04305 -0.70818
v -0.20194 0.03612 -0.13661
v -0.14284 0.05376 -0.70818
v -0.18352 0.01769 -0.13652
v -0.11542 0.02632 -0.70818
v -0.28535 -0.01814 0.23427
v -0.34866 -0.02385 0.79113
v -0.34090 0.00003 0.79113
v -0.27945 0.00003 0.23430
v -0.26930 -0.03419 0.23434
v -0.32755 -0.04497 0.79113
v -0.25115 -0.02814 0.23442
v -0.30367 -0.03701 0.79113
v -0.23395 -0.03515 0.23450
v -0.28104 -0.04622 0.79113
v -0.25743 -0.02260 0.79113
v -0.21600 -0.01718 0.23458
v -0.26393 0.00003 0.79113
v -0.22095 0.00003 0.23456
v -0.25743 0.02265 0.79113
v -0.21600 0.01724 0.23458
v -0.28104 0.04627 0.79113
v -0.23395 0.03520 0.23450
v -0.30367 0.03706 0.79113
v -0.25115 0.02819 0.23442
v -0.32755 0.04502 0.79113
v -0.26930 0.03425 0.23434
v -0.28535 0.01819 0.23427
v -0.34866 0.02390 0.79113
v -0.34668 0.00003 0.78835
v -0.30445 0.00003 0.78835
v -0.35549 -0.02706 0.78835
v -0.33154 -0.05101 0.78835
v -0.30445 -0.04198 0.78835
v -0.27878 -0.05243 0.78835
v -0.25200 -0.02564 0.78835
v -0.25937 0.00003 0.78835
v -0.35549 0.02711 0.78835
v -0.33154 0.05107 0.78835
v -0.30445 0.04204 0.78835
v -0.27878 0.05248 0.78835
v -0.25200 0.02570 0.78835
v -0.34668 0.00003 0.80000
v -0.35549 -0.02706 0.80000
v -0.30445 0.00003 0.80000
v -0.33154 -0.05101 0.80000
v -0.30445 -0.04198 0.80000
v -0.27878 -0.05243 0.80000
v -0.25200 -0.02564 0.80000
v -0.25937 0.00003 0.80000
v -0.35549 0.02711 0.80000
v -0.33154 0.05107 0.80000
v -0.30445 0.04204 0.80000
v -0.27878 0.05248 0.80000
v -0.25200 0.02570 0.80000
v -0.22035 -0.02648 0.77614
v -0.22991 -0.03083 0.62327
v -0.16113 -0.03083 0.60954
v -0.13259 -0.02648 0.72937
v -0.26144 -0.02648 0.78315
v -0.26048 -0.03083 0.58726
v -0.05687 -0.02648 0.62949
v -0.10857 -0.03083 0.53998
v -0.00903 -0.02648 0.51020
v -0.05934 -0.03083 0.43906
v 0.03557 -0.02648 0.42318
v -0.00351 -0.03083 0.35415
v 0.08907 -0.02648 0.38507
v 0.07282 -0.03083 0.31569
v 0.14151 -0.02648 0.38319
v 0.15754 -0.03083 0.31368
v 0.20231 -0.02648 0.42127
v 0.22634 -0.03083 0.36088
v 0.25488 -0.02648 0.46039
v 0.27684 -0.03083 0.40734
v 0.33962 -0.02648 0.42521
v 0.32712 -0.02648 0.45361
v 0.30734 -0.03083 0.41102
v 0.30858 -0.03083 0.40112
v 0.33737 -0.02809 0.37607
v 0.30528 -0.03083 0.37683
v 0.29910 -0.02648 0.46618
v 0.29719 -0.03083 0.41662
v 0.30734 -0.00080 0.41102
v 0.31412 0.02134 0.45118
v 0.31846 0.02793 0.42316
v 0.30858 -0.00080 0.40112
v 0.30461 0.03356 0.37683
v 0.30528 -0.00080 0.37683
v 0.30001 0.01089 0.46864
v 0.29719 -0.00080 0.41662
v -0.16127 -0.00080 0.60954
v -0.23008 -0.00080 0.62327
v -0.26066 -0.00080 0.58726
v -0.10870 -0.00080 0.53998
v -0.05945 -0.00080 0.43906
v -0.00360 -0.00080 0.35415
v 0.07276 -0.00080 0.31569
v 0.15752 -0.00080 0.31368
v 0.22634 -0.00080 0.36088
v 0.27684 -0.00080 0.40734
v 0.35289 -0.00095 0.37431
v 0.35323 -0.00095 0.42942
v 0.33731 0.02699 0.37510
v 0.34285 0.02181 0.42861
v 0.32811 0.01645 0.45707
v 0.33224 -0.00371 0.45861
v 0.25688 -0.00080 0.46058
v 0.30076 -0.00380 0.47083
v 0.20409 -0.00080 0.42230
v 0.14230 -0.00080 0.38384
v 0.08950 -0.00080 0.38581
v 0.03595 -0.00080 0.42481
v -0.00834 -0.00080 0.51180
v -0.05542 -0.00080 0.63021
v -0.13152 -0.00080 0.73121
v -0.22025 -0.00080 0.77777
v -0.26084 -0.00080 0.78529
v 0.30439 -0.03234 0.37389
v -0.11886 -0.12985 -0.70842
v 0.02305 -0.10392 -0.70852
v 0.33814 -0.02629 0.37389
v 0.33814 0.02634 0.37389
v -0.11886 0.12990 -0.70842
v 0.30439 0.03239 0.37389
v 0.02345 0.10397 -0.70831
v 0.08083 0.00003 -0.70842
v 0.35303 0.00003 0.37389
v 0.30439 0.00003 0.37389
v -0.11886 0.00003 -0.70842
v 0.33879 -0.02872 0.37843
v 0.32694 0.00003 0.37843
v 0.30192 0.00003 0.37843
v 0.30192 -0.03532 0.37843
v 0.33879 0.02877 0.37843
v 0.30192 0.03538 0.37843
v 0.35549 0.00003 0.37843
v 0.30192 -0.03532 0.37294
v 0.32694 0.00003 0.37294
v 0.33879 -0.02872 0.37294
v 0.30192 0.00003 0.37294
v 0.33879 0.02877 0.37294
v 0.30192 0.03538 0.37294
v 0.35549 0.00003 0.37294
v -0.12273 0.00992 -0.70699
v -0.12273 -0.00987 -0.70699
v 0.30052 -0.00275 0.37532
v 0.30052 0.00281 0.37532
v -0.11634 0.00992 -0.70842
v 0.30691 0.00281 0.37389
v 0.30691 -0.00275 0.37389
v -0.11634 -0.00987 -0.70842
v 0.04669 0.07900 -0.79339
v 0.03309 0.07900 -0.80000
v 0.03309 0.07900 -0.79339
v 0.04669 0.07900 -0.80000
v 0.04669 0.06618 -0.79339
v 0.03309 0.06618 -0.79339
v 0.03309 0.06618 -0.80000
v 0.04669 0.06618 -0.80000
v -0.21288 0.01037 0.73829
v -0.21924 -0.00158 0.73829
v -0.21924 0.01037 0.73829
v -0.21288 -0.00158 0.73829
v -0.21288 0.01037 0.74530
v -0.21924 0.01037 0.74530
v -0.21924 -0.00158 0.74530
v -0.21288 -0.00158 0.74530
v -0.18322 0.01037 0.73092
v -0.18958 -0.00158 0.73092
v -0.18958 0.01037 0.73092
v -0.18322 -0.00158 0.73092
v -0.18322 0.01037 0.73793
v -0.18958 0.01037 0.73793
v -0.18958 -0.00158 0.73793
v -0.18322 -0.00158 0.73793
v -0.15377 0.01037 0.71572
v -0.16013 -0.00158 0.71572
v -0.16013 0.01037 0.71572
v -0.15377 -0.00158 0.71572
v -0.15377 0.01037 0.72273
v -0.16013 0.01037 0.72273
v -0.16013 -0.00158 0.72273
v -0.15377 -0.00158 0.72273
v -0.12309 0.01037 0.69546
v -0.12944 -0.00158 0.69546
v -0.12944 0.01037 0.69546
v -0.12309 -0.00158 0.69546
v -0.12309 0.01037 0.70247
v -0.12944 0.01037 0.70247
v -0.12944 -0.00158 0.70247
v -0.12309 -0.00158 0.70247
v -0.09204 0.01037 0.65153
v -0.09839 -0.00158 0.65153
v -0.09839 0.01037 0.65153
v -0.09204 -0.00158 0.65153
v -0.09204 0.01037 0.65853
v -0.09839 0.01037 0.65853
v -0.09839 -0.00158 0.65853
v -0.09204 -0.00158 0.65853
v -0.05735 0.01037 0.59466
v -0.06371 -0.00158 0.59466
v -0.06371 0.01037 0.59466
v -0.05735 -0.00158 0.59466
v -0.05735 0.01037 0.60166
v -0.06371 0.01037 0.60166
v -0.06371 -0.00158 0.60166
v -0.05735 -0.00158 0.60166
v -0.01897 0.01037 0.49753
v -0.02533 -0.00158 0.49753
v -0.02533 0.01037 0.49753
v -0.01897 -0.00158 0.49753
v -0.01897 0.01037 0.50454
v -0.02533 0.01037 0.50454
v -0.02533 -0.00158 0.50454
v -0.01897 -0.00158 0.50454
v 0.02072 0.01037 0.41286
v 0.01436 -0.00158 0.41286
v 0.01436 0.01037 0.41286
v 0.02072 -0.00158 0.41286
v 0.02072 0.01037 0.41987
v 0.01436 0.01037 0.41987
v 0.01436 -0.00158 0.41987
v 0.02072 -0.00158 0.41987
v 0.05529 0.01037 0.37753
v 0.04893 -0.00158 0.37753
v 0.04893 0.01037 0.37753
v 0.05529 -0.00158 0.37753
v 0.05529 0.01037 0.38454
v 0.04893 0.01037 0.38454
v 0.04893 -0.00158 0.38454
v 0.05529 -0.00158 0.38454
v 0.08896 0.01037 0.35999
v 0.08260 -0.00158 0.35999
v 0.08260 0.01037 0.35999
v 0.08896 -0.00158 0.35999
v 0.08896 0.01037 0.36700
v 0.08260 0.01037 0.36700
v 0.08260 -0.00158 0.36700
v 0.08896 -0.00158 0.36700
v 0.11845 0.01037 0.35649
v 0.11209 -0.00158 0.35649
v 0.11209 0.01037 0.35649
v 0.11845 -0.00158 0.35649
v 0.11845 0.01037 0.36350
v 0.11209 0.01037 0.36350
v 0.11209 -0.00158 0.36350
v 0.11845 -0.00158 0.36350
v 0.14455 0.01037 0.35732
v 0.13820 -0.00158 0.35732
v 0.13820 0.01037 0.35732
v 0.14455 -0.00158 0.35732
v 0.14455 0.01037 0.36433
v 0.13820 0.01037 0.36433
v 0.13820 -0.00158 0.36433
v 0.14455 -0.00158 0.36433
v 0.17547 0.01037 0.37016
v 0.16912 -0.00158 0.37016
v 0.16912 0.01037 0.37016
v 0.17547 -0.00158 0.37016
v 0.17547 0.01037 0.37716
v 0.16912 0.01037 0.37716
v 0.16912 -0.00158 0.37716
v 0.17547 -0.00158 0.37716
v 0.20377 0.01037 0.38723
v 0.19742 -0.00158 0.38723
v 0.19742 0.01037 0.38723
v 0.20377 -0.00158 0.38723
v 0.20377 0.01037 0.39424
v 0.19742 0.01037 0.39424
v 0.19742 -0.00158 0.39424
v 0.20377 -0.00158 0.39424
v 0.23040 0.01037 0.39811
v 0.22404 -0.00158 0.39811
v 0.22404 0.01037 0.39811
v 0.23040 -0.00158 0.39811
v 0.23040 0.01037 0.40512
v 0.22404 0.01037 0.40512
v 0.22404 -0.00158 0.40512
v 0.23040 -0.00158 0.40512
v 0.25486 0.01037 0.40552
v 0.24850 -0.00158 0.40552
v 0.24850 0.01037 0.40552
v 0.25486 -0.00158 0.40552
v 0.25486 0.01037 0.41253
v 0.24850 0.01037 0.41253
v 0.24850 -0.00158 0.41253
v 0.25486 -0.00158 0.41253
v -0.17176 0.11090 -0.80000
v -0.14822 0.05276 -0.80000
v -0.14822 0.05276 -0.78960
v -0.17176 0.11090 -0.78960
v -0.13442 0.12435 -0.78960
v -0.13442 0.12435 -0.80000
v -0.11088 0.06621 -0.78960
v -0.11088 0.06621 -0.80000
v -0.14635 0.06246 -0.78690
v -0.16351 0.10484 -0.78690
v -0.13629 0.11465 -0.78690
v -0.11913 0.07226 -0.78690
v -0.14635 0.06246 -0.77089
v -0.16351 0.10484 -0.77089
v -0.13629 0.11465 -0.77089
v -0.11913 0.07226 -0.77089
v -0.14822 -0.05273 -0.78960
v -0.14822 -0.05273 -0.80000
v -0.17176 -0.11087 -0.80000
v -0.17176 -0.11087 -0.78960
v -0.13442 -0.12432 -0.80000
v -0.13442 -0.12432 -0.78960
v -0.11088 -0.06618 -0.78960
v -0.11088 -0.06618 -0.80000
v -0.14635 -0.06243 -0.78690
v -0.16351 -0.10481 -0.78690
v -0.13629 -0.11462 -0.78690
v -0.11913 -0.07223 -0.78690
v -0.14635 -0.06243 -0.77089
v -0.16351 -0.10481 -0.77089
v -0.13629 -0.11462 -0.77089
v -0.11913 -0.07223 -0.77089
v 0.23852 0.00286 0.37311
v 0.22851 -0.00093 0.37222
v 0.22851 0.00286 0.37223
v 0.23852 -0.00093 0.37311
v 0.23520 0.00113 0.39043
v 0.22795 0.00113 0.37692
v 0.22767 0.00113 0.38977
v 0.23796 0.00113 0.37781
v 0.23465 0.00286 0.39513
v 0.22711 0.00286 0.39446
v 0.22711 -0.00093 0.39446
v 0.23465 -0.00093 0.39513
v 0.23796 0.00286 0.37781
v 0.22795 0.00286 0.37692
v 0.22767 0.00286 0.38977
v 0.23520 0.00286 0.39043
vt 0.06250 0.18750
vt 0.06250 0.31250
vt 0.06250 0.43750
vt 0.06250 0.56250
vt 0.06250 0.68750
vt 0.06250 0.81250
vt 0.06250 0.93750
vt 0.18750 0.18750
vt 0.18750 0.31250
vt 0.18750 0.43750
vt 0.18750 0.56250
vt 0.18750 0.68750
vt 0.18750 0.81250
vt 0.18750 0.93750
vt 0.31250 0.31250
vt 0.31250 0.43750
vt 0.31250 0.56250
vt 0.31250 0.68750
vt 0.31250 0.81250
vt 0.31250 0.93750
vt 0.43750 0.31250
vt 0.43750 0.43750
vt 0.43750 0.56250
vt 0.43750 0.68750
vt 0.43750 0.81250
vt 0.43750 0.93750
vt 0.56250 0.31250
vt 0.56250 0.43750
vt 0.56250 0.56250
vt 0.56250 0.68750
vt 0.56250 0.81250
vt 0.56250 0.93750
vt 0.68750 0.31250
vt 0.68750 0.43750
vt 0.68750 0.56250
vt 0.68750 0.68750
vt 0.68750 0.81250
vt 0.68750 0.93750
vt 0.81250 0.31250
vt 0.81250 0.43750
vt 0.81250 0.56250
vt 0.81250 0.68750
vt 0.81250 0.81250
vt 0.81250 0.93750
vt 0.93750 0.31250
vt 0.93750 0.43750
vt 0.93750 0.56250
vt 0.93750 0.68750
vt 0.93750 0.81250
vt 0.93750 0.93750
vn 0.1019 0.0001 -0.9948
vn 0.0000 1.0000 0.0000
vn -0.1019 0.0000 0.9948
vn 0.9884 -0.0000 0.1519
vn -0.9987 0.0000 -0.0517
vn 0.9948 -0.0000 0.1019
vn -0.9948 0.0000 -0.1019
vn -0.1019 -0.0002 0.9948
vn 0.1019 -0.0001 -0.9948
vn 0.9892 -0.0000 0.1467
vn -0.9984 0.0000 -0.0570
vn -0.1019 -0.0001 0.9948
vn 0.1019 -0.0000 -0.9948
vn 0.9877 -0.0000 0.1567
vn -0.9989 0.0000 -0.0469
vn -0.1019 -0.0003 0.9948
vn 0.9902 -0.0000 0.1399
vn -0.9980 0.0000 -0.0638
vn 0.9897 -0.0000 0.1435
vn -0.9982 0.0000 -0.0602
vn 0.1019 0.0002 -0.9948
vn 0.9888 -0.0000 0.1494
vn -0.9985 -0.0000 -0.0542
vn 0.9897 0.0000 0.1434
vn -0.9982 0.0000 -0.0603
vn 0.9898 -0.0000 0.1421
vn -0.9981 -0.0000 -0.0615
vn 0.9903 0.0000 0.1391
vn -0.9979 -0.0000 -0.0646
vn 0.9901 -0.0000 0.1404
vn -0.9980 0.0000 -0.0633
vn 0.9901 -0.0000 0.1407
vn -0.9980 -0.0000 -0.0630
vn 0.9863 -0.0000 0.1652
vn -0.9993 0.0000 -0.0382
vn 0.9858 -0.0000 0.1680
vn -0.9994 -0.0000 -0.0354
vn 0.9867 -0.0000 0.1624
vn -0.9992 0.0000 -0.0410
vn 0.0000 0.0000 1.0000
vn 0.8730 0.4878 0.0000
vn -0.4223 0.9065 0.0000
vn -0.8166 0.5772 0.0000
vn -0.2641 0.9644 -0.0153
vn 0.1688 0.9855 -0.0145
vn -0.6998 0.7143 0.0000
vn 0.1944 0.1078 -0.9750
vn -0.0802 0.1721 -0.9818
vn -0.1628 0.1151 -0.9799
vn 0.0355 0.2109 -0.9769
vn -0.0517 0.1912 -0.9802
vn -0.1355 0.1383 -0.9811
vn 0.8762 0.4820 0.0000
vn 0.0000 0.0000 -1.0000
vn -0.2641 0.9644 0.0153
vn 0.1688 0.9855 0.0145
vn 0.1944 0.1078 0.9750
vn -0.0802 0.1721 0.9818
vn -0.1628 0.1151 0.9799
vn 0.0355 0.2109 0.9769
vn -0.0517 0.1912 0.9802
vn -0.1355 0.1383 0.9811
vn 0.1642 0.9864 0.0000
vn -0.2610 0.9653 0.0000
vn -1.0000 0.0000 0.0000
vn -0.2118 0.0000 -0.9773
vn -0.2118 0.0000 0.9773
vn 0.8730 -0.4878 0.0000
vn -0.4223 -0.9065 0.0000
vn -0.8166 -0.5772 0.0000
vn -0.2641 -0.9644 -0.0153
vn 0.1688 -0.9855 -0.0145
vn -0.6998 -0.7143 0.0000
vn 0.1944 -0.1078 -0.9750
vn -0.0802 -0.1721 -0.9818
vn -0.1628 -0.1151 -0.9799
vn 0.0355 -0.2109 -0.9769
vn -0.0517 -0.1912 -0.9802
vn -0.1355 -0.1383 -0.9811
vn 0.8762 -0.4820 0.0000
vn -0.2641 -0.9644 0.0153
vn 0.1688 -0.9855 0.0145
vn 0.1944 -0.1078 0.9750
vn -0.0802 -0.1721 0.9818
vn -0.1628 -0.1151 0.9799
vn 0.0355 -0.2109 0.9769
vn -0.0517 -0.1912 0.9802
vn -0.1355 -0.1383 0.9811
vn 0.1642 -0.9864 0.0000
vn -0.2610 -0.9653 0.0000
vn -0.0000 -1.0000 0.0000
vn 0.9959 -0.0000 0.0910
vn -0.0752 0.0000 0.9972
vn -0.9959 0.0000 -0.0910
vn -0.9616 0.0000 0.2744
vn 0.9616 -0.0000 -0.2744
vn 0.9958 -0.0000 0.0919
vn -0.9958 0.0000 -0.0919
vn 0.9957 -0.0000 0.0930
vn -0.9957 0.0000 -0.0930
vn 0.9955 -0.0000 0.0944
vn -0.9955 0.0000 -0.0944
vn -0.9833 0.0000 0.1821
vn 0.9833 -0.0000 -0.1821
vn 0.9953 -0.0000 0.0966
vn -0.9953 0.0000 -0.0966
vn -0.9937 0.0000 0.1119
vn 0.9937 -0.0000 -0.1119
vn 0.9950 -0.0000 0.0998
vn -0.9950 0.0000 -0.0998
vn -0.9994 0.0000 0.0347
vn 0.9994 -0.0000 -0.0347
vn 0.9945 -0.0000 0.1047
vn -0.9945 0.0000 -0.1047
vn -0.9999 0.0000 0.0109
vn 0.9999 -0.0000 -0.0109
vn 0.9936 -0.0000 0.1130
vn -0.9936 0.0000 -0.1130
vn -0.9998 0.0000 0.0180
vn 0.9998 -0.0000 -0.0180
vn 0.9928 -0.0000 0.1194
vn -0.9928 0.0000 -0.1194
vn -1.0000 0.0000 -0.0077
vn 1.0000 -0.0000 0.0077
vn 0.9933 -0.0000 0.1157
vn -0.9933 0.0000 -0.1157
vn -0.9999 0.0000 0.0107
vn 0.9999 -0.0000 -0.0107
vn 0.9939 -0.0000 0.1104
vn -0.9939 0.0000 -0.1104
vn -0.9989 0.0000 -0.0465
vn 0.9989 -0.0000 0.0465
vn 0.9929 -0.0000 0.1191
vn -0.9929 0.0000 -0.1191
vn -0.9988 0.0000 -0.0493
vn 0.9988 -0.0000 0.0493
vn 0.9945 -0.0000 0.1051
vn -0.9945 0.0000 -0.1051
vn -0.9967 0.0000 -0.0811
vn 0.9967 -0.0000 0.0811
vn 0.9938 -0.0000 0.1108
vn -0.9938 0.0000 -0.1108
vn -0.9989 0.0000 -0.0460
vn 0.9989 -0.0000 0.0460
vn 0.9949 -0.0000 0.1005
vn -0.9949 0.0000 -0.1005
vn -0.9964 0.0000 -0.0846
vn 0.9964 -0.0000 0.0846
vn 0.9947 -0.0000 0.1024
vn -0.9947 0.0000 -0.1024
vn -0.9980 0.0000 -0.0637
vn 0.9980 -0.0000 0.0637
vn 1.0000 -0.0000 0.0000
vn 0.8380 0.5457 0.0000
vn -0.8380 -0.5457 0.0000
vn 0.3863 0.2516 -0.8874
vn 0.5457 -0.8380 0.0000
vn -0.5457 0.8380 0.0000
vn 0.3136 0.2042 0.9273
vn -0.9493 0.3086 -0.0603
vn -0.7070 -0.7066 -0.0300
vn 0.3159 -0.9474 0.0513
vn -0.3771 -0.9261 -0.0104
vn 0.7041 -0.7038 0.0945
vn 0.9553 0.2744 0.1097
vn -0.9493 -0.3086 -0.0603
vn -0.7070 0.7066 -0.0300
vn 0.3159 0.9474 0.0513
vn -0.3771 0.9261 -0.0104
vn 0.7041 0.7038 0.0945
vn 0.9553 -0.2744 0.1097
vn -0.9458 0.3076 -0.1044
vn -0.7044 -0.7044 -0.0873
vn 0.3163 -0.9486 0.0147
vn -0.3765 -0.9250 -0.0503
vn 0.7064 -0.7063 0.0457
vn 0.9585 0.2754 0.0740
vn 0.9585 -0.2754 0.0740
vn 0.7064 0.7063 0.0457
vn -0.3765 0.9250 -0.0503
vn 0.3163 0.9486 0.0147
vn -0.7044 0.7044 -0.0873
vn -0.9458 -0.3076 -0.1044
vn -0.9480 0.3083 -0.0787
vn -0.7060 -0.7059 -0.0574
vn 0.3162 -0.9483 0.0288
vn -0.3769 -0.9258 -0.0302
vn 0.7058 -0.7056 0.0626
vn 0.9578 0.2752 0.0835
vn 0.9578 -0.2752 0.0835
vn 0.7058 0.7056 0.0626
vn -0.3769 0.9258 -0.0302
vn 0.3162 0.9483 0.0288
vn -0.7060 0.7059 -0.0574
vn -0.9480 -0.3083 -0.0787
vn -0.9510 0.3093 0.0000
vn -0.7071 -0.7071 0.0000
vn 0.3162 -0.9487 0.0000
vn -0.3770 -0.9262 0.0000
vn 0.7071 -0.7071 0.0000
vn 0.9611 0.2762 0.0000
vn -0.9510 -0.3093 0.0000
vn -0.7071 0.7071 0.0000
vn 0.3162 0.9487 0.0000
vn -0.3770 0.9262 0.0000
vn 0.7071 0.7071 0.0000
vn 0.9611 -0.2762 0.0000
vn 0.0117 -0.9995 0.0302
vn -0.0102 -0.9996 0.0252
vn 0.0364 -0.9990 0.0275
vn 0.0502 -0.9985 0.0221
vn 0.0507 -0.9983 0.0296
vn 0.0299 -0.9983 0.0508
vn 0.0018 -0.9980 0.0625
vn -0.0365 -0.9978 0.0555
vn -0.0475 -0.9972 0.0572
vn 0.1155 -0.9924 0.0414
vn 0.1066 -0.9942 0.0137
vn 0.0402 -0.9956 0.0845
vn -0.0189 -0.9966 0.0808
vn -0.9204 0.3850 -0.0684
vn -0.9691 0.0577 0.2400
vn -0.5627 0.7933 -0.2325
vn -0.1957 -0.0010 -0.9807
vn 0.7623 0.0044 -0.6472
vn -0.7978 -0.0035 -0.6029
vn -0.8987 -0.0034 -0.4385
vn -0.8355 -0.0026 -0.5495
vn -0.4499 -0.0011 -0.8931
vn -0.0238 -0.0000 -0.9997
vn 0.5657 0.0002 -0.8246
vn 0.6771 -0.0000 -0.7359
vn -0.9923 0.0000 -0.1237
vn -0.4827 0.0000 -0.8758
vn 0.4148 -0.0000 -0.9099
vn 0.8753 -0.4834 -0.0143
vn 0.8898 0.4556 -0.0265
vn 0.7923 0.2970 0.5329
vn -0.1812 -0.0842 0.9798
vn -0.5919 0.0245 0.8057
vn -0.5296 -0.0012 0.8482
vn 0.0365 -0.0279 0.9989
vn 0.5839 -0.0466 0.8105
vn 0.8896 -0.0470 0.4544
vn 0.9273 -0.0552 0.3703
vn 0.7959 -0.0691 0.6015
vn 0.4663 -0.0704 0.8818
vn 0.0605 0.8344 0.5479
vn 0.1926 0.9448 0.2650
vn 0.2127 0.9750 0.0642
vn -0.1444 0.9806 -0.1324
vn -0.9909 0.0000 0.1347
vn 0.3545 0.1481 0.9232
vn 0.1746 -0.0744 0.9818
vn 0.8018 -0.3963 0.4473
vn 0.3732 -0.2456 0.8947
vn -0.2167 0.1325 0.9672
vn 0.1791 -0.9837 0.0185
vn 0.1786 0.9837 0.0187
vn 0.8540 0.4739 -0.2146
vn -0.9313 0.0000 0.3642
vn 0.8531 -0.4757 -0.2144
vn 0.1763 -0.9843 0.0000
vn 0.1763 0.9843 0.0000
vn 0.8647 0.5023 0.0000
vn 0.8647 -0.5023 0.0000
vn 0.0014 1.0000 0.0060
vn 0.2188 -0.0000 0.9758
vn 0.0014 -1.0000 0.0060
vn -0.9269 -0.3753 0.0000
vn -0.3388 0.9408 0.0000
vn 0.9269 0.3753 0.0000
vn 0.3388 -0.9408 0.0000
vn -0.4166 -0.1687 0.8933
vn -0.1028 0.2854 0.9529
vn 0.4166 0.1687 0.8933
vn 0.1028 -0.2854 0.9529
vn -0.9269 0.3753 0.0000
vn -0.3388 -0.9408 0.0000
vn 0.9269 -0.3753 0.0000
vn 0.3388 0.9408 0.0000
vn -0.4166 0.1687 0.8933
vn -0.1028 -0.2854 0.9529
vn 0.4166 -0.1687 0.8933
vn 0.1028 0.2854 0.9529
vn 0.0878 0.0001 -0.9961
vn -0.0879 0.0000 0.9961
vn 0.9822 -0.0000 0.1878
vn -0.9989 0.0000 -0.0476
vn 0.9930 -0.0000 0.1182
vn -0.9930 0.0000 -0.1182
vn -0.0879 -0.0002 0.9961
vn 0.0879 -0.0000 -0.9961
f 1/12/1 2/12/1 3/12/1
f 2/12/1 1/12/1 4/12/1
f 5/12/2 6/12/2 7/12/2
f 6/12/2 5/12/2 8/12/2
f 9/12/3 10/12/3 11/12/3
f 11/12/3 12/12/3 9/12/3
f 5/12/4 4/12/4 8/12/4
f 4/12/4 5/12/4 12/12/4
f 2/12/5 11/12/5 7/12/5
f 7/12/5 6/12/5 2/12/5
f 4/12/6 1/12/6 8/12/6
f 3/12/2 13/12/2 1/12/2
f 13/12/2 3/12/2 14/12/2
f 6/12/7 3/12/7 2/12/7
f 9/12/2 15/12/2 10/12/2
f 15/12/2 9/12/2 16/12/2
f 5/12/6 9/12/6 12/12/6
f 11/12/7 10/12/7 7/12/7
f 6/12/8 8/12/8 13/12/8
f 13/12/8 14/12/8 6/12/8
f 6/12/7 14/12/7 3/12/7
f 1/12/6 13/12/6 8/12/6
f 16/12/9 7/12/9 15/12/9
f 7/12/9 16/12/9 5/12/9
f 5/12/6 16/12/6 9/12/6
f 10/12/7 15/12/7 7/12/7
f 17/12/1 18/12/1 19/12/1
f 18/12/1 17/12/1 20/12/1
f 21/12/2 22/12/2 23/12/2
f 22/12/2 21/12/2 24/12/2
f 25/18/3 26/18/3 27/18/3
f 27/12/3 28/12/3 25/12/3
f 21/12/10 20/12/10 24/12/10
f 20/12/10 21/12/10 28/12/10
f 18/12/11 27/12/11 23/12/11
f 23/18/11 22/18/11 18/18/11
f 20/12/6 17/12/6 24/12/6
f 19/12/2 29/12/2 17/12/2
f 29/4/2 19/4/2 30/4/2
f 22/12/7 19/12/7 18/12/7
f 25/18/2 31/18/2 26/18/2
f 31/12/2 25/12/2 32/12/2
f 21/12/6 25/12/6 28/12/6
f 27/12/7 26/12/7 23/12/7
f 22/12/12 24/12/12 29/12/12
f 29/12/12 30/12/12 22/12/12
f 22/18/7 30/18/7 19/18/7
f 17/12/6 29/12/6 24/12/6
f 32/12/13 23/12/13 31/12/13
f 23/12/13 32/12/13 21/12/13
f 21/12/6 32/12/6 25/12/6
f 26/18/7 31/18/7 23/18/7
f 33/12/1 34/12/1 35/12/1
f 34/12/1 33/12/1 36/12/1
f 37/12/2 38/12/2 39/12/2
f 38/12/2 37/12/2 40/12/2
f 41/12/3 42/12/3 43/12/3
f 43/12/3 44/12/3 41/12/3
f 37/12/14 36/12/14 40/12/14
f 36/12/14 37/12/14 44/12/14
f 34/12/15 43/12/15 39/12/15
f 39/12/15 38/12/15 34/12/15
f 36/12/6 33/12/6 40/12/6
f 35/12/2 45/12/2 33/12/2
f 45/12/2 35/12/2 46/12/2
f 38/12/7 35/12/7 34/12/7
f 41/12/2 47/12/2 42/12/2
f 47/12/2 41/12/2 48/12/2
f 37/12/6 41/12/6 44/12/6
f 43/12/7 42/12/7 39/12/7
f 38/12/16 40/12/16 45/12/16
f 45/12/16 46/12/16 38/12/16
f 38/12/7 46/12/7 35/12/7
f 33/12/6 45/12/6 40/12/6
f 48/12/13 39/12/13 47/12/13
f 39/12/13 48/12/13 37/12/13
f 37/12/6 48/12/6 41/12/6
f 42/12/7 47/12/7 39/12/7
f 49/30/1 50/30/1 51/30/1
f 50/30/1 49/30/1 52/30/1
f 53/18/2 54/18/2 55/18/2
f 54/18/2 53/18/2 56/18/2
f 57/18/3 58/18/3 59/18/3
f 59/30/3 60/30/3 57/30/3
f 53/12/17 52/12/17 56/12/17
f 52/12/17 53/12/17 60/12/17
f 50/1/18 59/1/18 55/1/18
f 55/1/18 54/1/18 50/1/18
f 52/12/6 49/12/6 56/12/6
f 51/18/2 61/18/2 49/18/2
f 61/30/2 51/30/2 62/30/2
f 54/1/7 51/1/7 50/1/7
f 57/18/2 63/18/2 58/18/2
f 63/12/2 57/12/2 64/12/2
f 53/12/6 57/12/6 60/12/6
f 59/18/7 58/18/7 55/18/7
f 54/30/12 56/30/12 61/30/12
f 61/18/12 62/18/12 54/18/12
f 54/27/7 62/27/7 51/27/7
f 49/30/6 61/30/6 56/30/6
f 64/18/13 55/18/13 63/18/13
f 55/18/13 64/18/13 53/18/13
f 53/12/6 64/12/6 57/12/6
f 58/18/7 63/18/7 55/18/7
f 65/39/1 66/39/1 67/39/1
f 66/1/1 65/1/1 68/1/1
f 69/39/2 70/39/2 71/39/2
f 70/39/2 69/39/2 72/39/2
f 73/39/3 74/39/3 75/39/3
f 75/39/3 76/39/3 73/39/3
f 69/39/19 68/39/19 72/39/19
f 68/1/19 69/1/19 76/1/19
f 66/39/20 75/39/20 71/39/20
f 71/39/20 70/39/20 66/39/20
f 68/1/6 65/1/6 72/1/6
f 67/39/2 77/39/2 65/39/2
f 77/39/2 67/39/2 78/39/2
f 70/39/7 67/39/7 66/39/7
f 73/39/2 79/39/2 74/39/2
f 79/39/2 73/39/2 80/39/2
f 69/39/6 73/39/6 76/39/6
f 75/39/7 74/39/7 71/39/7
f 70/39/12 72/39/12 77/39/12
f 77/39/12 78/39/12 70/39/12
f 70/39/7 78/39/7 67/39/7
f 65/39/6 77/39/6 72/39/6
f 80/39/13 71/39/13 79/39/13
f 71/39/13 80/39/13 69/39/13
f 69/39/6 80/39/6 73/39/6
f 74/39/7 79/39/7 71/39/7
f 81/39/21 82/39/21 83/39/21
f 82/39/21 81/39/21 84/39/21
f 85/39/2 86/39/2 87/39/2
f 86/39/2 85/39/2 88/39/2
f 89/39/3 90/39/3 91/39/3
f 91/39/3 92/39/3 89/39/3
f 85/39/22 84/39/22 88/39/22
f 84/39/22 85/39/22 92/39/22
f 82/27/23 91/27/23 87/27/23
f 87/27/23 86/27/23 82/27/23
f 84/39/6 81/39/6 88/39/6
f 83/39/2 93/39/2 81/39/2
f 93/39/2 83/39/2 94/39/2
f 86/39/7 83/39/7 82/39/7
f 89/33/2 95/33/2 90/33/2
f 95/39/2 89/39/2 96/39/2
f 85/39/6 89/39/6 92/39/6
f 91/39/7 90/39/7 87/39/7
f 86/39/16 88/39/16 93/39/16
f 93/27/16 94/27/16 86/27/16
f 86/39/7 94/39/7 83/39/7
f 81/39/6 93/39/6 88/39/6
f 96/39/9 87/39/9 95/39/9
f 87/39/9 96/39/9 85/39/9
f 85/39/6 96/39/6 89/39/6
f 90/39/7 95/39/7 87/39/7
f 97/12/1 98/12/1 99/12/1
f 98/12/1 97/12/1 100/12/1
f 101/12/2 102/12/2 103/12/2
f 102/12/2 101/12/2 104/12/2
f 105/12/3 106/12/3 107/12/3
f 107/12/3 108/12/3 105/12/3
f 101/12/24 100/12/24 104/12/24
f 100/12/24 101/12/24 108/12/24
f 98/12/25 107/12/25 103/12/25
f 103/12/25 102/12/25 98/12/25
f 100/12/6 97/12/6 104/12/6
f 99/12/2 109/12/2 97/12/2
f 109/12/2 99/12/2 110/12/2
f 102/12/7 99/12/7 98/12/7
f 105/12/2 111/12/2 106/12/2
f 111/12/2 105/12/2 112/12/2
f 101/12/6 105/12/6 108/12/6
f 107/12/7 106/12/7 103/12/7
f 102/12/12 104/12/12 109/12/12
f 109/12/12 110/12/12 102/12/12
f 102/12/7 110/12/7 99/12/7
f 97/12/6 109/12/6 104/12/6
f 112/12/13 103/12/13 111/12/13
f 103/12/13 112/12/13 101/12/13
f 101/12/6 112/12/6 105/12/6
f 106/12/7 111/12/7 103/12/7
f 113/22/1 114/22/1 115/22/1
f 114/15/1 113/15/1 116/15/1
f 117/16/2 118/16/2 119/16/2
f 118/15/2 117/15/2 120/15/2
f 121/22/3 122/22/3 123/22/3
f 123/9/3 124/9/3 121/9/3
f 117/27/26 116/27/26 120/27/26
f 116/27/26 117/27/26 124/27/26
f 114/10/27 123/10/27 119/10/27
f 119/27/27 118/27/27 114/27/27
f 116/27/6 113/27/6 120/27/6
f 115/15/2 125/15/2 113/15/2
f 125/22/2 115/22/2 126/22/2
f 118/39/7 115/39/7 114/39/7
f 121/22/2 127/22/2 122/22/2
f 127/9/2 121/9/2 128/9/2
f 117/15/6 121/15/6 124/15/6
f 123/35/7 122/35/7 119/35/7
f 118/15/12 120/15/12 125/15/12
f 125/22/12 126/22/12 118/22/12
f 118/15/7 126/15/7 115/15/7
f 113/27/6 125/27/6 120/27/6
f 128/22/13 119/22/13 127/22/13
f 119/15/13 128/15/13 117/15/13
f 117/15/6 128/15/6 121/15/6
f 122/36/7 127/36/7 119/36/7
f 129/27/1 130/27/1 131/27/1
f 130/22/1 129/22/1 132/22/1
f 133/15/2 134/15/2 135/15/2
f 134/2/2 133/2/2 136/2/2
f 137/9/3 138/9/3 139/9/3
f 139/22/3 140/22/3 137/22/3
f 133/39/28 132/39/28 136/39/28
f 132/9/28 133/9/28 140/9/28
f 130/27/29 139/27/29 135/27/29
f 135/27/29 134/27/29 130/27/29
f 132/27/6 129/27/6 136/27/6
f 131/22/2 141/22/2 129/22/2
f 141/15/2 131/15/2 142/15/2
f 134/27/7 131/27/7 130/27/7
f 137/15/2 143/15/2 138/15/2
f 143/22/2 137/22/2 144/22/2
f 133/11/6 137/11/6 140/11/6
f 139/27/7 138/27/7 135/27/7
f 134/22/8 136/22/8 141/22/8
f 141/27/8 142/27/8 134/27/8
f 134/27/7 142/27/7 131/27/7
f 129/41/6 141/41/6 136/41/6
f 144/15/13 135/15/13 143/15/13
f 135/9/13 144/9/13 133/9/13
f 133/41/6 144/41/6 137/41/6
f 138/15/7 143/15/7 135/15/7
f 145/39/1 146/39/1 147/39/1
f 146/27/1 145/27/1 148/27/1
f 149/39/2 150/39/2 151/39/2
f 150/39/2 149/39/2 152/39/2
f 153/39/3 154/39/3 155/39/3
f 155/39/3 156/39/3 153/39/3
f 149/27/30 148/27/30 152/27/30
f 148/39/30 149/39/30 156/39/30
f 146/39/31 155/39/31 151/39/31
f 151/39/31 150/39/31 146/39/31
f 148/27/6 145/27/6 152/27/6
f 147/39/2 157/39/2 145/39/2
f 157/39/2 147/39/2 158/39/2
f 150/39/7 147/39/7 146/39/7
f 153/39/2 159/39/2 154/39/2
f 159/39/2 153/39/2 160/39/2
f 149/27/6 153/27/6 156/27/6
f 155/39/7 154/39/7 151/39/7
f 150/39/12 152/39/12 157/39/12
f 157/39/12 158/39/12 150/39/12
f 150/39/7 158/39/7 147/39/7
f 145/27/6 157/27/6 152/27/6
f 160/39/13 151/39/13 159/39/13
f 151/39/13 160/39/13 149/39/13
f 149/39/6 160/39/6 153/39/6
f 154/39/7 159/39/7 151/39/7
f 161/12/1 162/12/1 163/12/1
f 162/12/1 161/12/1 164/12/1
f 165/18/2 166/18/2 167/18/2
f 166/12/2 165/12/2 168/12/2
f 169/18/3 170/18/3 171/18/3
f 171/12/3 172/12/3 169/12/3
f 165/12/32 164/12/32 168/12/32
f 164/12/32 165/12/32 172/12/32
f 162/30/33 171/30/33 167/30/33
f 167/30/33 166/30/33 162/30/33
f 164/12/6 161/12/6 168/12/6
f 163/12/2 173/12/2 161/12/2
f 173/12/2 163/12/2 174/12/2
f 166/18/7 163/18/7 162/18/7
f 169/18/2 175/18/2 170/18/2
f 175/12/2 169/12/2 176/12/2
f 165/12/6 169/12/6 172/12/6
f 171/12/7 170/12/7 167/12/7
f 166/12/8 168/12/8 173/12/8
f 173/12/8 174/12/8 166/12/8
f 166/18/7 174/18/7 163/18/7
f 161/12/6 173/12/6 168/12/6
f 176/18/13 167/18/13 175/18/13
f 167/12/13 176/12/13 165/12/13
f 165/12/6 176/12/6 169/12/6
f 170/18/7 175/18/7 167/18/7
f 177/39/1 178/39/1 179/39/1
f 178/39/1 177/39/1 180/39/1
f 181/39/2 182/39/2 183/39/2
f 182/39/2 181/39/2 184/39/2
f 185/39/3 186/39/3 187/39/3
f 187/39/3 188/39/3 185/39/3
f 181/39/34 180/39/34 184/39/34
f 180/39/34 181/39/34 188/39/34
f 178/39/35 187/39/35 183/39/35
f 183/39/35 182/39/35 178/39/35
f 180/39/6 177/39/6 184/39/6
f 179/39/2 189/39/2 177/39/2
f 189/39/2 179/39/2 190/39/2
f 182/39/7 179/39/7 178/39/7
f 185/39/2 191/39/2 186/39/2
f 191/39/2 185/39/2 192/39/2
f 181/39/6 185/39/6 188/39/6
f 187/39/7 186/39/7 183/39/7
f 182/39/12 184/39/12 189/39/12
f 189/1/12 190/1/12 182/1/12
f 182/39/7 190/39/7 179/39/7
f 177/39/6 189/39/6 184/39/6
f 192/39/13 183/39/13 191/39/13
f 183/39/13 192/39/13 181/39/13
f 181/39/6 192/39/6 185/39/6
f 186/39/7 191/39/7 183/39/7
f 193/18/1 194/18/1 195/18/1
f 194/18/1 193/18/1 196/18/1
f 197/18/2 198/18/2 199/18/2
f 198/18/2 197/18/2 200/18/2
f 201/18/3 202/18/3 203/18/3
f 203/18/3 204/18/3 201/18/3
f 197/1/36 196/1/36 200/1/36
f 196/1/36 197/1/36 204/1/36
f 194/12/37 203/12/37 199/12/37
f 199/18/37 198/18/37 194/18/37
f 196/1/6 193/1/6 200/1/6
f 195/18/2 205/18/2 193/18/2
f 205/18/2 195/18/2 206/18/2
f 198/4/7 195/4/7 194/4/7
f 201/18/2 207/18/2 202/18/2
f 207/18/2 201/18/2 208/18/2
f 197/30/6 201/30/6 204/30/6
f 203/12/7 202/12/7 199/12/7
f 198/18/8 200/18/8 205/18/8
f 205/18/8 206/18/8 198/18/8
f 198/18/7 206/18/7 195/18/7
f 193/1/6 205/1/6 200/1/6
f 208/18/13 199/18/13 207/18/13
f 199/18/13 208/18/13 197/18/13
f 197/18/6 208/18/6 201/18/6
f 202/30/7 207/30/7 199/30/7
f 209/12/1 210/12/1 211/12/1
f 210/12/1 209/12/1 212/12/1
f 213/12/2 214/12/2 215/12/2
f 214/12/2 213/12/2 216/12/2
f 217/12/3 218/12/3 219/12/3
f 219/12/3 220/12/3 217/12/3
f 213/12/38 212/12/38 216/12/38
f 212/12/38 213/12/38 220/12/38
f 210/12/39 219/12/39 215/12/39
f 215/12/39 214/12/39 210/12/39
f 212/12/6 209/12/6 216/12/6
f 211/12/2 221/12/2 209/12/2
f 221/12/2 211/12/2 222/12/2
f 214/12/7 211/12/7 210/12/7
f 217/12/2 223/12/2 218/12/2
f 223/12/2 217/12/2 224/12/2
f 213/12/6 217/12/6 220/12/6
f 219/12/7 218/12/7 215/12/7
f 214/12/8 216/12/8 221/12/8
f 221/12/8 222/12/8 214/12/8
f 214/12/7 222/12/7 211/12/7
f 209/12/6 221/12/6 216/12/6
f 224/12/13 215/12/13 223/12/13
f 215/12/13 224/12/13 213/12/13
f 213/12/6 224/12/6 217/12/6
f 218/12/7 223/12/7 215/12/7
f 225/30/40 226/30/40 227/30/40
f 228/12/40 227/12/40 226/12/40
f 226/30/40 229/30/40 228/30/40
f 230/18/41 226/18/41 225/18/41
f 226/12/41 230/12/41 231/12/41
f 232/18/42 233/18/42 234/18/42
f 233/18/42 232/18/42 235/18/42
f 236/18/43 237/18/43 233/18/43
f 233/18/43 235/18/43 236/18/43
f 238/12/44 228/12/44 229/12/44
f 228/12/44 238/12/44 239/12/44
f 231/12/45 229/12/45 226/12/45
f 229/30/45 231/30/45 238/30/45
f 239/12/46 234/12/46 228/12/46
f 234/30/46 239/30/46 232/30/46
f 240/30/47 230/30/47 241/30/47
f 230/12/47 240/12/47 231/12/47
f 242/30/48 232/30/48 243/30/48
f 232/18/48 242/18/48 235/18/48
f 244/18/49 235/18/49 242/18/49
f 235/18/49 244/18/49 236/18/49
f 245/12/50 231/12/50 240/12/50
f 231/30/50 245/30/50 238/30/50
f 246/12/51 238/12/51 245/12/51
f 238/12/51 246/12/51 239/12/51
f 243/12/52 239/12/52 246/12/52
f 239/12/52 243/12/52 232/12/52
f 247/12/53 240/12/53 241/12/53
f 240/12/53 247/12/53 248/12/53
f 249/12/42 242/12/42 243/12/42
f 242/12/42 249/12/42 250/12/42
f 251/12/43 244/12/43 242/12/43
f 242/12/43 250/12/43 251/12/43
f 252/12/46 243/12/46 246/12/46
f 243/12/46 252/12/46 249/12/46
f 253/18/54 254/18/54 255/18/54
f 256/12/54 254/12/54 257/12/54
f 254/12/54 256/12/54 255/12/54
f 258/30/41 255/30/41 259/30/41
f 255/18/41 258/18/41 253/18/41
f 260/31/42 261/31/42 262/31/42
f 261/50/42 260/50/42 263/50/42
f 261/12/43 264/12/43 265/12/43
f 265/44/43 262/44/43 261/44/43
f 266/43/55 257/43/55 267/43/55
f 257/50/55 266/50/55 256/50/55
f 259/18/56 256/18/56 266/18/56
f 256/18/56 259/18/56 255/18/56
f 267/31/46 263/31/46 260/31/46
f 263/31/46 267/31/46 257/31/46
f 247/12/57 258/12/57 259/12/57
f 259/18/57 248/18/57 247/18/57
f 249/43/58 260/43/58 262/43/58
f 262/43/58 250/43/58 249/43/58
f 250/31/59 262/31/59 265/31/59
f 265/43/59 251/43/59 250/43/59
f 248/18/60 259/18/60 266/18/60
f 266/18/60 268/18/60 248/18/60
f 268/31/61 266/31/61 267/31/61
f 267/43/61 252/43/61 268/43/61
f 252/43/62 267/43/62 260/43/62
f 260/43/62 249/43/62 252/43/62
f 268/39/63 240/39/63 248/39/63
f 240/17/63 268/17/63 245/17/63
f 252/39/64 245/39/64 268/39/64
f 245/1/64 252/1/64 246/1/64
f 234/18/40 233/18/40 269/18/40
f 269/30/40 270/30/40 234/30/40
f 233/18/40 237/18/40 271/18/40
f 271/18/40 269/18/40 233/18/40
f 237/18/65 236/18/65 272/18/65
f 272/18/65 271/18/65 237/18/65
f 272/18/66 244/18/66 273/18/66
f 244/18/66 272/18/66 236/18/66
f 244/12/65 251/12/65 274/12/65
f 274/12/65 273/12/65 244/12/65
f 251/18/67 265/18/67 275/18/67
f 275/12/67 274/12/67 251/12/67
f 265/18/65 264/18/65 276/18/65
f 276/12/65 275/12/65 265/12/65
f 276/30/54 261/30/54 277/30/54
f 261/18/54 276/18/54 264/18/54
f 277/30/54 263/30/54 278/30/54
f 263/12/54 277/12/54 261/12/54
f 225/13/40 227/13/40 279/13/40
f 279/18/40 227/18/40 280/18/40
f 280/12/40 281/12/40 279/12/40
f 227/18/40 228/18/40 234/18/40
f 230/13/68 279/13/68 282/13/68
f 279/13/68 230/13/68 225/13/68
f 270/30/69 269/30/69 283/30/69
f 283/12/69 284/12/69 270/12/69
f 269/30/70 271/30/70 272/30/70
f 272/30/70 283/30/70 269/30/70
f 281/12/71 280/12/71 285/12/71
f 285/12/71 286/12/71 281/12/71
f 279/12/72 281/12/72 286/12/72
f 286/13/72 282/13/72 279/13/72
f 280/30/73 270/30/73 284/30/73
f 284/30/73 285/30/73 280/30/73
f 287/13/74 230/13/74 282/13/74
f 230/13/74 287/13/74 241/13/74
f 288/12/75 284/12/75 283/12/75
f 284/30/75 288/30/75 289/30/75
f 273/30/76 283/30/76 272/30/76
f 283/30/76 273/30/76 288/30/76
f 290/12/77 282/12/77 286/12/77
f 282/32/77 290/32/77 287/32/77
f 291/12/78 286/12/78 285/12/78
f 286/12/78 291/12/78 290/12/78
f 289/30/79 285/30/79 284/30/79
f 285/18/79 289/18/79 291/18/79
f 247/7/80 287/7/80 292/7/80
f 287/41/80 247/41/80 241/41/80
f 289/12/69 288/12/69 293/12/69
f 293/12/69 294/12/69 289/12/69
f 288/12/70 273/12/70 274/12/70
f 274/12/70 293/12/70 288/12/70
f 291/30/73 289/30/73 294/30/73
f 294/18/73 295/18/73 291/18/73
f 253/43/54 296/43/54 254/43/54
f 297/12/54 254/12/54 296/12/54
f 254/18/54 297/18/54 298/18/54
f 298/18/54 263/18/54 254/18/54
f 263/12/54 298/12/54 278/12/54
f 258/30/68 296/30/68 253/30/68
f 296/18/68 258/18/68 299/18/68
f 300/12/69 277/12/69 278/12/69
f 278/12/69 301/12/69 300/12/69
f 275/12/70 276/12/70 277/12/70
f 277/12/70 300/12/70 275/12/70
f 302/12/81 298/12/81 297/12/81
f 297/12/81 303/12/81 302/12/81
f 303/12/82 297/12/82 296/12/82
f 296/12/82 299/12/82 303/12/82
f 301/12/73 278/12/73 298/12/73
f 298/12/73 302/12/73 301/12/73
f 299/18/83 258/18/83 247/18/83
f 247/18/83 292/18/83 299/18/83
f 300/12/84 301/12/84 294/12/84
f 294/12/84 293/12/84 300/12/84
f 275/12/85 300/12/85 293/12/85
f 293/12/85 274/12/85 275/12/85
f 303/12/86 299/12/86 292/12/86
f 292/12/86 304/12/86 303/12/86
f 302/12/87 303/12/87 304/12/87
f 304/12/87 295/12/87 302/12/87
f 301/12/88 302/12/88 295/12/88
f 295/12/88 294/12/88 301/12/88
f 292/12/89 287/12/89 290/12/89
f 290/31/89 304/31/89 292/31/89
f 304/12/90 290/12/90 291/12/90
f 291/18/90 295/18/90 304/18/90
f 280/12/40 227/12/40 234/12/40
f 234/18/40 270/18/40 280/18/40
f 263/12/54 257/12/54 254/12/54
f 305/45/2 306/45/2 307/45/2
f 306/42/2 305/42/2 308/42/2
f 309/28/91 310/28/91 311/28/91
f 311/45/91 312/45/91 309/45/91
f 305/28/92 311/28/92 308/28/92
f 311/45/92 305/45/92 312/45/92
f 313/45/93 314/45/93 315/45/93
f 315/45/93 316/45/93 313/45/93
f 310/23/94 309/23/94 307/23/94
f 307/28/94 306/28/94 310/28/94
f 315/45/2 307/45/2 316/45/2
f 307/45/2 315/45/2 305/45/2
f 309/21/95 313/21/95 316/21/95
f 316/21/95 307/21/95 309/21/95
f 309/45/91 312/45/91 314/45/91
f 314/45/91 313/45/91 309/45/91
f 314/45/96 305/45/96 315/45/96
f 305/45/96 314/45/96 312/45/96
f 317/34/2 318/34/2 319/34/2
f 318/37/2 317/37/2 320/37/2
f 321/37/91 322/37/91 323/37/91
f 323/34/91 324/34/91 321/34/91
f 317/34/97 323/34/97 320/34/97
f 323/3/97 317/3/97 324/3/97
f 325/40/93 326/40/93 327/40/93
f 327/3/93 328/3/93 325/3/93
f 322/29/98 321/29/98 319/29/98
f 319/29/98 318/29/98 322/29/98
f 327/3/2 319/3/2 328/3/2
f 319/40/2 327/40/2 317/40/2
f 321/34/95 325/34/95 328/34/95
f 328/34/95 319/34/95 321/34/95
f 321/40/91 324/40/91 326/40/91
f 326/40/91 325/40/91 321/40/91
f 326/34/96 317/34/96 327/34/96
f 317/34/96 326/34/96 324/34/96
f 329/45/2 330/45/2 331/45/2
f 330/21/2 329/21/2 332/21/2
f 333/21/91 334/21/91 335/21/91
f 335/45/91 336/45/91 333/45/91
f 329/21/99 335/21/99 332/21/99
f 335/21/99 329/21/99 336/21/99
f 337/8/93 338/8/93 339/8/93
f 339/45/93 340/45/93 337/45/93
f 334/21/100 333/21/100 331/21/100
f 331/21/100 330/21/100 334/21/100
f 339/45/2 331/45/2 340/45/2
f 331/8/2 339/8/2 329/8/2
f 333/45/95 337/45/95 340/45/95
f 340/45/95 331/45/95 333/45/95
f 333/45/91 336/45/91 338/45/91
f 338/45/91 337/45/91 333/45/91
f 338/45/96 329/45/96 339/45/96
f 329/45/96 338/45/96 336/45/96
f 341/20/2 342/20/2 343/20/2
f 342/12/2 341/12/2 344/12/2
f 345/43/91 346/43/91 347/43/91
f 347/7/91 348/7/91 345/7/91
f 341/12/101 347/12/101 344/12/101
f 347/7/101 341/7/101 348/7/101
f 349/7/93 350/7/93 351/7/93
f 351/7/93 352/7/93 349/7/93
f 346/20/102 345/20/102 343/20/102
f 343/12/102 342/12/102 346/12/102
f 351/7/2 343/7/2 352/7/2
f 343/7/2 351/7/2 341/7/2
f 345/20/103 349/20/103 352/20/103
f 352/7/103 343/7/103 345/7/103
f 345/20/91 348/20/91 350/20/91
f 350/20/91 349/20/91 345/20/91
f 350/20/104 341/20/104 351/20/104
f 341/20/104 350/20/104 348/20/104
f 353/24/2 354/24/2 355/24/2
f 354/12/2 353/12/2 356/12/2
f 357/43/91 358/43/91 359/43/91
f 359/45/91 360/45/91 357/45/91
f 353/12/105 359/12/105 356/12/105
f 359/45/105 353/45/105 360/45/105
f 361/45/93 362/45/93 363/45/93
f 363/45/93 364/45/93 361/45/93
f 358/21/106 357/21/106 355/21/106
f 355/5/106 354/5/106 358/5/106
f 363/45/2 355/45/2 364/45/2
f 355/21/2 363/21/2 353/21/2
f 357/45/107 361/45/107 364/45/107
f 364/45/107 355/45/107 357/45/107
f 357/45/91 360/45/91 362/45/91
f 362/45/91 361/45/91 357/45/91
f 362/8/108 353/8/108 363/8/108
f 353/45/108 362/45/108 360/45/108
f 365/21/2 366/21/2 367/21/2
f 366/12/2 365/12/2 368/12/2
f 369/12/91 370/12/91 371/12/91
f 371/28/91 372/28/91 369/28/91
f 365/12/109 371/12/109 368/12/109
f 371/45/109 365/45/109 372/45/109
f 373/45/93 374/45/93 375/45/93
f 375/45/93 376/45/93 373/45/93
f 370/21/110 369/21/110 367/21/110
f 367/12/110 366/12/110 370/12/110
f 375/45/2 367/45/2 376/45/2
f 367/45/2 375/45/2 365/45/2
f 369/24/111 373/24/111 376/24/111
f 376/23/111 367/23/111 369/23/111
f 369/45/91 372/45/91 374/45/91
f 374/45/91 373/45/91 369/45/91
f 374/42/112 365/42/112 375/42/112
f 365/8/112 374/8/112 372/8/112
f 377/3/2 378/3/2 379/3/2
f 378/12/2 377/12/2 380/12/2
f 381/12/91 382/12/91 383/12/91
f 383/3/91 384/3/91 381/3/91
f 377/12/113 383/12/113 380/12/113
f 383/3/113 377/3/113 384/3/113
f 385/34/93 386/34/93 387/34/93
f 387/34/93 388/34/93 385/34/93
f 382/3/114 381/3/114 379/3/114
f 379/12/114 378/12/114 382/12/114
f 387/34/2 379/34/2 388/34/2
f 379/34/2 387/34/2 377/34/2
f 381/40/115 385/40/115 388/40/115
f 388/34/115 379/34/115 381/34/115
f 381/29/91 384/29/91 386/29/91
f 386/34/91 385/34/91 381/34/91
f 386/34/116 377/34/116 387/34/116
f 377/40/116 386/40/116 384/40/116
f 389/21/2 390/21/2 391/21/2
f 390/12/2 389/12/2 392/12/2
f 393/12/91 394/12/91 395/12/91
f 395/21/91 396/21/91 393/21/91
f 389/12/117 395/12/117 392/12/117
f 395/21/117 389/21/117 396/21/117
f 397/21/93 398/21/93 399/21/93
f 399/21/93 400/21/93 397/21/93
f 394/21/118 393/21/118 391/21/118
f 391/12/118 390/12/118 394/12/118
f 399/21/2 391/21/2 400/21/2
f 391/21/2 399/21/2 389/21/2
f 393/21/119 397/21/119 400/21/119
f 400/21/119 391/21/119 393/21/119
f 393/47/91 396/47/91 398/47/91
f 398/19/91 397/19/91 393/19/91
f 398/47/120 389/47/120 399/47/120
f 389/28/120 398/28/120 396/28/120
f 401/43/2 402/43/2 403/43/2
f 402/12/2 401/12/2 404/12/2
f 405/12/91 406/12/91 407/12/91
f 407/43/91 408/43/91 405/43/91
f 401/30/121 407/30/121 404/30/121
f 407/12/121 401/12/121 408/12/121
f 409/20/93 410/20/93 411/20/93
f 411/20/93 412/20/93 409/20/93
f 406/43/122 405/43/122 403/43/122
f 403/12/122 402/12/122 406/12/122
f 411/20/2 403/20/2 412/20/2
f 403/18/2 411/18/2 401/18/2
f 405/20/123 409/20/123 412/20/123
f 412/30/123 403/30/123 405/30/123
f 405/18/91 408/18/91 410/18/91
f 410/20/91 409/20/91 405/20/91
f 410/20/124 401/20/124 411/20/124
f 401/18/124 410/18/124 408/18/124
f 413/45/2 414/45/2 415/45/2
f 414/45/2 413/45/2 416/45/2
f 417/45/91 418/45/91 419/45/91
f 419/45/91 420/45/91 417/45/91
f 413/8/125 419/8/125 416/8/125
f 419/28/125 413/28/125 420/28/125
f 421/38/93 422/38/93 423/38/93
f 423/23/93 424/23/93 421/23/93
f 418/45/126 417/45/126 415/45/126
f 415/45/126 414/45/126 418/45/126
f 423/47/2 415/47/2 424/47/2
f 415/19/2 423/19/2 413/19/2
f 417/47/127 421/47/127 424/47/127
f 424/47/127 415/47/127 417/47/127
f 417/47/91 420/47/91 422/47/91
f 422/47/91 421/47/91 417/47/91
f 422/23/128 413/23/128 423/23/128
f 413/28/128 422/28/128 420/28/128
f 425/40/2 426/40/2 427/40/2
f 426/29/2 425/29/2 428/29/2
f 429/29/91 430/29/91 431/29/91
f 431/34/91 432/34/91 429/34/91
f 425/25/129 431/25/129 428/25/129
f 431/34/129 425/34/129 432/34/129
f 433/34/93 434/34/93 435/34/93
f 435/29/93 436/29/93 433/29/93
f 430/40/130 429/40/130 427/40/130
f 427/3/130 426/3/130 430/3/130
f 435/29/2 427/29/2 436/29/2
f 427/48/2 435/48/2 425/48/2
f 429/34/131 433/34/131 436/34/131
f 436/34/131 427/34/131 429/34/131
f 429/3/91 432/3/91 434/3/91
f 434/40/91 433/40/91 429/40/91
f 434/3/132 425/3/132 435/3/132
f 425/3/132 434/3/132 432/3/132
f 437/21/2 438/21/2 439/21/2
f 438/28/2 437/28/2 440/28/2
f 441/45/91 442/45/91 443/45/91
f 443/45/91 444/45/91 441/45/91
f 437/45/133 443/45/133 440/45/133
f 443/45/133 437/45/133 444/45/133
f 445/45/93 446/45/93 447/45/93
f 447/45/93 448/45/93 445/45/93
f 442/45/134 441/45/134 439/45/134
f 439/45/134 438/45/134 442/45/134
f 447/45/2 439/45/2 448/45/2
f 439/8/2 447/8/2 437/8/2
f 441/45/135 445/45/135 448/45/135
f 448/45/135 439/45/135 441/45/135
f 441/45/91 444/45/91 446/45/91
f 446/45/91 445/45/91 441/45/91
f 446/45/136 437/45/136 447/45/136
f 437/45/136 446/45/136 444/45/136
f 449/20/2 450/20/2 451/20/2
f 450/20/2 449/20/2 452/20/2
f 453/20/91 454/20/91 455/20/91
f 455/20/91 456/20/91 453/20/91
f 449/20/137 455/20/137 452/20/137
f 455/20/137 449/20/137 456/20/137
f 457/20/93 458/20/93 459/20/93
f 459/20/93 460/20/93 457/20/93
f 454/20/138 453/20/138 451/20/138
f 451/20/138 450/20/138 454/20/138
f 459/20/2 451/20/2 460/20/2
f 451/20/2 459/20/2 449/20/2
f 453/20/139 457/20/139 460/20/139
f 460/20/139 451/20/139 453/20/139
f 453/20/91 456/20/91 458/20/91
f 458/20/91 457/20/91 453/20/91
f 458/20/140 449/20/140 459/20/140
f 449/20/140 458/20/140 456/20/140
f 461/45/2 462/45/2 463/45/2
f 462/45/2 461/45/2 464/45/2
f 465/45/91 466/45/91 467/45/91
f 467/45/91 468/45/91 465/45/91
f 461/8/141 467/8/141 464/8/141
f 467/45/141 461/45/141 468/45/141
f 469/8/93 470/8/93 471/8/93
f 471/45/93 472/45/93 469/45/93
f 466/45/142 465/45/142 463/45/142
f 463/45/142 462/45/142 466/45/142
f 471/45/2 463/45/2 472/45/2
f 463/8/2 471/8/2 461/8/2
f 465/45/143 469/45/143 472/45/143
f 472/8/143 463/8/143 465/8/143
f 465/45/91 468/45/91 470/45/91
f 470/45/91 469/45/91 465/45/91
f 470/45/144 461/45/144 471/45/144
f 461/8/144 470/8/144 468/8/144
f 473/40/2 474/40/2 475/40/2
f 474/34/2 473/34/2 476/34/2
f 477/40/91 478/40/91 479/40/91
f 479/40/91 480/40/91 477/40/91
f 473/34/145 479/34/145 476/34/145
f 479/40/145 473/40/145 480/40/145
f 481/34/93 482/34/93 483/34/93
f 483/34/93 484/34/93 481/34/93
f 478/40/146 477/40/146 475/40/146
f 475/34/146 474/34/146 478/34/146
f 483/34/2 475/34/2 484/34/2
f 475/34/2 483/34/2 473/34/2
f 477/3/147 481/3/147 484/3/147
f 484/3/147 475/3/147 477/3/147
f 477/40/91 480/40/91 482/40/91
f 482/40/91 481/40/91 477/40/91
f 482/40/148 473/40/148 483/40/148
f 473/40/148 482/40/148 480/40/148
f 485/45/2 486/45/2 487/45/2
f 486/8/2 485/8/2 488/8/2
f 489/45/91 490/45/91 491/45/91
f 491/45/91 492/45/91 489/45/91
f 485/45/149 491/45/149 488/45/149
f 491/45/149 485/45/149 492/45/149
f 493/45/93 494/45/93 495/45/93
f 495/45/93 496/45/93 493/45/93
f 490/45/150 489/45/150 487/45/150
f 487/28/150 486/28/150 490/28/150
f 495/45/2 487/45/2 496/45/2
f 487/21/2 495/21/2 485/21/2
f 489/45/151 493/45/151 496/45/151
f 496/28/151 487/28/151 489/28/151
f 489/45/91 492/45/91 494/45/91
f 494/45/91 493/45/91 489/45/91
f 494/45/152 485/45/152 495/45/152
f 485/45/152 494/45/152 492/45/152
f 497/50/2 498/50/2 499/50/2
f 498/31/2 497/31/2 500/31/2
f 501/31/91 502/31/91 503/31/91
f 503/31/91 504/31/91 501/31/91
f 500/31/54 503/31/54 498/31/54
f 503/31/54 500/31/54 504/31/54
f 501/43/153 500/43/153 497/43/153
f 500/43/153 501/43/153 504/43/153
f 498/31/65 503/31/65 502/31/65
f 502/50/65 499/50/65 498/50/65
f 505/12/154 506/12/154 507/12/154
f 506/18/154 505/18/154 508/18/154
f 505/12/40 507/12/40 509/12/40
f 509/12/40 510/12/40 505/12/40
f 511/12/155 512/12/155 513/12/155
f 513/18/155 514/18/155 511/18/155
f 508/43/156 515/43/156 506/43/156
f 515/14/156 508/14/156 516/14/156
f 516/7/157 508/7/157 505/7/157
f 505/14/157 510/14/157 516/14/157
f 507/12/158 515/12/158 509/12/158
f 515/12/158 507/12/158 506/12/158
f 517/12/158 515/12/158 513/12/158
f 515/18/158 517/18/158 509/18/158
f 510/12/157 518/12/157 514/12/157
f 514/12/157 516/12/157 510/12/157
f 510/12/159 509/12/159 517/12/159
f 517/12/159 518/12/159 510/12/159
f 516/18/54 513/18/54 515/18/54
f 513/12/54 516/12/54 514/12/54
f 518/12/40 517/12/40 512/12/40
f 512/12/40 511/12/40 518/12/40
f 518/12/157 511/12/157 514/12/157
f 513/18/158 512/18/158 517/18/158
f 519/12/160 520/12/160 521/12/160
f 521/12/160 522/12/160 519/12/160
f 520/30/161 523/30/161 524/30/161
f 524/18/161 521/18/161 520/18/161
f 523/30/162 525/30/162 526/30/162
f 526/12/162 524/12/162 523/12/162
f 525/18/163 527/18/163 528/18/163
f 528/18/163 526/18/163 525/18/163
f 528/12/164 529/12/164 530/12/164
f 529/12/164 528/12/164 527/12/164
f 530/18/165 531/18/165 532/18/165
f 531/30/165 530/30/165 529/30/165
f 519/12/166 522/12/166 533/12/166
f 533/18/166 534/18/166 519/18/166
f 535/30/167 534/30/167 533/30/167
f 533/18/167 536/18/167 535/18/167
f 537/43/168 535/43/168 536/43/168
f 535/18/168 537/18/168 538/18/168
f 539/12/169 538/12/169 537/12/169
f 538/12/169 539/12/169 540/12/169
f 541/18/170 540/18/170 539/18/170
f 540/12/170 541/12/170 542/12/170
f 532/18/171 542/18/171 541/18/171
f 542/5/171 532/5/171 531/5/171
f 543/40/172 544/40/172 545/40/172
f 545/12/172 546/12/172 543/12/172
f 547/46/173 548/46/173 544/46/173
f 544/12/173 543/12/173 547/12/173
f 549/40/174 550/40/174 548/40/174
f 548/12/174 547/12/174 549/12/174
f 551/40/175 552/40/175 550/40/175
f 550/12/175 549/12/175 551/12/175
f 551/40/176 553/40/176 552/40/176
f 553/12/176 551/12/176 554/12/176
f 554/40/177 555/40/177 553/40/177
f 555/12/177 554/12/177 556/12/177
f 556/29/178 557/29/178 555/29/178
f 557/18/178 556/18/178 558/18/178
f 558/29/179 559/29/179 557/29/179
f 559/18/179 558/18/179 560/18/179
f 560/3/180 561/3/180 559/3/180
f 561/12/180 560/12/180 562/12/180
f 562/3/181 563/3/181 561/3/181
f 563/12/181 562/12/181 564/12/181
f 565/40/182 566/40/182 563/40/182
f 563/12/182 564/12/182 565/12/182
f 546/40/183 545/40/183 566/40/183
f 566/12/183 565/12/183 546/12/183
f 521/12/184 543/12/184 546/12/184
f 546/18/184 522/18/184 521/18/184
f 524/12/185 547/12/185 543/12/185
f 543/18/185 521/18/185 524/18/185
f 526/12/186 549/12/186 547/12/186
f 547/18/186 524/18/186 526/18/186
f 528/12/187 551/12/187 549/12/187
f 549/12/187 526/12/187 528/12/187
f 528/12/188 554/12/188 551/12/188
f 554/12/188 528/12/188 530/12/188
f 530/18/189 556/18/189 554/18/189
f 556/12/189 530/12/189 532/12/189
f 532/12/190 558/12/190 556/12/190
f 558/12/190 532/12/190 541/12/190
f 541/18/191 560/18/191 558/18/191
f 560/18/191 541/18/191 539/18/191
f 539/12/192 562/12/192 560/12/192
f 562/12/192 539/12/192 537/12/192
f 537/12/193 564/12/193 562/12/193
f 564/12/193 537/12/193 536/12/193
f 533/30/194 565/30/194 564/30/194
f 564/18/194 536/18/194 533/18/194
f 522/4/195 546/4/195 565/4/195
f 565/30/195 533/30/195 522/30/195
f 567/30/54 568/30/54 569/30/54
f 568/18/54 570/18/54 569/18/54
f 570/18/54 568/18/54 571/18/54
f 571/12/54 568/12/54 572/12/54
f 568/31/54 573/31/54 572/31/54
f 573/12/54 568/12/54 574/12/54
f 567/12/54 575/12/54 568/12/54
f 568/12/54 575/12/54 576/12/54
f 576/43/54 577/43/54 568/43/54
f 577/43/54 578/43/54 568/43/54
f 568/12/54 578/12/54 579/12/54
f 579/12/54 574/12/54 568/12/54
f 580/13/40 581/13/40 582/13/40
f 582/13/40 581/13/40 583/13/40
f 583/13/40 584/13/40 582/13/40
f 584/13/40 585/13/40 582/13/40
f 582/30/40 585/30/40 586/30/40
f 586/18/40 587/18/40 582/18/40
f 580/13/40 582/13/40 588/13/40
f 582/13/40 589/13/40 588/13/40
f 589/13/40 582/13/40 590/13/40
f 590/13/40 582/13/40 591/13/40
f 582/18/40 592/18/40 591/18/40
f 592/12/40 582/12/40 587/12/40
f 569/13/196 581/13/196 580/13/196
f 580/13/196 567/13/196 569/13/196
f 570/13/197 583/13/197 581/13/197
f 581/13/197 569/13/197 570/13/197
f 571/13/198 584/13/198 583/13/198
f 583/13/198 570/13/198 571/13/198
f 572/13/199 585/13/199 584/13/199
f 584/13/199 571/13/199 572/13/199
f 572/18/200 586/18/200 585/18/200
f 586/18/200 572/18/200 573/18/200
f 573/12/201 587/12/201 586/12/201
f 587/12/201 573/12/201 574/12/201
f 567/13/202 580/13/202 588/13/202
f 588/13/202 575/13/202 567/13/202
f 575/13/203 588/13/203 589/13/203
f 589/13/203 576/13/203 575/13/203
f 577/13/204 589/13/204 590/13/204
f 589/13/204 577/13/204 576/13/204
f 578/13/205 590/13/205 591/13/205
f 590/13/205 578/13/205 577/13/205
f 579/43/206 591/43/206 592/43/206
f 591/43/206 579/43/206 578/43/206
f 574/12/207 592/12/207 587/12/207
f 592/43/207 574/43/207 579/43/207
f 593/12/208 594/12/208 595/12/208
f 595/12/208 596/12/208 593/12/208
f 597/18/209 598/18/209 594/18/209
f 594/18/209 593/18/209 597/18/209
f 599/31/210 596/31/210 595/31/210
f 595/12/210 600/12/210 599/12/210
f 601/12/211 599/12/211 600/12/211
f 600/43/211 602/43/211 601/43/211
f 603/12/212 601/12/212 602/12/212
f 602/49/212 604/49/212 603/49/212
f 605/18/213 603/18/213 604/18/213
f 604/12/213 606/12/213 605/12/213
f 607/43/214 605/43/214 606/43/214
f 606/43/214 608/43/214 607/43/214
f 609/31/215 607/31/215 608/31/215
f 608/43/215 610/43/215 609/43/215
f 611/12/216 609/12/216 610/12/216
f 610/12/216 612/12/216 611/12/216
f 613/30/217 614/30/217 615/30/217
f 615/12/217 616/12/217 613/12/217
f 617/12/218 613/12/218 616/12/218
f 616/12/218 618/12/218 617/12/218
f 614/12/219 619/12/219 620/12/219
f 620/12/219 615/12/219 614/12/219
f 619/5/220 611/5/220 612/5/220
f 612/12/220 620/12/220 619/12/220
f 621/43/221 622/43/221 623/43/221
f 623/43/221 624/43/221 621/43/221
f 624/43/222 623/43/222 625/43/222
f 625/43/222 626/43/222 624/43/222
f 621/12/223 627/12/223 622/12/223
f 627/12/223 621/12/223 628/12/223
f 594/12/224 629/12/224 595/12/224
f 629/12/224 594/12/224 630/12/224
f 598/12/225 630/12/225 594/12/225
f 630/31/225 598/31/225 631/31/225
f 629/43/226 632/43/226 600/43/226
f 600/12/226 595/12/226 629/12/226
f 632/12/227 633/12/227 602/12/227
f 602/30/227 600/30/227 632/30/227
f 633/12/228 634/12/228 604/12/228
f 604/12/228 602/12/228 633/12/228
f 604/30/229 635/30/229 606/30/229
f 635/12/229 604/12/229 634/12/229
f 606/12/230 636/12/230 608/12/230
f 636/30/230 606/30/230 635/30/230
f 608/43/231 637/43/231 610/43/231
f 637/43/231 608/43/231 636/43/231
f 610/43/232 638/43/232 612/43/232
f 638/12/232 610/12/232 637/12/232
f 621/12/233 624/12/233 616/12/233
f 616/12/233 615/12/233 621/12/233
f 620/12/234 621/12/234 615/12/234
f 621/12/234 620/12/234 628/12/234
f 612/18/235 628/18/235 620/18/235
f 628/12/235 612/12/235 638/12/235
f 639/43/236 613/43/236 617/43/236
f 613/43/236 639/43/236 640/43/236
f 641/43/237 640/43/237 639/43/237
f 640/18/237 641/18/237 642/18/237
f 640/43/238 643/43/238 644/43/238
f 643/43/238 640/43/238 642/43/238
f 645/18/239 611/18/239 619/18/239
f 619/12/239 646/12/239 645/12/239
f 609/4/240 611/4/240 645/4/240
f 645/18/240 647/18/240 609/18/240
f 607/18/241 609/18/241 647/18/241
f 647/12/241 648/12/241 607/12/241
f 605/12/242 607/12/242 648/12/242
f 648/18/242 649/18/242 605/18/242
f 603/18/243 605/18/243 649/18/243
f 649/12/243 650/12/243 603/12/243
f 651/12/244 603/12/244 650/12/244
f 603/12/244 651/12/244 601/12/244
f 652/12/245 601/12/245 651/12/245
f 601/12/245 652/12/245 599/12/245
f 653/12/246 599/12/246 652/12/246
f 599/50/246 653/50/246 596/50/246
f 593/12/247 596/12/247 653/12/247
f 653/43/247 654/43/247 593/43/247
f 622/12/248 627/12/248 643/12/248
f 643/12/249 623/12/249 622/12/249
f 623/43/249 643/43/249 642/43/249
f 642/31/250 625/31/250 623/31/250
f 625/12/250 642/12/250 641/12/250
f 638/12/251 627/12/251 628/12/251
f 627/30/251 638/30/251 645/30/251
f 653/12/2 630/12/2 654/12/2
f 630/12/2 653/12/2 629/12/2
f 654/18/2 631/18/2 655/18/2
f 631/31/2 654/31/2 630/31/2
f 632/12/2 653/12/2 652/12/2
f 653/12/2 632/12/2 629/12/2
f 633/12/2 652/12/2 651/12/2
f 652/12/2 633/12/2 632/12/2
f 634/12/2 651/12/2 650/12/2
f 651/12/2 634/12/2 633/12/2
f 635/12/2 650/12/2 649/12/2
f 650/12/2 635/12/2 634/12/2
f 636/12/2 649/12/2 648/12/2
f 649/18/2 636/18/2 635/18/2
f 637/12/2 648/12/2 647/12/2
f 648/12/2 637/12/2 636/12/2
f 638/12/2 647/12/2 645/12/2
f 647/12/2 638/12/2 637/12/2
f 616/43/252 624/43/252 626/43/252
f 626/31/252 618/31/252 616/31/252
f 643/18/253 627/18/253 646/18/253
f 646/12/253 644/12/253 643/12/253
f 597/12/254 593/12/254 654/12/254
f 654/43/254 655/43/254 597/43/254
f 613/43/255 644/43/255 614/43/255
f 644/31/255 613/31/255 640/31/255
f 644/12/256 646/12/256 619/12/256
f 619/43/256 614/43/256 644/43/256
f 646/18/257 627/18/257 645/18/257
f 656/12/258 657/12/258 658/12/258
f 658/30/258 659/30/258 656/30/258
f 660/12/259 661/12/259 662/12/259
f 661/5/259 660/5/259 663/5/259
f 664/12/260 660/12/260 665/12/260
f 660/12/260 664/12/260 663/12/260
f 666/12/261 662/12/261 661/12/261
f 661/43/261 667/43/261 666/43/261
f 666/43/261 667/43/261 657/43/261
f 657/12/261 656/12/261 666/12/261
f 658/30/262 665/30/262 659/30/262
f 665/12/262 658/12/262 664/12/262
f 668/18/40 669/18/40 670/18/40
f 670/43/40 671/43/40 668/43/40
f 669/12/40 672/12/40 673/12/40
f 673/18/40 670/18/40 669/18/40
f 672/30/40 669/30/40 674/30/40
f 674/12/40 669/12/40 668/12/40
f 675/12/54 676/12/54 677/12/54
f 676/4/54 675/4/54 678/4/54
f 678/18/54 679/18/54 676/18/54
f 679/30/54 678/30/54 680/30/54
f 679/18/54 681/18/54 676/18/54
f 681/18/54 677/18/54 676/18/54
f 675/26/263 677/26/263 668/26/263
f 668/31/263 671/31/263 675/31/263
f 678/26/65 675/26/65 671/26/65
f 671/4/65 670/4/65 678/4/65
f 680/30/65 678/30/65 670/30/65
f 670/18/65 673/18/65 680/18/65
f 672/30/264 680/30/264 673/30/264
f 680/30/264 672/30/264 679/30/264
f 674/30/265 679/30/265 672/30/265
f 679/18/265 674/18/265 681/18/265
f 668/12/266 681/12/266 674/12/266
f 681/12/266 668/12/266 677/12/266
f 682/22/261 683/22/261 684/22/261
f 684/15/261 685/15/261 682/15/261
f 685/36/267 686/36/267 682/36/267
f 686/36/267 685/36/267 687/36/267
f 688/39/268 687/39/268 685/39/268
f 685/24/268 684/24/268 688/24/268
f 689/16/269 688/16/269 684/16/269
f 684/11/269 683/11/269 689/11/269
f 690/14/2 691/14/2 692/14/2
f 691/26/2 690/26/2 693/26/2
f 694/26/91 695/26/91 696/26/91
f 696/26/91 697/26/91 694/26/91
f 693/26/54 696/26/54 691/26/54
f 696/26/54 693/26/54 697/26/54
f 694/44/153 693/44/153 690/44/153
f 693/44/153 694/44/153 697/44/153
f 691/26/65 696/26/65 695/26/65
f 695/26/65 692/26/65 691/26/65
f 698/31/54 699/31/54 700/31/54
f 699/31/54 698/31/54 701/31/54
f 702/31/2 700/31/2 703/31/2
f 700/50/2 702/50/2 698/50/2
f 702/31/40 703/31/40 704/31/40
f 704/31/40 705/31/40 702/31/40
f 702/31/153 701/31/153 698/31/153
f 701/31/153 702/31/153 705/31/153
f 699/31/65 704/31/65 703/31/65
f 703/44/65 700/44/65 699/44/65
f 706/43/54 707/43/54 708/43/54
f 707/43/54 706/43/54 709/43/54
f 710/43/2 708/43/2 711/43/2
f 708/43/2 710/43/2 706/43/2
f 710/43/40 711/43/40 712/43/40
f 712/43/40 713/43/40 710/43/40
f 710/43/153 709/43/153 706/43/153
f 709/43/153 710/43/153 713/43/153
f 707/43/65 712/43/65 711/43/65
f 711/43/65 708/43/65 707/43/65
f 714/43/54 715/43/54 716/43/54
f 715/43/54 714/43/54 717/43/54
f 718/43/2 716/43/2 719/43/2
f 716/43/2 718/43/2 714/43/2
f 718/43/40 719/43/40 720/43/40
f 720/43/40 721/43/40 718/43/40
f 718/43/153 717/43/153 714/43/153
f 717/43/153 718/43/153 721/43/153
f 715/43/65 720/43/65 719/43/65
f 719/43/65 716/43/65 715/43/65
f 722/43/54 723/43/54 724/43/54
f 723/43/54 722/43/54 725/43/54
f 726/43/2 724/43/2 727/43/2
f 724/43/2 726/43/2 722/43/2
f 726/43/40 727/43/40 728/43/40
f 728/5/40 729/5/40 726/5/40
f 726/5/153 725/5/153 722/5/153
f 725/5/153 726/5/153 729/5/153
f 723/43/65 728/43/65 727/43/65
f 727/5/65 724/5/65 723/5/65
f 730/12/54 731/12/54 732/12/54
f 731/12/54 730/12/54 733/12/54
f 734/43/2 732/43/2 735/43/2
f 732/43/2 734/43/2 730/43/2
f 734/12/40 735/12/40 736/12/40
f 736/12/40 737/12/40 734/12/40
f 734/12/153 733/12/153 730/12/153
f 733/5/153 734/5/153 737/5/153
f 731/12/65 736/12/65 735/12/65
f 735/43/65 732/43/65 731/43/65
f 738/31/54 739/31/54 740/31/54
f 739/43/54 738/43/54 741/43/54
f 742/6/2 740/6/2 743/6/2
f 740/31/2 742/31/2 738/31/2
f 742/31/40 743/31/40 744/31/40
f 744/43/40 745/43/40 742/43/40
f 742/31/153 741/31/153 738/31/153
f 741/31/153 742/31/153 745/31/153
f 739/31/65 744/31/65 743/31/65
f 743/43/65 740/43/65 739/43/65
f 746/43/54 747/43/54 748/43/54
f 747/43/54 746/43/54 749/43/54
f 750/43/2 748/43/2 751/43/2
f 748/43/2 750/43/2 746/43/2
f 750/43/40 751/43/40 752/43/40
f 752/43/40 753/43/40 750/43/40
f 750/43/153 749/43/153 746/43/153
f 749/43/153 750/43/153 753/43/153
f 747/43/65 752/43/65 751/43/65
f 751/43/65 748/43/65 747/43/65
f 754/43/54 755/43/54 756/43/54
f 755/43/54 754/43/54 757/43/54
f 758/43/2 756/43/2 759/43/2
f 756/43/2 758/43/2 754/43/2
f 758/43/40 759/43/40 760/43/40
f 760/43/40 761/43/40 758/43/40
f 758/43/153 757/43/153 754/43/153
f 757/43/153 758/43/153 761/43/153
f 755/43/65 760/43/65 759/43/65
f 759/43/65 756/43/65 755/43/65
f 762/43/54 763/43/54 764/43/54
f 763/43/54 762/43/54 765/43/54
f 766/43/2 764/43/2 767/43/2
f 764/43/2 766/43/2 762/43/2
f 766/43/40 767/43/40 768/43/40
f 768/43/40 769/43/40 766/43/40
f 766/43/153 765/43/153 762/43/153
f 765/43/153 766/43/153 769/43/153
f 763/43/65 768/43/65 767/43/65
f 767/43/65 764/43/65 763/43/65
f 770/5/54 771/5/54 772/5/54
f 771/43/54 770/43/54 773/43/54
f 774/43/2 772/43/2 775/43/2
f 772/43/2 774/43/2 770/43/2
f 774/43/40 775/43/40 776/43/40
f 776/43/40 777/43/40 774/43/40
f 774/43/153 773/43/153 770/43/153
f 773/43/153 774/43/153 777/43/153
f 771/5/65 776/5/65 775/5/65
f 775/12/65 772/12/65 771/12/65
f 778/31/54 779/31/54 780/31/54
f 779/5/54 778/5/54 781/5/54
f 782/43/2 780/43/2 783/43/2
f 780/43/2 782/43/2 778/43/2
f 782/5/40 783/5/40 784/5/40
f 784/5/40 785/5/40 782/5/40
f 782/12/153 781/12/153 778/12/153
f 781/43/153 782/43/153 785/43/153
f 779/5/65 784/5/65 783/5/65
f 783/5/65 780/5/65 779/5/65
f 786/12/54 787/12/54 788/12/54
f 787/31/54 786/31/54 789/31/54
f 790/5/2 788/5/2 791/5/2
f 788/43/2 790/43/2 786/43/2
f 790/12/40 791/12/40 792/12/40
f 792/12/40 793/12/40 790/12/40
f 790/43/153 789/43/153 786/43/153
f 789/12/153 790/12/153 793/12/153
f 787/12/65 792/12/65 791/12/65
f 791/12/65 788/12/65 787/12/65
f 794/12/54 795/12/54 796/12/54
f 795/12/54 794/12/54 797/12/54
f 798/12/2 796/12/2 799/12/2
f 796/12/2 798/12/2 794/12/2
f 798/12/40 799/12/40 800/12/40
f 800/12/40 801/12/40 798/12/40
f 798/12/153 797/12/153 794/12/153
f 797/12/153 798/12/153 801/12/153
f 795/12/65 800/12/65 799/12/65
f 799/12/65 796/12/65 795/12/65
f 802/43/54 803/43/54 804/43/54
f 803/43/54 802/43/54 805/43/54
f 806/31/2 804/31/2 807/31/2
f 804/43/2 806/43/2 802/43/2
f 806/43/40 807/43/40 808/43/40
f 808/43/40 809/43/40 806/43/40
f 806/43/153 805/43/153 802/43/153
f 805/43/153 806/43/153 809/43/153
f 803/43/65 808/43/65 807/43/65
f 807/31/65 804/31/65 803/31/65
f 810/12/54 811/12/54 812/12/54
f 811/12/54 810/12/54 813/12/54
f 814/18/2 812/18/2 815/18/2
f 812/12/2 814/12/2 810/12/2
f 814/12/40 815/12/40 816/12/40
f 816/12/40 817/12/40 814/12/40
f 814/12/153 813/12/153 810/12/153
f 813/12/153 814/12/153 817/12/153
f 811/12/65 816/12/65 815/12/65
f 815/18/65 812/18/65 811/18/65
f 818/12/54 819/12/54 820/12/54
f 819/12/54 818/12/54 821/12/54
f 822/12/2 820/12/2 823/12/2
f 820/12/2 822/12/2 818/12/2
f 822/12/40 823/12/40 824/12/40
f 824/12/40 825/12/40 822/12/40
f 822/12/153 821/12/153 818/12/153
f 821/12/153 822/12/153 825/12/153
f 819/12/65 824/12/65 823/12/65
f 823/12/65 820/12/65 819/12/65
f 826/12/270 827/12/270 828/12/270
f 828/12/270 829/12/270 826/12/270
f 830/12/271 826/12/271 829/12/271
f 826/12/271 830/12/271 831/12/271
f 832/12/272 831/12/272 830/12/272
f 831/12/272 832/12/272 833/12/272
f 827/12/273 833/12/273 832/12/273
f 832/12/273 828/12/273 827/12/273
f 831/12/54 827/12/54 826/12/54
f 827/12/54 831/12/54 833/12/54
f 829/12/274 828/12/274 834/12/274
f 834/12/274 835/12/274 829/12/274
f 830/12/275 829/12/275 835/12/275
f 835/12/275 836/12/275 830/12/275
f 832/12/276 830/12/276 836/12/276
f 836/12/276 837/12/276 832/12/276
f 828/12/277 832/12/277 837/12/277
f 837/12/277 834/12/277 828/12/277
f 835/12/270 834/12/270 838/12/270
f 838/12/270 839/12/270 835/12/270
f 840/12/271 835/12/271 839/12/271
f 835/12/271 840/12/271 836/12/271
f 841/12/272 836/12/272 840/12/272
f 836/12/272 841/12/272 837/12/272
f 834/12/273 837/12/273 841/12/273
f 841/12/273 838/12/273 834/12/273
f 842/12/278 843/12/278 844/12/278
f 844/12/278 845/12/278 842/12/278
f 845/12/279 844/12/279 846/12/279
f 846/12/279 847/12/279 845/12/279
f 848/43/280 846/43/280 849/43/280
f 846/12/280 848/12/280 847/12/280
f 842/18/281 849/18/281 843/18/281
f 849/30/281 842/30/281 848/30/281
f 846/43/54 843/43/54 849/43/54
f 843/18/54 846/18/54 844/18/54
f 850/12/282 842/12/282 845/12/282
f 845/12/282 851/12/282 850/12/282
f 851/12/283 845/12/283 847/12/283
f 847/12/283 852/12/283 851/12/283
f 852/12/284 847/12/284 848/12/284
f 848/5/284 853/5/284 852/5/284
f 853/30/285 848/30/285 842/30/285
f 842/18/285 850/18/285 853/18/285
f 854/12/278 850/12/278 851/12/278
f 851/12/278 855/12/278 854/12/278
f 855/12/279 851/12/279 852/12/279
f 852/12/279 856/12/279 855/12/279
f 857/12/280 852/12/280 853/12/280
f 852/12/280 857/12/280 856/12/280
f 854/12/281 853/12/281 850/12/281
f 853/12/281 854/12/281 857/12/281
f 858/18/286 859/18/286 860/18/286
f 859/18/286 858/18/286 861/18/286
f 862/12/2 863/12/2 864/12/2
f 863/18/2 862/18/2 865/18/2
f 866/12/287 867/12/287 868/12/287
f 868/12/287 869/12/287 866/12/287
f 862/12/288 861/12/288 865/12/288
f 861/12/288 862/12/288 869/12/288
f 859/12/289 868/12/289 864/12/289
f 864/12/289 863/12/289 859/12/289
f 861/12/290 858/12/290 865/12/290
f 860/18/2 870/18/2 858/18/2
f 870/12/2 860/12/2 871/12/2
f 863/12/291 860/12/291 859/12/291
f 866/12/2 872/12/2 867/12/2
f 872/30/2 866/30/2 873/30/2
f 862/18/290 866/18/290 869/18/290
f 868/12/291 867/12/291 864/12/291
f 863/18/292 865/18/292 870/18/292
f 870/18/292 871/18/292 863/18/292
f 863/12/291 871/12/291 860/12/291
f 858/18/290 870/18/290 865/18/290
f 873/12/293 864/12/293 872/12/293
f 864/18/293 873/18/293 862/18/293
f 862/30/290 873/30/290 866/30/290
f 867/12/291 872/12/291 864/12/291
