# Braids Synth block. Generated by tools/make-block-mesh.py -- edit that,
# not this. A pair of beamed semiquavers, from the constants in that file.
o SynthBlock
v -0.198817 -0.127337 -0.607445
v -0.220495 -0.127337 -0.570363
v -0.252597 -0.127337 -0.539791
v -0.198817 0.127337 -0.607445
v -0.252597 0.127337 -0.539791
v -0.220495 0.127337 -0.570363
v -0.198817 -0.127337 -0.607445
v -0.252597 -0.127337 -0.539791
v -0.293514 -0.127337 -0.517263
v -0.198817 0.127337 -0.607445
v -0.293514 0.127337 -0.517263
v -0.252597 0.127337 -0.539791
v -0.198817 -0.127337 -0.607445
v -0.293514 -0.127337 -0.517263
v -0.341194 -0.127337 -0.503908
v -0.198817 0.127337 -0.607445
v -0.341194 0.127337 -0.503908
v -0.293514 0.127337 -0.517263
v -0.198817 -0.127337 -0.607445
v -0.341194 -0.127337 -0.503908
v -0.393246 -0.127337 -0.500395
v -0.198817 0.127337 -0.607445
v -0.393246 0.127337 -0.500395
v -0.341194 0.127337 -0.503908
v -0.198817 -0.127337 -0.607445
v -0.393246 -0.127337 -0.500395
v -0.447061 -0.127337 -0.506902
v -0.198817 0.127337 -0.607445
v -0.447061 0.127337 -0.506902
v -0.393246 0.127337 -0.500395
v -0.198817 -0.127337 -0.607445
v -0.447061 -0.127337 -0.506902
v -0.499939 -0.127337 -0.523101
v -0.198817 0.127337 -0.607445
v -0.499939 0.127337 -0.523101
v -0.447061 0.127337 -0.506902
v -0.198817 -0.127337 -0.607445
v -0.499939 -0.127337 -0.523101
v -0.549229 -0.127337 -0.548180
v -0.198817 0.127337 -0.607445
v -0.549229 0.127337 -0.548180
v -0.499939 0.127337 -0.523101
v -0.198817 -0.127337 -0.607445
v -0.549229 -0.127337 -0.548180
v -0.592460 -0.127337 -0.580883
v -0.198817 0.127337 -0.607445
v -0.592460 0.127337 -0.580883
v -0.549229 0.127337 -0.548180
v -0.198817 -0.127337 -0.607445
v -0.592460 -0.127337 -0.580883
v -0.627463 -0.127337 -0.619568
v -0.198817 0.127337 -0.607445
v -0.627463 0.127337 -0.619568
v -0.592460 0.127337 -0.580883
v -0.198817 -0.127337 -0.607445
v -0.627463 -0.127337 -0.619568
v -0.652484 -0.127337 -0.662296
v -0.198817 0.127337 -0.607445
v -0.652484 0.127337 -0.662296
v -0.627463 0.127337 -0.619568
v -0.198817 -0.127337 -0.607445
v -0.652484 -0.127337 -0.662296
v -0.666268 -0.127337 -0.706925
v -0.198817 0.127337 -0.607445
v -0.666268 0.127337 -0.706925
v -0.652484 0.127337 -0.662296
v -0.198817 -0.127337 -0.607445
v -0.666268 -0.127337 -0.706925
v -0.668123 -0.127337 -0.751217
v -0.198817 0.127337 -0.607445
v -0.668123 0.127337 -0.751217
v -0.666268 0.127337 -0.706925
v -0.198817 -0.127337 -0.607445
v -0.668123 -0.127337 -0.751217
v -0.657957 -0.127337 -0.792950
v -0.198817 0.127337 -0.607445
v -0.657957 0.127337 -0.792950
v -0.668123 0.127337 -0.751217
v -0.198817 -0.127337 -0.607445
v -0.657957 -0.127337 -0.792950
v -0.636280 -0.127337 -0.830032
v -0.198817 0.127337 -0.607445
v -0.636280 0.127337 -0.830032
v -0.657957 0.127337 -0.792950
v -0.198817 -0.127337 -0.607445
v -0.636280 -0.127337 -0.830032
v -0.604177 -0.127337 -0.860604
v -0.198817 0.127337 -0.607445
v -0.604177 0.127337 -0.860604
v -0.636280 0.127337 -0.830032
v -0.198817 -0.127337 -0.607445
v -0.604177 -0.127337 -0.860604
v -0.563260 -0.127337 -0.883132
v -0.198817 0.127337 -0.607445
v -0.563260 0.127337 -0.883132
v -0.604177 0.127337 -0.860604
v -0.198817 -0.127337 -0.607445
v -0.563260 -0.127337 -0.883132
v -0.515580 -0.127337 -0.896488
v -0.198817 0.127337 -0.607445
v -0.515580 0.127337 -0.896488
v -0.563260 0.127337 -0.883132
v -0.198817 -0.127337 -0.607445
v -0.515580 -0.127337 -0.896488
v -0.463528 -0.127337 -0.900000
v -0.198817 0.127337 -0.607445
v -0.463528 0.127337 -0.900000
v -0.515580 0.127337 -0.896488
v -0.198817 -0.127337 -0.607445
v -0.463528 -0.127337 -0.900000
v -0.409714 -0.127337 -0.893494
v -0.198817 0.127337 -0.607445
v -0.409714 0.127337 -0.893494
v -0.463528 0.127337 -0.900000
v -0.198817 -0.127337 -0.607445
v -0.409714 -0.127337 -0.893494
v -0.356835 -0.127337 -0.877294
v -0.198817 0.127337 -0.607445
v -0.356835 0.127337 -0.877294
v -0.409714 0.127337 -0.893494
v -0.198817 -0.127337 -0.607445
v -0.356835 -0.127337 -0.877294
v -0.307545 -0.127337 -0.852215
v -0.198817 0.127337 -0.607445
v -0.307545 0.127337 -0.852215
v -0.356835 0.127337 -0.877294
v -0.198817 -0.127337 -0.607445
v -0.307545 -0.127337 -0.852215
v -0.264315 -0.127337 -0.819513
v -0.198817 0.127337 -0.607445
v -0.264315 0.127337 -0.819513
v -0.307545 0.127337 -0.852215
v -0.198817 -0.127337 -0.607445
v -0.264315 -0.127337 -0.819513
v -0.229311 -0.127337 -0.780827
v -0.198817 0.127337 -0.607445
v -0.229311 0.127337 -0.780827
v -0.264315 0.127337 -0.819513
v -0.198817 -0.127337 -0.607445
v -0.229311 -0.127337 -0.780827
v -0.204290 -0.127337 -0.738099
v -0.198817 0.127337 -0.607445
v -0.204290 0.127337 -0.738099
v -0.229311 0.127337 -0.780827
v -0.198817 -0.127337 -0.607445
v -0.204290 -0.127337 -0.738099
v -0.190507 -0.127337 -0.693470
v -0.198817 0.127337 -0.607445
v -0.190507 0.127337 -0.693470
v -0.204290 0.127337 -0.738099
v -0.198817 -0.127337 -0.607445
v -0.190507 -0.127337 -0.693470
v -0.188651 -0.127337 -0.649179
v -0.198817 0.127337 -0.607445
v -0.188651 0.127337 -0.649179
v -0.190507 0.127337 -0.693470
v -0.198817 -0.127337 -0.607445
v -0.220495 0.127337 -0.570363
v -0.220495 -0.127337 -0.570363
v -0.198817 -0.127337 -0.607445
v -0.198817 0.127337 -0.607445
v -0.220495 0.127337 -0.570363
v -0.220495 -0.127337 -0.570363
v -0.252597 0.127337 -0.539791
v -0.252597 -0.127337 -0.539791
v -0.220495 -0.127337 -0.570363
v -0.220495 0.127337 -0.570363
v -0.252597 0.127337 -0.539791
v -0.252597 -0.127337 -0.539791
v -0.293514 0.127337 -0.517263
v -0.293514 -0.127337 -0.517263
v -0.252597 -0.127337 -0.539791
v -0.252597 0.127337 -0.539791
v -0.293514 0.127337 -0.517263
v -0.293514 -0.127337 -0.517263
v -0.341194 0.127337 -0.503908
v -0.341194 -0.127337 -0.503908
v -0.293514 -0.127337 -0.517263
v -0.293514 0.127337 -0.517263
v -0.341194 0.127337 -0.503908
v -0.341194 -0.127337 -0.503908
v -0.393246 0.127337 -0.500395
v -0.393246 -0.127337 -0.500395
v -0.341194 -0.127337 -0.503908
v -0.341194 0.127337 -0.503908
v -0.393246 0.127337 -0.500395
v -0.393246 -0.127337 -0.500395
v -0.447061 0.127337 -0.506902
v -0.447061 -0.127337 -0.506902
v -0.393246 -0.127337 -0.500395
v -0.393246 0.127337 -0.500395
v -0.447061 0.127337 -0.506902
v -0.447061 -0.127337 -0.506902
v -0.499939 0.127337 -0.523101
v -0.499939 -0.127337 -0.523101
v -0.447061 -0.127337 -0.506902
v -0.447061 0.127337 -0.506902
v -0.499939 0.127337 -0.523101
v -0.499939 -0.127337 -0.523101
v -0.549229 0.127337 -0.548180
v -0.549229 -0.127337 -0.548180
v -0.499939 -0.127337 -0.523101
v -0.499939 0.127337 -0.523101
v -0.549229 0.127337 -0.548180
v -0.549229 -0.127337 -0.548180
v -0.592460 0.127337 -0.580883
v -0.592460 -0.127337 -0.580883
v -0.549229 -0.127337 -0.548180
v -0.549229 0.127337 -0.548180
v -0.592460 0.127337 -0.580883
v -0.592460 -0.127337 -0.580883
v -0.627463 0.127337 -0.619568
v -0.627463 -0.127337 -0.619568
v -0.592460 -0.127337 -0.580883
v -0.592460 0.127337 -0.580883
v -0.627463 0.127337 -0.619568
v -0.627463 -0.127337 -0.619568
v -0.652484 0.127337 -0.662296
v -0.652484 -0.127337 -0.662296
v -0.627463 -0.127337 -0.619568
v -0.627463 0.127337 -0.619568
v -0.652484 0.127337 -0.662296
v -0.652484 -0.127337 -0.662296
v -0.666268 0.127337 -0.706925
v -0.666268 -0.127337 -0.706925
v -0.652484 -0.127337 -0.662296
v -0.652484 0.127337 -0.662296
v -0.666268 0.127337 -0.706925
v -0.666268 -0.127337 -0.706925
v -0.668123 0.127337 -0.751217
v -0.668123 -0.127337 -0.751217
v -0.666268 -0.127337 -0.706925
v -0.666268 0.127337 -0.706925
v -0.668123 0.127337 -0.751217
v -0.668123 -0.127337 -0.751217
v -0.657957 0.127337 -0.792950
v -0.657957 -0.127337 -0.792950
v -0.668123 -0.127337 -0.751217
v -0.668123 0.127337 -0.751217
v -0.657957 0.127337 -0.792950
v -0.657957 -0.127337 -0.792950
v -0.636280 0.127337 -0.830032
v -0.636280 -0.127337 -0.830032
v -0.657957 -0.127337 -0.792950
v -0.657957 0.127337 -0.792950
v -0.636280 0.127337 -0.830032
v -0.636280 -0.127337 -0.830032
v -0.604177 0.127337 -0.860604
v -0.604177 -0.127337 -0.860604
v -0.636280 -0.127337 -0.830032
v -0.636280 0.127337 -0.830032
v -0.604177 0.127337 -0.860604
v -0.604177 -0.127337 -0.860604
v -0.563260 0.127337 -0.883132
v -0.563260 -0.127337 -0.883132
v -0.604177 -0.127337 -0.860604
v -0.604177 0.127337 -0.860604
v -0.563260 0.127337 -0.883132
v -0.563260 -0.127337 -0.883132
v -0.515580 0.127337 -0.896488
v -0.515580 -0.127337 -0.896488
v -0.563260 -0.127337 -0.883132
v -0.563260 0.127337 -0.883132
v -0.515580 0.127337 -0.896488
v -0.515580 -0.127337 -0.896488
v -0.463528 0.127337 -0.900000
v -0.463528 -0.127337 -0.900000
v -0.515580 -0.127337 -0.896488
v -0.515580 0.127337 -0.896488
v -0.463528 0.127337 -0.900000
v -0.463528 -0.127337 -0.900000
v -0.409714 0.127337 -0.893494
v -0.409714 -0.127337 -0.893494
v -0.463528 -0.127337 -0.900000
v -0.463528 0.127337 -0.900000
v -0.409714 0.127337 -0.893494
v -0.409714 -0.127337 -0.893494
v -0.356835 0.127337 -0.877294
v -0.356835 -0.127337 -0.877294
v -0.409714 -0.127337 -0.893494
v -0.409714 0.127337 -0.893494
v -0.356835 0.127337 -0.877294
v -0.356835 -0.127337 -0.877294
v -0.307545 0.127337 -0.852215
v -0.307545 -0.127337 -0.852215
v -0.356835 -0.127337 -0.877294
v -0.356835 0.127337 -0.877294
v -0.307545 0.127337 -0.852215
v -0.307545 -0.127337 -0.852215
v -0.264315 0.127337 -0.819513
v -0.264315 -0.127337 -0.819513
v -0.307545 -0.127337 -0.852215
v -0.307545 0.127337 -0.852215
v -0.264315 0.127337 -0.819513
v -0.264315 -0.127337 -0.819513
v -0.229311 0.127337 -0.780827
v -0.229311 -0.127337 -0.780827
v -0.264315 -0.127337 -0.819513
v -0.264315 0.127337 -0.819513
v -0.229311 0.127337 -0.780827
v -0.229311 -0.127337 -0.780827
v -0.204290 0.127337 -0.738099
v -0.204290 -0.127337 -0.738099
v -0.229311 -0.127337 -0.780827
v -0.229311 0.127337 -0.780827
v -0.204290 0.127337 -0.738099
v -0.204290 -0.127337 -0.738099
v -0.190507 0.127337 -0.693470
v -0.190507 -0.127337 -0.693470
v -0.204290 -0.127337 -0.738099
v -0.204290 0.127337 -0.738099
v -0.190507 0.127337 -0.693470
v -0.190507 -0.127337 -0.693470
v -0.188651 0.127337 -0.649179
v -0.188651 -0.127337 -0.649179
v -0.190507 -0.127337 -0.693470
v -0.190507 0.127337 -0.693470
v -0.188651 0.127337 -0.649179
v -0.188651 -0.127337 -0.649179
v -0.198817 0.127337 -0.607445
v -0.198817 -0.127337 -0.607445
v -0.188651 -0.127337 -0.649179
v -0.188651 0.127337 -0.649179
v -0.198817 0.127337 -0.607445
v 0.650094 -0.127337 -0.267881
v 0.628416 -0.127337 -0.230799
v 0.596314 -0.127337 -0.200227
v 0.650094 0.127337 -0.267881
v 0.596314 0.127337 -0.200227
v 0.628416 0.127337 -0.230799
v 0.650094 -0.127337 -0.267881
v 0.596314 -0.127337 -0.200227
v 0.555397 -0.127337 -0.177698
v 0.650094 0.127337 -0.267881
v 0.555397 0.127337 -0.177698
v 0.596314 0.127337 -0.200227
v 0.650094 -0.127337 -0.267881
v 0.555397 -0.127337 -0.177698
v 0.507717 -0.127337 -0.164343
v 0.650094 0.127337 -0.267881
v 0.507717 0.127337 -0.164343
v 0.555397 0.127337 -0.177698
v 0.650094 -0.127337 -0.267881
v 0.507717 -0.127337 -0.164343
v 0.455665 -0.127337 -0.160831
v 0.650094 0.127337 -0.267881
v 0.455665 0.127337 -0.160831
v 0.507717 0.127337 -0.164343
v 0.650094 -0.127337 -0.267881
v 0.455665 -0.127337 -0.160831
v 0.401850 -0.127337 -0.167337
v 0.650094 0.127337 -0.267881
v 0.401850 0.127337 -0.167337
v 0.455665 0.127337 -0.160831
v 0.650094 -0.127337 -0.267881
v 0.401850 -0.127337 -0.167337
v 0.348972 -0.127337 -0.183536
v 0.650094 0.127337 -0.267881
v 0.348972 0.127337 -0.183536
v 0.401850 0.127337 -0.167337
v 0.650094 -0.127337 -0.267881
v 0.348972 -0.127337 -0.183536
v 0.299682 -0.127337 -0.208616
v 0.650094 0.127337 -0.267881
v 0.299682 0.127337 -0.208616
v 0.348972 0.127337 -0.183536
v 0.650094 -0.127337 -0.267881
v 0.299682 -0.127337 -0.208616
v 0.256451 -0.127337 -0.241318
v 0.650094 0.127337 -0.267881
v 0.256451 0.127337 -0.241318
v 0.299682 0.127337 -0.208616
v 0.650094 -0.127337 -0.267881
v 0.256451 -0.127337 -0.241318
v 0.221448 -0.127337 -0.280003
v 0.650094 0.127337 -0.267881
v 0.221448 0.127337 -0.280003
v 0.256451 0.127337 -0.241318
v 0.650094 -0.127337 -0.267881
v 0.221448 -0.127337 -0.280003
v 0.196427 -0.127337 -0.322732
v 0.650094 0.127337 -0.267881
v 0.196427 0.127337 -0.322732
v 0.221448 0.127337 -0.280003
v 0.650094 -0.127337 -0.267881
v 0.196427 -0.127337 -0.322732
v 0.182644 -0.127337 -0.367361
v 0.650094 0.127337 -0.267881
v 0.182644 0.127337 -0.367361
v 0.196427 0.127337 -0.322732
v 0.650094 -0.127337 -0.267881
v 0.182644 -0.127337 -0.367361
v 0.180788 -0.127337 -0.411652
v 0.650094 0.127337 -0.267881
v 0.180788 0.127337 -0.411652
v 0.182644 0.127337 -0.367361
v 0.650094 -0.127337 -0.267881
v 0.180788 -0.127337 -0.411652
v 0.190954 -0.127337 -0.453385
v 0.650094 0.127337 -0.267881
v 0.190954 0.127337 -0.453385
v 0.180788 0.127337 -0.411652
v 0.650094 -0.127337 -0.267881
v 0.190954 -0.127337 -0.453385
v 0.212632 -0.127337 -0.490468
v 0.650094 0.127337 -0.267881
v 0.212632 0.127337 -0.490468
v 0.190954 0.127337 -0.453385
v 0.650094 -0.127337 -0.267881
v 0.212632 -0.127337 -0.490468
v 0.244734 -0.127337 -0.521039
v 0.650094 0.127337 -0.267881
v 0.244734 0.127337 -0.521039
v 0.212632 0.127337 -0.490468
v 0.650094 -0.127337 -0.267881
v 0.244734 -0.127337 -0.521039
v 0.285651 -0.127337 -0.543568
v 0.650094 0.127337 -0.267881
v 0.285651 0.127337 -0.543568
v 0.244734 0.127337 -0.521039
v 0.650094 -0.127337 -0.267881
v 0.285651 -0.127337 -0.543568
v 0.333331 -0.127337 -0.556923
v 0.650094 0.127337 -0.267881
v 0.333331 0.127337 -0.556923
v 0.285651 0.127337 -0.543568
v 0.650094 -0.127337 -0.267881
v 0.333331 -0.127337 -0.556923
v 0.385383 -0.127337 -0.560436
v 0.650094 0.127337 -0.267881
v 0.385383 0.127337 -0.560436
v 0.333331 0.127337 -0.556923
v 0.650094 -0.127337 -0.267881
v 0.385383 -0.127337 -0.560436
v 0.439198 -0.127337 -0.553929
v 0.650094 0.127337 -0.267881
v 0.439198 0.127337 -0.553929
v 0.385383 0.127337 -0.560436
v 0.650094 -0.127337 -0.267881
v 0.439198 -0.127337 -0.553929
v 0.492076 -0.127337 -0.537730
v 0.650094 0.127337 -0.267881
v 0.492076 0.127337 -0.537730
v 0.439198 0.127337 -0.553929
v 0.650094 -0.127337 -0.267881
v 0.492076 -0.127337 -0.537730
v 0.541366 -0.127337 -0.512650
v 0.650094 0.127337 -0.267881
v 0.541366 0.127337 -0.512650
v 0.492076 0.127337 -0.537730
v 0.650094 -0.127337 -0.267881
v 0.541366 -0.127337 -0.512650
v 0.584597 -0.127337 -0.479948
v 0.650094 0.127337 -0.267881
v 0.584597 0.127337 -0.479948
v 0.541366 0.127337 -0.512650
v 0.650094 -0.127337 -0.267881
v 0.584597 -0.127337 -0.479948
v 0.619600 -0.127337 -0.441263
v 0.650094 0.127337 -0.267881
v 0.619600 0.127337 -0.441263
v 0.584597 0.127337 -0.479948
v 0.650094 -0.127337 -0.267881
v 0.619600 -0.127337 -0.441263
v 0.644621 -0.127337 -0.398535
v 0.650094 0.127337 -0.267881
v 0.644621 0.127337 -0.398535
v 0.619600 0.127337 -0.441263
v 0.650094 -0.127337 -0.267881
v 0.644621 -0.127337 -0.398535
v 0.658404 -0.127337 -0.353906
v 0.650094 0.127337 -0.267881
v 0.658404 0.127337 -0.353906
v 0.644621 0.127337 -0.398535
v 0.650094 -0.127337 -0.267881
v 0.658404 -0.127337 -0.353906
v 0.660260 -0.127337 -0.309614
v 0.650094 0.127337 -0.267881
v 0.660260 0.127337 -0.309614
v 0.658404 0.127337 -0.353906
v 0.650094 -0.127337 -0.267881
v 0.628416 0.127337 -0.230799
v 0.628416 -0.127337 -0.230799
v 0.650094 -0.127337 -0.267881
v 0.650094 0.127337 -0.267881
v 0.628416 0.127337 -0.230799
v 0.628416 -0.127337 -0.230799
v 0.596314 0.127337 -0.200227
v 0.596314 -0.127337 -0.200227
v 0.628416 -0.127337 -0.230799
v 0.628416 0.127337 -0.230799
v 0.596314 0.127337 -0.200227
v 0.596314 -0.127337 -0.200227
v 0.555397 0.127337 -0.177698
v 0.555397 -0.127337 -0.177698
v 0.596314 -0.127337 -0.200227
v 0.596314 0.127337 -0.200227
v 0.555397 0.127337 -0.177698
v 0.555397 -0.127337 -0.177698
v 0.507717 0.127337 -0.164343
v 0.507717 -0.127337 -0.164343
v 0.555397 -0.127337 -0.177698
v 0.555397 0.127337 -0.177698
v 0.507717 0.127337 -0.164343
v 0.507717 -0.127337 -0.164343
v 0.455665 0.127337 -0.160831
v 0.455665 -0.127337 -0.160831
v 0.507717 -0.127337 -0.164343
v 0.507717 0.127337 -0.164343
v 0.455665 0.127337 -0.160831
v 0.455665 -0.127337 -0.160831
v 0.401850 0.127337 -0.167337
v 0.401850 -0.127337 -0.167337
v 0.455665 -0.127337 -0.160831
v 0.455665 0.127337 -0.160831
v 0.401850 0.127337 -0.167337
v 0.401850 -0.127337 -0.167337
v 0.348972 0.127337 -0.183536
v 0.348972 -0.127337 -0.183536
v 0.401850 -0.127337 -0.167337
v 0.401850 0.127337 -0.167337
v 0.348972 0.127337 -0.183536
v 0.348972 -0.127337 -0.183536
v 0.299682 0.127337 -0.208616
v 0.299682 -0.127337 -0.208616
v 0.348972 -0.127337 -0.183536
v 0.348972 0.127337 -0.183536
v 0.299682 0.127337 -0.208616
v 0.299682 -0.127337 -0.208616
v 0.256451 0.127337 -0.241318
v 0.256451 -0.127337 -0.241318
v 0.299682 -0.127337 -0.208616
v 0.299682 0.127337 -0.208616
v 0.256451 0.127337 -0.241318
v 0.256451 -0.127337 -0.241318
v 0.221448 0.127337 -0.280003
v 0.221448 -0.127337 -0.280003
v 0.256451 -0.127337 -0.241318
v 0.256451 0.127337 -0.241318
v 0.221448 0.127337 -0.280003
v 0.221448 -0.127337 -0.280003
v 0.196427 0.127337 -0.322732
v 0.196427 -0.127337 -0.322732
v 0.221448 -0.127337 -0.280003
v 0.221448 0.127337 -0.280003
v 0.196427 0.127337 -0.322732
v 0.196427 -0.127337 -0.322732
v 0.182644 0.127337 -0.367361
v 0.182644 -0.127337 -0.367361
v 0.196427 -0.127337 -0.322732
v 0.196427 0.127337 -0.322732
v 0.182644 0.127337 -0.367361
v 0.182644 -0.127337 -0.367361
v 0.180788 0.127337 -0.411652
v 0.180788 -0.127337 -0.411652
v 0.182644 -0.127337 -0.367361
v 0.182644 0.127337 -0.367361
v 0.180788 0.127337 -0.411652
v 0.180788 -0.127337 -0.411652
v 0.190954 0.127337 -0.453385
v 0.190954 -0.127337 -0.453385
v 0.180788 -0.127337 -0.411652
v 0.180788 0.127337 -0.411652
v 0.190954 0.127337 -0.453385
v 0.190954 -0.127337 -0.453385
v 0.212632 0.127337 -0.490468
v 0.212632 -0.127337 -0.490468
v 0.190954 -0.127337 -0.453385
v 0.190954 0.127337 -0.453385
v 0.212632 0.127337 -0.490468
v 0.212632 -0.127337 -0.490468
v 0.244734 0.127337 -0.521039
v 0.244734 -0.127337 -0.521039
v 0.212632 -0.127337 -0.490468
v 0.212632 0.127337 -0.490468
v 0.244734 0.127337 -0.521039
v 0.244734 -0.127337 -0.521039
v 0.285651 0.127337 -0.543568
v 0.285651 -0.127337 -0.543568
v 0.244734 -0.127337 -0.521039
v 0.244734 0.127337 -0.521039
v 0.285651 0.127337 -0.543568
v 0.285651 -0.127337 -0.543568
v 0.333331 0.127337 -0.556923
v 0.333331 -0.127337 -0.556923
v 0.285651 -0.127337 -0.543568
v 0.285651 0.127337 -0.543568
v 0.333331 0.127337 -0.556923
v 0.333331 -0.127337 -0.556923
v 0.385383 0.127337 -0.560436
v 0.385383 -0.127337 -0.560436
v 0.333331 -0.127337 -0.556923
v 0.333331 0.127337 -0.556923
v 0.385383 0.127337 -0.560436
v 0.385383 -0.127337 -0.560436
v 0.439198 0.127337 -0.553929
v 0.439198 -0.127337 -0.553929
v 0.385383 -0.127337 -0.560436
v 0.385383 0.127337 -0.560436
v 0.439198 0.127337 -0.553929
v 0.439198 -0.127337 -0.553929
v 0.492076 0.127337 -0.537730
v 0.492076 -0.127337 -0.537730
v 0.439198 -0.127337 -0.553929
v 0.439198 0.127337 -0.553929
v 0.492076 0.127337 -0.537730
v 0.492076 -0.127337 -0.537730
v 0.541366 0.127337 -0.512650
v 0.541366 -0.127337 -0.512650
v 0.492076 -0.127337 -0.537730
v 0.492076 0.127337 -0.537730
v 0.541366 0.127337 -0.512650
v 0.541366 -0.127337 -0.512650
v 0.584597 0.127337 -0.479948
v 0.584597 -0.127337 -0.479948
v 0.541366 -0.127337 -0.512650
v 0.541366 0.127337 -0.512650
v 0.584597 0.127337 -0.479948
v 0.584597 -0.127337 -0.479948
v 0.619600 0.127337 -0.441263
v 0.619600 -0.127337 -0.441263
v 0.584597 -0.127337 -0.479948
v 0.584597 0.127337 -0.479948
v 0.619600 0.127337 -0.441263
v 0.619600 -0.127337 -0.441263
v 0.644621 0.127337 -0.398535
v 0.644621 -0.127337 -0.398535
v 0.619600 -0.127337 -0.441263
v 0.619600 0.127337 -0.441263
v 0.644621 0.127337 -0.398535
v 0.644621 -0.127337 -0.398535
v 0.658404 0.127337 -0.353906
v 0.658404 -0.127337 -0.353906
v 0.644621 -0.127337 -0.398535
v 0.644621 0.127337 -0.398535
v 0.658404 0.127337 -0.353906
v 0.658404 -0.127337 -0.353906
v 0.660260 0.127337 -0.309614
v 0.660260 -0.127337 -0.309614
v 0.658404 -0.127337 -0.353906
v 0.658404 0.127337 -0.353906
v 0.660260 0.127337 -0.309614
v 0.660260 -0.127337 -0.309614
v 0.650094 0.127337 -0.267881
v 0.650094 -0.127337 -0.267881
v 0.660260 -0.127337 -0.309614
v 0.660260 0.127337 -0.309614
v 0.650094 0.127337 -0.267881
v -0.258605 -0.127337 -0.700198
v -0.180788 -0.127337 -0.700198
v -0.180788 -0.127337 0.544872
v -0.258605 0.127337 -0.700198
v -0.180788 0.127337 0.544872
v -0.180788 0.127337 -0.700198
v -0.258605 -0.127337 -0.700198
v -0.180788 -0.127337 0.544872
v -0.258605 -0.127337 0.544872
v -0.258605 0.127337 -0.700198
v -0.258605 0.127337 0.544872
v -0.180788 0.127337 0.544872
v -0.258605 -0.127337 -0.700198
v -0.180788 0.127337 -0.700198
v -0.180788 -0.127337 -0.700198
v -0.258605 -0.127337 -0.700198
v -0.258605 0.127337 -0.700198
v -0.180788 0.127337 -0.700198
v -0.180788 -0.127337 -0.700198
v -0.180788 0.127337 0.544872
v -0.180788 -0.127337 0.544872
v -0.180788 -0.127337 -0.700198
v -0.180788 0.127337 -0.700198
v -0.180788 0.127337 0.544872
v -0.180788 -0.127337 0.544872
v -0.258605 0.127337 0.544872
v -0.258605 -0.127337 0.544872
v -0.180788 -0.127337 0.544872
v -0.180788 0.127337 0.544872
v -0.258605 0.127337 0.544872
v -0.258605 -0.127337 0.544872
v -0.258605 0.127337 -0.700198
v -0.258605 -0.127337 -0.700198
v -0.258605 -0.127337 0.544872
v -0.258605 0.127337 0.544872
v -0.258605 0.127337 -0.700198
v 0.590306 -0.127337 -0.360633
v 0.668123 -0.127337 -0.360633
v 0.668123 -0.127337 0.884437
v 0.590306 0.127337 -0.360633
v 0.668123 0.127337 0.884437
v 0.668123 0.127337 -0.360633
v 0.590306 -0.127337 -0.360633
v 0.668123 -0.127337 0.884437
v 0.590306 -0.127337 0.884437
v 0.590306 0.127337 -0.360633
v 0.590306 0.127337 0.884437
v 0.668123 0.127337 0.884437
v 0.590306 -0.127337 -0.360633
v 0.668123 0.127337 -0.360633
v 0.668123 -0.127337 -0.360633
v 0.590306 -0.127337 -0.360633
v 0.590306 0.127337 -0.360633
v 0.668123 0.127337 -0.360633
v 0.668123 -0.127337 -0.360633
v 0.668123 0.127337 0.884437
v 0.668123 -0.127337 0.884437
v 0.668123 -0.127337 -0.360633
v 0.668123 0.127337 -0.360633
v 0.668123 0.127337 0.884437
v 0.668123 -0.127337 0.884437
v 0.590306 0.127337 0.884437
v 0.590306 -0.127337 0.884437
v 0.668123 -0.127337 0.884437
v 0.668123 0.127337 0.884437
v 0.590306 0.127337 0.884437
v 0.590306 -0.127337 0.884437
v 0.590306 0.127337 -0.360633
v 0.590306 -0.127337 -0.360633
v 0.590306 -0.127337 0.884437
v 0.590306 0.127337 0.884437
v 0.590306 0.127337 -0.360633
v -0.258605 -0.127337 0.366601
v 0.668123 -0.127337 0.737292
v 0.668123 -0.127337 0.900000
v -0.258605 0.127337 0.366601
v 0.668123 0.127337 0.900000
v 0.668123 0.127337 0.737292
v -0.258605 -0.127337 0.366601
v 0.668123 -0.127337 0.900000
v -0.258605 -0.127337 0.529309
v -0.258605 0.127337 0.366601
v -0.258605 0.127337 0.529309
v 0.668123 0.127337 0.900000
v -0.258605 -0.127337 0.366601
v 0.668123 0.127337 0.737292
v 0.668123 -0.127337 0.737292
v -0.258605 -0.127337 0.366601
v -0.258605 0.127337 0.366601
v 0.668123 0.127337 0.737292
v 0.668123 -0.127337 0.737292
v 0.668123 0.127337 0.900000
v 0.668123 -0.127337 0.900000
v 0.668123 -0.127337 0.737292
v 0.668123 0.127337 0.737292
v 0.668123 0.127337 0.900000
v 0.668123 -0.127337 0.900000
v -0.258605 0.127337 0.529309
v -0.258605 -0.127337 0.529309
v 0.668123 -0.127337 0.900000
v 0.668123 0.127337 0.900000
v -0.258605 0.127337 0.529309
v -0.258605 -0.127337 0.529309
v -0.258605 0.127337 0.366601
v -0.258605 -0.127337 0.366601
v -0.258605 -0.127337 0.529309
v -0.258605 0.127337 0.529309
v -0.258605 0.127337 0.366601
v -0.258605 -0.127337 0.097779
v 0.668123 -0.127337 0.468470
v 0.668123 -0.127337 0.631178
v -0.258605 0.127337 0.097779
v 0.668123 0.127337 0.631178
v 0.668123 0.127337 0.468470
v -0.258605 -0.127337 0.097779
v 0.668123 -0.127337 0.631178
v -0.258605 -0.127337 0.260487
v -0.258605 0.127337 0.097779
v -0.258605 0.127337 0.260487
v 0.668123 0.127337 0.631178
v -0.258605 -0.127337 0.097779
v 0.668123 0.127337 0.468470
v 0.668123 -0.127337 0.468470
v -0.258605 -0.127337 0.097779
v -0.258605 0.127337 0.097779
v 0.668123 0.127337 0.468470
v 0.668123 -0.127337 0.468470
v 0.668123 0.127337 0.631178
v 0.668123 -0.127337 0.631178
v 0.668123 -0.127337 0.468470
v 0.668123 0.127337 0.468470
v 0.668123 0.127337 0.631178
v 0.668123 -0.127337 0.631178
v -0.258605 0.127337 0.260487
v -0.258605 -0.127337 0.260487
v 0.668123 -0.127337 0.631178
v 0.668123 0.127337 0.631178
v -0.258605 0.127337 0.260487
v -0.258605 -0.127337 0.260487
v -0.258605 0.127337 0.097779
v -0.258605 -0.127337 0.097779
v -0.258605 -0.127337 0.260487
v -0.258605 0.127337 0.260487
v -0.258605 0.127337 0.097779
vt 0.250000 0.250000
vn 0.000000 -1.000000 0.000000
vn 0.000000 1.000000 0.000000
vn 0.000000 -1.000000 0.000000
vn 0.000000 1.000000 0.000000
vn 0.000000 -1.000000 0.000000
vn 0.000000 1.000000 0.000000
vn 0.000000 -1.000000 0.000000
vn 0.000000 1.000000 0.000000
vn 0.000000 -1.000000 0.000000
vn 0.000000 1.000000 0.000000
vn 0.000000 -1.000000 0.000000
vn 0.000000 1.000000 0.000000
vn 0.000000 -1.000000 0.000000
vn 0.000000 1.000000 0.000000
vn 0.000000 -1.000000 0.000000
vn 0.000000 1.000000 0.000000
vn -0.000000 -1.000000 0.000000
vn 0.000000 1.000000 0.000000
vn 0.000000 -1.000000 0.000000
vn 0.000000 1.000000 0.000000
vn 0.000000 -1.000000 0.000000
vn 0.000000 1.000000 0.000000
vn 0.000000 -1.000000 0.000000
vn 0.000000 1.000000 0.000000
vn 0.000000 -1.000000 0.000000
vn 0.000000 1.000000 0.000000
vn 0.000000 -1.000000 0.000000
vn 0.000000 1.000000 0.000000
vn 0.000000 -1.000000 0.000000
vn 0.000000 1.000000 0.000000
vn 0.000000 -1.000000 0.000000
vn 0.000000 1.000000 0.000000
vn 0.000000 -1.000000 0.000000
vn 0.000000 1.000000 0.000000
vn 0.000000 -1.000000 0.000000
vn 0.000000 1.000000 0.000000
vn 0.000000 -1.000000 0.000000
vn 0.000000 1.000000 0.000000
vn 0.000000 -1.000000 0.000000
vn 0.000000 1.000000 0.000000
vn 0.000000 -1.000000 0.000000
vn 0.000000 1.000000 0.000000
vn 0.000000 -1.000000 0.000000
vn 0.000000 1.000000 0.000000
vn 0.000000 -1.000000 0.000000
vn 0.000000 1.000000 0.000000
vn 0.000000 -1.000000 0.000000
vn 0.000000 1.000000 0.000000
vn 0.000000 -1.000000 -0.000000
vn 0.000000 1.000000 0.000000
vn 0.000000 -1.000000 0.000000
vn 0.000000 1.000000 0.000000
vn 0.863310 0.000000 0.504674
vn 0.863310 -0.000000 0.504674
vn 0.689635 0.000000 0.724157
vn 0.689635 -0.000000 0.724157
vn 0.482313 0.000000 0.875999
vn 0.482313 -0.000000 0.875999
vn 0.269720 0.000000 0.962939
vn 0.269720 -0.000000 0.962939
vn 0.067326 0.000000 0.997731
vn 0.067326 -0.000000 0.997731
vn -0.120032 0.000000 0.992770
vn -0.120032 0.000000 0.992770
vn -0.292912 0.000000 0.956139
vn -0.292912 0.000000 0.956139
vn -0.453487 0.000000 0.891263
vn -0.453487 0.000000 0.891263
vn -0.603293 0.000000 0.797520
vn -0.603293 0.000000 0.797520
vn -0.741513 0.000000 0.670939
vn -0.741513 0.000000 0.670939
vn -0.862934 0.000000 0.505317
vn -0.862934 0.000000 0.505317
vn -0.955467 0.000000 0.295098
vn -0.955467 0.000000 0.295098
vn -0.999124 0.000000 0.041854
vn -0.999124 0.000000 0.041854
vn -0.971589 0.000000 -0.236673
vn -0.971589 0.000000 -0.236673
vn -0.863310 0.000000 -0.504674
vn -0.863310 0.000000 -0.504674
vn -0.689635 0.000000 -0.724157
vn -0.689635 0.000000 -0.724157
vn -0.482313 0.000000 -0.875999
vn -0.482313 0.000000 -0.875999
vn -0.269720 0.000000 -0.962939
vn -0.269720 0.000000 -0.962939
vn -0.067326 0.000000 -0.997731
vn -0.067326 0.000000 -0.997731
vn 0.120032 0.000000 -0.992770
vn 0.120032 0.000000 -0.992770
vn 0.292912 0.000000 -0.956139
vn 0.292912 0.000000 -0.956139
vn 0.453487 0.000000 -0.891263
vn 0.453487 0.000000 -0.891263
vn 0.603293 0.000000 -0.797520
vn 0.603293 0.000000 -0.797520
vn 0.741513 0.000000 -0.670939
vn 0.741513 0.000000 -0.670939
vn 0.862934 0.000000 -0.505317
vn 0.862934 0.000000 -0.505317
vn 0.955467 0.000000 -0.295098
vn 0.955467 0.000000 -0.295098
vn 0.999124 0.000000 -0.041854
vn 0.999124 0.000000 -0.041854
vn 0.971589 0.000000 0.236673
vn 0.971589 -0.000000 0.236673
vn 0.000000 -1.000000 0.000000
vn 0.000000 1.000000 0.000000
vn 0.000000 -1.000000 0.000000
vn 0.000000 1.000000 0.000000
vn 0.000000 -1.000000 0.000000
vn 0.000000 1.000000 0.000000
vn 0.000000 -1.000000 0.000000
vn 0.000000 1.000000 0.000000
vn 0.000000 -1.000000 0.000000
vn 0.000000 1.000000 0.000000
vn 0.000000 -1.000000 0.000000
vn 0.000000 1.000000 0.000000
vn 0.000000 -1.000000 0.000000
vn 0.000000 1.000000 0.000000
vn 0.000000 -1.000000 0.000000
vn 0.000000 1.000000 0.000000
vn -0.000000 -1.000000 0.000000
vn 0.000000 1.000000 0.000000
vn 0.000000 -1.000000 0.000000
vn 0.000000 1.000000 0.000000
vn 0.000000 -1.000000 0.000000
vn 0.000000 1.000000 0.000000
vn 0.000000 -1.000000 0.000000
vn 0.000000 1.000000 0.000000
vn 0.000000 -1.000000 0.000000
vn 0.000000 1.000000 0.000000
vn 0.000000 -1.000000 0.000000
vn 0.000000 1.000000 0.000000
vn 0.000000 -1.000000 0.000000
vn 0.000000 1.000000 0.000000
vn 0.000000 -1.000000 0.000000
vn 0.000000 1.000000 0.000000
vn 0.000000 -1.000000 0.000000
vn 0.000000 1.000000 0.000000
vn 0.000000 -1.000000 0.000000
vn 0.000000 1.000000 0.000000
vn 0.000000 -1.000000 0.000000
vn 0.000000 1.000000 0.000000
vn 0.000000 -1.000000 0.000000
vn 0.000000 1.000000 0.000000
vn 0.000000 -1.000000 0.000000
vn 0.000000 1.000000 0.000000
vn 0.000000 -1.000000 0.000000
vn 0.000000 1.000000 0.000000
vn 0.000000 -1.000000 0.000000
vn 0.000000 1.000000 0.000000
vn 0.000000 -1.000000 0.000000
vn 0.000000 1.000000 0.000000
vn 0.000000 -1.000000 -0.000000
vn 0.000000 1.000000 0.000000
vn 0.000000 -1.000000 0.000000
vn 0.000000 1.000000 0.000000
vn 0.863310 0.000000 0.504674
vn 0.863310 -0.000000 0.504674
vn 0.689635 0.000000 0.724157
vn 0.689635 -0.000000 0.724157
vn 0.482313 0.000000 0.875999
vn 0.482313 -0.000000 0.875999
vn 0.269720 0.000000 0.962939
vn 0.269720 -0.000000 0.962939
vn 0.067326 0.000000 0.997731
vn 0.067326 -0.000000 0.997731
vn -0.120032 0.000000 0.992770
vn -0.120032 0.000000 0.992770
vn -0.292912 0.000000 0.956139
vn -0.292912 0.000000 0.956139
vn -0.453487 0.000000 0.891263
vn -0.453487 0.000000 0.891263
vn -0.603293 0.000000 0.797520
vn -0.603293 0.000000 0.797520
vn -0.741513 0.000000 0.670939
vn -0.741513 0.000000 0.670939
vn -0.862934 0.000000 0.505317
vn -0.862934 0.000000 0.505317
vn -0.955467 0.000000 0.295098
vn -0.955467 0.000000 0.295098
vn -0.999124 0.000000 0.041854
vn -0.999124 0.000000 0.041854
vn -0.971589 0.000000 -0.236673
vn -0.971589 0.000000 -0.236673
vn -0.863310 0.000000 -0.504674
vn -0.863310 0.000000 -0.504674
vn -0.689635 0.000000 -0.724157
vn -0.689635 0.000000 -0.724157
vn -0.482313 0.000000 -0.875999
vn -0.482313 0.000000 -0.875999
vn -0.269720 0.000000 -0.962939
vn -0.269720 0.000000 -0.962939
vn -0.067326 0.000000 -0.997731
vn -0.067326 0.000000 -0.997731
vn 0.120032 0.000000 -0.992770
vn 0.120032 0.000000 -0.992770
vn 0.292912 0.000000 -0.956139
vn 0.292912 0.000000 -0.956139
vn 0.453487 0.000000 -0.891263
vn 0.453487 0.000000 -0.891263
vn 0.603293 0.000000 -0.797520
vn 0.603293 0.000000 -0.797520
vn 0.741513 0.000000 -0.670939
vn 0.741513 0.000000 -0.670939
vn 0.862934 0.000000 -0.505317
vn 0.862934 0.000000 -0.505317
vn 0.955467 0.000000 -0.295098
vn 0.955467 0.000000 -0.295098
vn 0.999124 0.000000 -0.041854
vn 0.999124 0.000000 -0.041854
vn 0.971589 0.000000 0.236673
vn 0.971589 -0.000000 0.236673
vn 0.000000 -1.000000 0.000000
vn 0.000000 1.000000 0.000000
vn 0.000000 -1.000000 0.000000
vn 0.000000 1.000000 0.000000
vn 0.000000 0.000000 -1.000000
vn 0.000000 0.000000 -1.000000
vn 1.000000 0.000000 0.000000
vn 1.000000 0.000000 0.000000
vn 0.000000 0.000000 1.000000
vn 0.000000 -0.000000 1.000000
vn -1.000000 0.000000 0.000000
vn -1.000000 0.000000 0.000000
vn 0.000000 -1.000000 0.000000
vn 0.000000 1.000000 0.000000
vn 0.000000 -1.000000 0.000000
vn 0.000000 1.000000 0.000000
vn 0.000000 0.000000 -1.000000
vn 0.000000 0.000000 -1.000000
vn 1.000000 0.000000 0.000000
vn 1.000000 0.000000 0.000000
vn 0.000000 0.000000 1.000000
vn 0.000000 -0.000000 1.000000
vn -1.000000 0.000000 0.000000
vn -1.000000 0.000000 0.000000
vn 0.000000 -1.000000 0.000000
vn 0.000000 1.000000 0.000000
vn 0.000000 -1.000000 0.000000
vn 0.000000 1.000000 0.000000
vn 0.371391 0.000000 -0.928477
vn 0.371391 0.000000 -0.928477
vn 1.000000 0.000000 0.000000
vn 1.000000 0.000000 0.000000
vn -0.371391 0.000000 0.928477
vn -0.371391 0.000000 0.928477
vn -1.000000 0.000000 0.000000
vn -1.000000 0.000000 0.000000
vn 0.000000 -1.000000 0.000000
vn 0.000000 1.000000 0.000000
vn 0.000000 -1.000000 0.000000
vn 0.000000 1.000000 0.000000
vn 0.371391 0.000000 -0.928477
vn 0.371391 0.000000 -0.928477
vn 1.000000 0.000000 0.000000
vn 1.000000 0.000000 0.000000
vn -0.371391 0.000000 0.928477
vn -0.371391 0.000000 0.928477
vn -1.000000 0.000000 0.000000
vn -1.000000 0.000000 0.000000
s off
f 1/1/1 2/1/1 3/1/1
f 4/1/2 5/1/2 6/1/2
f 7/1/3 8/1/3 9/1/3
f 10/1/4 11/1/4 12/1/4
f 13/1/5 14/1/5 15/1/5
f 16/1/6 17/1/6 18/1/6
f 19/1/7 20/1/7 21/1/7
f 22/1/8 23/1/8 24/1/8
f 25/1/9 26/1/9 27/1/9
f 28/1/10 29/1/10 30/1/10
f 31/1/11 32/1/11 33/1/11
f 34/1/12 35/1/12 36/1/12
f 37/1/13 38/1/13 39/1/13
f 40/1/14 41/1/14 42/1/14
f 43/1/15 44/1/15 45/1/15
f 46/1/16 47/1/16 48/1/16
f 49/1/17 50/1/17 51/1/17
f 52/1/18 53/1/18 54/1/18
f 55/1/19 56/1/19 57/1/19
f 58/1/20 59/1/20 60/1/20
f 61/1/21 62/1/21 63/1/21
f 64/1/22 65/1/22 66/1/22
f 67/1/23 68/1/23 69/1/23
f 70/1/24 71/1/24 72/1/24
f 73/1/25 74/1/25 75/1/25
f 76/1/26 77/1/26 78/1/26
f 79/1/27 80/1/27 81/1/27
f 82/1/28 83/1/28 84/1/28
f 85/1/29 86/1/29 87/1/29
f 88/1/30 89/1/30 90/1/30
f 91/1/31 92/1/31 93/1/31
f 94/1/32 95/1/32 96/1/32
f 97/1/33 98/1/33 99/1/33
f 100/1/34 101/1/34 102/1/34
f 103/1/35 104/1/35 105/1/35
f 106/1/36 107/1/36 108/1/36
f 109/1/37 110/1/37 111/1/37
f 112/1/38 113/1/38 114/1/38
f 115/1/39 116/1/39 117/1/39
f 118/1/40 119/1/40 120/1/40
f 121/1/41 122/1/41 123/1/41
f 124/1/42 125/1/42 126/1/42
f 127/1/43 128/1/43 129/1/43
f 130/1/44 131/1/44 132/1/44
f 133/1/45 134/1/45 135/1/45
f 136/1/46 137/1/46 138/1/46
f 139/1/47 140/1/47 141/1/47
f 142/1/48 143/1/48 144/1/48
f 145/1/49 146/1/49 147/1/49
f 148/1/50 149/1/50 150/1/50
f 151/1/51 152/1/51 153/1/51
f 154/1/52 155/1/52 156/1/52
f 157/1/53 158/1/53 159/1/53
f 160/1/54 161/1/54 162/1/54
f 163/1/55 164/1/55 165/1/55
f 166/1/56 167/1/56 168/1/56
f 169/1/57 170/1/57 171/1/57
f 172/1/58 173/1/58 174/1/58
f 175/1/59 176/1/59 177/1/59
f 178/1/60 179/1/60 180/1/60
f 181/1/61 182/1/61 183/1/61
f 184/1/62 185/1/62 186/1/62
f 187/1/63 188/1/63 189/1/63
f 190/1/64 191/1/64 192/1/64
f 193/1/65 194/1/65 195/1/65
f 196/1/66 197/1/66 198/1/66
f 199/1/67 200/1/67 201/1/67
f 202/1/68 203/1/68 204/1/68
f 205/1/69 206/1/69 207/1/69
f 208/1/70 209/1/70 210/1/70
f 211/1/71 212/1/71 213/1/71
f 214/1/72 215/1/72 216/1/72
f 217/1/73 218/1/73 219/1/73
f 220/1/74 221/1/74 222/1/74
f 223/1/75 224/1/75 225/1/75
f 226/1/76 227/1/76 228/1/76
f 229/1/77 230/1/77 231/1/77
f 232/1/78 233/1/78 234/1/78
f 235/1/79 236/1/79 237/1/79
f 238/1/80 239/1/80 240/1/80
f 241/1/81 242/1/81 243/1/81
f 244/1/82 245/1/82 246/1/82
f 247/1/83 248/1/83 249/1/83
f 250/1/84 251/1/84 252/1/84
f 253/1/85 254/1/85 255/1/85
f 256/1/86 257/1/86 258/1/86
f 259/1/87 260/1/87 261/1/87
f 262/1/88 263/1/88 264/1/88
f 265/1/89 266/1/89 267/1/89
f 268/1/90 269/1/90 270/1/90
f 271/1/91 272/1/91 273/1/91
f 274/1/92 275/1/92 276/1/92
f 277/1/93 278/1/93 279/1/93
f 280/1/94 281/1/94 282/1/94
f 283/1/95 284/1/95 285/1/95
f 286/1/96 287/1/96 288/1/96
f 289/1/97 290/1/97 291/1/97
f 292/1/98 293/1/98 294/1/98
f 295/1/99 296/1/99 297/1/99
f 298/1/100 299/1/100 300/1/100
f 301/1/101 302/1/101 303/1/101
f 304/1/102 305/1/102 306/1/102
f 307/1/103 308/1/103 309/1/103
f 310/1/104 311/1/104 312/1/104
f 313/1/105 314/1/105 315/1/105
f 316/1/106 317/1/106 318/1/106
f 319/1/107 320/1/107 321/1/107
f 322/1/108 323/1/108 324/1/108
f 325/1/109 326/1/109 327/1/109
f 328/1/110 329/1/110 330/1/110
f 331/1/111 332/1/111 333/1/111
f 334/1/112 335/1/112 336/1/112
f 337/1/113 338/1/113 339/1/113
f 340/1/114 341/1/114 342/1/114
f 343/1/115 344/1/115 345/1/115
f 346/1/116 347/1/116 348/1/116
f 349/1/117 350/1/117 351/1/117
f 352/1/118 353/1/118 354/1/118
f 355/1/119 356/1/119 357/1/119
f 358/1/120 359/1/120 360/1/120
f 361/1/121 362/1/121 363/1/121
f 364/1/122 365/1/122 366/1/122
f 367/1/123 368/1/123 369/1/123
f 370/1/124 371/1/124 372/1/124
f 373/1/125 374/1/125 375/1/125
f 376/1/126 377/1/126 378/1/126
f 379/1/127 380/1/127 381/1/127
f 382/1/128 383/1/128 384/1/128
f 385/1/129 386/1/129 387/1/129
f 388/1/130 389/1/130 390/1/130
f 391/1/131 392/1/131 393/1/131
f 394/1/132 395/1/132 396/1/132
f 397/1/133 398/1/133 399/1/133
f 400/1/134 401/1/134 402/1/134
f 403/1/135 404/1/135 405/1/135
f 406/1/136 407/1/136 408/1/136
f 409/1/137 410/1/137 411/1/137
f 412/1/138 413/1/138 414/1/138
f 415/1/139 416/1/139 417/1/139
f 418/1/140 419/1/140 420/1/140
f 421/1/141 422/1/141 423/1/141
f 424/1/142 425/1/142 426/1/142
f 427/1/143 428/1/143 429/1/143
f 430/1/144 431/1/144 432/1/144
f 433/1/145 434/1/145 435/1/145
f 436/1/146 437/1/146 438/1/146
f 439/1/147 440/1/147 441/1/147
f 442/1/148 443/1/148 444/1/148
f 445/1/149 446/1/149 447/1/149
f 448/1/150 449/1/150 450/1/150
f 451/1/151 452/1/151 453/1/151
f 454/1/152 455/1/152 456/1/152
f 457/1/153 458/1/153 459/1/153
f 460/1/154 461/1/154 462/1/154
f 463/1/155 464/1/155 465/1/155
f 466/1/156 467/1/156 468/1/156
f 469/1/157 470/1/157 471/1/157
f 472/1/158 473/1/158 474/1/158
f 475/1/159 476/1/159 477/1/159
f 478/1/160 479/1/160 480/1/160
f 481/1/161 482/1/161 483/1/161
f 484/1/162 485/1/162 486/1/162
f 487/1/163 488/1/163 489/1/163
f 490/1/164 491/1/164 492/1/164
f 493/1/165 494/1/165 495/1/165
f 496/1/166 497/1/166 498/1/166
f 499/1/167 500/1/167 501/1/167
f 502/1/168 503/1/168 504/1/168
f 505/1/169 506/1/169 507/1/169
f 508/1/170 509/1/170 510/1/170
f 511/1/171 512/1/171 513/1/171
f 514/1/172 515/1/172 516/1/172
f 517/1/173 518/1/173 519/1/173
f 520/1/174 521/1/174 522/1/174
f 523/1/175 524/1/175 525/1/175
f 526/1/176 527/1/176 528/1/176
f 529/1/177 530/1/177 531/1/177
f 532/1/178 533/1/178 534/1/178
f 535/1/179 536/1/179 537/1/179
f 538/1/180 539/1/180 540/1/180
f 541/1/181 542/1/181 543/1/181
f 544/1/182 545/1/182 546/1/182
f 547/1/183 548/1/183 549/1/183
f 550/1/184 551/1/184 552/1/184
f 553/1/185 554/1/185 555/1/185
f 556/1/186 557/1/186 558/1/186
f 559/1/187 560/1/187 561/1/187
f 562/1/188 563/1/188 564/1/188
f 565/1/189 566/1/189 567/1/189
f 568/1/190 569/1/190 570/1/190
f 571/1/191 572/1/191 573/1/191
f 574/1/192 575/1/192 576/1/192
f 577/1/193 578/1/193 579/1/193
f 580/1/194 581/1/194 582/1/194
f 583/1/195 584/1/195 585/1/195
f 586/1/196 587/1/196 588/1/196
f 589/1/197 590/1/197 591/1/197
f 592/1/198 593/1/198 594/1/198
f 595/1/199 596/1/199 597/1/199
f 598/1/200 599/1/200 600/1/200
f 601/1/201 602/1/201 603/1/201
f 604/1/202 605/1/202 606/1/202
f 607/1/203 608/1/203 609/1/203
f 610/1/204 611/1/204 612/1/204
f 613/1/205 614/1/205 615/1/205
f 616/1/206 617/1/206 618/1/206
f 619/1/207 620/1/207 621/1/207
f 622/1/208 623/1/208 624/1/208
f 625/1/209 626/1/209 627/1/209
f 628/1/210 629/1/210 630/1/210
f 631/1/211 632/1/211 633/1/211
f 634/1/212 635/1/212 636/1/212
f 637/1/213 638/1/213 639/1/213
f 640/1/214 641/1/214 642/1/214
f 643/1/215 644/1/215 645/1/215
f 646/1/216 647/1/216 648/1/216
f 649/1/217 650/1/217 651/1/217
f 652/1/218 653/1/218 654/1/218
f 655/1/219 656/1/219 657/1/219
f 658/1/220 659/1/220 660/1/220
f 661/1/221 662/1/221 663/1/221
f 664/1/222 665/1/222 666/1/222
f 667/1/223 668/1/223 669/1/223
f 670/1/224 671/1/224 672/1/224
f 673/1/225 674/1/225 675/1/225
f 676/1/226 677/1/226 678/1/226
f 679/1/227 680/1/227 681/1/227
f 682/1/228 683/1/228 684/1/228
f 685/1/229 686/1/229 687/1/229
f 688/1/230 689/1/230 690/1/230
f 691/1/231 692/1/231 693/1/231
f 694/1/232 695/1/232 696/1/232
f 697/1/233 698/1/233 699/1/233
f 700/1/234 701/1/234 702/1/234
f 703/1/235 704/1/235 705/1/235
f 706/1/236 707/1/236 708/1/236
f 709/1/237 710/1/237 711/1/237
f 712/1/238 713/1/238 714/1/238
f 715/1/239 716/1/239 717/1/239
f 718/1/240 719/1/240 720/1/240
f 721/1/241 722/1/241 723/1/241
f 724/1/242 725/1/242 726/1/242
f 727/1/243 728/1/243 729/1/243
f 730/1/244 731/1/244 732/1/244
f 733/1/245 734/1/245 735/1/245
f 736/1/246 737/1/246 738/1/246
f 739/1/247 740/1/247 741/1/247
f 742/1/248 743/1/248 744/1/248
f 745/1/249 746/1/249 747/1/249
f 748/1/250 749/1/250 750/1/250
f 751/1/251 752/1/251 753/1/251
f 754/1/252 755/1/252 756/1/252
f 757/1/253 758/1/253 759/1/253
f 760/1/254 761/1/254 762/1/254
f 763/1/255 764/1/255 765/1/255
f 766/1/256 767/1/256 768/1/256
f 769/1/257 770/1/257 771/1/257
f 772/1/258 773/1/258 774/1/258
f 775/1/259 776/1/259 777/1/259
f 778/1/260 779/1/260 780/1/260
f 781/1/261 782/1/261 783/1/261
f 784/1/262 785/1/262 786/1/262
f 787/1/263 788/1/263 789/1/263
f 790/1/264 791/1/264 792/1/264
